<?xml version="1.0" encoding="utf-8"?>
<!-- Generator: Adobe Illustrator 22.1.0, SVG Export Plug-In . SVG Version: 6.00 Build 0)  -->
<svg version="1.1" id="Layer_1" xmlns="http://www.w3.org/2000/svg" xmlns:xlink="http://www.w3.org/1999/xlink" x="0px" y="0px"
	 viewBox="0 0 1478.4 1396.7" style="enable-background:new 0 0 1478.4 1396.7;" xml:space="preserve">
<style type="text/css">
	.st0{clip-path:url(#SVGID_5_);}
	.st1{fill:#E2B97C;}
	.st2{fill:#CCA065;}
	.st3{fill:#EDCDA4;}
	.st4{fill:#E6D3BA;}
	.st5{fill:#3A3228;}
	.st6{fill:#CF9B95;}
	.st7{fill:#26150C;}
	.st8{fill:#FFFFFF;}
</style>
<symbol  id="Afghan_Hound" viewBox="-72.7 -64 145.4 128.1">
	<g id="Colours_2_5_">
		<defs>
			<path id="SVGID_2_" d="M-59.9,43.7c0.3-1.4,2.3,1.1,2.8,1.1c-0.6-0.6-0.2-1.5,0.5-2.2c0.7-0.6,2-0.4,2.8-0.2
				c1.2,0.3,2.2,0.2,3.5,0.2c1,0,2-0.2,3-0.2c0.5,0,1.1-0.2,1.5-0.5l0.1-0.3c-0.1-0.7,0.2-1.4,0.1-2c-0.1-1-0.2-1.6,0.2-2.5
				c0.3-0.8,0.5-1.6,0.3-2.5c-0.1-0.8-0.6-1.5-0.5-2.3c0.1,0,0.3,0,0.4,0c0-0.9,0.8-2.4,0.5-3.3c-1.2-3.6,0-5.6-0.2-9.2
				c-0.1-2.5,1-4.4,2.1-6.5c1.1-2.2,1.4-4.2,1.6-6.6c0.2,0.3,0.4,0.6,0.5,1c-0.1-1.6-0.2-2.3-0.6-3.9c-0.5-1.8-0.1-3,0.2-4.8
				c0.3-1.9-0.2-3.6,1-5.3c1.1-1.6,1.5-3.6,2.6-5.1c0.7-0.9,0.9-1.2,1.1-2.4c0.2-1.1,0.6-2.2,1.2-3.1c0,0.6,0,1.3,0.1,1.9
				c0.2-0.9,0.8-1.8,1.1-2.7c0.3-1,0.2-2.1,0.5-3.1c0.3-1.2,1.4-2,1.9-3c0.4-0.7,0.2-1.4,0.4-2.1c0.3-1.3,1-1.7,1.7-2.7
				c0.8-1.1,0.8-2.2,1.4-3.4c0.5-1.1,0.7-2.2,1-3.4c0.1-0.5,0.9-2.4,1.4-4.2c-0.3-2.6-0.8-4.3-2.7-5.7c-1-0.8-3.3-1.8-4.2-2.8
				c-0.8-0.9-1.3-1.8-0.2-3c1.1-1.2,3.9-1.8,5-1.4c-0.1-0.7,0.1-1.5,0.4-1.8c1.2-1.1,3.5-2.3,5.7-2.5c1.6-0.1,3.3,0.8,4.9,0.8
				c2.3,0,4.8-1,6.6-0.6c0.7,0.9,3.8,0.8,4.7,1.7c1.3,0.9-0.5,3.6-0.5,4.8c0,0.9-0.4,1.7-0.4,2.6c0,0.9-0.2,1.6,0.1,2.4
				c0.7,2.1,1.2,3.4,1.2,5.6c0,1.9-0.5,3.3-0.6,5.1c-0.1,1.4-2.2,3.6-1.6,4.8c0.2-0.3,0.4-0.6,0.5-1c0.1,2-0.1,3.6-0.7,5.4
				c-0.3,1.7,1.8,2.9,3,3.8c1.4,1,2,2.6,2.1,4.4c0.9-0.9,0.8-2.5,1-3.4c0.8,1,1.9,1.1,2.7,0.9c0.9-0.3,2.1-0.6,3-0.3
				c1.2,0.3,2.1,0.5,3.3,0.7c1.4,0.2,3.8,1.7,4.4,3c0.4-0.5,1.2-0.7,1.8-1.2c0.2-1.4-0.8-4.3-0.8-5.7c-0.1-1.6-0.2-3.4,0.4-4.9
				c0.6-1.9,0.9-2.2,1.7-4c0.7-1.5,1.6-2.9,1.8-4.8c0.1,1.1,0.5,1.2,0.8,1.4c0.8,0.5,1.1-1.5,1.7-2c0.6-0.4,0-1,0.9-1
				c0.4,0,1,0.6,1.4,0.8c0.3-0.4,0.5-0.7,0.7-1.1l0,0c-0.4-0.8-1.3-2.3-1.9-2.8c-0.9-0.7-2.2-0.5-3.3-1.1c-1.4-0.9-6-3-3.5-5.3
				c1.7-1.6,4.5-0.6,6.5-1c1.2-0.3,2.1-0.5,3.3,0c1.3,0.5,2.2,1.3,3.7,1.4c2.6,0.2,4.6-0.7,7-1.4c0.1,2.3,2.2,0.5,2.8,2.2
				c0.4,1.1-1.2,3.1-1.3,4.4l1-0.6c0.6-0.4,0.1-1,0.6-1.4c1.4-1.1,3.5-2.4,4.2-4.4c-1.1-0.4-1.7-1.9-1.9-3.1c-0.4-2.8,2-3.3,4.3-3.5
				c2.4-0.2,4.8-0.9,7-1.8c3-1.2,4.7,1.7,7.5,1.7c2.2,0,5.7,0.1,4.7,3.7c-0.3,2.3-0.6,1.2-1,3.2c-0.5,2.3-0.6,3.7-0.4,6.1
				c0.2,4.2-0.7,8-3.6,11.1c-1.4,1.5-3.3,2.5-4.3,4.5c-1,1.8-0.9,3.3-1.2,5.2c-0.3,1.9-1.4,3.4-1.7,5.3c-0.3,2.3-0.8,4.4-0.8,6.8
				c0,2.1,0.3,4.2,0.3,6.3c0,1-0.3,2-0.3,2.9c0,0,0.6,0.7,1.2,0.5c-0.6,2.3-0.8,4.7-1.4,7c-0.6,1.8-2,3.9-2.3,5.7
				c2,0.1,5.7-0.8,7.3-0.5c0.8,0.1,1.6,0.2,2.4,0.3c0.6,0.1,1.7,0,2,0.6c-0.3,0-0.3,0.1-0.4,0.3c1.8,0.4,3.2,0.5,4.8,1.8
				c1.3,1,2.6,2.5,3.4,3.9c-0.3-0.2-0.6-0.4-1-0.3c0.7,1.2,1.5,2.3,1.7,3.7c0.3,2.1,0.7,4-0.1,6c-0.4,1-1.6,3.7-4.1,5.1
				c-0.1-0.2,0.1-0.4,0.4-0.5c-2,1-5.1,1-6.7-0.6c1.7,1.1,3.6,0.2,4.9-0.8c3.2-2.6,3.7-6.3,1.8-10.3c-0.8-1.8-2.9-3.3-4.4-4.5
				c-0.9-0.7-1.9-1-3-1.4c-1-0.4-1.3-0.2-2.5-0.3c-1.8,0-3-0.2-4.9,0.6c-2.2,1-4.7,1.9-6.6,3.4c-3.3,2.5-6.2,3.8-11.9,4.4
				c-3.4,0.3-8.8-0.2-10.9-0.3c-3.8-0.2-7.7,0.5-11.4,0c-3.3-0.5-6.3-0.1-9.4,1c-0.8,0.3-4.5,1.2-5.4,1.4c-1.6,0.3-4.3,2.4-5.2,2.6
				c-1.8,0.4-2.3-0.3-3.1,1.5c-1,2-2.2,1.7-3.6,2.9c-2.9,2.4-3.6,5.8-4.9,9.2c-0.6,1.5-1.9,1.8-1.8,3.6c-0.7,1.6-1.7,4.5-2.1,6.2
				c-0.4,1.6-1.1,3.2-2,4.6c-0.8,1.3-2.4,2.2-3.7,3.1c-1.2,0.8-2.8,1.4-4.2,2c-1.4,0.6-2.8,0.3-4.4,0c-1.3-0.2-2.7,0-3.9-0.5
				c-1.3-0.5-2.4-1.3-3.7-1.7c-2.4-0.6-5.1-0.2-7.5-0.8c-1.3-0.3-2.7-0.7-4.1-0.9c-1.5-0.3-2.2-0.7-1.4-2.4c0.9-2,4.9-4.5,6.9-4.6
				c1.4-0.1,2.6,0.3,4,0.1c1.5-0.2,3.3-0.6,4.7-1.2c-0.5,0-1.2-0.1-1.6-0.1c-0.6,0-1.1-0.3-1.7-0.5c-1.1-0.4-2-1.2-3-1.7
				c-0.9-0.4-1.8-0.3-2.8-0.2c-0.4,0-0.9,0-1.3-0.2c-0.6-0.3-1-0.7-1.4-1.2c-0.3-0.4-2-1.5-1.5-2.2"/>
		</defs>
		<clipPath id="SVGID_5_">
			<use xlink:href="#SVGID_2_"  style="overflow:visible;"/>
		</clipPath>
		<g id="Base_10_" class="st0">
			<rect x="-72.7" y="-61.1" class="st1" width="142.4" height="125.1"/>
			<g>
				<path class="st2" d="M-32.7,55.2c-0.5-1,0.7-4.1,0.9-5.4c0.5-2.9,0.8-5.8,1.2-8.7c0.5-3.9,1.2-7.5,1.3-11.5
					c0-3.6-2.1-6.2-2.3-9.7c-0.2-2.8,1.8-5.6,1.4-8.2c1.1,1.2,1.1,3.6,2.5,4.5c1.4,0.9,3,0.4,3.5,2.5c0.5,2.1,0,2.4,1.7,4.1
					c1.3,1.4,2.6,2.8,2.9,4.7c-0.1-1.6,1-3.5,1.2-5.5c0.2,0.6,0.4,2.3,0.9,2.8c1.2,1,1.2-0.1,2-1c1.4-1.6,4.1-2.1,6.1-2.8
					c2.8-1,2.6,0.5,4.6-1.4c1.6-1.5,3.9-3.2,4.5-5.4c-0.1,0.9,0,3,0.4,4c1-0.3,1.6-1.4,2.5-1.9c0.9-0.5,1.6-0.7,2.6-1
					c-0.5,2.3,0.1,1.5,0.2,3.9c3.9-1,6.9-1,10.9-0.6c2.3,0.2,4.8-1.2,6.9-0.8c2.1,0.4,0.2,2.1,0.1,3.8c1.4-0.4,2.9-1.7,4.6-1.5
					c2,0.1,3.5,1.5,5.6,0.4c0.8-0.5,1.4-1.3,2.2-1.8c0.8-0.5,1.7-0.7,2.4-1.3c0.7-0.7,0.6-1.8,1.5-2.5c0.8-0.6,1.6-0.5,2.4-1
					c1.5-0.9,1.7-2.1,3.6-2.1c1.9,0.1,1.9,0.6,3.8-0.4c5.3-2.6,12.4-1.3,17.2,1.7c6.1,3.7,6.7,9.3,5.1,15.7c-0.9,3.6-3.3,8-6.1,10.5
					c-2.9,2.6-7,2-10.7,1.7c-11.8-0.8-23.8-0.9-35.6,1.1c-5.6,0.9-11.8,1.3-17,3.6c-2.8,1.2-6,3.6-9.2,3.7c-2.4,0.1-4.7-2-7.1-1.6
					c-2,0.3-2.9,2.6-5.1,3.2C-23.1,52.6-26.7,52.7-32.7,55.2z"/>
			</g>
			<g>
				<path class="st3" d="M33.7,2.2C32,1,28.6-2.7,27.5-21.7c-1.6,12.9,4.1,24,2.1,23.5c-2.3-0.6-1,0.3-2.7-1c-1.2-0.9-2.6,0.6-3.6,0
					c-0.7-0.4-0.5-2-0.6-2.6c-0.3-1.2-1-2.1-1.9-2.8C19-6.2,16.9-7.2,16-9.5c-0.5-1.1-1-2.4-2.3-2.7c-0.9-0.2-1.5,0.3-2.4,0.1
					c-1.4-0.3-2.2-1.7-3.5-2.2c-1-0.4-1.8,0.1-2.7-0.1c-1.2-0.3-1.4-1.7-2.4-2.1c-1-0.5-0.9,0-1.6,0.6c-1.8,1.6-2.2,2.8-2.8,5.1
					c-0.2-1.4-0.8-2.8-1.7-3.9c-0.9-1.1-2.2-2-2.7-3.4C-6.5-19-6.1-20.7-7-21.3c-2.2-1.5-2.4,2.9-2.2,3.9c0.7,2.8,0.7,6.3-0.1,9.1
					c-0.5,1.7-1.7,8.2-3.6,9.1c-0.9,0.5-0.6,0.4-1-0.4c-0.7-1.3,1.2-18.8-0.6-22c-0.3,4.5-1,15.9-3.2,21.8c-0.7,2-1.5,3.9-3,5.4
					C-21.3,6.2-22,4-22.2-7c-1.9,6.1-2.3,16.8-3,18c-0.7,1.2-0.8,3.1-1.7,4.1c-0.9-0.9-1.1-2.4-1.9-3.4c-1.5-1.8-1.3,0.6-2.3,1.6
					c-0.8,0.8-0.9,0.4-1.2-0.9c-0.3-1-0.3-2.1-0.6-3.1c-0.9,0.3-1.2,1.8-1.7,2.5c-0.4-1-1.3-1.7-1.7-2.7c-0.5-1.2-1.8-1.3-2.1-2.6
					c0,0,0,1.3-1.5,2.9c-2.6-3.6-3.3-11.3-3.8-12.9c-0.9-2.7,2.7-8.5,3-11.3c0.3-2.7,0.5-4.7,1.5-7.2c0.6-1.4,0.7-2.9,0.6-4.5
					c-0.2-2.6-1.3-5.1-1.8-7.6c-0.6-2.9-1.6-6.1-0.7-9c1.1-3.5,0.6-6.6,0.7-10.2c0-2.3,0.3-4.7,2.6-5.8c2-1,4.9-0.6,7.1-0.8
					c4.9-0.3,9.8-0.6,14.7-0.8c4.2-0.2,7.1,0.9,10,4.1c2.1,2.3,3.3,4.7,4.2,7.7c0.7,2.5,1,5.7,3.8,6.8c1.7,0.7,2.7,0,3.5-1.5
					C7-46.8,8.2-50,9.7-53c1.3-2.6,3.3-5.1,5.7-6.8c2.9-2.1,6.9-2.6,10.3-3.1c6.9-1.1,13.8-0.2,20.7-0.9c5.8-0.6,11.2-0.4,16.2,2.8
					c2.9,1.9,6.3,4.8,7.2,8.3c0.6,2.2,0.2,4.6-0.2,6.8c-0.8,4.1-1.8,8.1-3,12.1c-1.4,4.6-3.8,8.4-6.5,12.3c-1.7,2.5-3.3,5.3-5.4,7.4
					c-1.8,1.9-3.6,3.2-4.5,5.8c-0.3,0.7-0.4,1.5-0.6,2.2c-0.9,2.6-3,3.9-3,6.9c-1.1-0.5-1.1-2.3-1.9-3.1c-1,1.8-1.5,5.5-2.4,7
					c0-0.2,1-12.6-0.8-15.7c0.3,7.1-0.9,19-1.2,18.6c-5.5-6.6-4.9-11.8-4.9-25.6C33.6-5.6,34.5,2.7,33.7,2.2z"/>
			</g>
			<g>
				<path class="st1" d="M-42.2,61.7c0.2-1.1,1.4-1.7,1.7-2.9c0.2-1.1-0.1-2-0.5-3c-0.4-1-0.9-2-0.9-3.1c0-1,0.4-2,0.4-3
					c0.1-1.9-0.5-3.8-0.4-5.7c0-1.1,0.5-1.9,0.5-3c0.1-1-0.2-1.8-0.4-2.7c-0.2-1-0.1-1.9-0.2-2.9c-0.2-1.1-0.8-2.2-1.1-3.3
					c-0.7-2.1-1-4.1-1.3-6.4c-0.3-2.5-1.1-5.1-1-7.6c0.1-3.4,2.5-18.5,5.6-9c0.7-2.2,0,0,1-4.1c0.7,1.2,1.7,2.2,2.7,3.4
					c0.6,0.8,0.9,2.8,1.7,3.2c0.6-0.6,0.7-1.6,0.7-2.5c0.6,1.8,1.9,3.4,2.4,5.3c0.5,1.8,0.6,3.6,1,5.4c0.4,2,1.2,3.5,1.3,5.6
					c0.1,2,0,3.9,0.4,5.9c0.6,3.7,2,7.9,1,11.6c-0.6,2.4-1,4.2-0.9,6.7c0,2.3-0.5,4-0.9,6.1c-0.2,1.1-1.2,2-2.1,2.7
					c-1.1,0.8-2.2,0.3-3.2,1.2c-1.3,1.3-1.7,2.2-3.7,2.8c-1.2,0.4-2.5,0.6-3.8,1C-42.7,62.9-42.7,61.5-42.2,61.7z"/>
			</g>
			<g>
				<path class="st2" d="M-26.1-25c-0.8,1.9-1.8,4.2-2.4,6.3c-0.7,2.5-0.9,5.1-1.5,7.6c-0.5,2.4-0.5,5.1-0.7,7.5
					c-0.1,1.3-0.1,6.5-0.4,7.7c-0.4,1.5-1.5,2.2-2.1,3.6c-0.3,0.9-0.8,2.9-1.5,3.4c-0.5-1-0.7-3.3-1-7.1c-0.1-1,1.7-2.4,1.9-3.4
					c0.3-1.3-1.7-3.1-0.9-4.1c0.6-0.8,1.2-2.7,1.5-3.7c0.3-0.9,0.1-3.1,0.3-4c0.3-1.1,0.4-2.3,0.8-3.3c0.8-1.7,1-3.6,1.3-5.5
					c0.3-2,1.6-3.5,2-5.4c0.2-1,0.2-2,0.8-3c0.6-0.9,1.6-1.5,2.1-2.5c0.6-1,0.5-2.3,0.9-3.4c0.4-1.1,0.3-3.5,0.6-4.6
					c0.2-0.6,0.1-1,0.4-1.6c0.3-0.6,0.8-0.9,1.1-1.5c0.5-0.9,0.9-2.1,0.9-3.1c0,1.8-0.4,3.4-0.7,5.1c-0.3,1.8,0.1,3.7-0.2,5.5
					c-0.3,1.7-1.1,3.3-1.6,4.9c-0.2,0.8-0.2,1.6-0.5,2.3C-24.9-26.4-25.7-25.8-26.1-25z"/>
			</g>
			<g>
				<path class="st2" d="M14.2-17.7c-0.6-1-0.5-2.3-0.6-3.4c-0.2-1.3-0.7-2.5-0.9-3.7c-0.2-1.4,0-2.5,0.6-3.7c0.7-1.2,1-2.9,1.7-3.9
					c0.3,1.8,1.1,3.3,1.3,5.1c0.1,0.9-0.2,1.9,0,2.8c0.2,0.9,1.2,1.8,1.8,2.6c2.4-6.6,4,3.7,5,2c0.6-1-1.1-6.1-0.8-7.1
					c0.2-0.9,1-1.4,1.7-1.9c0.8-0.5,1.5-1,2.2-1.7c0.7-0.8,1-1.9,1.8-2.6c1.4-1.1,2.9-4.1,3.3-6.1c0.6,1.8-0.3,3.3-1.1,4.9
					c-0.7,1.3-1.1,3.5-1.4,5c-0.4,2-1.4,3.6-1.2,5.6c0.2,1.7,0.1,3.5,0.2,5.2c0.1,1.8,0.2,3.6,0.2,5.4c-0.6,0.3-1.6,0.9-1.2,1.7
					c-1.3-1-1.7,0-3.2-0.1c-1.5-0.1-1.7-0.9-2.6-1.8c-0.1,0.4-0.3,0.8-0.4,1.2c-1.2-1.2-1.7-3.3-2.8-4.7c-0.5-0.6-0.5-1.3-1.6-1.3
					C15.3-18.4,15-17.6,14.2-17.7z"/>
			</g>
			<g>
				<path class="st2" d="M-11.1-7.3c-0.5-1.2,0.3-3.4,0.1-4.8c-0.1-1.6,0-3,0-4.6c0-1.7-0.9-3.3-0.8-5c0.1-1.6-0.1-2.8-0.3-4.4
					c-0.2-1.9,1.2-2.6,1.7-4.4c0.4-1.5,0-2.6-0.1-4.1c-0.1-1.8,1.4-2.9,1.3-4.8c0-0.8-0.4-1.6-0.4-2.4c0-1.1,0.3-0.7,0.9-1.5
					c1.1-1.5-0.4-3.3-0.1-5.1c0.4-2,2.8-3.1,3.1-5c0.3,0.8-0.1,1.7-0.2,2.6c-0.1,1.3,0.1,2.5,0.5,3.7c0.6,1.7,1.5,3,2.3,4.6
					c1.8,3.2,1.2,8.3,0.4,11.7c-0.8,3.1-2.9,5.2-4.9,7.6c-1.7,2.1-1.8,4.7-2,7.4C-9.6-12.7-9.2-9.8-11.1-7.3z"/>
			</g>
			<g>
				<path class="st4" d="M-37.9,51.1c-0.4-1.3-0.7-2.9-1-4.3c-0.2-0.7-0.2-1.3-0.5-2c-0.3-0.7-1-1.2-1-2c0-0.3,0.5-0.4,0.5-0.9
					c0-0.5-0.4-0.9-0.7-1.2c-0.4-0.7-0.7-1.3-0.9-2.1c-0.4-1.4-0.8-2.9-1-4.3c-0.6-3.2-3-5.9-3.1-9.2c-0.1-3.2,0-6.6,0.8-9.7
					c0.5-1.7,1.1-3.4,1.5-5.1c0.4-1.6,0.1-3.5,1.2-4.9c0.4,1.2,1.3,3.1,2.3,3.8c0.8-1,1-1.9,1.2-3.1c0.7,0.9,1.6,1.8,2.4,2.8
					c0.8,1,1,1.8,1.5,2.9c0.3-0.9,0.7-1.9,1-2.8c0.6,2.9,2,4.2,2.6,7.2c0.7,3.3,1.9,9.3,1.7,10.9c-0.1,0.9-1.4,2.3-1.4,3.2
					c0,0.8-0.3,1.4-0.3,2.2c-0.5-0.8-0.3-1.8-0.6-2.6c-0.3-0.8-1-1.4-1.1-2.2c-0.2,0.8-0.1,1.5-0.4,2.3c-0.3,0.7-0.8,1.2-0.9,2
					c-0.3,1.7-0.1,3.4-0.5,5.1c-0.5-0.8-0.6-1.6-1-2.4c-0.5-1-1.3-1.6-2-2.4c-0.5-0.7-0.7-1.5-1.3-2.2c-0.6-0.7-2.9-6.7-3.1-7.7
					c-0.5,1.3,0.5,4.2,0.9,5.5c0.8,2.2,1.4,3.6,1.8,5.9c0.3,1.9,1.4,3.4,1.4,5.4c0,2-0.1,4-0.1,6C-37.9,46.7-38.2,48.7-37.9,51.1z"
					/>
			</g>
			<g>
				<path class="st2" d="M49.8,6.7c-0.1-1.1,0.3-2,0.1-3.1c-0.2-1-0.9-2.1-1.4-3c-1.2-2.5-0.9-4.3-0.9-6.9c0-2.3-0.6-4.6-0.7-6.9
					c-0.1-1.4-0.1-2.8,0.2-4.1c0.3-1.1,1-2.2,1-3.3c0.3,0.7,0.6,1.3,1,2c0.1-1.9-0.1-3.7,0.6-5.5c0.4-1,1.1-1.8,1.5-2.8
					c0.3-0.8,0.2-1.7,0.5-2.5c0.5-1.3,1.7-1.8,2.6-2.8c1-1,1.7-2.3,2.6-3.3c0.7-0.8,1.5-1.5,1.8-2.6c0.2-1-0.1-2,0.2-3
					c0.2,0.7,0.3,1.4,0.5,2.1c1.5-1.5-0.2-4.6-0.5-6.2c-0.1-0.6-0.5-2.4-0.2-3c0.3-0.7,1.5-0.9,1.9-1.8c0.4-0.8,0.6-5.2,1.2-5.5
					c1.8-0.9,3.4,6.8,3.6,7.8c0.7,3.5,1.6,6.6,1.4,10.3c-0.2,4.6-1.5,8.7-2.7,13.1c-1.2,4.2-2.7,8.3-3.7,12.6
					c-0.7,3.3-1.1,6.7-1.9,10C58,0.5,53.7,11.4,49.8,6.7z"/>
			</g>
			<g>
				<path class="st2" d="M49.6,7.3c-0.1-1.1,0.3-2,0.1-3.1c-0.2-1-0.9-2.1-1.4-3c-1.2-2.5-0.9-4.3-0.9-6.9c0-2.3-0.6-4.6-0.7-6.9
					c-0.1-1.4-0.1-2.8,0.2-4.1c0.3-1.1,1-2.2,1-3.3c0.3,0.7,0.6,1.3,1,2c0.1-1.9-0.1-3.7,0.6-5.5c0.4-1,1.1-1.8,1.5-2.8
					c0.3-0.8,0.2-1.7,0.5-2.5c0.5-1.3,1.7-1.8,2.6-2.8c1-1,1.7-2.3,2.6-3.3c0.7-0.8,1.5-1.5,1.8-2.6c0.2-1-0.1-2,0.2-3
					c0.2,0.7,0.3,1.4,0.5,2.1c1.5-1.5-0.2-4.6-0.5-6.2c-0.1-0.6-0.5-2.4-0.2-3c0.3-0.7,1.5-0.9,1.9-1.8c0.4-0.8,0.6-5.2,1.2-5.5
					c1.8-0.9,3.4,6.8,3.6,7.8c0.7,3.5,1.6,6.6,1.4,10.3c-0.2,4.6-1.5,8.7-2.7,13.1c-1.2,4.2-2.7,8.3-3.7,12.6
					c-0.7,3.3-1.1,6.7-1.9,10C57.9,1.1,53.6,12,49.6,7.3z"/>
			</g>
			<g>
				<g>
					<path class="st2" d="M-32.6,39.7C-33.2,39-33,37.8-33,37c-0.1-2.4-0.5-4.8-0.6-7.2c-0.2-2.4-0.8-4.3-1.3-6.5
						c-0.4-2-1.7-4.2-0.9-6.2c0.1-0.1,0.3-0.1,0.3,0c-0.1,2.9,2,4.5,2.8,7c0.5,1.5,0.5,3.2,0.4,4.7c-0.1,3.4-0.6,7.4-0.2,10.7
						C-32.4,39.7-32.5,39.8-32.6,39.7L-32.6,39.7z"/>
				</g>
			</g>
			<g>
				<g>
					<path class="st2" d="M-36.3,14.6C-36.3,14.6-36.3,14.7-36.3,14.6C-36.4,14.7-36.4,14.6-36.3,14.6L-36.3,14.6z"/>
				</g>
			</g>
			<g>
				<path class="st2" d="M-45.1,60.8c-1,0.1-2.2-1.4-2.1-2.4c0.1-0.5,0.4-0.4,0.5-0.7c0.1-0.3-0.1-0.6,0.1-1c0.2-0.6,1-0.9,1.6-1
					c0.9-0.2,2.7,0.3,3.3,1.1c0.8,1,0.6,2.3-0.2,3.3C-42.6,61.1-44.4,61-45.1,60.8z"/>
			</g>
			<g>
				<g>
					<path class="st2" d="M-28.2-53.1c0.3-0.4,2-2.5,1.9-2.4c0-0.5,0.5-0.9,1-0.7c0.4,0.3,0.6,0.3,0.8,0c0.1-0.3,0.6-0.5,0.9-0.4
						c1,0.2,1,0.3,1.8,1c-0.5,0.2-1,0.4-1.5,0.6c0.1-0.8,0.1-0.9,0.4-1.7c0.2-0.5,0.7-0.8,1.2-0.5c-2.4-1.3,3.1,1.3,2.8,1.2
						c0.9,0.1,1.7-0.6,2.8-0.9c1.2-0.3,4.5-0.7,5.5-0.4c2.4,0.7,5.2,2.2,7.8,3.2c0.3,0.1,0.3,0.6-0.1,0.6c-3.4-0.2-6.6-2.4-9.9-2.1
						c-5.1,0.4-4.9,2.4-9.8-0.2c0.4-0.2,0.8-0.3,1.2-0.5c-0.1,0.4-0.2,0.8-0.3,1.2c-0.1,0.7-0.9,1.1-1.5,0.6
						c-0.1-0.1-0.3-0.1-0.4-0.2c-0.2,0.4-0.7,0.5-1.1,0.3c-0.7-0.3-2.8,1.4-3.3,1.7C-28.1-52.5-28.4-52.8-28.2-53.1L-28.2-53.1z"/>
				</g>
			</g>
			<g>
				<g>
					<path class="st2" d="M-33.5-49.3c1-1.9,3.5-3.5,5.6-3.2c0.5,0.1,0.9,0.8,0.3,1.1c-0.8,0.4-1.8,0.5-2.8,0.8
						c-1.1,0.3-2,0.8-2.7,1.7C-33.2-48.6-33.6-49-33.5-49.3L-33.5-49.3z"/>
				</g>
			</g>
			<g>
				<g>
					<path class="st2" d="M12-47c2.9-1.5,10.9-4.4,11.4,0.8c-0.4,0-0.8,0-1.2,0c-0.3-2-0.6-1.7,0.5-3c0.2-0.2,0.6-0.2,0.8,0
						c3.6,3,7.4-1.1,10.6,0.6c2.1,1.1,0.6,1.4,3.7,1.5c0.7,0,0.7,1.1,0,1c-1-0.2-2-0.1-3,0.4c-0.3,0.1-0.7-0.2-0.7-0.5
						c0.1-2-5.5-0.5-7-0.6c-1.7-0.1-4.2-2-3.8,0.4c0.1,0.7-0.9,1-1.1,0.3c-0.9-2.6-8.3-0.7-9.9-0.4C11.9-46.3,11.7-46.8,12-47L12-47
						z"/>
				</g>
			</g>
			<g>
				<g>
					<path class="st2" d="M39.4-52.6c1.2-1.6,3.5-1.9,5.3-2.6c2-0.8,3-1.2,4.9-0.6c0.3,0.1,0.3,0.9,0.4,0.9c-0.9,0,0.8-1.8,1.2-2
						c1.1-0.4,1.4,0.1,2.4,0.3c1.6,0.3,3.1,0.7,4.7,0.9c3.3,0.4-0.3-0.5,3,0.3c0.2,0.1,0.2,0.4,0,0.5c-2.6,0.4-4.8,0.4-7.3-0.1
						c-5.5-0.9-1.2,0.2-4.2,0.9c-0.2,0.1-0.3,0.1-0.6,0c-0.2-0.1-0.4-0.3-0.4-0.6c0-1-8.2,1.8-8.8,2.3
						C39.7-51.9,39.1-52.2,39.4-52.6L39.4-52.6z"/>
				</g>
			</g>
		</g>
		<g id="Details_11_" class="st0">
			<g>
				<path class="st5" d="M-55.7,60c-0.2-0.5,1.9-2.3,2.4-2.6c0.8-0.5,1.8-0.6,2.7-0.8c2.3-0.5,3.5-3.1,5.7-3.3
					c0.8-0.1,2.3,0.3,2.8-0.4c0.7-1-0.3-1.6-0.8-2.4c-0.5-0.8-0.2-1.8-0.2-2.7c0-1-0.4-1.9-0.9-2.8c-1.1-1.8,0.2-3.3-0.4-5.2
					c-0.1-0.3-0.7-2.2-1.1-2.3c-0.5-0.1-0.3,1.9-0.5,2.3c-0.8,1.3-1.1,0.7-2.5,1.1c-1.5,0.4-3,0.3-4.5,0.3c-1.2,0-2.3,0.2-3.5,0.1
					c-1.4-0.1-2.5-0.2-3.8,0.6c-2.1,1.2-3,3.5-3.8,5.7c-0.4,1.2-1.1,2.2-1.5,3.4c-0.4,1.3-0.5,2.5-0.5,3.9c0,2.5,0.6,4.6,2.6,6.1
					c2.3,1.7,5.7,1.9,7.5-0.4C-55.5,60.3-55.2,60-55.7,60z"/>
			</g>
			<g>
				<path class="st6" d="M-46.8,49.6c-0.2,0-0.4-0.1-0.5-0.1c-0.2,0-0.5,0-0.7,0c-0.7-0.1-1.3-0.1-2-0.2c-1-0.1-2.1-0.2-3.1-0.3
					c-1.7-0.2-3.3-0.6-4.9-1.1c-0.8-0.3-1.7-0.6-2.3-1.2c-0.6-0.6-1-1.3-1.4-2c-0.3-0.8-0.3-1.9,0.5-2.5c1.1-0.9,2.5,0.6,3.1,1.4
					c0.2,0.2,0.2,0.5,0.4,0.7c0.1,0.2,0.3,0.3,0.5,0.5c0.2,0.2,0.2,0.3,0.4,0.3c0.2,0,0.3,0.1,0.5,0.1c0.4,0.1,0.7,0,1.1,0
					c0.2,0,0.4,0.1,0.7,0.1c0.2,0,0.4,0,0.7,0.1c0.5,0.1,1,0.2,1.5,0.2c0.5,0.1,1.1,0,1.7-0.1c1.1-0.1,2.2,0.2,3.2,0.5
					c0.5,0.1,1,0.4,1.4,0.6c0.4,0.3,1,0.7,1.2,1.1c0.2,0.4,0.4,1,0,1.3c-0.2,0.2-0.5,0.3-0.8,0.4c-0.2,0.1-0.5,0.2-0.7,0.3
					C-46.6,49.8-46.8,49.8-46.8,49.6z"/>
			</g>
			<ellipse class="st7" cx="-43.9" cy="58.5" rx="1" ry="1.2"/>
			<g>
				<path class="st8" d="M-56.4,44.8c-0.1,0.4,0,0.8,0.2,1.1c0.1,0.3,0.2,0.9,0.5,0.3c0.2-0.3,0.4-0.9,0.4-1.1"/>
			</g>
			<g>
				<path class="st8" d="M-48.9,45.9c0,0.4,0.2,1.8,0.6,1.8c0.3,0,0.5-1.1,0.8-1.6"/>
			</g>
			<g>
				<path class="st8" d="M-47,46.3c0,0.5,0,1.3,0.3,1.7c0.2,0.3,0.3-0.1,0.5-0.3c0.2-0.2,0.4-0.4,0.6-0.7"/>
			</g>
		</g>
	</g>
	<path d="M-56.8,44.5c3.2,1.5,8.6-0.1,11.4,2c0.7,0.5,1.3,1.1,1.1,2.1c-0.2,1-1.8,1.5-2.5,1.8c-3.9,1.5-8-0.2-11.6,1.9
		c-0.9,0.6-3.7,3.5-2.2,5.1c0.3,0.3,2.2,0.5,2.7,0.6c2.6,0.5,4.6,0.3,7.1,0.6c1.7,0.2,3,0.8,4.5,1.5c3.3,1.5,7,2,10.6,0.8
		c5.9-1.8,7.6-7.7,9.2-12.9c1.1-3.4,2.8-6.3,4.1-9.6c0.8-2.2,1.9-4.5,3.8-6c1.7-1.3,3.2-3.2,5.1-4.1c1.6-0.8,3-1,4.6-1.9
		c1-0.6,3.5-1,4.3-1.3c2.6-1.1,5.4-1.4,8.4-1.8c4.1-0.5,8.4-1.1,12.5-0.6c4.1,0.5,9.1,0.7,13.3,0.6c9-0.2,12.4-6,20.5-8.2
		c6.3-1.7,13.7,2.1,15.3,8.7c1.2,4.8-2.4,11.4-8,9.3c-0.2-0.1-0.1-0.5,0.1-0.4c2.1,0.8,5.4-1.4,6.3-3.1c0.8-1.5,1-3.3,0.8-4.9
		c-0.6-3.8-4.3-7.5-8-8.4c-4.8-1.1-10.1,1.3-14,4c-5,3.4-9.3,4.4-15.5,4.3c-8-0.1-16.8-1.8-24.6-0.3c-5,0.9-9,2.6-13.7,4.6
		c-1.8,0.8-3.1,1.8-4.6,3.2c-2.1,2-4,3.1-5.2,5.8c-0.7,1.6-1.2,3.2-2,4.8c-2.2,4.7-2.9,11.5-6.7,15.3c-3.8,3.7-9.2,4.8-14.2,3.9
		c-1.4-0.2-2.5-0.8-3.9-1.3c-2.2-0.8-4.4-0.9-6.8-1.3c-1.5-0.2-6.7-0.4-7.7-1.8c-2.1-2.8,3.9-6,5.7-6.6c1.3-0.4,2.3-0.2,3.6-0.3
		c1.1-0.1,2.2-0.1,3.3-0.3c1.7-0.4,3.8-0.7,4.5-1.5c0.5-0.6,0.3-1.2-1-2c-2-1.3-4.6-0.7-7.4-1.2C-54.9,45.3-55.8,45.1-56.8,44.5
		C-56.9,44.6-56.9,44.5-56.8,44.5L-56.8,44.5z"/>
	<path d="M66.8,19.5c1.9,1.4,2,6.7,1.3,8.8c-0.8,2.3-2.5,4.3-4.5,5.6c-0.1,0.1-0.3,0-0.3-0.1c-0.7,0.3-1.2,0.5-1.9,0.6
		c-1.6,0.1-3.2-0.4-4.3-1.5c-0.1-0.1,0-0.4,0.2-0.3c1.8,1.3,4.5,1.4,6.6,0.5c0,0,0.3,0,0.1,0.1c1.3-0.6,2.9-3.3,3.4-5
		c0.9-3.2-0.1-6.4-1.6-9.1c-0.1-0.3,0.1-0.5,0.4-0.5c0,0,0.1,0,0.1,0c-1.8-2.6-4.4-4.2-7.5-4.8c-0.3-0.1-0.3-0.4-0.1-0.6
		c0.6-0.7-1.2-0.2-1.8-0.2c-1-0.1-2-0.3-3-0.2c-2.1,0.1-4.1,0.4-6.2,0.4c-0.5,0-0.5-0.8,0-0.8c2.4,0,4.7-0.9,7-0.7
		c1.5,0.1,3.8,0.2,4.9,1.3c0.1,0.1,0.1,0.2,0.1,0.4c1.5,0.3,2.9,0.5,4.2,1.6c1.4,1.1,2.5,2.6,3.4,4.2C67.3,19.4,67.1,19.7,66.8,19.5
		z"/>
	<g>
		<g>
			<path d="M47.4,12.7c0.3-1.6,1.1-3,1.7-4.6c0.6-1.6,0.9-3.3,1.2-5c0.1-0.7,0.7-2,0.4-2.7c-0.1-0.1-0.5-0.2-0.6-0.4
				c-0.3-0.6-0.2-1-0.1-1.8c0.3-3.4-0.5-6.9-0.1-10.3c0.1-1.4,0.3-2.9,0.6-4.3c0.3-1.7,1.2-3.2,1.6-4.9c0.7-2.8,0.5-5.2,2.7-7.4
				c2.4-2.5,4.8-4.3,5.9-7.8c1-3.2,0.3-6.4,0.8-9.6c0.4-2.6,1.4-5,1.8-7.5c0-0.1,0.1-0.1,0.1,0c0,1.8-0.5,3.2-0.9,5
				c-0.6,2.5-0.4,4.9-0.3,7.5c0,4.2-1.4,8.1-4.5,11c-2.1,2-3.9,3.3-4.4,6.4c-0.2,1-0.2,2.1-0.5,3.1c-0.3,1.3-1,2.4-1.3,3.7
				c-0.7,2.7-0.9,5.6-0.9,8.3c0,1.5,0.1,3,0.1,4.5c0,0.9-0.7,3.9,0.6,3.9c0.3,0,0.4,0.2,0.3,0.4c-0.4,2.3-0.6,4.8-1.4,7
				c-0.7,1.9-1.8,3.6-2.4,5.5C47.7,13.1,47.3,13,47.4,12.7L47.4,12.7z"/>
		</g>
	</g>
	<g>
		<g>
			<path d="M29.6-0.7c-2.8-6.6-2.8-14.7-3-21.7c-0.1-3.3,0.3-5.1,1.9-7.8c1.7-2.9,2.9-7.3,3.2-10.6c0-0.4,0.5-0.5,0.7-0.2
				c0.3,0.5,0.8,0.6,1.1,1.1c-0.2,0-0.4,0-0.6,0c0.5-0.8,0.5-1.8,1.4-2.3c0.7-0.5,1.6-0.4,2.2-1c0.4-0.4,0.5-0.9,0.9-1.3
				c1.5-1.5,2.9-2.1,3.8-4.1c0.2-0.4,0.8-0.1,0.6,0.3c-1,2.3-3.1,3.4-4.5,5.3c-0.3,0.4-0.3,0.5-0.7,0.8c-0.8,0.5-1.1,0.3-1.9,1
				c-0.7,0.6-0.8,1-1.2,1.8c-0.1,0.2-0.5,0.2-0.6,0c-0.3-0.4-0.9-0.6-1.2-1c0.2-0.1,0.5-0.1,0.7-0.2c-0.2,2.9-1.2,5.8-2,8.6
				c-0.3,1.1-0.8,2.1-1.4,3.1c-1.1,1.8-1.5,3.2-1.5,5.4c0.2,7.8,0.8,15.3,2.1,23C29.8-0.7,29.6-0.6,29.6-0.7L29.6-0.7z"/>
		</g>
	</g>
	<g>
		<g>
			<path d="M44.1-46.5c-1.3-1.9-3.5-1.8-4.5-3.9c-0.5-1-0.7-2.4-0.2-3.5c0.6-1.2,1.9-1.6,3.1-1.8c2.7-0.4,5.1-0.8,7.7-1.7
				c1.5-0.5,2.6-0.5,4.1,0.1c1,0.4,1.8,1,2.8,1.3c1,0.3,2,0.1,3.1,0.3c2.4,0.3,3.9,1.7,2.9,4.1c0,0.1-0.2,0-0.2-0.1
				c0-3.6-2.9-2.9-5.4-3.3c-1.1-0.2-1.9-0.7-2.9-1.1c-1.8-0.9-3.1-0.6-5,0c-1.6,0.6-3.2,1-4.8,1.3c-1.1,0.2-2.4,0.1-3.5,0.6
				c-2.8,1.3-1,4.4,0.8,5.6c0.9,0.6,1.5,1,2.1,2C44.4-46.4,44.2-46.3,44.1-46.5L44.1-46.5z"/>
		</g>
	</g>
	<g>
		<g>
			<path d="M-7.2-25.2c0.2,2.5,2.9,2.9,4.1,4.5c0.9,1.1,1.1,2.4,1.3,3.7c-0.3-0.1-0.6-0.2-0.9-0.4c0.7-0.9,0.8-1.9,0.9-3
				c0-0.4,0.4-0.6,0.7-0.3c1.5,1.5,3.8,0.2,5.5,0.5C6-20,7.9-19.6,9.3-18.9c0.5,0.2,1,0.5,1.5,0.9c0.2,0.2,1.2,1.3,1.4,1.3
				c0.8,0.1,3.1-1.8,3.4-2.5c0.1-0.2,0.4-0.2,0.6-0.1c1.4,1.2,2.2,2.8,2.9,4.5c0.2,0.4,0.8,2.3,1.1,2.4c-0.2-0.1,0.7-1.9,0.5-1.4
				c0.1-0.2,0.4-0.3,0.5-0.1c0.7,1.5,3.1,3.4,4.4,1.2c0-0.1,0.2,0,0.1,0.1c-0.3,1.1-1.4,1.5-2.4,1.3c-0.9-0.1-1.2-0.7-1.9-1.2
				c-0.7-0.5-0.5-0.9-0.9,0.7c-0.1,0.2-0.4,0.3-0.5,0.1c-1-1.8-1.6-3.8-2.8-5.4c-0.3-0.4-0.7-1.1-1.2-1.1c-0.1,0-0.3,0.5-0.5,0.5
				c-1,0.5-2.3,1.2-3.2,1.9c-0.2,0.2-0.5,0.2-0.6-0.1c-1.4-2.6-6.1-3.8-8.8-3.5c-1.9,0.2-3,0.8-4.6-0.6c0.2-0.1,0.5-0.2,0.7-0.3
				C-1-19-1-17.8-1.9-16.7c-0.3,0.4-0.9,0.3-0.9-0.3c-0.2-2.8-1.8-3.8-3.5-5.6c-0.7-0.8-1.2-1.5-1.1-2.6
				C-7.5-25.4-7.2-25.4-7.2-25.2L-7.2-25.2z"/>
		</g>
	</g>
	<g>
		<g>
			<path d="M13.8-17.3c0-1.7-0.8-3.4-1.1-5.1c-0.2-1.4-0.3-3,0-4.4c0.6-3.5,3.3-6.4,3.9-9.9c0.1-0.3,0.7-0.4,0.7,0
				c0.4,3,2.1-1.3,2.5-1.6c0.6-0.3,0.6,0,1.1,0c0.8,0,0.6,0.5,1.2-0.6c0.5-0.7,0.8-1.8,1.1-2.6c0.1-0.3,0.6-0.2,0.5,0.1
				c-0.4,1.6-0.8,2.7-1.7,4c-0.1,0.1-0.3,0.2-0.4,0.1c-2.5-1.6-1.7,1.8-3.3,2.3c-1,0.3-1.5-0.9-1.7-1.7c0.2,0,0.5,0,0.7,0
				c-0.5,3.3-2.8,6-3.6,9.2c-0.9,3.5,0.5,6.7,0.3,10.1C14-17.1,13.8-17.1,13.8-17.3L13.8-17.3z"/>
		</g>
	</g>
	<g>
		<g>
			<path d="M22.3-38.4c-0.7-1.1-1.3-2.1-2.4-2.7c-0.8-0.4-1.7-0.5-2.5-0.9c-1.2-0.5-2.5-1.3-3.4-2.1c-1.6-1.4-1.9-3.3,0.1-4.5
				c2.1-1.2,5.5-1.2,7.8-1c1.3,0.1,2,0.5,3.2,1c3,1.3,5.9,0.2,8.9-0.7c0.2-0.1,0.4,0.1,0.5,0.3c0.2,1.5,2.3,0.8,2.8,2.1
				c0.5,1.4-1.1,3.4-1.4,4.6c-0.1,0.2-0.3,0.2-0.3,0c0-0.7,0.2-1.2,0.4-1.8c0.2-0.4,0.7-1.2,0.7-1.7c-0.1-0.8-1-1.1-1.4-1.4
				c-0.2-0.1-0.5-0.1-0.8-0.2c-0.4-0.2-0.4-0.7-0.8-0.8c-0.8-0.2-2.8,0.8-3.6,0.9c-1,0.2-2,0.3-2.9,0.2c-1.8-0.2-3.2-1.4-5-1.6
				c-1.6-0.2-3.3-0.1-4.9,0.1c-0.7,0.1-2,0.2-2.7,0.7c-1.7,1.3-0.3,3,1,3.9c1.5,1,3,1.3,4.5,2.1c1.3,0.6,2,2.1,2.5,3.4
				C22.7-38.4,22.4-38.3,22.3-38.4L22.3-38.4z"/>
		</g>
	</g>
	<g>
		<g>
			<path d="M-41.4,60.5c1.7-2.5-0.8-4.5-1.1-6.9c-0.1-0.8,0.1-1.5,0.2-2.3c0.3-1.7,0.3-2.9,0-4.6c-0.3-2.2,0.3-3.8,0.3-5.9
				c0-2.2-1.2-4.3-1.5-6.5c-0.3-2.3-1.6-4.2-1.9-6.5c-0.4-2.3,0.2-4.6,0.2-6.9c0-2,0.1-3.6,0.9-5.5c1.3-3.1,2.5-5.5,2.8-8.9
				c0-0.3,0.4-0.4,0.5-0.1c0.2,0.4,0.5,1.4,0.8,1.7c0.8,0.8,1-1.8,1.1-2.4c0-0.3,0.4-0.4,0.5-0.1c1,1.7,2.9,2.7,3.6,4.5
				c0.1,0.2,0.5,1.4,0.3,1.3c-0.2,0,0.7-2.4,0.9-2.8c0.1-0.2,0.3-0.1,0.3,0.1c0.1,2.4,1.3,4.3,2.1,6.4c0.9,2.2,1,4.5,1.9,6.7
				c0.8,1.8,0.5,3.2,0.5,5.1c0,2.4,1.2,4.3,1.7,6.5c0.5,2-0.1,3.9,0,5.9c0.1,1.8,0.2,2.9-0.6,4.5c-1.5,3-0.6,5.4-1.1,8.5
				c-0.3,1.6-1.1,2.8-2,4.1c-0.2,0.2-0.6,0-0.4-0.3c1.4-2.1,2.1-3.9,2-6.5c-0.1-2,0-3.6,0.7-5.4c0.6-1.6,0.7-2.6,0.5-4.3
				c-0.1-1-0.3-2-0.2-3c0.1-2.3-0.4-4.1-1.1-6.3C-30,29-30,27.6-29.8,26c0.3-2.7-0.9-4.3-1.3-6.7c-0.2-1.2-0.1-2.5-0.5-3.7
				c-0.3-1.2-0.9-2.2-1.3-3.3c-0.3-0.7-0.4-1.8-0.7-2.4c-0.3-0.5,0.2-0.5-0.1-0.1c-0.3,0.4-0.4,2.1-0.4,2.4c0,0.3-0.3,0.3-0.4,0.1
				c-0.7-1.6-1.3-2.9-2.5-4.1c-0.7-0.7-1.3-1.4-1.8-2.3c0.2,0,0.3-0.1,0.5-0.1c-0.1,1.4-0.6,2.4-1.2,3.6c-0.1,0.2-0.4,0.1-0.5-0.1
				c-0.4-0.9-0.7-1.8-1.2-2.6c0.2,0,0.4-0.1,0.5-0.1c-0.2,2.2-0.5,4.3-1.4,6.3c-0.6,1.3-1.3,2.5-1.8,3.8c-0.5,1.6-0.4,3-0.4,4.6
				c-0.1,3.3-0.2,6.1,1.1,9.2c0.8,2,0.7,3.8,1.2,5.8c0.4,1.9,1.2,3.3,1,5.3c-0.2,1.7-0.5,3.1-0.2,4.8c0.1,0.9,0.3,1.7,0.3,2.6
				c0,1.2-0.4,2.2-0.6,3.4c-0.2,1.6,0.5,2.7,1,4.1c0.5,1.5,0.5,2.7-0.5,4C-41.3,60.7-41.5,60.6-41.4,60.5L-41.4,60.5z"/>
		</g>
	</g>
	<g>
		<g>
			<path d="M-45.8,41.6c-0.1-1.3-0.3-2.7-0.1-3.9c0.2-1.4,0.7-2.1,0.4-3.6c-0.1-0.7-0.3-1.1-0.3-1.8c0-0.1,0.1-0.2,0.2-0.2
				c0.5-0.6,0.7-1.4,0.4-2.3c-0.1-0.4,0.5-0.5,0.5-0.1c0,0.9-0.3,1.7-0.4,2.6c0,0.1-0.1,0.2-0.1,0.2c0.1,0,0.4,3.5,0.3,3.9
				c-0.4,1.7-0.7,3.4-0.8,5.2C-45.6,41.7-45.8,41.7-45.8,41.6L-45.8,41.6z"/>
		</g>
	</g>
	<g>
		<g>
			<path d="M-40.9,7.8c-0.3-2.5-1-4.8-0.7-7.3c0.2-2,0-4.4,0.8-6.3c0.7-1.8,1.7-3.9,2.8-5.6c1.2-1.9,1.4-3.9,2.5-5.8
				c0.2-0.3,0.8-0.2,0.8,0.2c0,0.6,0,1.3-0.1,1.9c-0.2,0-0.4-0.1-0.6-0.1c0.5-1.6,1.2-2.9,1.4-4.6c0.1-1,0.3-1.8,0.8-2.6
				c0.9-1.4,1.1-2.7,1.6-4.2c0.3-1,1.1-1.6,1.6-2.5c1.4-2.2,1.8-5.1,2.7-7.5c0.7-1.9,1.7-4,1.6-6.1c0-0.2,0.3-0.2,0.3,0
				c0.6,1.7-0.2,3.8-0.7,5.5c-0.7,2.3-1.4,4.6-2.2,6.9c-0.3,0.9-0.8,1.6-1.3,2.4c-0.6,0.9-1,1.6-1.3,2.7c-0.1,0.5-0.2,1-0.4,1.5
				c-0.2,0.5-0.6,0.8-0.9,1.2c-0.9,1.4-1,2.4-1.3,4c-0.3,1.3-0.9,2.3-1.3,3.6c-0.1,0.3-0.5,0.2-0.6-0.1c-0.1-0.6-0.1-1.3-0.2-1.9
				c0.3,0.1,0.5,0.1,0.8,0.2c-0.9,1.6-1,3.4-1.9,5c-1.1,1.8-2.1,3.7-3.1,5.6c-1,2-1,4.6-1.3,6.8c-0.3,2.3,0.3,4.9,0.4,7.2
				C-40.7,8-40.9,7.9-40.9,7.8L-40.9,7.8z"/>
		</g>
	</g>
	<g>
		<g>
			<path d="M-30.8,3c-0.1-3,0.2-6,0.2-9.1c0-2.6,0.2-4.6,0.7-7.1c0.5-2.5,0.5-4.9,1.3-7.4c0.3-1,0.8-1.8,1.4-2.7
				c0.9-1.5,1-2.8,1.5-4.4c0.1-0.4,0.9-0.4,0.9,0.1c-0.1,0.5-0.1,1.1,0,1.6c-0.2,0-0.4,0-0.6-0.1c0.3-0.8,0.7-1.5,1-2.2
				c0.7-1.6,0.4-3,0.8-4.6c0.1-0.5,0.4-0.9,0.6-1.4c0.7-1.6,0.6-2.8,0.5-4.4c-0.1-2.2,0.9-4.2,0.7-6.4c-0.1-1.4-0.4-2.8,0.3-4.1
				c0,0,0.1,0,0.1,0c-0.6,1.9,0.5,4.2,0.3,6.2c-0.1,0.8-0.4,1.6-0.5,2.4c-0.2,1.3,0,2.4,0,3.7c0,2-1.1,3.7-1.4,5.6
				c-0.3,1.9-1.1,3.4-1.7,5.3c-0.1,0.2-0.5,0.3-0.5,0c-0.2-0.9-0.2-0.8-0.3-1.7c0.3,0,0.6,0.1,0.9,0.1c-0.3,1.2-0.4,2.4-0.9,3.5
				c-0.4,0.8-1,1.5-1.4,2.3c-1.3,2.5-1.5,5.1-2,7.8c-0.2,1.2-0.7,2.3-0.9,3.5c-0.2,1.4-0.1,2.8-0.1,4.2C-30.2-3-30.5,0-30.8,3
				C-30.7,3-30.8,3.1-30.8,3L-30.8,3z"/>
		</g>
	</g>
	<g>
		<g>
			<path d="M-22-47.1c-2.1-2.3-6.3-2.2-6.1-6.2c0.1-2.9,4.9-4.2,7.3-4c0.9,0.1,1.7,0.4,2.6,0.6c1.9,0.3,3.5-0.1,5.3-0.4
				c1.6-0.3,2.5-0.2,3.8,0.6c1.3,0.7,5,1,4.1,3.3c-0.1,0.2-0.3,0.1-0.3-0.1c0.4-1.5-3.7-2.4-4.8-2.8c-2.3-0.8-5.1,0.6-7.5,0.3
				c-1.9-0.3-3.6-1-5.6-0.4c-2,0.6-4.8,2.2-4,4.6c0.8,2.3,3.9,2.7,5.3,4.5C-21.8-47.1-21.9-47-22-47.1L-22-47.1z"/>
		</g>
	</g>
	<g>
		<g>
			<path d="M-12.3-2.3c0-2.3,1.2-4.7,1.7-6.9c0.6-2.6,0.2-5.1,0.7-7.7c0.4-1.9-0.4-3.6,0.7-5.4c0.4-0.6,0.9-1.1,1.2-1.8
				c0.3-0.6,0.4-1.4,0.5-2c0.3-1.5,0.5-3,0.5-4.5c0.2,0,0.4,0.1,0.5,0.1c-0.1,0.3-0.3,0.7-0.6,0.9c-0.1,0.2-0.4,0.1-0.4-0.1
				c-0.4-1.3,0.6-2.4,1.1-3.6c1.1-2.4,1.1-6.4,0.6-8.8c-0.5-2.3-1.2-3.9-0.9-6.4c0.1-0.9,0.2-1.8,0.5-2.6c0.3-1.1,1.5-2.8,0.6-3.9
				c-0.2-0.2,0.1-0.5,0.3-0.3c1.1,1,0.4,2.5,0,3.7c-0.9,2.9-0.7,5.5,0.1,8.3c0.7,2.3,0.5,4.4,0,6.7c-0.2,1-0.2,2.1-0.6,3
				c-0.4,1-0.9,1.8-1.3,2.8c0.1-0.3,0.5-0.2,0.6,0.1c0.2,2.1-0.1,4.8-0.8,6.8c-0.3,0.6-0.8,1-1,1.6c-0.7,1.5-0.3,3-0.5,4.5
				c-0.2,1.5-0.6,2.8-0.6,4.4c0,1-0.1,2-0.4,3C-10.4-7.7-11.8-5-12.3-2.3C-12.3-2.3-12.3-2.3-12.3-2.3L-12.3-2.3z"/>
		</g>
	</g>
	<g>
		<g>
			<path d="M-25.9-39.3c-0.5-3-1.6-5.2-4.2-6.8c-1.2-0.7-3.2-1.7-3.5-3.3c-0.6-2.7,4.1-4.6,6.1-3.6c0.3,0.1,0.1,0.5-0.1,0.5
				c-0.9,0-1.8,0-2.7,0.2c-1.9,0.5-2.8,3-1,4.3c1.1,0.8,2.3,1.3,3.3,2.1c2.1,1.7,2.2,4,2.5,6.5C-25.6-39.2-25.9-39.1-25.9-39.3
				L-25.9-39.3z"/>
		</g>
	</g>
	<g>
		<g>
			<path d="M-57.3,44.8c-0.7-1.3,0.3-2.7,1.7-2.9c1.5-0.2,3,0.4,4.5,0.4c1.4,0,5.1,0,5.4-1.7c0-0.1,0.2-0.1,0.2,0
				c0.3,1.4-0.6,1.9-1.9,2.1c-1.3,0.2-2.8,0.2-4.1,0.2c-1,0-7-1-5.7,1.8C-57.1,44.8-57.2,44.9-57.3,44.8L-57.3,44.8z"/>
		</g>
	</g>
	<g>
		<g>
			<path d="M-59.8,43.6c-0.1,0.7,1.1,1.8,1.7,2.3c1.9,1.4,2.6,0.7,4.4,1.1c0.7,0.1,1.3,0.6,2,0.9c1.6,0.9,3,1.4,4.8,1.6
				c0.1,0,0.1,0.2,0,0.2c-1.6,0-3-0.4-4.4-1.2c-1.2-0.7-2.3-1.3-3.8-1.4c-0.6,0-1.1,0.1-1.7-0.1c-1.1-0.3-3.5-2.3-3.2-3.6
				C-59.9,43.5-59.8,43.5-59.8,43.6L-59.8,43.6z"/>
		</g>
	</g>
	<g>
		<g>
			<path d="M-56.4,44.8c0,0.3,0.1,0.6,0.2,0.9c0,0.1,0.2,0.6,0.2,0.6c0.2,0,0.5-1,0.6-1.2c0,0,0.1,0,0.1,0c0.1,0.3-0.2,1.6-0.7,1.5
				c-0.2-0.1-0.3-0.4-0.3-0.6C-56.5,45.6-56.6,45.2-56.4,44.8C-56.4,44.7-56.4,44.8-56.4,44.8L-56.4,44.8z"/>
		</g>
	</g>
	<g>
		<g>
			<path d="M-48.9,45.9c0,0.3,0,0.5,0.1,0.7c0,0.2,0.1,0.7,0.3,0.8c0.3,0.1,0.7-1.2,0.8-1.4c0.1-0.1,0.3,0,0.2,0.1
				c-0.2,0.3-0.5,1.8-1,1.6c-0.2-0.1-0.3-0.5-0.4-0.7c-0.1-0.4-0.1-0.8-0.1-1.1C-49,45.8-48.9,45.8-48.9,45.9L-48.9,45.9z"/>
		</g>
	</g>
	<g>
		<g>
			<path d="M-47,46.3c0,0.5,0,1,0.2,1.4c0.1,0.4,0.3,0.2,0.5,0c0.2-0.2,0.5-0.5,0.7-0.7c0.1-0.1,0.2,0,0.1,0.1
				c-0.2,0.2-0.4,0.4-0.6,0.6c-0.1,0.1-0.2,0.3-0.4,0.4c-0.2,0.1-0.3,0.1-0.4-0.1C-47.2,47.7-47.1,46.8-47,46.3
				C-47.1,46.3-47,46.3-47,46.3L-47,46.3z"/>
		</g>
	</g>
	<g>
		<g>
			<path d="M-59.9,43.7c-0.1-0.8,0.7-0.5,1.1-0.3c0.8,0.4,1.3,1.4,2.2,1.7c0.1,0,0.1,0.2,0,0.2c-0.6,0-1.1-0.7-1.6-1
				C-58.4,44-59.8,42.9-59.9,43.7C-59.8,43.8-59.9,43.8-59.9,43.7L-59.9,43.7z"/>
		</g>
	</g>
	<g>
		<g>
			<path d="M-61.3,55c0.4-0.3,1-0.3,1.4,0c0.3,0.3,0.5,1,0.3,1.5c0,0.1-0.1,0.1-0.2,0c-0.2-0.3-0.2-0.6-0.5-0.8
				c-0.2-0.1-0.5-0.3-0.8-0.3C-61.4,55.4-61.5,55.1-61.3,55L-61.3,55z"/>
		</g>
	</g>
	<g>
		<g>
			<path d="M-44.9,59.3c0.6,0.3,1.3,0.6,1.8-0.1c0.3-0.5,0.2-1,0.1-1.5c0,0,0-0.1,0.1,0c0.5,0.6,0.5,1.5-0.1,2
				C-43.7,60.1-44.5,59.9-44.9,59.3C-44.9,59.3-44.9,59.3-44.9,59.3L-44.9,59.3z"/>
		</g>
	</g>
</symbol>
<use xlink:href="#Afghan_Hound"  width="145.4" height="128.1" x="-72.7" y="-64" transform="matrix(10.6676 0 0 -10.6676 703.155 733.8772)" style="overflow:visible;"/>
</svg>
