<?xml version="1.0" encoding="utf-8"?>
<!-- Generator: Adobe Illustrator 22.1.0, SVG Export Plug-In . SVG Version: 6.00 Build 0)  -->
<svg version="1.1" id="Layer_1" xmlns="http://www.w3.org/2000/svg" xmlns:xlink="http://www.w3.org/1999/xlink" x="0px" y="0px"
	 viewBox="0 0 1478.4 1072" style="enable-background:new 0 0 1478.4 1072;" xml:space="preserve">
<style type="text/css">
	.st0{clip-path:url(#SVGID_5_);}
	.st1{fill:#5E5147;}
	.st2{fill:#A98F82;}
	.st3{fill:#382F28;}
	.st4{fill:#EACEAB;}
	.st5{fill:#5E464E;}
	.st6{fill:#FFED00;}
	.st7{fill:#1D1D1B;}
</style>
<symbol  id="Ankylosaurus" viewBox="-76.7 -54 153.4 108">
	<g id="Colours_9_">
		<defs>
			<path id="SVGID_2_" d="M-34.7,8.3C-41,10.9-48.5,18.7-56.2,34c1.4-0.9,2.7-0.6,4.2,0.1s2.6,2.1,2.9,3.8c0.2,1.3-0.1,2.7-0.6,4
				c-0.7,1.7-1.9,3.4-3.7,3.7c-1.1,0.2-2.2-0.2-2.9-0.9c-0.8-0.7-1.1-1.9-1-2.9c-0.1,0.8-0.3,1.3-0.9,1.8c-0.5,0.3-1.1,0.3-1.7,0.2
				c-0.7-0.1-1.5-0.3-1.9-0.9c-0.5-0.6-0.6-1.8-0.3-2.6c-0.5,1-1.4,1.7-2.5,1.8c-1.1,0.2-2.2-0.2-2.9-0.9c-1.3-1.3-1.4-3.4-1-5.1
				c0.3-1.3,0.8-2.6,1.7-3.6c1.1-1.2,2.9-1.8,4.5-1.5s3.1,1.4,3.7,2.9C-54.7,15.3-37-5.7-24.1-9.2c-1.3-2.1-2.4-4.9-2.6-7.3
				c-0.1-1-0.1-2-0.8-2.8c-0.8-0.9-2.1-0.9-3.2-1.2c-1.9-0.6-3.4-2-4.8-3.4c-2.4-2.4-4.8-4.8-7.2-7.2c-0.8-0.8-1.7-1.7-2.1-2.7
				c-0.6-1.4-0.3-3.1,0-4.6c0.3-1.8,0.4-2.8,0.8-4.6c0.4-1.7,2-1.5,2.8-1.6c0.6-0.1,1.9,0,2.4,0.3l-0.2,0.8c0.9,0.4,2,0.1,3,0.1
				s2.3,0.5,2.3,1.5l0.2-0.5c0.8-0.4,1.9,0.4,1.8,1.3c0.1,1.2-1.9,1.7-2.6,3c-0.8,1.5,0.6,3.2,1.9,4.3c2.2,1.7,4.6,2.9,7.2,3.8
				c1,0.3,2.1,0.6,3,1.2c0.7,0.5,3.7,2.5,5.2,4.8c4.2,2,9.2,0.4,13.4-1.7l0.8,0.1c0.6-1.3,1-2.6,1.1-4.1c0.1-1.4,0-3.1,1-4.1
				c1.5-1.4,3.9-0.3,5.9-0.6c1.4-0.2,2.9-1.2,4.1-0.4c0-2.6,0.4-3.6,1.3-6.1c0.6-1.6,1.6-3,2.6-4.3l-0.1-0.3
				c-0.8-0.4-0.8-1.6-0.2-2.2c0.6-0.6,1.6-0.7,2.4-0.5c0.8,0.2,1.6,0.6,2.4,0.3c0.3-0.1,0.6-0.4,0.9-0.6c0.8-0.5,2-0.4,2.7,0.3
				c0.2,0.2,0.3,0.4,0.5,0.5c0.5,0.3,1.2,0,1.8-0.1c0.6-0.2,1.4-0.1,1.6,0.4c0.1,0.2,0,0.5-0.1,0.7c-0.2,0.5-0.5,0.9-1,1.2l0.1,0.2
				c-0.7,1.9-4,3.4-4.8,4.7c-0.8,1.3-1.2,2.9-0.8,4.4l0.3,0.3c2.8-0.8,6.1,2.4,7.4,4.4c3-1.7,6.7-2,9.9-0.9c1.4,0.5,2.7,1.2,4.1,1.4
				c0.8,0.1,2.4,0.3,3.2,0.3c1.8-0.8,3.7-1.8,5-3.4c1.2-1.6,1.6-3.7,3.3-4.8c2-1.3,4.8-0.5,6.8-1.7c1.3-0.7,2.2-2.2,3.7-2.1
				c1.9-0.7,1.5,1.3,2.6,1.4c1,0.1,2.5-0.3,3.4-0.1s1.1,0.7,1.3,1.7c-1.3,1.3-2.8,2.3-4.4,3c-0.4,0.2-0.9,0.4-1.3,0.7
				c-0.7,0.6-0.9,1.7-1.4,2.6c-1,1.6-3,2.1-4.7,2.9c-1,0.5-2,1.5-1.7,2.5c1.4,0.2,7.8,1.4,9.1,1.9s2.6,1.4,3.1,2.7
				c-0.5,0.4-0.9,0.9-1.1,1.5c-0.7,1-0.5,2-0.2,2.5s0.8,0.8,1.3,1.1l0-0.1c0,2.6-0.1,4.3-1.6,6.1c-2.5,0.8-3.7,1.8-8.5,2.4
				c-3.2,0.4-8.3,0.4-11.4,0.2c-2.7-0.2-3.1,1.4-3.9,4c0.8,4.9-0.8,9.7-3.7,13.7c-1.1-2.9-2-5.9-2.7-9c-0.5,3.3-1.5,6.5-4.2,8.5
				c-0.6-3-0.7-5.9-0.7-5.9c-0.3,0.4-1.5,0-1.9,1c-0.9,2.3-2.6,5.1-3.9,6c-0.3-1.3-0.4-2.6-0.3-3.9l-0.7-0.9c-0.2,1.7-1,3.3-2.2,4.4
				c-0.3,0.3-0.7,0.5-1.1,0.6c-0.1,0-0.1,0-0.2,0c-0.1,0-0.1-0.1-0.1-0.1c-0.6-1.2-0.8-1.9-0.4-3.1l-1.7,0.3c-0.1,2.6-2,4.3-4.5,5
				c0,0-0.1,0-0.1,0c0,0-0.1-0.1-0.1-0.1c-0.5-1.3-0.7-1.7-0.2-3.1L13,8c-0.5,1.4-1.6,2.7-2.8,3.5c-1.3,0.8-2.8,1.3-4.3,1.6
				c-0.1-1.7,0.2-2.6,0.8-4C6,9.4,3.5,9.7,2.8,9.7c-1.3,1.7-3.9,3.2-6.1,2.9c0.2-1.2,0.5-1.9,1.3-2.9l0-0.1c-0.8,0-1.7,0-2.5,0
				c0,0-3.3,2.9-5.6,2.8c0.5-1.4,0.9-2,2.1-2.8c-1.1,0.1-2.1,0-3.2-0.4c-0.6,0.9-1.7,1.9-2.6,2.6c-0.2,0.2-0.4,0.3-0.7,0.2
				c-0.2-0.1-0.3-0.4-0.3-0.6c-0.1-0.9-0.2-1.8-0.2-2.7l-1.7-0.1c-0.2,1.7-1.6,3.1-2.9,4.2c-0.2,0.1-0.4,0.3-0.6,0.2
				c-0.1-0.1-0.1-0.2-0.1-0.3c-0.2-1.3-0.2-2.6-0.1-4l-1.5-0.1c-0.2,2,0.3,1.8-0.8,3.4c-0.1,0.2-1.1,1.1-1.3,1.1
				c-0.7-1.4-1.4-1.6-1.3-3.1l-1,0.6c-0.3,2.4-1.8,3-2,3c-0.2,0-1.2-4-0.8-6.1L-30,8c-1.4,2-3.5,3.4-5.9,3.9
				C-35.7,9.2-34.7,8.3-34.7,8.3z"/>
		</defs>
		<clipPath id="SVGID_5_">
			<use xlink:href="#SVGID_2_"  style="overflow:visible;"/>
		</clipPath>
		<g id="Base_14_" class="st0">
			<rect x="-73.3" y="-49.6" class="st1" width="150" height="96"/>
			<g>
				<g>
					<path class="st2" d="M-34.7,0c2.5-1.6,5.1-3.2,8-4.2c2.8-1,6-1.3,8.9-0.4c-2.1-3.9-3.2-8.5-3-13c0.1-1.6,0.3-3.2-0.2-4.7
						c-0.8-2.1-2.9-3.4-4.9-4.4c-2-1-4.1-1.7-6.2-2.4c-1.9-0.6-3.9-1-5.4-2.4c-0.5-0.5-1-1.1-1.7-1.4c-0.4-0.2-0.9-0.1-1.4-0.2
						c-1.8-0.4-2.7-2.2-3.5-3.8c-0.9,0.2-1.2,1.4-1.1,2.4c0.4,2.7,2.4,4.8,3.5,7.3c1.3,3,1.3,6.4,0.6,9.5s-1.9,6.2-3.1,9.2
						c-1.9,5-3.4,10-4.5,15.2C-49,7.7-49.1,8.5-49,9.4c0,0,0,0,0,0c0.7,3.7,5.1-2.6,6.4-3.7C-40.2,3.6-37.4,1.8-34.7,0z"/>
				</g>
				<g>
					<path class="st2" d="M-6.4-14.3c0.6,0.4,1.2,0.8,1.8,0.9c1.3,0.2,2.5-0.6,3.6-1.3c6.3-3.9,13.7-6.2,21.1-6.6
						c0.5-1.5-1.4-2.6-2.3-3.9c-0.7-1.2-0.6-2.9,0.3-4c0.8-1.1,2.3-1.8,3.7-1.9c1-0.1,4.7-0.7,4.5-1.7c-0.1-0.3-2.3-1.8-2.5-2
						c-1.5-1.4-3.5-1.3-5.5-1c-1.2,0.2-2.5,1-3.6,0.5c-0.9-0.4-1.3-1.6-1.4-2.6s0-2.1-0.4-3c-0.5-0.9-1.8-1.5-2.5-0.8
						C9.9-37.9,9.2-33.9,9.8-30c-3.2,0.3-6.5,0.6-9.4,2c-2,1-3.8,2.4-5.8,3.4c0,0,0,0,0,0c-1.6,0.7-3.3,1.1-5,1.4
						c-2.1,0.3-3,0-2,2.2C-11.2-18.4-8.8-16-6.4-14.3z"/>
				</g>
				<g>
					<path class="st2" d="M33.8-29.3L33.8-29.3c0.3,0.7,0.3,1.5,0.4,2.2c0.2,1.9,0.8,3.8,2.2,5.2c1.3,1.4,3.4,2.1,5.2,1.4
						c0.6-0.2,1.1-0.5,1.6-0.7c1.9-0.8,4.1-0.4,5.9,0.4c1.9,0.8,3.5,2.1,5.3,3.1c3.9,2.3,9.7,2.4,14.2,2.2c0.9,0,1.1-0.3,1.8-0.8
						c0.7-0.5,0.4-0.1,0.6-0.9c0.2-1.8-0.6-3.6-1.8-5c-1.2-1.4-2.8-2.4-4.3-3.3c-0.9-0.6-1.9-1.2-2.9-1.5c-1.1-0.3-2.3-0.3-3.3-0.9
						c-1.7-0.9-2.2-3-2.4-4.9c-0.2-1.9-0.2-3.9-1.2-5.5c-1.8-2.8-6.2-2.9-9-1.1c-1,0.6-1.9,1.4-2.9,1.8c-2.1,0.9-4.4,0.6-6.7,1
						c-1.6,0.3-5.2,1.3-5.8,3.1C29.9-31.6,33.1-31,33.8-29.3z"/>
				</g>
			</g>
			<g>
				<path class="st3" d="M-62.3,40c0,0,2.3-3.6,3.9-3.1c1.6,0.5,0.8,2.2,1.3,4.5c0.1-2.7,0.5-8.8,2.9-9.8c2.4-1,6.3-0.2,8.3,1.5
					c1.2,1.1,2,2.5,2.6,4c0.9,2,1.7,4.3,1.2,6.5c-0.3,1.3-1.1,2.5-1.9,3.6c-1.8,2.5-3.7,5.2-6.6,6.2c-1.6,0.6-3.3,0.6-5,0.5
					c-3.6-0.1-7.2-0.4-10.7-1.5c-3.4-1.1-6.6-3.2-8.6-6.2c-2.6-4-2.5-9.6,0.2-13.6c2.7-4,7.9-6.1,12.6-5.2c1.3,0.3,2.4,1.5,3.3,2.6
					C-57.5,31.8-61.5,38.2-62.3,40z"/>
			</g>
			<g>
				<path class="st3" d="M42.4-9.3c1.1-0.5,1.6-2,2.8-2.2c0.6-0.1,1.1,0,1.7,0.1c1.2,0.2,2.4,0.3,3.6,0.3c3.2,0,15.7-4.1,16.6,1
					c-6.4,2.9-14,1.9-20.4,4.7c-2.8,1.2-5.3,3.1-7.8,4.8C33.3,3,27.3,5.8,20.9,7.6c-3.2,0.9-6.5,1.6-9.8,2.2
					C5.8,11,0.3,12.1-5.1,11.7c-5.5-0.4-10.7-2.2-16.2-2.8c-3.2-0.4-6.6-0.4-9.3-2.1C-25.3,0.1-15.4,0.9-8-2.4
					c3.3-1.5,6.6-2.4,9.8-4c2.2-1.1,4.9-3.1,7.2-4c4.7-1.7,9.1-2.3,13.8-4c1.5-0.6,3.1-1.1,4.7-1.3c3.3-0.3,2.7-3.8,7.8,2.5
					C36.9-11.4,40.2-8.2,42.4-9.3z"/>
			</g>
			<g>
				<path class="st4" d="M62.7-15.8C62.7-15.8,62.7-15.8,62.7-15.8c-2.2-0.6-4.2-2.2-4.7-4.4c-0.2-1.1,0-2.4,1-2.9
					c0.3-0.2,0.6-0.3,0.9-0.4c1-0.6,1.2-2,1.8-3.1c0.1-0.2,0.2-0.4,0.4-0.5c0.2-0.1,0.4-0.1,0.6-0.1c1.9,0,3.7,0.8,5.3,1.7
					c1,0.5,2,1,2.7,1.9c1.3,1.5,1.4,3.8,0.9,5.7C70.7-14.5,65.4-15,62.7-15.8z"/>
			</g>
			<g>
				<path class="st5" d="M64.8-18.3C64.8-18.3,64.8-18.3,64.8-18.3c-0.9,0.2-1.9,0.4-2.7,0c-0.3-0.2-0.5-0.4-0.8-0.7
					c-0.7-0.8-1.4-1.7-1.9-2.6c0.9-0.9,2.1-1.4,3.3-1.7c1.2-0.3,2.4-0.6,3.7-0.5c0.5,0,1,0.2,1.5,0.3c0.6,0.1,1.2,0.3,1.6,0.7
					c0.2,0.2,0.4,0.5,0.5,0.7c0.4,1,0.3,2.9-0.8,3.5C68.2-18.1,66-18.5,64.8-18.3z"/>
			</g>
			<g>
				<path class="st4" d="M-42.4-42.8c0.7,0.7,1.8,1.1,2.8,0.9c1-0.2,1.9-0.8,2.4-1.7c0.4,0.2,0.2,0.7,0.2,1.1
					c-0.1,1.3,1.4,2.2,2.6,2c0.3-0.1,0.6-0.2,0.9,0c0.1,0.1,0.2,0.2,0.3,0.4c0.4,0.8,1.2,1.4,2,1.2c0.9-0.2,1.4-1.3,1.4-2.3
					c0-1.8-0.9-3.5-2.4-4.4c-0.7-0.4-1.5-0.7-2.2-0.9c-1-0.3-1.9-0.6-2.9-0.8c-0.8-0.2-1.6-0.4-2.4-0.3c0,0,0,0,0,0
					C-42.9-47.4-44.9-45.3-42.4-42.8z"/>
			</g>
			<g>
				<path class="st4" d="M15.9-46.7c0.4-0.5,0.6-1.2,0.9-1.7c0.1-0.1,0.1-0.3,0.3-0.3c0.3-0.2,0.8,0,1.1,0.4
					c0.2,0.4,0.3,0.8,0.5,1.2c0.5,0.7,1.5,0.8,2.3,0.5c0.8-0.3,1.4-0.9,2-1.6c0,1.8,1.4,3.5,3.1,4c0.2,0.1,0.5,0.1,0.8,0
					c0.3-0.1,0.4-0.3,0.6-0.6c0.5-0.7,1.1-1.5,1.2-2.4c0.2-1.6-0.9-3.1-2.1-4.1c-2-1.7-4.6-2.8-7.2-2.7h0c-2.6,0.1-5.3,1.7-6.3,4.2
					C12.1-47.8,14-44,15.9-46.7z"/>
			</g>
			<g>
				<path class="st4" d="M64.1-40.8C64.1-40.8,64.1-40.8,64.1-40.8c0.5-0.2,0.9-0.8,1.3-1.2c0.4-0.4,1.1-0.7,1.6-0.3
					c0.2,0.2,0.3,0.4,0.4,0.7c0.2,0.6,0.5,1.2,0.7,1.9c0.3,0.8,0.8,1.8,1.6,2c0.6,0.1,1.2-0.2,1.6-0.7c0.4-0.5,0.5-1.1,0.5-1.7
					c0.1-1.9-0.7-3.8-2-5.1c-1.4-1.3-3.2-2.1-5.1-2.2c-1-0.1-2,0-2.9,0.6C59.4-45.3,61.1-39.5,64.1-40.8z"/>
			</g>
		</g>
		<g id="Details_14_" class="st0">
			<circle class="st6" cx="55" cy="-14.1" r="1.7"/>
		</g>
		<g id="Spines_1_" class="st0">
			<g>
				<path class="st4" d="M-8.9,1.6c-2.3,0.1-4.7-0.2-7-0.9C-14.3-1-12-2-9.6-2c0,0,0.9,0.8,1.1,1.5S-8.9,1.6-8.9,1.6z"/>
			</g>
			<g>
				<path class="st4" d="M-2.4-5.3c-2.7-0.4-5.4,0.5-7.5,2.2c2.5,1,5.1,1.6,7.8,1.6c0,0,0.9-1,0.8-1.7C-1.4-3.9-2.4-5.3-2.4-5.3z"/>
			</g>
			<g>
				<path class="st4" d="M3.9-8C2.1-8.8,0.3-9.4-1.6-9.6c-0.4-0.1-1,0-1.1,0.4c-0.1,0.2,0.1,0.5,0.2,0.7c1.1,1.8,3.1,3.2,5.2,3.6
					c0,0,0.6-0.4,1-1S3.9-8,3.9-8z"/>
			</g>
			<g>
				<path class="st4" d="M12.1-11c-2.4-1.2-5-1.7-7.7-1.5c1.2,2.2,3.1,4.1,5.3,5.3c0,0,1.1-0.2,1.7-1.2C12-9.3,12.1-11,12.1-11z"/>
			</g>
			<g>
				<path class="st4" d="M18.8-12.5c-1.3-2.5-4.1-4-6.9-4.8c0.7,2.7,2.1,5.2,4,7.2c0,0,0.9,0.2,1.7-0.3
					C18.3-10.7,19.1-11.9,18.8-12.5z"/>
			</g>
			<g>
				<path class="st4" d="M25.6-15.3c-1.3-1.3-2.7-2.5-4.4-3.2c-0.1,2.6,0.8,5.2,2.4,7.2c0,0,1.1-0.2,1.7-1
					C25.9-13,26.3-14.6,25.6-15.3z"/>
			</g>
			<g>
				<path class="st4" d="M33.1-16.5c-1-1.7-3.5-1.7-5.4-1.7c0.4,1.3,1.1,2.6,2,3.6c0,0,1,0.3,2-0.2C32.6-15.1,33.5-15.9,33.1-16.5z"
					/>
			</g>
			<g>
				<path class="st4" d="M36.9-1c0.7,3,1.6,6.1,2.7,9c2.9-4,4.2-9.1,3.4-14c0,0-1.5-0.2-2.5,0.2S36.9-1,36.9-1z"/>
			</g>
			<g>
				<path class="st4" d="M38.9-7.9c0.1,2.1-1.1,4-2.6,5.5S33,0.3,31.1,1.2c-0.1-0.6,0.1-1.3,0.3-1.9c1.1-2.9,2.2-5.9,3.3-8.8
					c0,0,0.8-0.3,2.2,0.2C38.3-8.6,38.8-8.4,38.9-7.9z"/>
			</g>
			<g>
				<path class="st4" d="M26.9-4.4c-1.2,2.8-1.6,5.9-1.2,9C28,3.2,30,1.1,31.2-1.4c0.6-1.2-0.6-1.9-1.4-2.2C29-4,27.4-5.5,26.9-4.4z
					"/>
			</g>
			<g>
				<path class="st4" d="M31.9,1.9c-0.1,1.5,0.3,4.2,0.8,5.5c2.7-2.2,3.3-4.3,3.9-7.9"/>
			</g>
			<g>
				<path class="st4" d="M25.9,4.7c-0.2,1.3-0.1,2.6,0.3,3.9c2-1.3,2.8-3.8,3.5-6.1"/>
			</g>
			<g>
				<path class="st4" d="M9.3,4.7C9.2,6.1,9.3,7.6,9.5,9c1.9-0.8,3.5-2.4,4.3-4.4"/>
			</g>
			<g>
				<path class="st4" d="M16.3,1.8c-0.2,1.2-0.2,2.4-0.1,3.6c0,0.3,0.1,0.7,0.4,0.8c0.2,0,0.3,0,0.5-0.1c1.3-0.7,2.4-1.8,3-3.1"/>
			</g>
			<g>
				<path class="st4" d="M21.4-0.2c-0.1,1.5-0.2,3-0.1,4.5c0,0.1,0,0.2,0.1,0.3c0.1,0,0.1,0,0.2,0c1-0.2,1.8-0.9,2.4-1.7
					s1-1.7,1.5-2.5"/>
			</g>
			<g>
				<path class="st4" d="M-32.3,5.8c-1.9,1.5-3.2,3.7-3.6,6c2.4-0.5,4.5-1.9,5.9-3.9"/>
			</g>
			<g>
				<path class="st4" d="M-29.1,7.5c-0.4,2-0.4,4.2,0.1,6.2c0,0.2,0.1,0.3,0.3,0.4c0.2,0,0.3-0.1,0.4-0.2c1.7-1.7,2.3-4.3,2.6-6.8"
					/>
			</g>
			<g>
				<path class="st4" d="M-25.9,5.4c-1.5,0.8-3.1,1.4-4.7,1.7c0-1.1,0.7-2.1,1.5-2.8s1.9-1.1,2.9-1.4"/>
			</g>
			<g>
				<path class="st4" d="M-25,8.6c0,1.5,0.3,3.1,0.9,4.5c0.2,0,0.4-0.2,0.5-0.4c1.1-1.6,1.8-3.5,2-5.5"/>
			</g>
			<g>
				<path class="st4" d="M-20.4,8.7c-0.2,1.3-0.2,2.6,0.1,4c0,0.1,0,0.2,0.1,0.3c0.2,0.1,0.4,0,0.6-0.2c1.3-1.1,2.7-2.5,2.9-4.2"/>
			</g>
			<g>
				<path class="st4" d="M-15,8.7c0.1,0.9,0.2,1.8,0.2,2.7c0,0.2,0.1,0.5,0.3,0.6c0.2,0.1,0.5-0.1,0.7-0.2c0.9-0.7,1.6-1.5,2.2-2.4"
					/>
			</g>
			<g>
				<path class="st4" d="M-17.5,3c-1.9,0.1-3.9,0-5.8-0.3c1.6-1.3,3.5-2.2,5.5-2.7"/>
			</g>
			<g>
				<path class="st4" d="M2.2,3.4C0.9,4.7-0.9,5.4-2.7,5.2c0.1-2,1.1-3.9,2.7-5.2c0,0,1.5,0.7,1.9,1.3S2.2,3.4,2.2,3.4z"/>
			</g>
			<g>
				<path class="st4" d="M9.1,0C7.8,1.4,5.8,2.2,3.8,2.3C4.1,0.1,5.2-2,7-3.4c0.1-0.1,0.2-0.1,0.2-0.2c0,0,1.3,0.8,1.7,1.4
					S9.1,0,9.1,0z"/>
			</g>
			<g>
				<path class="st4" d="M14-5.4c-1.3,0.1-2.5,1.1-3,2.3c-0.6,1.2-0.7,2.6-0.8,3.9c1.1-0.3,2.2-0.6,3.3-1.1s2-1.2,2.6-2.2"/>
			</g>
			<g>
				<path class="st4" d="M20.5-8.1c-0.6-0.2-1.2,0.1-1.7,0.4c-1.5,1-2.5,2.6-2.7,4.3c2,0.5,4.3,0,5.8-1.3"/>
			</g>
			<g>
				<path class="st4" d="M26.8-10c0-0.1-0.2-0.1-0.3-0.1c-1,0.3-2,0.7-2.9,1.3c-0.8,0.6-1.5,1.5-1.8,2.5c0.4,0.1,0.9,0.1,1.3,0.2
					c0.6,0.1,1.2,0.2,1.8,0.1c0.5-0.1,1-0.4,1.5-0.7c0.7-0.5,1.5-0.9,2-1.6"/>
			</g>
			<g>
				<path class="st4" d="M33.5-13.9c-0.9,0.2-1.8,0.4-2.6,0.9c-0.4,0.2-0.7,0.4-1,0.7c-0.6,0.6-0.9,1.5-1.2,2.3
					c0,0.1-0.1,0.3-0.1,0.4c0.1,0.2,0.3,0.3,0.5,0.3c1.8,0.4,3.8-0.2,5.1-1.5c0,0,0.6-0.7,0.4-1.6C34.5-13.1,34-14.1,33.5-13.9z"/>
			</g>
			<g>
				<path class="st4" d="M21.4,4.9c-0.4,1.2-0.3,2.6,0.3,3.8c0,0.1,0.1,0.1,0.1,0.1c0,0,0.1,0,0.2,0c0.4-0.1,0.7-0.4,1.1-0.6
					c1.3-1.1,2.1-2.7,2.2-4.4"/>
			</g>
			<g>
				<path class="st4" d="M14.9,6.6c-0.5,1.3-0.5,2.9,0,4.2c0,0,0,0.1,0.1,0.1c0,0,0.1,0,0.1,0c2.5-0.7,4.3-3.1,4.4-5.6"/>
			</g>
			<g>
				<path class="st4" d="M7.2,8.2c-0.9,1.4-1.4,3.2-1.3,4.9c1.5-0.3,3-0.7,4.3-1.6c1.3-0.8,2.3-2,2.8-3.5"/>
			</g>
			<g>
				<path class="st4" d="M6.2,7c-0.3,0.8-1,1.4-1.8,1.9c-1.2,0.8-2.5,1.6-3.9,1.4c0.1-1.7,0.7-3.4,1.8-4.9c0,0,0.1-0.1,0.1-0.1
					c0.1,0,0.1,0.1,0,0.1c0,0,1.6,0.2,2.2,0.4S6.2,7,6.2,7z"/>
			</g>
			<g>
				<path class="st4" d="M-6.3,3.2c-1.7,1-3,2.5-3.8,4.2c2,0.4,4.2-0.4,5.5-2"/>
			</g>
			<g>
				<path class="st4" d="M-1.9,9.2c-0.7,1-1.2,2.2-1.4,3.4c2.2,0.3,4.5-0.7,5.8-2.4"/>
			</g>
			<g>
				<path class="st4" d="M-13.7,3.8C-15.4,4-17,4.9-18.2,6.2c1.8,0.9,4.2,0.6,5.7-0.8"/>
			</g>
			<g>
				<path class="st4" d="M-7.6,9c-1.2,0.8-2.1,2-2.6,3.4c2.3,0.1,4.6-1.1,5.8-3"/>
			</g>
		</g>
	</g>
	<g id="Outlines_9_">
		<g>
			<g>
				<path class="st7" d="M43.5-6.2c1.2-4.9,3-4.2,7.9-4.1c3.8,0.1,7.6,0.2,11.3-0.9c4-1.1,5.5-2.7,5.8-7.2c0-0.4,0.7-0.4,0.7,0
					c0.1,5-1.1,6.6-5.7,8c-2.7,0.8-5.5,1.2-8.2,1.4c-3.6,0.3-9.9-1.4-11.4,2.9C43.7-5.9,43.4-6,43.5-6.2L43.5-6.2z"/>
			</g>
		</g>
		<g>
			<g>
				<path class="st7" d="M68.8-18.2c-1.3,0-2.6,0.1-3.9,0.2c-0.9,0.1-2.1,0.5-3,0.2c-1.4-0.4-2.3-2.5-3.1-3.6
					c-0.2-0.3,0.3-0.6,0.5-0.4c1.2,1.5,2.1,3.2,4.3,3c1.8-0.2,3.5-0.1,5.3,0.1C69-18.6,69-18.2,68.8-18.2L68.8-18.2z"/>
			</g>
		</g>
		<g>
			<g>
				<path class="st7" d="M58.8-21.7c3.2-2.1,6.1-2.4,9.9-1.7c0.1,0,0.1,0.3-0.1,0.2c-3-0.7-6.9,0.3-9.6,1.8
					C58.8-21.2,58.6-21.5,58.8-21.7L58.8-21.7z"/>
			</g>
		</g>
		<g>
			<g>
				<path class="st7" d="M68.7-18.2c-0.9-0.3-1.9-1.2-2.1-2.3c-0.1-1.2,1-2.2,1.9-2.8c0.2-0.1,0.5,0.1,0.3,0.3
					c-0.4,0.6-1.4,1.2-1.6,2c-0.3,1.2,0.9,1.8,1.5,2.5C68.9-18.4,68.8-18.2,68.7-18.2L68.7-18.2z"/>
			</g>
		</g>
		<g>
			<g>
				<path class="st7" d="M67.9-15.4c-3.7,1.2-8.4-0.6-9.9-4.4c-0.4-1-0.7-2.4,0.2-3.1c0.3-0.2,0.7-0.2,1-0.4c1.1-0.5,1.5-1.4,2-2.3
					c0.4-0.7,0.4-1.1,1.3-1.4c0.2-0.1,0.4,0.2,0.2,0.3c-1.3,0.7-1,2.1-1.8,3c-1.2,1.3-2.9,0.1-2.6,3.1C58.8-16,64.5-15.8,67.9-15.4
					C67.9-15.5,67.9-15.4,67.9-15.4L67.9-15.4z"/>
			</g>
		</g>
		<g>
			<g>
				<path class="st7" d="M67.5-22c1.6-3.3-5.6-4.2-7.9-4.8c-3.4-0.8-6.6-2.1-10-2.8c-3-0.6-6-0.6-9-1c-4.7-0.7-7.8-2.7-12.9-0.4
					c-0.6,0.3-1.2-0.6-0.5-0.9c2.9-1.5,5.5-2.3,8.8-1.3c2.2,0.6,4.1,1.6,6.5,1.6c2.1,0,3.8-0.2,5.9,0.3c4.5,1.2,8.6,3.2,13.3,4
					c3.2,0.6,5.7,0.9,7.4,3.9c0.1,0.1,0,0.2,0,0.3c-0.4,0.4-0.8,0.9-1.2,1.3C67.6-21.8,67.4-21.9,67.5-22L67.5-22z"/>
			</g>
		</g>
		<g>
			<g>
				<path class="st7" d="M-17.7-3.9c-3.9-0.9-6.8-3.1-8.5-6.8c-0.8-1.7-0.8-3.5-1.4-5.2c-1.3-3.7-3.6-3.3-6.2-5.1
					c-1.9-1.4-3-3.3-4.5-5c-1.9-2.2-4.7-4.1-6.3-6.6c-2-3.2-0.5-7.3,0.1-10.7c0.1-0.7,1.1-0.4,1,0.3c-0.6,3.4-1.8,7.4,0.4,10.6
					c1.1,1.6,3,3.1,4.4,4.4c1.6,1.5,3.3,2.9,5,4.3c1.9,1.5,4,2,5.9,3.4c1.5,1.1,1.7,1.9,2,3.8c0.8,5.2,3.1,10.2,8.2,12.3
					C-17.3-4.1-17.5-3.8-17.7-3.9L-17.7-3.9z"/>
			</g>
		</g>
		<g>
			<g>
				<path class="st7" d="M-3.3-21.2c-3.8,1.1-6.5,1.7-10.2-0.3c-1.6-0.9-3.2-2.1-4.6-3.2c-2.9-2.3-5.1-3.9-8.7-5.3
					c-2.9-1.1-6.5-2.4-7.7-5.6c-1.2-3.2,1.6-3.4,2.4-6.1c0.1-0.3,0.7-0.3,0.6,0.1c0,1.8-1.1,1.4-1.8,2.9c-1.9,4.5,7.7,7.3,9.9,8.5
					c2.4,1.3,3.7,3.2,5.8,4.8c3.2,2.6,9.9,4.7,14,3.9C-3.1-21.7-3-21.3-3.3-21.2L-3.3-21.2z"/>
			</g>
		</g>
		<g>
			<g>
				<path class="st7" d="M-16.8-24.3c9.9,2.7,16.7-7.4,26.4-7.3c1.2,0,1.1,1.7,0,1.8C1-28.6-7.8-19.9-16.8-24.2
					C-16.9-24.2-16.8-24.3-16.8-24.3L-16.8-24.3z"/>
			</g>
		</g>
		<g>
			<g>
				<path class="st7" d="M24.7-19.7C20.3-22,10.9-24.8,9.4-30.3C8-35.5,9.8-41.9,13.3-45.7c0.3-0.3,0.8,0.1,0.6,0.4
					c-2.9,4.5-5.3,11.9-1.3,16.3c3.3,3.7,8.2,6.3,12.2,9.1C24.9-19.8,24.8-19.6,24.7-19.7L24.7-19.7z"/>
			</g>
		</g>
		<g>
			<g>
				<path class="st7" d="M15.2-34.2c3.8-4.7,10.2-2.4,12.6,2.4c0.2,0.5-0.4,1-0.7,0.6c-2.7-3.2-7.7-6.1-11.5-2.6
					C15.4-33.5,15-33.9,15.2-34.2L15.2-34.2z"/>
			</g>
		</g>
		<g>
			<g>
				<path class="st7" d="M18.6-36.2c-0.7-2-0.1-4.3,1.2-5.9c1.5-1.9,4-2.6,5.2-4.8c0.1-0.2,0.4-0.2,0.5,0.1c0.2,1.5-1,2.5-2.1,3.4
					c-2.2,2-4,4-4.1,7.2C19.3-35.9,18.7-35.9,18.6-36.2L18.6-36.2z"/>
			</g>
		</g>
		<g>
			<g>
				<path class="st7" d="M43.8-31.1c2.7-1.5,4.1-3.1,5.7-5.6c0.9-1.5,1.5-2.7,3.1-3.5c1.4-0.6,3-0.4,4.5-0.7
					c2.1-0.5,3.4-2.4,5.6-2.3c0.5,0,0.6,0.7,0.1,0.8c-1.8,0.6-2.8,2.2-4.5,2.9c-2.6,1-5.4,0.4-7.2,3.1c-2.1,3.2-3.5,4.4-7,5.8
					C43.7-30.4,43.5-30.9,43.8-31.1L43.8-31.1z"/>
			</g>
		</g>
		<g>
			<g>
				<path class="st7" d="M56.3-27.9c-1.1-2.6,3.2-3.7,4.7-4.7c1.5-1.1,1.6-2.9,2.9-4c0.8-0.7,2-0.9,2.9-1.4c1.1-0.5,2-1.2,3-1.9
					c0.3-0.2,0.6,0.2,0.4,0.5c-1,1.2-2.1,2.2-3.5,3c-1.2,0.7-1.7,0.6-2.6,2.1c-0.3,0.5-0.4,1-0.8,1.5c-1.6,2.3-6,2.2-6.7,5
					C56.6-27.7,56.4-27.8,56.3-27.9L56.3-27.9z"/>
			</g>
		</g>
		<g>
			<g>
				<path class="st7" d="M62.5-43c0.6-0.2,1.2-0.3,1.7,0.1c0.2,0.2,0.3,0.4,0.5,0.6c0.5,0.6,1,0.6,1.8,0.5c1.9-0.2,3.8-0.2,3.9,2.2
					c0,0.5-0.7,0.5-0.8,0.1c-0.1-0.3-0.3-0.9-0.6-1.1c-0.4-0.3-1.1-0.2-1.6-0.2c-0.8,0-1.7,0.3-2.4,0c-1.1-0.4-1-1.9-2.3-1.6
					C62.3-42.4,62.2-42.9,62.5-43L62.5-43z"/>
			</g>
		</g>
		<g>
			<g>
				<path class="st7" d="M-2.8-25.9c0.4-1.3,0.8-2.6,0.8-4c0-0.8-0.1-1.6,0.1-2.4c0.2-1.3,0.8-2.3,2.1-2.8c1.7-0.6,3.5,0.1,5.2-0.2
					c1.6-0.2,3-1.1,4.4-0.1c0.4,0.3,0.1,0.9-0.3,0.8c-1.6-0.3-2.6,0.4-4,0.6c-1.3,0.2-2.8-0.3-4.1,0c-2.8,0.7-2.3,6-3.7,8.3
					C-2.5-25.5-2.9-25.7-2.8-25.9L-2.8-25.9z"/>
			</g>
		</g>
		<g>
			<g>
				<path class="st7" d="M-44.5-43.3c0.5-1.9,2.6-2.2,4.3-2.1c0.8,0.1,1.9,0.1,2.3,1c0.3,0.8,0.1,1.8-0.3,2.5
					c-0.4,0.7-1.6,0.1-1.1-0.7c0.2-0.4,0.5-1.1,0.2-1.4c-0.3-0.3-1.3-0.3-1.8-0.2c-1,0-2.2,0-2.5,1.2
					C-43.6-42.4-44.6-42.6-44.5-43.3L-44.5-43.3z"/>
			</g>
		</g>
		<g>
			<g>
				<path class="st7" d="M-38.9-44c0.9,0,1.6,0,2.5-0.2c0.5-0.1,1.1-0.1,1.6,0c0.9,0.2,2.1,0.9,1.9,2c-0.1,0.8-1.2,1.1-1.5,0.2
					c-0.7-2-3.4-0.4-4.8-1.5C-39.3-43.7-39.1-44.1-38.9-44L-38.9-44z"/>
			</g>
		</g>
		<g>
			<g>
				<path class="st7" d="M-33.7-42.7c0,0,0-0.1,0-0.1c0-0.1,0.2-0.3,0.3-0.3c0.6-0.1,1.2,0.1,1.7,0.5c0.5,0.4,0.8,1.2,0.3,1.7
					c-0.2,0.3-0.6,0.1-0.8-0.1c-0.2-0.4-0.1-0.7-0.5-1c-0.3-0.3-0.7-0.1-1.1-0.4C-33.7-42.5-33.7-42.6-33.7-42.7L-33.7-42.7z"/>
			</g>
		</g>
		<g>
			<g>
				<path class="st7" d="M13.3-45.4c-1.5-0.7-1.1-2.6,0.2-3.4c0.8-0.5,1.6-0.3,2.4-0.3c0.8,0.3,1.6,0.4,2.4,0.2
					c0.2-0.2,0.4-0.3,0.6-0.4c0.5-0.1,0.7-0.3,1.3-0.3c1.1,0,1.6,0.8,2.5,1c0.9,0.2,1.7-0.3,2.5,0c1.6,0.7,0.7,2.7-0.5,3.2
					c-0.3,0.1-0.7-0.2-0.5-0.5c0.3-0.5,0.9-1.1-0.1-1.6c-0.1-0.1-1,0.3-1.2,0.3c-0.8,0-1.2-0.4-2-0.8c-1.5-0.7-1.7,0.2-3.1,0.5
					c-0.3,0.1-0.5,0.1-0.7,0.1c-0.3,0-5.5-1.4-3.4,1.5C13.9-45.6,13.5-45.3,13.3-45.4L13.3-45.4z"/>
			</g>
		</g>
		<g>
			<g>
				<path class="st7" d="M-8.9,1.9c-2.4,0.2-4.8-0.1-7.1-0.7c-0.3-0.1-0.4-0.5-0.2-0.7c1.4-1.5,4.5-3.7,6.6-2.7
					c0.2,0.1,0.2,0.4,0,0.5c-0.9,0.4-1.9,0.3-2.8,0.7c-1.3,0.4-2.3,1.2-3.2,2.1c-0.1-0.2-0.1-0.5-0.2-0.7c2.2,0.7,4.5,1.1,6.8,1.1
					C-8.6,1.4-8.6,1.8-8.9,1.9L-8.9,1.9z"/>
			</g>
		</g>
		<g>
			<g>
				<path class="st7" d="M-2.1-1.2C-4.8-1-7.5-1.6-10-2.7c-0.3-0.1-0.5-0.5-0.2-0.8C-8.1-5.1-5-6.4-2.3-5.6C-2-5.5-2.1-5-2.4-5
					c-2.7,0.2-5,0.4-7.2,2.2C-9.6-3-9.7-3.3-9.8-3.5c2.5,1,5,1.4,7.7,1.7C-1.7-1.8-1.7-1.3-2.1-1.2L-2.1-1.2z"/>
			</g>
		</g>
		<g>
			<g>
				<path class="st7" d="M2.6-4.7c-1.4,0-2.8-0.6-3.9-1.4c-0.8-0.6-2.3-1.9-2.1-3c0.4-2.6,6.3,0,7.5,0.7c0.5,0.3,0.2,1-0.4,0.9
					c-1-0.3-2-0.7-3-0.9C0.2-8.6-0.3-8.8-0.8-8.8c-0.3,0-0.5-0.1-0.8-0.1c-0.5,0.1-0.5,0.2-0.2,0.5c0.6,1.7,3.1,2.7,4.6,3.3
					C3-5,2.9-4.7,2.6-4.7L2.6-4.7z"/>
			</g>
		</g>
		<g>
			<g>
				<path class="st7" d="M9.7-7.1c-2.5-0.7-4.5-3-5.8-5.2c-0.2-0.4,0.1-0.9,0.5-0.9c2.4-0.1,6.2,0.1,7.9,1.9
					c0.2,0.2,0.1,0.5-0.2,0.5c-1.2-0.1-2.2-0.7-3.4-0.9C7.3-11.9,5.9-12,4.4-12c0.2-0.3,0.3-0.6,0.5-0.9c1.3,2.3,3,3.7,4.9,5.5
					C9.9-7.2,9.8-7.1,9.7-7.1L9.7-7.1z"/>
			</g>
		</g>
		<g>
			<g>
				<path class="st7" d="M15.8-9.9c-2.3-1.8-3.7-4.4-4.5-7.1c-0.1-0.4,0.3-0.8,0.7-0.7c2.9,0.9,5.3,2.6,7.1,5.1
					c0.3,0.4-0.4,0.9-0.7,0.5c-1.8-2.2-4-3.7-6.7-4.5c0.2-0.2,0.5-0.5,0.7-0.7c0.7,2.7,2.1,5,3.5,7.3C16-10,15.9-9.8,15.8-9.9
					L15.8-9.9z"/>
			</g>
		</g>
		<g>
			<g>
				<path class="st7" d="M23.4-11.1c-1.9-2-2.8-4.6-2.8-7.4c0-0.3,0.3-0.6,0.6-0.5c1.8,0.8,3.3,1.8,4.6,3.4c0.4,0.4-0.2,1.1-0.6,0.6
					c-1.2-1.3-2.6-2.4-4.2-3c0.2-0.2,0.4-0.3,0.6-0.5c0,2.5,0.8,4.9,2.1,7.1C23.9-11.2,23.6-10.9,23.4-11.1L23.4-11.1z"/>
			</g>
		</g>
		<g>
			<g>
				<path class="st7" d="M29.5-14.4c-1.2-0.9-1.8-2.2-2.3-3.6c-0.1-0.3,0.2-0.7,0.5-0.7c2.1-0.1,4.1,0.6,5.7,1.9
					c0.4,0.3-0.1,0.9-0.5,0.7c-1.6-1-3.3-1.5-5.2-1.5c0.2-0.2,0.4-0.5,0.5-0.7c0.4,1.3,1,2.4,1.6,3.6C30-14.4,29.7-14.3,29.5-14.4
					L29.5-14.4z"/>
			</g>
		</g>
		<g>
			<g>
				<path class="st7" d="M43.6-6.2C44.3-1,43.1,3.9,40,8.2c-0.2,0.3-0.8,0.3-0.9-0.1c-1.1-3.3-2.1-7.7-2-11.1c0-0.3,0.4-0.4,0.5-0.1
					c1.6,3.3,1.2,7.5,2.4,11c-0.3,0-0.6-0.1-0.9-0.1C42,3.6,43-1.1,42.4-6C42.3-6.7,43.5-6.9,43.6-6.2L43.6-6.2z"/>
			</g>
		</g>
		<g>
			<g>
				<path class="st7" d="M39.1-8.1c-0.1,1.2,0.1,1.7-0.4,2.9c-0.5,1-1.1,1.9-1.8,2.8c-1.6,2-3.7,3-5.9,4.2c-0.3,0.2-0.7,0-0.7-0.4
					c0-1.8,0.9-3.5,1.5-5.2c0.7-1.9,1.3-3.8,2-5.7c0.2-0.6,1.1-0.3,0.9,0.2c-0.6,1.7-1.2,3.3-1.7,5c-0.6,1.8-1.6,3.7-1.6,5.6
					c-0.2-0.1-0.5-0.3-0.7-0.4c1.9-1.2,3.8-2.2,5.2-4c1.1-1.4,2.6-3.4,3-5.2C38.7-8.4,39.1-8.4,39.1-8.1L39.1-8.1z"/>
			</g>
		</g>
		<g>
			<g>
				<path class="st7" d="M27-4.4c-0.8,2.9-1.2,5.9-0.9,8.9c-0.2-0.1-0.4-0.2-0.6-0.4c2.4-1.5,4-3.5,5.7-5.6c0.1-0.1,0.2,0,0.2,0.1
					c-0.8,2.8-3,4.8-5.4,6.3c-0.3,0.2-0.6-0.1-0.6-0.4c-0.3-3.2,0.1-6.2,1.5-9C26.8-4.6,27.1-4.5,27-4.4L27-4.4z"/>
			</g>
		</g>
		<g>
			<g>
				<path class="st7" d="M32.2,2.4c0.3,1.8,0.4,3.5,1,5.2c-0.2-0.1-0.4-0.1-0.7-0.2c1.1-1,1.9-2.2,2.5-3.5c0.7-1.4,0.9-2.9,1.4-4.4
					c0.1-0.1,0.3-0.1,0.3,0c0.1,3-1.3,6.5-3.6,8.4c-0.2,0.2-0.6,0.1-0.7-0.2c-0.5-1.6-0.9-3.8-0.6-5.4C31.9,2.2,32.1,2.2,32.2,2.4
					L32.2,2.4z"/>
			</g>
		</g>
		<g>
			<g>
				<path class="st7" d="M26.2,4.7c0,1.3,0.2,2.5,0.5,3.7c-0.2-0.1-0.5-0.2-0.7-0.3c2-1.5,2.4-3.8,3.4-5.9c0.2-0.5,0.9-0.1,0.8,0.3
					c-0.4,2.4-1.7,5-3.7,6.4c-0.3,0.2-0.7,0-0.7-0.3c-0.3-1.4-0.3-2.7,0-4.1C25.7,4.4,26.2,4.4,26.2,4.7L26.2,4.7z"/>
			</g>
		</g>
		<g>
			<g>
				<path class="st7" d="M9.5,4.7c0,1.4,0.2,2.8,0.5,4.1C9.8,8.7,9.5,8.7,9.3,8.6c1-0.5,1.8-1.1,2.6-1.8C12.6,6,13,5,13.7,4.4
					c0.2-0.2,0.5-0.1,0.5,0.2c0,1-0.9,2.2-1.6,2.9c-0.8,0.9-1.8,1.5-2.9,2C9.4,9.6,9.1,9.2,9.1,9c-0.1-1.4-0.2-2.8,0-4.3
					C9.1,4.5,9.5,4.4,9.5,4.7L9.5,4.7z"/>
			</g>
		</g>
		<g>
			<g>
				<path class="st7" d="M16.5,1.8c0.1,0.7,0,1.5,0,2.3c0,0.4,0,0.8,0.1,1.2c0.2,0.5,0.3,0.4,0.8,0.2c0.5-0.3,1.1-0.8,1.5-1.3
					c0.4-0.4,0.7-1,1.1-1.4c0.1-0.1,0.5,0,0.4,0.2c-0.2,1.5-1.9,3.5-3.4,3.7c-0.8,0.1-1-0.6-1.1-1.2c-0.1-1.1-0.1-2.6,0.3-3.6
					C16.2,1.5,16.5,1.6,16.5,1.8L16.5,1.8z"/>
			</g>
		</g>
		<g>
			<g>
				<path class="st7" d="M21.7-0.2c0,0.9-0.1,1.7-0.1,2.6c0,0.4-0.1,1,0,1.3c0,0.1,0,0.2,0.1,0.3C22,4,22.2,3.9,22.4,3.7
					c1.4-0.8,1.8-2.4,2.9-3.5c0.1-0.1,0.3,0,0.3,0.1c-0.2,1.8-1.9,4.1-3.8,4.6c-0.8,0.2-1-0.3-1-1c0-1.4,0.1-2.8,0.3-4.2
					C21.2-0.6,21.7-0.5,21.7-0.2L21.7-0.2z"/>
			</g>
		</g>
		<g>
			<g>
				<path class="st7" d="M-32.3,6c-0.6,0.9-1.4,1.7-2,2.7c-0.6,1-1.1,2.2-1.5,3.3c-0.1-0.1-0.3-0.3-0.4-0.4c2.6-0.5,4-2,5.8-3.8
					c0.3-0.3,0.7,0.1,0.6,0.4c-1.2,2.2-3.8,3.5-6.1,4c-0.2,0-0.4-0.1-0.4-0.3c0.1-2.4,1.5-5.2,3.8-6.2C-32.5,5.6-32.2,5.8-32.3,6
					L-32.3,6z"/>
			</g>
		</g>
		<g>
			<g>
				<path class="st7" d="M-29,7.9c0,1.1-0.1,2.1,0,3.2c0,0.4,0.1,1.3,0.3,1.7c0,0.5,0.1,0.6,0.3,0.2c0.1-0.1,0.3-0.3,0.4-0.4
					c0.7-0.7,1.1-1.6,1.4-2.6c0.3-0.8,0.3-1.7,0.6-2.5c0.1-0.2,0.4-0.2,0.4,0.1c0.1,1.2-0.4,2.6-0.8,3.7c-0.3,0.8-1.1,2.5-2.1,2.8
					c-2.1,0.6-1.2-5.3-0.8-6.3C-29.2,7.7-29,7.8-29,7.9L-29,7.9z"/>
			</g>
		</g>
		<g>
			<g>
				<path class="st7" d="M-25.7,5.6c-1.3,1.1-3.1,1.6-4.8,1.9c-0.3,0-0.6-0.1-0.6-0.4c0.2-2.5,2.5-4,4.9-4.4c0.2,0,0.4,0.3,0.2,0.4
					c-1.8,0.9-4,1.7-4.2,4c-0.2-0.1-0.4-0.3-0.6-0.4c1.7-0.3,3.2-0.9,4.8-1.5C-25.7,5.1-25.5,5.5-25.7,5.6L-25.7,5.6z"/>
			</g>
		</g>
		<g>
			<g>
				<path class="st7" d="M-24.9,8.5c0.3,0.6,0.2,1.2,0.4,1.9c0.2,0.9,0.5,1.7,0.8,2.5c-0.2-0.1-0.3-0.1-0.5-0.2
					c0.8-0.3,1.4-2.1,1.7-2.9c0.3-0.9,0.5-1.8,0.6-2.7c0.1-0.4,0.7-0.3,0.7,0.1c0,1.3-0.3,2.5-0.8,3.6c-0.4,0.9-0.9,2.3-1.9,2.6
					c-0.2,0.1-0.4,0-0.5-0.2c-0.6-1.3-1.3-3.4-0.7-4.8C-25.1,8.4-24.9,8.4-24.9,8.5L-24.9,8.5z"/>
			</g>
		</g>
		<g>
			<g>
				<path class="st7" d="M-20.1,8.7c-0.1,0.8-0.1,1.5-0.1,2.3c0,0.3,0,1.2,0.2,1.4c0,0.3,0.1,0.2,0.3,0c0.1-0.1,0.3-0.3,0.4-0.4
					c0.5-0.5,1-1,1.4-1.6c0.4-0.6,0.6-1.2,0.8-1.9c0.1-0.4,0.7-0.3,0.7,0.1c0,1-0.5,1.9-1.1,2.7c-0.5,0.7-1.4,1.7-2.2,2
					c-1.8,0.8-1.1-3.9-1-4.7C-20.6,8.3-20.1,8.4-20.1,8.7L-20.1,8.7z"/>
			</g>
		</g>
		<g>
			<g>
				<path class="st7" d="M-14.9,8.6c0.3,0.4,0.2,0.9,0.3,1.3c0,0.3,0,1.8,0.5,1.7c0.2,0,0.5-0.4,0.6-0.5c0.2-0.2,0.5-0.4,0.7-0.7
					c0.4-0.4,0.7-0.9,1.1-1.3c0.3-0.3,0.7,0.1,0.5,0.4c-0.4,0.7-1,1.3-1.6,1.8c-0.4,0.4-1,1.1-1.6,0.9c-0.6-0.1-0.6-0.8-0.6-1.3
					c0-0.5-0.1-0.9-0.1-1.4c0-0.4-0.1-0.7,0.1-1.1C-15.1,8.5-15,8.6-14.9,8.6L-14.9,8.6z"/>
			</g>
		</g>
		<g>
			<g>
				<path class="st7" d="M-17.4,3.2c-2,0.5-4,0.2-6-0.1c-0.4-0.1-0.4-0.6-0.1-0.9c0.9-0.7,1.9-1.3,3-1.8c0.8-0.4,1.8-0.9,2.8-0.8
					c0.3,0,0.4,0.4,0.2,0.6c-0.8,0.5-1.8,0.7-2.7,1.1c-1,0.5-1.8,1-2.7,1.7c-0.1-0.3-0.1-0.5-0.2-0.8c1.9,0.3,3.8,0.3,5.7,0.6
					C-17.2,2.8-17.2,3.2-17.4,3.2L-17.4,3.2z"/>
			</g>
		</g>
		<g>
			<g>
				<path class="st7" d="M0,0.1c-1.2,1.5-2.2,3.1-2.4,5.1c-0.1-0.1-0.3-0.3-0.4-0.4c0.9,0.1,1.7,0,2.6-0.3c0.9-0.3,1.5-0.8,2.2-1.3
					c0.2-0.1,0.5,0.1,0.4,0.4c-1,1.6-3.4,2.1-5.2,2c-0.2,0-0.4-0.2-0.4-0.4c0.1-2.1,1.1-4.3,3-5.3C0-0.2,0.1,0,0,0.1L0,0.1z"/>
			</g>
		</g>
		<g>
			<g>
				<path class="st7" d="M7.4-3.5C7.2-3.1,6.9-2.9,6.6-2.6C6.1-2.1,5.8-1.7,5.4-1.1C4.8-0.1,4.3,1.1,4.2,2.3C4.1,2.2,3.9,2.1,3.8,2
					C5,1.9,6,1.5,7,1C7.7,0.6,8.3,0,9.1-0.3c0.2-0.1,0.3,0.2,0.3,0.3C8.5,2,5.7,2.6,3.8,2.7c-0.2,0-0.4-0.2-0.3-0.4
					c0.2-1.3,0.5-2.6,1.3-3.7c0.5-0.8,1.5-2,2.4-2.2C7.4-3.7,7.4-3.6,7.4-3.5L7.4-3.5z"/>
			</g>
		</g>
		<g>
			<g>
				<path class="st7" d="M14.1-5.1c-2.6,0.7-3.4,3.6-3.6,6c-0.1-0.1-0.2-0.2-0.4-0.3c2.3-0.6,4.3-1.3,5.8-3.2
					c0.3-0.3,0.8,0.1,0.6,0.4c-1.5,2-3.8,2.8-6.2,3.3c-0.2,0-0.4-0.1-0.4-0.3c0-1.7,0-3.3,1-4.8C11.7-5,12.8-5.6,14-5.7
					C14.4-5.7,14.4-5.2,14.1-5.1L14.1-5.1z"/>
			</g>
		</g>
		<g>
			<g>
				<path class="st7" d="M20.5-7.9c-2.2,0.5-3.7,2.5-4.1,4.7c-0.1-0.1-0.2-0.3-0.2-0.4c1.1,0.3,2.2,0.2,3.3,0c0.9-0.2,1.6-0.7,2.5-1
					c0,0,0.1,0,0.1,0.1c-1.3,1.8-4,2-6,1.6c-0.1,0-0.3-0.2-0.2-0.3c0.2-1.4,0.7-2.7,1.6-3.7c0.7-0.8,2-1.8,3.1-1.2
					C20.7-8.2,20.7-7.9,20.5-7.9L20.5-7.9z"/>
			</g>
		</g>
		<g>
			<g>
				<path class="st7" d="M26.7-9.7c-0.3-0.1-1.5,0.5-1.7,0.6c-0.5,0.3-1,0.6-1.4,0.9C23-7.6,22.4-6.9,22-6.1c0-0.1-0.1-0.2-0.1-0.4
					c2.5,0.4,4.5-0.3,6.4-2c0.2-0.1,0.4,0,0.3,0.2c-0.6,1-1.9,2.1-3,2.5C24.3-5.1,23-5.8,21.8-6c-0.1,0-0.2-0.2-0.2-0.3
					c0.3-1.4,1.2-2.4,2.5-3.1c0.6-0.3,2.4-1.4,2.9-0.8C27.2-10,27-9.6,26.7-9.7L26.7-9.7z"/>
			</g>
		</g>
		<g>
			<g>
				<path class="st7" d="M33.6-13.8c-0.9,0.3-1.9,0.6-2.7,1.2c-0.7,0.5-1.9,1.9-1.8,2.8c0,0.8,2.2,0.3,2.7,0.2
					c1-0.3,1.7-0.8,2.5-1.3c0.3-0.2,0.5,0.2,0.3,0.4c-0.9,1-2.3,1.6-3.6,1.6c-0.6,0-2.1,0-2.5-0.6c-0.4-0.8,0.8-2.5,1.3-3.1
					c1-1,2.5-1.5,3.8-1.5C33.7-14.1,33.8-13.8,33.6-13.8L33.6-13.8z"/>
			</g>
		</g>
		<g>
			<g>
				<path class="st7" d="M21.5,5c-0.2,0.8-0.1,1.6,0,2.4c0.1,0.3,0.1,0.9,0.7,0.9c0.2,0,0.7-0.6,0.9-0.8c1.1-1.1,1.4-2.4,1.8-3.8
					c0.1-0.3,0.5-0.2,0.5,0.1c0.1,1.9-1.3,4.6-3.1,5.3c-0.8,0.4-1.1-0.1-1.3-0.9c-0.4-1.1-0.2-2.2,0.2-3.3C21.3,4.7,21.6,4.7,21.5,5
					L21.5,5z"/>
			</g>
		</g>
		<g>
			<g>
				<path class="st7" d="M15.1,6.7c-0.2,1-0.2,2-0.1,3c0.1,0.9,0.1,0.9,0.9,0.5c0.4-0.2,0.8-0.5,1.1-0.8c0.6-0.5,1.1-1.2,1.5-1.9
					c0.4-0.7,0.5-1.5,0.7-2.3c0.1-0.3,0.5-0.3,0.6,0c0.4,2.3-1.7,4.7-3.7,5.7c-0.8,0.4-1.3,0.7-1.7-0.3c-0.6-1.4-0.3-2.8,0.3-4.1
					C14.8,6.2,15.2,6.4,15.1,6.7L15.1,6.7z"/>
			</g>
		</g>
		<g>
			<g>
				<path class="st7" d="M7.4,8.2c-0.5,1.5-1.3,3.2-1.2,4.8C6.1,13,6,12.9,5.8,12.8c2.8-0.7,5.7-2.1,6.9-4.9
					c0.1-0.3,0.7-0.1,0.6,0.2c-1.1,3.3-4.1,4.9-7.4,5.3c-0.2,0-0.3-0.2-0.3-0.3c0-2,0.1-3.6,1.5-5.1C7.2,7.9,7.5,8,7.4,8.2L7.4,8.2z
					"/>
			</g>
		</g>
		<g>
			<g>
				<path class="st7" d="M2.7,5.6C2.1,6.1,1.7,7.2,1.5,7.8C1.2,8.6,1.1,9.4,1,10.3c-0.2-0.2-0.3-0.3-0.5-0.5
					c2.3,0.3,3.9-1.6,5.6-2.9C6.2,6.9,6.3,6.9,6.3,7c0.1,1.1-0.9,1.8-1.7,2.3c-1.2,0.8-2.6,1.6-4.1,1.5c-0.2,0-0.5-0.2-0.5-0.5
					C0.2,8.6,0.8,6,2.2,5C2.6,4.8,3,5.3,2.7,5.6L2.7,5.6z"/>
			</g>
		</g>
		<g>
			<g>
				<path class="st7" d="M-6.3,3.2C-6.6,3.9-7.5,4.4-8.1,5c-0.7,0.8-1.2,1.7-1.7,2.6C-9.8,7.4-9.9,7.2-10,7c1.1,0.2,2.2,0,3.2-0.4
					c0.8-0.3,1.4-1,2.2-1.3c0.1,0,0.2,0.1,0.2,0.2c-0.2,1-1.4,1.7-2.3,2C-7.9,7.9-9,8-10.2,7.8c-0.3,0-0.4-0.4-0.3-0.6
					c0.5-1,1.1-1.9,1.9-2.7C-8,3.9-7.2,3.1-6.3,3.2C-6.3,3.1-6.3,3.1-6.3,3.2L-6.3,3.2z"/>
			</g>
		</g>
		<g>
			<g>
				<path class="st7" d="M-1.7,9.4c-0.7,1-1.1,2.1-1.2,3.4c-0.1-0.2-0.3-0.4-0.4-0.6c2.3,0.2,4-0.6,5.6-2.2c0.2-0.2,0.6,0.1,0.5,0.4
					c-1.2,1.9-3.8,3-6,2.8c-0.3,0-0.5-0.3-0.4-0.6C-3.5,11.2-3,10.1-2.1,9C-1.9,8.8-1.5,9.1-1.7,9.4L-1.7,9.4z"/>
			</g>
		</g>
		<g>
			<g>
				<path class="st7" d="M-13.6,4c-1.6,0.4-3.1,1.2-4.3,2.4c0-0.2-0.1-0.4-0.1-0.6c0.9,0.4,1.9,0.5,2.9,0.4c1-0.1,1.6-0.7,2.5-1.1
					c0.2-0.1,0.5,0.1,0.3,0.3c-1.2,1.9-4.3,1.9-6.1,1c-0.2-0.1-0.2-0.4-0.1-0.6c1.3-1.3,2.9-2.1,4.7-2.4C-13.4,3.5-13.4,4-13.6,4
					L-13.6,4z"/>
			</g>
		</g>
		<g>
			<g>
				<path class="st7" d="M-7.5,9.1c-0.8,1.2-1.7,2.2-2.3,3.6c-0.1-0.2-0.2-0.4-0.4-0.6c2.4,0.1,4-1.1,5.6-2.8
					c0.2-0.2,0.6,0.1,0.4,0.3c-1,2.2-3.8,3.3-6,3.3c-0.3,0-0.5-0.3-0.4-0.5c0.5-1.4,1.5-3,3-3.4C-7.6,8.9-7.5,9-7.5,9.1L-7.5,9.1z"
					/>
			</g>
		</g>
		<g>
			<g>
				<path class="st7" d="M-42.7-44.2c0,0.8,0.6,1.5,1.3,1.9c0.3,0.2,0.7,0.3,1,0.3c0.4,0,0.6-0.3,0.9-0.5c0.1,0,0.2,0,0.2,0.1
					c0.3,1.1-1.5,1.1-2.1,0.9c-1-0.5-2.1-1.5-1.8-2.7C-43-44.5-42.7-44.4-42.7-44.2L-42.7-44.2z"/>
			</g>
		</g>
		<g>
			<g>
				<path class="st7" d="M-36.9-43.2c0.1,0.9,0.6,2.5,1.8,2.1c0.8-0.3,0.8-1.1,1.3-1.6c0.2-0.2,0.5,0,0.5,0.2c0.1,1-1.1,2.2-2.1,2.1
					c-1.4-0.1-1.9-1.6-1.7-2.9C-37.1-43.3-36.9-43.3-36.9-43.2L-36.9-43.2z"/>
			</g>
		</g>
		<g>
			<g>
				<path class="st7" d="M-33.7-41.6c0.1,0.2,0,0.5,0.1,0.8c0.1,0.4,0.4,0.6,0.7,0.7c0.3,0.2,0.1,0.6-0.2,0.5c-0.6-0.1-1-0.7-1-1.3
					c0-0.2,0-0.6,0.2-0.7C-33.8-41.6-33.7-41.6-33.7-41.6L-33.7-41.6z"/>
			</g>
		</g>
		<g>
			<g>
				<path class="st7" d="M13.1-47.3c0.3,0.7,1.4,1.2,2.1,0.9c0.6-0.3,0.7-1.1,0.9-1.7c0.1-0.2,0.4-0.2,0.4,0.1
					c0.1,0.9-0.4,2.2-1.4,2.3c-0.9,0.2-2-0.6-2.3-1.5C12.7-47.4,13.1-47.5,13.1-47.3L13.1-47.3z"/>
			</g>
		</g>
		<g>
			<g>
				<path class="st7" d="M18.5-48.2c0.4,0.6,0.8,1.6,1.6,1.5c1,0,1-1,1.5-1.6c0.1-0.1,0.4-0.1,0.4,0.1c0.2,1.1-0.8,2.3-1.9,2.3
					C18.9-45.9,18-47,18.5-48.2C18.4-48.2,18.4-48.2,18.5-48.2L18.5-48.2z"/>
			</g>
		</g>
		<g>
			<g>
				<path class="st7" d="M23.2-47.7c-0.1,0.9,0.4,1.7,1.1,2.2c0.3,0.2,0,0.7-0.3,0.5c-0.9-0.6-1.3-1.7-1.1-2.8
					C22.9-47.9,23.2-47.9,23.2-47.7L23.2-47.7z"/>
			</g>
		</g>
		<g>
			<g>
				<path class="st7" d="M61.5-41.9c0.5,0.4,0.7,0.9,1.2,1.1c0.6,0.3,1.2,0.1,1.4-0.6c0.1-0.3,0.6-0.3,0.7,0.1
					c0,0.9-0.9,1.4-1.7,1.3c-0.9-0.1-1.8-1-1.9-1.8C61.2-41.9,61.4-42,61.5-41.9L61.5-41.9z"/>
			</g>
		</g>
		<g>
			<g>
				<path class="st7" d="M67.8-41.2c-0.1,0.5-0.1,1.1,0.2,1.6c0.2,0.4,0.6,0.6,0.6,1c0,0.1-0.1,0.2-0.1,0.2c-0.6,0.1-1-0.6-1.1-1.1
					c-0.2-0.6-0.2-1.3,0.1-1.9C67.5-41.6,67.8-41.4,67.8-41.2L67.8-41.2z"/>
			</g>
		</g>
		<g>
			<g>
				<path class="st7" d="M56.1-12.6c-0.8,0.6-2.3,0.5-2.8-0.4c-0.5-1,0-2.2,1-2.7c0.9-0.4,1.9-0.1,2.4,0.8
					C57.1-14.2,57-13.2,56.1-12.6c-0.1,0.1-0.3-0.2-0.2-0.3c0.3-0.5,0.6-0.9,0.4-1.5c-0.2-0.5-0.7-0.9-1.3-0.9
					c-0.8,0.1-1.4,0.9-1.2,1.7c0.2,0.9,1.4,1.1,2.1,0.7C56-13,56.3-12.8,56.1-12.6z"/>
			</g>
		</g>
		<g>
			<g>
				<path class="st7" d="M50.2-11.4c1.6-0.6,3-0.2,4.6-0.2c1.7,0,3.2-0.9,4.9-0.8c0.1,0,0.1,0.1,0,0.2c-1.4,0.3-2.8,1-4.2,1.1
					C53.7-11,52-11.7,50.2-11.4C50.1-11.4,50.1-11.4,50.2-11.4L50.2-11.4z"/>
			</g>
		</g>
		<g>
			<g>
				<path class="st7" d="M10.9-19.4c-0.9-3-2.4-7.4-0.6-10.4c0.1-0.1,0.3-0.1,0.3,0c0.3,1.5,0,3,0,4.5c-0.1,2,0,3.9,0.6,5.8
					C11.2-19.3,11-19.2,10.9-19.4L10.9-19.4z"/>
			</g>
		</g>
		<g>
			<g>
				<path class="st7" d="M38.5-24.7c0-2.4,1.2-6.2,4.1-6.5c0.1,0,0.2,0.2,0.1,0.2c-0.8,0.9-1.7,1.6-2.5,2.6
					c-0.9,1.1-1.3,2.2-1.3,3.7C38.9-24.4,38.5-24.4,38.5-24.7L38.5-24.7z"/>
			</g>
		</g>
		<g>
			<g>
				<path class="st7" d="M-14.1-22.6c3.9,2.8,6.4,8.4,4.1,13.1c0,0.1-0.2,0.1-0.2-0.1c0.3-4.7-0.5-9.2-4.1-12.7
					C-14.5-22.4-14.2-22.7-14.1-22.6L-14.1-22.6z"/>
			</g>
		</g>
		<g>
			<g>
				<path class="st7" d="M-57,35.4c2.5-6.7,6.2-12.9,10.8-18.2c2.8-3.2,7-8,11.3-9.2c0.3-0.1,0.6,0.3,0.3,0.5
					c-3.5,3.1-7.3,5.3-10.5,8.8c-4.9,5.4-8.5,11.6-11.8,18.1C-56.8,35.7-57.1,35.6-57,35.4L-57,35.4z"/>
			</g>
		</g>
		<g>
			<g>
				<path class="st7" d="M-58.8,33.7c-2.3-2.6-6.3-3.7-8.4-0.1c-0.7,1.2-1,2.7-1,4.1c0,3.1,3.5,5.4,5.7,2.2c0.3-0.4,0.9,0,0.7,0.4
					c-1.3,2.2-4,3-6,1.2c-1.8-1.6-1.8-4.3-1.2-6.4c0.7-2.4,2.3-4.4,4.8-4.9c2.5-0.4,5,1,5.6,3.5C-58.7,33.7-58.8,33.8-58.8,33.7
					L-58.8,33.7z"/>
			</g>
		</g>
		<g>
			<g>
				<path class="st7" d="M-56.8,34.3c1.8-1.5,4.4-1.4,6.2,0c2.4,1.9,2.5,5,1.4,7.6c-0.8,2-2.6,4.2-5,4.1c-2.4-0.1-3.9-2.1-3.7-4.4
					c0-0.5,0.8-0.5,0.8,0c0,2.9,3.1,4.3,5.2,2.3c1-1,1.7-2.5,2-3.9c0.4-1.7,0-3.5-1.3-4.7c-1.6-1.6-3.5-1.4-5.5-0.9
					C-56.8,34.5-56.8,34.4-56.8,34.3L-56.8,34.3z"/>
			</g>
		</g>
		<g>
			<g>
				<path class="st7" d="M-60.7,38.4c-0.4,0.8-1,1.5-1.2,2.3c-0.3,1.4,0.6,2.1,1.8,2.4c1.3,0.3,2-0.1,2.2-1.4
					c0.2-0.9,0.6-2.2,0.2-3.1c-0.1-0.2,0.2-0.4,0.3-0.2c0.3,0.6,0.3,1.2,0.2,1.9c0,0.7,0,1.5-0.3,2.2c-0.4,1.2-1.5,1.6-2.7,1.4
					c-1.2-0.2-2.4-0.8-2.6-2.2C-62.9,40.4-62,39-60.7,38.4C-60.7,38.2-60.7,38.3-60.7,38.4L-60.7,38.4z"/>
			</g>
		</g>
		<g>
			<g>
				<path class="st7" d="M-21.5,8.4c0.4-0.1,0.9-0.2,1.4,0c0.2,0.1,0.2,0.4,0,0.5c-0.4,0.2-0.9,0.1-1.4,0
					C-21.7,8.8-21.7,8.5-21.5,8.4L-21.5,8.4z"/>
			</g>
		</g>
		<g>
			<g>
				<path class="st7" d="M-16.2,8.3c0.5,0.1,1.3,0.2,1.6,0.7c0.1,0.1,0,0.3-0.1,0.4c-0.5,0.1-1.2-0.3-1.7-0.5
					C-16.7,8.7-16.5,8.2-16.2,8.3L-16.2,8.3z"/>
			</g>
		</g>
		<g>
			<g>
				<path class="st7" d="M-11.2,8.9c0.6,0.1,1.2,0.3,1.8,0.3c0.5,0,1-0.1,1.4,0.2c0.1,0.1,0.2,0.3,0.1,0.4c-0.4,0.4-1,0.3-1.6,0.2
					c-0.6-0.1-1.3-0.2-1.9-0.5C-11.7,9.4-11.6,8.8-11.2,8.9L-11.2,8.9z"/>
			</g>
		</g>
		<g>
			<g>
				<path class="st7" d="M-4.6,9.3c0.8,0,1.7-0.1,2.5-0.1c0.4,0,0.4,0.6,0,0.7c-0.8,0-1.7,0-2.5-0.1C-5,9.9-5,9.4-4.6,9.3L-4.6,9.3z
					"/>
			</g>
		</g>
		<g>
			<g>
				<path class="st7" d="M-26.7,10.4c0.3-0.3,1-0.6,1.4-0.2c0.1,0.1,0.1,0.2,0,0.3c-0.1,0.2-0.2,0.2-0.4,0.2
					c-0.2,0.1-0.4,0.2-0.7,0.2C-26.7,10.9-26.9,10.6-26.7,10.4L-26.7,10.4z"/>
			</g>
		</g>
		<g>
			<g>
				<path class="st7" d="M4.4,9.1c0.5,0,1,0,1.4-0.2c0.3-0.1,0.7-0.3,1-0.1C6.9,9,6.9,9,6.9,9.1c-0.1,0.4-0.6,0.5-1,0.6
					c-0.5,0.1-1,0.1-1.5,0.1C4,9.7,4,9.1,4.4,9.1L4.4,9.1z"/>
			</g>
		</g>
		<g>
			<g>
				<path class="st7" d="M12.7,8.2c0.5-0.3,1.3-0.5,1.8-0.5c0.4,0,0.4,0.5,0.1,0.7c-0.5,0.2-1.3,0.4-1.9,0.3
					C12.6,8.6,12.6,8.3,12.7,8.2L12.7,8.2z"/>
			</g>
		</g>
		<g>
			<g>
				<path class="st7" d="M19.5,5.6c0.3,0,0.6,0,0.9-0.1c0.3-0.1,0.5-0.2,0.7-0.2c0.2,0,0.4,0.3,0.3,0.4c-0.4,0.6-1.4,0.6-2,0.5
					C19.1,6.2,19.2,5.6,19.5,5.6L19.5,5.6z"/>
			</g>
		</g>
		<g>
			<g>
				<path class="st7" d="M-59.6,36.1c1-9.9,7.7-20.4,13.6-28.1c4.9-6.4,13-16.6,21.7-17.9c0.7-0.1,1.4,1,0.6,1.3
					C-32-4.7-38.4,0.6-44.2,7.8c-7,8.8-11.2,18-15.3,28.3C-59.5,36.2-59.7,36.2-59.6,36.1L-59.6,36.1z"/>
			</g>
		</g>
		<g>
			<g>
				<path class="st7" d="M35.8,0.4c0-0.4,0.3-0.6,0.5-0.9c0.3-0.3,0.6-0.7,0.9-0.9c0.4-0.3,0.8,0.3,0.5,0.7c-0.3,0.3-0.6,0.6-1,0.9
					c-0.3,0.2-0.5,0.5-0.8,0.5C35.9,0.6,35.8,0.5,35.8,0.4L35.8,0.4z"/>
			</g>
		</g>
		<g>
			<g>
				<path class="st7" d="M29.8,2.6c0.3-0.3,0.7-0.4,1.1-0.5c0.4-0.2,0.8-0.4,1.3-0.4c0.3,0,0.4,0.4,0.1,0.5
					c-0.4,0.2-0.9,0.3-1.3,0.4c-0.4,0.1-0.7,0.3-1.1,0.2C29.7,2.8,29.7,2.7,29.8,2.6L29.8,2.6z"/>
			</g>
		</g>
	</g>
</symbol>
<use xlink:href="#Ankylosaurus"  width="153.4" height="108" x="-76.7" y="-54" transform="matrix(10.0668 0 0 -10.0668 719.5897 511.6121)" style="overflow:visible;"/>
</svg>
