<?xml version="1.0" encoding="utf-8"?>
<!-- Generator: Adobe Illustrator 22.1.0, SVG Export Plug-In . SVG Version: 6.00 Build 0)  -->
<svg version="1.1" id="Layer_1" xmlns="http://www.w3.org/2000/svg" xmlns:xlink="http://www.w3.org/1999/xlink" x="0px" y="0px"
	 viewBox="0 0 1478.4 1072" style="enable-background:new 0 0 1478.4 1072;" xml:space="preserve">
<style type="text/css">
	.st0{fill:#C8B2A5;}
	.st1{fill:#9C8379;}
	.st2{fill:#8F8B8A;}
	.st3{fill:#FFFFFF;}
	.st4{fill:#0F0F0E;}
	.st5{fill:#B98FA6;}
	.st6{fill:#95847F;}
	.st7{fill:#D7C39F;}
	.st8{fill:none;}
</style>
<symbol  id="Clouded_Leopard" viewBox="-375 -375 750 750">
	<g>
		<path class="st0" d="M62.5-178.1c-3.7-0.4-7.6-0.9-11-2.4c-1.6-0.7-3.2-1.7-4.9-2.2c-3.9-1.2-8.2,0.1-12.2-0.8
			c-2.3-0.5-4.4-1.6-6.5-2.7c-4.1-2.2-8.2-5.4-12.3-7.6c-5.2-2.7-8.3-9-7.2-14.8c0.3-1.7,1-3.4,1.8-4.9c3.4-6.4,11.1-11.6,17.7-8.7
			c1.6,0.7,3.7,0.5,5.5,0.5c2.5,0,3.9-0.9,6.3-1.8c2.7-0.9,5.6,0.1,8.2,1.1c3.4,1.3,6.7,2.6,10.1,3.9c7.1,2.7,14.6,5.7,19.5,11.5
			l0.6-0.5c3.1,3.5,8.7,4.5,12.8,2.2c1.7-0.9,3.1-2.3,5-3c1.5-0.5,3.1-0.6,4.7-0.6c6.2-0.1,12.4-0.1,18.6-0.2
			c16-0.2,33.6,0.2,45.7,10.7c9.1,7.9,13.3,20.3,14.1,32.3l-1.7-1.5c1.7,1.7,4.2,2.6,6.6,2.6c2.5-0.1,4.8-1.2,7.2-1.9
			c8.2-2.7,17.3-1.5,25.4,1.6c8.1,3.1,15.3,8,22.4,13c20.1,14.1,40,29.1,55.2,48.4s25.2,43.7,22.9,68.2c-0.8,8.3-3.1,16.7-8.2,23.3
			c-4.2,5.4-10,9.3-15.9,12.7C284.6,5,276,8.9,267.2,12c-8.1,2.8-16.6,5.1-23.9,9.7c-11.6,7.4-9.7,19.6-18.6,27.9
			c-8,7.4-18.6,7.7-23.8-3c-3.8-7.9-1.8-17.4,1.9-25.4C210.6,4,226-9.6,243.9-15.4c4.8-1.5,9.8-2.6,14.3-5s8.4-6.5,8.9-11.5
			c0.2-2.1-0.2-4.2-0.7-6.3c-7.8-32.9-39.1-58.7-72.9-60l1.3-4.7c-11.6,11.5-19.4,26.2-27.9,40.2c-15,24.5-32.8,47.1-50.5,69.7
			c-5.9,7.5-11.8,15-18.9,21.5c-5.2,4.8-11,8.9-16.7,13c-6.5,4.7-13,9.3-19.5,14c-9.9,7-19.8,14.1-30.6,19.5
			C13.4,83.4-5.6,87.2-24.5,90.2c-13.4,2.1-27,3.9-40.5,5.3c-10.3,1.1-20.7,1.9-30.7,4.8c-23.7,6.8-42.9,24.5-58.1,43.9l-9.1-6.9
			c10.6,5.3,15.9,18.1,15.4,30c-0.2,4.1-1.3,8.7-5,10.6c-4.4,2.3-9.6-0.7-13.9-3.1c-6.9-3.8-14.5-6.3-22.3-7.2l0.8-2
			c-2.1,3.1-5.6,4.9-9,6.5c-8.5,4-17.3,7.8-26.6,9.4s-19.3,0.8-27.5-3.9l1.8,2c-6,2-12.3,4.2-16.4,9c-3.4,3.9-5.7,9.9-10.9,10.4
			c-3,0.3-5.8-1.6-7.4-4c-1.6-2.5-2.2-5.5-2.3-8.5c-0.6-10.7,3.2-21.6,10.5-29.5l2.3,0.5c-5.9-6.8-15.5-14.5-18.5-23.1
			c-2.2-6.4-1.2-14.9-0.1-21.4l0-1.2c1.5-4.9-2.6-9.6-5.1-14.1c-2.7-5.1-3.3-11.4-1.6-16.9c0.8-2.5,0.8-7.6,2-9.9
			c1.4-2.8,3.5-5.4,4.9-8.2c1.1-2.2,3-1.9,5.1-3.1l-1.1-0.3c0.6-3.3,3.7-5.5,6.5-7.3c2.4-1.6,4.7-3.4,7.3-4.7
			c10.6-5.2,24.5-1.2,25.4-0.7c5.8,2.9,12.1,7.9,14,14c0.2,0.7,0.4,1.4,0.9,2c0.8,1,2.2,1.2,3.4,1.3l0.6-2.9c5.3-5,5-8.9,5.9-16.2
			c3.1-24.4,8.2-49.1,20.1-70.6c10.9-19.6,27.2-36.5,33.8-57.9c2.3-7.5,3.4-15.4,5.7-22.9c1.1-3.5,2.5-7,3.3-10.6
			c1.2-5.4,0.9-11.1,0.5-16.6l-1-6.6l-10.5-5.8c-1.8-0.5-3.7-0.7-5.4-1.4c-1.8-0.8-3.3-2.1-4.8-3.3c-4.4-3.8-9.3-8.6-8.7-14.4
			c0.2-1.7,0.8-3.4,1-5.1c0.5-4.1-1.1-8.5,0.7-12.1c2.3-4.6,8.6-5.1,13.8-4.9l-14.8-12c-1.6-0.8-2.7-2.4-4.3-3.1
			c-1.9-0.8-4.1-0.9-6.1-1.4c-5.8-1.4-6.4-6.1-9.3-11.9c-0.9-1.8-1.8-7.1-0.8-8.9c0.8-1.5,2.1-2.7,3.4-3.9
			c4.9-4.4,10.3-9.1,16.8-9.6c2.4-0.2,4.7,0.2,7.1,0.3c6.8,0.1,13.4-3.1,20.3-2.8c5.6,0.3,10.8,2.9,15.8,5.4
			c6.5,3.3,13.2,6.8,17.5,12.6c3.8,5.1,5.3,11.5,7,17.6c5.6,20.1,13.8,39.4,23.3,57.9c5,9.8,10.5,19.7,12.5,30.5
			c1.7,9.4,0.8,19.3-2.8,28.1l2.8-12.6c0.9-4.3,3.6-8.2,7.3-10.6c0.5,1.7,0.9,3.3,1.4,5c3.2-3.6,6.1-7.5,8.7-11.5
			c1.2,0.7,2.2,1.7,2.9,2.8c-0.8-4.7,3.4-8.9,7.8-10.8c4.4-1.9,18.2-5.5,22.3-8l0.2-2c-9.3-4.8-21.2-11.8-24.1-14
			c-3.6-2.7-7.2-5.8-8.8-10c-1.6-4.2-0.8-9.6,3-12.2c1-0.7,2.1-1.1,3.1-1.8c1.1-0.8,2-1.8,3-2.6c4.8-4,11.7-4.4,17.8-3.3
			s12.1,3.3,18.4,3.6c3,0.2,6.1-0.1,9,0.6c6.2,1.4,11.9,6.9,18.1,5.4l32.7-12.4"/>
	</g>
	<g>
		<path class="st1" d="M-11-151.9c-0.8-3.1-16.6-15.6-27.1-11.6c-5.1,2-20.2,4-22.3,13.2c-4.7-3.6-9.2-7.1-9-13.1
			c0.2-5.2,3.9-9.9,8.4-12.5c9.2-5.2,20.6-3,30.9-0.6c10.7,2.5,21.4,5,32.1,7.5c-1.5,3.8-6.1,5.3-8.7,8.4
			C-10.1-156.7-5.9-155.9-11-151.9S-11-151.9-11-151.9z"/>
	</g>
	<g>
		<path class="st1" d="M-128.5-193.4L-128.5-193.4c-1.1,2.2-2.6,4.1-3.5,6.4c-4.2,10.6,6.7,22.1,4.3,33.3c1.8-3.9,3.6-7.9,5.4-11.8
			c6.1,12.9,9.7,27,10.4,41.2c0.6-1.5,2.4-2.5,4-2.2c-1.3,5.6,5.9,9,9.5,13.5c6.2,7.7,1.8,19.5,5.2,28.8c7.9-9.6,8.8-23.3,5.8-35.4
			c-3-12-9.3-22.9-14.7-34c-6-12.1-11-24.6-15.1-37.4c-0.8-2.4-3.2-16.6-5.8-16.8C-127.3-208.1-127-196.2-128.5-193.4z"/>
	</g>
	<g>
		<path class="st1" d="M-71.1-101.1C-71.1-101.1-71.1-101.1-71.1-101.1c2.4-1.8,5.1-3.7,8.2-3.7c6.7,0.1,11.1,9.2,17.8,8.4
			c0.9-4.7-2.5-9.7-0.6-14c1.8-4.2,7.3-5,11.8-5.1s9.9-0.4,12.3-4.3c1.6-2.6,1.2-5.9,1.4-8.9c0.4-8.4,4.9-16,9.2-23.2
			c-14.7,16.6-42.3,17.3-56.1,34.7c-0.1-1-1-1.8-2-1.7c-3,3.8-5.9,7.6-8.9,11.3c0.5-0.7-5.5-0.2-6.2,0.1c-2.7,1.3-3.6,4.1-4.4,6.7
			c-1.4,4.5-0.8,10-1.1,14.5C-83.6-91.4-77.4-96.4-71.1-101.1z"/>
	</g>
	<g>
		<path class="st1" d="M9.5-132.4c1.5-6.8,7-12.2,13.3-15.2c6.4-3,13.6-4,20.6-4.9c-0.4-2.4-0.9-4.9-1.3-7.3
			c6.9-1.2,13.7-2.4,20.6-3.5c1.1-0.2,2.3-0.4,3.1-1.3c0.7-0.7,0.9-1.8,1.4-2.6c2.5-3.8,8.2-0.3,12.8-0.5c5.5-0.2,10.3-6.3,15.5-4.6
			c2.9,1,4.5,4.1,6,6.8c4.1,7.4,10.1,13.8,17.3,18.3c0.3-3.4,0.6-6.7,0.9-10.1c6.1,9.9,19.4,12,30.9,12.6c4.1,0.2,9.7-0.9,9.7-5
			c0-2.1-1.7-4.2-0.8-6c1-2,4.1-1.7,5.8-0.3c1.7,1.5,2.6,3.6,4.2,5.2c4.9,4.5,12.6,1,18.9-1.1c10.2-3.4,21.5-2.3,31.8,1
			s19.7,8.7,29.1,14c-12.7-24.6-44.2-37.8-70.7-29.6c1.4-8.5-1.1-17.6-6.6-24.2c1.5,5.2-1.6,10.8-5.9,14s-9.8,4.5-15.1,5.6
			c-2.7,0.6-5.5,1.1-8.2,0.4c-7.6-2-9.5-12.3-15.9-16.8c0.5,2.7-2.8,4.8-5.5,4.3c-2.7-0.5-4.9-2.4-7.2-4c-4-2.6-9.1-4-13.7-2.8
			c-2.8,0.8-5.2,2.4-7.7,3.9c-7,4.2-15.4,7.5-23.6,8.6c-7.9,1-14.6-4.6-21.9-4c-1.8,0.1-3.3,1.6-4.6,2.9c-6.6,6.7-14.6,11.7-21.6,18
			S8.2-145.7,8-136.4"/>
	</g>
	<g>
		<path class="st1" d="M-187.1,48.2c8.1,6.8,13.8,16.4,15.8,26.8c-2-1.6-4-3.1-6-4.7c0.2,7.7-1.5,15.5-4.9,22.5
			c-1.6-3.4-3.6-7.2-7.2-8.2c-4.6-1.4-9,2.2-12.8,5c-4.6,3.5-9.8,6.2-15.3,8c-5.7-6.6-9.7-14.6-11.7-23.1c-0.3-1.5-0.6-3-0.1-4.4
			c0.6-1.7,2.2-2.7,3.5-3.9c3.3-3.3,4.5-8.1,5.6-12.7c1.4-5.9,2.7-11.8,4.1-17.7c0,0,0,0,0,0c1.7-7.2,6.9-16.9,12.6-7.7
			c2.4,3.9,2.8,8,6,11.7C-194.6,43-190.6,45.3-187.1,48.2z"/>
	</g>
	<g>
		<path class="st1" d="M-153.6-61.5C-153.6-61.5-153.6-61.5-153.6-61.5c0.7-0.8,1.5-1.8,1.4-2.9c-0.2-1.2-1.4-1.9-2.1-2.9
			c-1.6-2.3,0-5.4,1.3-7.9c8.8-16.5,5.8-36.4,2.6-54.8c-1.9-10.8-3.8-21.6-5.7-32.5c-1.4-7.9-2.9-16.1-7-23s-11.8-12.3-19.8-11.6
			c15.9,12.6,20,34.7,21.7,54.9c0.9,10.8,1.4,21.9-0.8,32.5c-4,19-16.1,34.9-21.6,53.4c-2.4,8.3-6,20.8,5.9,15.5
			C-168.8-44.6-160-54.4-153.6-61.5z"/>
	</g>
	<g>
		<path class="st1" d="M-65.9,85.3L-65.9,85.3c18.9-4.9,38.4-7.5,57-13.3c21.7-6.7,42.1-17.7,59.7-32.1c0.1,2,0.2,3.9,0.3,5.9
			c9.2-1.6,16.6-8.3,23.4-14.7c38-35.5,76.7-72,101.2-117.9c2.2-4.1,4.4-8.4,8-11.3c4.1-3.4,9.6-4.5,15-4.8
			c30.7-1.5,57.8,24.3,66.2,53.9c-5-6.1-7.1-11.4-12.2-17.5c-3.1-3.8-7-8.8-10.9-11.7c-3.2-2.4-14.1-10-17.7-11.8
			c-9.5-4.6-14-3.2-23.5-7.8c-1.9-0.9-4-1.8-6-1.2c-1.5,0.5-2.5,1.8-3.5,3C150.4-44.9,120.9,17.5,66.8,54.1
			c-24.9,16.8-53.7,27.1-83,33.7c-9,2-18.1,3.7-27.2,5.1c-11.8,1.7-23.6,2.9-35.3,5c-10.2,1.8-22.6,8.1-32.6,7.9
			C-99.2,94.8-81.5,89.2-65.9,85.3z"/>
	</g>
	<g>
		<path class="st1" d="M17.3-209.3L17.3-209.3c1.4-2.1,3.6-3.8,6.1-3.9c1.8-0.1,3.5,0.5,5.1,1.1c5,1.9,10.1,3.8,15.1,5.7
			c1.1,0.4,2.3,0.8,3.5,0.7c1-0.1,1.8-0.7,2.7-1.1c5.7-2.7,12.4,0,17.8,3.2s11,7.1,17.3,6.7c2.8-0.1,5.4-1.1,8.1-2
			c21.8-7.2,45.6-7.8,67.8-1.8c-23.6-10.8-51.2-12.7-76.1-5.2c-1.3,0.4-2.6,0.8-3.8,0.4c-1.3-0.4-2.2-1.4-3.1-2.4
			c-7.2-7.5-17.7-10.6-27.8-13.3c-7.7-2-15.6-4-23.5-2.9c-7.9,1.1-15.7,6.2-17.6,13.9c-1,4,1.4,17.8,7.6,15
			C14.7-199.7,14.3-205,17.3-209.3z"/>
	</g>
	<g>
		<path class="st1" d="M-109.8-23L-109.8-23c-0.9,4-0.9,8.2-1,12.3c-0.4,17.4-4.4,34.6-11.5,50.5c12-9.4,13.7-27.8,25.2-37.9
			c3.9-3.5,9.5-7.9,7.1-12.6c-0.6-1.1-1.6-2-2.1-3.2c-2.1-4.4,3.2-8.5,5.6-12.8c1.9-3.4,1.9-7.4,2.7-11.2
			c2.2-10.6,10.2-18.9,17.8-26.6c-7.7,7.7-19.2,7.1-25.8,17.8c-0.3-0.9-0.5-1.7-0.8-2.6C-100.1-47.8-108.2-29.9-109.8-23z"/>
	</g>
	<path class="st2" d="M99.1,5.4c-3,10.2-7.3,16.2-12.8,25c-2.8,4.4-9.9,1.4-7.6-3.6c0.4-0.9,0.8-1.9,1.2-2.8
		c-0.1-0.3-0.2-0.5-0.2-0.9C79.4,18.1,75.8-1.9,66.2,7c-1.6,1.5-3.3,1.8-4.8,1.4c-0.2,0.7-0.4,1.4-0.6,2.2
		c-1.7,6.7-2.6,13.1-2.4,20.1c0.1,3.6-5.3,4.2-5.6,0.5c-1.2-15.7-1.7-51.6,22.4-49c0.3,0,0.6,0.1,0.9,0.2c9-6.7,19.9-13.5,25.9-0.2
		C105.2-10.8,101.1-1.4,99.1,5.4z"/>
	<path class="st2" d="M15.3,62.7c2.3,2.1,2.8,4.6-0.7,7.5c-1.6,1.3-3.3,1.3-5.2,1.6C5,72.6,0.7,73.6-3.6,74.9
		c-5,1.5-13.1,4.9-18.3,3.2c-5.8-1.8-3.2-7.4,0.6-12.1c3.7-6.3,9.2-10,17.3-9.9c1-0.7,2.4-0.6,3.3,0.2c3,0.5,10.3,2.3,14.6,5.2
		C14.6,61.7,15,62.1,15.3,62.7z"/>
	<path class="st2" d="M142.5-42.5c-1.6,6.2-8.3,25-17.6,22.4c-5.1-1.5-6.1-10.5-7.4-14.7c-1.9-5.9-3.3-11.5-0.5-17.3
		c0.7-1.4,3.1-0.9,3,0.6c0.8-0.8,1.8-1.5,2.7-2.2c0.4-0.5,1-0.9,1.7-1c0.1-0.1,0.3-0.2,0.4-0.2c0.4-0.2,0.9-0.4,1.3-0.6
		c0.3-0.7,0.6-1.4,0.9-2.2c1.2-2.5,4.4-1.5,4.8,0.8C139.2-57.1,144.8-51.6,142.5-42.5z"/>
	<path class="st2" d="M169.1-91.7c-0.3,5-3.8,21.4-12.4,17.7c-3.7-1.6-4.4-8.2-5.1-11.6c-1.5-6.3-2-12.7-1.9-19.1
		c0-1.9,2.4-2.5,3.3-1.4c0.6-0.7,1.4-1.3,2.6-1.5c3.4-0.6,8.4,1.9,10.8,4.1C169.7-100.3,169.4-95.9,169.1-91.7z"/>
	<path class="st2" d="M187-129.4c-0.3,5.3-1.9,10.3-4.4,14.9c-0.6,1.2-1.9,1.6-3.1,1.1c-3-1.3-7.7-3.9-9.5-7.1
		c-1.3,0.2-2.7-1.1-2-2.6c2.3-4.7,5.6-8.8,9-12.7c1.9-2.2,4.4-5.4,7.5-3.4C187.6-137.4,187.2-132.5,187-129.4z"/>
	<path class="st2" d="M138.7-123.5c-7.1-4.2-15.8-15.1-11.5-23.7c0.4-0.7,1-1,1.6-0.9c2.2-1.6,5.6-1.6,8.4-1.4
		c9.2,0.4,18.2,5.2,17.9,15.6C155-125.4,146.6-118.8,138.7-123.5z"/>
	<path class="st2" d="M111.9-99.6c-9.8,1.5-21.4-1.5-27.8-9.5c-2.9-3.6-3.2-6.1-3.9-10.5c-1.9-11.4-2.8-14.4-12.6-18.4
		c-4.1-1.7-3.4-3.8-4.8-4.5c-0.2-0.1-0.5-0.1-0.7-0.2c-1.4-0.2-4,0.3-10,2.1c-1.5,0.4-2.7,2.1-4.3,2.1c-3-0.1-4.1-0.1-5.8-2.1
		c-5.7-6.8,6.4-13.6,10.3-16.4c1.5-1.1,3.1,0.7,2.5,2.1c2.3,0.2,4.6,0.8,7,1.8c16.3,6.3,32.2,14.7,47.3,23.5
		c5.2,3,23.3,10.2,22.4,17.9C130.8-104.8,117.4-100.4,111.9-99.6z"/>
	<path class="st2" d="M121.4-70.8c-1.3,0.7-3.1-0.4-2.4-2c0.2-0.4,0.4-0.8,0.7-1.2c-0.9-0.4-1.5-1.3-1.2-2.6
		c0.6-2.8-2.7-3.9-4.8-3.9c-1.8,0-3.7,0.8-5.4,1.3c-2.5,0.7-4.9,1.5-7.4,2.2c-2.1,0.7-4.5-1.5-3.3-3.7c2.1-4,6.3-3.3,10-4.7
		c4.6-1.7,8.7-4.7,13.8-3.4C130.6-86.3,128.1-74.5,121.4-70.8z"/>
	<path class="st2" d="M43.2-99c3.5,1.5,2.7,3.2,3.1,3.4c2,0.7,3.7,1.4,5.4,2.7c0.9,0.6,2.8,4.1,4.2,6.7c1.6-1.2,4.4-0.1,4.2,2.5
		c-0.5,7.1-1.3,13.2,0.2,20.4c0.7,3.2,3.2,8.3,3.2,11.6c0,4.4-2,8.4-5.6,11.7c-0.3,0.3-0.7,0.5-1.1,0.7c-0.2,0.2-0.5,0.3-0.7,0.5
		c-6.8,4.1-17.5,0.3-21.5-5.5c-1.8-2.6,1.5-5,3.8-3.5c3.7,4.3,8.7,3.3,12.2,2.2s5.7-4,4-7.8c0.3-4.9-2.6-8.8-4.1-13.1
		c-0.9-2.7-1-4.6-1.6-7.3L49-77c-2.1-8.8-6.9-11.3-14.5-7.3c-0.8,2.3-4.3,1.4-4.5-0.8c-0.4-4.6-9.3-13.9-7.8-18.8
		c1.1-3.7,4.7-3.3,7.6-5.1c0.4-0.3,0.9-0.3,1.3-0.3c2.3-1.7,5-0.6,6.5,1.4c0,0,0,0,0,0"/>
	<path class="st2" d="M29.7,14c0,0.7,0,1.4,0,2.1c0,0.2,0.1,0.3,0.1,0.5c0.2,0.7,0,1.2-0.3,1.6c-0.5,4.5-1.7,8.9-3.9,13.3
		c-0.5,1-1.4,1.4-2.4,1.4c-0.5,1.9-1.3,3.8-2.4,5.7c-1.2,2.1-4.1,0.6-3.3-1.6c4.4-13.4-4.5-27.3-7-40.6C9.5-9,9.7-13,9.8-18.1
		c0-1.1,1.3-2,1.3-3.1C11-26.9,6.8-32.1,3-35.6c-11.2-10.5-12-26.9-2.5-38.8c1.7-2.2,5-0.3,4.7,2.2C4-62.9,5.4-54.6,8.7-46.6
		c1.1-1,3.1-1.1,4.2,0.3c6.2,8,12,15.8,14.2,25.9c2.3,10.5,1,20.9,5,31.1C32.9,12.5,31.3,13.9,29.7,14z"/>
	<path class="st2" d="M-43.5,46.3c1,4.2,3,6.6,0.2,10.1c-3.8,4.9-15.8,12-22.3,11.9c-1.2,0-2.6-0.8-2.6-2.2
		c-0.3-8.5-2.9-14.9-7.3-22.1c-1.5-2.5-2.6-4.4-3.4-7.2c-2.2-8.5-1.5-18.2,2.4-26c0.3-0.7,0.9-1,1.4-1.1c2.7-3.3,8.5-3.4,10.2-6.9
		c1.1-2.3,5-1.8,5.1,0.9c0.3,8.7,11.2,10.8,15.1,18C-40.1,30.2-45.4,38-43.5,46.3z"/>
	<path class="st2" d="M-32.7,53c-1.7,1.3-4.1-1.3-2.6-2.8c6.8-6.8,3.3-14.8,2.5-22.5c-0.6-5.2,0.9-9.6,1.3-14.8
		c0.8-11-2.1-22.9-2.4-34.1c-0.1-2.7,4-3.1,4.2-0.4c1,14.8,4.9,27.6,3.1,42.3C-28.1,32.7-21.5,44.1-32.7,53z"/>
	<path class="st2" d="M-91.7,53.2c-1.3,6.9-2.8,12.9-3,20.1c-0.1,2.3-3.2,2.7-3.6,0.3c-1.1-6.6-0.9-12.6-0.5-18.6
		c-1.1-0.2-2.2-0.9-2.5-2.3c-2.3-10.4-4.7-20.9-5.3-31.6c-0.8-12.2,0.2-22.6-7.4-33.1c-1.9-2.7,1.6-5.2,4-3.6
		C-96.4-6.4-93.9,5.8-93,21.5C-92.5,31.3-90,43.6-91.7,53.2z"/>
	<path class="st2" d="M-99.3-43.9c-0.1,0.5-0.1,1-0.1,1.5c-0.1,0.7-0.6,1.2-1.1,1.6c0.6,3.1-0.9,6.1-0.3,9.4
		c0.4,1.8-2.3,2.5-3.2,1.2c-1.9-2.8-1.4-4.5-1.9-7.5c-0.8-4.3-4.8-7.2-7.3-10.7c-3.5-5-7.9-12.9-3.7-18.7
		c8.5-11.6,14.7,5.4,17.4,15.3c0.2,0.3,0.3,0.7,0.3,1.2c0,0,0,0.1,0,0.1c0.5,1.8,0.8,3.3,1,4.2C-97.9-45.5-98.5-44.5-99.3-43.9z"/>
	<path class="st2" d="M-124.7,6.6c0.3,1.2,0.3,2.5,0.1,4.1c-0.1,1.2-0.9,1.8-1.7,2c0.9,7.9,0.4,15.9,0.1,23.9
		c0.3,4.7,1.4,8.9,1.3,13.1c-0.1,3.7,1,7.5-0.6,10c-0.8,1.5-4.7,2.3-6.3,3.3c-2.8,1.6-5.4-2.1-2.8-4.1c5.7-4.5,3.2-15,2.6-21.6
		c-0.4-3.8-4.1-20-7.2-24.5c-3.5-5.1-5-4.3-11.2-6.3c-1.5-0.5-2.5-1.5-2.9-3.2c-3.3-14.6,25.6-2.6,28.9-0.9
		C-122.4,3.4-123,5.8-124.7,6.6z"/>
	<path class="st2" d="M-41.9,92.6c-6.2,1.1-12.6,3.2-18.8,3c-4.5-0.1-8.7-0.6-12.9-1c-0.5,0.4-1.2,0.7-2.1,0.7
		c-8.2-0.6-14.4,2.2-21.6,5.5c-0.9,0.4-2.1,0.1-2.8-0.5c-0.1-0.1-0.2-0.1-0.2-0.2c-1.1,1.2-3.4,1.1-3.6-1
		c-1.2-10.5,10.6-17.7,20.3-15.5c1,0.2,1.1,1.3,1.7,1.6c0.4,1.9,1.8,2.5,4,1.7c3.8-0.6,7.5-1.4,11.2-2.3c9-1.3,16.2,0,25,2.8
		C-38.9,88.2-38.8,92-41.9,92.6z"/>
	<path class="st2" d="M263.6-10.5c-11.4,6.1-24.1,6.6-34.7,15c-6.8,5.4-11.9,12.3-15.3,20c-1,6.5-1.4,13-1.1,19.7
		c0.1,2.8-3.2,3.4-4.5,1.6c-0.7,0.7-1.9,0.9-2.8,0.5c-3.8-1.8-5.1-3.6-5.6-7.7c0-0.1,0-0.3,0-0.4c-2.3-7.9,0.5-15.1,6.8-20.4
		c-0.1-0.5-0.1-1,0.1-1.4c5.3-12.6,15.5-20.7,27.8-26.3c7.3-3.4,15.6-4.6,22.8-8.1c17.3-8.3,9.2-27.6,2.2-40.3
		c-1.4-2.5,1.8-4.8,3.6-2.5C275.2-46.1,285.3-22.2,263.6-10.5z"/>
	<path class="st2" d="M314.2-37.5c-0.3,2.9-1.2,7.2-2.9,10.8c-0.8,3.2-2.1,6.4-3.9,9.4c-0.5,0.9-1.1,1.9-1.7,2.8
		c-0.5,0.7-1,0.9-1.6,1c-3,5.2-7,9.9-12.3,13.9c-2.5,1.9-5.2-2.1-2.8-4c6.5-5.1,9.7-11.1,10.7-19.3c0-0.3,0.1-0.5,0.2-0.7
		c-0.4-0.6-0.6-1.4-0.2-2.2c6.9-15.3-4-33.7-9.5-48c-3.7-9.7-7.5-20-13.9-28c-6.2-7.8-15.6-7.6-22.2-15.1
		c-8.6-9.9-15.2-22.2-22.3-33.2c-1.6-2.5,1.4-5.1,3.8-3.4c27.8,19.5,55.6,40,69.5,72.1C310.8-68.2,315.7-52,314.2-37.5z
		 M268.8-120.9c0.5,0.1,1,0.2,1.5,0.3c-4-3.7-8.2-7.2-12.4-10.5C261.2-127.5,264.9-124.1,268.8-120.9z M302-59.1
		c2.6,6.8,4.7,13.7,4.9,20.5c0.2-0.1,0.4-0.1,0.6-0.1c-0.4-6.7-2.4-13.4-4.8-19.9c-0.2-0.2-0.4-0.4-0.5-0.7
		c-0.6-1.3-1.1-2.6-1.7-3.8C301-61.8,301.5-60.4,302-59.1z"/>
	<path class="st2" d="M-97.4-127.6c-4.2,4.7-8.9,0.4-13.8,0.4c-8.6,0.1-17.7,11.8-21,18.8c-1.1,2.4-4.3,0.7-3.6-1.7
		c0.4-1.2,0.9-2.3,1.4-3.4c1.4-8.8,9.8-15,13.4-22.8c0-0.1,0.1-0.2,0.1-0.2c-1.3-1.7-1.3-3.9,1.1-6.6c5.7-6.6,12.2-1.1,14.9,5
		C-99-140.4-92.1-133.4-97.4-127.6z"/>
	<path class="st2" d="M-48.1-35.7c-0.6,4.1-7,8.7-9.6,11.5c-2.8,3-4.2,5.3-8.4,5.3c-1.1,0-2.4-0.7-2.4-2c-0.1-5.3,0.3-2.9,2.2-7.9
		c2.2-5.8,0.7-10.8,1.8-16.5c1.1-5.8,4.9-11.9,7-17.9c-0.2-4.2-1.7-8.1-1.6-12.4c0.1-3.2,5.1-3.7,5.1-0.5
		c-0.1,5.7,2.3,11.2,1.8,16.8c-0.5,6.3-3.5,10.4-4.1,15.9C-52.1-42.1-47.4-40.2-48.1-35.7z"/>
	<path class="st2" d="M-13-96c-3.2,1.1-5,4.1-6.1,7.8c-0.2,2.1-0.5,4.2-0.6,6.2c-0.4,5.3-0.2,10.6,0,15.8c0.1,1.7-2.5,2.5-3,0.7
		c-0.1-0.3-0.2-0.7-0.3-1c-1.3,0.4-2.9-0.6-2.8-2.3c0.3-5.3,0.3-13.1,2-19.6c0.2-3.3,0.7-6.5,1.8-9.3c1.9-4.7,8-6.6,10.4-1.2
		C-11.1-97.9-11.9-96.4-13-96z"/>
	<g>
		<path class="st3" d="M-179.9,149.8L-179.9,149.8c0-0.8,0-1.6,0-2.4c0-1.9,0.1-3.9,1.2-5.5c0.5-0.7,1.2-1.2,1.9-1.6
			c3.6-2,7.9-1.8,12-1.5c2,0.2,4,0.3,5.8,1.2c1.8,0.8,3.4,2.4,3.7,4.3c-1.6,0.7-3.1,1.4-4.7,2.1c1.5,1,2.9,2.2,4.1,3.5
			c0.9,0.9,1.7,2.1,1.5,3.4c-0.2,1.3-1.9,2.3-2.8,1.4c1.8,2,3.6,4,4.7,6.3c1.2,2.4,1.6,5.2,0.6,7.7c-0.3,0.8-0.8,1.5-0.9,2.3
			c-0.2,0.9,0.1,1.8,0.1,2.8c0,2.6-2.9,5.2-5.2,3.9c-0.9-0.5-1.5-1.5-2.1-2.3c-3.3-4.7-8.7-7.1-13.1-10.5
			C-178.7,160.6-179.9,156.9-179.9,149.8z"/>
	</g>
	<g>
		<path class="st3" d="M-272.4,192.9c-1.5,1.4-3.1,2.9-5,3.7c-0.9,0.4-1.9,0.7-2.9,0.4c-2-0.6-2.6-3.2-2-5.2c0.5-2,1.8-3.7,2.3-5.7
			c0.1-0.3,0.1-0.7-0.1-1c-0.2-0.2-0.5-0.3-0.8-0.4c-1.4-0.3-2.8-0.7-4.1-1c-0.4-2.7,2.9-4.8,2.6-7.5c-0.1-0.7-0.4-1.4-0.4-2.2
			c0.2-3.1,5.9-3.3,6-6.4c0-0.6-0.2-1.2-0.2-1.7c0.1-2.3,3.3-3.3,3.6-5.6c0.3-1.9-1.6-3.7-1-5.5c2.3,5,6.3,9.3,11.1,12.1
			c1.2,0.7,2.6,1.3,3.6,2.3c0,0,0,0,0,0C-252.8,175.8-268.2,189.1-272.4,192.9z"/>
	</g>
	<g>
		<path class="st3" d="M-256.2,111.4c1.9,4.8,6.8,8.2,11.9,8.4c1.8,0.1,3.8-0.1,5.1,1.1c1,1,1.2,2.4,1.7,3.7c1.9,4.7,8,6.3,13.1,5.9
			c4.1-0.3,8.5-1.6,10.6-5.1c2.4-4.1,0.7-9.3,1.4-14c0.2-1.6,0.8-3.2,1.1-4.8c0.7-3.9-0.1-8.1-2.1-11.5c-0.1,0.9-0.7,1.8-1.5,2.3
			c-1.7-3.5-4.6-6.3-8.1-7.9c-0.1,1.3-0.3,2.6-0.4,3.9c-1.5-0.7-3.1-1.5-4.8-1.3c-1.7,0.2-3.3,1.9-2.7,3.5c-3.6-2.5-9-2.2-12.3,0.8
			c0,0,0,0,0,0c-1.7,1.5-2.9,3.7-5,4.6c-1.7,0.7-3.4,0-5,0.6C-257.1,103.1-257.5,108.1-256.2,111.4z"/>
	</g>
	<g>
		<path class="st3" d="M-278.2,142L-278.2,142c1.8-1.4,3.2-3.6,3-5.9c-0.1-1.4-0.8-2.7-1.1-4.1c-0.5-3,1.4-6.1,0.7-9.1
			c-0.6-2.6-2.9-4.6-3.4-7.3c-0.1-0.9-0.1-1.8-0.3-2.7c-0.5-1.7-2.2-2.7-3.9-3.4c-1.6-0.7-3.3-1.2-5-1c-1.7,0.2-3.4,1.3-3.8,2.9
			c-0.4,1.6,0.4,3.3,0.4,4.9c0,2.1-1.2,3.9-1.8,5.8c-1.9,5.7,0.8,11.9,3.9,17C-286.2,144.2-283.3,145.9-278.2,142z"/>
	</g>
	<g>
		<path class="st3" d="M-296.9,86.2c-1.7-0.5-1.7-2.8-1.5-4.5c0.6-3.8,1.2-7.7,2.5-11.3c2.4-6.7,7.1-12.5,12.7-17
			c5-3.9,10.9-6.9,17.2-7.5c2.5-0.2,5-0.1,7.5,0.1c3.4,0.2,6.8,0.4,10.2,0.7c1.4,0.1,2.9,0.2,4.1,0.9c1.2,0.7,2,1.9,2.8,3
			c1.3,1.8,2.6,3.7,3.9,5.5c1.3,1.8,2.6,3.7,3.2,5.9c0.6,2.2,0.2,4.7-1.5,6.2c-0.7,0.6-1.6,1-2.1,1.8c-0.6,0.8-0.7,1.8-0.9,2.7
			c-0.5,2.1-1.4,4-2.8,5.6c-0.4,0.5-0.8,0.9-1.4,1.1c-1.3,0.4-2.6-0.6-3.7-1.4c-3.5-2.6-8.2-3.4-12.3-2.1c-0.1,1.9-0.1,3.7-0.2,5.6
			c-5.7-1.6-11.6-2.6-17.5-3.1c0,0,0,0,0,0c-4.5-0.4-8.9-0.1-12.8,2.4C-291.3,82-294.5,86.9-296.9,86.2z"/>
	</g>
	<g>
		<path class="st3" d="M-231.1,66c11.8-6,21.8-15.6,28.2-27.1c-2.1,1.7-4.7,2.6-7.4,2.6c5.1-6.8,9.2-14.4,12.2-22.3
			c-1.8,1.3-4,2.1-6.2,2.4c-0.3-20.5,8.8-41,24.2-54.6c-1.2-0.5-2.5-0.9-3.7-1.4c2.1,0.8,16-34.1,17.2-37.5c2.9-8,5.2-16.3,5.9-24.8
			c0.7-7.6-0.5-15.5-0.3-23.2c-3.7,12.2-7.4,24.4-11.1,36.6c-2.4,8.1-4.9,16.2-9,23.5c-4.8,8.6-11.7,15.8-17.3,23.9
			c-10.1,14.6-15.8,31.7-20,48.9s-7.1,34.7-12.2,51.6c-0.1,0.4-0.3,1-0.8,1.1C-231.8,65.8-231.5,66.3-231.1,66z"/>
	</g>
	<g>
		<g>
			<path class="st4" d="M-168.4,124.1c0.3-4.5,0.7-9.1,1-13.6c0.1-1.6,0.2-3.1,0.8-4.6c0.9-2.5,2.8-4.4,4.1-6.7
				c3.4-6.1,1.7-13.7,3.9-20.3c2.4-7.3,9.2-12.3,15.7-16.4c-4.2,8.5,0.4,19.4-3.9,27.9c-0.9,1.9-2.3,3.5-3.1,5.4
				c-1.6,3.8-1.1,8.3-3.1,11.9c-1,1.8-2.4,3.2-3.9,4.7c-4,3.9-8.1,7.9-12.1,11.8"/>
		</g>
		<g>
			<path class="st4" d="M-154.4,143.6c-1.9-2.5-3.6-2.4-5.5-4.9c-0.6-0.7-3.4-2.3-3.4-3.2c-0.2-1.8,3.5-5,5-6
				c5.7-3.7,11.1-8.3,14.7-14.1c6.8-10.9,6.9-25,14.1-35.6c1.6-2.4,3.9-4.6,6.7-4.7c1.4,0,2.8,0.5,4.1,0.2c2.3-0.4,3.9-2.7,4.1-5
				s-0.5-4.6-1.2-6.8c5.3,4.3,4.1,13.5,9.5,17.7c0.6,0.5,1.3,0.9,1.7,1.6c0.8,1.5-0.5,3.3-1.8,4.5c-4.9,4.8-9.8,9.7-14.7,14.5
				c3.8,1.7,12.8,1.9,16.7,0.5c-18.8,11.7-36.4,25.6-50.3,40.6"/>
		</g>
		<g>
			<path class="st4" d="M-182,87.1c0.1-4-0.1-8.2-2-11.8c-2.6-4.9-8-7.7-13.1-10.1c3.6-2.1,5.7-6.5,5.2-10.6
				c-0.2-1.3-0.6-2.6-0.1-3.8c0.8-1.8,3.1-2.2,5-2.9c4-1.4,6.6-5.3,7.8-9.3c1.1-4,0.9-8.3,0.7-12.5c1.3-0.9,2.9,0.8,3.5,2.3
				c2.4,6,4.1,12.2,5,18.6c0.2,1.6,0.4,3.3,0.1,4.9c-0.4,2-1.6,3.8-2.7,5.5c-5.5,8.2-8,17.1-7.3,26.9L-182,87.1z"/>
		</g>
		<g>
			<path class="st4" d="M-213.8,35.6c-1.4-2.2-2.9-4.5-2.7-7.1s3.2-4.9,5.4-3.6c1.7,3.6-0.1,8.5-3.8,10.2"/>
		</g>
		<g>
			<path class="st4" d="M-204.1,29.7c-1.6-2.9-1.5-6.6,0.2-9.4c1.2-1.9,3-3.3,4.8-4.6c4.9-3.7,9.8-7.4,14.7-11
				c1.9-1.4,4.1-2.9,6.3-2.2c1.2,0.4,2.1,1.3,2.8,2.2c2.2,2.8,3.4,6.4,3.4,9.9c0,2.6-0.7,5.5-2.9,6.9c-1.8,1.2-4.1,1.1-6.3,1
				c-3.2-0.2-6.3-0.4-9.5-0.6c-1.3-0.1-2.6-0.2-3.8,0.2c-3.9,1.3-5.4,6.8-9.4,7.6"/>
		</g>
		<g>
			<path class="st4" d="M-174.1-41.2c-1-3.2-1.8-6.5-2.5-9.8c-0.3-1.3-0.5-2.6-0.3-3.9c0.3-1.4,1.1-2.7,2-3.9
				c3.6-5.2,7.2-10.4,10.8-15.5c0.9-1.4,2.8-2.9,4-1.7c0.4,0.4,0.5,1,0.6,1.5c1,5.6,2.1,11.1,3.1,16.7c0.2,1.1,0.4,2.2,0,3.2
				c-0.4,1.1-1.4,1.9-2.3,2.7c-4.2,3.2-8.4,6.5-12.6,9.7c-0.4,0.3-0.9,0.7-1.5,0.6s-0.9-0.9-0.5-1.2"/>
		</g>
		<g>
			<path class="st4" d="M-123-126.8c-5.8,4.4-5.1,13.2-7.8,20c-0.7,1.7-1.6,3.3-3.1,4.4c-1.5,1-3.6,1.4-5.1,0.4
				c-1.7-1.1-2.2-3.2-2.6-5.1c-0.5-2.7-1-5.3-1.6-8c-0.4-1.9-0.8-3.9-0.7-5.8c0.3-6.1,5.2-11.2,10.7-14c1.7-0.9,3.5-1.7,4.6-3.2
				c1.6-2.3,1.2-5.7,3.2-7.7c0.8-0.8,1.9-1.2,3-1.5c3.8-0.9,8-0.2,11.1,2.2c3.1,2.3,5.1,6.2,4.8,10.1c-0.1,2-0.9,4.2-2.7,5.2
				c-1.1,0.7-2.5,0.8-3.8,0.9c-3.9,0.4-7.8,1.3-11.5,2.7"/>
		</g>
		<g>
			<path class="st4" d="M-104.2-90.6c-3.7,0.8-7.5-1.7-9.1-5.1c-1.7-3.4-1.6-7.3-0.9-11c0.4-2,0.9-4.1,2.2-5.7s3.4-2.7,5.4-2.3
				c1.5,0.3,2.8,1.5,3.7,2.7c4.7,6.1,4,15.6-1.5,21"/>
		</g>
		<g>
			<path class="st4" d="M-95.5-110.2c-3.1-0.2-6-2.9-5.9-6c0.1-3.1,3.5-5.8,6.4-4.7c2,0.7,3.3,3.1,3,5.2c-0.3,2.1-2,3.9-4.1,4.5"/>
		</g>
		<g>
			<path class="st4" d="M-148.8-152.3c-3.2-2.1-5.7-5.2-7.1-8.7c-1.4-3.4-1.4-8,1.7-10.1c1.6-1.1,3.7-1.2,5.7-1.2
				c1.9,0,3.8,0,5.4,0.9c2.8,1.7,3.3,5.7,2.3,8.9c-1.3,4.3-4.7,8-8.9,9.6"/>
		</g>
		<g>
			<path class="st4" d="M-106.2-152.2c-3.5,1-7.4,1.9-10.8,0.4c-2-0.9-3.6-2.6-5.1-4.3c-2-2.2-4.2-5-3.4-8c0.7-2.6,3.7-4.2,6.4-3.9
				s5.1,1.9,7.2,3.7c3.1,2.9,5.8,7.2,4.3,11.2"/>
		</g>
		<g>
			<path class="st4" d="M-141.7-179.3c-1.7-1-3.4-2.1-4.5-3.8c-1-1.7-1-4.2,0.5-5.4c0.6-0.5,1.4-0.7,2.1-0.9
				c1.2-0.4,2.4-0.7,3.6-1.1c1.8-0.6,3.7-1.1,5.6-1c1.9,0.2,3.9,1.3,4.5,3.1c0.7,2-0.6,4.3-2.3,5.5s-3.9,1.6-6,1.9
				c-1.8,0.3-3.7,0.6-5.5,0.9"/>
		</g>
		<g>
			<path class="st4" d="M-154.8-81.4c-2.6-0.2-4.8-2.5-5.1-5.1c-0.2-1.8,0.6-3.5,1.3-5.2c1.3-2.8,2.9-5.4,4.6-7.9
				c0.6-0.8,1.3-1.7,2.2-2.1c0.8-0.3,1.6-0.2,2.4-0.1c3.7,0.4,8.1,1.8,8.7,5.4c0.3,2.1-0.8,4.1-1.9,6c-1.4,2.3-2.9,4.6-4.9,6.4
				C-149.4-82.2-152.2-81-154.8-81.4"/>
		</g>
		<g>
			<path class="st4" d="M51.2,32.2c0.4-9.1,1-18.2,1.9-27.3c0.5-5.1,1.1-10.2,2.9-14.9c4-10.6,13.5-18,22.5-24.9
				c1.1-0.9,2.3-1.7,3.7-1.9c3.1-0.3,6,3.1,8.9,2.1c1.2-0.4,2-1.4,2.9-2.2c3.5-2.8,8.9-2,12.5,0.8c3.6,2.8,5.6,7,7.2,11.2
				c1.7,4.4,3,9,2.2,13.7c-0.8,5.2-4,9.6-7.2,13.7c-3.8,5.1-7.7,10.3-11.5,15.4c-5.5,7.3-11.8,15.1-20.8,16.4
				c6.8-6.5,12.6-13.9,17.2-22C97.1,6.3,99.9-0.2,99.6-7c-0.2-6.8-4.3-13.8-10.8-15.7c-1.3-0.4-2.8-0.5-4.1,0
				c-1.5,0.6-2.6,1.9-3.8,3c-3.8,3.3-9.2,3.9-13.5,6.4C57.7-7.8,55.6,4.9,54.5,16c-0.6,6.3-1.2,12.9,0.9,18.9
				c-0.9,0.3-1.9,0.6-2.8,0.9c-0.4-1-0.8-2-1.3-2.9"/>
		</g>
		<g>
			<path class="st4" d="M-24.6,72.8c5.6-3.4,6.6-12.5,12.9-14.5c4.6-1.5,9.3,1.9,14.1,2.7c2,0.3,4,0.2,5.9,0.8s3.7,2.2,3.6,4.2
				c-0.1,1.7-1.4,3.8-0.1,4.9c0.8,0.6,1.9,0.3,2.8,0c2.5-0.9,4.9-1.7,7.4-2.6c13.4-4.7,26.9-9.5,40.3-14.2c2.2-0.8,4.5-1.6,6.1-3.4
				c1.6-1.8,2.1-4.7,0.5-6.4c-1.2-1.3-3.2-1.5-5-1.5c-17.7,0.2-33.9,13.8-51.4,11.3c-7.2-1-14.2-4.8-21.3-3.2
				c-8.9,1.9-13.8,11.2-17.6,19.4c-0.3,0.6-0.5,1.2-0.2,1.8c0.3,0.6,1.4,0.5,1.4-0.1"/>
		</g>
		<g>
			<path class="st4" d="M-90.5,86.1c2.2-1,5.1,0.6,5.4,3c0.1,0.5,0.1,1.2,0.6,1.4c0.2,0.1,0.5,0.1,0.7,0c4.4-0.6,8.8-1.3,13.2-1.9
				c0.8-0.1,1.5-0.2,2.2-0.6c1.2-0.7,1.8-2.4,3.2-2.8c1.4-0.5,2.8,0.6,4.2,1.2c1.7,0.7,3.6,0.8,5.5,0.8c3.6,0,7.2,0,10.8,0
				c1.1,0,2.3,0,3.3-0.4c2.2-0.8,3.7-3,4.2-5.3c0.5-2.3,0.2-4.7-0.2-7c-0.1-0.9-0.3-1.9-0.9-2.6c-0.9-1-2.5-1.1-3.9-0.8
				c-4.7,0.9-8.5,4.1-12.7,6.3c-5,2.7-10.9,4.1-16.4,2.8c-2.4-0.6-4.8-1.6-7.3-1.6c-4.7,0-8.5,3.6-11.5,7.3"/>
		</g>
		<g>
			<path class="st4" d="M-114.9-16.9c0.7-2.4,4.2-2.5,6.4-1.4c2.2,1.2,3.9,3.2,6.3,3.9c3.2,1,6.4-0.7,9.6-1.4s7.5,0.2,8.1,3.5
				c0.3,1.6-0.5,3.2-1.2,4.7c-3.8,8.7-3,18.5-2.1,27.9c0.8,8.3,1.6,16.5,2.4,24.8c0.7,7,1.3,14.1-0.4,20.9c-1.5,6-5.7,13.4-12.1,15
				c-1.1-3.7-1.8-11.8,0.5-15.3c1.1-1.7,2.9-2.9,4.1-4.6c1.8-2.6,1.8-6,1.6-9.2c-0.8-16.4-3.2-32.6-5.7-48.8
				c-0.2-1.4-0.4-2.8-1.4-3.9c-1.1-1.2-2.8-1.6-4.1-2.6c-1-0.9-1.6-2.1-2.4-3.2c-2.1-3.2-5.7-5.4-9.5-6"/>
		</g>
		<g>
			<path class="st4" d="M16.4,41.7c9.7-6.2,15.3-18.2,13.7-29.6C28.8,2.7,23.2-5.7,21.8-15c-0.9-5.5-0.3-11.3-2.7-16.3
				c-3.3-7-11.7-11.2-13-18.9c-0.5-3,0.2-6-0.2-9c-0.4-3-2.6-6.2-5.6-5.9c1.2-10.4-1.2-21.1-6.7-30c3,4.8,6.4,9.9,11.7,11.8
				c3.1,1.1,6.9,1.4,8.5,4.2c1,1.9,0.5,4.3,0.1,6.5c-1.7,9.7,0.9,20,6.9,27.8c2.7,3.6,6.3,6.8,7.3,11.2c0.5,1.9,0.4,4,1,5.8
				c0.7,1.9,2,3.4,3.2,5c10,12.8,14,30.1,10.5,46c-1.4,6.3-4,12.5-8.9,16.8S21.7,45.8,16,42.8"/>
		</g>
		<g>
			<path class="st4" d="M-76.8,56.3c-1.8,7,2.5,16.3,9.8,16.1c3.5-0.1,6.5-2.2,9.6-3.8c11.9-6.4,27.4-7.2,35.9-17.8
				c6.1-7.6,6.6-18.1,5.6-27.8c-1.5-13.8-5.7-27.1-9.9-40.3c-1.4-4.4-3.5-9.5-7.9-10.7c3.6,19,6,38.1,7.3,57.4
				c0.6,8.8-0.2,19.7-8.3,23.5c-3.7,1.7-8,1.3-11.9,2.5c-4.1,1.2-7.4,4.1-10.9,6.6c-3.5,2.5-7.6,4.6-11.8,4.1c-4.2-0.5-8.1-5-6.6-9"
				/>
		</g>
		<g>
			<path class="st4" d="M-78.6,18.6c-0.8-4.9-1.1-9.8-1-14.7c0-1.3,0.2-2.6,1-3.5c1.3-1.4,3.7-1,5.4-0.1c1.7,0.9,3.3,2.2,5.3,2.4
				c2.4,0.2,4.6-1.5,5.7-3.6s1.4-4.6,1.6-7c0.1-0.9,0.2-1.8,0.8-2.4c1.1-1,3-0.1,3.5,1.3c0.5,1.4,0.1,2.9-0.3,4.3
				c-0.9,3.2-1.9,6.6-4.4,8.9c-1.3,1.2-2.8,2-4.2,3.1c-2.2,1.8-3.7,4.4-5.8,6.4c-2.1,2-5.2,3.4-7.8,2.2"/>
		</g>
		<g>
			<path class="st4" d="M-128.9,5c-1,4-2.1,8-3.1,12c-0.4,1.3-0.7,2.7-0.5,4.1c0.3,2.3,2,4.1,3.1,6.1c1.6,3,1.9,6.5,2.2,9.9
				c0.5,5.7,1,11.4,1.5,17.2c0.2,1.9,0.1,4.2-1.5,5.2c-1.5,0.9-3.4,0.2-5,0.6c-2.5,0.6-3.5,4.4-1.6,6.2c4.6,0.2,9.2-3.2,10.3-7.7
				c0.3-1.1,0.4-2.2,1-3.1c0.7-1,1.9-1.6,2.4-2.7c0.3-0.6,0.3-1.4,0.3-2.1c0.2-12.3,0.4-24.5,0.6-36.8c0-2.8,0-5.9-1.6-8.2
				c-1.6-2.3-5.5-3.3-7.3-1.1"/>
		</g>
		<g>
			<path class="st4" d="M-130-11.7c-1.4-2.2-2.1-5-1.7-7.6c0.2-1.4,0.6-2.7,0.7-4.1c0.3-3.7-1.6-7.2-3-10.6
				c-5.4-13.5-3.8-28.7-2.1-43.1c0.3-2.2,0.5-4.5,1.5-6.6c0.9-2,2.3-3.6,4-5c2.4-2,5.3-3.4,8.4-4.1c2,1.8,1.6,5.2,0.1,7.4
				s-3.8,3.9-5.5,6c-3.6,4.5-4,10.7-4.2,16.5c-0.1,4.8-0.2,9.5-0.2,14.3c0,5.3,0.3,11.2,4,15c2.3,2.3,5.8,3.9,6.5,7
				c0.6,2.6-0.9,5.1-2.4,7.3c-1.7,2.6-3.5,5.2-5.2,7.9"/>
		</g>
		<g>
			<path class="st4" d="M-121.7-62.3c1.2-3.9,3.5-7.4,6.7-9.9c2-1.6,4.6-2.9,7.1-2.4c2.6,0.5,4.5,2.6,6,4.8c7.6,11,8.9,26,3.4,38.1
				c-0.6,1.3-1.3,2.6-2.6,3.3s-3.2,0.3-3.7-1c-0.3-0.8-0.1-1.6,0.1-2.4c0.8-2.9,1.4-5.7,1.9-8.6c0.7-4.2,1.2-8.4,0.5-12.6
				c-0.7-4.2-2.5-8.3-5.8-10.9c-0.6-0.5-1.3-0.9-2.1-1.1c-1.9-0.3-3.4,1.5-4.8,2.9c-1.4,1.3-4.1,2-5,0.3"/>
		</g>
		<g>
			<path class="st4" d="M-87.5-57c-3.6-6.6-4.5-14.7-2.4-21.9c0.4-1.5,1.1-3.1,2.6-3.7c1.4-0.5,3,0.2,4,1.3c0.9,1.2,1.3,2.7,1.6,4.2
				c0.9,5.1,0.8,10.4-0.5,15.5c-0.4,1.4-0.9,2.9-1.9,3.9s-2.8,1.5-4,0.6"/>
		</g>
		<g>
			<path class="st4" d="M-44.9-122.2c0-2.5,0-5,0-7.6c0-0.7,0-1.4,0.4-2c0.4-0.7,1.2-1,2-1.3c5.9-2.3,11.8-4.6,17.7-6.9
				c1.2,4,2.1,9-1,11.7c-1,0.9-2.3,1.3-3.4,2c-2.9,1.8-4.6,5.4-4.2,8.7c0.2,1.9,1,4.2-0.4,5.5c-0.6,0.6-1.4,0.9-2.3,1.1
				c-3.7,0.9-7.5,1.3-11.3,1.2c-1.7-0.1-3.8-0.4-4.6-1.9c-1.1-1.9,0.6-4.2,2.2-5.7c1.6-1.5,3.6-3.2,3.3-5.4"/>
		</g>
		<g>
			<path class="st4" d="M-68.8-92.3c2.4-2.8,6.3-4.1,9.9-3.4c3.6,0.7,6.7,3.5,7.8,7c0.2,0.7,0.4,1.5,0.3,2.3c-0.1,1-0.6,1.9-1,2.8
				c-3,7.4,1.8,16.9-2.8,23.5c-0.9,1.3-2.5,2.5-4.1,2.1c-2-0.6-2.4-3.3-2.4-5.4c0-6.1,0-12.3,0.1-18.4c0-0.9,0-1.8-0.6-2.5
				c-0.7-0.9-2-0.9-3-1.3c-2.8-1-4.1-4.8-2.5-7.3"/>
		</g>
		<g>
			<path class="st4" d="M19.3-108.2c3.2-0.7,6.7-1.6,8.4-4.4c0.9-1.5,1-3.3,1.7-5c2.4-6,10.2-7.2,16.7-7.5c3.3-0.1,7.3,0.1,8.9,2.9
				c0.9,1.5,0.8,3.4,1.6,4.9c1.7,3.4,6.5,3.9,8.9,7c2.6,3.4,1,8.2,0.3,12.4c-1.5,9.2,1.9,18.4,4.5,27.3s4.4,19,0,27.2
				c-2.8,5.2-8.1,9-13.9,10.1c-9.7,1.8-19.8-4.3-24.2-13.1S28.7-66,33.2-74.7c-2.3,9.9,0.2,20.8,6.5,28.8c2.3,2.8,5.1,5.4,8.6,6.5
				s7.6,0.7,10.2-1.8c3.4-3.1,3.5-8.4,2.6-12.9c-0.9-4.5-2.7-9-2.4-13.5c0.4-5.4,3.3-11.9-0.8-15.5c-1.8-1.5-4.3-1.8-6.5-2.7
				c-8.6-3.8-10.4-18.4-19.8-18.9c-2.2-0.1-4.3,0.6-6.5,0.8s-4.7-0.6-5.5-2.6"/>
		</g>
		<g>
			<path class="st4" d="M-8.9-128.5c0-6.2,0.5-13.4,5.5-17.1c1.3-1,2.9-1.6,4.5-1.3c3.1,0.6,4.4,4.4,4.1,7.5
				c-0.3,3.1-1.6,6.2-1.3,9.3c0.3,3.3,2.3,6.2,3.6,9.3c0.9,2.1,1.5,4.3,1.8,6.6c-4.5-2-7.8-6.2-8.7-11c-0.3-1.6-0.4-3.4-1.4-4.6
				c-1.6-2-5.5-1.5-6.4,1"/>
		</g>
		<g>
			<path class="st4" d="M-15.6-110.2c-2.4-2.4-4.5-5.5-4.1-8.9s4.6-6.1,7.3-4.2c2.1,1.5,2.2,4.6,1.5,7.1s-1.8,5-1.5,7.6"/>
		</g>
		<g>
			<path class="st4" d="M102-42.5c-2.7-0.5-5.4,1.2-8.1,1.4c-4.8,0.5-9.4-4-9.3-8.8s4.6-9,9.4-8.9c4.8,0.1,9.2,4.1,9.8,8.9
				c0.4,3-0.9,6.4-3.6,7.5"/>
		</g>
		<g>
			<path class="st4" d="M118.3-46.4c-1.1,1.9-3.4,3-5.5,2.6c-1.9-4.7,1.8-9.8,5.5-13.3c3.4-3.3,7-6.4,10.8-9.3
				c4.5-3.5,10.5-6.8,15.6-4.2c1.8,0.9,3.2,2.5,4.3,4.2c3.6,5.7,3.9,13,2.1,19.4s-5.6,12.2-9.8,17.4c-4.6,5.8-10.1,11.4-17.1,13.8
				c-0.3,0.1-0.7,0.2-1.1,0.1c-0.7-0.2-1-1.2-0.7-1.9c0.3-0.7,1-1.1,1.6-1.6c7-5.1,11.5-13.1,14.7-21.2c1-2.6,2-5.2,2-8
				c0-2.8-1.1-5.6-3.4-7.2c-3.3-2.2-7.8-0.9-11,1.4c-3.2,2.3-5.8,5.4-9.2,7.3"/>
		</g>
		<path class="st4" d="M141.5-90.1c-1.2,10.2-9.3,13.1-16.3,18.3c-1.2,1.1-2.4,2-3.4,2.8c-1.6,1.2-3.8-1.1-2.4-2.6
			c0.1-0.1,0.2-0.2,0.3-0.3l0,0c0,0,0,0,0,0c1.1-1.1,2.4-2.1,3.6-3.1c2.3-2.3,3.9-5,1.9-7.9c-2.2-3.1-5-2.5-8.6-2.9
			c-0.2,0-0.4-0.1-0.6-0.2c-0.1,0-0.1,0-0.2,0c-0.3,0-0.6-0.1-0.8-0.3c-6.2,1.4-15,0.6-15.6,8.9c-0.1,1.9-3.3,1.8-3.4-0.1
			c-0.3-7.2,6.7-10.6,12.7-11.9c6.2-1.4,12.4-3.6,17.5-7.7c2.5-2,4.1-4.4,7.7-4.7C140.5-102.2,142.2-95.3,141.5-90.1z"/>
		<path class="st4" d="M151.4-80.9c-0.5,0.9-1.9,1-2.3-0.1c-0.8-2.5-3.6-4.5-3.4-7.3c0.1-1.9,1.5-4.1,3.5-4.3
			c1.3-0.1,1.9,1.4,1.2,2.3c-0.8,1.1,0.5,3.2,0.9,4.5C151.7-84.1,152.2-82.4,151.4-80.9z"/>
		<path class="st4" d="M172.1-91.7c-0.2,3.2-0.1,5.7-2.1,8.3c-1,1.3-2.5,0-2.3-1.2c-0.1-0.1-0.2-0.3-0.2-0.4
			c-0.9-5.1,1-10.3-3.3-14.5c-3.3-3.1-8.2-5.5-12.3-2.7c-0.5,0.4-1.2,0.5-1.9,0.4c0.6,0.9,1.2,1.8,1.7,2.6c0.8,1.4-0.7,2.8-2.1,1.9
			c-4.1-2.8-10.5-9.6-5.7-14.7c2.4-2.5,6.5-2.4,9.5-3.8c3.2-1.4,5.9-3.6,9.6-2.8c2.9,0.6,5.9,3.2,8.3,5c2.4,1.8,3.2,4.2,3.2,7.1
			C174.5-101.6,172.4-96.6,172.1-91.7z"/>
		<path class="st4" d="M127.5-106c-1.9,0.2-2.1-2.5-0.4-3c-1-8.1-13-12.7-19.3-16.7c-6.3-4-12.6-8.2-19.3-11.6
			c-11.9-6.1-24.8-9.7-36.2-16.6c-2.2-1.4-0.7-4.6,1.8-3.7c22.3,8.1,47,13.5,67,26.9C127.6-126.4,145.6-108.2,127.5-106z"/>
		<path class="st4" d="M160.6-131.4c-1.3,3.6-4.2,6.1-7.2,8.3c-1.5,1.1-2.8,2.3-4.7,2.7c-2.2,0.4-4-1.1-6.2-0.6
			c-2,0.5-3.1-2.7-1.4-3.8c3.1-1.9,6-0.3,9.5-2.3c1.2-0.7,2.1-1.5,2.9-2.4c0-0.1,0-0.2,0-0.3c1.3-7.6-3.8-14.3-11.3-16
			c-2.9-0.6-6.4-1.1-9.4-0.6c-3.4,0.5-4.6,2.2-5.5,5.5c-0.3,1-1.7,1.9-2.6,0.9c-3.5-3.7-4-9.5,0.9-12.4c7-4.2,19-2.9,25.7,1
			C157.9-147.5,163.3-139.2,160.6-131.4z"/>
		<path class="st4" d="M28-132.2c-0.7,0.8-2.1,0.8-2.7-0.1c-0.8-1.4-0.7-2.5-0.9-4.1c-0.3-2.1-1.2-3.4-2.4-5.1
			c-1.7-2.3-2.6-5.8-1-8.4c1-1.6,3.2-0.9,3.1,1c-0.1,1.9,2.2,3.5,3.2,4.8c0.9,1.2,1.5,2.4,1.9,3.8C29.8-137.8,29.8-134.2,28-132.2z"
			/>
		<path class="st4" d="M53.6-175.6c-0.1,0.2-0.3,0.3-0.4,0.5c0,0,0,0,0.1,0.1c-1.1,1.1-2,2.3-2.8,3.6c-0.7,1.2-1.1,2.5-2.1,3.5
			c-0.2,0.2-0.5,0.3-0.7,0.4c-0.3,0.5-0.9,0.8-1.5,0.9c-3.1,0.4-4.5-3.3-3.6-5.9c1.2-3.3,4.9-3.4,6.8-5.8
			C51.1-180.4,55.1-178.1,53.6-175.6z"/>
		<path class="st4" d="M40-161c-0.8,1.1-2.4,0.6-2.8-0.5c-0.4-0.8-0.7-1.7-1.1-2.3c-1.7,0.1-3.1-0.3-4.3-1.5c-1.6-1.5-0.8-4,1.4-4.3
			C37.3-170.3,43.2-165.2,40-161z"/>
		<path class="st4" d="M-42.4-20.5c-0.8,0.2-1.3,0.1-2.1,0.2c-1.5,0.1-2.7-1.1-2.4-2.6c0.4-2.3,2.8-3.3,4.6-1.9
			c0.4,0.3,0.5,0.8,0.6,1.2c0.1,0.2,0.3,0.4,0.4,0.7C-40.9-22-41.4-20.8-42.4-20.5z"/>
		<path class="st4" d="M-148.5,5.6c-0.4,0.6-1,0.8-1.7,0.9c-1.2,0.1-2.2-0.8-2.4-2c0-0.1,0-0.3-0.1-0.4c-0.2-1,0.6-1.8,1.4-2.2
			c0.1,0,0.2-0.1,0.2-0.1c0.7-0.3,1.8,0,2.1,0.7C-148.4,3.3-147.8,4.5-148.5,5.6z"/>
		<path class="st4" d="M-155.3,46.2c-0.4,2-0.8,3.8-1.6,5.7c-0.6,1.4-2.8,1.3-3.3-0.1c-1.2-3.9-0.8-10.1,2.5-12.9
			c1.3-1.1,2.9,0.1,3.2,1.5C-154.1,42.2-155,44.2-155.3,46.2z"/>
		<path class="st4" d="M-162.2-182.4c-0.4,2-3.4,1.5-3.1-0.5c0.1-0.6,0.1-1.2-0.2-1.7c-0.6-1.9,2-2.7,2.8-1.1
			C-162-184.6-161.9-183.6-162.2-182.4z"/>
		<path class="st4" d="M-157.4-191.4c-0.5,0.5-0.9,0.8-1.5,1.2c-2,1.3-4.1-1.7-2.1-3c0.6-0.4,1.1-0.7,1.7-1
			C-157.8-194.9-156.1-192.5-157.4-191.4z"/>
		<path class="st4" d="M-150.5-198.1c0,0,0,0.1,0,0.1c0,0.1,0,0.2,0,0.3c-0.1,0.7-0.7,1.4-1.3,1.6c-0.3,0.1-0.7,0.2-1,0.2
			c-2,0.1-3.3-1.8-2.5-3.6c0-0.1,0.1-0.2,0.1-0.3C-154.1-202.8-149.8-200.8-150.5-198.1z"/>
		<path class="st4" d="M-134.9-203.5c0.1,0.7,0,1.5-0.4,2.2c-0.7,1.2-2.4,1.6-3.3,0.5c-1.2,0.3-2.9-0.4-2.9-1.9
			c-0.1-2.4,1.9-4.5,4.5-3.7c1.2,0.4,2,1.4,2.2,2.6C-135-203.7-134.9-203.6-134.9-203.5z"/>
		<path class="st4" d="M-156.5-203.4c-3,0.3-5,0.9-7.4,2.7c-1.4,1.1-3.4-1-2.1-2.3c2.4-2.5,6.2-4,9.7-3.4
			C-154.8-206.1-154.8-203.6-156.5-203.4z"/>
		<path class="st4" d="M-148-139.2c0,1.9-2.7,3.4-3.8,1.4c-0.9-1.6-2.6-2.5-3.3-4.3c-0.6-1.8-0.2-3.4,1.3-4.5
			c2.2-1.8,4.7,1.8,2.5,3.6C-150-144.1-148-140.5-148-139.2z"/>
		<path class="st4" d="M50-18c-0.2,1.8-2.6,2.5-3.9,1.4c-1.5-1.3-2.3-3-2.5-4.8c-1-0.8-1.2-2.8,0.4-3.5c0,0,0.1,0,0.1,0
			c1.3-2.2,5.1-1.3,4.9,1.2C50.3-22.1,50.2-19.9,50-18z"/>
		<path class="st4" d="M274.4-55.3c-1.7,0.4-2.2-2-1.1-3c8.1-6.5-2-9-6.5-11.7c-0.8-0.5-1.3-1.3-1.2-2.3c0.8-6.2-3.5-6.4-6.9-7.6
			c-0.9-0.3-1.3-1.5-1.2-2.4c-1.9-2-3.8-4-5.7-6.1c-0.7,0.2-1.4,0.3-2.1,0.5c-1.2-0.3-2.3,0.4-3.7,0c-2.1-0.6-2.1-0.8-3.6-2.7
			c-0.7-0.8-0.4-2.2,0.5-2.8c1.1-0.6,2-1.4,2.8-2.3c-1.5,0.2-3,0.2-4-0.3c-0.1,0-0.1-0.1-0.1-0.1c-2.1,0.5-4.4,0.5-6.7,0.1
			c-4.7,0.7-10.8,1.5-13.1-0.9c-2.2-2.4-0.3-4.7,1.7-6.3c3.3-2.6,5.2-4.2,7.2-7.9c1.2-2.1,2.1-4.3,4-5.9c3-2.5,4.7-1.8,7.2,0.2
			c2.3,1.7,3.9,2.8,6.6,3.5c0.7,0.2,1.5,0.1,2.3,0.4c1.3,0.6,2.3,1.6,3,2.9c1.6,3.3,0.5,9-2.1,11.7c5.5,1.3,16.5,4.1,17.9,2.2
			c1.2-1.6,4-0.3,3.5,1.7c-1.8,7.2,3.6,8.4,7.5,9.6c0.8,0.2,1.2,1.1,1.3,1.9c0.1,0.8,0.1,1.5,0,2.1c4.1,0.5,3.7,5.5,3.1,9.8
			c1.7-0.6,3.4-1.1,5.4-1.5c1.2-0.2,2.2,0.9,2.3,1.9C294-62.2,280.6-56.6,274.4-55.3z"/>
		<path class="st4" d="M222.8-115c-0.8,2.5-2.5,4.5-4.6,5.9c0.7,1.4,0.8,3.2,0.1,4.7c-1.3,3-6,4.2-6.3,7.4c-0.2,1.7-2,2.2-3.4,1.7
			c-2-0.7-4.1-1.1-6.2-1.3c-1.4-0.2-3,0-4.3-0.7c-2-1-2.5-3.3-1.2-5.1c1.5-2,4.4-2.5,6.7-2.9c1.8-0.3,3.6-0.5,5.1-1.6
			c0.2-0.1,0.3-0.3,0.5-0.4c-3.8-0.3-7.7-0.8-10.3,1.5c-0.8,0.7-1.7,0.6-2.4,0.2c-2,2.1-4.1,4.2-6.4,6.2c-4.7,4.1-6.6,7.8-8.3,13.3
			c-0.7,2.1-1.3,3.3-2.5,5.1c-0.7,1.1-2.7,0.1-2.3-1.1c1.5-4.8,0.4-10.4,3.2-14.9c3-4.8,9-7.9,12.9-11.9c6.9-7.2,10.6-15,21.1-17
			C221.1-127.3,225-121.9,222.8-115z"/>
		<path class="st4" d="M193.1-125.2c-2.2,5.1-9.2,9-7.5,15.4c0.5,2-1.8,3.2-3.2,1.7c-2.3-2.6-2.6-5.8-1.5-9c0.2-0.5,0.4-0.9,0.6-1.4
			c0-2,0.4-2.7,1.3-4.8c2.4-5.2,2.3-8.8,0.5-13.7c-7.1,2.7-10.9,9.8-11.8,17.2c-0.3,2.8-4.9,3.4-5.6,0.5c-0.1-0.3-0.1-0.5-0.1-0.8
			l0,0c0-0.1,0-0.1,0-0.2c-1.4-7.2,2.4-10.8,7.3-16c2.4-2.6,3.1-4.5,4.5-7.7c0.9-2.2,2.1-3.6,4.5-3.9c6.6-0.9,10,8.9,11.4,13.8
			C194.2-131.2,194.3-128.1,193.1-125.2z"/>
		<path class="st4" d="M212.1-137.2c-0.8,1.2-2.2,2.7-3.8,3.6c0.1,0.9-0.3,1.8-1.4,1.9c-4.9,0.3-9.2-3-9.9-8
			c-0.1-0.5,0.2-3.3,0.3-3.1c0-0.1-2.8-1.4-3.3-1.7c-2.6-1.5-4.9-3.5-6.6-6c-6.7-10,6.8-20.5,13.6-10.3c0.6,0.9,0.8,2.4,1.5,3.2
			c3.3,3.9,3.6,1.4,6.4,2.2c2.2,0.6,3.8,1.3,5.1,3.3C216.7-147.7,214.7-141.1,212.1-137.2z"/>
		<path class="st4" d="M238.9-137.1c-1.1,7-6.1,12.1-12.2,15.1c-1.8,0.9-3.7-0.8-3.9-2.5c-0.3-1.9,0.2-2.7,1.3-4.3
			c0.9-1.4,1.5-2.6,1.9-3.8c0-0.1-0.1-0.3-0.1-0.4c-0.9-1-1.8-2-2.8-2.9c-1-1.1-1.8-2.3-2.5-3.6c-1.4-2.9-2.2-6.6-1.2-9.7
			c1.8-5.4,8.3-6.6,12.9-4C237.6-150.1,239.8-143,238.9-137.1z"/>
		<path class="st4" d="M229.1,45.8c-2.6,4.9-9.3,7.4-14.6,7.9c-4.2,0.4-12.7-2-14-6.8c-0.3-1.1-0.1-2,0.5-2.8
			c-1.4-1.4-2.5-3.2-3.2-5.3c-0.7-2.1,2.5-3.3,3.2-1.2c3.3,9.1,18.2,7.8,25.1,5C228,41.9,230,44.1,229.1,45.8z"/>
		<path class="st4" d="M233.6,35.5c-11.6,10.6-28.2,6.2-33.7-8.4c-0.7-1.8,1.9-3.2,2.9-1.5c3.1,4.6,6.9,9.2,12.4,10.8
			c6.1,1.8,11.2-1.5,16.9-3.1C233.2,33,234.7,34.5,233.6,35.5z"/>
		<path class="st4" d="M238.3,26.3c-3.2,6.8-15.9,7.2-22,4.8c-8.8-3.5-11.7-13.6-7.6-22c0.4-0.9,1.1-1.2,1.8-1.1
			c-0.4-2.4,3.2-3.7,3.9-1.2c1.2,4.3,2.8,10.3,6.4,13.3c4.3,3.5,10.6,4.1,15.8,3.1c1.2-0.2,1.9,0.8,2,1.8
			C238.7,25.5,238.6,26,238.3,26.3z"/>
		<path class="st4" d="M244.9,20.3c-3.3,2.6-9.9,0.8-13.4-0.3c-11.9-4-7.2-16.9-6-26.1c0.1-0.9,0.7-1.3,1.4-1.4
			c1.2-1.9,3.1-3.2,5.8-3.6c4.4-0.6,5.1,3,5.3,6.4c0.3,3.8-0.2,7.9,1.2,11.6c1.3,3.4,4,4.4,6.1,7C246.9,16,247.1,18.6,244.9,20.3z"
			/>
		<path class="st4" d="M259.4,12.9c-6.4,2-13.4-3.3-16.1-8.7c-3.4-6.6-1.7-14.1,2.6-19.8c0.3-0.3,0.6-0.5,0.9-0.6
			c0.4-0.1,0.8-0.2,1.2-0.2c2.2,0.2,3.3,2.3,3.8,4.3c0.3,1.3,0.5,2.6,0.8,3.8c1,1.8,1.9,3.5,2.9,5.3c0.9,1,1.8,1.9,2.7,2.9
			c2.2,2.2,5.6,4.3,5.5,7.9C263.6,10.2,261.7,12.2,259.4,12.9z"/>
		<path class="st4" d="M291.2-0.6c-1.8,4.3-9.3,4.3-13,3.9c-12.6-1.4-21.7-14.2-15.5-26.1c0.1-0.2,0.3-0.2,0.4-0.4
			c0.1-0.9,0.3-1.8,0.6-2.6c0.9-2.6,4.2-4.1,5.9-1.2c0.8,1.3,0.2,3.7,0.2,5.1c0.1,2.1,0.2,4.2,0.9,6.2c0.5,1.4,1.2,2.6,1.9,3.5
			c0.6,0.3,1.1,0.7,1.5,1.4c2.3,1.7,5.3,2.3,8.6,3C286-7.2,293.3-5.7,291.2-0.6z"/>
		<path class="st4" d="M298.1-9.1c-9,1.9-16.5-1.1-22.4-6.6c-3.5-2.7-6.3-6.4-8.2-10.8c-0.3-0.6-0.6-1.2-0.9-1.8
			c-0.1-0.3-0.1-0.5,0-0.8c-0.4-1.3-0.7-2.5-1-3.9c-0.4-2.2,3-2.4,3.4-0.3c1.8,9.7,8.8,16.9,18.7,18c2.2,0.2,24.4-4.5,22.4-8.1
			c1,1.7-14,6-14.9,6.1c-5.3,0.7-10.2-0.2-15.2-1.8c0,0-0.1,0-0.1,0c0,0,0,0,0,0c-0.2-0.1-0.5-0.1-0.7-0.2c-2.8-1-1.3-6,1.6-5.1
			c7.9,2.3,15.2,1.7,22.7-1.6c0.3-0.2,0.7-0.4,1-0.5c1.2-0.8,2.5-1.7,3.8-2.2c0.1,0,0.2-0.1,0.3-0.1c1.8-1,3.6-1.9,5.6-2.2
			c0.5-0.1,1.2,0.2,1.5,0.7C320.8-21.4,305.6-10.7,298.1-9.1z"/>
		<path class="st4" d="M290.1-30.3c-1.2,3.8-5.5,4.9-8.9,3.7c-2.4-0.8-4.3-2.6-6.1-4.3c-1.3-1.2-2.7-2.5-4-3.8c-2-0.9-3.8-2-4.4-4.6
			c-0.5-2.2,2.2-3.2,3.2-1.2c1.1,2,4.5,1.9,6.3,2.7c1.1,0.5,2.7,2.1,4.3,3c0.3-1.4,1.3-2.7,3.2-3.1C288-39,291.3-34.1,290.1-30.3z"
			/>
		<path class="st4" d="M315-55.3c-0.3,1.5-1.3,2.4-1.8,3.7c-4.7,13.1-0.7,2.9-0.9,9.4c-0.3,6.8-2.8,8.7-7.9,11.2
			c-0.4,0.5-0.8,0.9-1.1,1.4c-0.5,0.7-1.4,0.5-2,0c-2,0.5-3.5-2.6-1.6-3.8c1.5-0.9,3-1.6,4.4-2.4c1.4-2.2,2.3-4.4,1.9-7.6
			c-0.5-3.5-4.3-5.1-4.8-8.6c-0.3-2.6,1.4-5.6,2.1-8c1.2-3.9,1.6-7.4,3.8-10.9c0.9-1.4,3.8-2,4.3,0.2c0.8,3.7-0.5,7-1.8,10.4
			c0.4-0.4,0.9-0.7,1.5-1c1-0.4,2,0.1,2.7,0.8C315.2-58.7,315.5-57.4,315-55.3z"/>
		<path class="st4" d="M291.4-38c-2.5,0.3-2.9-3-0.9-4c1.2-0.6,2.5-1.1,3.7-1.6c0.6-0.3,1.2-0.6,1.8-1c0.2-0.1,0.5-0.3,0.7-0.4
			c0,0,0,0,0,0c-0.8-2.2,1.9-4.9,3.9-2.8C305.7-42.5,295.4-38.4,291.4-38z"/>
		<path class="st4" d="M303.7-70.5c-1,2.8-2,5.3-3.2,7.5c-0.3,1.4-0.7,2.8-1.3,4c-0.4,0.7-1.5,1.9-2.9,3.1c1.5,0.5,2.8,2.4,1.4,3.8
			c-2.7,2.6-6.2,5.8-9.9,5.9c-1,0.6-2.4,0.6-3.1-0.5c-0.1-0.2-0.2-0.4-0.3-0.6c-0.4-0.5-0.5-1-0.4-1.6c-0.2-4.4,6.8-7.5,9.3-10.5
			c6.1-7.5-1.7-21.7,5.8-27.6c0.7-0.6,1.8-0.6,2.6-0.2C306.9-84.7,305.3-74.9,303.7-70.5z"/>
		<path class="st4" d="M273.9-46c-2.3,3.2-6.5,0.1-9-1.1c-1.2-0.6-1.3-1.7-0.8-2.6c0,0,0,0,0,0c-2.4-1.3-2.8-3.8-2.6-6.3
			c0.1-0.8,0.6-1.8,0.3-2.6c-0.5-1.4-0.6-0.6-1.7-1.5c-0.9-0.8-1.9-1.2-2.6-2.3c-0.1-0.1-0.1-0.3-0.2-0.4c-2.6,0.9-4.4-2.2-2.7-3.9
			c0.1-2.2-1.4-4.2,0.4-6.5c1.3-1.7,3.2-2.4,5.3-1.8c1.4,0.4,2.2,1.4,2,2.9c-0.1,1.4-1.1,4.6-0.8,5.9c0.4,1.4,1.6,1.6,2.5,2.3
			c1.3,0.9,2.5,1.3,3.1,3.1c0.9,2.6-1.4,4.4,0.5,6.3c1.5,1.5,3.5,0.8,5.2,2.1C274.7-51.2,275.5-48.1,273.9-46z"/>
		<path class="st4" d="M292.4-90.2c-0.8,1.4-2.4,2.1-3.9,1.4c-7.6-3.4-7.4-9.9-10.1-16.7c-2.2-5.5-6.3-4.3-10.3-7.2
			c-3.4-2.4-4.2-6.2-6.1-9.6c-2-3.6-2.9-3.3-6.8-3.7c-0.8-0.1-1.6,0.2-2.5,0.1c-2-0.3-3.5-0.9-4.6-2.8c-3.9-6.5,3.4-11.3,8.6-12.9
			c2.4-0.8,3.7,2.3,1.8,3.7c0.2,0.9,0,1.8-0.9,2.6c3.5-3.2,8.9,5.1,9.9,6.7c2.5,3.9,4.5,7.2,8.6,9.6c1.9,1.1,3.9,1.5,5.5,3.2
			c1.5,1.6,1.4,2.3,2.5,4.5c2.1,4.5,4.5,7.1,6.8,10.7C293.3-97,294.8-94.2,292.4-90.2z"/>
		<path class="st4" d="M266.9-102.3c-1.9-0.2-2.9-1-4.1-2.4c-0.6-0.7-0.7-2-0.2-2.8c0.7-1.1,1.3-1.7,2.6-1.6
			c1.8,0.1,2.4,1.6,3.5,2.8C270.4-104.7,269.2-102.1,266.9-102.3z"/>
		<path class="st4" d="M-38.5-71.6c-0.6,0.3-1.4,0-1.9-0.3c-2.7-2-5.1-5.5-4.4-9c0.1-0.5,0.4-0.8,0.8-1c0.8-1.3,2.7-1.5,3.9-0.1
			c1.5,1.7,3.9,3.8,4.1,6.1C-35.8-73.9-36.8-72.3-38.5-71.6z"/>
		<path class="st4" d="M100.2-196.8c-0.5,3-1.4,5.2-1.2,8.4c0.3,4.2,0,7.8-3.5,10.8c-2.1,1.7-5.8,3.2-7.9,0.6c-0.8-1-1-2.3-0.7-3.5
			c0.5-2.4,1.8-3.8,1.9-5.7c-1.7,1.9-3.4,3.7-5.2,5.5c-1.5,2.4-3.8,4.2-6.1,5.9c-2.3,1.7-5.6-1.7-3.4-3.8c1.6-1.5,3.1-3,4.7-4.6
			c2.8-4.7-0.5-4.6-2.3-7.9c-1.8-3.1-0.2-6.9,2.6-8.7c1.7-1.1,3.6-1.4,5.6-1.6c2.9-0.3,4.6-1.1,7.1-2.3c3-1.4,6.2-1.1,7.8,2.1
			C100.4-200.2,100.5-198.4,100.2-196.8z"/>
		<path class="st4" d="M87.3-94.1c-2.4,0.7-5.8-0.5-6.1-3.2c-0.1-0.9,0.6-1.9,1.6-1.9c1.5-0.1,3.3,0.8,4.7,1.4
			C89-97.2,89-94.6,87.3-94.1z"/>
		<path class="st4" d="M84.1-82.4c-0.2,1.4-2.6,1.8-2.9,0.3c-0.6-2.4-0.3-5,0.4-7.4c0.4-1.4,2.8-1.7,2.8,0.1
			C84.4-87.1,84.5-84.6,84.1-82.4z"/>
		<path class="st4" d="M101.1-100.5c-2.5,1.4-6,0-8.3-1.1c-3-1.5-5.3-3.6-7.3-6.2c-1.1-1.4,1-3.3,2.3-2.1c1.6,1.6,3.4,2.8,5.4,3.7
			c1,0.5,2.1,0.9,3.2,1.2c0.3,0.1,1.5,0.2,2,0.4c0.7-0.4,1.4-0.6,2.2-0.3c0.1,0,0.2,0.1,0.2,0.1c0.7,0.3,1.3,1.1,1.3,1.9
			c0,0.1,0,0.2,0,0.2C102.1-101.9,101.8-100.9,101.1-100.5z"/>
		<path class="st4" d="M20-126.1c-1.1-1.6-1.2-3.6-0.7-5.5c0.6-1.9,3.4-2,3.6,0.1c0.2,1.5,0.5,3.1,0.4,4.6
			C23.2-125.1,20.9-124.8,20-126.1z"/>
		<path class="st4" d="M-74.3-42c-1.1,6.8,1.3,14.1-1,20.6c-0.5,1.7-1.4,3.3-2.2,5c-0.8,1.8-3.7,0.9-3.3-1.1
			c0.1-0.5,0.1-0.9,0.1-1.4c-0.9-0.8-1.4-2-0.7-3.4c0.2-0.5,0.4-0.9,0.5-1.4c-0.5-2-1.2-4-1.9-6.4C-83.8-33.9-84-38-84-41.9
			c0-3.8,0.6-10.5,5.7-10.7C-72.8-52.9-73.8-45.5-74.3-42z"/>
		<path class="st4" d="M-182,110.5c-0.1,0.7-0.9,1.2-1.5,1.1c-9.6-2-12.4,3.3-20.3,5.2c-1.3,0.3-11.5-0.8-10.1-1.2
			c-3.8,0.5-11.2,3.2-14.6,5.3c-5.3,3.1-5.6-1.9-3.8,9c0.2,1.1,1.6,0.6,1.4,2.6c-0.3,2.6-0.1,3.3-1.9,5.4c-0.9,1-2.4,0.7-2.9-0.5
			c-1.2-2.7-4-4.7-4.8-7.7c-1-3.3,1-5.5,0.7-8.2c-0.3-2.1-2.9-3.9-5.3-5.9c-1,0.1-2-0.4-2.2-1.7c0-0.1,0-0.1,0-0.2
			c-0.2-0.2-0.4-0.4-0.6-0.6c-2.7-2.9-4.5-6.1-6.2-9.6c-0.2-0.4-0.1-0.9,0-1.3c-0.1-0.6,0.1-1.2,0.9-1.5c4-1.5,3.2-1.2,7.3-2.1
			c0.8-0.2,1.4,0.6,1.6,1.3c2.4,12.2,8.7,3.7,13.3,5.4c7.4,2.7,14.6,6.4,22.3,1.4c3-1.9,3.9-6.2,7.2-7.8c5.2-2.6,13-1.7,18.8-3.8
			c1.2-0.5,2.2,0.6,2.2,1.8C-181,101.5-181.6,106-182,110.5z"/>
		<path class="st4" d="M-209.7,124.9c-1.9,2.4-3.3,6-6.3,7.1c-0.8,1.8-2,3.9-3.8,4.7c-0.8,0.4-1.5,0.6-2.4,0.3
			c-0.2-0.1-1.5-0.8-1.5-1c-0.5,0.2-1.2,0.8-1.7,0.8c-0.7,0-1.5-0.2-2-0.6c-0.7-0.5-1.1-1.3-1.3-2.2c-0.2-0.8,0.5-3.3-0.3-3.7
			c-1.5-0.9-0.4-3.4,1.2-2.5c0.5,0.3,0.9,0.5,1.2,0.9c0.6-0.5,1.4-0.7,2.1-0.3c1.1,0.9,1.9,0.6,2.5-0.8c0.3-1.2,1.4-1.6,2.4-1.3
			c3.2,1.1,5.8-0.9,7.7-3.2C-210.6,121.7-208.6,123.5-209.7,124.9z"/>
		<path class="st4" d="M-255.1,91.4c-1.1,1.2-2.6,2.3-4.3,2.2c-0.7,0-1.3-0.2-1.8-0.5c-0.4-0.2-0.6-0.5-0.9-0.8
			c-0.1-0.2-0.2-0.2-0.2-0.3c-0.8,0.3-1.8,0-1.8-1l0-0.4c0-0.5,0.1-1.1,0.6-1.4c0.9-0.5,1.8-0.7,2.8-0.1c0.4,0.2,0.7,1,1,1.2
			c0.9,0.5,1.9-0.6,2.6-1.1C-255.8,88-253.9,90-255.1,91.4z"/>
		<path class="st4" d="M-215.3,106.2c-3.8,2.6-7-0.5-11-0.3c-0.8,0.1-1.4-0.4-1.7-0.9c-1.3-0.3-2.5-0.8-3.6-1.3
			c-1-0.6-0.9-2.4,0.4-2.5c1.8-0.1,3.5,0.5,5.3,0.8c2.1,0.3,3.1-0.1,5-0.8c2.5-0.9,4.4,0.7,5.9,2.6
			C-214.3,104.5-214.6,105.7-215.3,106.2z"/>
		<path class="st4" d="M-189.4,88.4c-1.2-0.3-2-0.7-3-1.3c-1.6-1-1.8-2.1-3.8-1.2c-1.6,0.7-1.3,1.3-2,2.7c-1.2,2.1-2.1,5.5-5,5.5
			c-1.9,0-7.4-3.1-8.4-4.9c-0.2-0.4-0.3-0.9-0.4-1.3c-0.7-0.5-1.1-1.7-0.1-2.2c0.3-0.1,0.5-0.3,0.7-0.4c0.3-0.5,0.6-1.1,1-1.6
			c0.1-0.6,0-1.3-0.3-2.2c-1.2-0.5-1.2-2.7,0.1-3c1.2-0.3,1.8-0.4,3.1-0.3c2.3,0.3,3.9,0.1,6.2-0.2c1.5-0.2,2.5,0,4,0.1
			c4.6,0.2-1.3-0.5-2.2-0.7c-3.2-0.7-4-3.2-6.7-4.7c-3.2-1.8-7-1.9-10.2-3.5c-0.2-0.1-0.3-0.3-0.4-0.4c-0.2,0-0.4,0.1-0.7-0.1
			c-1-0.6-1.3-0.9-1.4-2.1c-0.1-0.7,0.5-1.5,1.2-1.5c4,0.1,8.9-0.6,12.7,0.7c3.1,1,4.4,3.5,6.7,5.6c2.3,2.1,5.6,2.8,7.8,5.1
			c2.6,2.7,3,6.5,3.2,10.1C-187.2,87.5-188.2,88.7-189.4,88.4z"/>
		<path class="st4" d="M-208.6,57.9c-0.7,0.5-1.3,0.6-2.1,0.5c-0.3,0-0.8-0.2-1.2-0.4c-0.4,0.6-1.2,1.5-1.5,1.7
			c-0.8,0.7-1.7,1.4-2.6,1.9c-1,0.5-2,0.9-3,1.2c-1.2,0.3-3.1,0.1-4,0.9c-0.9,0.8-2,0.2-2.5-0.6c-1.2-0.1-1.8-1.7-0.7-2.5
			c2.2-1.7,4.7-0.9,7.1-1.9c2.6-1,3.1-3.9,4.6-5.9c2-2.8,6.5-4,7.5,0.2C-206.7,54.8-207,56.9-208.6,57.9z"/>
		<path class="st4" d="M-227.5,87.5c-2.3-1.3-4.4-2-7.1-1.6c-0.4,0.1-0.8-0.1-1.1-0.3c-0.4,0.5-0.9,1-1.4,1.4
			c-1,0.8-2.4-0.5-1.9-1.6c0.6-1.3,1.5-2.4,2.4-3.5c0.5-0.7,1.6-0.7,2.2-0.2c0.3,0.3,0.6,0.6,0.8,1c2.8-0.3,5.6,0.3,7.9,2.1
			C-224.2,85.8-225.9,88.4-227.5,87.5z"/>
		<path class="st4" d="M-226.9,75.8c-0.8-0.7-1.6-1.4-2.4-2.2c-0.1,0.5-0.2,1.1-0.4,1.6c0.1,1.6-2.2,2.2-2.8,0.6
			c-0.7-1.3-1.5-2.4-2.6-3.3c0,0.3-0.1,0.7-0.3,1.1c-1.8,3.3-5.4,4.8-7,8.7c-0.5,1.3-2.8,0.9-2.8-0.5c0-2.1,0.1-3.1-1.7-4.1
			c-1.6-0.8-6.2-0.2-8.3-0.3c-1.8-0.1-1.6-2.9,0.1-3c3-0.2,8.6-1,11.3,0.8c0.5,0.3,0.8,0.7,1.1,1.1c0.2-0.3,0.4-0.6,0.6-0.9
			c0.6-0.8,1.6-1.3,2.2-2.1c1.2-1.6,0.7-2.5,0.9-4c0.4-2.6,2.3-5.2,5.1-6c1.8-0.5,2.6-0.2,3.7,1.4c0.2,0.4,0.1,1,0.2,1.4
			c0.7,1.6,1.4,2.3,2.3,3.5c1.1,1.5,2.1,2.9,2.9,4.6C-224,75.6-225.9,76.7-226.9,75.8z"/>
		<path class="st4" d="M-243.6,69.3c-7.4,0.6-14.7-1.1-22.2-0.5c-1.4,0.1-2-2.1-0.6-2.5c7.2-1.8,15.1,0.4,22.5,0.4
			C-242.2,66.7-241.9,69.2-243.6,69.3z"/>
		<path class="st4" d="M-269.2,68.6c-1.7,0-1.9-2.6-0.2-2.6C-267.8,66.1-267.6,68.6-269.2,68.6z"/>
		<path class="st4" d="M-275.1,64.8c-1.8,0-2.1-2.9-0.3-2.9C-273.5,61.9-273.2,64.8-275.1,64.8z"/>
		<path class="st4" d="M-269.5,64.1c-1.7,0-2-2.7-0.3-2.7C-268.1,61.4-267.8,64.1-269.5,64.1z"/>
		<path class="st4" d="M-263.4,62.4c-1.6,0-1.9-2.5-0.2-2.5C-262,59.9-261.7,62.4-263.4,62.4z"/>
		<path class="st4" d="M-245.4,64.7c-3.5-2.1-7.1-2.9-11.1-2.8c-1.8,0-2-2.5-0.3-2.7c4.5-0.7,9.1,0.8,12.8,3.4
			C-242.8,63.4-244.2,65.4-245.4,64.7z"/>
		<path class="st4" d="M-264.5,131c0,0-0.1,0.1-0.1,0.1c-1.6,1.5-4.1-0.5-2.6-2.2c0,0,0.1-0.1,0.1-0.1
			C-265.6,127.1-262.9,129.5-264.5,131z"/>
		<path class="st4" d="M-256.8,131.5c-1.1,0.6-2.3,1.3-3.5,1.8c-1.4,0.6-2.5-1.5-1.2-2.3c1.1-0.7,2.3-1.3,3.5-1.9
			C-256.7,128.5-255.4,130.8-256.8,131.5z"/>
		<path class="st4" d="M-250.4,137.3c-1.1-1.5-1.9-3-2.4-4.7c-0.5-1.6,1.7-2.3,2.4-0.9c0.7,1.4,1.4,2.7,2.3,4
			C-247.2,137.2-249.4,138.7-250.4,137.3z"/>
		<path class="st4" d="M-243.9,140.4c-0.4-1.2-0.8-1.9-2-2.3c-1.5-0.5-0.7-2.9,0.8-2.6c2.5,0.4,4,2.2,3.9,4.7
			C-241.2,141.5-243.4,141.6-243.9,140.4z"/>
		<path class="st4" d="M-230.9,147.8c-2.2,1.3-4,0.5-5.2-1.1c-0.5,0.4-1.1,0.8-1.6,1.1c-1.4,1-2.9-1.1-1.6-2.2
			c0.9-0.8,1.9-1.5,2.8-2.3c0.6-0.5,1.7-0.3,2.1,0.4c1.6,2.4,5-3.8,6-4.9c1.2-1.4,3.6-0.3,3.3,1.5
			C-225.7,143-228.4,146.4-230.9,147.8z"/>
		<path class="st4" d="M-218.3,145.7c-1.4,2.9-3.8,5.7-6.2,7.8c-0.9,0.8-2.1-0.3-2-1.3c0.5-3.2,2.1-6.7,4.4-9
			C-220.4,141.5-217.2,143.3-218.3,145.7z"/>
		<path class="st4" d="M-217.2,160.9c-1.1,1.1-3.6,0.1-2.6-1.5c1.1-1.9,2.1-4,3.5-5.6c0.9-1,3-0.5,2.7,1.1
			C-214.1,157.1-215.6,159.2-217.2,160.9z"/>
		<path class="st4" d="M-205.6,148.8c-0.4,0.7-0.9,1.5-1.3,2.2c0.2,0.3,0.4,0.5,0.6,0.8c0.5,1,0.6,2,0.3,3.1
			c-0.5,2.2-2.3,3.7-4.3,4.5c-1.4,0.5-2.9-1.4-1.8-2.5c0.4-0.4,1-0.9,1.4-1.3c0.2-0.4,0.4-0.8,0.7-1.2c-0.2-0.1-0.3-0.1-0.5-0.2
			c-0.8-0.9-1.6-1-1.9-2.3c-0.5-2.6,2.7-4,4.4-5.2C-206.8,145.9-204.7,147.4-205.6,148.8z"/>
		<path class="st4" d="M-181.6,160.8c-0.3,0.2-0.5,0.4-0.8,0.7c-0.4,0.6-1,0.7-1.5,0.6c-0.3,0.8-1.5,1.2-2.3,0.6
			c-0.7-0.5-2.7,0.4-3.7,0c-0.6-0.2-0.9-0.6-1.2-1.1c-0.3,0.3-0.7,0.5-1,0.8c-1.2,1.1-3.4,0.8-3.5-1.1c0-0.1,0.1-1.1,0.3-1.5
			c-0.8,0.1-2.2,0.5-2.3,0.6c-1.7,0.3-3.2,0.7-4.8,1.4c-0.9,0.4-2.1-0.3-2.1-1.3c-0.1-4,5.1-4.5,8.2-5.1c2.8-0.5,3.9,0.3,4.4,2
			c0.9-0.3,1.8-0.3,3,0.5c0.8,0.5,0.3,0.6,1.4,1c0.5,0.2,1.1,0,1.6,0.2c0.7,0.2,1.1,0.5,1.5,1l0.2-0.4
			C-184.1,155.4-178.7,159.2-181.6,160.8z"/>
		<path class="st4" d="M-201.5,168.1c-0.5,1.6-1.3,3-3.1,3.6c-1,0.3-1.8,0.1-2.7-0.2c-0.6-0.2-0.7-0.3-1-0.2
			c-0.4,0.1-0.8,0.3-1.3,0.4c-0.9,0.2-1.6-0.6-1.7-1.4c-0.3-1.4,0.6-2.4,1.9-2.9c0.3-0.1,0.6-0.2,0.9-0.3c0.2-0.4,0.4-0.9,0.8-1.2
			c0.9-0.7,1.8-1.4,2.7-2c0.9-0.6,2.1-0.5,2.9,0c0.1-0.1,0.2-0.2,0.3-0.2c1-0.5,2.6,0.1,2.3,1.5C-200,166.3-200.7,167.2-201.5,168.1
			z"/>
		<path class="st4" d="M-207,162.9c-2.2,1.6-5.2,2.7-7.9,2.7c-1.2,0-2.2-1.7-0.9-2.4c2.3-1.2,4.9-2.2,7.4-2.9
			C-206.8,159.8-205.5,161.8-207,162.9z"/>
		<path class="st4" d="M-243.9,164.8c2.3,0.4,1.8,3.6-0.2,4c-1.9,0.4-3.8,0-5.6-0.6c-2-0.6-2.1-3-0.8-3.9c-0.8-0.1-1.6-0.2-2.4-0.4
			c-2.2-0.6-4.9-2.7-2.8-5.1c0.9-1,2.6-0.2,2.4,1.1c-0.2,1,3.2,1.1,3.7,1.1c1.4-0.1,2.5-0.5,3.5-1.4c0.7-0.6,2-0.3,2.4,0.4
			c0.5,0.7,0.8,1.4,1.1,2.3C-242.4,163.4-242.9,164.6-243.9,164.8z"/>
		<path class="st4" d="M-252.6,168c-1.8-0.4-3.5-0.9-5.2-1.4c-1.7-0.5-1.4-2.9,0.4-2.8c1.9,0.1,3.9,0.5,5.6,1.3
			C-250.2,165.8-250.9,168.3-252.6,168z"/>
		<path class="st4" d="M-265.9,157.5c-1.3-0.7-2.5-1.6-3.8-2.3c-1.5-0.8-0.8-3.3,0.9-3c2.1,0.4,3.9,1.5,4.9,3.4
			C-263.2,156.8-264.8,158.1-265.9,157.5z"/>
		<path class="st4" d="M-261.1,153.5c-1,1.4-3,0.1-2.8-1.3c0.2-1.7,0.5-3.3,0.5-5c0-2.3,3.2-2.6,3.6-0.3
			C-259.4,149.1-259.8,151.6-261.1,153.5z"/>
		<path class="st4" d="M-249.8,151.5c-0.4,1.7-2.9,1.3-2.7-0.5c0.2-2-1.3-2.6-2.6-3.7c-0.5-0.5-2.1-2.7-1.8-3.1
			c-1.1,1.1-3.2,0-2.4-1.6c1.5-2.7,4.3-1.5,5.6,0.7c0.9,1.5,2.5,2.2,3.4,3.8C-249.5,148.5-249.5,150.1-249.8,151.5z"/>
		<path class="st4" d="M-240.9,158.9c-1-0.3-1.8-0.7-2.5-1.5c-0.7-0.8-0.7-1.9-1.3-2.6c-0.5-0.6-1.6-0.9-2.2-1.7
			c-0.7-1-0.9-1.9-0.8-3.1c0.1-1.6,2.6-1.7,3-0.3c0.5,1.7,1.7,1.6,2.6,2.9c0.7,1.1,0.1,3.2,1.6,3.7
			C-238.9,156.9-239.3,159.4-240.9,158.9z"/>
		<path class="st4" d="M-244.8,152.5c-1.1,0.6-3-0.1-2.6-1.6c0.4-1.4,1.4-2.6-0.1-3.7c-1.6-1.4,0.4-3.7,2.1-2.5
			C-243.1,146.3-241.9,150.9-244.8,152.5z"/>
		<path class="st4" d="M-232.9,158.9c-1.4,0.8-2.3,0.7-3.8,0.1c-2.3-1-0.6-4.4,1.6-3.5c0.6,0.3,1.3,0.4,2,0.6
			C-232.1,156.6-231.9,158.3-232.9,158.9z"/>
		<path class="st4" d="M-227.7,162.3c-0.6-0.8-1.2-1.1-2.2-1.3c-1.8-0.4-1.8-3,0.1-3.3c2.1-0.2,3.9,0.8,5,2.5
			C-223.3,162.1-226.3,164.2-227.7,162.3z"/>
		<path class="st4" d="M-224.6,166.7c-0.7,1.2-1.5,2.5-2.1,3.8c-0.5,1.2-0.8,2.4-1.7,3.4c-0.9,1-2.4,0.4-2.7-0.8
			c-0.6-2.8,1.6-6.2,3.1-8.5C-226.6,162.8-223.4,164.8-224.6,166.7z"/>
		<path class="st4" d="M-236.8,176.1c-1.1-0.5-1.8-1.2-2.6-2.1c-1.6-1.8,0.5-4.4,2.5-2.9c0.9,0.7,1.7,1.4,2.3,2.4
			C-233.8,175-235.2,177-236.8,176.1z"/>
		<path class="st4" d="M-214.8,174.3c-1.5,0.2-2.9,0.6-4.1,1.6c-1.6,1.5-4-0.4-2.6-2.2c1.5-2.1,3.6-3.4,6.3-3.5
			C-212.6,170.2-212.2,174-214.8,174.3z"/>
		<path class="st4" d="M-225.8,181c-1.4-0.2-5.8-1.7-6.9-0.4c-0.8,0.9-2,0.5-2.5-0.4c-0.1-0.1-0.1-0.2-0.2-0.4
			c-0.4-0.7,0.1-1.6,0.6-2c2.4-1.9,7.4-1.1,10,0.1C-223.1,178.8-224,181.3-225.8,181z"/>
		<path class="st4" d="M-248.8,178.4c-1,1.5-1.8,2.3-3.6,2.7c-0.7,0.2-1.4,0.1-2.2,0.2c-3.3,0.4-2.9,0.7-4.8,2.8
			c-4.3,4.7-9.2,9.5-14,13.6c-1.1,0.9-2.4,0-2.6-1.1c-0.5-0.5-0.8-1.4-0.2-2.2c2.2-2.9,5.3-4.7,7.5-7.5c2.7-3.4,3.9-7.4,6-11.1
			c3.3-5.8,7.4-0.9,12.3-0.3C-249.1,175.5-248.1,177.3-248.8,178.4z"/>
		<path class="st4" d="M-158.9,176.9c-5.2-1.3-7.4-3-12.4-5.2c-2.3-1-6.2-1.7-8.6-2.4c-3.5-0.9-1.2-2.7-3.5-0.9
			c-0.6,0.4-2.4-0.5-2.8-0.8c-2.3,1.6-4.8-2-2.5-3.6c2.5-1.8,3.7-6.2,6.6-7c3-0.8,7.4,2.4,9.7,3.9c3.2,2.1,7.1,4,10,6.4
			c2.1,1.8,5.5,4.6,5.7,7.6C-156.6,176-157.7,177.2-158.9,176.9z"/>
		<path class="st4" d="M-278.8,130.9c-1.5,2.4-4.5,3.5-7.1,3.8c-2.4,0.3-5.7-0.4-6-3.3c-0.1-1.3,0.5-2.4,1.4-3.3
			c0.4-0.4,1.1-0.7,1.5-1.2c0.4-0.5,0.5-1.3,0.8-2c-0.4,0.1-0.7,0.1-0.8,0.3c-1.1,2-4.3,0.5-3.2-1.5c0.2-0.4,0.5-0.7,0.8-0.9
			c-0.4-0.3-0.8-0.5-1.1-0.9c-1.4-1.5,1.3-4,2.7-2.5c1.1,1.2,2.9-0.3,4-0.7c1.2-0.5,2.3-0.6,3.6-0.3c0.6,0.1,1.1,0.5,1.4,1
			c1,0.4,1.9,1.1,2.5,2.2C-277.2,124.1-277.3,128.5-278.8,130.9z"/>
		<path class="st4" d="M-277.6,152.2c-0.6,0.3-1.4,0.1-1.9-0.3c-2-1.6-3.4-3.5-4.7-5.7c-0.8-1.4-0.1-2.9,1.5-3.2
			c1.5-0.2,2.7-0.9,3.7-1.9c-1.1-2.3-2.3-4.4-2.6-5.4c-0.7-3.1-0.2-6.3,1.1-9.2c0.6-1.4,2.7-0.6,2.5,0.8c-0.5,4.5-0.7,8,1.7,12
			c1,1.8,2.2,3.4,2.6,5.4C-273.1,148.1-274.6,150.7-277.6,152.2z"/>
		<path class="st4" d="M-282.6,120.9c-0.6-2.1-1.1-4.1-2.1-6c-1-1.9-2.5-3.4-3.3-5.3c-0.4-1,0.8-2.2,1.7-1.6c3.7,2.2,6,8.1,6.6,12.2
			C-279.4,121.9-282.2,122.6-282.6,120.9z"/>
		<path class="st4" d="M-289.8,101c-0.2,1.7-2.8,1.5-3-0.1c-0.1-0.6-0.1-1.2-0.1-1.8c0-2,3.1-2.4,3.2-0.3
			C-289.7,99.5-289.7,100.1-289.8,101z"/>
	</g>
	<g>
		<path class="st4" d="M-273.8,82.3c1.7,0.5,7.6,1.7,9.4,1.5c0.6-0.1,1.4-0.4,1.4-1c0-0.3-0.2-0.5-0.3-0.7c-1.6-2.2-3.2-4.4-5.3-6.2
			c-1.6-1.4-4.7-1.5-6.5-2.6c-1.7-1-2.2-3-3.9-4.1c-0.9-0.6-1.9-1.2-2.5-2.1c-0.5-0.8-0.7-1.9-1.2-2.7c-1.1,3-2.8,4.4-5.2,6.5
			c-1.2,1.1-2.7,3.3-3.6,4.6c-1.8,2.7-0.5,5.3-2.5,7.8c-0.6,0.7-1,1.8-1.2,2.8c-0.3,1.6-0.5,4.3,1.2,2.6
			C-290.7,85.2-282.6,79.8-273.8,82.3z"/>
	</g>
	<g>
		<path class="st5" d="M-292.4,82.7C-292.4,82.7-292.4,82.7-292.4,82.7c0.5-1.2,1.2-2.2,1.5-3.5c0.1-0.6,0.2-1.3,0.3-1.9
			c0.3-1.9,1.6-3.6,2.7-5.2c1.2-1.6,2.5-3.2,4.5-3.4c2.5-0.2,4.5,2.3,5.2,4.8c0.5,1.9,1,4.4,2.9,5c0.6,0.2,1.3,0.1,2,0.2
			c1.4,0.2,2.7,1.3,3.1,2.7c-1.7,0.5-3.3,1.1-5.1,1.1c-1.2,0-2.5-0.2-3.7-0.2c-1.2,0-2.4,0.2-3.6,0.5c-2.6,0.5-5.4,1.1-7.3,3
			C-293,88.5-293.5,85.2-292.4,82.7z"/>
	</g>
	<g>
		<ellipse class="st6" cx="-232.4" cy="113.9" rx="6.9" ry="5.9"/>
		<ellipse class="st7" cx="-232.4" cy="113.9" rx="6.2" ry="5.3"/>
		<g>
			<circle class="st3" cx="-235" cy="116.6" r="1.5"/>
			<circle class="st4" cx="-233.1" cy="114.4" r="2.4"/>
		</g>
	</g>
	<g>
		<path class="st6" d="M-279,128c0,3.5-3.9,4.5-4.6,4c-1.7-1-2.9-3.1-2.9-5.5c0-3.5,2.2-5.9,5.2-5.9c0.6,0,0.7,0.4,1.2,0.6
			C-279,123.7-279,125.3-279,128z"/>
		<path class="st7" d="M-279,128c0,3-3.9,3.7-4.5,3.3c-1.5-0.9-2.6-2.8-2.6-4.9c0-3,2.1-5.5,4.8-5.5c0.6,0,0.8,0.4,1.3,0.6
			C-279,123.7-279,125.7-279,128z"/>
		<g>
			<circle class="st3" cx="-282.2" cy="130.1" r="1.5"/>
			<circle class="st4" cx="-281.3" cy="127.3" r="2.1"/>
		</g>
	</g>
	<g>
		<g>
			<path d="M-188.5,166.3c7.4,0.9,14.5,3,21.2,6.4c3.3,1.7,6.8,4,10.5,4.2c4.1,0.2,6.2-2.8,6.9-6.5c1.2-6,0-12.7-2.3-18.3
				c-1.2-2.9-2.7-5.5-4.7-7.9c-2-2.4-4.6-3.9-7.1-5.7c-1.6-1.1,0.1-3.1,1.7-2.6c6.3,2.1,11.2,9,13.8,14.9c2.8,6.4,4.1,14.6,2.3,21.4
				c-0.8,3.1-2.5,6.1-5.6,7.6c-3.7,1.7-7.6,0.4-11.1-1.3c-4-2-7.8-4.4-12-6c-4.5-1.7-9.2-2.9-14-3.5
				C-190.6,168.7-190.2,166.1-188.5,166.3L-188.5,166.3z"/>
		</g>
	</g>
	<g>
		<g>
			<path d="M-154.9,143.3c15.5-20.1,35-39,60.2-45.7c14.8-3.9,30.3-4.4,45.4-6.3c15.1-1.9,30.3-4.6,45.1-7.9
				C10.2,80.1,24.2,75.5,37,68c13.5-7.9,26-17.6,38.7-26.7C81.8,37,88,32.7,93.6,27.8c5.6-4.9,10.6-10.4,15.3-16.2
				c9.5-11.7,19-23.4,28.1-35.4c10.3-13.6,20.2-27.5,29.1-42.1c8.1-13.3,15.8-27.4,27.3-38.1c1.5-1.4,4,0.5,2.5,2.1
				c-9.7,10.4-16.9,22.6-24.1,34.9c-7.6,12.8-15.7,25.1-24.4,37.2C138.6-17.4,129.4-5.1,119.9,7c-4.7,6-9.3,12-14.3,17.6
				c-4.9,5.5-10.5,10.2-16.4,14.6C76.8,48.4,64.2,57.4,51.5,66C39,74.5,25.8,81.3,11.3,85.6c-28.9,8.6-59.5,10-89.2,13.7
				c-8.1,1-16.1,2.6-23.7,5.5c-6.7,2.6-13,6-19,10c-12.5,8.3-22.7,18.6-32,30.4C-153.8,146.7-156.1,144.8-154.9,143.3L-154.9,143.3z
				"/>
		</g>
	</g>
	<g>
		<g>
			<path d="M193.4-99.5c34,1.3,65.7,26.4,74.2,59.4c1.1,4.4,1.9,8.8-0.2,13c-1.9,3.8-5.3,6.6-9,8.5c-4.7,2.4-10,3.4-15,5.1
				c-4.5,1.5-8.9,3.6-12.9,6c-7.9,4.8-14.7,11.1-20.1,18.5c-5.8,7.9-11,18.1-10,28.1c0.4,4.7,2.5,9.7,6.5,12.5
				c3.3,2.2,7.3,2,10.9,0.5c8.3-3.5,11-11.6,14.3-19.2c1.5-3.6,3.5-7,6.4-9.7c3.4-3.3,7.7-5.4,11.9-7.3c9.9-4.2,20.4-6.7,30.2-11.4
				c9.4-4.4,19.8-9.8,26.3-18.2c6.4-8.2,8.1-19.4,8-29.5c-0.2-20.2-8.4-40.8-20.2-57.1c-12.6-17.3-29.3-31-46.4-43.5
				c-8.8-6.4-17.7-13.2-27.5-18c-5-2.4-10.3-4.3-15.8-4.9c-5.8-0.7-10.9,0.4-16.5,2.2c-4.3,1.4-8.5,1.1-11.9-2.1
				c-1.2-1.1,0.4-3.1,1.7-2c5.1,4.3,10.7,0.3,16.2-0.8c5.2-1,10.7-0.7,15.9,0.4c10.6,2.4,19.8,8.4,28.5,14.5
				c17.9,12.4,35.4,25.5,50.2,41.7c14,15.3,25.2,33.5,29.2,54.1c2,10.2,2.2,21-0.2,31.1c-2.3,10-7.7,18.3-16.1,24.3
				c-9,6.4-19.4,11.2-29.6,15.2c-9.8,3.8-21.4,5.8-29.8,12.5c-6.8,5.3-8,14.1-12.3,21.1c-3.9,6.2-11,11.6-18.6,10.8
				c-8.5-0.9-13.4-9.4-13.9-17.3c-0.7-9.9,3.8-19.6,9.1-27.7c4.9-7.6,11.4-14.2,18.9-19.3c3.7-2.6,7.7-4.8,11.9-6.6
				c4.7-2,9.7-3.2,14.5-4.8c4.8-1.6,9.8-4,12.3-8.7c2.5-4.7,0.6-10.2-0.9-14.9c-2.7-8.4-7-16.3-12.5-23.3
				c-11.2-14.3-27.1-24.8-44.9-28.7c-4.2-0.9-8.4-1.5-12.7-1.7C191.7-96.9,191.8-99.6,193.4-99.5L193.4-99.5z"/>
		</g>
	</g>
	<g>
		<g>
			<path d="M177.5-165.9c-0.6-4.2-1.5-7.9-3-11.9c-1.5-3.7-3.2-7.3-5.3-10.7c-4.2-6.7-10.3-11.4-17.7-14.2
				c-7.5-2.8-15.8-3.5-23.7-4.1c-9.2-0.7-18.6-0.6-27.8-0.3c-2.8,0.1-4.7,1-7,2.4c-1.6,1-3.3,1.7-5.2,1.9c-3.9,0.5-7.9-1-10.5-3.8
				c-1.1-1.2,0.5-3.2,1.7-2c3.1,3.2,7.9,3.9,11.7,1.5c1.8-1.2,3.2-2.6,5.3-3.3c2-0.6,4.3-0.5,6.4-0.5c9.5-0.1,18.9-0.6,28.4-0.6
				c16.3,0,33.8,4.1,43.1,18.8c5,7.8,6.5,17.3,6.5,26.5C180.5-164.3,177.8-164,177.5-165.9L177.5-165.9z"/>
		</g>
	</g>
	<g>
		<g>
			<path d="M76.6-206c-5.8-5.7-12.8-8.6-20.2-11.4c-4.1-1.6-8.5-3.9-12.8-4.7c-2.3-0.4-4,0.4-6,1.1c-1.7,0.6-3.3,0.7-5.1,0.8
				c-1.8,0-3.4-0.1-5.1-0.7c-1.7-0.6-3.3-0.9-5.1-0.5c-3.5,0.7-6.7,3-8.8,5.8c-5.1,6.4-4.8,16.1,2.9,20.4c1.7,0.9,0.4,3.7-1.3,2.8
				c-5.3-2.9-8.6-8.6-8.2-14.7c0.4-6.5,5.1-12.8,10.8-15.7c2.5-1.3,5.3-2,8.1-1.6c1.8,0.2,3.4,1.2,5.3,1.2c1.9,0.1,3.7,0,5.5-0.7
				c3.5-1.3,6.1-2,9.8-0.8c4.1,1.3,8.1,3,12,4.5c7.3,2.8,15.5,5.9,20.4,12.4C79.6-206.6,77.8-204.8,76.6-206L76.6-206z"/>
		</g>
	</g>
	<g>
		<g>
			<path d="M-91-89.3c3.9-10,4.4-20.9,1.5-31.2c-1.4-5-3.4-9.8-5.7-14.5c-2.2-4.6-5-8.9-7.4-13.5c-9.7-18.6-18-38.2-23.2-58.6
				c-1.2-4.8-2.3-9.6-5.2-13.8c-2.7-3.9-6.6-6.8-10.7-9.2c-4.1-2.4-8.5-4.7-12.9-6.5c-5.1-2.1-10-2.6-15.4-1.6
				c-4.9,0.9-9.6,2.3-14.6,2.1c-2.4-0.1-4.8-0.5-7.2-0.1c-2.5,0.4-4.8,1.6-6.9,3c-1.8,1.2-3.5,2.5-5.1,3.9c-1.6,1.4-4.3,3.2-5.1,5.3
				c-1.2,3.2,0.9,7.2,2.1,10.1c0.8,1.8,1.5,3.8,2.7,5.4c1.5,1.9,3.4,2.5,5.7,3c2.7,0.5,5,1,7.1,2.8c1.9,1.5,3.8,2.5,6,3.5
				c7.9,3.9,14.5,8.3,19.1,16c1.2,2-1.8,4.1-3,2.1c-2.3-3.8-5.1-7.1-8.6-9.7c-3.3-2.4-7-4.1-10.7-5.9c-2.1-1-3.7-2.1-5.5-3.5
				c-2.3-1.7-5.3-1.5-8-2.4c-3.7-1.3-5.7-4.2-7.3-7.6c-1.6-3.5-3.3-6.8-3.6-10.7c-0.4-4.6,1.8-7,5.1-9.9c3.5-3.2,7.3-6.4,11.8-8.1
				c5-2,9.9-0.6,15.1-1.1c5.6-0.6,11-2.8,16.7-2.8c5.3,0,10.3,1.9,15,4.2c9,4.4,18.3,9.1,23.3,18.2c5.1,9.4,7.1,20.4,10.6,30.5
				c3.8,10.9,8.5,21.4,13.2,31.9c2.6,5.9,5.4,11.6,8.1,17.4c2.6,5.7,5.5,11.2,7.3,17.3c3.4,11.7,2.9,24.1-1.6,35.4
				C-89.1-86.3-91.7-87.5-91-89.3L-91-89.3z"/>
		</g>
	</g>
	<g>
		<g>
			<path d="M-165.8-180.9c2.1,8.9,3.7,17.9,4.9,26.9c1.2,9.3,2.3,18.7,2.5,28c0.1,4.3-0.3,8.6-1.5,12.8c-1.2,4.3-2.8,8.6-3.8,13
				c-2,8.4-3.4,16.9-7,24.8c-3.3,7.3-7,14.5-11.4,21.2c-4.4,6.8-9.2,13.4-13.6,20.3c-9.3,14.4-15.5,30.2-19.9,46.7
				c-2.5,9.5-4.3,19.2-5.6,28.9c-1,7.6-1,14.9-6.9,20.6c-1.7,1.6-4.6-0.7-2.9-2.4c2.4-2.3,3.9-4.8,4.5-8.1c0.6-3.4,0.8-6.9,1.3-10.3
				c1.1-8.4,2.4-16.8,4.1-25.1c3.3-16.4,8.8-32.3,17.4-46.7c4-6.8,8.6-13.2,13.1-19.7c2.2-3.2,4.5-6.4,6.6-9.6
				c2.2-3.4,4.7-6.7,6.6-10.3c3.9-7.5,6.4-15.3,8.2-23.6c0.9-4.3,1.9-8.6,3.2-12.8c1.3-4.3,3.2-8.4,4-12.8c1.7-9.8,0-20.4-1.1-30.2
				c-1.2-10.4-3.1-20.6-5.1-30.9C-168.6-181.8-166.2-182.4-165.8-180.9L-165.8-180.9z"/>
		</g>
	</g>
	<g>
		<g>
			<path d="M-88.4-101.6c0.9-4.8,3.8-8.9,7.9-11.7c0.8-0.6,2.2-0.3,2.5,0.8c0.5,1.7,0.9,3.3,1.4,5c-1-0.2-1.9-0.3-2.9-0.5
				c3.1-3.5,5.9-7.2,8.4-11.2c0.6-1,1.6-1.2,2.6-0.6c1.3,0.8,2.3,1.9,3.2,3.1c-1,0.4-2.1,0.8-3.1,1.1c-0.7-5.3,3.1-9.6,7.5-12
				c2.7-1.4,5.7-2.1,8.5-3c2.7-0.8,5-2,7.5-3.3c7.9-4,16.8-6.2,24.5-10.7c1.6-0.9,3.2-2,4.5-3.3c1.5-1.5,2.2-3.4,2.9-5.4
				c1.4-3.4,2.3-7.1,4.1-10.2c3.7-6.5,11.7-7.8,18-10.6c4.4-1.9,8.6-4.5,13.1-6.2c2.1-0.8,4.4-0.9,6.5-1.2c1.3-0.2,5-0.4,5.4-2
				c0.5-1.9,3.3-1.5,3.1,0.5c-0.5,3.7-5.2,4.3-8.2,4.7c-1.9,0.3-3.9,0.4-5.7,1c-1.7,0.6-3.4,1.5-5,2.3c-4,1.9-8.1,3.8-12.2,5.4
				c-3.6,1.4-7.7,2.3-10.6,5c-5.1,4.8-4.4,13.5-9.4,18.4c-2.9,2.8-6.7,4.7-10.1,6.7c-4.1,2.3-8.5,4-12.8,5.8
				c-4.3,1.8-8.3,4.5-12.7,6c-5.6,1.9-16.5,3.6-15.6,11.8c0.2,1.7-2.1,2.5-3.1,1.1c-0.7-1-1.6-1.8-2.6-2.5c0.9-0.2,1.8-0.4,2.6-0.6
				c-2.7,4.2-5.7,8.2-8.9,11.9c-0.8,0.9-2.5,0.8-2.9-0.5c-0.5-1.7-0.9-3.3-1.4-5c0.8,0.3,1.7,0.5,2.5,0.8c-3.4,2.3-5.7,5.5-6.8,9.5
				C-85.9-99.2-88.8-99.6-88.4-101.6L-88.4-101.6z"/>
		</g>
	</g>
	<g>
		<g>
			<path d="M29.3-84.7c-2.1-6.6-7.7-12.1-11.7-17.6c-4.7-6.3-7.4-13.2-8.9-20.8c-1.6-8.2-1.9-17.4,0.8-25.4
				c2.6-7.7,8.1-14.3,14-19.7c3.1-2.8,6.2-5.6,9.9-7.5c3.3-1.8,7.4-3,9.2-6.6c1.2-2.4,5-0.6,3.8,1.8c-2.9,6-9.8,7.5-14.7,11.3
				c-6.3,5-12.4,10.8-16.4,17.9c-4.1,7.4-4.5,16.4-3.5,24.7c1,8,3.5,15.5,8.2,22.1c4.3,6,9.7,11.7,11.8,18.8
				C32.3-83.9,29.8-83,29.3-84.7L29.3-84.7z"/>
		</g>
	</g>
	<g>
		<g>
			<path d="M16.1-195c3.8,1.7,7.2,4.4,10.9,6.5c4.1,2.4,7.7,3.8,12.5,3.6c4.1-0.1,7.4,0.2,11.1,2c4,1.9,7.9,2.2,12.2,3.1
				c1.7,0.4,1.8,3.3-0.1,3.3c-4-0.1-8.2-0.9-11.9-2.5c-2.4-1-4.4-2.3-7-2.6c-2.2-0.2-4.4,0-6.6,0c-8.3-0.3-15.7-6.9-22.3-11.3
				C13.6-193.7,14.9-195.5,16.1-195L16.1-195z"/>
		</g>
	</g>
	<g>
		<g>
			<path d="M-37.7-133.9c-1.5-4-5.3-5.4-9-6.9c-4.3-1.8-8.4-3.9-12.3-6.5c-6.6-4.3-14-10.6-12.6-19.4c0.6-3.7,2.7-6.4,6-8.2
				c2-1.1,3.4-2.6,5.2-4c1.8-1.3,3.8-2.2,5.9-2.8c9.3-2.6,18.2,1.4,27.3,2.8c5.5,0.9,10.9,0,16.2,2.1c4.6,1.8,9,5.3,14.1,4.3
				c2.3-0.4,2.6,3.2,0.3,3.6c-3.8,0.8-7.3-0.5-10.7-2.1c-4.3-2-7.9-3.6-12.8-3.8c-4.6-0.1-8.9-0.6-13.3-1.7c-4.5-1.1-9-2.4-13.6-2.6
				c-4.3-0.2-8.7,0.6-12,3.5c-1.7,1.4-3,2.7-5,3.8c-1.9,1.1-3.2,2.4-3.8,4.5c-2.4,8.7,7.7,15.3,14,19c3.9,2.3,8.2,3.9,12.2,6
				c3.1,1.6,6.1,3.9,6.5,7.6C-35-133-37.2-132.5-37.7-133.9L-37.7-133.9z"/>
		</g>
	</g>
	<g>
		<g>
			<path d="M-175.1-186.2c-4.8,0.4-11.9-0.1-13.1,6.1c-0.6,2.9,0.3,5.9,0.1,8.8c-0.2,3.2-1.7,6-0.7,9.3c0.9,2.8,2.9,5.1,4.9,7.1
				c2.1,2.1,4.6,4.6,7.4,5.7c2.8,1.1,5.9,1.2,8.7,2.5c2.6,1.2,5.5,3,7.6,5c1.3,1.2-0.1,3.7-1.8,2.7c-3.7-2-6.7-4.7-10.9-5.8
				c-3.4-0.9-6.2-1.7-8.9-4c-4.7-3.8-10.3-9-10.5-15.5c-0.1-1.7,0.4-3.3,0.7-4.9c0.5-2.1,0.4-4.1,0.3-6.2c-0.2-3-0.3-6.2,1.4-8.9
				c3-4.6,9.9-5.4,14.9-4.8C-173.4-188.8-173.5-186.3-175.1-186.2L-175.1-186.2z"/>
		</g>
	</g>
	<g>
		<g>
			<path d="M-274.7,157.8c-4.7,5.2-8,11.6-9.4,18.5c-1.2,5.9-1.8,17,4.6,20.2c6.2,3.2,9.6-6,12.9-9.4c4.6-4.6,10.8-7.3,17-8.9
				c1.7-0.4,2.6,1.8,0.9,2.6c-3.8,1.6-7.7,2.8-11.2,5.1c-3.3,2.1-5.2,5.1-7.4,8.2c-1.7,2.5-3.8,5-6.7,6.2c-3.2,1.2-6.8,0.3-9.3-2
				c-5.8-5.1-5-14.5-3.7-21.3c1.5-7.8,5-15,10.3-20.9C-275.6,155-273.7,156.6-274.7,157.8L-274.7,157.8z"/>
		</g>
	</g>
	<g>
		<g>
			<path d="M-250.4,176.4c5.2,1.9,9.9,3.7,15.6,4.1c5.7,0.4,11.4-0.7,16.9-2.2c5.4-1.5,10.7-3.6,15.8-6c2.5-1.2,5-2.3,7.4-3.6
				c2.2-1.3,3.8-3.1,5.7-4.6c1.7-1.3,3.5,0.8,2.9,2.4c-1.8,4.9-9,7.2-13.3,9.1c-6,2.7-12.1,5.1-18.4,6.7c-5.7,1.4-11.7,1.9-17.5,1.5
				c-5.5-0.4-11.9-1.7-16.4-5.2C-253.1,177.6-251.7,176-250.4,176.4L-250.4,176.4z"/>
		</g>
	</g>
	<g>
		<g>
			<path d="M-274.3,158.6c-1.7-1.1-3-3-4.4-4.4c-1.7-1.7-3.4-3.4-5-5.1c-3-3.2-6-6.6-8.1-10.4c-4.2-7.8-3.6-17.6-1.5-25.9
				c0.4-1.8,3-1.3,2.8,0.5c-0.8,8.8-2.3,17.5,2.6,25.4c2.3,3.7,5.3,6.9,8.3,10c2.5,2.6,5.9,5.2,7.6,8.5
				C-271.4,158.4-273.3,159.3-274.3,158.6L-274.3,158.6z"/>
		</g>
	</g>
	<g>
		<g>
			<path d="M-293.3,111.6c1.1-5.8-4.2-10.2-6.1-15.2c-2-5-2-10.7-0.6-15.8c1.2-4.4,1-8.5,3.5-12.5c1.4-2.3,2.7-5.1,4.4-7.1
				c1.3-1.5,3.4-1.8,5.1-2.6c1.6-0.8,2.5,1.8,0.9,2.6c-0.9,0.5-2,0.7-2.9,1.2c-1.3,0.7-1.7,1.9-2.5,3.1c-1.3,2.2-3,4.3-4,6.6
				c-0.8,2-0.9,4.3-1.2,6.4c-0.3,2.2-1.1,4.4-1.4,6.6c-0.8,5.9,1.4,10.6,4.4,15.5c2.2,3.8,4.3,7.8,2.9,12.2
				C-291.2,113.8-293.5,113-293.3,111.6L-293.3,111.6z"/>
		</g>
	</g>
	<g>
		<g>
			<path d="M-289.1,59c0.3-3.1,2.9-5.4,5.2-7.1c3-2.2,6.1-4.5,9.5-6.1c5.8-2.8,12.7-3.2,19-2.4c4.5,0.6,8,1.6,11.8,4.1
				c2.9,1.9,5.6,4.2,7.7,7c1,1.3,1.8,2.7,2.4,4.2c0.3,0.7,0.4,1.4,0.7,2c0.7,1.4,1.5,1.4,2.9,1.6c2,0.3,1.5,3.4-0.6,3.2
				c-3-0.4-4.5-1.5-5.6-4.3c-1.1-3.1-3-5.6-5.4-7.8c-3.4-3.1-7.1-5.4-11.5-6.2c-5.7-1.1-12-1.4-17.5,0.5c-3.4,1.1-6.1,3.3-9.1,5.2
				c-3,2-5.4,3.6-6.9,7.1C-287,61.5-289.2,60.6-289.1,59L-289.1,59z"/>
		</g>
	</g>
	<g>
		<g>
			<path d="M-177.4-237.3c-2.1,2.3-2.4,6.1-2.2,9.1c0.3,3.7,2.2,7.2,5.6,8.8c1.5,0.7,0.4,3-1.1,2.4c-4.4-1.9-7.3-5.5-7.7-10.3
				c-0.3-3.9,0.2-8.9,3.1-11.9C-178.3-240.6-176-238.7-177.4-237.3L-177.4-237.3z"/>
		</g>
	</g>
	<g>
		<g>
			<path d="M-197.5-233.1c-3.9,6.6-0.1,13.9,5,18.6c1.3,1.1-0.4,3.1-1.7,2c-6.4-5-10.3-14.3-5.7-21.7
				C-199-235.7-196.6-234.6-197.5-233.1L-197.5-233.1z"/>
		</g>
	</g>
	<g>
		<g>
			<path d="M-187.3-176.2c-0.9,5.3,3.4,9.4,7.8,11.4c1.7,0.8,0.5,3.1-1.2,2.5c-5.8-2.2-10.6-8.1-9.5-14.5
				C-189.9-178.6-187-178.1-187.3-176.2L-187.3-176.2z"/>
		</g>
	</g>
	<g>
		<g>
			<path d="M38.5-220.3c-3,5.2-4.8,14.8,0.1,19.4c1.3,1.2-0.4,3.3-1.8,2.1c-6.1-5-4.5-16.8-0.9-22.8C36.8-223.2,39.4-222,38.5-220.3
				L38.5-220.3z"/>
		</g>
	</g>
	<g>
		<g>
			<path d="M18.6-218.3c-1.7,3.4-3.1,7.7-2.3,11.6c0.8,4,3.8,6.8,7,9c1.3,0.9-0.1,3.2-1.5,2.3c-3.8-2.3-7.1-5.9-8.1-10.3
				c-1.1-4.5,0.4-9.8,2.6-13.7C17-221,19.4-219.9,18.6-218.3L18.6-218.3z"/>
		</g>
	</g>
	<g>
		<g>
			<path d="M-47.8-177.8c-3.5,3.1-6.1,6.7-5.6,11.6c0.4,4.4,3.2,7.6,6.8,9.9c1.4,0.9-0.1,3.1-1.6,2.4c-10.3-4.6-11.3-21.2-0.9-26.3
				C-47.6-180.9-46.8-178.7-47.8-177.8L-47.8-177.8z"/>
		</g>
	</g>
	<g>
		<g>
			<path d="M-285.8,58.2c1.6,0.4,2.7,1.1,3.7,2.4c-0.6-0.1-1.3-0.2-1.9-0.3c7.1-4.2,14.7-8.6,23.2-9.1c6.8-0.4,13.8,1.6,18.1,7.1
				c1,1.3-1,3.2-2.1,1.9c-10.7-11.3-26.3-3.8-37.6,2.3c-0.6,0.4-1.5,0.3-1.9-0.3c-0.4-0.8-1-1.2-1.9-1.4
				C-287.8,60.4-287.4,57.9-285.8,58.2L-285.8,58.2z"/>
		</g>
	</g>
	<rect x="-375" y="-375" class="st8" width="750" height="750"/>
</symbol>
<use xlink:href="#Clouded_Leopard"  width="750" height="750" x="-375" y="-375" transform="matrix(2.304 0 0 -2.304 719.6321 486.8243)" style="overflow:visible;"/>
</svg>
