<?xml version="1.0" encoding="utf-8"?>
<!-- Generator: Adobe Illustrator 22.1.0, SVG Export Plug-In . SVG Version: 6.00 Build 0)  -->
<svg version="1.1" id="Layer_1" xmlns="http://www.w3.org/2000/svg" xmlns:xlink="http://www.w3.org/1999/xlink" x="0px" y="0px"
	 viewBox="0 0 1478.4 1396.7" style="enable-background:new 0 0 1478.4 1396.7;" xml:space="preserve">
<style type="text/css">
	.st0{clip-path:url(#SVGID_5_);}
	.st1{fill:#FFFFFF;}
	.st2{fill:#CAC9C9;}
	.st3{fill:#1D1D1B;}
	.st4{fill:#3A1822;}
	.st5{fill:#7F2B49;}
	.st6{fill:#242025;}
	.st7{fill:#1C1019;}
</style>
<symbol  id="Dalmatian_2" viewBox="-68.6 -60.5 137.2 120.9">
	<g id="Colours_1_">
		<defs>
			<path id="SVGID_2_" d="M-67.1-18.6c6.7,2.8,13.4,8.3,19.4,12.5c2.5,1.8,5,3.6,7.2,5.8c1.7,1.8,3.2,3.8,4.8,5.6
				c3.4,3.8,7.6,6.9,12.2,8.9c8,3.6,17,4.3,25.7,4.6c7.5,0.3,15.3,0.5,22.1,3.9c0.5,0.3,1,0.5,1.6,0.6c0.9,0.2,1.8-0.1,2.4-0.8
				c0.2,1.1,0.7,1.8,2.4,1.5c0,1.1,0.3,1.9,1.4,1.9c0.3,0.9,0.8,2.2,1,2.7c0.6,1.4,1.1,2.7,1.4,4.2c0.7,2.9,1.5,6.1,1.9,9
				c-1.7,1.8-1.9,3.2-0.6,5.5c1,1.8,2.3,5.1,4.5,4.8l0,0.2c0.7,0.8,1.5,1.8,2.3,2.2c0.9,0.6,2,0.9,3,1.4c0.9,0.4,2.2,0.3,3.1,0.4
				c1,0,1.9-0.2,2.9-0.1c0.7,0.1,3,0.8,3.1-0.4l0-0.1c0.7-0.8,2.2-0.7,2.9-0.6c1.3,0.2,2.7,0.5,4,0.9c1.3,0.4,3,0.8,4.3,0.3
				c1.4-0.5,1.4-1.8,1.4-3.1c0-0.6-0.4-3.2-0.6-3.8l-0.2-0.4c-0.4-0.7-0.9-1.4-1.4-2l0-0.1c0.6-0.2,0.8-1.5,0.8-1.8l0-0.1
				c0.5-0.1,0.9-0.3,1-0.7c0.3-1.6-0.7-3.2-2.1-3.8c-1.2-0.5-2.6-0.4-3.9-0.9c-1.5-0.6-2.5-2.1-4-2.7c-0.4-0.1-0.7-0.2-1.1-0.3
				c-2.2-2-3.4-4.8-3.4-7.7c0-1.8,0.4-3.6,0.4-5.4c-0.1-1.7-0.6-3.3-0.6-4.9c-0.1-3.2,1.5-6.2,1.9-9.4c0.4-4-1.2-7.9-3.1-11.5
				c-1.9-3.6-4.1-7-5-10.9c-0.5-1.9-0.6-3.9-0.7-5.8c-0.4-8.5,0.2-17,2.7-25.1c0.2-0.6,0.4-1.2,0.8-1.6c0.9-0.9,2.3-0.8,3.6-1.2
				c2-0.7,3.2-2.8,2.8-4.9l0,0c-0.3-0.2-0.8-0.2-1.2-0.2c-0.4-0.1-0.7-0.2-1.2-0.3c-0.9-0.1-1.7,0.3-2.5,0.3
				c-0.5-0.4-1.7-0.3-2.3-0.2c-0.6,0.1-0.9,0.4-1.5,0.4c-0.9,0.4-1.4,2.5-1.6,3.5c-0.6-0.4-2.3-0.5-2.8,0.1l-0.1,0
				c-0.1-0.3-0.3-0.6-0.5-0.6c-0.7-0.1-1.5,0.4-1.8,1s-0.5,1.4-0.7,2.1c-0.4,1.9-1,3.8-1.8,5.6c-0.1,0.3-0.3,0.7-0.6,0.9
				c-0.2,0.1-0.5,0.2-0.7,0.3c-1,0.5-1.1,2-1,3.1c0.2,6.6-0.4,13.3-2,19.7c-0.2,1-0.5,2.2-0.7,3.2c-8.7-0.3-17.2,3.1-25.5,5.8
				C2-5.8-3.2-4.4-7.7-6.3c-1-0.8-1.5-2.1-2.2-3.2c-0.5-6.1-1.2-11.8-5.3-16.3c-3.8-4.2-9.8-6.2-14-9.8l0,0c-1-2.8-1.1-6-0.1-8.8
				c0.1-0.4,0.3-0.8,0.7-1.1c0.7-0.6,1.9-0.2,2.7-0.5c0.9-0.4,1.2-1.5,1.4-2.5c0.1-0.5,0.2-1,0.1-1.5l0,0c-0.2-0.5-0.9-0.2-1.3-0.1
				l-0.4,0.1c-1.3-0.6-3.3-0.3-4.3-0.2l-0.5,0c-1.1-0.5-0.9-0.6-2.2,0.5c-0.6,0.5-0.6,1.5-0.7,2.3c-0.1,1-0.2,2-0.2,3l0,0.1
				c-0.3-1.4-0.5-2.7-0.5-4.1c0-1,0.1-2.1,0.7-2.9c0.6-0.8,1.6-0.9,2.7-0.9c0.8-0.1,1.4-0.8,1.9-1.4c0.3-0.4,0.6-0.8,0.8-1.2
				c0.3-0.8,0.1-1.4-0.4-2c-1-1.3-2.2,0.1-3.3-0.2c-0.7-0.2-1-0.5-1.8-0.4c-0.6,0-1.1,0.3-1.6,0.3c-2.4-0.3-3.2,2.5-3.3,4.5
				c-0.1,2.1,0.3,4.1,0.3,6.2c0,1.7-0.2,3.4-0.7,5c-0.7,2.2-1.8,4.7-0.6,6.7c0.3,0.5,0.8,1,1.2,1.4c1.8,1.6,3.5,3.3,5.3,4.9
				c1.2,1.1,2.4,2.2,3.3,3.5c3.5,4.9,2.4,12-1.1,16.9c-0.8,1.1-1.7,2.1-1.8,3.4C-33.2-3.7-33-3-32.9-2.3c0.4,1.6,1.1,5,1.1,5
				c-8.8-7.5-16.4-16.4-27.7-20.2C-61.9-18.3-64.7-19.6-67.1-18.6L-67.1-18.6z M65.1,46l0.2,0.6l-0.1,0.2l-0.6-0.6L65.1,46z"/>
		</defs>
		<clipPath id="SVGID_5_">
			<use xlink:href="#SVGID_2_"  style="overflow:visible;"/>
		</clipPath>
		<g id="Base_1_" class="st0">
			<rect x="-68.6" y="-60.5" class="st1" width="137" height="120.9"/>
			<g id="Light_1_1_">
				<g>
					<path class="st2" d="M-9.7-8.7C-6-3.7-1.3-2.1,4.6-4C7.2-4.8,9.3-5.7,12-6c2.5-0.3,5.1-1.3,7.4-2.2c2.8-1.2,13.2-4.5,12.9,1.1
						c0,0.9-1.1,3,0.8,2.2c0.9-0.4,1.8-2.4,1.9-3.4c0.4-2.5-1-4.9-0.7-7.3c0.4-3,2-5.2,1.1-8.4c-0.6-2-0.8-8.3-2.9-9.2
						c-1.3,3.2-0.9,6.6-4.2,8.7c-4,2.7-9.1,3.7-13.7,4.6c-4.8,1-9.4,2.5-14.2,3.4c-2.5,0.5-5.1,0.8-7.4,2.1
						C-8.7-13.3-11.8-10.8-9.7-8.7z"/>
				</g>
				<g>
					<path class="st2" d="M55.9,36.7c-5.2,0.1-5.6-6.7-6.3-10.5c-0.8-4.3-2.1-10.5,0-14.5c0.8-1.6,1.2-1.7,0.6-3.4
						c-0.3-1.1-0.7-2-0.6-3.1c0.2-2.3,1.1-4.2,0.2-6.6c-1-2.6-3.4-4.5-4.8-6.8c-1.3-2.2-1.4-4.9-1.5-7.3c-0.1-3,0.4-5.9,1.2-8.7
						c0.8-2.9,0.2-7.2,1.9-9.8c1.2,1.6,1.5,4.3,2.4,6.2c1.2,2.7,2.8,5.1,3.9,7.8c3.3,7.8,4.8,16,6.6,24.2c0.9,3.8,2,7.5,2.2,11.4
						c0.1,2.5-0.1,5,0,7.5c0.1,3.4,0.5,5.7-0.6,9c-0.5,1.4-0.8,2.7-2.2,3.5C58,36.1,56.7,35.7,55.9,36.7z"/>
				</g>
				<g>
					<path class="st2" d="M61.9,40.2c-0.8-0.3-1.7-0.1-2.5,0c-1.2,0.1-1.7-0.1-2.9-0.4c-2-0.4-4.1,0.5-6-0.1c2.3-0.6,3-2.8,5.5-2.9
						C57.1,36.8,62.9,37.6,61.9,40.2z"/>
				</g>
				<g>
					<path class="st2" d="M37.1,41.7c1.6-2.6,4.4-3.1,7.1-3.3c-1.9-1.5-4.5-3.4-7-2.5C34.6,36.8,33.3,41.6,37.1,41.7z"/>
				</g>
				<g>
					<path class="st2" d="M-31.1,2.9c0-10,7-19.7,0-28.7c-1.8-2.3-3.2-4.7-4.9-7.1c-0.9-1.3-1.8-2.5-2.3-3.9
						c-0.5-1.3-0.6-3.1-1.2-4.3c-1.3-2.4-2.5,0.4-3.1,2c-0.8,2.1-0.8,4.3-1,6.5c-0.4,5.2,2.9,8.8,5,13.2c1.2,2.3,1.8,4.3,2.1,6.9
						c0.3,2.2,0.4,4.6,1.2,6.7c0.6,1.7,1.3,3.1,1.6,4.8C-33.5,0.2-32.7,1.9-31.1,2.9z"/>
				</g>
				<g>
					<path class="st2" d="M47.4,56c2,0.2,2.9-0.8,4.6-1.3c1.3-0.4,3.5,0,4.8,0.5c2.9,1,1.6,2.4-0.7,2.9c-1.8,0.4-3.6,0.6-5.5,0.6
						C49,58.8,43.9,57.8,47.4,56z"/>
				</g>
				<g>
					<path class="st2" d="M25.9,22.9c0.3-1.5,1.2-5.8,3.4-5.5c-0.3,0.9-0.8,1.8-1,2.7c-0.1,0.9,0.2,1.8,0,2.7
						C27.9,25.6,25.2,24.3,25.9,22.9z"/>
				</g>
				<g>
					<path class="st2" d="M32.1,25.5c0.2-1,0.6-3.4-0.7-3.7c-0.6,1.2-0.8,3.3-0.8,4.6c0.2,0.1,0.5,0.2,0.8,0.2
						C31.7,26.3,31.9,25.8,32.1,25.5z"/>
				</g>
				<g>
					<path class="st2" d="M51.4,54.5c-1.4,0.4-2.7-1.1-2.5-2.4c0.2-2,2.6-0.7,3.3,0.3C52.6,53.2,52.4,54.2,51.4,54.5z"/>
				</g>
			</g>
			<g id="Spots_2_">
				<g>
					<path class="st3" d="M6.4,14.4c-0.7,0.9-2,0.1-2.1-0.9c0-0.1,0-0.3,0-0.4C3.7,13,3.2,12.6,3,12c-0.2-0.8,0.3-2,1.2-2.2
						c1.3-0.2,2.3,0.3,2.8,1.5c0.1,0.3,0.2,0.6,0.2,0.8c0,0.3-0.2,0.7-0.3,0.9C6.8,13.5,6.7,14,6.4,14.4z"/>
					<path class="st3" d="M13.5,9.1L13.5,9.1C13.5,9.1,13.5,9.1,13.5,9.1C13.5,9.1,13.5,9.1,13.5,9.1C13.5,9.1,13.5,9.1,13.5,9.1
						C13.5,9.1,13.5,9.1,13.5,9.1C13.5,9.1,13.5,9.1,13.5,9.1C13.6,9,13.7,9,13.7,9c0.1-0.1,0.2-0.2,0.2-0.2
						c0.4-0.4,1.1-0.5,1.5-0.2c0.5,0.3,0.8,0.9,0.6,1.4c-0.4,1-1.2,1.7-2.2,1.9c-0.8,0.1-1.6-0.3-1.7-1.2C12,9.8,12.6,9.2,13.5,9.1z
						"/>
					<path class="st3" d="M13.5,9.1C13.5,9.1,13.5,9.1,13.5,9.1c-0.1,0-0.1,0-0.1,0C13.4,9.1,13.5,9.1,13.5,9.1z"/>
					<path class="st3" d="M13.5,12.9c0.2,0,0.4-0.1,0.7-0.1c1.6,0,1.6,2.6,0,2.5c-0.2,0-0.4,0-0.7-0.1
						C12.3,15.2,12.3,13.1,13.5,12.9z"/>
					<path class="st3" d="M22.8,6.1c-0.4,0.3-0.9,0.4-1.5,0.3c-0.1,0-0.1,0-0.2,0c0,0.4-0.1,0.9-0.4,1.2c-0.7,1-2.3,0.7-2.4-0.6
						c0-0.3,0-0.6,0-0.8c-0.1-0.3-0.2-0.6-0.3-0.8c-0.2-0.7-0.2-1.4,0.2-2c0.5-0.7,1.4-1.1,2.3-0.8c0.4,0.1,0.8,0.4,1.1,0.6
						c0,0,0.1,0.1,0.1,0.1c0,0,0,0,0,0c0.3-0.2,0.7-0.3,1.1-0.3c0.7,0,1.5,0.4,1.8,1.1c0.3,0.7,0.2,1.6-0.5,2
						C23.7,6.2,23.3,6.2,22.8,6.1C22.9,6.1,22.9,6.1,22.8,6.1z"/>
					<path class="st3" d="M0.4,8C0.3,8.2,0.1,8.4-0.1,8.5c0,0,0,0-0.1,0c0,0.1-0.1,0.1-0.1,0.2c0.1,0.1,0.5,0.7,0.5,0.8
						c0.4,0.9,0.3,1.9-0.4,2.5c-0.7,0.6-1.7,0.6-2.5,0.2c-0.4-0.2-0.8-0.6-1-1C-3.9,11-4,10.7-4.2,10.6C-5.7,9.2-3.4,6.9-2,8.2
						c0.1-0.2,0.2-0.3,0.3-0.4c-0.2-0.5,0-1.2,0.6-1.4C-0.1,6,0.9,7.1,0.4,8z"/>
					<path class="st3" d="M2.9,15.6c0.5,0,0.9,0.5,1.4,0.7c0.5-0.2,1.2,0,1.3,0.6c0.2,0.7-0.5,1.4-1.2,1.2c-0.5-0.1-0.8-0.2-1.3-0.6
						C3,17.4,2.5,16.9,2.4,17c-0.4,0.5-1.4-0.2-0.9-0.7C1.8,15.8,2.3,15.5,2.9,15.6z"/>
					<path class="st3" d="M14.4-0.9c0.8,0.6,0.7,1.7-0.3,2c-0.7,0.2-1.2,0.3-1.8,0.8c-0.6,0.5-1.1,1-1.9,1.2
						C9.3,3.4,7.4,3.2,7.7,1.6c0.2-1.4,2-1.5,3-1.9C11.8-0.9,13.2-1.8,14.4-0.9z"/>
					<path class="st3" d="M-22-4.6c-1.8,0.5-3.4-2.1-3.6-3.6c0-0.5,0.1-1,0-1.5c-0.1-0.5-0.5-0.8-0.5-1.3c0-0.4,0.2-0.9,0.4-1.2
						c0.1-0.2,0.8-0.5,0.8-0.7c0.3-1.2,2.3-1,2.2,0.3c0,0.4,0,0.7-0.2,1c0,0.1-0.1,0.2-0.2,0.3c0.4,0.7,0.7,1.4,0.7,2.5
						c0,0.6,0,1.2,0.3,1.7c0.4,0.6,0.8,0.8,0.8,1.6C-21.3-5.1-21.6-4.7-22-4.6z"/>
					<path class="st3" d="M-18,5.4c0,0.9-0.6,1.4-1.2,1.6c0,0,0,0,0,0.1c-0.2,0.5-0.5,1-0.9,1.3c-1.2,0.8-2.5,0.3-3.2-0.8
						c-0.2-0.2-0.2-0.6-0.3-0.9c-0.1,0-0.3-0.1-0.4-0.1c-0.3-0.2-0.6-0.4-0.8-0.7c0,0,0,0,0-0.1c0.1,0,0.2,0.1,0.4,0.1
						c-0.2,0-0.3,0-0.4-0.1c-0.1-0.2-0.2-0.1,0,0c-0.4-0.2-0.7-0.6-0.7-1.1c-0.1-1.3,1.4-2,2.5-1.4c0.3,0.2,0.7,0.5,1,0.8
						c0.1,0.1,0.1,0.1,0.1,0.2c0,0,0.1,0.1,0.2,0.2c0,0,0,0,0,0c0.1-0.1,0.1-0.2,0.2-0.3C-20.4,2.6-18,3.6-18,5.4z"/>
					<path class="st3" d="M-24.8,5.7C-24.8,5.7-24.8,5.7-24.8,5.7C-24.8,5.7-24.8,5.7-24.8,5.7C-24.8,5.7-24.8,5.7-24.8,5.7z"/>
					<path class="st3" d="M-15.1-4.4c0,0.1,0,0.1,0,0.2C-15.1-4.3-15.1-4.4-15.1-4.4C-15.1-4.4-15.1-4.4-15.1-4.4z"/>
					<path class="st3" d="M-14.1-1.1c-0.1,0.9-0.8,1.6-1.7,1.8c-0.1,0-0.1,0-0.2,0c0.1,0.1,0.2,0.2,0.3,0.4c0.9-0.2,2,0.5,2.1,1.4
						c0.1,0.4,0.1,0.8,0,1.2c-0.3,0.8-1.2,1.1-2,1l-0.3-0.1c-0.5-0.1-1-0.6-1.2-1.1c-0.5,0-1-0.3-1.3-0.7c-0.5-0.6-0.5-1.4,0-2
						c0.2-0.3,0.6-0.5,0.9-0.6c-0.3-0.2-0.6-0.6-0.7-1c-0.1-0.6,0-1.3,0.5-1.8c-0.3-0.1-0.6-0.4-0.7-0.7c-0.2-0.5-0.4-1-0.2-1.6
						c0.1-0.4,0.3-0.8,0.6-1.1c0.5-0.5,1.4-0.6,2-0.3c0.6,0.4,0.8,0.9,0.8,1.5c0,0,0,0,0-0.1c0,0,0,0.1,0,0.1c0,0.1,0,0.2,0,0.3
						c0-0.1,0-0.1,0-0.2c0,0.1,0,0.2,0,0.4c0,0.3-0.1,0.5-0.2,0.8c0,0,0.1,0,0.1,0C-14.5-2.6-14-1.9-14.1-1.1z"/>
					<path class="st3" d="M-15.7,14.6c0,0-0.1,0-0.1,0c-0.9-0.2-0.9-1.6,0-1.8c0.1,0,0.2,0,0.2,0c0.9-0.5,1.9-0.3,2.8,0.2
						c0.7,0.4,0.9,1.3,0.5,1.9c-0.4,0.7-1.2,0.8-1.9,0.5C-14.7,15.1-15.2,14.9-15.7,14.6z"/>
					<path class="st3" d="M-38.5-36.6c-0.7-0.3-1.2-1-1.2-1.8c0-0.5,0.2-1,0.5-1.3c0,0,0-0.1,0-0.1c0,0,0-0.1,0-0.1
						c-0.4-0.3-0.6-0.7-0.4-1.2c0.2-0.4,0.7-0.8,1.2-0.6c0.2,0.1,0.5,0.2,0.7,0.3c0.1,0.1,0.2,0.2,0.3,0.2c0,0,0,0.1,0.1,0.1
						c0.8,0.3,1.3,1.2,1.4,2.1c0.2,0.6,0,1.3-0.3,1.8C-36.7-36.5-37.7-36.2-38.5-36.6z"/>
					<path class="st3" d="M-32.9-28.7c-0.1-0.1-0.2-0.3-0.3-0.4c0,0,0,0,0,0c-0.1-0.1-0.3-0.2-0.4-0.3c0,0-0.1-0.1-0.1-0.1
						c-0.1,0-0.2-0.1-0.2-0.1c-0.6-0.3-0.8-1.1-0.6-1.7c0.3-0.6,1-1.1,1.6-0.8c0.8,0.3,1.6,0.8,1.7,1.7c0.2,0.4,0.2,0.8,0.2,1.2
						C-31.1-28.4-32.3-28.1-32.9-28.7z"/>
					<path class="st3" d="M-28.5-25.4c-0.8-0.1-1.4-0.4-1.8-1c-0.3-0.4-0.4-0.9-0.4-1.4c0-0.5,0.2-1,0.4-1.4
						c0.2-0.3,0.4-0.4,0.6-0.6c-0.1,0.1-0.1,0,0-0.1c0.1-0.1,0.2-0.2,0.4-0.3c0.8-0.5,1.7,0.1,1.8,1c0,0.2,0,0.4,0,0.5
						c0,0.1,0,0.1,0,0.2c0,0,0,0.1,0,0.1c0.1,0.1,0.1,0.1,0.2,0.2c0.5,0.5,0.6,1.2,0.3,1.8C-27.2-25.9-27.8-25.3-28.5-25.4z"/>
					<path class="st3" d="M31.8,1.4C31.9,1.4,31.9,1.4,31.8,1.4C31.9,1.4,31.9,1.4,31.8,1.4C31.9,1.4,31.8,1.4,31.8,1.4z"/>
					<path class="st3" d="M34.8-1.2c0.6-0.3,1.4,0,1.5,0.6c0.1,0.6,0.2,1.5,0,2c-0.2,0.4-0.4,0.7-0.7,0.9c-0.1,0.1-0.2,0.1-0.3,0.2
						c0,0.4,0.1,0.9,0.1,1.3c0,0.6-0.3,1.1-0.7,1.4c-0.3,0.7-1.2,0.9-1.7,0.2c0-0.1-0.4-0.3-0.5-0.5c-0.3-0.4-0.4-0.7-0.5-1.1
						c-0.1-0.7-0.2-1.4-0.2-2.1c0-0.2,0-0.3,0.1-0.5c0,0,0,0,0,0c0,0,0,0,0,0.1c0,0,0,0,0,0c-0.1,0.1-0.1,0.1-0.1,0.1
						c-0.5,0.4-1.1,0.5-1.6,0c0.2,0.2-0.3-0.2-0.3-0.2c-0.2-0.2-0.4-0.5-0.5-0.8c-0.2-0.6,0-1.2,0.2-1.7c0.4-0.9,1.2-1.5,2.1-1.8
						c0.9-0.3,1.9,0.3,2.1,1.2c0.1,0.5,0,0.9-0.2,1.3c0.2-0.1,0.5-0.2,0.7-0.3C34.4-1,34.6-1.1,34.8-1.2z"/>
					<path class="st3" d="M37.1,8.4c0.2-0.3,0.3-0.6,0.5-0.9C38,7,39,7.1,39.3,7.7c0.4,0.9,0.2,2.4-0.4,3.2c-0.3,0.4-0.8,0.7-1.2,1
						c-0.1,0.1-0.2,0.1-0.3,0.2c-0.1,0.9-1.4,1.2-1.9,0.2c-0.1-0.2-0.1-0.4-0.1-0.6c-0.1-0.3-0.1-0.5-0.1-0.8
						c0.2-0.7,0.6-1.1,1.1-1.7C36.6,8.9,36.9,8.7,37.1,8.4z"/>
					<path class="st3" d="M30.3,6.8C30.3,6.8,30.3,6.8,30.3,6.8c0,0.3,0,0.5-0.1,0.8c0,0.2,0,0.3-0.1,0.5c-0.1,0.5-0.4,0.9-0.6,1.4
						c-0.1,0.2-0.2,0.4-0.3,0.6c-0.1,0.1-0.1,0.2,0,0c0,0.1,0,0.3-0.1,0.4c-0.1,0.9-1.3,0.7-1.6,0c-0.3-0.9-0.6-1.8-0.3-2.8
						c0.2-0.6,0.5-0.9,1-1.2c0.3-0.2,0.6-0.5,1-0.5C29.9,5.6,30.6,6.3,30.3,6.8z"/>
					<path class="st3" d="M26.7-3.6c0.5,0.5,0.6,1.5,0,1.9c-0.4,0.3-0.8,0.5-1.3,0.6c-0.1,0-0.2,0-0.3,0c-0.1,0.1-0.3,0.2-0.5,0.2
						c0,0,0,0-0.1,0c-0.3,0-0.6-0.2-0.8-0.5c-0.3-0.4-0.3-1.1,0-1.5c0.1-0.3,0.4-0.5,0.6-0.6c0.1-0.1,0.4-0.2,0.5-0.2
						c0.1,0,0,0-0.1,0.1C25.3-4,26.1-4.2,26.7-3.6z"/>
					<path class="st3" d="M19.6,11.6c0.2-0.3,0.4-0.7,0.7-1c0.8-0.9,2.4-0.2,2.3,1c-0.1,1.3-1.6,2.6-2.9,2c-0.4-0.1-0.7-0.5-0.6-1
						c0-0.1,0.1-0.2,0.2-0.3C19.3,12,19.5,11.7,19.6,11.6z"/>
					<path class="st3" d="M2.8,3.5c-0.4,0-0.7-0.1-1-0.4C1.6,3,1.5,2.9,1.3,2.7C1.2,2.6,0.9,2.4,0.7,2.2C0.6,2.1,0.6,2,0.5,1.9
						c0,0,0-0.1-0.1-0.1C0.4,1.7,0.3,1.7,0.2,1.6c-0.3-0.4-0.3-0.9,0.1-1.2c0.2-0.1,0.5-0.1,0.7-0.2C0.9,0.3,0.8,0.4,0.6,0.5
						C1.3,0,2,0,2.8,0.4c0.7,0.4,1.3,1,1.3,1.8C4,2.9,3.5,3.6,2.8,3.5z"/>
					<path class="st3" d="M9.5,5.6c1.5,0,1.5,2.3,0,2.3C8,7.8,8,5.6,9.5,5.6z"/>
					<path class="st3" d="M18.7,0.3c-0.6,0-1.1-0.3-1.3-0.8c-0.2-0.6-0.1-1.4,0.5-1.7c0.5-0.2,0.9-0.3,1.4-0.2
						c0.8,0.2,1.2,1.1,0.9,1.8C19.9,0.1,19.3,0.4,18.7,0.3z"/>
					<path class="st3" d="M35.1,20.1c0.6-0.3,1.5,0.1,1.8,0.7c0.1-0.1,0.2-0.2,0.2-0.3c0.3-0.4,0.9-0.5,1.3-0.4
						c-0.4-0.1,0.3-0.1,0.3-0.1c0.4,0,0.7,0.3,0.7,0.7c0,0,0,0.7-0.1,0.4c0.1,0.5,0,1-0.4,1.3c-0.3,0.3-0.4,0.4-0.6,0.7
						c-0.1,0.2-0.1,0.5-0.3,0.7c-0.3,0.5-0.7,1-0.8,1.6c-0.1,0.5-0.8,0.6-1,0.1c-0.2-0.4-0.5-0.7-0.5-1.2c0-0.2,0-0.4,0.1-0.6
						c0-0.1,0.1-0.5,0.2-0.4c0-0.2-0.2-0.4-0.2-0.6c0-0.3,0-0.5,0.1-0.7c0,0,0,0,0,0c0,0-0.1,0-0.1,0c0,0.1-0.1,0.1-0.2,0.2
						c0,0,0,0,0,0c0,0.6-0.7,0.7-1,0.3c0-0.1-0.1-0.2-0.1-0.2c0,0,0,0-0.1-0.1c-0.2-0.2-0.3-0.5-0.3-0.8
						C34.3,20.8,34.6,20.4,35.1,20.1z"/>
					<path class="st3" d="M43,28.9c-0.1,0.1-0.2,0.1-0.3,0.2c0,0,0,0,0,0c0,0.2-0.1,0.4-0.2,0.6c0,0.1,0,0.2-0.1,0.3
						c-0.2,0.5-1.1,0.5-1.1-0.1c0,0,0,0,0,0c-0.3-0.3-0.4-0.8-0.4-1.2c0.1-0.7,0.5-1.1,1-1.4c0.2-0.1,0.4-0.2,0.7-0.1
						c0.2-0.2,0.7-0.2,0.8,0.1c0.2,0.3,0,0.6,0.1,0.9C43.5,28.3,43.3,28.8,43,28.9z"/>
					<path class="st3" d="M47.3,19.2c0.4,0.5,0.3,1.2,0.1,1.8c-0.1,0.3-0.3,0.6-0.5,0.9c-0.2,0.4-0.4,0.7-0.5,1
						c-0.2,0.5-0.9,0.3-1-0.1c-0.3-0.7-0.3-1.3,0-2.1c0.1-0.4,0.3-0.6,0.5-0.9c0.1-0.2,0.2-0.4,0.4-0.6
						C46.3,18.6,47.2,18.6,47.3,19.2z"/>
					<path class="st3" d="M44.3,17.9c-0.3,0.1-0.7,0-0.9-0.3c-0.3-0.7-0.6-1.4-0.2-2.2c0.3-0.7,1-1.1,1.7-1.3
						c1.3-0.4,1.9,1.7,0.6,2.1c-0.2,0-0.3,0.1-0.4,0.3c-0.1,0.1-0.1,0.2-0.2,0.4c0,0.1-0.1,0.1-0.2,0.2c0,0,0,0,0,0
						C44.7,17.4,44.6,17.8,44.3,17.9z"/>
					<path class="st3" d="M42.3,15c0.1,0.6-0.1,1.2-0.6,1.5c-0.6,0.4-1.5,0.7-2.3,0.5c-0.1,0-0.2,0-0.3,0c0,0,0,0,0,0
						c-0.5-0.1-0.6-0.7-0.5-1.1c0-0.1,0.1-0.1,0.1-0.2c0.3-0.5,0.8-1,1.2-1.3c0.3-0.3,0.8-0.5,1.3-0.4C41.9,13.7,42.6,14.3,42.3,15z
						"/>
					<path class="st3" d="M46.8,3.7c-0.2,0.5-0.7,0.8-0.9,1.2c-0.3,0.8,0.5,1.1,0.7,1.9c0.3,1.2-0.5,2.3-1.5,3
						c0,0.9-0.5,1.9-1.1,2.6c-0.2,0.2-0.6,0.2-0.8,0c-1.1-0.9-0.6-2.8,0.6-3.4C43.9,8.4,44,7.7,44,7c0-0.2,0-0.4,0-0.6c0,0,0,0,0,0
						c-0.2,0.2-0.2,0.4-0.4,0.7c-0.3,0.7-1.2,1-1.7,0.2c-0.5-0.9,0-2.2,1-2.4c0.2,0,0.4,0,0.5-0.1c0.1,0,0.2-0.1,0.3-0.1
						c0-0.4,0.1-0.7,0.4-1c0.4-0.6,1.1-0.4,1.5-0.9C46.2,2.1,47.1,3,46.8,3.7z"/>
					<path class="st3" d="M36.3,36.2c-0.7-0.7-0.7-2.4,0.1-3.1c0.5-0.4,1.2,0,1.1,0.6c-0.1,0.3-0.2,0.7-0.3,1c-0.1,0.3,0,0.7,0,1
						C37.2,36.3,36.7,36.6,36.3,36.2z"/>
					<path class="st3" d="M43.6,38.4c-0.2,0.1-0.5,0.1-0.7,0c-0.6-0.4-0.7-1.2-0.6-1.9c-0.7-0.4-0.9-1.4-0.8-2.1
						c0.1-0.4,0.4-0.7,0.7-1.1c0.3-0.3,0.7-0.7,1.1-0.7c0.4,0,0.7,0.3,0.7,0.7c0,0.4-0.3,0.6-0.5,0.9c0,0,0,0.2,0,0.4
						c0.6-0.4,1.3-0.8,2-0.8c0.8,0,1.1,1.1,0.4,1.5c-0.6,0.3-1.1,0.6-1.4,1.2C44.3,37.2,44.1,38,43.6,38.4z"/>
					<path class="st3" d="M47.6,39.4c0.5,0.1,0.9,0.5,0.6,1c-0.2,0.5-0.7,0.7-1.1,1.1c-0.5,0.5-1.5,0-1.3-0.7
						C46.1,40.1,46.7,39.3,47.6,39.4z"/>
					<path class="st3" d="M50,34.4c0.2,0.2,0.5,0.4,0.5,0.5c0.2,0.2,0.3,0.4,0.4,0.7c0.2,0.6,0.3,1.3,0,1.9
						c-0.1,0.3-0.3,0.5-0.5,0.7c-0.3,0.3-0.3,0.3-0.4,0.6c-0.2,0.6-0.3,0.9-0.9,1.1c-0.5,0.2-0.9-0.5-0.7-0.9
						c0.1-0.1-0.1-0.5-0.1-0.6c0-0.2,0.1-0.6,0.2-0.8c0.2-0.3,0.6-0.4,0.9-0.6c-0.1-0.3-0.2-0.6-0.5-0.9c-0.4-0.3-0.8-0.5-1-1.1
						c-0.2-0.9,0.4-1.6,1.3-1.6C49.8,33.2,50.1,33.9,50,34.4z"/>
					<path class="st3" d="M36.7,44.8c0.7,0.9,1.4,1.5,1.8,2.6c0.3,1.1,0.2,2.3-0.4,3.4c-0.3,0.4-0.9,0.5-1.2,0
						c-0.5-0.9-0.5-1.9-0.9-2.9c-0.3-0.8-1.2-1.3-1.4-2.2C34.4,44.3,35.9,43.8,36.7,44.8z"/>
					<path class="st3" d="M40.9,45.4c0.2,0.1,0.4,0.2,0.6,0.4c0.1-0.2,0.2-0.3,0.4-0.5c0.5-0.6,1.2-1.1,2.1-1.1
						c0.6,0,0.8,0.5,0.5,0.9c-0.6,0.7-1.2,1.2-1.4,2.2c-0.1,0.6-0.1,1.1-0.7,1.4c-0.1,0-0.1,0-0.2,0.1c0.1,0.2,0.3,0.5,0.3,0.6
						c0.2,0.8,0.2,1.6-0.3,2.3c-0.3,0.4-1.2,0.3-1.1-0.2c0.1-1.9-2.9-3.4-1.8-5.4C39.5,45.5,40.2,45.2,40.9,45.4z"/>
					<path class="st3" d="M37.4,43.7c-0.2-0.7-0.9-1.1-0.9-1.9c0-0.8,0.6-1.6,1.3-1.8c0.1,0,0.2,0,0.3,0c0,0-0.1,0-0.1-0.1
						c-0.7-0.6-0.7-1.9-0.4-2.7c0.2-0.7,1-2,1.9-1.9c1.1,0.1,0.6,1.3,0.4,1.9c-0.2,0.8-0.4,2-1,2.6C38.9,40,38.8,40,38.6,40
						c0.4,0.2,0.6,0.7,0.5,1.1c-0.1,0.3-0.3,0.5-0.3,0.7c0,0.2,0,0.3,0.1,0.5C39,43,39,43.5,38.6,44C38.3,44.5,37.6,44.2,37.4,43.7z
						"/>
					<path class="st3" d="M44.3,42.1c-0.2,0.6-0.8,1.1-1.5,1.2c-0.7,0.1-1.3-0.3-1.7-0.9c0,0,0,0,0-0.1c-0.1-0.1-0.2-0.3-0.3-0.4
						c-0.6-1.3,0.4-2.8,1.9-2.6C44,39.4,44.8,40.8,44.3,42.1z"/>
					<path class="st3" d="M45.6-25.7c-0.1,0.5,0,1,0,1.5c0,0.6-0.8,0.9-1.1,0.5c-0.6-0.7-0.8-1.4-0.7-2.3c0.1-0.9,0.5-1.8,1.2-2.3
						c0.8-0.6,1.6,0.5,1.3,1.3C46-26.6,45.6-26.3,45.6-25.7z"/>
					<path class="st3" d="M43-19.2C42.9-19.2,42.9-19.2,43-19.2c-0.1,0.1-0.1,0.3-0.1,0.3c0,0.3-0.1,0.6-0.4,0.7
						c0.5,0.5,0.2,1.6-0.7,1.6c-1,0-1.2-1.3-0.5-1.8c-0.2-0.2-0.4-0.4-0.5-0.7c-0.2-0.7,0-1.3,0.5-1.9C42.3-22,44.1-20.2,43-19.2z"
						/>
					<path class="st3" d="M41.4-13.7c0.3,0.5,0.1,1.1-0.4,1.4c-0.2,0.2-0.5,0.2-0.7,0.2c-0.6-0.1-1.1-0.5-1.1-1.1c0-0.1,0-0.1,0-0.2
						c0-0.2,0-0.3,0-0.5c-0.4-0.1-0.7-0.3-0.7-0.7c-0.1,0-0.3,0-0.3,0c-0.4-0.1-0.8-0.3-0.8-0.8c0-0.9,1.2-1.2,2-1
						c0.8,0.3,1.2,1.1,0.9,1.9c0.1,0,0.2,0,0.3,0.1C41-14.2,41.2-14,41.4-13.7z"/>
					<path class="st3" d="M43.8-12.4c-0.8-0.1-1.6-0.9-1.3-1.7c0-0.3,0-0.6,0.2-0.9c0.5-1.1,2.1-0.5,1.7,0.6c0.3,0.3,0.4,0.7,0.4,1
						C44.8-12.9,44.3-12.4,43.8-12.4z"/>
					<path class="st3" d="M38.9-21.6c0-0.5,0.1-1.2,0.2-1.7c0.1-0.6,0.9-0.9,1.4-0.7c0.6,0.3,0.8,0.9,0.5,1.5
						c-0.2,0.4-0.4,0.9-0.7,1.3C39.9-20.6,38.8-20.8,38.9-21.6z"/>
					<path class="st3" d="M40.7-32.9c-0.4,0.1-0.7,0-0.9-0.4c-0.3-0.5,0-1-0.1-1.5c-0.1-0.6,0.2-1.1,0.7-1.3
						c0.5-0.1,1.2,0.2,1.3,0.7C41.8-34.5,41.8-33,40.7-32.9z"/>
					<path class="st3" d="M51.6,2.2c-0.1,0.3-0.3,0.6-0.4,0.9c-0.2,0.5-0.9,0.5-1,0c0-0.1,0-0.2-0.1-0.3c-0.3-0.4-0.4-1-0.4-1.5
						c-0.1-0.6,0-1.3,0.3-1.8c0.2-0.3,0.7-0.4,0.9-0.1c0.5,0.5,0.7,1.2,0.7,1.9C51.7,1.6,51.7,1.9,51.6,2.2z"/>
					<path class="st3" d="M31.5,14.9c0.1-0.2,0.1-0.6,0.1-0.8c0.1-0.4,0.3-0.8,0.4-1.2c0.1-0.4,0.1-0.8,0.5-1c0.3-0.1,0.7-0.2,1,0.1
						c0.6,0.7,0.5,1.8,0.4,2.6c-0.1,1.1-0.8,1.8-1.6,2.4c-0.2,0.1-0.5,0.1-0.8,0c-0.5-0.3-0.7-1-0.4-1.5
						C31.2,15.2,31.4,15.1,31.5,14.9z"/>
					<path class="st3" d="M25.5,17.9c0.5-0.1,0.9,0.1,1.2,0.5c0,0,0,0,0,0.1c0.3,0.4,0.1,1.1-0.3,1.3c0,0-0.1,0-0.1,0.1
						c-0.2,0.3-0.6,0.4-0.9,0.4c-0.6-0.1-0.9-0.8-0.8-1.3C24.6,18.4,25,18,25.5,17.9z"/>
					<path class="st3" d="M18.1,18.3c0.3,0,0.6,0.1,0.9,0.2c0.2,0.1,0.3,0.2,0.4,0.4c0,0,0,0,0,0c0,0,0,0,0,0c0.6,0,0.9,0.8,0.5,1.1
						c-0.4,0.3-0.7,0.4-1.2,0.3c-0.2,0-0.4-0.1-0.6-0.2c-0.1-0.1-0.2-0.1-0.3-0.2c-0.1,0-0.2,0.1-0.2,0.1c-0.6,0.3-1.2-0.3-0.9-0.9
						C17.1,18.7,17.5,18.3,18.1,18.3z"/>
					<path class="st3" d="M20.4,18.1c0.3-0.1,0.5-0.2,0.7-0.4c0.3-0.2,0.5-0.4,0.8-0.4h0c0,0,0.1,0,0.1,0c0.6-0.1,1.2,0.4,1,1
						c-0.1,0.3-0.1,0.5-0.4,0.8c-0.2,0.2-0.5,0.3-0.8,0.4c-0.4,0.1-1.1,0.1-1.5-0.1C19.8,19.1,19.8,18.3,20.4,18.1z"/>
					<path class="st3" d="M26.1,15.5c-0.1-0.3-0.2-0.6-0.2-1c0-0.2,0.1-0.3,0.2-0.5c0,0,0,0,0.1-0.1c0.1-0.5,0.3-0.9,0.7-1.2
						c0.3-0.2,0.6-0.4,1-0.4c0.1,0,0.3,0,0.4,0c0.1,0,0.1,0.1,0.2,0.1c0.3,0,0.5,0.1,0.7,0.3c0,0,0,0,0-0.1c0.3-0.5,0.4-1.1,0.6-1.6
						c0.3-0.5,0.9-0.3,1.1,0.1c0.3,0.8,0.3,1.9,0.1,2.7c-0.2,0.7-0.6,1.3-1.2,1.7c-0.1,0.1-0.1,0.2-0.2,0.4c-0.2,0.2-0.5,0.2-0.7,0
						c-0.3-0.3-0.4-0.8-0.4-1.2c0,0,0,0,0,0c-0.1,0.1-0.1,0.2-0.2,0.3c-0.1,0.1-0.2,0.2-0.3,0.2c-0.1,0.1-0.2,0.1-0.3,0.2
						C27.4,16.3,26.4,16.2,26.1,15.5z"/>
					<path class="st3" d="M36.3,6.3c0.1-0.1,0.3-0.2,0.4-0.3c0.6-0.4,1.2,0.5,0.7,1c-0.1,0.1-0.1,0.1-0.2,0.2c0,0.2-0.1,0.4-0.4,0.7
						c-0.2,0.2-0.4,0.5-0.5,0.7c-0.3,0.6-1.2,0.2-1.1-0.5C35.4,7.4,35.6,6.5,36.3,6.3z"/>
					<path class="st3" d="M45.5,0.8c0,0.5-0.2,0.8-0.6,1c0,0.1,0,0.2,0,0.3c0,0.9-1.2,1-1.5,0.2c-0.2-0.4-0.4-0.7-0.3-1.2
						c0.1-0.2,0.2-0.4,0.3-0.5c-0.1-0.2-0.2-0.5-0.1-0.8c0-0.1,0.1-0.2,0.1-0.3c-0.1,0.2-0.1,0.1-0.1-0.1c-0.1-0.2,0-0.4,0.1-0.6
						c0.1-0.4,0.5-0.6,0.9-0.4c0.3,0.2,0.5,0.5,0.8,0.8C45.4-0.3,45.5,0.4,45.5,0.8z"/>
					<path class="st3" d="M37-3.2c-0.1,0.8-0.6,1.7-1.6,1.3c-0.5-0.2-0.5-0.8-0.6-1.2c0-0.3-0.1-0.6-0.1-0.9c0-0.2,0.1-0.3,0.1-0.5
						c0.1-0.7,0.8-1,1.3-0.5C36.8-4.6,37.1-4,37-3.2z"/>
					<path class="st3" d="M42.8-2.1c-1-0.6-0.6-1.9-1-2.8c-0.3-0.6,0.6-1,1.1-0.6c0.4,0.4,0.8,0.7,1,1.3C43.9-4,43.9-3.7,44-3.4
						c0,0.1,0,0.4,0,0.4C44.1-2.3,43.4-1.7,42.8-2.1z"/>
					<path class="st3" d="M48-5c-0.5,0.2-1-0.2-1.3-0.6c-0.1-0.2-0.2-0.4-0.3-0.6c-0.1-0.1-0.4-0.5-0.1-0.4
						c-0.5-0.2-0.9-0.7-0.7-1.3c-0.1-0.1-0.2-0.1-0.2-0.2c0-0.1,0-0.1,0-0.1c0,0,0,0,0,0c-0.2-0.1-0.4-0.2-0.6-0.3
						c-1-0.5-0.1-2,0.8-1.4c0.3,0.2,0.7,0.5,0.8,0.9c0,0.1,0,0.1,0,0.1c0,0,0,0,0.1,0.1c0.1,0.1,0.1,0.2,0.1,0.3
						c0.2,0,0.3,0,0.5,0.1c0.5,0.3,0.9,0.8,1,1.4c0,0.2,0,0.4,0.1,0.6c0.1,0.2,0.2,0.2,0.3,0.4C48.6-5.6,48.4-5.1,48-5z"/>
					<path class="st3" d="M44.5-8.4c0.1,0.3,0.3,0.6,0.3,0.9c0,0.3-0.2,0.6-0.2,0.9c-0.1,0.4,0.2,1-0.4,1.2c-0.5,0.1-1-0.2-1.2-0.7
						c-0.1-0.2-0.2-0.5-0.2-0.8c0-0.3,0-0.3-0.1-0.5c-0.2-0.4-0.1-0.9,0.1-1.1c0,0,0,0,0,0c-0.2-0.6,0.7-0.9,1-0.4
						C44-9,44.3-8.8,44.5-8.4z"/>
					<path class="st3" d="M17.4-8.1c-0.1,0-0.2,0-0.2,0.1c-0.1,0.1-0.3,0.2-0.5,0.3c0.4,0.3,0.7,1,0.4,1.4c-0.8,1.2-2.2,1.1-3.4,1
						c-0.4,0-0.7-0.2-0.7-0.6c0-0.3,0.2-0.8,0.5-0.8c0.2,0,0.4-0.1,0.6-0.1c0-0.1-0.1-0.1-0.1-0.2c-0.2-0.8,0.2-1.5,0.9-2
						c0.6-0.5,1.4-0.8,2.1-0.5c0.1,0,0.2,0,0.3,0c0.3,0,0.6,0.2,0.7,0.4c0.1,0.2,0.1,0.4,0.1,0.6C17.8-8.4,17.6-8.2,17.4-8.1z"/>
					<path class="st3" d="M22.8-9.5c-0.5,0.2-1.1,0.4-1.6,0.7c-0.4,0.2-0.8,0.7-1.3,0.8c-0.2,0.1-0.6,0-0.8-0.2
						c-0.8-0.9,0-2,0.8-2.6c0.5-0.3,1-0.7,1.5-0.9c0.5-0.2,1.6-0.3,1.8-0.9c0.5-1.2,2.2-0.8,2,0.5C25.1-10.6,24.1-10.1,22.8-9.5z"/>
					<path class="st3" d="M30.4-8.9c-0.3,0.1-0.5,0.3-0.7,0.4c-0.3,0.2-0.8,0.2-1.1-0.1c-0.4-0.4-0.4-0.8-0.2-1.2
						c-0.5,0.3-1,0.6-1.5,0.7c-0.8,0.2-1.4-0.6-1-1.3c0.3-0.6,0.9-1.1,1.5-1.5c0.6-0.4,1.2-0.8,1.9-0.9c0.6-0.1,1,0.1,1.4,0.6
						c0,0,0,0,0,0c0.2-0.1,0.4-0.1,0.6-0.1c0.8,0.1,1.1,0.8,1,1.5C32.1-9.8,31.2-9.3,30.4-8.9z"/>
					<path class="st3" d="M-13.3,11c0,0-0.1,0-0.1-0.1c-0.3,0-0.6-0.2-0.7-0.4c-0.2-0.2-0.4-0.6-0.4-0.9c0-0.8,0.6-1.6,1.4-1.6
						c0.8,0,1.5,0.6,1.5,1.4c0,0.7-0.5,1.3-1.1,1.5C-12.9,11-13.1,11.1-13.3,11z"/>
					<path class="st3" d="M-9.4,7.6c0,0.2,0,0.4-0.1,0.6c-0.1,0.4-0.3,0.6-0.6,0.8c-0.2,0.3-0.7,0.4-0.9,0.2
						c-0.3-0.3-0.6-0.3-0.9-0.7c-0.2-0.4-0.3-0.8-0.2-1.2c0.1-0.9,0.8-1.9,1.8-1.8C-9.1,5.5-8.7,6.7-9.4,7.6z"/>
					<path class="st3" d="M-7.7,6.1c-0.2,0.3-0.6,0.4-0.9,0.2c-0.2-0.1-0.3-0.2-0.4-0.4c-0.1-0.1-0.3-0.3-0.3-0.5c0-0.1,0-0.2,0-0.3
						C-9.4,4.2-9,3.2-8,3.3c0.8,0,1.4,0.7,1.3,1.5C-6.7,5.4-7.1,5.9-7.7,6.1z"/>
					<path class="st3" d="M-4.1,6.8C-4.2,6.9-4.4,7-4.6,7.1c0,0,0,0,0,0c0,0-0.2,0.1-0.2,0.2c0,0,0,0.1,0,0.1
						c-0.1,0.4-0.6,0.5-0.9,0.4C-6.3,7.5-6.6,7-6.6,6.4C-6.6,5.6-6,5-5.2,4.8c0.4-0.1,0.9,0,1.2,0.3C-4,5.1-4,5.2-4,5.2
						C-3.6,5.4-3.4,6-3.6,6.3C-3.7,6.6-3.9,6.7-4.1,6.8z"/>
					<path class="st3" d="M-24.8,6.2c0.2,0.3,0.3,0.7,0.3,1.1c0,0.4-0.1,0.7,0.2,1c0.5,0.4-0.1,1.1-0.6,1C-25.7,9-25.9,8-26.1,7.2
						c-0.2-0.6-1.4-1.3-0.7-2c0.1-0.1,0.3-0.1,0.4-0.1C-25.8,5.2-25.1,5.7-24.8,6.2z"/>
					<path class="st3" d="M-20,13.2c0.4,0.2,0.7,0.5,1,0.8c0.2,0.2,0.2,0.4,0.3,0.7c0,0.2,0-0.2,0,0.1c0,0.1,0.1,0.3,0.1,0.4
						c0,0.5-0.7,0.8-1,0.4c0,0-0.3-0.3-0.1-0.2c-0.1-0.1-0.3-0.2-0.4-0.3c-0.2-0.2-0.3-0.4-0.6-0.6c-0.5-0.3-1-0.3-1.4-0.7
						c-0.1-0.1-0.1-0.3-0.1-0.4C-21.8,12.6-20.7,12.8-20,13.2z"/>
					<path class="st3" d="M-17.9,13.8c-0.3-0.3-0.6-0.3-1-0.4c-0.5-0.1-0.5-0.7-0.1-1c0.7-0.5,1.6-0.1,2.1,0.3
						C-16.1,13.3-17.3,14.5-17.9,13.8z"/>
					<path class="st3" d="M-18,15.1c1.3-0.5,3.1-0.4,4,0.7c0.3,0.4-0.1,1-0.6,0.7c-0.6-0.3-1.1-0.4-1.7-0.4c-0.6,0-1.1,0-1.7-0.1
						C-18.5,15.9-18.4,15.2-18,15.1z"/>
					<path class="st3" d="M-12.2,16.6c0.6-0.4,1.3-0.4,1.9-0.3c0.8,0.2,1.6,0.9,1.4,1.7c-0.1,0.4-0.4,0.5-0.8,0.6
						c-0.5,0.1-0.8-0.4-1.2-0.7c-0.2-0.2-0.5-0.4-0.8-0.3C-12.3,18-12.9,17.1-12.2,16.6z"/>
					<path class="st3" d="M-2.2,17.5c0.7-0.2,1.3-0.2,1.9,0.1C0.3,17.8,1.1,18.3,1,19c0,0.4-0.4,0.7-0.8,0.6
						c-0.5-0.1-0.7-0.6-1.1-0.8c-0.4-0.2-0.8-0.4-1.3-0.4C-2.6,18.4-2.7,17.6-2.2,17.5z"/>
					<path class="st3" d="M-22.3,0.6c0.8,0.4,0.8,1.2,0.9,1.9c0,0.2-0.2,0.6-0.5,0.6c-1.1,0.2-2.3-0.7-1.9-1.9
						C-23.5,0.6-22.9,0.3-22.3,0.6z"/>
					<path class="st3" d="M-31.2,2c0-0.3,0.3-0.5,0.6-0.3c0.1,0.1,0.2,0.1,0.2,0.2c0.1,0,0,0.1,0,0.1c0.1,0,0.1,0,0.2,0.1
						c0.2,0.2,0.4,0.4,0.4,0.7c0.1,0.6-0.2,0.9-0.3,1.4c-0.1,0.4-0.8,0.4-0.8-0.1c0-0.2,0-0.2-0.1-0.4c-0.1-0.1-0.1-0.3-0.1-0.5
						c-0.1-0.3-0.1-0.6,0-0.8C-31.2,2.2-31.2,2.1-31.2,2z"/>
					<path class="st3" d="M-30.3-3.9c0.4,0,0.8,0.4,0.8,0.8c0,0.2-0.1,0.4-0.1,0.6c-0.4,1.2-2.3,0.7-1.9-0.5
						C-31.2-3.5-30.9-3.9-30.3-3.9z"/>
					<path class="st3" d="M-10.4-5.4c-0.1,0.3-0.2,0.7-0.4,1C-10.9-4.2-10.9-4.1-11-4c0.4,1.1,1.5,2.2-0.1,2.9
						c-0.3,0.1-0.7-0.2-0.7-0.5c0-0.2,0.2-0.9,0.1-1c-0.1-0.1-0.6-0.3-0.8-0.5c-0.4-0.6-0.4-1.3,0.1-1.8c0.3-0.3,0.5-0.3,0.5-0.8
						c0-0.4-0.2-0.7-0.1-1.1c0.1-0.7,0.6-1.2,1.3-1.2c0.3,0,0.6,0.3,0.5,0.7C-10.3-6.8-10.2-6.1-10.4-5.4z"/>
					<path class="st3" d="M-12.2-8.8c0,0-0.1,0-0.1,0c0,0.3,0,0.5-0.1,0.8c-0.1,0.2-0.3,0.4-0.5,0.4c-0.9,0-1.5-0.9-1.5-1.7
						c0-0.4,0.1-0.8,0.2-1.2c0.1-0.5,0.2-0.8,0.6-1.1c0.4-0.2,0.9,0,1,0.4c0.1,0.3,0,0.5,0,0.8c0,0.1,0,0.3,0,0.4
						c0.1-0.2,0.3-0.3,0.6-0.4c0.8-0.2,1.4,0.5,1.4,1.3C-10.5-8.3-11.8-8.2-12.2-8.8z"/>
					<path class="st3" d="M-26.8-8.3C-26.9-7.7-27.7-7.4-28-8c-0.3-0.6-0.2-1.4,0.1-2c0.1-0.2,0.5-0.4,0.8-0.3
						c0.1,0,0.2,0.1,0.3,0.2c0.2,0.2,0.2,0.6,0.1,0.8C-26.8-9-26.8-8.7-26.8-8.3z"/>
					<path class="st3" d="M-30.1-8.8c0.3-0.1,0.7,0.1,0.8,0.5c0.1,0.7-0.3,1.1-0.5,1.7c-0.2,0.6-0.6,1.3-0.6,1.9
						c0,0.5-0.8,0.6-0.9,0.1c-0.1-0.8-0.3-1.6-0.1-2.4C-31.3-7.6-30.9-8.6-30.1-8.8z"/>
					<path class="st3" d="M37.3-32.8c0-0.4-0.6-0.8-0.9-1.1c-0.3-0.3-0.5-0.7-0.4-1.1c0.1-0.3,0.2-0.5,0.4-0.8
						c0.2-0.3,0.5-0.4,0.8-0.3c0.3,0,0.4,0.5,0.2,0.6c-0.1,0.1-0.2,0.1-0.2,0.2c0.3,0.3,0.4,0.7,0.7,1c0.4,0.5,0.4,1,0.3,1.6
						C38.1-32.2,37.4-32.3,37.3-32.8z"/>
					<path class="st3" d="M37.7-37.7c-0.1,0.2-0.3,0.4-0.6,0.2c-0.7-0.4-0.4-1.4,0.3-1.7c0.6-0.2,0.8,0.5,0.5,0.9
						C37.9-38.1,37.8-37.9,37.7-37.7z"/>
					<path class="st3" d="M43.5-40c-0.2-0.6-0.4-1.6-0.1-2.2c0.2-0.4,0.7-0.3,1,0c0.4,0.6,0.2,1.6,0.1,2.2
						C44.4-39.4,43.7-39.5,43.5-40z"/>
					<path class="st3" d="M39.4-27.4c-0.3,0.5-1.1,0.2-0.9-0.4c0.1-0.5,0.2-0.9,0.3-1.4c0.1-0.4-0.1-0.9,0.1-1.4
						c0.2-0.4,0.7-0.5,1-0.1C40.4-29.7,39.9-28.1,39.4-27.4z"/>
					<path class="st3" d="M39.5,25.1c0.8-0.4,1.4-0.8,2.2-0.9c0.5-0.1,0.9,0.5,0.5,0.9c-0.1,0.1-0.1,0.1-0.2,0.2
						c0.1,0.7-0.2,1.2-0.8,1.6c-0.1,0.1-0.8,0.3-0.8,0.4c-0.1,0.2,0,0.8,0,1.1c-0.2,0.7-0.7,0.9-1.2,1.3c-0.5,0.4-0.6,0.5-0.8,1.1
						c-0.1,0.4-0.2,0.6-0.5,0.9c-0.2,0.2-0.5,0.2-0.6,0c-0.7-0.7-0.7-1.7-0.3-2.6c0.2-0.4,0.5-0.6,0.8-0.8c0.6-0.5,0.5-0.2,0.5-0.9
						C38.1,26.2,38.5,25.5,39.5,25.1z"/>
				</g>
				<g>
					<path class="st3" d="M54.2,49.3c-0.1,0-0.3,0.1-0.4,0.1c-1,0.2-1-1.4,0-1.2c0.1,0,0.3,0.1,0.4,0.1
						C54.8,48.3,54.8,49.2,54.2,49.3z"/>
				</g>
				<path class="st3" d="M47,54.8c-0.9-0.1-1.5-0.5-1.8-1.2c-0.3-0.7,0.1-1.4,0.9-1.7c0.5-0.3,1.1,0.2,1,0.6c0,0.1,0,0.1,0,0.1
					c0,0.1,0.1,0.2,0.1,0.3c0,0.1-0.1,0.2,0,0.4c0,0.3,0.2,0.5,0.4,0.7C47.8,54.3,47.4,54.9,47,54.8z"/>
				<path class="st3" d="M56.5,52.2c-0.4,0.1-0.7,0.2-1.1,0.1c-0.4-0.1-0.6-0.3-0.9-0.4c-0.6-0.2-0.3-1,0.2-1.1
					c0.1,0,0.3-0.2,0.4-0.2c0.2-0.1,0.3-0.1,0.5-0.1c0.3,0,0.6,0.1,0.9,0.3C57.1,51,57.1,52,56.5,52.2z"/>
				<path class="st3" d="M60,41.2c-0.5,0.1-1,0.2-1.6,0c-0.3-0.1-0.5-0.3-0.7-0.4c-0.2-0.1-0.4-0.2-0.6-0.3
					c-0.3-0.2-0.1-0.7,0.2-0.8c0.2-0.1,0.5-0.1,0.7-0.1c0.3,0,0.5-0.1,0.8-0.1c0.6,0.1,1,0.3,1.4,0.6C60.8,40.4,60.5,41.1,60,41.2z"
					/>
			</g>
		</g>
		<g id="Details_1_" class="st0">
			<g>
				<path class="st4" d="M60.9,45.5c0.1-0.1,0.4-0.1,0.6-0.1c0.2,0,0.4,0,0.6,0c0.4,0,0.8,0,1.1,0.1c0.4,0.1,0.8,0.3,1.1,0.6
					c0.3,0.3,0.6,0.7,0.9,1.1c0.4,0.4,0.8,0.8,1.1,1.2c0.2,0.3,0.9,1,0.7,1.4c-0.2,0.4-1.2-0.1-1.5-0.3c-0.5-0.4-0.9-0.9-1.4-1.2
					c-0.6-0.4-1.2-1-1.8-1.5c-0.3-0.2-0.5-0.5-0.8-0.7C61.3,45.8,60.9,45.8,60.9,45.5z"/>
			</g>
			<g>
				<path class="st5" d="M54.5,43.6c0.4,0.3,0.8,0.6,1.2,0.7c0.4,0.1,0.9,0.2,1.3,0.4c0.8,0.3,1.7,0.3,2.6,0.6
					c0.3,0.1,0.7,0.3,1,0.2c0.3-0.1,0.6-0.2,1-0.3c0.3-0.1,0.7,0,1,0c0.4,0,0.7,0.2,1,0.3c0.3,0.2,0.8,0.5,1.1,0.5
					c0.4,0,0.4-0.4,0.4-0.8c-0.3,0-0.6-0.1-0.9-0.2c-0.4-0.1-0.8-0.2-1.2-0.3c-0.7-0.2-1.5-0.6-2.3-0.6c-0.3,0-0.6,0.1-0.9,0.1
					c-0.4,0-0.6,0-1-0.1c-0.7-0.3-1.4-0.6-2.2-0.6c-0.2,0-0.3,0.1-0.5,0.1c-0.2,0-0.3,0-0.5,0C55.3,43.7,54.9,43.6,54.5,43.6z"/>
			</g>
			<g>
				<path class="st6" d="M65.6,56.6c-1.3,0-2.4-0.2-3.3-1.2c-0.4-0.4-0.8-1.2-0.5-1.7c0.3-0.5,1-0.7,1.5-1c1.1-0.6,1.3-1.9,2.8-2.1
					c0.7-0.1,1.1-0.1,1.6,0.4c0.6,0.6,0.9,1.4,0.8,2.2C68.6,55.2,67.1,56.2,65.6,56.6z"/>
			</g>
			<g>
				<path class="st7" d="M49.7,52.7c0-0.3,0.9-0.3,1.2-0.3c0.4,0.1,1,0.3,1.2,0.6c0.4,0.4,0.4,0.9-0.2,1.2c-0.4,0.2-0.9,0.2-1.3-0.1
					C50.4,54,49.3,53.1,49.7,52.7z"/>
			</g>
			<g>
				<g>
					<path class="st1" d="M50,52.9c0.2,0.1,0.5,0.2,0.7,0.4c0.3,0.2,0,0.6-0.3,0.4c-0.2-0.1-0.4-0.3-0.6-0.5
						C49.7,53.1,49.8,52.8,50,52.9L50,52.9z"/>
				</g>
			</g>
			<g>
				<path class="st1" d="M56.3,43.3c0,0.2,0.1,0.4,0.2,0.6c0.1,0.3,0.2,0.3,0.5,0.3c0.2-0.1,0.5-0.2,0.6-0.4
					c0.2-0.3-0.2-0.3-0.4-0.4c-0.1,0-0.3,0-0.4,0C56.7,43.3,56.6,43.2,56.3,43.3z"/>
			</g>
			<g>
				<path class="st1" d="M58.2,43.8c0,0.2,0.3,0.7,0.5,0.7c0.2,0.1,0.6-0.2,0.7-0.3c0.4-0.3,0-0.3-0.3-0.4
					C58.9,43.7,58.6,43.6,58.2,43.8z"/>
			</g>
			<g>
				<path class="st1" d="M62.7,44.7c0.1,0.3,0.1,0.7,0.1,1.1c0,0.3-0.1,0.9,0,1.2c0.2,0.5,0.6-0.5,0.6-0.6c0.1-0.3,0.4-0.7,0.4-1
					C63.8,45,63,44.7,62.7,44.7z"/>
			</g>
			<g>
				<path class="st1" d="M65.1,45.2c0.1,0.3-0.1,1.5,0.3,1.5c0.3,0,0.4-0.4,0.5-0.6c0.1-0.2,0.3-0.6,0.1-0.8
					c-0.1-0.1-0.3-0.1-0.4-0.1C65.5,45.2,65.4,45.2,65.1,45.2z"/>
			</g>
		</g>
	</g>
	<g id="Outlines_1_">
		<g>
			<g>
				<path d="M40.9,52.2c-2.4,1.7-4.6-2.9-5.4-4.4c-1.8-3.5-0.1-7,3.3-8.8c1.6-0.8,6.1-2.3,7.2-0.4c2.2,3.8-2.9,7.1-3.3,10.5
					c0,0.2-0.3,0.2-0.3,0c-0.1-1.9,1-3.2,2-4.7c1.7-2.4,2.5-7-2-5.9c-2.5,0.7-6.4,3.7-6.5,6.6C35.8,47.8,38.4,51.6,40.9,52.2
					C41,52.1,41,52.2,40.9,52.2L40.9,52.2z"/>
			</g>
		</g>
		<g>
			<g>
				<path d="M36.5,42c-1.4-4.7-2.5-9.5-4.2-14.1c-0.4-1.1-1.5-3.3,0.4-3.4c0.1,0,0.2,0.1,0.1,0.2c-1.1,1,2.2,6.8,2.5,8.1
					c0.7,3,1.2,6.2,1.3,9.2C36.6,42,36.5,42.1,36.5,42L36.5,42z"/>
			</g>
		</g>
		<g>
			<g>
				<path d="M32.6,26c-1.2,0.3-1.9-0.5-2.1-1.6c-0.1-0.8,0-2.6,0.9-3c0.1,0,0.1,0,0.1,0.1c-0.1,0.8-0.5,1.4-0.5,2.3
					c0,0.9,0.3,2.1,1.5,1.9C32.7,25.6,32.9,26,32.6,26L32.6,26z"/>
			</g>
		</g>
		<g>
			<g>
				<path d="M31,24.1c-1.6,0.7-3-0.3-3.2-1.9c-0.2-1.6,0.9-4.4,2.2-5.4c0,0,0.1,0,0.1,0.1c-0.5,1.4-1.3,2.7-1.3,4.3
					c0,0.6-0.1,1.3,0.1,1.9C29.2,23.9,30.1,23.9,31,24.1C31,24,31,24.1,31,24.1L31,24.1z"/>
			</g>
		</g>
		<g>
			<g>
				<path d="M28.6,22.9c-2.9,2-5.3-0.3-8.4-1.2c-4.9-1.3-10.2-1.9-15.3-2.2C-4.5,19-14,18.7-22.8,15c-3.5-1.4-6.7-3.3-9.7-5.7
					c-3.8-3-6.1-7.1-9.6-10.4c-7-6.7-16.2-12.8-24.9-17.1c-0.4-0.2-0.1-0.9,0.3-0.7c7.9,3.3,14.8,9,21.7,14
					c6.8,5.1,11.4,12.6,18.8,17c8.6,5.1,18.7,5.7,28.5,6.1c4.1,0.2,8.3,0.1,12.4,0.7c1.8,0.3,3.5,0.6,5.2,1.2c2.1,0.7,6,3.3,8.3,2.1
					C28.6,22,29,22.7,28.6,22.9L28.6,22.9z"/>
			</g>
		</g>
		<g>
			<g>
				<path d="M-67.1-18.7c6.2-1.7,14.2,3.1,19,6.6c6.2,4.5,12.3,10,17.5,15.6c0.1,0.1,0,0.2-0.1,0.2c-5-3.3-9-7.9-13.7-11.7
					c-2.8-2.3-5.7-4.3-8.8-6.1c-3.7-2.1-9.4-5.2-13.8-4.3C-67.3-18.4-67.3-18.7-67.1-18.7L-67.1-18.7z"/>
			</g>
		</g>
		<g>
			<g>
				<path d="M-4.8,2.2c-5.8-2.7-5.2-9.8-6.1-15.2c-0.7-4.3-1.8-9-4.7-12.4c-2.4-2.7-5.7-4.5-8.8-6.2c-4.8-2.8-9.1-5.8-10.2-11.6
					c-0.7-3.7-1.4-9,3.5-9.1c0.4,0,0.4,0.6,0,0.7c-6,0.2-1.7,10.7-0.6,12.5c1.6,2.6,4.2,4.4,6.7,6c3.5,2.3,7.3,4,10.1,7.1
					c2.6,2.9,4.3,6.5,5.1,10.3C-8.8-10-10.6-1.4-4.7,1.9C-4.5,2-4.6,2.2-4.8,2.2L-4.8,2.2z"/>
			</g>
		</g>
		<g>
			<g>
				<path d="M-31.1-51.9c0.2-0.7,0.9-1.2,1.4-1.7c0.8-0.9,1.2-2.1,0.1-3c-0.5-0.4,0.2-1.2,0.7-0.7c2.1,1.9,0.1,4.8-2.1,5.6
					C-31-51.7-31.1-51.8-31.1-51.9L-31.1-51.9z"/>
			</g>
		</g>
		<g>
			<g>
				<path d="M-29.4-35.5c-1.3-2.7-1.6-6.2-0.4-9c0.4-1,0.7-1.1,1.5-1.6c0.2-0.1,0.4,0,0.6-0.1c2.3-1,2.8-1.6,2.8-3.8
					c0-0.4,0.7-0.6,0.8-0.1c0.2,1.5-0.1,3.7-1.7,4.5c-0.3,0.1-0.6,0.1-0.9,0.2c-1.4,0.6-2,0.6-2.6,2.1c-0.9,2.3-0.3,5.4,0.1,7.7
					C-29.1-35.5-29.3-35.4-29.4-35.5L-29.4-35.5z"/>
			</g>
		</g>
		<g>
			<g>
				<path d="M-34.3-44.4c0-1.2,0.1-2.3,0-3.5c0-0.8,0.1-1.5,0.6-2.1c0.8-0.9,1.8-1.4,2.8-0.5c0.2,0.2,0,0.5-0.2,0.5
					c-0.3,0-0.7-0.2-1-0.2c-0.5,0.1-1.2,1.1-1.3,1.5c-0.4,1.4-0.6,2.8-0.7,4.2C-34-44.2-34.3-44.2-34.3-44.4L-34.3-44.4z"/>
			</g>
		</g>
		<g>
			<g>
				<path d="M-32,2.7c-0.7-2.2-2-4.9-1.6-7.3c0.4-2.8,3-4.8,3.9-7.5c1.7-5.1,0.8-10.7-2.8-14.8c-2.2-2.5-5.6-4.3-7.4-7
					c-0.7-1.1-1-2-0.9-3.3c0.1-3.8,1.7-7.3,1.5-11.3c-0.1-3.1-0.5-8.1,3.4-8.9c0.5-0.1,0.7,0.7,0.2,0.8c-4.2,0.7-2.4,7-2.2,9.6
					c0.1,2.7-0.6,4.7-1.2,7.3c-2,8,7.1,10.1,10.5,15.7c1.9,3.1,1.9,7.5,0.8,10.9c-0.7,2-1.9,3.7-2.9,5.6c-1.8,3.6-1.3,6.4-0.8,10.2
					C-31.6,2.8-31.9,2.9-32,2.7L-32,2.7z"/>
			</g>
		</g>
		<g>
			<g>
				<path d="M-9.9-9.5c1.6,1.4,2.7,2.9,4.5,4.1c2.3,1.5,4.9,2.2,7.7,1.5c0.1,0,0.2,0.1,0.1,0.2C-2.5-1.6-8.2-4.6-9.9-9.5
					C-10-9.5-10-9.5-9.9-9.5L-9.9-9.5z"/>
			</g>
		</g>
		<g>
			<g>
				<path d="M-7.7-6.4c7.8,2.1,16.3-2.1,23.6-4.4c6.3-1.9,12.1-3.6,18.6-2.5c0.4,0.1,0.3,0.7-0.1,0.7C26-12.7,18.1-11,10.1-8.1
					C4-6-1.5-3.6-7.8-6.1C-7.9-6.2-7.9-6.5-7.7-6.4L-7.7-6.4z"/>
			</g>
		</g>
		<g>
			<g>
				<path d="M34.3-6.1c0.6-2,0-3.6-0.2-5.6c-0.3-1.9,0.3-4,0.7-5.9c1.3-5.3,3.4-10.4,4.6-15.7c0.7-3,0.1-6,1.4-8.4
					c0.7-1.3,1.7-2.3,2.4-3.6c0.8-1.5,1.1-3,1.6-4.5c0.4-1.1,0.5-1.7,1.4-2.5c0.3-0.2,0.7,0.2,0.4,0.4c-1.4,1.3-1.2,3.7-1.8,5.4
					c-0.5,1.5-1.3,2.6-2.2,3.9c-1.3,2.1-1.8,3.5-2.2,6c-0.6,4.3-1.8,8.5-3,12.6c-1.4,4.5-4,10.6-1.8,15.1c0.1,0.2,0.1,0.4,0,0.5
					c-0.6,0.7-1,1.4-1.4,2.2C34.4-6,34.3-6.1,34.3-6.1L34.3-6.1z"/>
			</g>
		</g>
		<g>
			<g>
				<path d="M31.7-13.3c0.4-4.6,2.2-9,2.6-13.7c0.2-2.4,0.3-4.8,0.2-7.2c0-1.4-0.5-3,0.1-4.4c0.2-0.4,1.7-1.8,1.9-2.1
					c1.3-1.9,1.4-3.8,2.1-5.9c0.6-1.7,0.9-2.6,2.8-2.7c0.2,0,0.3,0.3,0.1,0.4c-2.7,1.1-2.8,6.3-4,8.7c-0.2,0.4-0.5,0.7-0.7,1.1
					c-1.4,2.3-1.5,3.1-1.6,5.9c-0.2,6.6-0.8,13.8-2.7,20.1C32.3-12.8,31.7-12.9,31.7-13.3L31.7-13.3z"/>
			</g>
		</g>
		<g>
			<g>
				<path d="M50.5,31.1c0.6,1,1.1,2.4,1.8,3.3c1.8,2.2,2.8,1.4,4.8,2.2c0.7,0.3,1.2,0.6,1.8,1.1c1.5,1,2.4,1.5,4.2,2
					c2.3,0.6,5.1,1.8,4.2,4.8c-0.1,0.2-0.4,0.2-0.5,0c-0.4-1.6-1.3-3.1-3-3.8c-0.9-0.4-2-0.2-2.9-0.6c-1.9-0.7-3-2.4-5-3.1
					c-1.3-0.5-2.5-0.5-3.5-1.6c-1-1.1-1.5-2.8-2.1-4.1C50.2,31.1,50.4,31,50.5,31.1L50.5,31.1z"/>
			</g>
		</g>
		<g>
			<g>
				<path d="M55.9,36.9c-1.9-1.9-3.3-3.7-3.7-6.5c-0.4-2.8,0.3-5.6,0-8.4c-0.2-1.8-0.7-3.2-0.5-5c0.6-5.3,3.2-8.8,1.2-14.5
					c-1.5-4.3-4.4-8.1-6.2-12.3c-2.9-7.1-2.1-16.4-1.2-23.8c0.4-3.4,0.6-8.6,2.4-11.6c1.8-2.9,7-1.9,7-6.8c0-0.5,0.7-0.4,0.7,0
					c0.2,1.9-0.2,3.6-1.8,4.8c-1.5,1.1-1,0.1-2.6,0.9c-3.3,1.8-3.5,4.1-4.2,7.4c-1.9,8.4-2.8,18.8,0,27.1c2.4,7.1,8.1,13,7.5,21
					c-0.3,3.8-1.6,7.2-1.4,11.1c0.3,5.7-1.1,11.8,3,16.5C56.2,36.8,56,37,55.9,36.9L55.9,36.9z"/>
			</g>
		</g>
		<g>
			<g>
				<path d="M53.7,42.5c1.9,2.6,5.2,1.9,7.7,3c1.8,0.8,3.2,3.8,5.2,4c0.4,0,0.4,0.7,0,0.7c-0.9-0.1-1.3-0.3-2-0.8
					c-1.6-1.4-2.5-2.8-4.8-3.5c-2.5-0.7-4.9-0.8-6.3-3.2C53.4,42.5,53.6,42.4,53.7,42.5L53.7,42.5z"/>
			</g>
		</g>
		<g>
			<g>
				<path d="M64.3,45.9c0.8,0.4,1.4,1.3,1.9,2c0.5,0.6,1.1,1.3,1,2.1c0,0.2-0.3,0.1-0.3,0C66.6,48.3,64.8,47.4,64.3,45.9
					C64.2,45.9,64.2,45.9,64.3,45.9L64.3,45.9z"/>
			</g>
		</g>
		<g>
			<g>
				<path d="M41.2-45.6c0.2-0.5,0.3-1,0.4-1.5c0-0.2,0.1-1.5-0.2-1.6c-0.3-0.1-0.2-0.5,0.1-0.5c1.7-0.2,0.3,3.2,0,3.8
					C41.4-45.2,41.1-45.4,41.2-45.6L41.2-45.6z"/>
			</g>
		</g>
		<g>
			<g>
				<path d="M41.9-48.7c0.4-0.4,1.1-0.6,1.6-0.6c0.4,0,1.4,0.1,1.5,0.6c0.1,0.5-0.5,0.3-0.8,0.3c-0.6-0.1-1.6-0.3-2.1,0.1
					C42-48.1,41.7-48.5,41.9-48.7L41.9-48.7z"/>
			</g>
		</g>
		<g>
			<g>
				<path d="M49.4-48.4c-0.1-0.3,0.2-0.8,0.3-1.1c0.2-0.6,0.5-1.3,0.4-1.9c-0.3-1.6-2.9-0.4-3.9-0.5c-0.2,0-0.2-0.2,0-0.3
					c0.6-0.1,1-0.5,1.6-0.7c0.4-0.1,0.9-0.1,1.3-0.1c0.7,0,1.3,0.2,1.6,0.9c0.3,0.6,0.1,1.3-0.2,1.8C50.2-49.7,49.9-48.7,49.4-48.4
					C49.4-48.3,49.4-48.4,49.4-48.4L49.4-48.4z"/>
			</g>
		</g>
		<g>
			<g>
				<path d="M52.7-49.1c0.1,0,0.1-0.4,0.2-0.5c0.1-0.3,0.2-0.6,0.3-0.8c0.1-0.4,0.5-1.3-0.1-1.5c-0.4-0.1-0.2-0.7,0.2-0.6
					c0.8,0.1,0.7,1,0.6,1.5c-0.1,0.4-0.3,0.8-0.5,1.1C53.2-49.8,52.7-49.2,52.7-49.1C52.8-49,52.6-49,52.7-49.1L52.7-49.1z"/>
			</g>
		</g>
		<g>
			<g>
				<path d="M50.2-52.4c0.9-0.3,1.9-0.7,2.8-0.5c0.5,0.1,1,0.2,1.6,0.3c0.3,0.1,0.5,0.1,0.8,0.3c0.2,0.2,0,0.6-0.3,0.5
					c-0.8-0.2-1.6-0.4-2.3-0.5c-0.9-0.1-1.7,0.2-2.5,0.1C50-52.1,50.1-52.3,50.2-52.4L50.2-52.4z"/>
			</g>
		</g>
		<g>
			<g>
				<path d="M-36.6-52.9c0-1.5,1.2-2.5,0.5-4c-0.2-0.4,0.4-0.7,0.6-0.3c0.7,1.3,0.3,3.4-0.9,4.4C-36.5-52.7-36.6-52.8-36.6-52.9
					L-36.6-52.9z"/>
			</g>
		</g>
		<g>
			<g>
				<path d="M-33.2-53.3c0.9-0.8,1.2-2.5,0.5-3.4c-0.3-0.3,0.1-0.8,0.5-0.6c1.6,0.8,0.3,3.6-0.8,4.3C-33.1-53-33.3-53.2-33.2-53.3
					L-33.2-53.3z"/>
			</g>
		</g>
		<g>
			<g>
				<path d="M-35.7-57.1c0.7-0.2,1.4-0.5,2.1-0.5c0.9,0,1.5,0.5,2.4,0.3c1-0.2,2-0.6,2.6,0.5c0.1,0.3-0.1,0.5-0.4,0.4
					c-1.2-0.7-2.1,0.1-3.2-0.1c-0.5-0.1-0.9-0.3-1.3-0.4c-0.7-0.2-1.4,0-2.1,0.1C-35.8-56.8-35.8-57.1-35.7-57.1L-35.7-57.1z"/>
			</g>
		</g>
		<g>
			<g>
				<path d="M-31.6-47c0.9-1,1.8-2,0.8-3.2c-0.2-0.2,0.1-0.5,0.3-0.3C-29.3-49.4-30-47.3-31.6-47C-31.6-46.9-31.7-46.9-31.6-47
					L-31.6-47z"/>
			</g>
		</g>
		<g>
			<g>
				<path d="M-28-46.6c0.7-0.4,2.4-2.7,1.3-3.3c-1-0.5-2.7-0.2-3.8-0.1c-0.3,0-0.3-0.5,0-0.5c1-0.1,1.9-0.2,2.9-0.1
					c0.7,0.1,1.6,0.1,1.8,0.8c0.3,1.3-1,2.9-2.1,3.4C-28-46.3-28.1-46.5-28-46.6L-28-46.6z"/>
			</g>
		</g>
		<g>
			<g>
				<path d="M-27.1-50.2c0.6,0,1.2-0.2,1.8-0.3c0.4-0.1,0.8,0,1.1,0.4c0.2,0.3-0.3,0.7-0.6,0.3c-0.2-0.3-0.9,0-1.2,0
					c-0.4,0-0.8,0-1.2-0.1C-27.3-50-27.3-50.2-27.1-50.2L-27.1-50.2z"/>
			</g>
		</g>
		<g>
			<g>
				<path d="M49.7,52.3c0.2,0.6,0.4,1,0.9,1.5c0.3,0.3,0.5,0.4,0.9,0.3c0.3-0.1,0.6-0.3,0.9-0.5c0,0,0.1,0,0.1,0
					c-0.3,0.8-1.3,1.4-2.1,0.8c-0.5-0.4-1.1-1.5-0.8-2.2C49.6,52.2,49.7,52.3,49.7,52.3L49.7,52.3z"/>
			</g>
		</g>
		<g>
			<g>
				<path d="M63.3,54.4c0.1-0.4,0.6-0.6,0.9-0.7c0.4-0.2,0.8-0.2,1.2-0.2c1.2,0.2,0.9,1.9-0.2,2.2c-0.3,0.1-0.7-0.2-0.6-0.6
					c0.1-0.3,0.3-0.5,0.4-0.7c0-0.1,0.1-0.2,0.1-0.3c0,0.2-0.1-0.2-0.1-0.2c0,0.1,0.1,0.2,0.1,0.3C64.6,53.8,63.9,54.3,63.3,54.4
					C63.3,54.4,63.3,54.4,63.3,54.4L63.3,54.4z"/>
			</g>
		</g>
		<g>
			<g>
				<path d="M55.2,42.9c1.7,0.3,3.5,0.5,5.2,0.8c1.2,0.2,5.6,2.2,6.3,0.5c0.2-0.4,0.7-0.2,0.5,0.2c-0.6,1.3-2.4,1-3.6,0.8
					c-0.8-0.2-1.5-0.5-2.2-0.8c-1-0.3-2-0.4-3.1-0.5C57.2,43.8,56.3,43.4,55.2,42.9C55.2,43,55.2,42.9,55.2,42.9L55.2,42.9z"/>
			</g>
		</g>
		<g>
			<g>
				<path d="M39.9,51.8c2.5,1.6,4.2,3.8,7.4,4.2c1.2,0.1,2.3-0.2,3.5-0.1c1.1,0.1,3,1,3.9-0.1c0.1-0.1,0.4,0,0.3,0.2
					c-0.6,0.9-1.2,0.8-2.2,0.8c-1.8,0-3.7,0.1-5.5-0.1C44.1,56.3,41.8,54.4,39.9,51.8C39.8,51.8,39.9,51.8,39.9,51.8L39.9,51.8z"/>
			</g>
		</g>
		<g>
			<g>
				<path d="M54.6,56.2c0.7-2.2,3.7-1.3,5.4-1c2.2,0.5,6.9,2.7,7.1-1.3c0.1-1.6-0.1-3-0.3-4.5c0-0.2,0.2-0.3,0.3-0.1
					c0.8,1.7,1.7,5.7-0.1,7.1c-1.1,0.8-2.9,0.7-4.2,0.4C60.8,56.4,56.4,54.3,54.6,56.2C54.7,56.3,54.6,56.3,54.6,56.2L54.6,56.2z"/>
			</g>
		</g>
		<g>
			<g>
				<path d="M62.6,44.7c0.4,0.7,0.2,1.7,0.3,2.4c0,0-0.1-0.1-0.1-0.1c0.8,0.1,0.8-1.5,1.2-1.9c0.1-0.1,0.2,0,0.2,0.1
					c-0.2,0.6-0.5,2.1-1.4,2c-0.1,0-0.1-0.1-0.1-0.1c0-0.4,0-0.8,0-1.2C62.6,45.5,62.6,45.1,62.6,44.7
					C62.5,44.6,62.6,44.6,62.6,44.7L62.6,44.7z"/>
			</g>
		</g>
		<g>
			<g>
				<path d="M65,45.2c0.2,0.5,0.2,1.1,0.5,1.5c-0.1,0-0.1,0-0.2-0.1c0.3-0.1,0.4-0.7,0.5-1c0-0.1,0-0.5,0.2-0.5c0,0,0,0,0.1,0
					c0.2,0.2,0,0.8-0.1,0.9c-0.1,0.3-0.2,0.8-0.6,0.9c-0.1,0-0.1,0-0.2-0.1c-0.3-0.5-0.2-1.1-0.4-1.6C64.9,45.2,65,45.2,65,45.2
					L65,45.2z"/>
			</g>
		</g>
		<g>
			<g>
				<path d="M58,43.6C58,43.6,58,43.6,58,43.6C58.1,43.6,58.1,43.6,58,43.6c0.4,0,0.4,0.4,0.5,0.6c0.4,0.5,0.8-0.3,1.2-0.4
					c0.1,0,0.2,0.2,0.1,0.2c-0.4,0.1-0.9,0.9-1.3,0.5c-0.2-0.2-0.2-0.4-0.3-0.6C58.2,43.9,58,43.7,58,43.6L58,43.6z"/>
			</g>
		</g>
		<g>
			<g>
				<path d="M56.2,43.3c0.3,0.1,0.2,0.6,0.4,0.8c0.2,0.2,0.5,0,0.6-0.2c0.1-0.1,0.2-0.2,0.3-0.3c0.1-0.1,0.2-0.1,0.3-0.1
					c0,0,0,0,0,0.1c-0.1,0.2-0.4,0.5-0.6,0.6c-0.2,0.1-0.4,0.2-0.6,0.2c-0.2-0.1-0.2-0.2-0.3-0.4C56.3,43.9,56.2,43.5,56.2,43.3
					C56.2,43.3,56.2,43.3,56.2,43.3L56.2,43.3z"/>
			</g>
		</g>
		<g>
			<g>
				<path d="M60.7,45.4c0.3-0.2,0.8-0.2,1.1-0.3c0.3,0,0.6-0.1,0.9,0c0.1,0.1,0.1,0.2-0.1,0.2c-0.7-0.1-1.3,0.1-2,0.2
					C60.6,45.6,60.6,45.5,60.7,45.4L60.7,45.4z"/>
			</g>
		</g>
		<g>
			<g>
				<path d="M59.4,44.1c0.6,0,1.4-0.4,1.9,0.1c0.1,0.1,0,0.2-0.1,0.2C60.6,44,60,44.4,59.4,44.1C59.4,44.2,59.4,44.1,59.4,44.1
					L59.4,44.1z"/>
			</g>
		</g>
		<g>
			<g>
				<path d="M54.3,43.4c0.1-0.1,0.4,0,0.6,0.1c0.4,0.1,0.9,0.2,1.3,0c0.1-0.1,0.2,0.1,0.1,0.2c-0.3,0.3-0.8,0.2-1.2,0.2
					C54.9,43.8,54.4,43.6,54.3,43.4C54.3,43.4,54.3,43.4,54.3,43.4L54.3,43.4z"/>
			</g>
		</g>
		<g>
			<g>
				<path d="M64.5,46.2c-0.2-0.1-0.5-0.3-0.6-0.4c-0.1-0.1,0-0.2,0.1-0.1C64.2,45.8,64.3,45.9,64.5,46.2
					C64.5,46.2,64.5,46.2,64.5,46.2L64.5,46.2z"/>
			</g>
		</g>
		<g>
			<g>
				<path d="M64.3,45.9c0.2,0,0.4,0,0.6,0.1c0.1,0,0.2,0.1,0.1,0.1C64.7,46.2,64.5,46.2,64.3,45.9C64.2,45.9,64.3,45.9,64.3,45.9
					L64.3,45.9z"/>
			</g>
		</g>
	</g>
</symbol>
<use xlink:href="#Dalmatian_2"  width="137.2" height="120.9" x="-68.6" y="-60.5" transform="matrix(10.3284 0 0 -10.3284 727.5462 728.7097)" style="overflow:visible;"/>
</svg>
