<?xml version="1.0" encoding="utf-8"?>
<!-- Generator: Adobe Illustrator 22.1.0, SVG Export Plug-In . SVG Version: 6.00 Build 0)  -->
<svg version="1.1" id="Layer_1" xmlns="http://www.w3.org/2000/svg" xmlns:xlink="http://www.w3.org/1999/xlink" x="0px" y="0px"
	 viewBox="0 0 2141.3 1396.7" style="enable-background:new 0 0 2141.3 1396.7;" xml:space="preserve">
<style type="text/css">
	.st0{clip-path:url(#SVGID_5_);}
	.st1{fill:#B7B9C5;}
	.st2{fill:#999CAD;}
	.st3{fill:#1F1F25;}
	.st4{fill:#2D2D33;}
	.st5{fill:#58595F;}
	.st6{fill:#FFFFFF;}
	.st7{fill:#A9ADB7;}
	.st8{fill:#EFC028;}
	.st9{fill:#434449;}
	.st10{fill:#391615;}
	.st11{fill:#646F7A;}
	.st12{fill:#965962;}
	.st13{fill:#6B3E43;}
	.st14{fill:#9298A5;}
	.st15{fill:#494957;}
</style>
<symbol  id="Harpy_Eagle" viewBox="-84.7 -58.2 169.5 116.5">
	<g id="Colours_2_4_">
		<defs>
			<path id="SVGID_1_" d="M76.5,30.9c-4.8,2.8-15.5,1.1-17.1,1c3.2,0.9,6.6,1.3,9.8,2.4c3.2,1.1,6.3,2.8,8.1,5.6
				c-4.6-0.4-9.4-1.2-14.4-2.4c4.4,1.3,8.6,3.7,11.9,6.9c-3.3-0.2-6.5-0.6-9.8-1.5c3,1.1,6.1,3.4,8,6c-2.8-0.5-5.4-1-8.2-1.8
				c1.7,0.6,3.5,1.7,4.6,3.1c-2.6,0.2-5.5-0.4-8-1.4c0.7,0.5,1.2,1.5,1.5,2.3c-4.4-0.3-8.5-1.9-12.3-4.1c-3.8-2.2-7.2-5-10.5-7.7
				c-3.1-2.6-6.3-5.1-9.1-8.1C27.3,27.4,24,22.9,19.1,21c-1.8-0.7-3.7-1-5.4-1.7c-1.8-0.8-3.4-2-5.2-3c-3.4-1.9-7.4-2.9-11.3-2.7
				C-3,14.3-3.6,15-3.9,15.5c-0.3,0.4-1.4,1.6-2.1,1.9c0.2,0.1,0.4,0.2,0.6,0.3c0.2,0.1,0.3,0.3,0.4,0.5c0.3,0.4,0.5,0.9,0.7,1.3
				c0.1,0.5,0.1,1-0.1,1.5c-0.5-0.2-1-0.5-1.4-0.9c-0.3-0.3-0.4-0.6-0.6-1C-6.7,18.7-6.8,18.4-7,18c-0.5,0.1-1.5-0.4-2.3-0.8
				c0.5,0.2,0.7,0.7,0.9,1.1c0.4,0.9,0.8,1.8,1.2,2.7c0.2,0.5,0.4,0.9,0.5,1.5c0.1,0.5,0,1-0.3,1.4c-0.6-0.5-1.5-0.7-2-1.3
				c-0.2-0.3-0.4-0.6-0.6-0.9c-0.7-1.5-1.2-3.1-1.6-4.7c-0.6,0.2-0.6,0.5-1.2,0.4c0.3,0.7,0.4,1.2,0.4,2c0.1,0.9-0.1,1.9-0.7,2.6
				c-0.8-0.7-1.3-1.8-1.5-2.8c-0.2-1.1-0.1-1.8,0.1-2.9c-0.5-0.6-0.5-0.8-1-1.4c-0.7-0.8-1.4-1.5-1-3c-2.7-0.9-5.3,0.2-8,0.9
				c-2.7,0.7-5.6,1.7-8.3,2.4c-2.5,0.7-5.3,0.5-7.8,1.3c-4.3,1.4-8.1,4-12.2,6c-2.7,1.4-5.5,2.5-8.2,3.6c-4.1,1.7-8.6,3.4-13.1,3.4
				c1.5-1.9,4.1-3.5,7.4-3.8c-3.5,0.2-7.5,0.3-10.7,0c1.6-1.8,4.1-3,7.2-3.2c-2.9-0.2-5.8-0.5-8.4-1.1c1.9-1.6,4.4-2.2,6.8-2.3
				c2.4-0.1,4.9,0.3,7.3,0.4c-4.4-0.6-9.2-2.1-13.6-3.9c1.8-1.1,4.1-1.5,6.9-1.1c-2.8-0.5-3.1-0.7-6.5-2.2c2.1-1.3,5.7-2.6,8.8-1.8
				c-2.4-0.7-4.6-1.6-6.7-2.4c2.1-1.3,5.7-2,8.9-1.1c-2.1-1.3-4.3-2.9-6.1-4.3c2.4-0.6,5.7-0.7,8.5,1c-2-1.3-4-2.7-5.7-4.1
				c2.4-0.6,5.2-0.1,8,1.6c-0.7-0.6-1.3-1.5-1.6-2.3c-0.3-0.7-0.6-1.7,0.1-2.1c2.1-1.2,6.2,1.4,8.1,3c-1.2-2.2-1.9-4.8-2.1-7.3
				c0-0.1,0-0.3,0-0.4c0.1-0.2,0.2-0.3,0.4-0.4c0.8-0.6,1.7-1.1,2.6-0.8c0.5,0.1,0.8,0.5,1.2,0.8c0.8,0.9,1.4,1.6,2.2,2.5
				c-0.8-1.5-1.1-3.3-1.3-5c-0.1-0.6-0.1-1.1,0-1.7c0.3-1,1.6-1.7,2.6-1.3c0.8,0.3,1.5,1.1,1.9,1.8c0-0.9-0.1-1.7-0.1-2.6
				c0-0.2,0-0.5,0.1-0.7c0.1-0.3,1.3-1.6,1.6-2c0.1-0.1,1.8,0.7,2.2,0.9c0.1-0.9,0.8-1.9,1.5-2.5c2.1-2.1,7.7-2.3,8.1-2
				c0.3,0.1,2.7,5,2.4,7.5c0.2-1.8,0.4-2.1,0.7-3.3c0.6-2.4,2.7-4.9,3.9-4.8s1.9,1.5,2.2,2.2c0.3,1.1,0.6,2.1,0.7,3.2
				c0.1-0.2,0.2-0.3,0.4-0.4c0.5-0.2,1,0.2,1.5,0.3c0.3,0,0.6-0.1,0.8-0.2c0.6-0.2,1.3-0.3,1.9-0.4c0.1,0,0.3,0,0.4,0
				c0.3,0,1.1,0.2,1.4,0.4c-0.1-0.5,0-1-0.1-1.4c-0.2-1.2-0.2-1.9-1-2.9c-0.4,0.8-1.3,0.5-1.7,0.2c-0.2-0.2-0.3-0.6-0.4-0.9
				c-0.5-0.2-1.8,0.2-2.2,0.1c-0.2,0.3-0.3,0.3-0.6,0.5c-0.4,0.2-0.8,0.2-1.1,0c-0.4-0.2-0.7-0.5-0.9-1c-0.1-0.3-0.1-0.7-0.1-1
				c-0.6,0-1.2-0.3-1.5-1c-0.2-0.3-0.1-0.8,0-1.2c0.1-0.4,0.2-0.7,0.5-1c-0.2,0.4-0.2,1,0,1.4c0.2,0.4,0.6,0.8,1,0.8
				c0.1,0,0.3,0,0.4,0c0.1-0.6,0.8-1.5,1.3-1.4c-2-1.8-4.3-4.1-6.3-6c-0.8-0.8-1.6-1.6-2.1-2.6c-0.5-1-0.7-2.2-0.3-3.3
				c0.8-0.2,1.8-0.4,2.6-0.2c0.6,0.1,1.1,0.4,1.6,0.7c1.3,0.9,2.3,1.7,3.4,2.9c1.2,1.2,2.8,2.8,4,4c-2.1-2.3-4.6-6.7-5.3-9.7
				c-0.2-0.7-0.3-2,0.4-2c1.1,0.1,3.4-0.5,5.1,1.9c1.1,1.5,2.3,2.7,3.4,4.3c-0.6-1.5-1.4-3.9-1.7-5.5c-0.2-0.9-0.4-1.7-0.2-2.6
				c0.2-0.9,1.4-3.4,3.5-1.9c1,0.7,1.8,1.6,2.5,3c-0.2-1.5,0.1-4.1,0.9-5.3c0.2-0.3,0.4-0.6,0.7-0.7c0.4-0.1,0.8,0,1.2,0.1
				c1.5,0.6,2.6,1.9,3.2,3.3c0.7,1.4,0.6,1.9,0.9,3.4c0.1-1.6,0.2-3.1,0.6-4.6c0.1-0.3,0.1-0.6,0.3-0.9c0.2-0.4,0.6-0.7,1-0.9
				c0.4-0.3,0.9-0.6,1.4-0.6c0.3,0,0.5,0.1,0.8,0.2c0.7,0.2,1.4,0.5,1.9,1c0.4,0.4,0.5,1,0.7,1.6C0-45,0.4-43.8,0.7-42.8
				c0.4-1.4,0.8-2.8,1.5-3.6c0.6-0.8,1.7-1.2,2.6-0.9c0.7,0.2,1.2,0.8,1.5,1.5c0.5,1,0.5,2.2,0.4,3.3c0,1.2-0.2,2.4-0.4,3.6
				c0.4-0.9,0.9-2,1.4-2.9c0.9-1.3,2.2-2.4,3.7-2.8c0.4-0.1,0.8-0.1,1.2,0.1c0.3,0.2,0.5,0.5,0.6,0.8c0.6,1.4,0.7,3.3,0.2,4.8
				c0.8-0.8,1.7-1.4,2.8-1.9c2.3-1.1,3.1,1.5,3.1,2.4s-0.3,1.7-0.6,2.5c-0.6,1.5-1.4,3-2.3,4.5c1-1,2-1.9,3.2-2.7
				c1.4-1,3.1-2,4.8-1.7c0.3,0,0.5,0.1,0.7,0.3c0.5,0.5,0.3,1.3,0.1,2c-1.2,2.9-3.2,5.5-5.7,7.4c1.7-0.8,3.9-1.5,5.1-1.1
				c0.5,0.1,0.9,0.4,1.4,0.7c0.4,0.2,0.9,0.6,1,1.1c-1.7,1.9-4.5,3.6-6.7,5c-1.7,1.1-3.8,2.4-5.5,3.4c1.2-0.4,3.3-0.7,4.5-0.7
				c0.5,0,1,0,1.5,0.1c0.4,0.1,0.9,0.4,1.3,0.5c1.3,0.3,2.8-0.3,4,0.3c0.2,0.1,0.3,0.2,0.5,0.2c0.2,0,0.4-0.1,0.6-0.1
				c0.2,0,0.4,0.1,0.6,0.2c0.7,0.4,1.5,0.7,2.2,1.1c0.3,0.1,0.5,0.3,0.7,0.5c0.1,0.2,0.5,1.1,0.5,1.3c0.1,2.6-0.2,3.6-1.2,6.3
				c1.3-2.4,1.7-2.8,3.2-5c0.5-0.6,1-1.3,1.7-1.5c0.9-0.2,1.8,0.2,2.6,0.7c1.5,0.9,3,2.1,3.2,3.8c0.1,0.7-0.1,1.4-0.3,2.1
				c-0.3,1.2-0.6,2.3-1,3.5c0.4-0.5,1.3-1.4,1.8-1.8c0.6-0.5,1.3-0.9,2-1.3c0.2-0.1,0.4-0.3,0.6-0.3c1,0.1,3.1,1.1,3.4,1.5
				c0.4,0.5,0,1-0.3,1.6c0.8-0.4,1.2-0.6,1.9-0.3c0.2,0.1,0.4,0.2,0.5,0.3c0.9,0.6,1.9,1.3,2.3,2.4c0.5,0,0.9,0.3,1.3,0.4
				c0.8,0.3,1.5,0.7,2.1,1.2C53.8,4.3,50.3,7.7,47,11c2.1-1.2,5-2.6,7.2-3.6c0.6-0.3,1.2-0.5,1.9-0.6c0.6,0,1.2,0.2,1.8,0.3
				c0.7,0.2,1.4,0.4,2.2,0.7l0.1,0c0.2,0.4,0,0.8-0.2,1.2c-0.8,1.5-1.9,2.9-3.1,4.1c1.3-0.3,3.5-0.8,4.6,0c0.5,0.3,0.9,0.8,1.2,1.3
				c0.9-0.4,1.5-0.5,2.4-0.1c0.3,0.1,0.5,0.2,0.8,0.3c1,0.5,2.1,1.2,2.6,2.2c-1,0.7-3.8,1.7-3.8,1.7c1.3,0,2.5,0.1,3.7,0.4
				c1.9,0.4,3.6,1.3,4.9,2.7l-0.1,0c-0.4,0.2-0.9,0.3-1.3,0.3c-0.8,0.1-1.7,0.2-2.5,0.4c1.7,0.1,3.4,0.7,5,1.3
				c0.3,0.1,0.6,0.2,1,0.4c0.7,0.3,1.1,0.7,1.5,1.3c-4.9,1.5-10,1.6-15.1,1.7C71.7,27.5,75.7,29.9,76.5,30.9z M-23.9-22.9
				c-0.4,0-0.6,0.1-0.8,0c-0.3,0.1-0.7,0.2-1.1,0.2c0.1,0.2,0.3,0.5,0.5,0.6c0.2,0.2,0.8,0.5,1.5,0.1
				C-24.1-22.3-24.2-22.6-23.9-22.9z"/>
		</defs>
		<clipPath id="SVGID_5_">
			<use xlink:href="#SVGID_1_"  style="overflow:visible;"/>
		</clipPath>
		<g id="Base_9_" class="st0">
			<rect x="-81.5" y="-58.2" class="st1" width="166.3" height="110.5"/>
			<g id="Feathers_1_">
				<path class="st2" d="M-11.3-16.2c-8.9-4.7-17.1-12.3-22.6-20.7c-0.3-0.5,0.4-1,0.8-0.6c6.8,7.8,14,14.5,22.1,20.9
					C-10.8-16.4-11.1-16-11.3-16.2z"/>
				<path class="st2" d="M30.8-29.2C24-22.7,14.3-15,5.2-12.1C5-12.1,4.9-12.3,5-12.4c3.4-3.3,7.8-5.8,11.8-8.5
					c4.4-3,8.9-6.2,13.5-9C30.7-30.2,31.2-29.6,30.8-29.2z"/>
				<path class="st2" d="M20-27.7c-3.3,3-7.1,6.2-11.4,7.7c-0.1,0-0.2-0.1-0.1-0.2c3.4-3,7.1-5.5,10.3-8.8c1.5-1.6,2.9-3.2,4.3-4.9
					c1.3-1.6,2.1-3.5,3.9-4.5c0.3-0.1,0.7,0,0.7,0.4C27.2-34.1,22.6-30.1,20-27.7z"/>
				<path class="st2" d="M22.5-42.4C20.2-35.6,14-28.9,9.1-23.8c0,0-0.1,0,0,0c2.2-3.3,4.3-6.7,6.4-10.1c1.8-3.1,3.4-6.5,5.7-9.2
					C21.6-43.8,22.7-43.1,22.5-42.4z"/>
				<path class="st2" d="M14.9-47.6c-2,3.1-4.3,6-6,9.3C7-34.7,5.9-30.9,4.6-27c0,0.1-0.1,0.1-0.1,0c-0.4-7.7,3.2-16.7,9.3-21.4
					C14.4-48.9,15.3-48.3,14.9-47.6z"/>
				<path class="st2" d="M5.7-50.4c-1.4,4.7-3.5,9-4.6,13.8c-1.3,5.3-1.8,10.5-1.7,16c0,0-0.1,0-0.1,0c-1.4-9.7-0.5-22,5.3-30.2
					C5-51.4,5.9-51.1,5.7-50.4z"/>
				<path class="st2" d="M-3.2-19.7c0,0.4-0.5,0.4-0.6,0c-1.1-9.8-2.8-19.4-6.2-28.7c-0.1-0.2,0.3-0.4,0.4-0.2
					C-5.2-39.4-2.7-29.8-3.2-19.7z"/>
				<path class="st2" d="M-9.6-18.7c-2.9-4.6-5.4-8.7-6.9-14.1c-1.4-5-2-10.3-2.3-15.5c0-0.5,0.7-0.5,0.8,0c0.8,9.9,4,20.7,8.6,29.5
					C-9.5-18.7-9.6-18.6-9.6-18.7z"/>
				<path class="st2" d="M-18.3-25.7c-2.4-2.1-4-5.3-5.4-8.1c-1.3-2.6-2.7-5.4-2.9-8.3c0-0.2,0.3-0.3,0.4-0.1
					c1.5,2.6,2.3,5.6,3.7,8.3c1.4,2.7,3.3,5.2,4.6,7.9C-17.7-25.8-18.1-25.5-18.3-25.7z"/>
				<g>
					<path class="st2" d="M-69.5,29c0.6,0.1,0.8,0.8,0.8,1.4c0,1.9-2.2,3.2-4.1,2.9c-1.9-0.3-3.4-1.7-4.6-3.1
						c-4.2-5.2-6-12.3-4.6-18.8c1.4-6.7,5.8-12.3,10.1-17.5c2.9-3.6,5.9-7.2,9.9-9.5c3.5-2.1,7.6-3,11-5.2c3.2-2,5.9-5,9.5-5.8
						c2-0.5,4.2-0.2,6.2,0.4c4.9,1.4,9.3,4.3,12.5,8.2c0.6,0.7,1.1,1.5,2,1.9c0.8,0.4,1.7,0.3,2.6,0.2c6.1-0.5,12.4-1,18.3,0.7
						c2.1,0.6,4.1,1.5,6.3,1.6c2.7,0.1,5.3-1,7.8-1.9c4.9-1.7,10.1-2.5,15.2-2.4c2.5,0,5,0.3,7.4,1.2c3,1.1,5.6,3,8.1,4.9
						c4.9,3.7,9.8,7.3,14.7,11c4.4,3.3,8.9,6.7,12.1,11.2c3,4.2,4.6,9.2,6.2,14.2c1.6,5.1,3.2,10.5,2.2,15.8
						c-0.8,4.3-3.2,8.1-5.9,11.6c-1.1,1.4-2.3,2.8-3.9,3.4c-2.1,0.8-4.5,0.1-6.6-0.5c-2.2-0.7-4.5-1.4-6.7-2.1
						c-0.7-0.2-1.5-0.6-1.7-1.3c-0.1-0.5,0.1-1,0.4-1.4c0.9-1.5,2.3-2.7,3.8-3.6c-0.3-1.1-0.3-2.3,0-3.5c2.2,0.3,4.4,0.2,6.6-0.1
						c-1.3-1.8-2.7-3.6-4-5.4c1.5,0,3.1,0,4.6,0c1.4-1.9,1.1-4.7,0-6.8s-3-3.7-4.8-5.2c-3-2.6-6-5.1-8.9-7.7c1.2-1,2.2-2.3,2.9-3.8
						c-1.5,0.2-3,0.8-4.3,1.7c-2-3-4.2-5.9-6.5-8.6c1.3-1.3,2.3-3,2.9-4.8c-1.2,1.2-2.4,2.5-3.6,3.7c-2.1-2-4.2-4-6.3-6
						c0.9-1.4,1.8-2.9,2.7-4.3c-1.8,1-3.5,2-5.3,3c-3.6-2.7-7.3-5.4-10.9-8c-1.2-0.9-2.7-1.8-4.1-1.3c-0.6,0.2-1.2,0.8-1.8,0.8
						c-1.1,0-1.6-1.2-2.3-2c-2.4-2.7-6.7-0.5-10.1,0.4c-5.8,1.6-11.8-0.8-17.7-2.1c-5-1.1-10.3-1.2-15.4-0.5
						c-1.9,0.3-4.4,1.3-4.1,3.3c-3.6-3-10.5,3.6-10.2,4.3c-2,0.7-8.2,2.5-7.6,3.3c-1.5,1.9-4.2,2.1-6.5,2.9c-2.8,1-5.1,3.1-6.3,5.8
						c1.3-0.2,2.6-0.3,3.9-0.5C-61,7-64.1,9-67.3,10.9c0.6,1.1,1,2.4,1.2,3.6c-0.7,0.3-1.5,0.6-2.2,0.8c1.2,1.3,0.3,3.3-0.4,5
						c-1.1,2.8-1.2,6-0.3,8.8"/>
				</g>
				<g>
					<path class="st2" d="M-62.1,25.1L-62.1,25.1c4.2-1.3,7.9-4.2,10.1-8.1c-2.6-2-5.6-3.4-8.9-3.9c2.8,0.5,5.7,1,8.5,1.5
						c0.7,0.1,1.4,0.2,2.1,0.1c0.9-0.2,1.7-0.8,2.5-1.4c1.3-1,2.6-2,3.8-3c0.6-0.5,1.2-1,1.5-1.7c0.4-1,0.1-2.1-0.3-3.1
						c-1-2.9-2.2-5.7-3.5-8.4c2.7,3.3,4.6,7.3,5.4,11.5c4-0.7,8.6-1.8,10.1-5.5c1-2.5,0.3-5.4,1.3-8c0.3,2.5,0.6,5,1,7.5
						c1.6-1.8,3.7-3.1,6-3.9c2.7-0.9,6.2-1.2,7.2-3.9c0.3-0.7,0.3-1.6,0.6-2.3c1.1-3.1,5.3-3.4,8.5-3.2c1,0.1,2,0.2,2.7,0.8
						c0.6,0.5,0.8,1.3,1.1,2c2.2,5.5,7.9,9.5,13.9,9.4c0.7,0,3.8-4.6,4.9-7.3c-0.1,3.6-3.3,7.7-1.1,9.3c2,1.5,8.9,7.2,10.9,8.6
						c1.1,0.8,3,3.3,4.3,3.5c2.3,0.4,3.8-2.8,5.4-4.5s4.8-4.9,6.9-5.9c-2.6,2.7-7.8,10.4-10.3,13.1c0.9,1.5,4.1,9.8,6.5,13.7
						c3.8,6.2,9,13,15.5,16.5c2.5,1.3,5.5,2.4,6.5,5c-5.8-0.5-11.1-3.1-16.5-5.2C33,44.1,20.7,41.8,8.4,41.8c-4.5,0-9,0.3-13.5-0.2
						c-4.7-0.5-9.2-1.9-13.8-2.6c-4.8-0.7-9.6-0.5-14.4-0.6c-8-0.2-16-1-23.8-2.6c-4-0.8-8-1.7-12-2.9c-2-0.6-7.8-1.9-4.3-4.8
						C-70.5,25.9-65.5,26.1-62.1,25.1z"/>
				</g>
			</g>
			<g id="Dark_7_">
				<g>
					<path class="st3" d="M-51.1,18.8C-51.1,18.8-51.1,18.8-51.1,18.8c3.1-2.8,6-6.1,9.9-7.5c0.1,0.8,0.3,1.7,0.4,2.5
						c0.2-1.6,1.5-2.9,3-3.7c1.5-0.8,3.1-1.1,4.7-1.6c3.3-1.1,6.3-3.1,8.5-5.7c1.1-1.3,2.3-2.8,4-2.8c1,0,1.9,0.6,2.8,0.6
						c1.1,0,2-0.6,2.9-1.1c2.7-1.4,5.8-1.7,8.7-0.9c1.5,0.4,3,1.1,4.5,0.9C-1-0.6-0.5-0.8,0.1-0.7c1.6,0.2,2.1,2.2,3.3,3.2
						c5.8,4.9,6.7,1.3,10,2.2c1.2,0.3,2.2,1.3,3.1,2.2c2,2,4.8,3.8,6.8,5.8c3.1,3.2,5.4,3.9,7.5,7.8c1.8,3.3,2.7,7.1,4.6,10.4
						c3.3,5.7,9.2,9.5,12.6,15.1C39.5,42,31,38.3,22,36c-5.6-1.4-11.3-2.3-17-3.1c-14.7-2.2-29.7-4.3-44.5-2.8
						c-3,0.3-6.1,0.8-9.1,0.7c-2.1-0.1-4.3-0.5-6.4-0.9c-2.3-0.4-4.5-0.8-6.8-1.2c-0.9-0.2-2.6-1.1-1.7-2.1c0.4-0.4,1.6-0.7,2.1-1
						c0.7-0.4,1.5-0.7,2.2-1.1C-56.3,22.9-53.6,21-51.1,18.8z"/>
				</g>
				<g>
					<path class="st3" d="M-73,25.2c-0.2-1,0.3-1.9,0.8-2.8c-1,0.4-2-0.7-2-1.8c0-1,0.7-1.9,1.4-2.7c-0.8-0.1-0.9-1.3-0.4-2
						s1.2-1.2,1.3-2c-0.5,0.5-1.4-0.1-1.5-0.8s0.3-1.4,0.7-2c0.4-0.6,0.8-1.3,0.6-2c0.9-1,1.8-2,2.8-3c-0.7-0.5-0.1-1.5,0.4-2.1
						c0.9-0.9,1.7-1.8,2.6-2.8c0.8-0.9,1.8-1.8,3-2c0.5-0.1,1.1,0,1.6-0.1c0.6-0.1,1.1-0.6,1.6-0.9c2-1.6,4-3.2,5.6-5.2
						c1-1.2,1.9-2.6,3.3-3.1c0.8-0.3,1.8-0.3,2.4-0.8c0.4-0.3,0.6-0.7,0.9-1.2c1-1.5,2.7-2.6,4.6-3.4c2.1,0.3,3.2-1.2,4.7-1.6
						c0.3-0.1-0.3-2.3-0.3-2.3c0.3,1.3,1,2.1,1.3,2c1.7-0.3,3.6-0.3,5-0.9c0.4-0.1,1.2-1.1,1.7-1c2.5,0.6,5.1,0.8,7.6,0.6
						c-0.7-1.2-1.7-2.2-2.9-2.9c-1.4-0.8-2.9-1.1-4.5-1.4c-2.8-0.5-5.6-1-8.3-1.3c-5.7-0.8-11.6-1.4-17.2,0.3
						c-3.1,0.9-5.9,2.4-8.6,4.1c-5.7,3.4-11.3,7.4-14.6,13.2c-1.9,3.4-2.8,7.3-3.7,11.1c-1.3,6.3-2.3,12.8-1.1,19
						c0.3,1.3,0.6,2.6,1.3,3.8c0,0,0,0,0,0c1.8,3,5.6,4.5,8.9,5.2c4.6,0.9,2-3.4,3.1-6.1C-71.7,26.9-72.9,26.2-73,25.2z"/>
				</g>
				<g>
					<path class="st3" d="M-26.8-34.2C-26.8-34.2-26.8-34.2-26.8-34.2c0.2-0.3,0.4-0.6,0.8-0.8c0.3-0.1,0.8,0,0.9,0.3
						c2.2-3.4,5.9-5.4,9.6-7c1.9-0.8,3.9-1.6,6-1.7c0.8,0,1.5,0,2.3-0.1c1.2-0.3,2.2-1.1,3.4-1.2c0.7-0.1,1.4,0.1,2.1,0.3
						c0.6,0.2,1.3,0.4,1.7,0.8s0.7,1.2,0.4,1.7c1.2-0.8,2.7-1.6,3.9-0.9c0.5,0.3,0.8,0.7,1.2,1s1.1,0.5,1.5,0.1c0,0.4,0.1,0.7,0.3,1
						c2.1-0.5,4.5,0,6.2,1.4c-0.5,0.7-1,1.4-1.4,2c1.2-0.3,2.4-0.5,3.5,0c0.6,0.3,1.1,0.8,1.5,1.3c1.4,1.6,2.8,3.1,4.3,4.7
						c0.5,0.6,1.1,1.2,1.3,1.9c0.2,0.7,0,1.7-0.6,2.1c0.9,1.6,1.8,3.2,2.6,4.8c0.1,0.2,0.3,0.5,0.5,0.6c0.2,0.1,0.5,0.2,0.8,0.1
						c1.3-0.2,2.4-1.3,2.8-2.5c0.4-1.3,0.4-2.6,0.2-3.9c-1-7.3-4.9-13.8-9.5-19.5c-0.5-0.7-1.1-1.3-1.8-1.9
						c-0.8-0.6-1.7-0.9-2.6-1.2C8-53.4,0.8-56.1-6.8-57c-1.5-0.2-3-0.3-4.5-0.1c-5,0.7-8.7,4.7-13,7.3c-2.7,1.7-5.7,2.8-8.4,4.6
						c-2.6,1.8-5,4.4-5.3,7.6c-0.3,2.5,0.8,5,2.3,6.9c0.8,1,1.7,1.9,2.9,2.2c1.4,0.3,2.4-0.3,3-1.4C-28.9-31.4-27.8-32.8-26.8-34.2z
						"/>
				</g>
				<g>
					<path class="st3" d="M10.4-14.7c1.5,0.4,2.9,0.8,4.4,1.1c0.2,0.1,0.5,0.1,0.7,0c0.4-0.1,0.5-0.6,0.8-0.9
						c0.6-0.8,1.8-0.8,2.7-0.7c2.3,0.2,4.6,0.4,6.9,0.6c1.1,0.1,2.3,0.2,3.2,1c0.3,0.3,0.5,0.7,0.9,0.8c0.4,0.2,0.9,0.1,1.4,0.1
						c1,0,1.9,0.5,2.7,1.1c2.3,1.4,4.7,2.8,7,4.2c0.3,0.2,0.5,0.3,0.7,0.5c0.2,0.2,0.4,0.4,0.5,0.6c0.7,0.8,1.5,1.4,2.4,2
						c1.9,1.3,3.7,2.5,5.6,3.8c0.7,1,1.5,1.8,2.5,2.5c0.7,0.5,1.5,1,2,1.7c0.5,0.7,0.5,1.9-0.3,2.3c1,1.7,2,3.3,3,5
						c0.2,0.3,0.4,0.7,0.7,0.9c0.3,0.2,0.6,0.3,0.9,0.3c3.1,0.8,4.4,2.5,6,5.1c0.1,0.2,0.3,0.5,0.5,0.6c0.2,0.1,0.5,0.1,0.8,0.1
						c1.1,0,2.2,0.2,3.2,0.6c-0.3,1.2-0.3,2.1-0.2,3.4c0.9,0.2,1.2,0.3,2.1,0.6c-0.1,1.1,0.4,2.7,0.3,3.8c-1.6,0.2,1.2,1-0.4,1.2
						c0.7,1.4,0.3,3.3-0.2,4.2c-0.1,0.2,0.1,0.5,0.3,0.7c0.1,0.2,0.4,0.3,0.7,0.4c1.4,0.4-2,0.5-0.8,1.3c0.4,0.3,0.9,0.6,1.1,1.1
						c0.2,0.4,0.1,0.9,0,1.4c-0.6,3-0.5,6-2.2,8.7c-0.5,0.8-1.2,1.6-2,2.1c-0.9,0.4-2,0.4-2.7-0.3c0,1.1-0.8,2-1.8,2.3
						c-1,0.3-2.2-0.2-2.8-1.1c-1,1.2-2,2.9-1.2,4.2c0.2,0.4,0.6,0.7,0.9,0.9c3.1,2.4,6.8,3.9,10.7,4.3c1.1,0.1,2.3,0.1,3.4-0.2
						c2.7-0.9,4.2-3.7,5.1-6.4C83.2,41.5,81.9,30,76.4,21C73,15.2,68,10.5,63.9,5.1C59.8-0.2,56.6-6.3,51.9-11
						c-2.8-2.8-6.2-5.1-10-5.7c-3.7-0.6-7.5,0.4-11.2,0.3c-3.9-0.1-7.8-1.3-11.7-1.7c-1-0.1-2-0.1-2.9,0.2c-0.8,0.2-1.5,0.7-2.2,1.1
						c-1.3,0.9-2.7,1.7-4,2.6"/>
				</g>
				<g>
					<path class="st4" d="M-25-30.5C-25-30.5-25-30.5-25-30.5c0.7-0.8,1.9-1,2.7-1.7c1.1-1,1.4-2.7,2.7-3.4c0.4-0.2,1-0.3,1.4-0.4
						c2.3-0.5,4.2-1.9,6.3-2.8c0,0.5,0.2,0.9,0.4,1.3c1.4-0.5,2.9-1,4.3-1.5c0.5-0.2,1.2-0.6,1.1-1.1c1.4-0.4,2.8-0.5,4.2-0.6
						c0.5,0,1.1,0,1.5,0.3c0.4,0.3,0.5,1,0.1,1.3c2,0.5,4.1,1.1,6,1.8c0.2-0.6,1-0.6,1.6-0.4c1.5,0.5,2.9,1.1,4.3,2
						c-0.2,0.2-0.4,0.4-0.5,0.5c1.5,0.8,2.8,1.8,4,3.1c0.6,0.7,1.4,1.5,2.3,1.2c0.7,1,1.3,2,2,3c0.3,0.4,0.5,0.8,0.5,1.3
						c0,0.5-0.3,1-0.8,1c1.2,1.4,1.8,3.3,1.7,5.2c-0.9,0.2-1.7,0.6-2.5,0.9c0-1.4-0.5-2.8-1.3-4c-0.1-0.2-0.3-0.4-0.4-0.6
						c-0.1-0.3-0.2-0.6-0.3-0.9c-0.4-1.7-0.9-3.4-1.5-5.1c-0.3,0.5-0.6,0.9-0.9,1.4c-1.5-1.4-2.8-2.9-4-4.5
						c-0.2,0.1-0.3,0.3-0.5,0.4c-1.3-1-2.7-1.9-4.1-2.6c-0.2,0.3-0.3,0.7-0.5,1c-1.8-0.7-3.7-1.2-5.7-1.4c0-0.3,0-0.6,0-0.9
						C-2-37-3.3-37.1-4.6-37.1c-0.3,0-0.7,0.1-0.9,0.3c-0.2,0.2-0.2,0.4-0.4,0.6c-0.3,0.4-0.9,0.3-1.4,0.4C-8.2-35.7-9-35.2-9.8-35
						c-0.9,0.1-1.9-0.5-1.8-1.3c-1-0.1-1.8,0.9-2.5,1.7c-0.7,0.8-1.9,1.5-2.7,0.8c-1,1.6-2.1,3.1-3.1,4.7c-0.1,0.1-0.1,0.2-0.2,0.2
						c-0.1,0-0.3,0-0.4-0.1c-0.5-0.4-1.1-0.7-1.6-1.1c-0.9,0.8-1.6,1.9-2,3.1c-0.1,0.4-0.2,0.9-0.5,1.3c-0.2,0.4-0.7,0.7-1.1,0.6
						C-27.8-25.4-25.7-29.8-25-30.5z"/>
				</g>
				<g>
					<path class="st5" d="M16-17.8c-0.7-1.1-1.4-2.2-2.1-3.2c-0.1-0.2-0.2-0.4-0.2-0.6c0-0.2,0.1-0.4,0.1-0.5
						c0.2-1.2-1.8-1.6-1.9-2.8c0-0.2,0-0.4,0-0.6c-0.1-0.2-0.2-0.3-0.3-0.4c-0.9-0.7-2-1.2-2.8-2c-0.9-1-1.4-2.3-2.5-3.2
						c-1-0.8-1.8-0.5-3-0.2c-0.3,0.1-0.6,0-0.9,0c-0.7-0.1-1.4-0.3-2.1-0.4c-0.2,0-0.4-0.1-0.6-0.2c-0.2-0.1-0.2-0.4-0.3-0.6
						C-1.2-33.6-2.9-34-4-33.3c-0.2,0.1-0.4,0.3-0.6,0.4c-0.2,0.1-0.4,0.1-0.6,0.2c-0.3,0.2-0.3,0.5-0.5,0.8
						c-0.4,0.9-1.6,1.1-2.7,1.2c-0.2,0-0.5,0-0.7-0.1c-0.2-0.1-0.2-0.4-0.3-0.6c-0.3-0.4-1-0.1-1.2,0.3s-0.3,0.9-0.6,1.3
						c-0.4,0.5-1.1,0.7-1.7,0.6c-0.6-0.1-1.2-0.4-1.8-0.7c-0.2,1.2-1.4,2.3-2.7,2.3c-0.4,0-0.8,0-1.1,0.1c-0.4,0.2-0.5,0.6-0.8,0.9
						c-0.9,1.1-3,1-3.5,2.4c-0.3,0.9,0.4,1.8,0.9,2.5c0.1,0.2,0.3,0.3,0.5,0.4c0.3,0.1,0.6,0,0.9,0c0.5,0,0.9,0.3,1.4,0.4
						c1.3,0.3,2.6-0.7,3.6-1.5c0.6-0.5,1.3-1.2,1.1-2c-0.1-0.4-0.4-0.8-0.3-1.2c0-0.2,0.2-0.3,0.3-0.5c1-1.1,2.7-1.6,4.1-1.1
						c0.5-0.9,1.7-1.1,2.7-1.2c1.2-0.1,2.3-0.2,3.5-0.3c0.1-0.6,0.2-1.4,0.8-1.6c0.2-0.1,0.5-0.1,0.8-0.1c0.7,0.1,1.5,0.3,2.2,0.6
						c0.7,0.3,1.5,0.7,2.2,0.5c0.4-0.1,0.7-0.4,1.2-0.5c0.8-0.2,1.4,0.5,2,1c0.7,0.7,1.4,1.7,1.2,2.7c0,0.2-0.1,0.3-0.1,0.5
						c0,0.1,0.2,0.2,0.3,0.3c0.7,0.4,1.7,0.7,2.1,1.4c0.1,0.2,0.2,0.5,0.5,0.7c0.2,0.1,0.4,0.1,0.6,0.1c0.8,0.1,1.2,1,1.4,1.7
						c0.6,1.8,1.1,3.6,1.7,5.5c0.8-0.2,1.6-0.5,2.4-0.9c-0.1-0.5,0.4-1,0.8-0.8"/>
				</g>
				<g>
					<path class="st4" d="M-69.7,27.8c0-0.5-0.1-1.1,0.3-1.5c0.2-0.2,0.6-0.3,0.9-0.4c0.1,0,0.1,0,0.2,0c0.1,0,0.1,0.1,0.1,0.2
						c0,0.8,0,1.7,0,2.5c0,0,0,0,0,0C-69.3,28.7-69.6,29.2-69.7,27.8z"/>
				</g>
				<g>
					<path class="st5" d="M-67.1,27.3c0-0.5-0.1-1.1,0.3-1.5c0.2-0.2,0.6-0.3,0.9-0.4c0.1,0,0.1,0,0.2,0c0.1,0,0.1,0.1,0.1,0.2
						c0,0.8,0,1.7,0,2.5c0,0,0,0,0,0C-66.8,28.2-67,28.6-67.1,27.3z"/>
				</g>
				<g>
					<path class="st4" d="M-71.9,24.6c0-0.6,0-1.3,0.5-1.7c0.3-0.2,0.7-0.3,1.1-0.3c0.1,0,0.2,0,0.2,0c0.1,0.1,0.1,0.2,0.1,0.3
						c-0.1,1-0.1,2-0.2,3c0,0,0,0,0,0C-71.5,25.7-71.8,26.2-71.9,24.6z"/>
				</g>
				<g>
					<path class="st5" d="M-68.6,24.5c0-0.6,0-1.3,0.5-1.7c0.3-0.2,0.7-0.3,1-0.3c0.1,0,0.1,0,0.2,0c0.1,0.1,0.1,0.2,0.1,0.3
						c-0.1,0.9-0.1,1.9-0.2,2.8c0,0,0,0,0,0C-68.3,25.6-68.6,26-68.6,24.5z"/>
				</g>
				<g>
					<path class="st4" d="M-72.1,19.8c0-0.1,0.1-0.1,0.1-0.2c0,0,0.1-0.1,0.2-0.1c0.5-0.1,1.1-0.2,1.6-0.1c-0.1,1-0.1,1.9-0.2,2.9
						l0,0c-0.4-0.1-1.7-0.2-2-0.5C-72.9,21.5-72.3,20.3-72.1,19.8z"/>
				</g>
				<g>
					<path class="st5" d="M-68.4,20.6c0.3-0.6,0.9-1.1,1.5-1.3c0.1,0,0.3-0.1,0.4,0c0.1,0.1,0.1,0.3,0.1,0.5c0,0,0,0,0,0
						c-0.1,0.8-0.2,1.6-0.3,2.3c-0.1,0.8-0.3,0.7-1.1,0.5C-68.8,22.4-68.9,21.7-68.4,20.6z"/>
				</g>
				<g>
					<path class="st4" d="M-70.8,15.9c0-0.2,0.1-0.4,0.2-0.6c0.3-0.6,1.5-1.1,1.8-0.3c0.3,0.7-0.4,2.4-0.5,3.1c0,0.1,0,0.1-0.1,0.2
						c0,0-0.1,0-0.2,0c-0.4,0-1.3-0.1-1.5-0.5C-71.4,17.5-70.9,16.3-70.8,15.9z"/>
				</g>
				<g>
					<path class="st5" d="M-67.6,17.5c0-0.2,0.1-0.4,0.2-0.6c0.3-0.6,1.5-1.9,1.9-1.1c0.3,0.7-0.4,2.4-0.5,3.1c0,0.1,0,0.1-0.1,0.2
						c0,0-0.1,0-0.2,0c-0.4,0-0.9-0.1-1.1-0.5C-67.6,18.3-67.7,17.9-67.6,17.5z"/>
				</g>
				<g>
					<path class="st5" d="M-67,13.8c0-0.2,0.1-0.4,0.2-0.6c0.3-0.6,1.9-2.2,2.2-1.4c0.3,0.7-0.7,2.7-0.9,3.4c0,0.1,0,0.1-0.1,0.2
						c0,0-0.1,0-0.2,0c-0.4,0-0.9-0.1-1.1-0.5C-67,14.6-67.1,14.2-67,13.8z"/>
				</g>
				<g>
					<path class="st4" d="M-71.4,12.7c0-0.2,0.1-0.4,0.2-0.6c0.8-1.3,1.4-2.4,2.2-1.4c0.5,0.6-0.7,2.7-0.9,3.4c0,0.1,0,0.1-0.1,0.2
						c0,0-0.1,0-0.2,0c-0.4,0-0.9-0.1-1.1-0.5C-71.4,13.5-71.5,13.2-71.4,12.7z"/>
				</g>
				<g>
					<path class="st5" d="M-65.2,9.9c0-0.2,0.5-1.3,0.6-1.4c0.3-0.6,1.6,0.5,1.6,0.5c0.3,0.7-0.6,1.6-0.7,2.4c0,0.1,0,0.1-0.1,0.2
						c0,0-0.1,0-0.2,0c-0.4,0-0.9-0.1-1.1-0.5C-65.3,10.6-65.3,10.3-65.2,9.9z"/>
				</g>
				<g>
					<path class="st4" d="M-69.3,8.9c0-0.2,0.1-0.4,0.2-0.6c0.3-0.5,0.6-1,0.9-1.3c0.4-0.5,1.5-0.5,2,0.1c0.5,0.6-1.4,2.5-1.6,3.2
						c0,0.1,0,0.1-0.1,0.2c0,0-0.1,0-0.2,0c-0.4,0-0.9-0.1-1.1-0.5C-69.3,9.6-69.4,9.3-69.3,8.9z"/>
				</g>
				<g>
					<path class="st5" d="M-61.6,5.1l0.9,0.8c0,0.8-1.3,2.2-2.4,2.7c-0.1,0-1.3-0.6-1.3-1.1C-64.5,7.1-61.8,5.2-61.6,5.1z"/>
				</g>
				<g>
					<path class="st4" d="M-66.8,5.2c0.1-0.2,0.2-0.3,0.3-0.4c0.4-0.4,0.9-0.7,1.2-0.9c0.6-0.3,1.7-0.1,2.1,0.6
						c0.4,0.7-2,1.9-2.3,2.5c0,0-0.1,0.1-0.1,0.1c-0.1,0-0.1,0-0.2,0c-0.4-0.1-1-0.3-1.1-0.7C-67,5.9-67,5.6-66.8,5.2z"/>
				</g>
				<g>
					<path class="st4" d="M-53.4-4.6c0.3-0.2,0.7-0.2,1.1-0.3c0.6,0,1.2-0.1,1.8-0.1c-0.3,0.2-0.6,0.4-0.9,0.6
						c-0.5,0.4-0.8,0.9-1,1.5c-0.1,0.5-0.2,1-0.6,1.2c-0.1,0.1-0.3,0.1-0.4,0.1c0,0,0,0,0,0c-0.8,0.1-2.9,0.5-2.1-1.1
						c0.2-0.4,0.7-0.5,1-0.8C-54.1-3.8-53.8-4.3-53.4-4.6z"/>
				</g>
				<g>
					<path class="st4" d="M-48.9-9c0.3-0.2,0.6-0.2,1-0.3c0.6,0,1.1-0.1,1.7-0.1C-46.5-9.2-46.8-9-47-8.8c-0.4,0.4-0.8,0.9-0.9,1.4
						c-0.1,0.4-0.1,1-0.5,1.2c-0.1,0.1-0.3,0.1-0.4,0.1c0,0,0,0,0,0c-0.8,0.1-2.7,0.4-2-1c0.2-0.3,0.7-0.5,0.9-0.7
						C-49.5-8.2-49.3-8.7-48.9-9z"/>
				</g>
				<g>
					<path class="st4" d="M-44.2-12c0.3-0.2,0.6-0.2,0.9-0.2c0.5,0,1-0.1,1.5,0c-0.3,0.1-0.5,0.3-0.8,0.5c-0.4,0.3-0.7,0.8-0.8,1.3
						c-0.1,0.4-0.1,0.9-0.5,1c-0.1,0.1-0.2,0.1-0.4,0.1c0,0,0,0,0,0c-0.7,0.1-2.2-0.6-2-0.8C-45.9-10.5-44.6-11.7-44.2-12z"/>
				</g>
				<g>
					<path class="st4" d="M-39.5-13.8c0.2-0.1,0.5-0.1,0.8-0.1c0.4,0,0.9,0,1.3,0c-0.2,0.1-0.5,0.2-0.7,0.4c-0.3,0.3-0.6,0.6-0.8,1
						c-0.1,0.3-0.2,0.7-0.5,0.9c-0.1,0-0.2,0-0.3,0c0,0,0,0,0,0c-0.6,0-1.9-0.7-1.6-0.8C-41-12.7-39.8-13.6-39.5-13.8z"/>
				</g>
				<g>
					<path class="st5" d="M-46.4-5.9c0.2-0.2,0.6-0.2,0.8-0.2c0.5,0,1-0.1,1.4,0c-0.3,0.1-0.5,0.3-0.7,0.5c-0.4,0.3-0.7,0.7-0.8,1.2
						c-0.1,0.4-0.1,0.8-0.5,1c-0.1,0.1-0.2,0.1-0.3,0.1c0,0,0,0,0,0c-0.6,0.1-2.3,0.4-1.7-0.9c0.1-0.3,0.6-0.4,0.8-0.6
						C-47-5.3-46.8-5.7-46.4-5.9z"/>
				</g>
				<g>
					<path class="st5" d="M-41.5-8c0.2-0.1,0.5-0.2,0.8-0.2c0.4,0,0.9,0,1.3,0c-0.2,0.1-0.5,0.3-0.7,0.4c-0.3,0.3-0.6,0.7-0.7,1.1
						c-0.1,0.3-0.1,0.7-0.4,0.9c-0.1,0-0.2,0.1-0.3,0.1l0,0c-0.6,0.1-1.9-0.5-1.7-0.7C-42.9-6.8-41.8-7.8-41.5-8z"/>
				</g>
				<g>
					<path class="st5" d="M-37.5-9.8c0.2-0.1,0.4-0.1,0.6-0.1c0.3,0,0.7,0,1,0c-0.2,0.1-0.4,0.2-0.5,0.3c-0.3,0.2-0.5,0.5-0.6,0.8
						c-0.1,0.2-0.1,0.6-0.4,0.7c-0.1,0-0.2,0-0.2,0l0,0c-0.4,0-1.4-0.5-1.2-0.6C-38.6-8.9-37.8-9.7-37.5-9.8z"/>
				</g>
				<g>
					<path class="st4" d="M-57.8-1.4c0.2-0.1,1.6,0.3,1.3,0.7c-0.3,0.5-2.4,3-2.9,3.2c-0.2,0.1-1.3-1.3-1.3-1.5
						C-60.4-0.6-58.5-1.3-57.8-1.4"/>
				</g>
				<g>
					<path class="st5" d="M-53.6,0.4c0.3,0.2,0.8,0.1,1.1-0.2s0.5-0.6,0.6-0.9c0.2-0.4,0.3-0.8,0.7-1c0.1-0.1,0.3-0.1,0.4-0.1
						c0.6-0.1,1.2-0.1,1.7,0c-0.4,0.3-0.9,0.5-1.2,0.9c-0.5,0.6-0.4,1.6-0.9,2.1c-0.3,0.3-0.8,0.3-1.2,0.2c-0.5-0.1-0.9-0.4-1.3-0.7
						"/>
				</g>
				<g>
					<path class="st4" d="M-63.2,3c0-0.1,1.3-1.9,1.9-1.8c-0.1,0.4,1,0.2,0.9,0.7C-60.3,1.8-62.9,6-63.2,3z"/>
				</g>
				<g>
					<path class="st5" d="M-58.7,3.1C-58.7,3.1-58.7,3.1-58.7,3.1c0,0.3,0,0.6,0.1,1c0,0.5,0.1,1.1-0.3,1.4
						c-0.2,0.2-0.5,0.3-0.8,0.3C-62.5,6.1-60.3,2.4-58.7,3.1z"/>
				</g>
				<g>
					<path class="st5" d="M-56.4,1.9C-56.4,1.9-56.4,1.9-56.4,1.9c0.2-0.5,0.7-0.7,1.2-0.7s1,0,1.5-0.1c-0.7,0.4-0.5,1.5-1.1,2
						c-0.3,0.2-2,0.5-2.3,0.3C-58,2.9-56.6,2.3-56.4,1.9z"/>
				</g>
				<g>
					<path class="st4" d="M57.2,49.2c0.1-0.1,0.3-0.1,0.4-0.2c0.2-0.2,0.2-0.4,0.3-0.6c0.1-0.5-0.2-1.2-0.7-1.3c-0.1,0-0.2,0-0.3,0
						c-0.1,0-0.1,0.1-0.2,0.1c-0.5,0.5-1.2,0.7-1.8,0.7c-0.1,0-0.1,0-0.2,0c-0.1,0,0,0.1,0,0.2c0,0.2,0,0.4,0.1,0.6
						c0,0.1,0,0.1,0.1,0.2c0,0,0.1,0.1,0.1,0.1c0,0,0,0,0,0C55.6,49.5,56.4,49.5,57.2,49.2z"/>
				</g>
				<g>
					<path class="st5" d="M53.4,45.3C53.4,45.3,53.4,45.3,53.4,45.3c0.1-0.1,0.2-0.3,0.1-0.4c0-0.1-0.1-0.1-0.1-0.1
						c-0.6-0.3-1.1-0.6-1.7-0.9c0,0.5-0.4,0.9-0.9,1.1c-0.5,0.2-1,0.1-1.5,0.1c-0.3,0-0.6,0-0.8,0.2c-0.2,0.2-0.1,0.6,0,0.8
						c0.2,0.2,0.4,0.4,0.7,0.5C50.8,47.2,52.4,46.7,53.4,45.3z"/>
				</g>
				<g>
					<path class="st4" d="M62.9,46.6C62.9,46.6,62.9,46.6,62.9,46.6c0-0.1,0-0.3-0.1-0.3c0-0.1-0.1-0.1-0.2-0.1
						c-0.6-0.2-1.8-0.8-1.8-0.7c0,0,0.2,0.7-0.1,1.6c-0.3,0.9-1,0.7-1.4,1c0.1-0.1,1.7,0.6,2.2,0.5C62.4,48.1,62.8,47.5,62.9,46.6z"
						/>
				</g>
				<g>
					<path class="st4" d="M66,43.8C66,43.8,66,43.8,66,43.8c0-0.2,0-0.3-0.1-0.5c-0.1-0.1-0.2-0.1-0.2-0.1c-0.8-0.3-1.7-0.6-2.5-0.9
						c-0.1,0-0.2,0-0.2,0c0,0,0,0.1,0,0.2c0.1,0.4,0.5,0.7,0.2,1.8c-0.4,1.2-1.4,0.9-1.8,1.3c0.1-0.1,2,0.9,2.6,0.7
						C65.6,45.8,65.9,45,66,43.8z"/>
				</g>
				<g>
					<path class="st4" d="M65.6,41.5c0.2-0.5,0.3-1,0.2-1.5c-0.1-0.5-0.3-1.1-0.4-1.6c0.6,0.3,1.2,0.6,1.7,1
						c0.3,0.2,0.6,0.4,0.8,0.6c0.2,0.4,0.2,0.8,0.2,1.2c0,0.3,0,0.7-0.1,1c-0.1,0.3-0.3,0.7-0.6,0.8c-0.3,0.2-0.7,0.1-1.1,0.1
						c0,0,0,0,0,0c-0.3-0.1-1.6-0.4-1.6-0.4C65.1,42.4,65.5,41.9,65.6,41.5z"/>
				</g>
				<g>
					<path class="st4" d="M66.9,36.1c0.2-0.8,0-1.6-0.2-2.4c0.2,0,0.5,0.1,0.7,0.1c0.2,0,0.4,0.1,0.5,0.1c0.4,0.2,0.6,0.7,0.7,1.2
						c0.1,0.4,0.3,0.9,0.2,1.4c0,0.7-0.4,1.4-0.8,2c0,0.1-0.1,0.1-0.1,0.2c-0.1,0-0.2,0-0.3,0l0,0c-0.5-0.1-1.9-0.3-2.2-0.6
						c0.1-0.3,0.7-0.7,0.9-1C66.6,36.8,66.8,36.5,66.9,36.1z"/>
				</g>
				<g>
					<path class="st4" d="M66.6,29.9c0.1-0.9-0.4-2-0.8-2.8c0.3,0,1.2,0.5,1.5,0.4c0.2,0,1,0,1.2,0.1c0.6,0.1,0.8,1.7,0.9,2.2
						c0.1,0.8-0.3,1.5-0.6,2.3c0,0.1-0.1,0.2-0.2,0.2c-0.1,0.1-0.2,0.1-0.3,0.1l0,0c-0.6,0-2.6,0.1-3-0.1c0-0.3,0.8-0.9,1-1.2
						C66.5,30.7,66.6,30.3,66.6,29.9z"/>
				</g>
				<g>
					<path class="st5" d="M56,45.2c0.1-0.1,0.1-0.2,0.1-0.2c0.1-0.4,0.2-0.8,0.3-1.3c0.2,0,0.3,0,0.5,0.1c0.3,0.2,0.7,0.3,1,0.5
						c0,0,0.1,0,0.1,0.1c0,0,0,0.1,0,0.1c0,0.5,0,1-0.1,1.5c0,0.1,0,0.3-0.1,0.4c-0.1,0.2-0.4,0.3-0.6,0.3c-0.2,0.1-0.4,0.1-0.6,0.1
						c-0.2,0-0.3-0.1-0.5-0.2c0,0,0,0,0,0c-0.2-0.1-1-0.5-1-0.8C55.1,45.3,55.7,45.4,56,45.2z"/>
				</g>
				<g>
					<path class="st5" d="M57.3,42.5c0.1-0.1,0.5-1.5,0.5-2c0.2-0.1,0.5,0.3,0.7,0.3c0.4,0.2,0.6,0.2,1,0.3c0,0,0.1,0,0.1,0.1
						c0,0,0,0.1,0,0.1c0.1,0.6,0.1,2.1,0,2.3c-0.1,0.2-1.5,0.8-1.8,0.8c-0.2,0-1.1-0.6-1.7-0.9C56.6,43,57,42.8,57.3,42.5z"/>
				</g>
				<g>
					<path class="st5" d="M59.7,39.8c0.2-0.3,0.2-0.6,0.2-1c0-0.4,0-0.7,0-1.1c0-0.2,0-0.4,0.2-0.5c0.1-0.1,0.3-0.1,0.4-0.1
						c0.5,0,1,0.1,1.5,0.2c0,1.1-0.1,2.2-0.1,3.3c0,0.1,0,0.3-0.1,0.4c-0.1,0.2-0.3,0.2-0.4,0.3c-0.2,0.1-0.4,0.2-0.5,0.2
						c-0.5,0.1-1-0.1-1.4-0.3l0,0c-0.3-0.1-0.9-0.2-0.7-0.6C58.9,40.2,59.4,40.1,59.7,39.8z"/>
				</g>
				<g>
					<path class="st5" d="M59.2,36.6c0.4-0.1,0.8-0.4,1.2-0.6c0.2-0.1,0.4-0.3,0.5-0.5c0.2-0.4,0.1-0.9,0-1.4
						c-0.2-0.7-0.4-1.4-0.6-2c0.5,0.1,1,0.3,1.5,0.4c0.1,0,0.3,0.1,0.4,0.2c0.1,0.1,0.2,0.3,0.2,0.5c0.2,0.7,0.3,1.5,0.5,2.2
						c0.1,0.3,0.1,0.6,0,0.9c-0.1,0.3-0.4,0.5-0.7,0.7C62.1,37,62,37,61.8,37.1c-0.1,0-0.2,0-0.3,0C60.7,37,59.9,36.8,59.2,36.6"/>
				</g>
				<g>
					<path class="st5" d="M61.1,29.7c0-0.8-0.2-1.5-0.2-2.3c0-0.2,0-0.3,0.1-0.4c0.1-0.1,0.2-0.1,0.4,0c0.3,0,0.5,0.1,0.8,0.1
						c0.1,0,0.2,0,0.3,0.1c0.1,0,0.1,0.1,0.1,0.2c0.3,0.6,0.6,1.3,0.9,2c0.1,0.4,0.3,0.9,0.2,1.3c-0.1,0.5-0.3,0.9-0.6,1.3
						c0,0.1-0.1,0.1-0.2,0.2c-0.1,0-0.1,0-0.2,0l0,0c-0.4,0-2.2,0.1-2.2-0.4c0-0.2,0.3-0.7,0.4-0.9C61.1,30.5,61.1,30.1,61.1,29.7z"
						/>
				</g>
				<g>
					<path class="st5" d="M60.1,25c-0.2-0.7-0.5-1.4-0.6-2.1c0-0.1-0.1-0.3,0-0.4c0.1-0.1,0.2-0.1,0.4-0.1c0.3,0,1.4-0.1,1.7,0.1
						s1.2,2.5,1.2,2.9c0,0.5-0.2,0.9-0.3,1.3c0,0.1-0.1,0.1-0.1,0.2c-0.1,0-0.1,0-0.2,0.1l0,0C61.7,27,60,27.5,59.9,27
						c-0.1-0.2,0.2-0.7,0.2-1C60.2,25.7,60.1,25.4,60.1,25z"/>
				</g>
				<g>
					<path class="st5" d="M56.9,21.8c-0.4-0.7-0.4-0.9-0.8-1.6c-0.1-0.1-0.1-0.3-0.1-0.4c0.1-0.1,0.2-0.2,0.3-0.2
						c0.3-0.1,0.8-0.1,1.1-0.1c0.1,0,0.2-0.1,0.3-0.1c0.1,0,0.1,0.1,0.2,0.1c0.6,0.4,0.3,0.4,0.9,0.9c0.3,0.3,0.6,0.7,0.8,1.1
						c0.2,0.5,0.2,1,0.1,1.1c0,0-2.4,0.5-2.5,0.3C57.2,22.5,57.1,22.1,56.9,21.8z"/>
				</g>
				<g>
					<path class="st4" d="M65.6,25.9c0.2-0.3,0.4-0.5,0.5-0.8c0.2-0.7,0-1.4-0.1-2.2c0-0.1,0-0.2,0-0.3c0.1-0.1,0.2-0.1,0.3-0.1
						c0.4,0,0.8-0.1,1.1,0.2c0.1,0.1,0.2,0.2,0.2,0.3c0.2,0.4,0.5,0.8,0.7,1.1c0.1,0.2,0.2,0.4,0.3,0.6c0.1,0.6-0.4,1-0.6,1.5
						c-0.1,0.1-0.1,0.2-0.2,0.3c-0.1,0.1-0.2,0.1-0.3,0.1l0,0c-0.6,0-1.2,0.1-1.8,0C65,26.7,65.3,26.4,65.6,25.9z"/>
				</g>
				<g>
					<path class="st4" d="M63,20.7C63,20.7,63,20.7,63,20.7c-0.3-0.9-1-1.5-1.8-2c0.7-0.2,2.4-0.5,2.7-0.3c0.6,0.2,1.2,0.6,1.6,1.1
						c0.2,0.2,0.3,0.5,0.4,0.7c0.2,0.6,0.3,1.3,0.2,2c-0.9,0.2-1.9,0.3-2.9,0.2C63.2,22,63.2,21.2,63,20.7z"/>
				</g>
				<g>
					<path class="st4" d="M49.7,2.6c-0.3-0.2-0.7-0.2-1.1-0.3c-0.6,0-1.2-0.1-1.8-0.1c0.3,0.2,0.6,0.4,0.9,0.6
						c0.5,0.4,0.8,0.9,1,1.5c0.1,0.5,0.2,1,0.6,1.2c0.1,0.1,0.3,0.1,0.4,0.1c0,0,0,0,0,0c0.8,0.1,2.9,0.5,2.1-1.1
						c-0.2-0.4-0.7-0.5-1-0.8C50.4,3.5,50.2,2.9,49.7,2.6z"/>
				</g>
				<g>
					<path class="st4" d="M53.9,10.4c-0.2-0.3-0.6-0.4-0.9-0.6c-0.6-0.2-1.1-0.4-1.7-0.6c0.3,0.2,0.5,0.5,0.7,0.9
						c0.3,0.5,0.5,1.1,0.5,1.7c0,0.5-0.2,1,0.2,1.4c0.1,0.1,0.2,0.2,0.4,0.2c0,0,0,0,0,0c0.7,0.3,2.6,1.3,2.4-0.4
						c-0.1-0.4-0.5-0.7-0.7-1.1C54.3,11.4,54.2,10.8,53.9,10.4z"/>
				</g>
				<g>
					<path class="st5" d="M50,12.3c-0.2-0.3-0.5-0.4-0.8-0.5c-0.5-0.2-1-0.4-1.5-0.5c0.2,0.2,0.4,0.5,0.6,0.8c0.3,0.5,0.4,1,0.4,1.5
						c0,0.4-0.2,0.9,0.2,1.2c0.1,0.1,0.2,0.1,0.3,0.2c0,0,0,0,0,0c0.7,0.3,2.3,1.2,2.1-0.4c-0.1-0.4-0.4-0.7-0.6-1
						C50.4,13.2,50.3,12.7,50,12.3z"/>
				</g>
				<g>
					<path class="st4" d="M60.1,15.9c-0.2-0.3-0.5-0.4-0.8-0.5c-0.5-0.2-1-0.4-1.5-0.5c0.2,0.2,0.4,0.5,0.6,0.8
						c0.3,0.5,0.4,1,0.4,1.5c0,0.4-0.2,0.9,0.2,1.2c0.1,0.1,0.2,0.1,0.3,0.2c0,0,0,0,0,0c0.7,0.3,2.3,1.2,2.1-0.4
						c-0.1-0.4-0.4-0.7-0.6-1C60.5,16.8,60.4,16.3,60.1,15.9z"/>
				</g>
				<g>
					<path class="st5" d="M54.5,17.3c-0.2-0.3-0.5-0.4-0.8-0.5c-0.5-0.2-1-0.4-1.5-0.5c0.2,0.2,0.4,0.5,0.6,0.8
						c0.3,0.5,0,2.7,1.1,2.9c1.1,0.1,1.2,0.4,1.9-0.3c0.3-0.3-0.4-0.7-0.6-1C54.9,18.2,54.8,17.7,54.5,17.3z"/>
				</g>
				<g>
					<path class="st4" d="M44.9-0.9c-0.3-0.2-0.6-0.2-1-0.3c-0.6,0-1.1-0.1-1.7-0.1c0.3,0.1,0.6,0.3,0.9,0.6
						c0.4,0.4,0.8,0.9,0.9,1.4c0.1,0.4,0.1,1,0.5,1.2C44.6,2,44.8,2,44.9,2c0,0,0,0,0,0c0.8,0.1,2.7,0.5,2-1
						c-0.2-0.3-0.7-0.5-0.9-0.8C45.6-0.1,45.3-0.6,44.9-0.9z"/>
				</g>
				<g>
					<path class="st4" d="M42.1-3.5c-0.3-0.2-0.6-0.2-0.9-0.2c-0.5,0-1-0.1-1.5-0.1c0.3,0.1,0.5,0.3,0.8,0.5
						c0.4,0.3,0.7,0.8,0.8,1.3c0.1,0.4,0.1,0.9,0.5,1c0.1,0.1,0.2,0.1,0.4,0.1c0,0,0,0,0,0c0.7,0.1,2.2-0.6,2-0.8
						C43.7-2,42.4-3.2,42.1-3.5z"/>
				</g>
				<g>
					<path class="st4" d="M28.8-10.9C28.6-11,28.4-11,28.1-11c-0.3,0-0.7,0-1,0.1c0.2,0.1,0.4,0.2,0.6,0.3c0.3,0.2,0.5,0.5,0.7,0.8
						c0.1,0.3,0.2,0.6,0.4,0.7c0.1,0,0.2,0,0.2,0c0,0,0,0,0,0c0.5,0,1.5-0.6,1.3-0.8C30-10,29.1-10.8,28.8-10.9z"/>
				</g>
				<g>
					<path class="st5" d="M27.6-7.2c-0.2-0.1-0.4-0.1-0.7-0.1c-0.4,0-0.7,0-1.1,0.1c0.2,0.1,0.4,0.2,0.6,0.3
						c0.3,0.2,0.6,0.5,0.7,0.8c0.1,0.3,0.2,0.6,0.4,0.7c0.1,0,0.2,0,0.3,0c0,0,0,0,0,0c0.5,0,1.5-0.6,1.3-0.8
						C28.9-6.3,27.9-7.1,27.6-7.2z"/>
				</g>
				<g>
					<path class="st4" d="M35.2-8.3c-0.2-0.1-0.5-0.1-0.8-0.1c-0.4,0-0.9,0-1.3,0c0.2,0.1,0.5,0.2,0.7,0.4c0.3,0.3,0.6,0.6,0.8,1
						c0.1,0.3,0.2,0.7,0.5,0.9c0.1,0,0.2,0,0.3,0c0,0,0,0,0,0c0.6,0,1.9-0.7,1.6-0.8C36.7-7.2,35.5-8.1,35.2-8.3z"/>
				</g>
				<g>
					<path class="st5" d="M41.5,1.8c-0.2-0.2-0.6-0.2-0.8-0.2c-0.5,0-1-0.1-1.4,0c0.3,0.1,0.5,0.3,0.7,0.5c0.4,0.3,0.7,0.7,0.8,1.2
						c0.1,0.4,0.1,0.8,0.5,1c0.1,0.1,0.2,0.1,0.3,0.1c0,0,0,0,0,0c0.6,0.1,2.3,0.4,1.7-0.9C43,3.1,42.6,3,42.4,2.8
						C42,2.5,41.8,2,41.5,1.8z"/>
				</g>
				<g>
					<path class="st5" d="M37.4-1.6c-0.2-0.1-0.5-0.2-0.8-0.2c-0.4,0-0.9,0-1.3,0c0.2,0.1,0.5,0.3,0.7,0.4c0.3,0.3,0.6,0.7,0.7,1.1
						c0.1,0.3,0.1,0.7,0.4,0.9c0.1,0,0.2,0.1,0.3,0.1c0,0,0,0,0,0c0.6,0.1,1.9-0.5,1.7-0.7C38.9-0.3,37.8-1.4,37.4-1.6z"/>
				</g>
				<g>
					<path class="st5" d="M33.2-4.5c-0.3-0.1-0.6-0.2-0.8-0.2c-0.5,0-0.9,0-1.4,0c0.3,0.1,0.5,0.2,0.8,0.4c0.4,0.3,0.7,0.7,0.8,1.1
						c0.1,0.4,0.2,0.8,0.5,0.9c0.1,0,0.2,0,0.3,0c0,0,0,0,0,0c0.6,0,2-0.7,1.8-0.9C34.9-3.2,33.6-4.3,33.2-4.5z"/>
				</g>
				<g>
					<path class="st5" d="M47.3,7.3c-0.3,0.2-0.8,0.1-1.1-0.2c-0.3-0.2-0.5-0.6-0.6-0.9c-0.2-0.4-0.3-0.8-0.7-1
						c-0.1-0.1-0.3-0.1-0.4-0.1C43.9,5,43.3,5,42.7,5c0.4,0.3,0.9,0.5,1.2,0.9c0.5,0.6,0.4,1.6,0.9,2.1c0.3,0.3,0.8,0.3,1.2,0.2
						c0.5-0.1,0.9-0.4,1.3-0.7"/>
				</g>
				<path class="st4" d="M59.5,23.1"/>
			</g>
			<g id="Light_7_">
				<g>
					<path class="st6" d="M-14.1-3.4c0.2-3.6-2.4-8.3-2.8-9.8c-0.4-1.9-1.4-6-1.5-6.7c-0.1-0.7,0.2-1.5,0.9-1.6
						c0.4-0.1,0.6-0.1,0.9-0.1c0.9-0.2,0.1-1.9,1-2.1c0.8-0.2,3.2,2,3.5,2.8c1,2.9,1.1,4.9,2.1,7.7c0.4-0.5,0.8-1,1.3-1.4
						c0.1,0.7,1.9-0.7,2.7-0.8s2.7,1.5,2.7,0.9c0-1.2,0-2.4,0-3.6c0-0.4,0-0.8-0.3-1.1c-0.2-0.2-0.5-0.3-0.6-0.6
						c-0.1-0.4,0.4-0.8,0.8-0.9c1.2-0.4,2.4-0.7,3.7-0.9c0.2,0,0.5-0.1,0.7,0c0.3,0.1,0.5,0.5,0.6,0.9c0.9,2.3,1.3,4.5,1.7,6.9
						c0.2,1.2,0,2.7-0.3,3.9C3-9.1,2.7-7.6,2.4-6.6c-1,3-1,5.7-0.4,8.8C2.1,2.8,2.3,3.4,2.2,4C2.1,5,1.5,5.9,0.9,6.7
						C0.8,6.9,0.6,7.1,0.4,7.1C0,7.2-0.3,6.9-0.6,6.5C-2,4.4-3.6,2.1-6,1.3c-0.3-0.1-0.7-0.2-1-0.1c-0.7,0.1-0.8,1.4-1.5,1.5
						s-0.8-1.6-1.6-1.9c-0.5-0.2-1.1-0.1-1.7,0.1c-0.8,0.2-1.5,1.4-2.1,2.1c-1,1.1-2.5,1.8-2.6,1C-17.1-0.4-14.3-1.1-14.1-3.4z"/>
				</g>
			</g>
			<g>
				<path class="st7" d="M-15.7,8.3C-15.7,8.3-15.7,8.3-15.7,8.3c0.3-0.8,0.7-1.6,1.4-2.2c0.4-0.3,0.8-0.5,1.2-0.8
					c0.6-0.3,1.1-0.7,1.8-0.9c1.5-0.6,3.2-0.3,4.6,0.4s2.5,2,3.3,3.4c1.1,2,1.5,2.9,0.9,5C-3,14.7-4.8,17.7-7,17.8
					c-1.1,0-2.4-0.3-3.6-1.2c-2.1,0.2-1.7,1.3-3.2-0.3C-15.8,14.2-16.7,11-15.7,8.3z"/>
			</g>
		</g>
		<g id="Details_10_" class="st0">
			<g id="leg_spots_1_">
				<g>
					<g>
						<path class="st1" d="M-2.2-11.3c0.1,0,0.3,0.1,0.5,0.1c0.3,0,0.5-0.1,0.6-0.3c0.1,0,0.1-0.1,0.2-0.1c0.2,0,0.2,0.1,0.4,0.2
							c0.3,0.2,0.3-0.1,0.6-0.1c0.4-0.1,0.7,0.2,1.1,0.2c0.2,0,0.2,0.3,0.1,0.3c-0.4,0.2-0.5-0.1-0.8-0.2c-0.4-0.1-0.6,0.2-1,0.1
							c-0.1,0-0.1-0.1-0.1-0.2c-0.3-0.2-0.4,0.1-0.7,0.2C-1.6-11.1-2-11.1-2.2-11.3C-2.2-11.3-2.2-11.4-2.2-11.3L-2.2-11.3z"/>
					</g>
				</g>
				<g>
					<g>
						<path class="st1" d="M-0.6-12.8c0.4,0.2,0.7,0.3,1.1,0.2c0.1,0,0.1-0.1,0.2-0.1c0.4-0.1,0.7,0,1.1,0.1c0.7,0,0.8,0.8,1.4,1
							c0,0,0,0,0,0.1c-0.2,0-0.4,0-0.6-0.1c-0.1-0.1-0.2-0.2-0.3-0.3c-0.3-0.2-0.5-0.1-0.8-0.2c-0.2-0.1-0.5-0.2-0.7-0.1
							c-0.1,0-0.2,0.1-0.4,0.2c-0.4,0.1-0.7-0.2-1-0.4C-0.8-12.7-0.7-12.8-0.6-12.8L-0.6-12.8z"/>
					</g>
				</g>
				<g>
					<g>
						<path class="st1" d="M-2.1-13.4c0.4,0,0.7-0.1,1-0.2c0.1,0,0.2-0.1,0.3-0.2c0.4-0.1,0.7,0,1.1,0c0.3,0,0.6-0.1,0.9,0
							c0.3,0.1,0.5,0.3,0.7,0.6c0,0,0,0,0,0c-0.5-0.4-0.8-0.2-1.3-0.3c-0.3,0-0.5-0.1-0.8-0.1c-0.7-0.1-0.7,0.2-1.2,0.3
							c-0.2,0.1-0.5,0-0.7,0C-2.1-13.3-2.1-13.4-2.1-13.4L-2.1-13.4z"/>
					</g>
				</g>
				<g>
					<g>
						<path class="st1" d="M1.2-14.5c0.9-0.2,1.9,0.6,2.2,1.4c0,0,0,0.1-0.1,0.1c-0.6-0.5-1.3-1.2-2.1-1.3
							C1.2-14.3,1.1-14.5,1.2-14.5L1.2-14.5z"/>
					</g>
				</g>
				<g>
					<g>
						<path class="st1" d="M-1.7-15.5c0.6,0.1,0.7-0.2,1.1-0.4c0.3-0.1,0.5,0,0.7,0.1c0.3,0.1,1,0,0.9,0.5c0,0.1-0.1,0.1-0.1,0.1
							c-0.3-0.2-0.5-0.2-0.8-0.3c-0.1,0-0.3-0.1-0.4-0.1c-0.2,0-0.4,0.1-0.5,0.2c-0.3,0.2-0.6,0.3-0.9,0.1
							C-1.8-15.4-1.7-15.5-1.7-15.5L-1.7-15.5z"/>
					</g>
				</g>
				<g>
					<g>
						<path class="st1" d="M0.6-16.4c0.6,0.1,1.1-0.1,1.7,0.2c0.5,0.3,0.7,0.8,1.2,1.1c0.1,0.1,0,0.2-0.1,0.2
							c-0.5-0.2-0.7-0.5-1.1-0.9C1.8-16.2,1.1-16.1,0.6-16.4C0.6-16.3,0.6-16.4,0.6-16.4L0.6-16.4z"/>
					</g>
				</g>
				<g>
					<g>
						<path class="st1" d="M-1.3-18.6c0.2-0.3,0.5-0.5,0.9-0.5c0.3,0,0.6,0.2,0.6,0.6c0,0,0,0.1-0.1,0c-0.2-0.1-0.3-0.3-0.5-0.4
							C-0.7-19-1.1-18.9-1.3-18.6C-1.3-18.6-1.3-18.6-1.3-18.6L-1.3-18.6z"/>
					</g>
				</g>
				<g>
					<g>
						<path class="st1" d="M-1.1-17c0.3-0.7,0.9-0.3,1.4-0.5c0.8-0.3,1,0.2,1.8,0.5c0,0,0,0.1,0,0.1c-0.6,0-1-0.5-1.6-0.3
							c-0.2,0.1-0.3,0.1-0.5,0.1c-0.4,0-0.7-0.2-1,0.2C-1-16.9-1.1-16.9-1.1-17L-1.1-17z"/>
					</g>
				</g>
				<g>
					<g>
						<path class="st1" d="M1.1-18.3c0.2-0.7,1.3,0.1,1.6,0.3c0.2,0.1,0,0.3-0.1,0.3c-0.3-0.1-1.1-0.7-1.4-0.4
							C1.2-18.1,1.1-18.2,1.1-18.3L1.1-18.3z"/>
					</g>
				</g>
				<g>
					<g>
						<path class="st1" d="M0.3-20c0.3,0.2,0.5-0.2,0.9-0.2c0.3,0.1,0.9,0.3,1.1,0.5c0,0,0,0.1-0.1,0.1c-0.3,0-0.5-0.1-0.7-0.2
							C1.4-19.9,1.3-20,1.1-20c-0.1,0-0.1,0.1-0.2,0.2C0.6-19.7,0.4-19.7,0.3-20C0.2-20,0.3-20.1,0.3-20L0.3-20z"/>
					</g>
				</g>
				<g>
					<g>
						<path class="st1" d="M-1.4-10.2c0.2-0.1,0.3-0.2,0.5-0.2c0.6,0-0.7,0.3,0.8,0.1c0.1,0,0.4-0.1,0.4-0.2c0.7-0.1,1.4,0.5,2,0.9
							c0.1,0.1,0,0.2-0.1,0.2C1.6-9.8,0.8-10.3,0-10.1c-0.2,0-0.3,0.1-0.5,0.1c-0.5,0,0.1-0.7-0.9-0.1C-1.4-10.1-1.5-10.2-1.4-10.2
							L-1.4-10.2z"/>
					</g>
				</g>
				<g>
					<g>
						<path class="st1" d="M1.8-11c0.6-0.3,1.1,0.5,1.5,0.8c0.1,0.1,0,0.3-0.1,0.2c-0.5-0.2-0.7-1-1.4-0.8C1.8-10.8,1.7-10.9,1.8-11
							L1.8-11z"/>
					</g>
				</g>
				<g>
					<g>
						<path class="st1" d="M-0.8-8.8c0.5-0.6,1.1-0.3,1.7-0.1C1.2-8.8,1.5-9,1.9-8.9c0.4,0.2,0.6,0.7,1,0.8c0,0,0,0.1,0,0.1
							C2.7-8,2.5-8.1,2.3-8.2c-0.1,0-0.1-0.1-0.2-0.1C2-8.5,1.8-8.5,1.6-8.5c-0.2-0.1-0.3,0-0.5,0c-0.1,0-0.2,0-0.3-0.1
							C0.6-8.7,0.7-8.9,0.2-9C-0.1-9.1-0.5-9-0.8-8.8C-0.8-8.7-0.8-8.8-0.8-8.8L-0.8-8.8z"/>
					</g>
				</g>
				<g>
					<g>
						<path class="st1" d="M-0.9-7.1C-0.6-7.4-0.4-7.3,0-7.1c0.4,0.2,0.8,0,1.1,0.2c0.3,0.1,0.5,0.4,0.7,0.6c0,0,0,0.1,0,0.1
							C1.6-6.4,1.4-6.6,1-6.7c-0.2-0.1-0.5,0-0.7-0.1C-0.1-6.8-0.3-7.5-0.9-7.1C-0.9-7-1-7-0.9-7.1L-0.9-7.1z"/>
					</g>
				</g>
				<g>
					<g>
						<path class="st1" d="M0.6-7.8c0.3,0,0.6-0.2,0.9-0.1c0.1,0,0.2,0.1,0.2,0.1C2-7.5,2.3-7.4,2.6-7.4c0.2,0,0.2,0.3,0,0.3
							C2.3-7.1,2-7.2,1.7-7.4c0,0-0.2-0.2-0.3-0.2C1.1-7.8,0.9-7.7,0.6-7.8C0.5-7.7,0.5-7.8,0.6-7.8L0.6-7.8z"/>
					</g>
				</g>
				<g>
					<g>
						<path class="st1" d="M-14.7-7c0.1,0,0.3-0.1,0.4-0.2c0,0,0-0.1,0-0.2c0-0.1,0.1-0.1,0.1-0.2c0.1-0.1,0.2-0.1,0.3-0.1
							c0.3-0.1,0.6-0.1,0.9,0c0,0,0.1,0.1,0,0.1c-0.2,0.1-0.4,0.1-0.6,0.2c-0.1,0-0.3,0.1-0.3,0.1c-0.1,0.1,0,0-0.1,0.2
							c-0.2,0.2-0.4,0.2-0.6,0.2C-14.8-6.9-14.8-7-14.7-7L-14.7-7z"/>
					</g>
				</g>
				<g>
					<g>
						<path class="st1" d="M-15.3-8.5c0.2,0,0.5,0.1,0.7-0.1c0.1-0.1,0.2-0.3,0.3-0.4c0.1-0.1,0.1-0.2,0.2-0.2c0.1-0.1,0.4,0,0.5,0
							c0.3,0,0.6-0.1,0.9-0.1c0.1,0,0.2,0.2,0,0.2C-12.9-9-13.2-9-13.5-9c-0.1,0-0.2,0-0.3,0c-0.7,0.1-0.3,0.1-0.5,0.4
							C-14.6-8.4-14.9-8.4-15.3-8.5C-15.3-8.5-15.3-8.5-15.3-8.5L-15.3-8.5z"/>
					</g>
				</g>
				<g>
					<g>
						<path class="st1" d="M-13.6-10.2c0.4,0.1,0.6,0.2,1,0c0.1,0,0.2-0.1,0.3-0.1c0.3-0.1,0.6,0,0.9,0.2c0.1,0,0,0.1,0,0.1
							c-0.2,0-0.5-0.1-0.7,0c-0.2,0-0.4,0.1-0.7,0.1C-13.1-9.8-13.4-10-13.6-10.2C-13.6-10.2-13.6-10.2-13.6-10.2L-13.6-10.2z"/>
					</g>
				</g>
				<g>
					<g>
						<path class="st1" d="M-15.7-9.3c-0.1-0.2,0-0.5,0.2-0.6C-15.3-10-15.2-10-15-10c0.3,0.1,0.4,0.2,0.8,0c0,0,0.1,0,0,0.1
							c-0.2,0.1-0.4,0.2-0.6,0.3c-0.2,0.1-0.6,0-0.7,0.3C-15.6-9.2-15.7-9.2-15.7-9.3L-15.7-9.3z"/>
					</g>
				</g>
				<g>
					<g>
						<path class="st1" d="M-16.1-11c0.5,0.1,0.8,0.1,1.2-0.2c0.2-0.1,0.2-0.2,0.5-0.2c0.3,0,0.6,0,0.9,0c0.5,0,1.1-0.1,1.6-0.3
							c0,0,0,0,0,0c-0.7,0.3-1.4,0.6-2.2,0.5c-0.4,0-0.4-0.1-0.8,0.2c-0.1,0-0.1,0.1-0.2,0.1C-15.4-10.7-15.7-10.9-16.1-11
							C-16.2-10.9-16.2-11-16.1-11L-16.1-11z"/>
					</g>
				</g>
				<g>
					<g>
						<path class="st1" d="M-14.3-12.2c0.3,0,0.6,0.1,0.8,0.1c0.5,0,0.6-0.3,0.9-0.5c0.3-0.2,0.8-0.1,1.2,0c0.1,0,0.1,0.1,0,0.2
							c-0.2,0.1-0.5,0-0.7,0.1c-0.3,0-0.5,0.2-0.7,0.3c-0.5,0.2-0.9-0.1-1.5,0C-14.4-12.1-14.4-12.2-14.3-12.2L-14.3-12.2z"/>
					</g>
				</g>
				<g>
					<g>
						<path class="st1" d="M-16.5-11.6c0.4,0,0.6-0.1,0.8-0.4c0.1-0.1,0.1-0.3,0.3-0.4c0.2-0.1,0.6-0.2,0.8-0.1c0,0,0,0.1,0,0.1
							c-0.6,0-0.6,0.4-1,0.8C-15.9-11.4-16.2-11.5-16.5-11.6C-16.6-11.5-16.6-11.6-16.5-11.6L-16.5-11.6z"/>
					</g>
				</g>
				<g>
					<g>
						<path class="st1" d="M-18.2-20c0.3,0.1,0.6-0.2,0.9-0.1c0.1,0,0.1,0.1,0.2,0.1c0.3,0.1,0.5,0.1,0.8,0.2c0.1,0,0.1,0.1,0,0.1
							c-0.4,0.2-0.6,0.1-0.9-0.1C-17.5-19.9-17.9-19.6-18.2-20C-18.2-19.9-18.2-20-18.2-20L-18.2-20z"/>
					</g>
				</g>
				<g>
					<g>
						<path class="st1" d="M-16.9-13.3c0.1-0.2,0.2-0.3,0.4-0.4c0.2-0.1,0.4,0,0.7-0.1c0.2-0.1,0.2-0.2,0.4-0.2c0.3,0,0.7,0.1,1,0.2
							c0.1,0,0.1,0.2,0,0.2c-0.2,0-0.4,0-0.7-0.1c-0.3,0-0.4,0.1-0.7,0.2c-0.1,0.1-0.2,0.1-0.3,0.1c-0.1,0-0.1,0-0.2,0
							C-16.4-13.4-16.6-13.4-16.9-13.3C-16.8-13.2-16.9-13.2-16.9-13.3L-16.9-13.3z"/>
					</g>
				</g>
				<g>
					<g>
						<path class="st1" d="M-13.9-14.9c0.3,0,0.4-0.1,0.7-0.2c0.1-0.1,0.2-0.1,0.4-0.1c0.5,0,0.9,0.2,1.4,0.4c0,0,0,0.1,0,0.1
							c-0.2,0-0.4,0-0.6,0c-0.2,0-0.5-0.2-0.7-0.2C-13.3-14.9-13.5-14.6-13.9-14.9C-13.9-14.9-13.9-14.9-13.9-14.9L-13.9-14.9z"/>
					</g>
				</g>
				<g>
					<g>
						<path class="st1" d="M-13.6-13.4c0.6-0.3,1.2-0.4,1.8-0.1c0,0,0,0.1,0,0.1C-12.5-13.5-13.1-13.6-13.6-13.4
							C-13.6-13.4-13.7-13.4-13.6-13.4L-13.6-13.4z"/>
					</g>
				</g>
				<g>
					<g>
						<path class="st1" d="M-17.2-14.8c0.3,0,0.5,0.1,0.8-0.1c0.1,0,0.1-0.2,0.3-0.2c0.4-0.2,0.7,0.1,1.1,0.1c0,0,0.1,0.1,0,0.1
							c-0.2,0-0.4,0-0.7,0c-0.2,0-0.2,0-0.5,0.2c0,0-0.1,0.1-0.1,0.1C-16.6-14.4-17-14.5-17.2-14.8C-17.3-14.8-17.2-14.8-17.2-14.8
							L-17.2-14.8z"/>
					</g>
				</g>
				<g>
					<g>
						<path class="st1" d="M-15.6-16.1c0.2,0,0.4,0.1,0.5,0.1c0.5,0,0.2-0.1,0.5-0.2c0.1-0.1,0.2-0.1,0.4-0.1c0.2,0,0.4,0.1,0.6,0.1
							c0.4,0.1,0.7,0,1.1,0c0.1,0,0.1,0.1,0,0.1c-0.3,0.1-0.5,0.2-0.8,0.1c-0.3,0-0.7-0.2-1-0.1c-0.2,0.1-0.3,0.2-0.6,0.3
							C-15.1-15.8-15.4-15.9-15.6-16.1C-15.6-16-15.6-16.1-15.6-16.1L-15.6-16.1z"/>
					</g>
				</g>
				<g>
					<g>
						<path class="st1" d="M-17.7-16.8c0.4,0.3,0.6,0.1,1-0.1c0.1-0.1,0.1-0.1,0.2-0.1c0.4-0.1,0.9,0,1.3,0.1c0.1,0,0.1,0.2,0,0.2
							c-0.3,0-0.6,0-0.9,0c-0.3,0-0.5,0.1-0.7,0.2C-17.3-16.4-17.6-16.5-17.7-16.8C-17.8-16.8-17.8-16.8-17.7-16.8L-17.7-16.8z"/>
					</g>
				</g>
				<g>
					<g>
						<path class="st1" d="M-14.7-17.6c0.4,0.1,0.9-0.1,1.3,0c0.3,0,0.7,0.4,1,0.3c0.1,0,0.1,0.1,0.1,0.1c-0.2,0.2-0.5,0.1-0.7,0
							C-13.6-17.6-14.2-17.4-14.7-17.6C-14.8-17.6-14.7-17.6-14.7-17.6L-14.7-17.6z"/>
					</g>
				</g>
				<g>
					<g>
						<path class="st1" d="M-17.7-17.8c0.2-0.1,0.4,0,0.6-0.2c0.1-0.1,0.1-0.2,0.3-0.3c0.2-0.1,0.4,0,0.5,0c0.3,0.1,0.6,0.1,0.9,0.2
							c0,0,0,0.1,0,0.1c-0.1,0.1-0.2,0.1-0.4,0.2c-0.2,0-0.5-0.2-0.7-0.1c-0.3,0-0.4,0.3-0.6,0.3c-0.2,0.1-0.4-0.1-0.5,0
							C-17.8-17.7-17.8-17.8-17.7-17.8L-17.7-17.8z"/>
					</g>
				</g>
				<g>
					<g>
						<path class="st1" d="M-16.3-19c0.6,0.1,1.1,0,1.7,0c0.1,0,0.1,0.2,0,0.2C-15.1-18.7-15.7-18.8-16.3-19
							C-16.3-19-16.3-19-16.3-19L-16.3-19z"/>
					</g>
				</g>
			</g>
			<g id="Talons_1_">
				<g>
					<path class="st8" d="M-19.7-21.2L-19.7-21.2c-0.8-0.3-1.8-0.4-2.7-0.2c-0.4,0.1-0.8,0.2-1.2,0c-0.4-0.3-0.5-0.9-0.4-1.4
						c-0.9,0-1.6-0.8-1.7-1.6c0-0.1,0-0.2,0.1-0.3c0.1-0.1,0.2-0.2,0.3-0.2c1.3-0.4,2.6,0.5,4,0.3c1.1-0.1,2-1,2.2-2.1
						c0.1-0.5,0-0.9,0.1-1.4c0-0.4,0.1-0.9,0.2-1.3c0.1-0.4,0.3-0.9,0.6-1.2s0.9-0.4,1.2-0.2c0.2,0.1,0.4,0.4,0.5,0.6
						c0.5,1.2,0.2,2.6-0.3,3.8c-0.1,0.3-0.3,0.6-0.2,0.9c0.1,0.5,0.9,0.8,1.3,1.1c0.4,0.3,0.4,0,0.6,0.5c-0.6,0.1-1,2.2-1.6,1.2
						c0.1,0.3,0,0.4,0,0.7c0,0.2-0.7-0.2-1.2,0.8C-18.1-20.5-19-20.9-19.7-21.2z"/>
				</g>
				<g>
					<path class="st8" d="M-5.2-21.4c-0.2-0.3-0.4-0.6-0.4-0.9c0-0.4,0.3-0.7,0.6-0.7c0.2,0,0.3,0.1,0.5,0c0.1,0,0.1-0.1,0.1-0.2
						c0.1-0.5,0.3-1.1,0.1-1.5s-0.8-0.8-1-1.3c-0.3-0.6-0.3-1.3-0.2-1.9c0-0.2,0.1-0.4,0.2-0.5c0.1-0.1,0.2-0.2,0.4-0.3
						c0.7-0.3,1-0.1,1.5,0.4c0.5,0.7,0.7,2.3,1,3.2c0.3,0.6,0.8,0.9,1.4,1.2c0.6,0.2,1.4,0.1,2,0.5c0.5,0.3,0.6,1,0.4,1.5
						c-0.3,0.5-1,0.7-1.5,0.4c-0.1,0-0.2-0.1-0.2-0.1c-0.1,0-0.2,0.1-0.2,0.2c-0.2,0.5-0.5,1-1,1c-0.3,0-0.5-0.2-0.8-0.3
						C-3-21-3.5-20.5-4.1-20.6C-4.5-20.6-4.9-21.1-5.2-21.4z"/>
				</g>
				<g>
					<path class="st9" d="M-20.9-23.6c-0.3,0.2-0.5,1-0.5,1.4c0,0.4,0,0.8,0.1,1.1c0.2,0.5,0.7,0.8,1.2,0.9c0.3,0,0.5,0,0.7-0.2
						c0.4-0.3,0.5-0.7,0.3-1.2c-0.1-0.2-0.3-0.4-0.5-0.4c-0.1,0-0.3,0-0.4,0.1c-0.1,0-0.3,0-0.4,0c-0.1-0.1-0.1-0.1-0.1-0.2
						C-20.7-22.6-20.8-23.1-20.9-23.6"/>
				</g>
				<g>
					<path class="st9" d="M-24.7-20.6c-0.1,0-0.3-0.1-0.4-0.1c-0.4-0.2-0.6-0.5-0.7-0.9c-0.1-0.4-0.1-0.8-0.1-1.2
						c0.1,0.3,0.3,0.6,0.6,0.9c0.1,0.1,0.3,0.2,0.4,0.2c0.2,0,0.4-0.1,0.7-0.1c0.2-0.1,0.4-0.1,0.6-0.1c0,0,0,0,0,0
						c0.8-0.1,0.9,0.5,0.4,1C-23.7-20.7-24.2-20.5-24.7-20.6z"/>
				</g>
				<g>
					<path class="st9" d="M-26.5-22.8C-26.5-22.8-26.5-22.8-26.5-22.8c-0.3-0.2-0.6-0.5-0.8-0.8c-0.1-0.2-0.3-0.4-0.3-0.7
						c0-0.2,0.1-0.3,0.1-0.5c0.1-0.3,0.3-0.6,0.4-0.9c-0.1,0.5-0.1,1.1,0.2,1.5c0.3,0.4,0.9,0.7,1.4,0.5c-0.1,0,0.8,0.8,0.8,0.8
						C-25.1-22.7-25.9-22.6-26.5-22.8z"/>
				</g>
				<g>
					<path class="st9" d="M-18.1-33.4c0.3,0.2,0.6,0.4,0.9,0.6c0.1,0.1,0.2,0.2,0.3,0.3c0.1,0.2,0.2,0.5,0.2,0.8
						c0,0.5-0.2,0.7,0.1,1.2c0.1,0.1,0.6,1,0.6,1c0.5-0.4,0.7-1.3,0.5-1.9c-0.3-0.8-0.9-1.5-1.6-1.8C-17.5-33.2-17.8-33.2-18.1-33.4
						"/>
				</g>
				<g>
					<path class="st9" d="M-4.9-29.8L-4.9-29.8c0-0.3-0.1-0.6-0.2-0.8c-0.1-0.2-0.2-0.4-0.4-0.6c-0.2-0.3-0.4-0.6-0.8-0.6
						c0.8,0.1,1.6,0.4,2.1,0.9c0.6,0.6,0.8,1.4,0.6,2.2c0,0,0,0,0,0.1c0,0-0.1,0-0.1,0c-0.3-0.2-0.7-0.1-1-0.2
						C-5-29.1-4.9-29.5-4.9-29.8z"/>
				</g>
				<g>
					<path class="st9" d="M-2.6-21.5c0-0.4,0.1-0.8,0.1-1.1c0-0.4-0.1-0.8-0.2-1.2c0.2,0.2,0.4,0.4,0.6,0.6c0.2,0.2,0.3,0.4,0.4,0.6
						c0.3,0.3,0.7,0.6,0.8,1.1c0.1,0.3-0.3,1-0.7,1C-2.3-20.4-2.6-20.9-2.6-21.5z"/>
				</g>
				<g>
					<path class="st9" d="M-5.1-19.3c-0.7,0.2-1.4-0.2-1.8-0.8c-0.4-0.6-0.5-1.3-0.6-2c0.3,0.6,0.8,1.1,1.4,1.4
						c0.2,0.1,0.5,0.2,0.7,0.1c0.1-0.1,0.2-0.1,0.2-0.2c0.1-0.1,0.3-0.2,0.4-0.3c0.2-0.1,0.5-0.2,0.7-0.1c0,0,0,0,0,0
						C-3.3-20.8-4.6-19.5-5.1-19.3z"/>
				</g>
				<g>
					<path class="st9" d="M0.1-22.5C0.1-22.5,0.1-22.5,0.1-22.5c0-0.1,0-0.3,0.1-0.4c0.1-0.2,0.4-0.2,0.5-0.4c0.2-0.2,0.1-0.6,0-0.9
						c-0.2-0.5-0.4-1-0.6-1.4c0.5,0.4,1,0.9,1.3,1.5c0.3,0.6,0.5,1.2,0.4,1.9c-0.1,0.2-0.2,0.5-0.4,0.6c-0.2,0.1-0.7,0.1-1,0
						C0.1-21.8,0-22.2,0.1-22.5z"/>
				</g>
			</g>
			<g id="Beak_and_Eyes_1_">
				<g>
					<path class="st10" d="M-9.8,9.9C-9.2,9.5-9,9.6-8.5,9.8c0.3,0.1,0.3,0.4,0.4,0.7c0.1,0.3,0,0.7-0.1,0.9c0,0,0,0,0,0
						c0,0,0,0,0,0c-0.3-0.3-0.7-0.5-1.1-0.7c0,0,0,0,0,0c-0.2,0-0.7-0.1-0.7-0.2C-10.2,10.4-10,10-9.8,9.9z"/>
				</g>
				<g>
					<path class="st10" d="M-14.7,10.5c0-0.1,0-0.1,0-0.2c0-0.2,0.1-0.4,0.3-0.5c0.1-0.1,0.2-0.1,0.3-0.2c0.1,0,0.2,0,0.3,0
						c0.1,0,0.2,0,0.2,0c0.1,0,0.2,0.2,0.3,0.2c-0.2,0.1-0.5,0.3-0.6,0.6c-0.1,0.1-0.2,0.3-0.3,0.4c0,0,0,0,0,0
						C-14.5,11.2-14.7,10.8-14.7,10.5z"/>
				</g>
				<circle cx="-14.1" cy="10.1" r="0.3"/>
				<g>
					<path class="st11" d="M-13.7,8C-13.7,8-13.7,8-13.7,8c-0.2-1,0-2.1,0.3-3.1c0.1,0.4,0.3,0.7,0.6,0.9c0-1.4,0.2-2.7,0.8-4
						c0.2,1.2,0.9,2.4,1.8,3.2c0.3,0.3,0.6,0.5,0.8,0.8c0.3,0.6,0.3,1.2,0.2,1.9c0,0.2-0.1,0.3-0.2,0.4c-0.1,0.1-0.2,0-0.4,0.1
						c-0.5,0.1-0.8,0.6-1,1c-0.4,0.8-0.9,1.2-1.7,0.7C-13.2,9.5-13.6,8.8-13.7,8z"/>
				</g>
				<g>
					<path class="st12" d="M-12.9,4.4C-12.9,4.4-12.9,4.4-12.9,4.4c0-0.5,0-1.1,0.4-1.5c0.3,0.3,0.4,0.7,0.6,1
						c0.3,0.7,0.7,1.3,1.2,1.8c0.4,0.4,0.8,0.7,0.9,1.3c0.1,0.3,0,0.6-0.2,0.7c-0.2,0.1-0.4,0.1-0.6,0C-12.3,7.3-12.8,5.9-12.9,4.4z
						"/>
				</g>
				<g>
					<path class="st13" d="M-12.3,6.1c0,0-0.4-0.3-0.4-0.3c0-0.4-0.1-1.3,0.2-1.5c0.2,0.2,0.3,0.5,0.4,0.7c0.2,0.5,0.5,0.9,0.8,1.3
						c0.2,0.3,1.2,0.9,1.3,1.3c0,0.2,0,0.4-0.2,0.5c-0.1,0.1-0.3,0.1-0.4,0C-11.5,7.4-12.2,7.1-12.3,6.1z"/>
				</g>
				<circle cx="-9" cy="10.3" r="0.3"/>
				<circle class="st6" cx="-8.7" cy="10.8" r="0.3"/>
				<circle class="st6" cx="-14.3" cy="10.5" r="0.2"/>
				<g>
					<path class="st14" d="M-15.6,13c0.4,1.2,1.3,2.3,2.6,2.6c0.2,0.1,0.4,0.1,0.7,0c0.2-0.1,0.4-0.2,0.6-0.3c0.5-0.2,1.2,0,1.7,0.3
						s1,0.7,1.5,0.8c0.7,0.2,1.5-0.1,2.2-0.5s1.2-1,1.8-1.4c0.3-0.2,0.6-0.4,0.8-0.7c0.1-0.2,0.2-0.5,0.3-0.7C-3,10.2-4.2,8-5.7,5.4
						c1.8,1.5,2.4,3.2,3.3,5.4c0.3,0.9-0.2,2-0.3,2.9C-3,14.8-3,15.4-3.8,16.1c-0.8,0.6-1.7,1.2-2.6,1.5c-1,0.3-2.1,0.3-2.9-0.2
						c-0.3-0.2-0.7-0.5-1.1-0.5c-0.5-0.1-1,0.2-1.4,0.3c-1.1,0.3-2.3-0.3-3.2-1c-0.6-0.5-1.1-1.1-1.3-1.9c0-0.3,0-0.6,0-0.9l0,0
						c0.1-1.3,0-2.7,0.3-3.9C-15.9,10.6-16,11.8-15.6,13z"/>
				</g>
				<g>
					<path class="st15" d="M-13.5,17C-13.5,17-13.5,17-13.5,17c0.4,0.4,1.1,0.6,1.6,0.3c0.4-0.2,0.6-0.5,1-0.7
						c0.8-0.3,1.6,0.6,2.4,0.9c0.8,0.3,1.7,0,2.5-0.4c0.5-0.3,1.1-0.6,1.7-0.6c0.7,0,1.3,0.6,1.7,1.2c1.1,1.4,1.9,3.1,1.9,4.9
						c0,1.8-0.9,3.6-2.5,4.4c-1.3,0.6-2.8,0.5-4.2,0.2c-1-0.2-1.9-0.4-2.9-0.7c-1.4-0.4-2.8-0.9-3.9-1.8c-1.3-1.1-2.1-2.8-2.1-4.5
						c0-1.1,0.3-2.2,0.9-3.1c0.2-0.3,0.7-1.2,1.1-1.2C-14.2,15.8-13.8,16.7-13.5,17z"/>
				</g>
			</g>
		</g>
	</g>
	<g id="Outlines_2_3_">
		<g>
			<g>
				<path d="M-2.8,13.4c6-0.3,10.3,2.4,15.4,4.9c2.6,1.3,5.6,1.6,8.2,2.9c2.3,1.2,4.3,3.1,6.2,4.9c9.8,9.7,21.3,23.3,35.9,24.8
					c0.1,0,0.1,0.3,0,0.2C51,49.9,41.6,41.6,33.1,33.8c-5.6-5.2-9.4-10.6-16.9-13.1c-2.2-0.7-4-1.5-6-2.8c-4.2-2.7-8-3.7-13-3.9
					C-3.2,14-3.2,13.4-2.8,13.4L-2.8,13.4z"/>
			</g>
		</g>
		<g>
			<g>
				<path d="M51.4,43.4c5.2,3.4,11.4,6.5,17.8,6.6c0.1,0,0.1,0.2,0,0.2C62.9,50.6,56.3,47.4,51.4,43.4
					C51.4,43.5,51.4,43.4,51.4,43.4L51.4,43.4z"/>
			</g>
		</g>
		<g>
			<g>
				<path d="M56,43.3c5.3,2.6,11.3,4.2,17.1,5.5c0.1,0,0.1,0.2,0,0.2C67,48,61.5,46.1,56,43.3C55.9,43.4,56,43.3,56,43.3L56,43.3z"
					/>
			</g>
		</g>
		<g>
			<g>
				<path d="M56.7,40c5.8,2.4,11.8,3.6,18,4.3c0.1,0,0.1,0.2,0,0.2C68.4,44.3,62.4,42.7,56.7,40C56.7,40,56.7,40,56.7,40L56.7,40z"
					/>
			</g>
		</g>
		<g>
			<g>
				<path d="M56.7,35.9c6.8,1.6,13.7,2.9,20.6,4c0,0,0,0,0,0C70.4,39.7,63.1,38.3,56.7,35.9C56.6,35.9,56.6,35.9,56.7,35.9
					L56.7,35.9z"/>
			</g>
		</g>
		<g>
			<g>
				<path d="M59.4,31.8c6.5,1.2,14,2,18,8c0.1,0.1-0.1,0.2-0.2,0.1C72.7,34.3,65.7,33.9,59.4,31.8C59.3,31.9,59.3,31.8,59.4,31.8
					L59.4,31.8z"/>
			</g>
		</g>
		<g>
			<g>
				<path d="M59.2,31.9c5.7,0.1,11.9,1,17.2-1.2c0.2-0.1,0.4,0.3,0.2,0.4C71.6,33.6,64.5,32.4,59.2,31.9
					C59.1,31.9,59.1,31.9,59.2,31.9L59.2,31.9z"/>
			</g>
		</g>
		<g>
			<g>
				<path d="M61.5,27.1c2.8,0,5.4,0.1,8.2,0.7c2.3,0.5,5.3,1,6.9,2.9c0.2,0.2-0.1,0.4-0.3,0.3C72.4,27.6,66.3,27.6,61.5,27.1
					C61.5,27.1,61.5,27.1,61.5,27.1L61.5,27.1z"/>
			</g>
		</g>
		<g>
			<g>
				<path d="M61.6,26.9c5.1-0.4,10.1-0.6,15-1.8c0.3-0.1,0.4,0.3,0.1,0.4c-4.9,1.6-10.1,1.8-15.2,1.6C61.5,27.1,61.5,26.9,61.6,26.9
					L61.6,26.9z"/>
			</g>
		</g>
		<g>
			<g>
				<path d="M69.2,22.3c1.6-0.2,3.4,0.5,4.9,1c1.3,0.4,2.3,0.9,2.8,2.3c0,0.1-0.1,0.1-0.1,0.1C74.4,23.6,71.9,23.3,69.2,22.3
					C69.1,22.3,69.1,22.3,69.2,22.3L69.2,22.3z"/>
			</g>
		</g>
		<g>
			<g>
				<path d="M61.2,18.7c3.8-1.2,9.5-0.7,12,2.8c0,0.1,0,0.1-0.1,0.1C69.8,18.9,65.3,17.9,61.2,18.7C61.1,18.8,61.1,18.7,61.2,18.7
					L61.2,18.7z"/>
			</g>
		</g>
		<g>
			<g>
				<path d="M69.2,22.3c1.2-0.6,2.5-0.6,3.7-1c0.2-0.1,0.3,0.3,0.2,0.4c-0.5,0.3-1,0.3-1.6,0.4c-0.8,0.1-1.5,0.3-2.3,0.4
					C69.2,22.4,69.1,22.3,69.2,22.3L69.2,22.3z"/>
			</g>
		</g>
		<g>
			<g>
				<path d="M64.5,18.3c0.2-0.3,0.9-0.4,1.2-0.5c0.8-0.3,1.6-0.7,2.3-1.1c0.3-0.2,0.6,0.3,0.3,0.5c-1.1,0.6-2.4,1.1-3.6,1.3
					C64.6,18.4,64.5,18.4,64.5,18.3C64.5,18.3,64.5,18.3,64.5,18.3C64.5,18.3,64.5,18.3,64.5,18.3L64.5,18.3z"/>
			</g>
		</g>
		<g>
			<g>
				<path d="M62.2,14.3c2.2-1.3,5.3,0.3,6.3,2.4c0.1,0.2-0.2,0.4-0.3,0.2C67,14.9,64.3,14,62.2,14.3C62.2,14.3,62.1,14.3,62.2,14.3
					L62.2,14.3z"/>
			</g>
		</g>
		<g>
			<g>
				<path d="M51.2,15.2c1.1-0.8,2.4-0.8,3.7-1.3c1.2-0.5,1.9-1.1,3.2-1.3c1.9-0.4,3.7-0.2,4.6,1.8c0,0.1,0,0.2-0.1,0.1
					c-1-0.7-1.7-1.5-3.1-1.5c-1.2-0.1-2.4,0.2-3.4,0.7C54.5,14.2,52.8,14.5,51.2,15.2C51.2,15.2,51.2,15.2,51.2,15.2L51.2,15.2z"/>
			</g>
		</g>
		<g>
			<g>
				<path d="M42.3,14.6c2.6-3,6.1-4.8,9.6-6.6c3.3-1.6,4.7-1.8,8.1-0.5C60.2,7.7,60.1,8,59.9,8c-2.5-0.6-4.2-1-6.7,0.1
					C52.1,8.6,51.1,9,50,9.6C47.2,11,44.7,12.7,42.3,14.6C42.3,14.7,42.2,14.7,42.3,14.6L42.3,14.6z"/>
			</g>
		</g>
		<g>
			<g>
				<path d="M56.7,13.1c0.7-0.9,1.4-1.7,2-2.6C59.2,9.8,60,8.7,60,7.8c0-0.1,0.1-0.1,0.2-0.1c0.5,1-0.2,1.7-0.8,2.5
					C58.7,11.3,57.8,12.4,56.7,13.1C56.7,13.2,56.7,13.1,56.7,13.1L56.7,13.1z"/>
			</g>
		</g>
		<g>
			<g>
				<path d="M46.9,11c3.2-3.5,6.3-6.9,8.3-11.2C55.4-0.5,56-0.3,55.8,0C54.1,4.4,50.5,7.9,46.9,11C47,11,46.9,11,46.9,11L46.9,11z"
					/>
			</g>
		</g>
		<g>
			<g>
				<path d="M42.8,5.4C45,3.2,47.4,0.3,50-1.4c2-1.3,4-0.3,5.8,1.1c0.2,0.2,0,0.6-0.2,0.4c-1.7-0.9-3.2-2-5.2-0.9
					c-0.9,0.5-1.7,1.4-2.4,2.1C46.2,2.7,44.6,4.1,42.8,5.4C42.8,5.5,42.8,5.5,42.8,5.4L42.8,5.4z"/>
			</g>
		</g>
		<g>
			<g>
				<path d="M52-1.7c-0.5-0.9-1.2-1.4-2-2c-0.4-0.3-0.8-0.6-1.4-0.6c-0.6,0-1.1,0.3-1.7,0.4c-0.2,0-0.3-0.2-0.1-0.3
					c0.9-0.7,2-0.9,3-0.3c1,0.6,1.9,1.5,2.4,2.6C52.3-1.6,52.1-1.5,52-1.7L52-1.7z"/>
			</g>
		</g>
		<g>
			<g>
				<path d="M47.3-4.2c0.4-1.3-0.2-1.7-1.2-2.2c-0.8-0.3-1.5-0.7-2.4-0.4c-1.6,0.6-2.6,2-3.8,3c-0.1,0.1-0.4,0-0.2-0.2
					c0.7-1,1.7-1.8,2.7-2.5c1-0.7,1.5-1.3,2.7-1C46.6-6.9,48.9-5.9,47.3-4.2C47.3-4.1,47.2-4.2,47.3-4.2L47.3-4.2z"/>
			</g>
		</g>
		<g>
			<g>
				<path d="M29.2-5.6c1.3-2.5,2.6-5.3,4.4-7.5c0.9-1.1,1.8-1.5,3.1-1.1c1.5,0.5,3.5,2,4.2,3.4c1,2.1-0.3,5-1.1,6.9
					c0,0.1-0.1,0-0.1,0c0.3-2,1.7-4.7,0.7-6.7c-0.7-1.5-3.2-3.2-4.8-3c-1.8,0.2-2.9,2.4-3.9,3.9c-0.9,1.3-1.7,2.7-2.5,4.2
					C29.2-5.5,29.1-5.5,29.2-5.6L29.2-5.6z"/>
			</g>
		</g>
		<g>
			<g>
				<path d="M30.2-7.5c0.6-1.7,1.1-3.4,1-5.3c-0.2-2.7-2.2-3.2-4.5-3.7c-3.7-0.8-7.3-1.2-11-0.6c-0.2,0-0.4-0.3-0.2-0.4
					c2.1-1,4-1,6.2-0.4c2,0.5,4.1,0.3,6.1,0.8c5.2,1.5,4.1,5.4,2.5,9.6C30.3-7.3,30.1-7.4,30.2-7.5L30.2-7.5z"/>
			</g>
		</g>
		<g>
			<g>
				<path d="M4.4-10.8c3.9-1.9,7.5-4.6,11.2-7c3.9-2.5,8-4.8,11.4-8c0.2-0.2,0.4,0.1,0.3,0.3c-3,3.2-7,5.4-10.7,7.7
					C12.6-15.3,8.7-12.6,4.4-10.8C4.4-10.8,4.4-10.8,4.4-10.8L4.4-10.8z"/>
			</g>
		</g>
		<g>
			<g>
				<path d="M18-25.2c1.5-1.2,3.6-2.5,5.5-2.6c1.4-0.1,3.3,0.7,3.7,2.1c0,0.1-0.1,0.1-0.1,0C24.9-28.7,20.5-26.5,18-25.2
					C18-25.1,18-25.2,18-25.2L18-25.2z"/>
			</g>
		</g>
		<g>
			<g>
				<path d="M14.1-28.8c1.7-2.2,3.6-4.3,5.9-5.9c1.2-0.9,4-2.5,5.5-1.2c1.2,1,0,2.7-0.6,3.7C23.6-30,22-27.4,19.8-26
					c-0.2,0.1-0.3-0.1-0.2-0.3c1.1-1.2,8.7-8.6,4.3-9.3c-1.9-0.3-4.4,2-5.7,3.1C16.6-31.4,15.4-30.1,14.1-28.8
					C14.1-28.7,14-28.7,14.1-28.8L14.1-28.8z"/>
			</g>
		</g>
		<g>
			<g>
				<path d="M16.6-31.5c0.7-1.6,1.5-3.2,2.1-4.8c0.6-1.6,0.7-5.2-2.2-4.2c-3.1,1-5,4.5-6.3,7.1c0,0.1-0.2,0-0.1-0.1
					c0.9-2.2,2-4.6,3.8-6.2c1-0.9,2.7-2.3,4.2-1.7c1.1,0.4,1.6,1.8,1.7,2.9C19.9-36.1,18-33.2,16.6-31.5
					C16.6-31.5,16.6-31.5,16.6-31.5L16.6-31.5z"/>
			</g>
		</g>
		<g>
			<g>
				<path d="M5.8-37.6c0.6-2.8,2.6-7.2,6-7.4c2.7-0.2,2.4,4.4,1.8,6c0,0.1-0.2,0.1-0.2,0c0.1-1.2,0.2-2.3-0.1-3.5
					c-0.1-0.4-0.2-1.1-0.5-1.5c-0.7-0.9-2.1-0.3-2.8,0.1C7.7-42.5,6.9-39.9,5.8-37.6C5.8-37.5,5.8-37.6,5.8-37.6L5.8-37.6z"/>
			</g>
		</g>
		<g>
			<g>
				<path d="M6.3-39c0.1-1.9,0.7-4.3,0-6.2c-0.8-2.2-3.1-2.3-4.3-0.4c-0.3,0.5-0.5,1.2-0.7,1.7c-0.7,2-1,4.2-1.5,6.3
					c0,0-0.1,0-0.1,0c0.2-2.9,0.1-7.8,2.8-9.6c1.3-0.9,2.9-0.6,3.7,0.8C7.5-44.4,6.9-41.2,6.3-39C6.4-38.9,6.3-39,6.3-39L6.3-39z"/>
			</g>
		</g>
		<g>
			<g>
				<path d="M-6.8-41.3c0-2.5-0.2-7,3.3-7.2c3.2-0.2,4,3.1,4.1,5.7c0,0.1-0.1,0.1-0.1,0c-0.4-0.8-0.6-1.7-0.8-2.6
					c-0.5-1.5-1.7-2.8-3.4-2.4c-2.6,0.6-2.6,4.3-2.9,6.5C-6.6-41.2-6.8-41.2-6.8-41.3L-6.8-41.3z"/>
			</g>
		</g>
		<g>
			<g>
				<path d="M-24.6-25.4c-2.4-1.8-4.9-3.9-6.8-6.2c-1.4-1.5-2.5-3.4-1.6-5.5c0.1-0.2,0.3-0.1,0.3,0.1c-0.5,3.1,1.8,4.8,3.7,6.8
					C-27.6-28.5-26-27-24.6-25.4C-24.5-25.4-24.6-25.3-24.6-25.4L-24.6-25.4z"/>
			</g>
		</g>
		<g>
			<g>
				<path d="M-32.9-37c2.3-0.7,3.7-0.2,5.6,1.3c2.2,1.8,4.1,4.1,6.1,6.1c0.1,0.1-0.1,0.3-0.2,0.2c-3.1-3.1-6.7-8-11.4-7.4
					C-32.9-36.9-32.9-37-32.9-37L-32.9-37z"/>
			</g>
		</g>
		<g>
			<g>
				<path d="M-16.4-32.7c-1.4-2.2-3.1-4.2-4.7-6.2c-0.7-0.9-4.5-3.6-5.4-1.4c-0.2,0.5,0.4,2.1,0.6,2.7c0.3,1.1,0.8,2.1,1.4,3.1
					c0.9,1.8,2.3,3.2,3.4,4.9c0.1,0.2-0.1,0.3-0.3,0.2c-2.1-1.8-3.4-5-4.6-7.4c-0.4-1-1.9-3.5-0.8-4.5c1-0.9,3.8,0.1,4.7,0.7
					c1,0.8,1.8,2.1,2.5,3.1C-18.4-36-17.2-34.4-16.4-32.7C-16.3-32.7-16.4-32.6-16.4-32.7L-16.4-32.7z"/>
			</g>
		</g>
		<g>
			<g>
				<path d="M-17.8-35.1c-1.2-2.3-4.4-9.4-0.3-10.8c1.7-0.6,3.1,1.2,4,2.4c1.7,2.5,2.5,5.7,3.2,8.5c0,0.1-0.1,0.1-0.1,0
					c-0.6-2-1.2-3.8-2.1-5.6c-0.9-1.7-2-4.2-4.1-4.4C-21.5-45.3-18.3-37.1-17.8-35.1C-17.8-35.1-17.8-35-17.8-35.1L-17.8-35.1z"/>
			</g>
		</g>
		<g>
			<g>
				<path d="M-6.4-40.2c-0.8-2.5-1.1-5.3-3.4-7c-3.4-2.5-3.8,3-3.9,5c0,0.1-0.1,0.1-0.2,0c-0.4-1.6-0.2-6.7,2.4-6.3
					C-7.9-48-6.6-43-6.4-40.2C-6.4-40.2-6.4-40.2-6.4-40.2L-6.4-40.2z"/>
			</g>
		</g>
		<g>
			<g>
				<path d="M-73.6,29.4c11.6-0.9,21.1-8.6,31.5-12.8c4.4-1.8,9.2-1.6,13.7-2.8c4-1.1,7.9-3,12.1-2.3c0.5,0.1,0.3,0.9-0.2,0.8
					c-5.6-1.2-11.4,2-16.6,3.5c-2.3,0.6-4.7,0.6-7,1.3c-3,0.8-5.7,2.4-8.4,3.8c-7.6,4.1-16.3,8.6-25.1,8.8
					C-73.7,29.6-73.7,29.4-73.6,29.4L-73.6,29.4z"/>
			</g>
		</g>
		<g>
			<g>
				<path d="M-61.8,25.2c-4.9,1.2-10.4,1.3-15.3,0.5c0,0,0,0,0,0C-72,25.6-66.9,25.5-61.8,25.2C-61.8,25.1-61.8,25.1-61.8,25.2
					L-61.8,25.2z"/>
			</g>
		</g>
		<g>
			<g>
				<path d="M-69.6,22.5c-2.8,0.6-5.2,1.3-7.4,3.2c-0.1,0.1-0.3,0-0.2-0.1C-75.5,23.3-72.4,22.2-69.6,22.5
					C-69.6,22.5-69.6,22.5-69.6,22.5L-69.6,22.5z"/>
			</g>
		</g>
		<g>
			<g>
				<path d="M-63,19.7c-5-0.3-10.3-1.8-14.8-4c0,0,0,0,0,0C-72.8,17.1-67.9,18.5-63,19.7C-62.9,19.7-62.9,19.7-63,19.7L-63,19.7z"/>
			</g>
		</g>
		<g>
			<g>
				<path d="M-69.6,14.9c-2.8-0.3-5.4-0.3-8.1,0.9c-0.1,0.1-0.2-0.1-0.1-0.2C-75.4,13.9-72.3,13.7-69.6,14.9
					C-69.6,14.8-69.6,14.9-69.6,14.9L-69.6,14.9z"/>
			</g>
		</g>
		<g>
			<g>
				<path d="M-68,15c-3.3-0.1-6.5-1.1-9.3-2.7c0,0,0,0,0,0c1.6,0.4,3.1,1.1,4.7,1.6C-71,14.3-69.5,14.5-68,15
					C-67.9,15-67.9,15-68,15L-68,15z"/>
			</g>
		</g>
		<g>
			<g>
				<path d="M-68.6,10.7c-3.1-0.3-5.8,0.4-8.6,1.7c-0.1,0.1-0.2-0.1-0.1-0.2C-74.9,10.4-71.5,9.5-68.6,10.7
					C-68.6,10.7-68.6,10.7-68.6,10.7L-68.6,10.7z"/>
			</g>
		</g>
		<g>
			<g>
				<path d="M-60.4,12.2c-5-0.3-10.3-1.8-14.8-4c0,0,0,0,0,0C-70.2,9.6-65.4,11-60.4,12.2C-60.4,12.2-60.4,12.2-60.4,12.2
					L-60.4,12.2z"/>
			</g>
		</g>
		<g>
			<g>
				<path d="M-66.5,7c-3-0.3-5.8,0-8.6,1.2c-0.1,0.1-0.2-0.1-0.1-0.2C-72.7,6.3-69.4,5.9-66.5,7C-66.5,7-66.5,7-66.5,7L-66.5,7z"/>
			</g>
		</g>
		<g>
			<g>
				<path d="M-59.3,10.7C-64,9-68.7,6-72.4,2.7c0,0,0,0,0,0C-68,5.4-63.7,8.1-59.3,10.7C-59.2,10.6-59.3,10.7-59.3,10.7L-59.3,10.7z
					"/>
			</g>
		</g>
		<g>
			<g>
				<path d="M-64,3.8c-2.8-1.1-5.4-1.4-8.3-1c-0.1,0-0.2-0.2-0.1-0.2C-69.6,1.6-66.3,1.9-64,3.8C-64,3.8-64,3.8-64,3.8L-64,3.8z"/>
			</g>
		</g>
		<g>
			<g>
				<path d="M-56.7,7.8C-61.3,6-66,3-69.6-0.4c0,0,0,0,0,0C-65.3,2.4-61.1,5.1-56.7,7.8C-56.6,7.7-56.6,7.8-56.7,7.8L-56.7,7.8z"/>
			</g>
		</g>
		<g>
			<g>
				<path d="M-61.6,1.2c-2.6-1.1-5.1-1.9-8-1.5c-0.1,0-0.2-0.2,0-0.2C-66.9-1.4-63.8-0.7-61.6,1.2C-61.6,1.2-61.6,1.2-61.6,1.2
					L-61.6,1.2z"/>
			</g>
		</g>
		<g>
			<g>
				<path d="M-66.5,25.9c-2.8,0.8-5.1,1.7-7.2,3.7c-0.1,0.1-0.3,0-0.2-0.1C-72.4,27-69.3,25.7-66.5,25.9
					C-66.5,25.8-66.4,25.9-66.5,25.9L-66.5,25.9z"/>
			</g>
		</g>
		<g>
			<g>
				<path d="M-63,22.9c-5,0.5-10.5-0.1-15.3-1.5c0,0,0,0,0,0C-73.2,22.1-68.1,22.6-63,22.9C-63,22.9-63,22.9-63,22.9L-63,22.9z"/>
			</g>
		</g>
		<g>
			<g>
				<path d="M-64.1,19.6c-4.9,0.2-9.8-1-14.1,2c-0.1,0.1-0.2-0.1-0.1-0.2C-74.3,18-68.9,18.9-64.1,19.6
					C-64.1,19.5-64.1,19.6-64.1,19.6L-64.1,19.6z"/>
			</g>
		</g>
		<g>
			<g>
				<path d="M-61.8,1.1c-1.3-1.2-3.6-4.6-0.4-4.9c2.6-0.3,5.8,1.7,7.5,3.6c0.1,0.1,0,0.3-0.2,0.2c-1.5-1-3-2-4.7-2.6
					c-0.7-0.3-2.1-0.8-2.9-0.4c-0.7,0.4-0.7,1.3-0.4,1.9c0.3,0.8,0.7,1.5,1.3,2.1C-61.6,1.1-61.7,1.2-61.8,1.1L-61.8,1.1z"/>
			</g>
		</g>
		<g>
			<g>
				<path d="M-55.2-0.1c-1-1.7-1.7-3.4-2-5.4c-0.2-1.1-0.6-2.1,0.3-2.9c2.8-2.7,4.8,0.9,6.4,2.9c0.1,0.1-0.1,0.3-0.2,0.2
					c-0.7-0.9-1.5-2-2.4-2.7c-0.8-0.6-1.5-1-2.5-0.5c-0.9,0.4-1.1,0.9-1.2,1.8C-57-4.7-55.8-2-55.2-0.1C-55-0.1-55.1-0.1-55.2-0.1
					L-55.2-0.1z"/>
			</g>
		</g>
		<g>
			<g>
				<path d="M-50.9-5.6c-0.7-1.4-1.1-2.9-1.4-4.5c-0.2-1.1-0.4-2.2,0.3-3.1c1.5-1.8,3.6-0.5,4.4,1.2c0.1,0.2-0.1,0.3-0.2,0.2
					c-0.5-0.5-0.9-1.1-1.5-1.4c-2.1-1-2.6,1.1-2.6,2.6c0.1,1.7,0.4,3.4,1.1,4.9C-50.7-5.6-50.9-5.5-50.9-5.6L-50.9-5.6z"/>
			</g>
		</g>
		<g>
			<g>
				<path d="M-47.7-11.9c-0.1-1.5-0.6-5.4,2-5.6c0.5,0,0.8,0.4,1.2,0.5c1,0.1-0.2,0.2,0.7-0.3c0.6-0.3,1.2-1.6,1.8-2.1
					c0.4-0.3,0.9-0.6,1.4-0.8c1.4-0.6,5.1-1.8,6.6-0.8c0.6,0.4,1.1,2,1.3,2.6c0.7,1.6,1.2,3.3,1.1,5c0,0.2-0.3,0.2-0.3,0
					c0-1.9-0.9-6.5-2.7-7.3c-0.8-0.3-2.3,0.2-3.2,0.4c-2.5,0.5-4.7,1.2-5.6,4.1c-0.1,0.2-0.3,0.3-0.5,0.2c-3.2-1.7-3.5,1.6-3.5,4
					C-47.5-11.7-47.7-11.7-47.7-11.9L-47.7-11.9z"/>
			</g>
		</g>
		<g>
			<g>
				<path d="M-32-13.3c0.3-2.9,1-6.7,3.9-8.2c2.9-1.5,4,3.8,3.8,5.6c0,0.1-0.2,0.2-0.2,0c-0.4-1.3-0.4-2.8-1.1-4
					c-1-1.7-2.5-1-3.5,0.3c-1.5,1.8-2.2,4.2-2.5,6.4C-31.7-13.1-32-13.1-32-13.3L-32-13.3z"/>
			</g>
		</g>
		<g>
			<g>
				<path d="M-24.5-16c0.1-0.4,0.1-0.5,0.5-0.6c0.2-0.1,0.4-0.1,0.5,0c0.3,0,0.5,0.1,0.8,0.2c0.4,0,0.9,0,1.3-0.1
					c1.4-0.2,2.4-0.5,3.7,0.1c0.2,0.1,0.1,0.4-0.2,0.4c-1.3-0.4-2.4-0.2-3.6,0.1c-0.3,0.1-0.6,0.2-1,0.2c-0.7,0-1.1-0.4-1.8,0
					C-24.4-15.8-24.5-15.9-24.5-16L-24.5-16z"/>
			</g>
		</g>
		<g>
			<g>
				<path d="M1.5-21.7c3,5.5,2.7,11.7,0.4,17.3C1.8-4.2,1.6-4.3,1.7-4.4C2-6.3,2.7-8.1,3-10c0.6-3.8-0.2-8-1.8-11.5
					C1.2-21.7,1.4-21.8,1.5-21.7L1.5-21.7z"/>
			</g>
		</g>
		<g>
			<g>
				<path d="M-2.3-6.5c-0.9-1.7-1.2-3.6-1.3-5.5c-0.1-2.5,0.9-5.8-0.6-8c-0.1-0.2,0.2-0.4,0.3-0.2c1.1,1.2,0.9,2.9,0.9,4.5
					C-3.1-12.6-3.5-9.6-2.3-6.5C-2.2-6.5-2.3-6.5-2.3-6.5L-2.3-6.5z"/>
			</g>
		</g>
		<g>
			<g>
				<path d="M-14.5-2.1c0.7-3.6-1.1-6.3-2.3-9.5c-1-2.8-0.7-6.3-2.1-8.8c-0.2-0.3,0.3-0.5,0.4-0.3c0.7,1.4,0.7,2.6,0.9,4.2
					c0.4,2,1,3.9,1.7,5.8C-14.7-7.9-13.5-5.1-14.5-2.1C-14.5-2-14.5-2-14.5-2.1L-14.5-2.1z"/>
			</g>
		</g>
		<g>
			<g>
				<path d="M-10.1-11.6c0.4-2-0.6-3.5-1.1-5.2c-0.5-1.5-0.6-3.1-1.4-4.5c-1.1-2-3.6-2.1-4.3-4.4c0,0,0-0.1,0.1,0
					c1.2,1.6,3.1,2,4.3,3.5c0.6,0.8,0.9,1.7,1.2,2.6C-10.6-17.3-9.3-14-10.1-11.6C-10.1-11.6-10.1-11.6-10.1-11.6L-10.1-11.6z"/>
			</g>
		</g>
		<g>
			<g>
				<path d="M-9.9-13.5c-0.5-0.3-0.3-1-0.1-1.5c0.2-0.4,0.5-0.6,0.7-1c0.3-0.5,0.6-1,0.9-1.5c0,0,0.1,0,0,0
					c-0.3,0.8-0.8,1.6-1.1,2.4c-0.1,0.5-0.1,1.1-0.4,1.5C-9.8-13.5-9.9-13.5-9.9-13.5L-9.9-13.5z"/>
			</g>
		</g>
		<g>
			<g>
				<path d="M-7.5-22.1c0.1,0.9,0.4,1.7,1.1,2.3c0.5,0.4,1.1,0.6,1.7,0.2c0.4-0.3,0.5-0.7,0.7-1.1c0.1-0.1,0.2,0,0.2,0.1
					c-0.2,0.9-1,1.9-2,1.5C-7-19.6-7.5-21-7.5-22.1C-7.6-22.1-7.5-22.1-7.5-22.1L-7.5-22.1z"/>
			</g>
		</g>
		<g>
			<g>
				<path d="M-7.5-22.2c0.4,0.5,0.8,1.2,1.3,1.4c1,0.4,0.9-0.6,1.5-0.8c0.7-0.2,1,0.5,0.8,1c-0.1,0.2-0.3,0-0.2-0.1
					c0-0.6-0.3-0.7-0.7-0.4c-0.1,0.1-0.2,0.2-0.3,0.3c-0.1,0.1-0.2,0.2-0.3,0.3c-0.2,0.1-0.5,0.1-0.7,0C-6.8-20.7-7.3-21.5-7.5-22.2
					C-7.6-22.2-7.5-22.2-7.5-22.2L-7.5-22.2z"/>
			</g>
		</g>
		<g>
			<g>
				<path d="M0.2-21.8c1.9,0.8,1.4-1.4,1.1-2.2c-0.3-0.7-0.9-1.3-1.4-1.8c0,0,0,0,0,0c1,0.8,2,1.9,2,3.3C1.9-21.4,1-21.3,0.2-21.8
					C0.2-21.7,0.2-21.8,0.2-21.8L0.2-21.8z"/>
			</g>
		</g>
		<g>
			<g>
				<path d="M0.4-21.7c-0.7,0-0.8-0.8-0.4-1.2c0.1-0.1,0.3-0.2,0.4-0.3c0.3-0.2,0.3-0.4,0.2-0.8c-0.1-0.6-0.5-1.2-0.8-1.8
					c0,0,0-0.1,0.1,0c0.4,0.5,1.1,1.5,1.2,2.2c0,0.2,0,0.4-0.2,0.6C0.8-23,0.6-23,0.5-22.9C0.1-22.6,0-22,0.4-21.7
					C0.4-21.7,0.4-21.7,0.4-21.7L0.4-21.7z"/>
			</g>
		</g>
		<g>
			<g>
				<path d="M-2.7-23.8c0.2,0.5,0.3,1,0.3,1.5c0,0.6-0.1,1.9,0.9,1.8c0.1,0,0.1,0.1,0,0.1c-0.8,0.1-1.3-0.3-1.3-1.1
					c0-0.3,0.1-0.6,0.1-1C-2.6-22.9-2.6-23.3-2.7-23.8C-2.8-23.8-2.7-23.8-2.7-23.8L-2.7-23.8z"/>
			</g>
		</g>
		<g>
			<g>
				<path d="M-2.7-23.8c0.5,0.3,0.8,0.9,1.3,1.3c0.3,0.3,0.7,0.7,0.7,1.2c0,0.9-0.6,1.3-1.4,0.9c-0.1-0.1,0-0.2,0.1-0.2
					c0.5,0.2,0.8,0,0.9-0.5c0.1-0.5-0.1-0.8-0.4-1.2C-1.9-22.7-2.2-23.3-2.7-23.8C-2.7-23.8-2.7-23.8-2.7-23.8L-2.7-23.8z"/>
			</g>
		</g>
		<g>
			<g>
				<path d="M-5-20.9c-0.6-0.3-1.1-1.3-0.6-1.9c0.3-0.3,0.7-0.5,1.1-0.5c0.5,0,1.4,0.7,1.8,0.3c0.1,0,0.1,0,0.1,0.1
					c-0.3,0.3-0.8,0.3-1.2,0.2c-0.5-0.1-1.1-0.3-1.5,0.2c-0.4,0.5,0.1,1.1,0.4,1.5C-4.9-21-5-20.9-5-20.9L-5-20.9z"/>
			</g>
		</g>
		<g>
			<g>
				<path d="M-2.1-23.3c0.7-0.1,0.9-0.8,1.6-0.9c0.6-0.1,1,0,1.4,0.5c0.1,0.1-0.1,0.2-0.2,0.1c-0.6-0.5-1.4-0.3-1.9,0.1
					c-0.2,0.2-0.5,0.3-0.9,0.3C-2.2-23.1-2.2-23.3-2.1-23.3L-2.1-23.3z"/>
			</g>
		</g>
		<g>
			<g>
				<path d="M-3.8-20.8c0.3,0,0.7-0.2,0.7-0.5c0-0.2-0.1-0.4-0.1-0.5c-0.1-0.3-0.1-0.5,0-0.7c0,0,0.1,0,0.1,0
					c-0.1,0.6,0.4,1.1,0.1,1.7c-0.1,0.3-0.5,0.4-0.8,0.3C-4-20.6-4-20.8-3.8-20.8L-3.8-20.8z"/>
			</g>
		</g>
		<g>
			<g>
				<path d="M0.4-21.6c-0.8,0.6-1.3-1-1.8-1.3c0,0,0-0.1,0-0.1c0.3,0.1,0.5,0.3,0.7,0.6C-0.5-22.1-0.2-21.4,0.4-21.6
					C0.3-21.7,0.4-21.7,0.4-21.6L0.4-21.6z"/>
			</g>
		</g>
		<g>
			<g>
				<path d="M-4.4-23.2c0.6-1.1-1.1-2.8-1.3-3.8c-0.1-0.7,0.1-1.7,0.9-2c0.8-0.3,1.6,0.1,1.9,0.9c0.5,1.5,0.2,3.7,2.4,3.9
					c0.1,0,0.1,0.2,0,0.2c-0.9,0.1-1.6-0.5-2-1.3c-0.4-0.8-0.2-1.8-0.7-2.6c-0.4-0.8-1.2-1-1.9-0.5c-0.6,0.4-0.2,1.5,0,2
					c0.2,0.5,0.5,0.9,0.7,1.3c0.4,0.7,0.5,1.2,0.1,1.9C-4.4-23.1-4.5-23.2-4.4-23.2L-4.4-23.2z"/>
			</g>
		</g>
		<g>
			<g>
				<path d="M-6.5-31.9c1.4,0,2,2.1,1.8,3.2c0,0.1-0.2,0.1-0.2,0C-5-29.8-5.2-31.6-6.5-31.9C-6.6-31.8-6.6-31.9-6.5-31.9L-6.5-31.9z
					"/>
			</g>
		</g>
		<g>
			<g>
				<path d="M-6.5-31.9c1.8-0.2,3.8,1.6,3.1,3.5c0,0.1-0.1,0.1-0.1,0c-0.1-0.8-0.2-1.5-0.6-2.2c-0.5-0.8-1.4-1.2-2.3-1.2
					C-6.6-31.8-6.6-31.9-6.5-31.9L-6.5-31.9z"/>
			</g>
		</g>
		<g>
			<g>
				<path d="M-18.2-33.6c0.6,0.2,1.1,0.6,1.3,1.1c0.2,0.4,0.5,1.1,0.1,1.5c-0.1,0.2-0.4,0-0.3-0.2C-16.6-32-17.4-33.1-18.2-33.6
					C-18.2-33.5-18.2-33.6-18.2-33.6L-18.2-33.6z"/>
			</g>
		</g>
		<g>
			<g>
				<path d="M-18-33.5c1,0.2,1.8,0.7,2.2,1.7c0.3,0.7,0.6,1.9-0.2,2.4c0,0-0.1,0-0.1,0c0.3-0.9,0.4-1.6,0-2.5
					C-16.5-32.7-17.2-33.2-18-33.5C-18.1-33.4-18.1-33.5-18-33.5L-18-33.5z"/>
			</g>
		</g>
		<g>
			<g>
				<path d="M-23.9-22.8c-1.2,0-2.5-0.6-1.4-1.9c0.3-0.4,0.8-0.6,1.3-0.6c0.7,0,1.5,0.3,2.2,0.4c1.8,0.2,2.6-1.1,2.7-2.7
					c0.1-0.9-0.1-4.3,1.7-3.7c0.7,0.2,1.2,1,1.4,1.7c0.4,1.4-1.3,4-0.3,5c0.1,0.1,0,0.1-0.1,0.1c-1.5-0.7-0.2-2.6,0-3.6
					c0.2-1.2-0.9-4.1-2.1-2c-0.4,0.8-0.2,2.1-0.4,3c-0.2,1.3-0.9,2.3-2.2,2.5c-0.8,0.1-1.7,0-2.5-0.1c-0.5-0.1-0.8-0.2-1.2,0.1
					c-1.2,0.6-0.1,1.7,0.8,1.8C-23.8-22.9-23.8-22.8-23.9-22.8L-23.9-22.8z"/>
			</g>
		</g>
		<g>
			<g>
				<path d="M-25.5-23.6c-0.5,0.2-1,0-1.4-0.5c-0.4-0.5-0.4-1.2-0.1-1.8c0,0,0.1,0,0.1,0c-0.2,0.6-0.1,1.4,0.4,1.8
					C-26.2-23.8-25.8-23.9-25.5-23.6C-25.5-23.6-25.5-23.6-25.5-23.6L-25.5-23.6z"/>
			</g>
		</g>
		<g>
			<g>
				<path d="M-24.7-22.8c-0.8,0.4-1.8,0.4-2.4-0.3c-0.8-0.7-0.7-2.1,0.1-2.8c0,0,0.1,0,0.1,0c-0.5,0.9-0.8,2.1,0.2,2.8
					c0.6,0.4,1.4,0.3,2,0.2C-24.6-22.9-24.6-22.8-24.7-22.8L-24.7-22.8z"/>
			</g>
		</g>
		<g>
			<g>
				<path d="M-19-20.9c0.7-0.1,1.1-0.5,1.2-1.2c0-0.5-0.1-1,0.1-1.5c0,0,0.1,0,0.1,0c0.1,0.8,0.5,1.9,0,2.6c-0.3,0.5-1,0.8-1.5,0.4
					C-19.2-20.7-19.1-20.9-19-20.9L-19-20.9z"/>
			</g>
		</g>
		<g>
			<g>
				<path d="M-20.4-21.9c0.2-0.4,0.4-0.8,0.5-1.2c0-0.1,0.1-0.1,0.1,0c0.2,0.4-0.1,1.1-0.4,1.4C-20.2-21.7-20.4-21.8-20.4-21.9
					L-20.4-21.9z"/>
			</g>
		</g>
		<g>
			<g>
				<path d="M-18.9-21.5c0.5,1-0.6,1.9-1.6,1.4c-1-0.6-1.1-2.6-0.5-3.5c0,0,0,0,0,0c-0.1,0.7-0.2,1.4,0,2.2c0.1,0.4,0.3,0.8,0.7,0.9
					c0.6,0.2,1.3-0.2,1.1-0.9C-19.1-21.5-19-21.6-18.9-21.5L-18.9-21.5z"/>
			</g>
		</g>
		<g>
			<g>
				<path d="M-20.8-23.7c0.2,0.5,0.2,1.2,0.5,1.6c0.3,0.4,0.5-0.2,0.9-0.1c0.3,0,0.7,0.5,0.5,0.8c0,0,0,0-0.1,0
					c-0.2-0.2-0.3-0.5-0.6-0.4c-0.2,0.1-0.4,0.3-0.6,0.2c-0.2-0.1-0.3-0.4-0.4-0.6C-20.8-22.6-20.9-23.2-20.8-23.7
					C-20.9-23.7-20.8-23.7-20.8-23.7L-20.8-23.7z"/>
			</g>
		</g>
		<g>
			<g>
				<path d="M-22.9-21.5c-0.4,0.8-1.3,1.4-2.2,0.9c-0.9-0.4-1.1-1.5-0.8-2.4c0,0,0,0,0,0c0.1,0.6,0.1,1.3,0.6,1.8
					C-24.5-20.4-23.5-20.8-22.9-21.5C-22.9-21.6-22.9-21.6-22.9-21.5L-22.9-21.5z"/>
			</g>
		</g>
		<g>
			<g>
				<path d="M-25.9-22.9c0.1,0.3,0.4,0.7,0.7,0.8c0.4,0.2,0.7,0.1,1.1,0c0.2-0.1,0.5-0.2,0.7-0.2c0.4,0.1,0.6,0.4,0.5,0.8
					c0,0-0.1,0-0.1,0c0.2-0.9-1-0.3-1.3-0.3c-0.2,0.1-0.5,0.1-0.7,0C-25.4-21.9-25.8-22.4-25.9-22.9C-25.9-22.9-25.9-22.9-25.9-22.9
					L-25.9-22.9z"/>
			</g>
		</g>
		<g>
			<g>
				<path d="M-23.9-21.9c-0.4-0.4-0.2-1.1,0.4-1.3c0.8-0.3,1.7,0.5,2.4,0.1c0.1-0.1,0.2,0.1,0.1,0.1c-0.5,0.2-0.9,0.1-1.4,0
					c-0.3,0-0.6-0.1-0.9,0c-0.5,0.1-0.5,0.6-0.5,1C-23.8-21.9-23.9-21.9-23.9-21.9L-23.9-21.9z"/>
			</g>
		</g>
		<g>
			<g>
				<path d="M-23.1-21.3c0.6-0.2,1.4-0.4,2-0.1c0.1,0,0.1,0.2,0,0.2c-0.6-0.2-1.3,0.3-2,0.2C-23.2-21.1-23.2-21.3-23.1-21.3
					L-23.1-21.3z"/>
			</g>
		</g>
		<g>
			<g>
				<path d="M-20.8-23C-20.8-23-20.8-23.1-20.8-23c0-0.1,0-0.1,0-0.2c0.2-0.2,0.4-0.4,0.6-0.6c0-0.1,0.1,0,0.1,0
					C-20.1-23.4-20.4-23.2-20.8-23C-20.7-23-20.8-23-20.8-23L-20.8-23z"/>
			</g>
		</g>
		<g>
			<g>
				<path d="M62.9,51.1c-0.3-0.6-0.7-1.2-1.2-1.6c-0.3-0.3-0.5-0.3-0.9-0.5c-0.2-0.1-0.4-0.2-0.5-0.4c0-0.1,0-0.2,0.1-0.1
					c0.2,0.1,0.4,0.2,0.7,0.3c0.1,0,0.2,0,0.2,0c0.3,0.1,0.6,0.4,0.8,0.7C62.6,49.8,62.9,50.4,62.9,51.1
					C63,51.1,62.9,51.1,62.9,51.1L62.9,51.1z"/>
			</g>
		</g>
		<g>
			<g>
				<path d="M64.9,47c0.9,0,2,0.6,2.6,1.1c0.8,0.6,1.4,1.3,1.9,2.1c0,0,0,0.1-0.1,0c-0.6-0.8-1.6-1.3-2.4-1.8
					C66.3,48,65.4,47.6,64.9,47C64.8,47,64.9,47,64.9,47L64.9,47z"/>
			</g>
		</g>
		<g>
			<g>
				<path d="M65.1,42.9c3.4,0.6,6.1,3.4,8,6c0,0,0,0.1-0.1,0C70.9,46.2,67.9,44.7,65.1,42.9C65,42.9,65,42.9,65.1,42.9L65.1,42.9z"
					/>
			</g>
		</g>
		<g>
			<g>
				<path d="M62.9,37.4c4.6,0.9,8.8,3.5,12,6.9c0.1,0.1,0,0.2-0.1,0.1c-3.7-2.9-7.6-5-11.9-6.9C62.8,37.5,62.8,37.4,62.9,37.4
					L62.9,37.4z"/>
			</g>
		</g>
		<g>
			<g>
				<path d="M-15,6.7c-0.1,0.9-0.6,1.6-0.7,2.5c-0.1,0.8,0.1,1.6,0.1,2.4c0.1,1.3,0,2,0.8,3c0.3,0.4,0.6,0.9,1,1.3
					c1.1,1.1,2,1,3.2,0.5c0.2-0.1,0.3,0.2,0.1,0.3c-0.6,0.4-1.3,1-2.1,0.9c-1.1-0.2-2.5-2.2-3.1-3c-1.2-1.6-0.6-2.4-0.7-4.4
					c-0.1-1.1-0.2-0.5,0-1.5c0.2-0.8,0.9-1,1.2-2.1C-15.2,6.5-15,6.6-15,6.7L-15,6.7z"/>
			</g>
		</g>
		<g>
			<g>
				<path d="M-10.6,16.4c1.9,0.7,3,1.8,4.9,0.3c1.9-1.5,3.4-3.9,2.8-6.4c-0.4-1.7-1.4-3.8-2.9-4.8c-0.1-0.1,0-0.3,0.1-0.2
					c0.7,0.4,0.7,0.4,1.1,1c0.4,0.6,1.2,1.3,1.5,2c0.3,0.6,0.4,1.4,0.7,2c0.1,0.2,0.3,0.3,0.4,0.6c0.2,0.9-0.3,1.6-0.6,2.4
					c-0.8,1.9-2.2,4.2-4.3,4.9c-1.4,0.5-2.7-0.8-3.9-1.4C-10.8,16.6-10.7,16.4-10.6,16.4L-10.6,16.4z"/>
			</g>
		</g>
		<g>
			<g>
				<path d="M-13.9,16.3c-0.2,2-0.1,4.2,1.4,5.6c0.1,0.1-0.1,0.3-0.2,0.2c-1.7-1.5-1.9-3.7-1.4-5.8C-14.1,16.2-13.9,16.2-13.9,16.3
					L-13.9,16.3z"/>
			</g>
		</g>
		<g>
			<g>
				<path d="M-12.6,22c0.7-1.7,0.4-3.3-0.1-4.9c0-0.2,0.2-0.3,0.3-0.1c0.8,1.3,1.3,4,0,5.1C-12.5,22.1-12.6,22.1-12.6,22L-12.6,22z"
					/>
			</g>
		</g>
		<g>
			<g>
				<path d="M-11.1,16.9c0.5,1.2,0.8,2.5,1.3,3.8c0.4,0.9,0.6,1.6,1.5,2.2c0.4,0.3,0.9,0.5,1.4,0.8c0.1,0.1,0,0.3-0.1,0.2
					c-1.2-0.7-2.1-1.1-2.8-2.5c-0.7-1.5-1.2-3-1.4-4.6C-11.3,16.9-11.2,16.9-11.1,16.9L-11.1,16.9z"/>
			</g>
		</g>
		<g>
			<g>
				<path d="M-7.1,24c0.2-1.4-0.1-2.2-0.6-3.5c-0.5-1.1-0.8-2.4-1.7-3.2c-0.1-0.1,0-0.2,0.1-0.2c1.3,0.4,1.7,2.6,2.1,3.7
					C-6.8,21.7-6.1,23.2-7.1,24C-7.1,24-7.1,24-7.1,24L-7.1,24z"/>
			</g>
		</g>
		<g>
			<g>
				<path d="M-7,17.8c0.4,0.6,0.6,1.2,1,1.8c0.4,0.6,1,1,1.6,1.3c0.1,0.1,0,0.3-0.1,0.2c-0.6-0.2-1.2-0.5-1.7-1
					c-0.5-0.6-0.8-1.4-1.1-2.2C-7.3,17.7-7.1,17.6-7,17.8L-7,17.8z"/>
			</g>
		</g>
		<g>
			<g>
				<path d="M-4.5,21c0.3-1.2-0.5-3-1.6-3.5c-0.2-0.1,0-0.3,0.1-0.3c0.8,0.2,1.2,0.9,1.5,1.5c0.4,0.7,0.5,1.5,0.2,2.3
					C-4.3,21.2-4.5,21.1-4.5,21L-4.5,21z"/>
			</g>
		</g>
		<g>
			<g>
				<path d="M-10.5,10.1c0.3,0.2,0.5,0.5,0.9,0.6c0.3,0.1,0.5,0.1,0.8,0.2c0.5,0.2,0.8,0.6,1.1,1c0,0,0,0,0,0
					c-0.5-0.5-1.1-0.7-1.7-0.9C-10,10.8-10.3,10.5-10.5,10.1C-10.6,10.1-10.5,10-10.5,10.1L-10.5,10.1z"/>
			</g>
		</g>
		<g>
			<g>
				<path d="M-15,11.4c0.4-0.4,0.8-0.6,1.1-1.1c0.2-0.3,0.4-0.5,0.8-0.6c0,0,0.1,0.1,0,0.1c-0.5,0.1-0.7,0.8-1,1.1
					C-14.4,11.1-14.7,11.3-15,11.4C-15,11.4-15.1,11.4-15,11.4L-15,11.4z"/>
			</g>
		</g>
		<g>
			<g>
				<path d="M-13.5,4.8c-0.2,1.2-0.4,2.5,0.1,3.6c0.3,0.6,0.7,1.4,1.3,1.7c1,0.5,1-1.5,1.9-1.6c0,0,0,0,0,0c-0.8,0.6-1,2.7-2.3,1.7
					C-14.2,8.7-14.1,6.6-13.5,4.8C-13.5,4.7-13.5,4.7-13.5,4.8L-13.5,4.8z"/>
			</g>
		</g>
		<g>
			<g>
				<path d="M-13.4,4.8c0.2,0.8,0.9,1.1,1.4,1.7c0.5,0.8,1.3,1.6,2.3,1.3c0,0,0,0,0,0c-0.6,0.6-1.7,0-2.2-0.6
					c-0.4-0.5-0.6-0.9-1.1-1.3C-13.3,5.6-13.5,5.2-13.4,4.8C-13.5,4.7-13.5,4.7-13.4,4.8L-13.4,4.8z"/>
			</g>
		</g>
		<g>
			<g>
				<path d="M-12,1.5c0.3,1,0.8,2,1.3,2.9c0.4,0.7,1.1,1.3,1.3,2.1c0.2,0.6,0.3,1.7-0.5,1.9c0,0,0,0,0-0.1c1.3-0.5,0.1-2.2-0.3-2.8
					c-0.3-0.4-0.6-0.8-0.8-1.2C-11.6,3.4-11.9,2.5-12,1.5C-12.1,1.5-12,1.4-12,1.5L-12,1.5z"/>
			</g>
		</g>
		<g>
			<g>
				<path d="M-9.9,7.8c0-1.4-1.5-2.1-2-3.4c-0.1-0.3-0.7-2.2-1-0.8c-0.1,0.6,0.2,1.7,0.2,2.3c0,0.1-0.1,0.1-0.2,0
					c-0.1-0.3-0.7-3.8,0.4-2.9c0.2,0.2,0.3,0.5,0.4,0.8c0.3,0.8,0.6,1.4,1.2,2C-10.2,6.4-9.6,6.8-9.9,7.8C-9.8,7.8-9.9,7.8-9.9,7.8
					L-9.9,7.8z"/>
			</g>
		</g>
		<g>
			<g>
				<path d="M-12.6,3c-0.1-0.3,0-0.6,0.1-0.9c0.1-0.3,0.1-0.5,0.4-0.6c0,0,0.1,0,0.1,0c0,0.3-0.2,0.5-0.3,0.7
					c-0.1,0.2-0.1,0.5-0.2,0.7C-12.5,3.1-12.5,3.1-12.6,3L-12.6,3z"/>
			</g>
		</g>
		<g>
			<g>
				<path d="M-10.3,10.3c0.4-0.7,1.1-0.9,1.8-0.5c0.6,0.3,0.8,1.1,0.4,1.6c-0.1,0.1-0.2,0-0.2-0.1c0.2-0.6,0.2-1.2-0.4-1.5
					c-0.7-0.4-1,0.4-1.5,0.7C-10.2,10.5-10.3,10.4-10.3,10.3L-10.3,10.3z"/>
			</g>
		</g>
		<g>
			<g>
				<path d="M-14.6,11c-0.5-0.8,0.5-2.1,1.3-1.3c0.1,0.1-0.1,0.2-0.1,0.1c-0.2-0.2-0.5-0.2-0.7-0.1c-0.3,0.1-0.4,0.3-0.4,0.6
					c0,0.2,0.1,0.4,0.1,0.6C-14.5,11.1-14.6,11.1-14.6,11L-14.6,11z"/>
			</g>
		</g>
	</g>
</symbol>
<g id="Dachshund_2">
	<g id="Dachshund_1_">
		<g id="Outlines_7_">
			<g id="Dachshund_3_">
				<g id="Colours_9_">
					<g id="Base_13_">
						<g id="Dark_11_">
						</g>
						<g id="Light_11_">
						</g>
					</g>
					<g id="Details_15_">
					</g>
				</g>
				<g id="Outlines_9_">
				</g>
			</g>
		</g>
	</g>
</g>
<g id="Dachshund_2_">
	<g id="Colours_8_">
		<g id="Base_12_">
			<g id="Dark_10_">
			</g>
			<g id="Light_10_">
			</g>
		</g>
		<g id="Details_14_">
		</g>
	</g>
	<g id="Outlines_8_">
	</g>
	
		<use xlink:href="#Harpy_Eagle"  width="169.5" height="116.5" x="-84.7" y="-58.2" transform="matrix(12.5227 -0.3011 -0.3011 -12.5227 1076.3971 722.1999)" style="overflow:visible;"/>
</g>
</svg>
