<?xml version="1.0" encoding="utf-8"?>
<!-- Generator: Adobe Illustrator 22.1.0, SVG Export Plug-In . SVG Version: 6.00 Build 0)  -->
<svg version="1.1" id="Layer_1" xmlns="http://www.w3.org/2000/svg" xmlns:xlink="http://www.w3.org/1999/xlink" x="0px" y="0px"
	 viewBox="0 0 1478.4 1396.7" style="enable-background:new 0 0 1478.4 1396.7;" xml:space="preserve">
<style type="text/css">
	.st0{clip-path:url(#SVGID_5_);}
	.st1{fill:#FFFFFF;stroke:#000000;stroke-width:1.2;stroke-miterlimit:10;}
	.st2{fill:#DDDDDD;}
	.st3{fill:#151612;}
	.st4{fill:#7DC0D8;}
	.st5{fill:#FFFFFF;}
</style>
<symbol  id="Husky_2" viewBox="-67.8 -66.8 135.5 133.6">
	<g id="Colours_2_1_">
		<defs>
			<path id="SVGID_2_" d="M39-38.1c-0.8-1.3-2.2,0.1-3.3-1c-1.7-1.8-0.6-2.8-0.4-3.1c1.6-1.6,4.2-1.8,6.2-0.8
				c0.5,0.2,0.9,0.3,1.4,0.4c1.7,0.6,1.9,2.6,2.5,4.1c0.8,2.1,1,4.3,1.3,6.6l1-0.2c1.8-1,2.4-1.6,2.8-2.7c1.1-3.1,1.4-7.4,0.3-10.5
				l-1.1-0.5c-0.7-0.6-1.2-1.4-1.4-2.3c-0.2-0.9,0.1-1.9,0.7-2.5c0.9-0.7,3.1-0.9,4.7-0.7s4.1,1,4.2,5.4c0.1,5.3-1.2,12.2-1.6,17.5
				c1.3-0.9,1.3-1,3.2-1.7c1.9-0.7,4-1.5,4.9-3.2c1.3,2.8,0.6,6.4-0.6,9.3s-3,5.5-4.5,8.2c-2.1,3.9-3.4,8.1-4.8,12.3
				c0.2,6.1-1.8,11.4-5.9,15.9s-9.9,7.4-16,7.9c-6,0.5-11.9-1.3-17.8-2.1C6,17.1-2.8,18.1-11.1,21.4c0.1,0.7,0,1.4-0.1,2
				c-0.3,1.6-1,3-1.7,4.5c-1.7,3.6-3.4,7.1-5.1,10.7c-0.8,1.7-1.6,3.4-2.8,4.9c-1.2,1.5-2.8,2.7-4.6,3c-0.1,0.9-0.2,1.9-0.4,2.8
				c-0.2,0.8-0.7,2.1-1.5,2.3c-0.4,0.1-2.2-0.8-4-3.3c-1.6,2-2.8,4.9-2.9,7.4c0,0.2-0.3,0.6-0.5,0.7c-1.2-2.1-1.8-4.8-1.6-7.3
				c-3-0.3-5.9-1.7-7.8-4c-0.8-1-1.6-2.1-2.7-2.7c-0.8-0.4-1.8-0.5-2.7-0.6c-3.7-0.4-11.1-1.1-11.1-1.1c-0.2-1.5,0.2-2.8,1.3-3.9
				c0.5-1.9,1.6-4.3,3.3-5.4c0.7-1.9,2.8-3.1,4.8-3.4s4.1-0.1,6.2-0.1c1.7-0.2,2.7-2.3,2.7-4c0-1.7-0.7-3.3-1.2-4.9
				c-1.3-4.4-1.1-9.3,0.8-13.5c-0.2,1,0.2,2.2,0.8,3.1c0.5-4.4,2.1-9.9,4-13.8c2.6-7.1,5.2-14.2,6.4-21.6c0.9-5.6,1-11.2,0.8-16.8
				l-0.5-4.4c-0.3-1.2-3.4-0.8-5.3-2.1c-0.8-0.5-1.8-1.8-1.3-3.7c0,0,0.4-0.9,0.8-1.3c1.5-1.3,9.6-0.2,13.3,2.5
				c-0.4-0.9-0.9-1.6-1.6-2.4c-1.1-0.4-2.2-0.7-3.2-1.4c-1-0.6-1.7-1-2-2.1l0.1-2.1c1.1-2.4,6.9-1.9,8.4-1.4
				c2.5,0.2,4.9,1.9,5.2,4.6c1.9,6.1,2.1,13.5,3.1,19.9c0.7,4.3,2,11.1,2,15.4c16.4-2,27.5,3.4,34,7.2c0.7-2.6,2.5-5.3,4.7-6.8
				s5-2.3,7.7-2.1c1.8-2.1,3.9-4.2,6.2-5.5C41.2-32.3,40.6-35.5,39-38.1z"/>
		</defs>
		<clipPath id="SVGID_5_">
			<use xlink:href="#SVGID_2_"  style="overflow:visible;"/>
		</clipPath>
		<g id="Base_3_" class="st0">
			<rect x="-67.2" y="-66.2" class="st1" width="134.3" height="125"/>
			<g id="Light_1_">
				<g>
					<path class="st2" d="M-31.3-54.2C-29-53.7-27-52-26-49.9c1.8,3.9,0,8.4-0.9,12.5c-1.6,7.7,0.6,12-1.5,13.9
						c-2.4,2.1-6.4,7.4-7.8,14.8c4.5-4.3,6.2-10.4,10.3-14.4c1.5-8.3,2.8-15.4,3.1-23.6c0.1-2.2-0.9-5.2-2.4-6.8
						c-2.3-2.6-6.4-2.5-9.9-2.2c-0.9,0.1-1.9,0.2-2.6,0.7c0,0,0,0,0,0c-0.4,0.3-1.2,1.4-0.7,1.9c0.4,0.4,1.6-0.5,1.9-0.6
						C-34.8-54.4-33.1-54.7-31.3-54.2z"/>
				</g>
				<g>
					<path class="st2" d="M-43.8,31c-1.4-0.6-2.8-1.1-4.2-1.7c2.7,0.1,6.6-1.6,8.8-3.3c2.1-8.2-5.1-3.8-3.5-20.5
						c-2.2,2.5-3.3,4.5-4.7,7.5c-2.6,5.5-8.4,9.2-9.8,15.1c0,0,0,0,0,0c-0.8,3.5,1.8,2.9,4.2,3.1c1.6,0.1,3.1,0.2,4.7,0.2
						C-47.3,31.3-44.8,30.6-43.8,31z"/>
				</g>
				<g>
					<path class="st2" d="M-14.5-15.5c9.5-6.5,33.3-3.2,43.3,8.4c0.6-10.8,4.9-16.6,10.7-19.6c3.3-1.7,7.1-2.5,10.1-4.6
						c2.7-1.9,4.8-5.3,3.9-8.5c-1-3.4-4.7-5-8.2-5.8c-2.9-0.6-6-0.8-8.9,0c-2.9,0.9-5.5,3-6.3,5.8c-0.4,1.4-0.4,2.8-0.8,4.2
						c-1.1,3.7-5,6-8.9,6.5c-3.8,0.5-7.7-0.2-11.6-0.5c-5.2-0.4-10.6,0-15.7,1.3c0,0,0,0,0,0c-2.4,0.6-5.1,1.6-5.6,4.2
						c-0.2,1.1-0.2,2.1-0.6,3.3C-13.1-20.1-14-15.6-14.5-15.5z"/>
				</g>
				<g>
					<path class="st2" d="M56.2-23.8C56.2-23.8,56.2-23.8,56.2-23.8c1.6-1.6,3.5-2.8,5.2-4.3c1.7-1.5,3.1-3.5,3.1-5.8
						c-4.1,0.6-7.6,3.6-9.8,7.2c-2.1,3.6-2.1,11.8-2,10.5C53-19,54.2-21.8,56.2-23.8z"/>
				</g>
			</g>
			<g id="Dark_1_">
				<g>
					<path class="st3" d="M60.8,4.4c-3.2,9.1-10,17.5-19.2,20.6c-7.7,2.6-16.8,1.4-23.4,6.1c-5.3,3.7-7.7,10-10.5,15.8
						C4.7,53,1,59-4.6,62.9c-5.6,3.9-13.3,5.3-19.2,2.1c-5-2.7-8.1-8.3-13.5-10.3c-1.9-0.7-4.1-0.9-6-1.6c-2-0.7-3.9-2.1-4.3-4.2
						c-0.3-1.4,0.6-3.1,1.9-3.6c1.4-0.5,3.1,0.5,4.5,0.8c-0.1-2.9,1.4-5.6,3.1-7.9s3.8-4.7,4.1-7.6c0.3-2.5,0.6-4.9-3.1-7.5
						c3.3-0.1,5.1,1,6.8,4c1.9-6.8-9-7.8-7.6-15.8c0.7-4.2,1.9-6.3,4.3-7.5c3.3-1.6,4.8-6.5-0.1-5.8c4.4-6.3,10.2-3.4,11.6-5.3
						c1.7-2.4-1.9-2.9-2.3-5.8c-0.8-5.3,4.9-13.4,12.4-13.8c0.9,3.1-0.8,8.6-1.1,10.5c6.9-3,14.6-2.8,21.8-0.4
						c4.8,1.6,9.7,3.2,13.9,6c3.8,2.5,7,5.9,10.1,9.2c-3.2-14.8,7.8-22.9,15-21.5c-2.9,1.3-4.6,3.3-5.1,6.9c5.3-7.1,9.3-2.3,11-7.7
						C52.6-21,53.3-13.9,54.2-9c1.8-10,5-7.2,9-13.8C63.5-13,64-4.7,60.8,4.4z M-26.9,46.1c-0.2-1.2-0.6-2.4-0.7-3.7
						c0-1,0.2-1.9,0.2-2.9c0.1-1,0-2-0.5-2.8c-0.5-0.8-1.5-1.4-2.5-1.1c-0.3,2,0.8,1.9,0.9,3.3c-0.6-0.7-1.7-0.6-1.7-0.6
						c0.9,0.8,2.3,2.2,2,3.7c-1-1.6-2.6-2.1-3.5-1.3c-0.5,0.4-0.5,1.1-0.6,1.7c-0.1,1.4,0.4,2.8,1.2,4c0.8,1.2,1.8,2.2,2.9,3.1
						c0.2,0.2,0.4,0.4,0.7,0.4c0.3,0,0.6-0.2,0.8-0.4C-26.8,48.7-26.7,47.3-26.9,46.1z"/>
				</g>
			</g>
		</g>
		<g id="Details_3_" class="st0">
			<path class="st3" d="M-41.6,40.8c-0.7,0.8-1,1.1-1.4,1.5c-0.5-0.3-0.5-0.1-1.4-1.5c0-1.1,0.6-1.9,1.4-1.9S-41.6,39.7-41.6,40.8z"
				/>
			<g>
				<path class="st3" d="M-58.6,41.6L-58.6,41.6c-0.7,0.7-1.9,0.8-2.6,0.2c-0.4-0.4-0.6-1-0.6-1.5c0-1.5,0.7-4.5,2.8-3.6
					C-57.3,37.4-57.4,40.5-58.6,41.6z"/>
			</g>
			<ellipse class="st4" cx="-43" cy="40.8" rx="0.9" ry="1.4"/>
			<ellipse cx="-43.1" cy="40.7" rx="0.5" ry="0.6"/>
			<ellipse class="st5" cx="-42.8" cy="41" rx="0.3" ry="0.4"/>
		</g>
	</g>
	<g>
		<g>
			<path d="M-31.2,48.7c-3.7,1.5-7.7,1-11-1.3c-2.2-1.5-3.4-3.9-6-4.8c-3.8-1.3-8.3-1.2-12.3-1.6c-0.4,0-0.4-0.7,0-0.6
				c3.1,0.3,6.1,0.6,9.2,0.8c1.5,0.1,3.4-0.1,4.8,0.8c1.5,0.9,2.3,2.7,3.6,3.9c3.2,2.9,7.4,3.3,11.6,2.6
				C-31.1,48.4-31,48.6-31.2,48.7L-31.2,48.7z"/>
		</g>
	</g>
	<g>
		<g>
			<path d="M-60.8,40.8c-0.6-1.3,0.1-3.9,1.5-4.5c0.2-0.1,0.6,0.1,0.5,0.4c-0.3,0.7-0.8,1.2-1.1,1.9c-0.3,0.7-0.3,1.5-0.5,2.2
				C-60.4,40.9-60.7,41-60.8,40.8L-60.8,40.8z"/>
		</g>
	</g>
	<g>
		<g>
			<path d="M-59.4,36.8c0.5-2.5,1.3-5.2,4.1-6.1c3.8-1.3,7.7,1.3,11.6,0c0.1,0,0.2,0.1,0.1,0.2c-1.7,1.1-3.6,1-5.6,0.7
				c-1.7-0.2-3.7-0.8-5.4-0.4c-2.7,0.7-3.6,3.2-4.4,5.6C-59.2,37-59.5,37-59.4,36.8L-59.4,36.8z"/>
		</g>
	</g>
	<g>
		<g>
			<path d="M-56.2,31.4c0.6-2.1,2.4-3.1,4.4-3.6c4.3-1,8.5,0.7,12.4-1.9c0.1-0.1,0.3,0.1,0.2,0.2c-4.9,4.5-12.4-0.4-16.8,5.4
				C-56,31.6-56.2,31.5-56.2,31.4L-56.2,31.4z"/>
		</g>
	</g>
	<g>
		<g>
			<path d="M-45.1,27.6c4.9-2.4,0.7-8.8,0.4-12.4c-0.3-3.5,0.5-6.6,1.8-9.8c0.1-0.2,0.4-0.1,0.4,0.1c-1.3,3.3-1.6,6.8-1.1,10.4
				c0.3,2.3,1.3,4.5,1.5,6.7C-41.9,25-42.5,27.2-45.1,27.6C-45.1,27.6-45.1,27.6-45.1,27.6L-45.1,27.6z"/>
		</g>
	</g>
	<g>
		<g>
			<path d="M-42.4,5.5c-0.1,0.6,0,1.2,0.2,1.7c0.1,0.4,0.4,0.8,0.4,1.2c0,0.1-0.2,0.2-0.3,0.2c-1-0.5-0.9-2.3-0.7-3.2
				C-42.7,5.2-42.4,5.3-42.4,5.5L-42.4,5.5z"/>
		</g>
	</g>
	<g>
		<g>
			<path d="M-42,8.1c0.9-9.2,5.8-18.4,11.5-25.6c0.2-0.2,0.5,0.1,0.4,0.3c-4.4,8.5-9.7,15.7-11.6,25.4C-41.7,8.3-42,8.3-42,8.1
				L-42,8.1z"/>
		</g>
	</g>
	<g>
		<g>
			<path d="M-38.1-5.4c4.1-14,9.6-29.1,6.2-43.9c-0.1-0.4,0.5-0.6,0.6-0.2c2.3,6.2,1.2,14.3,0.4,20.8c-1,8.1-3.7,16-7,23.4
				C-37.9-5.1-38.1-5.2-38.1-5.4L-38.1-5.4z"/>
		</g>
	</g>
	<g>
		<g>
			<path d="M-28.7-13.3c1.6-6.7,3.2-13.4,4.2-20.3c1-6.8,2.9-15.5-1.5-21.6c-0.2-0.2,0.2-0.5,0.4-0.3c4.8,4.6,3.5,11.3,2.8,17.4
				C-23.8-29.5-25.6-21.2-28.7-13.3C-28.7-13.2-28.7-13.2-28.7-13.3L-28.7-13.3z"/>
		</g>
	</g>
	<g>
		<g>
			<path d="M-14.5-14.2c3-8,1.6-15,0.3-23.2c-1.1-6.6-1.3-13.4-3.2-19.8c-0.2-0.6,0.8-0.9,1-0.3c2.3,8,2.2,16.4,3.9,24.5
				c1.5,6.8,2.1,12.8-1.7,18.9C-14.3-14-14.5-14.1-14.5-14.2L-14.5-14.2z"/>
		</g>
	</g>
	<g>
		<g>
			<path d="M-16.5-55.6c-1.5-3.4-3.2-5.5-7-6c-2.5-0.4-5-0.2-7,1.3c-0.2,0.2-0.4-0.1-0.4-0.3c0.4-2.9,5.7-2.5,7.7-2.2
				c3.7,0.7,6.8,3,7,7.1C-16.2-55.6-16.4-55.5-16.5-55.6L-16.5-55.6z"/>
		</g>
	</g>
	<g>
		<g>
			<path d="M-25.5-54.9c-1.7-0.5-4.2-1-5.3-2.6c-0.9-1.3-1-3.7,0.6-4.4c0.2-0.1,0.6,0.1,0.5,0.4c-0.5,1.4-1.1,2.9,0.2,4.1
				c1.1,1.1,2.6,1.7,4,2.3C-25.3-55.1-25.3-54.9-25.5-54.9L-25.5-54.9z"/>
		</g>
	</g>
	<g>
		<g>
			<path d="M-31.3-48.2c-1-1.2-3.4-0.8-4.7-1.4c-1.2-0.5-2.1-1.4-2.4-2.7c-0.5-2.4,0.9-3.9,3.3-3.3c0.2,0,0.2,0.3,0.1,0.4
				c-0.7,0.4-1.9,0.3-2.3,0.9c-0.3,0.5-0.2,1.5-0.1,2c0.2,0.9,0.8,1.5,1.6,1.9c1.2,0.6,2.5,0.7,3.8,1.2
				C-31.7-49-31.2-48.7-31.3-48.2C-31.2-48.2-31.3-48.1-31.3-48.2L-31.3-48.2z"/>
		</g>
	</g>
	<g>
		<g>
			<path d="M-37.5-55c3.8-2.6,9.6-1.3,13,1.3c0.3,0.2-0.1,0.6-0.4,0.5c-1.9-1.2-4.1-2.1-6.4-2.3c-2.1-0.1-4.1,0.5-6.1,0.8
				C-37.6-54.7-37.7-54.9-37.5-55L-37.5-55z"/>
		</g>
	</g>
	<g>
		<g>
			<path d="M28.8-7.1c-0.6-6.3,0.6-11.8,4.6-16.8c4.5-5.7,10.4-7.4,17-9.6c0.2-0.1,0.3,0.3,0.2,0.4c-5.1,2.5-10.6,4.1-14.7,8.4
				C31.4-20.1,29-13.5,28.8-7.1C28.9-7,28.8-7,28.8-7.1L28.8-7.1z"/>
		</g>
	</g>
	<g>
		<g>
			<path d="M47.7-32.2c4.2-3.2,3.2-8.4,2.9-13.1c0-0.1,0.2-0.2,0.2-0.1c1.6,2.5,1.2,6,0.6,8.8c-0.6,2.4-1.4,3.6-3.7,4.5
				C47.7-32,47.7-32.1,47.7-32.2L47.7-32.2z"/>
		</g>
	</g>
	<g>
		<g>
			<path d="M21.9-15.2c0.5-5.6,7.6-9.2,12.6-8.9c0.5,0,0.5,0.7,0,0.7c-3-0.1-6,0.5-8.3,2.6c-1.8,1.7-2.4,3.7-3.6,5.8
				C22.4-14.8,21.9-14.9,21.9-15.2L21.9-15.2z"/>
		</g>
	</g>
	<g>
		<g>
			<path d="M40.4-29.3c-0.2-1.3,0.1-2.7-0.1-4c-0.2-1.7-0.7-3.2-1.6-4.7c-0.2-0.3,0.3-0.5,0.4-0.2c1.4,2.5,2.9,6.3,1.6,9.1
				C40.7-29,40.5-29.1,40.4-29.3L40.4-29.3z"/>
		</g>
	</g>
	<g>
		<g>
			<path d="M46.6-31.8c-0.6-1.3-0.6-2.7-0.9-4.1c-0.3-1.4-0.7-2.7-1.2-4.1c-1.2-3.6-6.4-3.8-9.2-2.1c-0.1,0.1-0.2-0.1-0.1-0.1
				c1.9-2.5,6.1-1.9,8.5-0.4c1.3,0.8,1.6,2.5,2,3.8c0.7,2.2,1.6,4.7,1.1,7C46.8-31.8,46.7-31.8,46.6-31.8L46.6-31.8z"/>
		</g>
	</g>
	<g>
		<g>
			<path d="M40.3-37.9c-1,0-2.1,0-3-0.1c-1-0.1-1.9-0.6-2.3-1.5c-0.5-1.1-0.1-3.7,1.6-3.5c0.1,0,0.1,0.1,0.1,0.1
				c-0.1,0.4-0.4,0.8-0.7,1.1c-0.6,0.9-0.5,1.8,0.3,2.6c1.2,1,2.9,0.4,4.1,1.2C40.3-38,40.3-38,40.3-37.9L40.3-37.9z"/>
		</g>
	</g>
	<g>
		<g>
			<path d="M51.9-44.3c-1.5-0.4-3.3-1.8-3.9-3.2c-0.4-1.1-0.3-2.7,0.8-3.3c0.3-0.2,0.6,0.2,0.5,0.5c-0.7,1.2-0.9,2.2-0.2,3.5
				C49.8-45.7,51-45.2,51.9-44.3C51.9-44.3,51.9-44.3,51.9-44.3L51.9-44.3z"/>
		</g>
	</g>
	<g>
		<g>
			<path d="M48.8-50.9c2.9-1,6.9-1.6,8.7,1.6c1.2,2.2,0.6,5.5,0.5,7.9c-0.2,4.1-0.8,8.2-1.3,12.2c-0.1,0.5-0.8,0.5-0.8,0
				c0.3-4.4,1.2-8.7,1.7-13c0.3-2.7,0.4-5.8-1.7-7.7c-2-1.7-4.5-1-6.9-0.7C48.6-50.5,48.6-50.8,48.8-50.9L48.8-50.9z"/>
		</g>
	</g>
	<g>
		<g>
			<path d="M-11.4,21.4c7.7-3.6,16-4.8,24.4-4c10.3,1,19.8,5.2,29.5-0.6C53,10.7,55.4-0.3,53.3-11.4c-1.1-6.1-2-12.6,2.4-17.6
				c0.3-0.4,0.9,0.2,0.6,0.6C49.8-21,56.3-9.3,55.1-0.4c-1,7.3-5.2,13.7-11.5,17.5c-7.4,4.3-15.2,3.7-23.4,2.6
				c-10.9-1.5-20.8-1.1-31.4,2.1C-11.4,21.7-11.5,21.5-11.4,21.4L-11.4,21.4z"/>
		</g>
	</g>
	<g>
		<g>
			<path d="M-25.4,46.3c4.9-1.8,6.7-7.3,8.7-11.6c2.3-4.9,6.6-10.3,4.7-15.9c0-0.1,0.1-0.2,0.2-0.1c2.7,5.1-1.4,11.1-3.5,15.6
				c-2.4,4.9-4,10.8-10,12.2C-25.5,46.6-25.6,46.4-25.4,46.3L-25.4,46.3z"/>
		</g>
	</g>
	<g>
		<g>
			<path d="M54.5-3.5c1-4.4,2.2-8.6,4.5-12.5c3.3-5.8,6.4-10.2,5.4-17.3c0,0,0-0.1,0.1,0c2.2,3.7,0.5,8-1.4,11.6
				c-3.1,6-5.8,12-8.4,18.2C54.6-3.4,54.4-3.4,54.5-3.5L54.5-3.5z"/>
		</g>
	</g>
	<g>
		<g>
			<path d="M54.5-26.8c1.9-4.1,7.1-3.3,9.8-6.6c0.1-0.1,0.2,0,0.2,0.1C62.6-29.3,57.1-29.9,54.5-26.8C54.6-26.7,54.5-26.7,54.5-26.8
				L54.5-26.8z"/>
		</g>
	</g>
	<g>
		<g>
			<path d="M-35.9,49.3c0.1,2.4,0.4,4.8,1.3,7c0,0.1-0.1,0.2-0.2,0.1c-1.4-2.2-2.2-4.5-1.9-7.1C-36.6,48.9-35.9,48.8-35.9,49.3
				L-35.9,49.3z"/>
		</g>
	</g>
	<g>
		<g>
			<path d="M-34.7,56.1c0.1-0.1,0.2-0.2,0.3-0.4c0-0.3,0-0.5,0-0.8c0-0.3,0-0.5,0.1-0.8c0.1-0.8,0.3-1.5,0.6-2.3
				c0.5-1.3,1.2-2.4,2-3.4c0.2-0.3,0.7,0.1,0.5,0.4c-0.9,1.2-1.5,2.6-2,4c-0.1,0.5-0.3,1-0.4,1.5c-0.1,0.5,0,1.4-0.3,1.8
				C-34.2,56.4-34.8,56.7-34.7,56.1C-34.8,56-34.8,56-34.7,56.1L-34.7,56.1z"/>
		</g>
	</g>
	<g>
		<g>
			<path d="M-32.3,46.2c0.9,1.4,1.9,2.7,3.2,3.8c0.3,0.3,0.8,0.8,1.2,0.9c0.9,0.2,1.4-0.8,1.7-1.7c1.5-3.4,0.5-7.3,0.2-10.8
				c0-0.1,0.2-0.1,0.2,0c1,2.7,1,5.9,0.7,8.7c-0.1,1.4-0.2,3.8-1.6,4.7c-2.5,1.6-5.2-4.1-5.9-5.5C-32.5,46.1-32.4,46.1-32.3,46.2
				L-32.3,46.2z"/>
		</g>
	</g>
	<g>
		<g>
			<path d="M-44.6,40.6c0.6,0.4,1.1,1.1,1.8,1.4c-0.2,0-0.4,0.1-0.5,0.1c0.6-0.9,1.7-1.6,2.8-1.7c0.2,0,0.2,0.3,0,0.3
				c-1.1,0.3-1.5,1.2-2.2,1.9c-0.1,0.1-0.3,0.2-0.5,0.1C-43.9,42.2-44.3,41.4-44.6,40.6C-44.7,40.6-44.7,40.5-44.6,40.6L-44.6,40.6z
				"/>
		</g>
	</g>
	<g>
		<g>
			<path d="M-24.1-62.3c-1,0.6-1.1,1.9-0.7,2.9c0.1,0.4,0.3,0.9,0.5,1.3c0.3,0.5,0.8,0.8,1.2,1.2c0,0.1,0,0.2-0.1,0.2
				c-1.3-0.1-2.4-1.6-2.5-2.8c-0.2-1.1,0.2-2.9,1.6-2.9C-24.1-62.5-24-62.4-24.1-62.3L-24.1-62.3z"/>
		</g>
	</g>
	<g>
		<g>
			<path d="M-27.1-62.3c-0.6,0.9-0.8,1.8-0.8,2.8c0,1.4,0.8,2.1,1.9,2.7c0.2,0.1,0,0.3-0.1,0.3c-2.7-0.8-3.5-4.4-1.2-6
				C-27.1-62.5-27-62.4-27.1-62.3L-27.1-62.3z"/>
		</g>
	</g>
	<g>
		<g>
			<path d="M-30.5-55.9c-0.8,0.1-1.8,0.2-2.1,1.1c-0.1,0.3,0,0.7,0.1,1c0.6,1.2,1.8,1.5,2.9,2c0.1,0.1,0.1,0.3-0.1,0.3
				c-1.4,0-3.6-0.8-3.8-2.5c-0.2-1.4,1.7-2.9,2.9-2C-30.4-56-30.5-55.9-30.5-55.9L-30.5-55.9z"/>
		</g>
	</g>
	<g>
		<g>
			<path d="M-35.1-55.3c-0.6,1.1-0.8,2.5,0.1,3.5c0.7,0.8,1.6,1,2.5,1.3c0.1,0,0.1,0.2,0,0.2c-1,0-2.7-0.6-3.4-1.4
				c-0.9-1.1-0.4-2.8,0.6-3.7C-35.2-55.5-35.1-55.4-35.1-55.3L-35.1-55.3z"/>
		</g>
	</g>
	<g>
		<g>
			<path d="M54.5-46.1c-0.6-0.8-1.2-1.9-1.2-2.9c0-0.9,0.5-1.9,1.5-1.8c0.2,0,0.4,0.1,0.4,0.3c0.1,0.6-0.7,0.6-0.9,1.1
				C54.1-48.3,54.1-47.2,54.5-46.1C54.6-46.1,54.5-46.1,54.5-46.1L54.5-46.1z"/>
		</g>
	</g>
	<g>
		<g>
			<path d="M52-45.8c-2.5-0.5-3-5.1-0.2-5.4c0.1,0,0.1,0.1,0.1,0.2c-0.4,0.8-1,1.5-1.1,2.4c-0.1,0.5,0,1,0.2,1.5
				C51.2-46.6,51.6-46.3,52-45.8C52-45.9,52-45.8,52-45.8L52-45.8z"/>
		</g>
	</g>
	<g>
		<g>
			<path d="M42.6-39.3c-1.1-0.3-2.5-0.9-2.9-2.1c-0.3-0.9,0.3-2,1.1-2.3c0.6-0.2,0.9,0.7,0.4,1C39.6-41.9,41.7-39.8,42.6-39.3
				C42.6-39.3,42.6-39.3,42.6-39.3L42.6-39.3z"/>
		</g>
	</g>
	<g>
		<g>
			<path d="M39.2-38.8c-1.1-0.2-2.2-0.6-2.7-1.7c-0.4-0.9-0.3-2.5,0.6-2.9c0.2-0.1,0.6,0,0.5,0.3c-0.1,0.9-0.7,1.4-0.4,2.3
				C37.5-39.9,38.3-39.2,39.2-38.8C39.2-38.9,39.2-38.8,39.2-38.8L39.2-38.8z"/>
		</g>
	</g>
	<g>
		<g>
			<path d="M-59.6,39.6C-59.7,39.6-59.7,39.6-59.6,39.6c-0.3,0-0.4-0.1-0.5-0.3c-0.2-0.5-0.2-1.3,0.1-1.8c0.2-0.3,0.6-0.2,0.6,0.2
				c0,0.2,0,0.4,0,0.7c0,0.2,0.1,0.5,0.1,0.7c0,0.1,0,0.3-0.1,0.4C-59.5,39.5-59.5,39.6-59.6,39.6L-59.6,39.6z"/>
		</g>
	</g>
	<g>
		<g>
			<path d="M-11.9-22.4c14.9-4.1,28.6,3.9,41,11.2c0.1,0.1,0,0.3-0.1,0.2c-5.6-2.8-10.9-6.1-16.8-8.3c-7.9-2.8-15.7-3-24-2.6
				C-12.1-21.8-12.2-22.3-11.9-22.4L-11.9-22.4z"/>
		</g>
	</g>
</symbol>
<use xlink:href="#Husky_2"  width="135.5" height="133.6" x="-67.8" y="-66.8" transform="matrix(10.846 0 0 -10.846 705.0852 673.4326)" style="overflow:visible;"/>
</svg>
