<?xml version="1.0" encoding="utf-8"?>
<!-- Generator: Adobe Illustrator 22.1.0, SVG Export Plug-In . SVG Version: 6.00 Build 0)  -->
<svg version="1.1" id="Layer_1" xmlns="http://www.w3.org/2000/svg" xmlns:xlink="http://www.w3.org/1999/xlink" x="0px" y="0px"
	 viewBox="0 0 1478.4 1400" style="enable-background:new 0 0 1478.4 1400;" xml:space="preserve">
<style type="text/css">
	.st0{clip-path:url(#SVGID_5_);fill:#E94E1B;}
	.st1{clip-path:url(#SVGID_5_);}
	.st2{fill:#952715;}
	.st3{fill:#F4A08B;}
	.st4{clip-path:url(#SVGID_5_);fill:#FFED00;}
	.st5{fill:#F9B233;}
	.st6{fill:#1D1D1B;}
</style>
<symbol  id="Octopus" viewBox="-147.5 -139.8 295 279.5">
	<g id="Colours_7_">
		<defs>
			<path id="SVGID_2_" d="M142.3-55.7c-2,3.9-7.2,4.7-11.6,4.2c-7.7-0.8-15.1-4-20.9-9c-3.9-3.4-7.1-7.5-10.7-11.3
				c-3.6-3.7-7.8-7.2-12.8-8.6l-0.5,0.1c-1.2,0-2.5,0.1-3.7,0.4c-10,1.8-18.6,9.7-21,19.6l-0.3,2c5.4,1.4,12.2-0.3,19.7,6
				c4.8,4,5,11.4,4.5,17.7c-1,13.5-6.8,26.5-16.1,36.3c-2.4,2.6-4.9,4.8-7.4,6.8l-0.3,0c-1.6,6.4-1,13.2-0.1,19.7
				c1.3,9.7,3.3,19.3,6,28.7c1.5,5.4,3.3,10.6,2.3,16.1c-0.4,2.3-1.4,5-3.2,6.4c-1.9,1.4-4.4,1.7-6.6,0.9c-2.2-0.8-7.7-4.8-6.9-9.5
				c0.6-3.5,3.4-7.7,4.6-6.8c1,0.8,1,2.7,0.7,3.9c-1.7,5.6,1.8,6.1,3.4,5.8c1.6-0.3,2.1-2.9,2.4-4.5c0.3-1.6-0.7-3.8-1.2-5.3
				c-1.7-5.7-4.3-11-6.4-16.5c-3.8-10-6-20.6-6.5-31.3l0-0.7c-3.8,1.6-8,2.7-12.6,3.5l0,0.3c0.5,2.6-0.1,5.4-1.6,7.5
				c-1.5,2.2-3.9,3.7-6.5,4.2c-1.5,0.3-3,0.2-4.5-0.1l0,0.2c1.4,14.4,3.6,28.7,8.2,42.4s11.5,26.7,21.4,37.2
				c2.1,2.2,4.3,4.2,5.9,6.7c1.6,2.5,2.7,5.5,2.2,8.5c-0.1,0.8-0.4,1.7-0.7,2.5c-0.1,0.2-0.1,0.5-0.2,0.6l-0.2,0.4
				c-3.1,5.9-9.7,4-9.2,2.3c0.7-2.7,7-4.5,5.2-9.7c-1.1-3.1-4.6-5.9-7.3-7.8c-10.9-8-21.9-16.8-28-28.9C13,68,15.3,46.6,6.4,29.4
				l0-0.4c-4-0.7-7.2-4.2-8.4-8.1c-0.5-1.7-0.9-6-0.9-6c0.2-3.2-3.7-6-6.9-6.8s-6.5,0.3-9.2,2s-5.1,4-7.5,6.1
				c-8.6,7.3-19,12.3-29.9,15.5c-6.1,1.8-12.8,3-19.9,4.1c1.1,7.7-4.3,10.6-6.3,10.6c-3.7,0.1-7.2-2-9.5-3.8
				c-1.4-1.1-3.9-3.7-3.9-3.7c-2.7,0.8-5.3,1.9-7.8,3.3c-1.6,0.9-3.1,2-3.9,3.6c-0.6,1.3-0.5,2.8-0.3,4.2c0.4,2.4,1.4,4.7,2.9,6.6
				c4.2,5.6,9,8.2,14.9,12c0.2,0.1,6.4,2.7,7.9,0.1c0.9-1.5,0.5-3.3-0.9-3.5c-2.4-0.3-4.5-1.1-4.3-2.1c0.4-1.7,4.6-3.2,7-2.1
				c8.2,3.8,1.3,13.5-2,13.4c-3.6-0.1-7.9-0.1-9.5-1c-6.5-3.6-12.7-7-17.7-12.4c-2.5-2.7-3.9-6.1-4.7-9.7c-0.9-4-1.2-8.1-0.1-12.1
				c1.1-3.9,3.7-7.5,7.4-9.2l0.3-0.3c-9.5-8.8-18.3-18.4-26.4-28.4c-4.2-5.1-8.3-10.8-8.7-17.4c-0.4-6.2,2.8-12.1,7.2-16.4
				s10.1-7,15.9-9.2c11.1-4.2,22.8-6.7,34.6-7.4l1.3-0.2c-5.5-7.3-4.4-16.7,0.9-20.7c2.8-2,6.4-2.6,9.9-2.7
				c12.9-0.5,25.9,3.5,36.2,11.2c4,3,7.6,6.5,11.9,9.1c4.3,2.6,9.4,4.3,14.3,3.1c1.2-0.6,1.7-0.9,2.5-1.8c5-9.9,4.4-21.7,3.1-32.7
				c-1.4-11-3.4-22.3-1-33.2c1.7-7.5,6.5-15.3,14.2-16.5c6.8-1,13,3.5,18.4,7.7c3.4,2.7,6.9,5.4,10.3,8.1c3.2,2.5,6.4,5,8.6,8.3
				s2.8,7,1.6,10.8c-1.1,3.5-3.9,6-7.5,6.5s-7.1-2-8.7-5.3c-1.3-2.9-0.8-5.1,1.3-7.5c1-1.2,4.4-2.7,7.5-2.4
				c-3.5-2.5-11.6-7.2-15.9-7.9c-4.3-0.7-9.3,1.2-10.7,5.3c-0.9,2.6-0.1,5.6,0.7,8.2c1.5,5,3.3,9.9,5.3,14.7
				c2.3,5.5,5.5,11.5,11.2,13.3c1.7,0.5,3.4,0.6,5.1,0.4c0,0,3.8-6.6,6-10.1c0.4-0.3,18.5-32.1,42.1-33.2c21-1,37.5,6.3,42.8,12.8
				c3.3,4.1,4.1,9.9,2.7,14.9c-1.1,3.9-3.6,7.5-7.3,9c-3.7,1.5-8.6-0.1-10.8-3.5c-1.9-2.9-1.3-6.5,1.3-8.8s8.7-3.2,11.1,0.6l0.3,0.1
				c0.4-2.3,0-4.5-0.9-5.9c-1.9-2.6-5.8-3.1-9-3.5c-10.1-1.4-22.4,0.1-31.8,5.9c5.7-0.4,12.6,2.3,17.7,7.1
				c5.1,4.7,8.9,10.8,13.2,16.3c4.3,5.5,9.5,10.7,16.2,12.8l0.6,0.1c-2.4-2-1.2-7.3,1.6-8.7s6.4-0.2,8.6,2.1
				C142.8-62.6,143.9-58.7,142.3-55.7z M-82,37.4l0.2-0.8c-3.5,0.5-7,1.1-7,1.1C-85.3,40.9-82.9,40.4-82,37.4z M-55.1-52.8
				c-2.7-0.2-6.7,0.5-7.9,3.8l16,2.3C-48-47.3-55.1-52.8-55.1-52.8z M-60.3-31.1c-14.7,0.7-28.9,1.6-43.2,5.3
				c-4.2,1.1-8.4,2.4-11.9,4.8c-3.6,2.4-6.5,6.1-7,10.4c-0.7,5.6,2.6,10.9,5.9,15.5c6,8.5,10.9,13.8,17.6,21.9
				c9.1-2.3,15.8-3.2,25-5.3c9.2-2.1,18.4-4.9,26.3-10c7.9-5.1,14.6-12.7,17.1-21.8l0.3-0.7C-39.9-17.5-60.3-31.1-60.3-31.1z
				 M39.9-101.4c-0.9-1.1-2.7-1.3-3.7-0.3s-0.9,2.8,0.2,3.7c1.6,1.3,3.5,1.1,4.1-0.2l0.4-0.4C40.6-99.6,40.5-100.6,39.9-101.4z
				 M118-90.1c-1.4,0.5-2.2,2.2-1.8,3.7c0.3,1.2,0.8,1.8,2,2.1c2.3-0.5,3.9-1.9,4.9-3.7C122.6-89.9,119.5-90.6,118-90.1z
				 M134.1-64.1c-0.4,1.1-0.9,4,1.4,5.3l0.3-0.1c0.9-0.7,1.5-1.6,1.5-2.7C137.4-63.2,135.6-64.8,134.1-64.1z"/>
		</defs>
		<clipPath id="SVGID_5_">
			<use xlink:href="#SVGID_2_"  style="overflow:visible;"/>
		</clipPath>
		<rect id="Base_12_" x="-147.5" y="-139.8" class="st0" width="295" height="279.5"/>
		<g id="Oranges_1_" class="st1">
			<g id="Darks_1_">
				<g>
					<path class="st2" d="M1.9,13.7C1.9,13.7,1.9,13.7,1.9,13.7c1,1,2.4,1.5,3,2.7c0.9,1.8,1.5,5.3,1.2,6.6
						c-0.4,1.4,1.3,1.3,2.6,0.4c1.1-0.8,1.8-2.2,2.6-2.4c1-0.2,2.1,0.3,3.1,0.3c2,0,3.8-1.7,4.2-3.6s-0.3-4-1.5-5.6
						c-1.6-2.1-3.9-3.4-6-4.9C9,5.5,7,3.6,6.5,1.1C6.6,1.9,2.6,3.4,2,3.6C0.8,3.9-2.6,3.3-3.4,3.8C-5.4,5.4,0.7,12.4,1.9,13.7z"/>
				</g>
				<g>
					<path class="st2" d="M30.2,21C30.2,21,30.2,21,30.2,21c-0.3,0.2-0.6,0.6-0.6,1c0,0.8,0.9,1.1,1.6,1.4c1.4,0.6,2.4,1.9,2.8,3.3
						c0.1,0.3,0.3,0.8,0.6,0.7c0.2,0,0.3-0.3,0.4-0.4c0.5-1.1,0.9-2.1,1.3-3.2c0.3-0.8,0.6-1.6,0.6-2.4c0-0.8-0.3-1.7-1-2.1
						C34.8,18.5,31.1,20.2,30.2,21z"/>
				</g>
				<g>
					<path class="st2" d="M14.2,28.4C14.2,28.4,14.2,28.4,14.2,28.4c4.4,9.1,7.8,18.7,10,28.6c0.7-2.8,0.3-5.8-0.2-8.7
						c-0.6-4-1.3-8-1.9-12c-0.3-1.9-0.8-4.7-1.6-6.4C16.9,28.2,16.7,25.9,14.2,28.4z"/>
				</g>
				<g>
					<path class="st2" d="M-1.8-91.5C-0.3-78.3,4.5-76.3,5-68C4-61,0.6-53.5-7-50c2.4-11,0-22.3-2.1-33.3s-3.9-22.6-0.6-33.3
						c0,0,0,0,0,0c0.6-1.8,8.9-18.9,17.2-13.4C0-129-3.3-104.8-1.8-91.5z"/>
				</g>
				<g>
					<path class="st2" d="M-52.1-59.1C-52.1-59.1-52.1-59.1-52.1-59.1c-2.3-0.8-4.7-1.6-7.2-1.7c-2.5-0.1-5.1,0.5-6.8,2.2
						c-1.9,1.9-2.6,5-1.8,7.6s2.8,4.8,5.2,6C-68-48.2-73.5-51.6-76.8-57c-3.2-5.3-3.3-13.1,1.5-17.1c2.7-2.2,6.2-2.8,9.7-3.2
						c7.4-0.8,15.3-0.6,21.7,3.1c5.8,3.3,9.7,9.1,14.3,14c2,2.1,13.6,7.4,14.6,9.9c1.7,4.1-9.5,0.6-11.5-0.1
						C-35-53.2-43.5-56.2-52.1-59.1z"/>
				</g>
				<g>
					<path class="st2" d="M133-83.4c-2.7,3.4-7,6.1-11.2,5.1c3.1-3.4,5.4-7.8,5.9-12.4c0.5-4.6-1-9.6-4.4-12.8
						c-3-2.9-7.1-4.2-11-5.5c-8.5-2.7-17.5-5.4-26.1-3.2C69.5-108.1,59.1-94,54.6-83.8c-3.8,8.5-3.9,17-2.3,18.3
						c2.8,2.3,15.6-10.6,19.7-13.6c6.9-5,15-9.8,23.4-8.3c6.4,1.1,11.6,5.7,16.1,10.3c5.2,5.3,10,11,14.4,17.1
						c-11.1-2.2-18.3-13.3-28.7-17.8c-6.9-3-15.2-2.7-21.9,0.7c-5,2.5-9.1,6.8-11.6,11.9c-1,2-2.4,4.4-3.6,6.3
						c-4.3-1.2-13.3-4.8-25.3-0.5C22.3-55,15.1-40.9,11.3-31.3C9-25.5,8-19.4,6.3-13.5C4.1-6-1.4-17.4-2-20.8
						c-0.7-3.6,0.9-5.5,1.1-9.2c0.1-1.8,0.2-3.6,1.2-5.1c1.4-2.1,4-3,6.1-4.5C9.5-42,11.1-46,11.9-50c4.2-19.6-16.4-66,3.4-69.1
						C8.3-111,13.4-99.5,14-92.8c0.7,8.2-0.6,18.9,1.2,26.9c0.3,1.5,0.9,3.1,2.3,3.9c1.6,0.9,3.7,0.3,4.9-1c1.3-1.3,1.9-3.1,2.3-4.8
						c0.6-2.6,1.6-6.1,4.3-6.2c0.9-0.1,1.7,0.3,2.6,0.6c1.6,0.5,3.4,0.6,5.1,0.5c-0.6-1.5-0.3-3.9,1.1-6.4c2.2-4.2,4.5-8.3,7-12.3
						c4.9-7.9,10.6-15.4,18.2-20.9c0,0,0,0,0,0c14.1-10.1,32.8-11.8,49.9-8.6c6.3,1.2,12.8,3.2,17.6,7.4c4.2,3.7,6.8,9,7.3,14.5
						S136.4-87.8,133-83.4z"/>
				</g>
				<g>
					<g>
						<path class="st3" d="M-119.6,0.8c-5.4-4.5-6.8-12-4-18.3c2.5-5.5,7.3-8.8,13-10.4c6.5-1.9,14.1-3,20.9-3.8
							c8.6-1,17.6-1.8,26.2-1.6c0.8,0,1,1.3,0.2,1.5c-16.5,3.2-70.1,1.3-55.9,32.4C-119,0.7-119.3,1-119.6,0.8L-119.6,0.8z"/>
					</g>
				</g>
				<g>
					<g>
						<path class="st3" d="M2.2,26.2c3,0.8,5.8,1.2,9,0.5c2.4-0.5,4.8-1.3,7.2-1.6C19,25,19,25.7,18.7,26
							c-4.4,3.2-12.6,5.3-16.5,0.3C2.1,26.3,2.2,26.2,2.2,26.2L2.2,26.2z"/>
					</g>
				</g>
				<g>
					<g>
						<path class="st3" d="M19,27.8c7.6,3.3,16.2,0,17.5-8.7c0.1-0.4,0.7-0.3,0.7,0.1c0,9.4-11.1,15.8-18.5,8.8
							C18.7,28,18.9,27.8,19,27.8L19,27.8z"/>
					</g>
				</g>
				<g>
					<g>
						<path class="st2" d="M7.5,29.3c7.9,14.7,8.2,32.6,13.8,48.2c3.1,8.7,7.6,16.6,14.1,23.3c6.4,6.6,13.8,12.4,20.7,18.6
							c0.2,0.2-0.1,0.6-0.3,0.4C41.9,109.3,27.1,99.6,20.2,83c-3.4-8.2-5-17.1-6.5-25.8C12,47.8,9.8,38.6,7.2,29.4
							C7.1,29.2,7.4,29.1,7.5,29.3L7.5,29.3z"/>
					</g>
				</g>
				<g>
					<g>
						<path class="st2" d="M-28.4-9.2c-1.5,6.4-4.8,11.9-8.9,17c-3.9,4.8-9.4,7.7-14.9,10.3c-7,3.3-15.1,4.5-22.6,6.2
							c-7.8,1.7-16.1,4-24.1,4.1c-0.9,0-1.1-1.3-0.2-1.5c6.8-1.9,14.1-2.6,21-4.1c6.9-1.5,13.9-3.2,20.6-5.5
							c12.9-4.5,22.3-14,27.1-26.9C-30-11.1-28.1-10.6-28.4-9.2L-28.4-9.2z"/>
					</g>
				</g>
				<g>
					<g>
						<path class="st2" d="M60,10.2c1,4.7,0.9,9.6,1.2,14.4c0.4,5.9,1.1,11.7,2.3,17.5c1.8,9,4.1,18.3,4.6,27.5
							c0.2,3.9-1.1,11.8-6.4,11.7c-3.4-0.1-9.2-5-7.3-8.7c0.3-0.6,1.1-0.3,1.2,0.3c0.3,3,4.5,7.7,7.8,5.5c2.2-1.5,2.6-6.5,2.4-8.9
							c-0.4-6.6-3.4-13-4.7-19.5c-2.5-12.1-6.2-28-1.6-40C59.6,10,59.9,10,60,10.2L60,10.2z"/>
					</g>
				</g>
				<g>
					<g>
						<path class="st2" d="M-81-38.9c-9.5,1.9-18.5,4.6-27.5,8.2c-7.6,3-14.4,6.9-16.5,15.4c-3.1,12.1,7.7,21.4,14.6,29.8
							c3.7,4.5,7.6,9,11.4,13.5c2,2.4,3.9,4.8,6,7.1c0.6,0.7,1.3,1.5,2,2.1c1.1,1.2,2.4,1.9,4,2.2c3.1,1.6,5-0.1,5.8-5.2
							c-0.4-0.8,0.9-1.6,1.3-0.7c1.5,3.3,0,6.8-3.6,7.8c-5.6,1.6-9.9-3.7-13.3-7.2c-6.2-6.7-12.5-13.4-18.7-20
							c-4.8-5.1-10-10.5-12.6-17.1c-4.1-10.5,0.9-22.5,10.6-27.9c10.9-6.1,24.2-7.3,36.4-8.4C-80.8-39.4-80.8-39-81-38.9L-81-38.9z"
							/>
					</g>
				</g>
				<g>
					<g>
						<path class="st2" d="M-131.5,5.5c-4.5-5.5-9.9-11.1-10.9-18.4c-1-7.6,2.6-15.1,8.1-20.3c6-5.8,14.1-8.7,21.9-11.2
							c8.8-2.9,18.5-5.1,27.7-5.9c0.8-0.1,0.9,1.2,0.2,1.3c-14.6,2.9-29.7,6.1-42.2,14.7c-6.4,4.4-11.9,11-12,19.1
							c-0.1,7.4,3.9,14.3,8,20.2C-130.5,5.4-131.2,5.9-131.5,5.5L-131.5,5.5z"/>
					</g>
				</g>
				<g>
					<g>
						<path class="st2" d="M-105.5,31.8c-7.7,8.3-6.8,22,0.2,30.5c3,3.6,7,6.6,11.2,8.6c3.3,1.6,7.5,2.8,11.1,1.6
							c4.7-1.5,6.7-6.5,3.9-10.7c-0.4-0.6,0.5-1.3,1-0.8c4.1,4,1.7,10.3-3,12.6c-6.8,3.4-15.6-0.9-21-5.1
							c-11.5-8.7-16.7-27.3-4-37.3C-105.6,31-105.2,31.4-105.5,31.8L-105.5,31.8z"/>
					</g>
				</g>
				<g>
					<g>
						<path class="st2" d="M-47-33.1c2.2-1,3.9-1.7,3.8-4.6c-0.1-2.8-2.3-5.5-3.5-7.9c0-0.1,0-0.1,0.1-0.1c1.7,0.8,3.3,2.3,4.4,3.8
							c1.3,1.8,3.1,3.8,3,6.2c-0.3,4.3-4.7,4.9-7.7,2.8C-47.1-32.9-47.1-33-47-33.1L-47-33.1z"/>
					</g>
				</g>
				<g>
					<g>
						<path class="st2" d="M-63-48.7c3.9-0.7,8.8,0.6,12.6,1.5c3.1,0.7,5.7,2.3,6.2,5.7c0,0.2-0.2,0.3-0.3,0.1
							c-3.9-5.8-13.2-3.6-18.6-7C-63.1-48.5-63.1-48.7-63-48.7L-63-48.7z"/>
					</g>
				</g>
				<g>
					<g>
						<path class="st2" d="M35.3-118.6c7.6,5.3,17.3,14.1,9.9,23.8c-5,6.6-16,2.6-14.9-5.9c0.1-0.4,0.8-0.7,0.9-0.1
							c1.8,11.1,16.4,8.5,14.6-2.4c-1-6.2-6.2-11.1-10.8-15C34.8-118.4,35.1-118.8,35.3-118.6L35.3-118.6z"/>
					</g>
				</g>
				<g>
					<g>
						<path class="st2" d="M26.9,58c0.8,9.8,3.8,19.8,8.4,28.4c4.5,8.6,10.6,15.4,17.1,22.5c0.3,0.4-0.1,1-0.6,0.7
							C34.6,99.1,26.2,77.4,26.6,58C26.6,57.8,26.8,57.8,26.9,58L26.9,58z"/>
					</g>
				</g>
				<g>
					<g>
						<path class="st2" d="M-31.9,12.5c4-5.3,7.5-11,11.6-16.3c0.7-0.9,2-0.2,1.5,0.9c-2.8,6.2-7.5,11.3-12.6,15.7
							C-31.7,13.1-32.1,12.8-31.9,12.5L-31.9,12.5z"/>
					</g>
				</g>
				<path class="st2" d="M-6-24.5c-0.4,4.3-7.3,7.4-8.7,11.4c-0.4,1.1-1,2.5-1.3,3.3c-0.4-0.3-1.2-0.6-1.3-0.7
					c-2.2-4.2-3.6-6.4-7.7-9.3c-4-2.8-6.6-4.2-11.6-4.6l-1-0.9c9.7-0.7,17.2,1.1,20.8,7c0.7,1.2,1.8,1.4,2.8,0.5
					c5-4.2,0.9-8.8-2.1-10.4c-2.2-1.2-4.2-2.6-6.4-3.8c-9.9-5.4-15.9-16.3-26.9-20c-0.2-0.1-0.1-0.3,0.1-0.3
					c5.6,1.6,10.3,5.3,14.9,8.8c3,2.4,5.9,5,9.1,7c3.4,2.1,6.6,3,10.4,3.9C-10.7-31.4-5.6-30-6-24.5z"/>
				<g>
					<g>
						<path class="st2" d="M-70.1-51.5c12.9,12.8,27.5,24.4,42.5,34.6c6.9,4.6,13.9,9.8,21.3,13.5C-3.6-2,3.9,1.3,3.9-5.8
							c0-2.3-3.1-5-4.9-5.9c-3.1-1.6-8.9-1.7-9.3,2.9c-0.1,0.7-1,0.8-1.2,0.2c-2.5-6.9,9.2-6.5,12.7-4.4C4.5-11.1,8-7.6,7-3.5
							C5.9,0.8,1.4,2-2.4,1c-6.2-1.6-11.8-6.1-17.1-9.5c-6.4-4-12.6-8.2-18.7-12.5c-5.7-4-11.9-7.9-16.8-12.8
							c-5.5-5.5-10.8-10.9-15.6-17.1C-71.1-51.3-70.5-51.9-70.1-51.5L-70.1-51.5z"/>
					</g>
				</g>
				<path class="st2" d="M86.5-25.7c0,1.3-6,16.3-15.4,26.8c0.3,0.4-27.7,18-31.1,15.6c9.4-3.2,22.2-14,21.8-14.7
					c-1.3-2-7.8,4.5-12.6,6.3c-2.6,1-6,1.6-8.7,1.9c-3.4,0.4-13.4-2.1-13.6,4c0,0.2-0.4,0.3-0.4,0.1c-2-8.5,11.4-6.7,16-7.9
					c5.1-1.3,11.4-7.9,16.3-9.6c3.2-1.1,4.1,0.1,6.7-1.1c3.8-1.7,6.6-6.1,8.9-9.9c0.9-1.5,2.3-3.9-1.7-1.5
					c-3.4,2.1-16.3,18.9-15.4-3.9c0,0-0.6,1.1-1,1.8c-0.9,1.7-1.3,4.8-2.6,6.2c-2.5,2.7-6.1,3.7-10,3c-5.2-1-7.3-4.6-7.4-10.5
					c0-0.4,0.9-0.5,0.9,0c0.1,3.4,4.3,9.4,8.8,7.4c3.2-1.4,5.7-4.3,6.3-7.3c1.2-5.3,4.5-9.7,7.6-7.1c2.4,2.1,2.8,6.8,3.2,9
					c1.3,7.4,26.1-14,16.2-33.1c-0.5-0.9-2.4-2.3-3-1.3c-0.3,0.5,2.6,5.1,2.7,9.8c0.1,5.1-2.6,10.2-5.2,12.4
					c-3.2,2.7-6.7,1.5-8.3-2.1c-2.7-6.2-4.8-18.7-7.4-21.9c-1.1-1.3-5.9-3.2-6.1-1.9c-0.2,1,1.7,2.5,1.5,3.9
					c-0.4,2.9-2.6,4.4-5.4,4.8c-3.3,0.5-4.7-0.1-9.8,2.9S28-34.3,27.2-32.6c-1.6,3.2-0.1,2.8,1.9,1.3c2.7-1.9,5-4,7.8-5.8
					c3.4-2.1,8.9-4.7,12.1-0.9c4.3,5-3.4,10.2-3.6,15.1c0,0.4-0.6,0.7-0.8,0.2c-0.8-1.7-0.8-2.7,0-4.6c0.3-0.8,0.8-1.4,1.2-2.2
					c0.7-0.9,3-5.5-0.1-6.4s-8.6,4.6-10.4,6.2c-1.8,1.5-3.2,3.5-5.1,4.9c-2.7,1.9-6.9,2.3-8.9-0.8c-2.5-3.7,0.7-8.5,2.9-11.4
					c3-4,7.2-7.6,11.7-9.8c2.2-1,11.2-3.3,11.9-5.2c0.4-1.1-0.5-3.8-5.4-3S29.9-49.4,24.8-45c-4.5,4.9-8.5,11-11.1,18
					c-2.5,6.8,4.8,17.5,6,16.2c1.2-1.2,0.4-3.5,2.2-4.9c1.3-1,3-1.3,4.4-0.5c1.6,0.8,2,2.5,2.3,4.1c0.3,1.4,0.2,2.8,0.5,4.2
					c1.3,5.4,4.7,6.6,9.7,7c0.7,0,0.9,1.1,0.2,1.2c-4.4,0.8-8.2-0.9-11.3-4C26.4-5.1,25-6,24.2-7.6c0,0.1-0.1,0.1-0.1,0.2
					c-1.4,3-4.9,3.7-7.5,1.8c-1.6-1.2-1.2-1-2.6-4.4s-4.4-3.2-5.5-0.1c-1,1.4-0.4,4.4-2,4.1c0,0-1,2.2-2-4s7.9-25.7,11.7-32.7
					c4-7,10-11.8,17-15.7c10.9-6,23.9-1,36.2,1.1C85.6-54.7,86.7-45.5,86.5-25.7z M64.1-53.6c-2-0.8-0.2,7.7,1,10.9
					c0.8,2.2,2.6,13.1,7.6,9.1c2.7-2.2,2.7-8.2,2.1-11.3c-0.5-2.8-2.2-7.6-3.8-7.8C69.3-52.7,66.4-52.7,64.1-53.6z"/>
			</g>
			<g id="Highlights_1_">
				<g>
					<g>
						<path class="st3" d="M-47.8-52c7.2,0.6,13.6,4,20.6,5.4c7,1.3,16.1,0.4,22.3-3.4c7.8-4.8,11-15.1,11.3-23.7
							c0.4-9.6-0.8-19.4-0.2-29c0-0.2,0.3-0.3,0.3,0C9-92.5,9.1-80.7,9.1-70.2c0,8.8-1.7,18.5-9.9,23.4c-7.1,4.2-15,3.5-22.8,2.5
							c-8.3-1-16.8-3.7-24.3-7.2C-48.1-51.6-48-52-47.8-52L-47.8-52z"/>
					</g>
				</g>
				<g>
					<g>
						<path class="st3" d="M-107.7,53.8c-2.9-6.6,2-16.5,10.1-15.4c0.4,0.1,0.5,0.7,0.1,0.9c-2.5,1.1-5.2,1.3-7.4,3.1
							c-3.4,2.8-3.6,7.3-2.7,11.3C-107.6,53.9-107.7,53.9-107.7,53.8L-107.7,53.8z"/>
					</g>
				</g>
				<g>
					<g>
						<path class="st3" d="M25.7-75c-5.4-5.6-8.9-12-11.9-19.1c-2.5-5.8-6-13-3.1-19.4c5.8-12.3,22.4-2.4,27.9,4.6
							c0.1,0.2,0,0.5-0.2,0.3c-3.9-2.8-7.9-6-12.6-6.9c-2.3-0.5-6-0.6-8.3,0.2c-3.9,1.3-4.9,5.5-4.5,9.1c0.5,5,2.9,10.1,4.7,14.7
							c2.2,5.5,4.8,11.2,8.5,15.9C26.4-75.1,26-74.6,25.7-75L25.7-75z"/>
					</g>
				</g>
				<g>
					<g>
						<path class="st3" d="M90.3-79.4c10.2-0.1,13.6,9.5,19.6,15.7c4,4.1,9,7.1,14.4,8.8c2.6,0.8,5.4,1.6,8.1,1.6
							c5.2-0.1,10.8-3.8,8-9.5c-0.1-0.3,0.2-0.6,0.5-0.4c3,2.7,1.8,7.1-1.1,9.4c-4,3.2-10.5,2.1-15.1,0.8c-6.3-1.7-12.1-5.3-16.7-10
							c-5.5-5.7-10.3-12.8-17.8-16.1C89.8-78.9,90-79.4,90.3-79.4L90.3-79.4z"/>
					</g>
				</g>
				<g>
					<g>
						<path class="st3" d="M24.1,31.2c0.5,9.3,1.1,18,3.2,27.2c2.1,8.8,5,17.6,8.9,25.8c4,8.4,8.2,16.4,13.9,23.7
							c4.5,5.7,10.8,10.8,12.3,18.2c0.1,0.4-0.5,0.5-0.6,0.2c-2.3-9.2-11-15.5-16.6-22.8c-5.4-7-10.1-14.1-13.7-22.2
							c-3.3-7.6-5.8-15.5-7.1-23.7c-1.4-8.4-2.3-17.8-1.2-26.3C23.4,30.7,24.1,30.7,24.1,31.2L24.1,31.2z"/>
					</g>
				</g>
				<g>
					<g>
						<path class="st3" d="M57.1,65.4c-7.7,5.2,6.1,20.3,9.8,9.2c1.8-5.5-0.1-12.1-1.3-17.6c-2.1-9.6-4.9-19.1-4.9-28.9
							c0-0.7,1-0.7,1,0c0.4,10,3.1,19.7,5.3,29.5c1.5,6.7,4.2,14.9-0.3,21.1c-7,9.7-20.8-8.4-10.1-14.2C57.2,64.2,57.7,65,57.1,65.4
							L57.1,65.4z"/>
					</g>
				</g>
				<g>
					<g>
						<path class="st3" d="M-54.2-52.6c7.2,2.6,16.5,7.3,18.4,15.6c1.3,5.5-4.6,11.2-9,6c-0.2-0.2,0.1-0.5,0.3-0.3
							c1.4,1.3,3.9,0.7,4.9-0.8c1.1-1.6,0.9-3.9,0.4-5.6c-0.7-2.3-2.5-4.3-4.2-6c-3.3-3.3-7.1-6-10.9-8.6
							C-54.5-52.4-54.4-52.7-54.2-52.6L-54.2-52.6z"/>
					</g>
				</g>
				<path class="st3" d="M-90.2,36.1c1.3,0,6.8-0.6,8.3-0.9c0.3-0.1-0.1,1.3-0.4,1.4c-1.1,0.5-6.2,0.9-6.1,0.8L-90.2,36.1z"/>
				<path class="st3" d="M-3.4,12.6c-8.2-11.6-19.8,0.1-26.5,6.1C-40.3,28-68.8,35.2-76.3,35.9l-0.4-1.3
					c12.8-1.3,25.7-6.2,35.6-14.5c4.1-3.5,8.2-7.8,10.9-12.4c2.4-4.1,5.3-11,6.2-14.6c1.5,1.1,4,2.8,4,2.8c-1.7,4.8-4.9,9.1-7.4,13
					c-3.4,5.1-8.3,8.9-7.5,9.9c0.9,1.2,9-6.6,14-11.3c2.9-2.7,7.1-5.3,11.3-4.1c3.5,1,7.2,6.5,7.3,10.1C-2.4,13.7-3.2,12.9-3.4,12.6
					z"/>
				<path class="st3" d="M-29.4-19c-2.4-1.6-5.1-3.8-7.5-5.4c-0.2-0.1-0.1-0.4,0.1-0.3c3.6,0.8,6,1.1,9.4,2.6c3,1.4,5.9,3,8.1,5.6
					c2.1,2.5,2.1,3.4,1.6,5.8C-17.6-10.8-27.4-17.7-29.4-19z"/>
				<g>
					<g>
						<path class="st3" d="M33.4,18.6C63.7,12,88.9-17.1,83.4-49c0-0.2,0.3-0.3,0.3-0.1c2.5,16.2-0.8,32.9-10.9,46.2
							C63.3,9.6,48.8,16.8,33.6,18.9C33.3,19,33.2,18.6,33.4,18.6L33.4,18.6z"/>
					</g>
				</g>
				<g>
					<g>
						<path class="st3" d="M69.9-78c-2.6,2.3-5.4,4.5-7.5,7.3c-0.8,1.1-2.4,0.7-2.5-0.7C59.3-77.2,64-83,67.8-87.1
							c4.6-5.1,10-9.6,16.4-12.4c6.5-2.9,13.9-4,21-3.8c5.9,0.2,13.2,0.4,17.6,4.9c0.2,0.2-0.1,0.6-0.3,0.4
							c-11.3-6.5-26.3-3.6-37.3,1.8c-9.7,4.7-21.2,13.5-22.5,25c-0.7-0.4-1.4-0.8-2-1.2c3.3-1.4,6.1-3.7,9.1-5.8
							C69.9-78.5,70.1-78.2,69.9-78L69.9-78z"/>
					</g>
				</g>
				<g>
					<path class="st3" d="M28.1-15.1c1,1.4,1.1,2.9,1.3,4.5c0.8,5.6,2.6,9.7,9,9.4c0.3,0,0.3,0.4,0.1,0.5c-4.2,1-8.6-1.7-9.8-5.9
						c-0.7-2.6-1-8.6-4.1-8.3c-0.7,0.1-2.3,1.2-3.7,3.2c-0.8,1.1-1.7,1.5-2.9,1.3c-3.9-0.8-4.9-8.2-5-11.4c-0.1-6.9,5-16.3,11.6-23
						c-7.1,8.8-10.5,17-10.2,23c0.1,1.8,0.4,3.6,0.9,5.2c0.3,0.8,1.3,2.7,3,2.7s3.4-2.4,4.6-3C24.7-17.9,26.9-16.8,28.1-15.1z"/>
					<path class="st3" d="M70.8-27.1c-5.5,0.4-7.3-4.7-8.5-9.1c-2-7.1-1.3-17.7-10.3-19.3c-0.2,0-0.2-0.5,0.1-0.4
						c8.3,0.9,8.9,8.1,10.5,15c0.5,2.3,1.1,4.6,1.9,6.8c2.5,6.4,9.2,6.8,12.5,0.8c2.7-5.1,1.3-12.6-0.9-17.7c0-0.1,0.1-0.1,0.1-0.1
						C79.7-44.3,82.5-27.9,70.8-27.1z"/>
					<path class="st3" d="M53.6-51.3c-0.2,2.2-1.1,3.3-3.1,4.3c-3.8,1.8-8,2.3-11.8,4.3c-2,1.1-4.1,2.5-5.8,4.1
						c-1.3,1.2-4.5,3.8-4.6,5.5c-0.2,2.9,3.4-0.8,4.4-1.6c1.6-1.3,3.4-2.4,5.2-3.4c0.3-0.1,0.5,0.2,0.2,0.4c-3,2-5.2,4.6-7.9,7.1
						c-0.8,0.7-1.5,1.8-2.7,1.9c-3.5,0.1-2.2-3.9-1.3-5.3c2.4-4,5.8-7.4,9.9-9.6c1.8-1,4.5-1.9,6.4-2.3c3.3-0.7,9.8-0.2,10.4-5.3
						C53.1-51.6,53.6-51.7,53.6-51.3z"/>
					<path class="st3" d="M60.1-7.3c-3.7-0.9-2.9-4.9-3.8-5.2s-4.9,5.8-12.1,4.8c-5.9-0.8-8.2-6.1-8.1-11.6c0-0.2,0.3-0.2,0.3,0
						c0.2,5.6,2.9,10.6,8.9,10.7c6.1,0.1,9.8-4.7,11.1-10.2c0.2-0.9,1.5-0.7,1.5,0.2c0.1,3.4-0.7,11.8,5.5,10c2-0.6,4.3-3.1,6.6-4.9
						c1.8-1.4,3.8-3.3,5.5-3.8c0.3-0.1,0.5,0.3,0.3,0.4c-1.1,0.7-3.3,2.1-5,3.6C66.8-9.9,63-6.5,60.1-7.3z"/>
					<path class="st3" d="M45.2,9.2c6.7-0.9,8.4-5,13.3-7c1.9-0.8,5.2-1.7,5.4,1.1c0,0.2-1,2.3-1.2,2.4c-1.2,1-1.3,1.3-2.5,2.3
						c-0.2,0.2-1.2-1-1-1.3c1-1.2,2.1-3,0-3.1c-1-0.1-9.3,6.5-14.3,6.9c-7.8,0.6-17-1.1-18,3.8c0,0.1-0.2,0.1-0.2,0
						C27.3,7.2,39,10,45.2,9.2z"/>
				</g>
			</g>
		</g>
		<path id="Eye_1_" class="st4" d="M4.1,21c0,3-1.3,5.8-3.8,5.8s-4.5-2.5-4.5-5.5s2-5.5,4.5-5.5S4.1,18,4.1,21z"/>
		<g id="Suckers_1_" class="st1">
			<g>
				<g>
					<path class="st5" d="M-80.2-68.9c-6.8,9,2.9,18.8,9.5,24.2c8.1,6.6,16.6,12.9,25,19c7.9,5.8,16.1,11.3,24.5,16.4
						C-16-6.1,1.2,7,5.7-2.8C6-3.3,6.9-3.1,6.8-2.5c-1,8.7-12.9,5.3-17.8,2.6C-23.2-6.6-35.1-14.3-46.8-22
						C-57.7-29.1-69.9-36.4-79-45.8c-6.6-6.8-9.7-16.7-2.4-24C-80.8-70.4-79.7-69.6-80.2-68.9L-80.2-68.9z"/>
				</g>
			</g>
			<g>
				<g>
					<path class="st5" d="M-77.1,36.3c1.6,4-0.1,7.9-4.3,9.2c-4.9,1.6-9.8-1.3-13.3-4.3c-12.6-10.8-24.2-22.8-34.8-35.6
						c-7.9-9.6-17.2-22.3-8.2-34.3c7.6-10.2,22.8-16.8,35.2-17.9c0.5,0,0.6,0.8,0.1,0.9c-10.6,2.7-21.3,6.6-29.4,14.5
						c-10.4,10.2-4.8,22.4,3.2,32c6.8,8.2,14.2,16.1,21.7,23.7c3.9,3.9,7.7,7.9,11.4,12c1.7,2,3.7,4,6,5.4c1.1,0.7,2.5,1.5,3.8,1.7
						c3.8,0.8,9.3-2.6,7.8-7.1C-78.2,35.9-77.3,35.7-77.1,36.3L-77.1,36.3z"/>
				</g>
			</g>
			<g>
				<g>
					<path class="st5" d="M-3.7-72c-3.6-12.9-5.6-27-3.8-40.5c1.3-9.8,5.8-18.8,16.4-20.6c11.1-1.8,19.3,6.5,26.5,13.6
						c4.1,4.1,9.2,7.2,11.7,12.7c2,4.5,1.7,10.6-2.7,13.6c-0.4,0.3-0.7-0.3-0.5-0.6c9.5-11.6-6.2-20.1-13.6-27
						c-6.5-6-17.6-13.4-26.6-7.6c-7.1,4.5-8,17.4-8.4,24.8C-5.1-93.1-4.1-82.4-3.3-72C-3.3-71.8-3.6-71.8-3.7-72L-3.7-72z"/>
				</g>
			</g>
			<g>
				<g>
					<path class="st5" d="M45.8-90.4c8.6-10.3,17.1-20.9,30.5-25.2c12.2-3.9,28-1.9,39.3,3.9c8.9,4.6,18.4,12,15.2,23.4
						c-2.2,7.7-13.4,13.8-19.6,6.4c-0.5-0.6,0.1-1.5,0.8-1.1c5,3.3,11.4,3.4,14.9-2.2c2.9-4.7,2.1-10.7-0.5-15.3
						c-5.5-9.5-16.5-11.2-26.5-12.7c-11.5-1.7-21.3-0.4-31.5,5.3c-8.1,4.6-15.6,11.4-22,18.1C46-89.4,45.5-90,45.8-90.4L45.8-90.4z"
						/>
				</g>
			</g>
			<g>
				<g>
					<path class="st5" d="M78.1-91.6c7.2-6.2,18.3,0.4,23.8,5.8c4.3,4.2,7.6,9.4,11.5,14c3.8,4.5,8.3,7.1,12.8,10.7
						c0.4,0.3-0.1,0.8-0.4,0.8c-8.2-1.3-14.6-11-19.6-16.8c-3.5-4-7.1-8.1-11.8-10.8c-5.3-3.1-10.2-3-16.1-3.1
						C78.1-91.1,78-91.4,78.1-91.6L78.1-91.6z"/>
				</g>
			</g>
			<g>
				<g>
					<path class="st5" d="M6.8,29.4c6.7,16.5,8.6,34.2,16,50.5c6.6,14.4,15.8,25.6,27.6,35.9c0.4,0.4-0.1,1-0.6,0.8
						c-12.9-7.5-24-20.4-30.3-33.8C11.9,66.2,11.6,46.9,6.8,29.4C6.7,29.4,6.7,29.4,6.8,29.4L6.8,29.4z"/>
				</g>
			</g>
			<g>
				<g>
					<path class="st5" d="M-97.8,26.7c12.8-4.1,26.4-5.8,39-10.5c5.9-2.2,12.1-4.9,16.9-9c5.7-4.8,8-10.6,9-17.8
						c0.1-0.7,1.1-0.5,1.1,0.1c0.6,12.9-8.4,23.4-19.9,27.9c-14.4,5.6-30.8,8-46,9.9C-98.1,27.4-98.2,26.8-97.8,26.7L-97.8,26.7z"/>
				</g>
			</g>
			<g>
				<g>
					<path class="st5" d="M-106.8,31c-6.4,7.2-7.7,17.7-3,26.3c4.3,7.9,11.9,12.5,18.9,17.5c0.3,0.2,0.1,0.8-0.3,0.7
						c-8.6-2.3-19.3-11.3-22.5-19.7c-3.2-8.5-2.9-21.1,6.3-25.7C-106.9,29.9-106.4,30.5-106.8,31L-106.8,31z"/>
				</g>
			</g>
		</g>
	</g>
	<g id="Outlines_7_">
		<g>
			<g>
				<path class="st6" d="M-64.5-46.9c1.8-11.5,17.3-6.2,24.3-4.2c7.6,2.1,14.6,4,22.5,2.7c6.7-1.1,12.5-3.8,16.7-9.3
					c8.5-11.1,6.4-26,6.7-39.1c0.1-6.9-0.3-21.9,9.6-22.6c0.5,0,0.5,0.8,0,0.8c-8.4,0.7-8.9,14.1-9.1,20C5.9-92.2,7.1-85.6,6.9-79
					c-0.2,8.5-1.6,18.6-7.1,25.4c-5.9,7.3-14.7,8.8-23.5,7.5c-5.7-0.8-11.3-2.2-16.8-3.5c-6.5-1.6-20.8-6.5-23.4,2.9
					C-64.1-46.4-64.5-46.6-64.5-46.9L-64.5-46.9z"/>
			</g>
		</g>
		<g>
			<g>
				<path class="st6" d="M40.6-106.3c-5.6-3.8-14-9.5-21.1-7.3c-10.9,3.5-1.3,22.7,1.9,29.2c2.1,4.3,5,8.9,9.8,10.4
					c4.9,1.5,10.2-1.2,14.3-3.6C51.9-81.4,57-88,65-88.4c0.2,0,0.3,0.3,0.1,0.4c-7.1,1.8-11.7,6.1-17.4,10.5
					c-4.1,3.1-8.2,5.6-13.5,5.4c-9.7-0.5-13.5-10.8-16.4-18.4c-2.7-7.1-10-19.8,0.1-24.3c7.9-3.6,17.1,3.8,23,8.2
					C41.1-106.5,40.9-106.1,40.6-106.3L40.6-106.3z"/>
			</g>
		</g>
		<path class="st6" d="M6.4,0.4c1.3,3.2,3.4,6.1,6.8,8.3c0.3,0.2,0,0.7-0.3,0.5l0,0c-3.5-2-5.9-4.8-7.4-8L6.4,0.4z"/>
		<path class="st6" d="M5-8.6c0.1-4.3,1.1-8.7,2.5-12.6c3.4-9.5,7.4-18.4,14.1-25.9c5.9-6.6,13.7-11.5,22.4-13.3
			c8-1.7,14.3,2.7,22.1,3.5c4.6,0.5,8.8,1.3,12.6,4.1c4.8,3.4,5.8,8.5,5.7,14c-0.2,9.2-2.4,18.8-6.6,26.9
			C69.1,4.9,51.8,15.9,33.5,19c-0.6,0.1-0.4,1,0.1,1C52.7,18,68.9,6.9,78.3-9.7c3.9-6.9,6.8-14.7,7.6-22.6c0.6-6,0.8-13.6-3-18.7
			c-4.1-5.6-11-6.9-17.4-7.7c-7.7-1-14-5.5-22-4.8C26.9-62.1,15-47.8,9-33.3C6.4-27,3.7-18.5,3.5-10.5L5-8.6z"/>
		<g>
			<g>
				<path class="st6" d="M-1.4,9c-1.2,6.8-1.2,17.7,7.7,19.4c4.7,0.9,9.3-2.1,13.8-3c0.1,0,0.1,0.1,0.1,0.1
					c-4.6,3.3-12.3,6-17.5,2.8C-4,24.2-4.1,15.5-1.8,8.9C-1.7,8.6-1.4,8.7-1.4,9L-1.4,9z"/>
			</g>
		</g>
		<g>
			<g>
				<path class="st6" d="M16.2,27.3c4,1.6,8.1,3.9,12.6,3c5.4-1,8.4-5.7,7.8-11.1c-0.1-0.7,1-0.7,1.1,0c0.6,4.8-1.6,9.6-6.2,11.6
					c-5.2,2.3-11-0.3-15.4-3.2C16,27.5,16,27.2,16.2,27.3L16.2,27.3z"/>
			</g>
		</g>
		<g>
			<g>
				<path class="st6" d="M59.9-60.7c2.6-10.2,12.5-18.7,22.8-20.1c9.9-1.4,20.7,3.7,26.1,12c0.1,0.2-0.2,0.4-0.3,0.3
					c-6.3-8-15.8-12.4-26.1-10.5c-10.3,1.9-17,9.4-20,19.1C61.9-58.4,59.5-59.1,59.9-60.7L59.9-60.7z"/>
			</g>
		</g>
		<g>
			<g>
				<path class="st6" d="M69.8-78.6c-2.2,1.6-4.2,3.3-6.3,5.1c-0.9,0.7-2.1-0.2-1.6-1.2c8.4-16.3,27.2-26.9,45.4-26.8
					c4.9,0,14.6-0.1,16.8,5.5c1.8,4.4-0.7,10.9-5.4,12.2c-0.2,0.1-0.3-0.2-0.1-0.3c3.1-1.6,4.8-5,5-8.4c0.2-4.5-3.3-6.3-7.2-7
					c-7.1-1.4-14.7-1-21.7,0.7c-14,3.5-24.1,12.9-31.2,25.2c-0.5-0.5-0.9-0.9-1.4-1.4c2.5-1.2,4.9-2.5,7.3-3.9
					C69.9-79.1,70-78.8,69.8-78.6L69.8-78.6z"/>
			</g>
		</g>
		<g>
			<g>
				<path class="st6" d="M36.1-73c3.3-6,5.9-12.4,10.2-17.9c4.1-5.4,8.4-10.6,13.5-15.1c11.6-9.9,25-12.8,39.8-10.3
					c6.7,1.1,13.3,3.2,19.5,6.2c3.4,1.6,7,3.3,9,6.6c3.2,5.3,3.9,12.3,1,17.9c-2.7,5-7.8,8.6-13.4,6.1c-13.2-5.7,1.3-21.2,8.2-12.2
					c0.1,0.1-0.1,0.2-0.2,0.1c-5-6.1-17.1,1.3-10.9,8.8c4.1,5,11.1,3.4,14.5-1.4c4.2-5.9,3.7-15.7-1.7-20.9c-3.2-3.1-8.2-5-12.3-6.6
					c-6.3-2.4-12.9-4.1-19.7-4.6c-14.8-1-27.4,4.8-37.6,15.4c-3.9,4.1-7.6,8.5-10.9,13.2c-3.3,4.7-5.7,10-8.9,14.8
					C36.2-72.7,36-72.9,36.1-73L36.1-73z"/>
			</g>
		</g>
		<g>
			<g>
				<path class="st6" d="M81.1-94.6c10-2.7,18.5,4.6,24.2,12c4.1,5.2,7.6,10.9,12.3,15.7c2.1,2.1,4.3,4.1,6.9,5.6
					c1.3,0.7,3.8,2.5,5.3,2.4c1.3-0.5,2.7-1,4-1.5c0.2,0.8,0.5,1.5,1,2.1c0.3,0.4-0.4,0.7-0.6,0.4c-1.4-2-1.7-9,2.4-6.1
					c1.6,1.2,1.6,3.4,0.4,4.9c-1.6,2-4.4,1.9-6.6,1.4c-8.2-1.9-14-8.9-18.8-15.4C103.8-83.6,95.4-94.2,81.1-94
					C80.8-94,80.7-94.5,81.1-94.6L81.1-94.6z"/>
			</g>
		</g>
		<g>
			<g>
				<path class="st6" d="M86.4-80.5c12.5,2.9,18.2,16.3,28.5,22.7c5.7,3.5,13.1,6.3,19.9,5.7c7.7-0.6,11.1-9.7,3.4-13.9
					c-2.6-1.4-4.3-1.4-6.7,0.4c-2.5,2-3,4.1-1,7c0.2,0.3-0.2,0.6-0.5,0.4c-4.6-3.9-0.7-10.8,4.9-10.1c6.7,0.7,11.6,9.7,6.1,14.8
					c-6.6,6.1-19.7,1.3-26.2-2.5c-11-6.5-16.5-19.2-28.5-24.3C86.2-80.3,86.3-80.5,86.4-80.5L86.4-80.5z"/>
			</g>
		</g>
		<g>
			<g>
				<path class="st6" d="M125.8-88.8c-0.2,2.4-2,4.8-4.3,5.5c-2.2,0.7-4.9-0.2-5.8-2.5c-0.8-2,0.3-4.7,2.5-5.2
					c1.7-0.4,4.5,0.7,4.8,2.6c0.1,0.4-0.5,0.7-0.7,0.3c-0.6-1.1-2.2-1.7-3.4-1.5c-2.1,0.4-2.6,2.9-1.2,4.4c1.3,1.3,3.2,1.4,4.8,0.6
					c1.8-0.9,2.5-2.5,3.2-4.3C125.7-88.9,125.8-88.9,125.8-88.8L125.8-88.8z"/>
			</g>
		</g>
		<g>
			<g>
				<path class="st6" d="M-9.9-48.8c-12.9,3.3-22.3-9.5-32.3-15.1c-6.7-3.8-14.8-6.7-22.5-7.3c-7.3-0.6-17.8-0.2-20.1,8.3
					c-4.3,16,16.7,25.7,27.4,32.9c12.8,8.6,25.6,17.2,38.6,25.6C-13.4-0.9-2.6,5.9,3.9,1.8c5-3.2,2-9.5-1.4-12.9c-2-2-4.5-3-7.3-3
					c-4,0-9.6,2.5-4.4,7.8C-8.9-6-9.4-5.6-9.7-5.8c-3.9-3.3-3.3-8.3,2.1-9.1c6.7-1.1,11.8,3.1,14.4,9C9.1-0.9,6.6,3.1,1.2,4
					C-7,5.4-15.4-0.5-21.7-4.7c-9.5-6.4-19.1-12.7-28.6-19.1c-8.9-6-18.3-11.7-26.8-18.3c-5.6-4.4-11.4-11-11.1-18.6
					c0.2-7.5,5.8-12,12.9-12.8c10.3-1.1,22,1.4,31.2,6.1c11.3,5.7,20.3,19.9,34.1,18.3C-9.8-49.1-9.8-48.8-9.9-48.8L-9.9-48.8z"/>
			</g>
		</g>
		<g>
			<g>
				<path class="st6" d="M-49-57.8c-5.6-2.3-16.7-5.8-18.6,3.1c-1.1,5,7,10.5,10.2,13.3c7.3,6.4,14.9,12.4,22.8,18.2
					c7.4,5.4,14.9,10.7,22.7,15.4c2.1,1.3,13.8,7.6,12,2C-0.1-6.2,0.5-6.4,0.6-6c1.3,6-6.6,2.3-9.3,1c-11.2-5.7-21.7-13.6-31.6-21.2
					c-5.6-4.3-11.1-8.7-16.5-13.3C-60.4-42.7-67.6-47-69-52c-1.1-3.7,1.5-7.1,4.7-8.6c5.2-2.4,10.7,0.1,15.4,2.4
					C-48.6-58.1-48.8-57.7-49-57.8L-49-57.8z"/>
			</g>
		</g>
		<g>
			<g>
				<path class="st6" d="M-54.7-52.5c6,3.3,12.7,8.5,15.8,14.7c0.9,1.8,1.6,4.3,0.2,6.1c-1.9,2.3-5.1,1-7.4,0.5
					c-0.6-0.1-0.4-1.1,0.3-1c3.4,0.6,7.2-0.3,5.8-4.3c-0.8-2.3-2.5-4.4-4.1-6.3c-3.1-3.6-6.7-6.9-10.8-9.3
					C-55.2-52.3-55-52.7-54.7-52.5L-54.7-52.5z"/>
			</g>
		</g>
		<g>
			<g>
				<path class="st6" d="M-60.8-30.6c-6.5,1.1-13.2,0.9-19.7,1.5c-7.6,0.8-15.2,2.1-22.7,4c-6.9,1.8-14.8,4.9-17.4,12.2
					c-2.7,7.7,3.8,15.8,8,21.8c4,5.6,8.5,10.8,12.9,16.1c3.6,4.3,7.2,9,11.7,12.6c1.7,1.4,3.9,2.9,5.3,0.3c1.4-2.5-0.9-5,2.7-5.6
					c0.5-0.1,0.6,0.6,0.2,0.7c-2.5,0.8-0.7,5.4-3.2,7c-1.6,1-3,0.4-4.5-0.6c-5.1-3.3-9.1-8.9-13-13.5c-5.5-6.4-10.9-12.8-16.1-19.5
					c-3.8-4.9-7.8-10.7-6.9-17.3c1-6.6,6.2-10.7,12-13.1c7.7-3.2,16.2-4.7,24.4-5.8c8.5-1.2,17.6-2.7,26.1-2
					C-60.3-31.8-60.1-30.8-60.8-30.6L-60.8-30.6z"/>
			</g>
		</g>
		<g>
			<g>
				<path class="st6" d="M-63-49.3c3.2,0,6.3,0,9.4,0.4c2.2,0.3,6,0.5,7.4,2.6c0.2,0.3-0.1,0.7-0.5,0.6c-2.8-0.5-5.4-1.5-8.3-1.9
					c-2.7-0.4-5.4-0.8-8.1-1C-63.4-48.7-63.4-49.3-63-49.3L-63-49.3z"/>
			</g>
		</g>
		<g>
			<g>
				<path class="st6" d="M-83.1-48.6c-14.6,1.1-30.2,4.2-43.2,11.2c-6.8,3.6-12.9,9.4-14.4,17.3c-1.7,9,4.6,16.3,9.8,22.8
					c8.8,11.1,18.6,21.4,29.2,30.9C-97,37.8-88.9,47-81.8,45.7c4.8-0.9,7.9-11.6,1.9-12.9c-0.3-0.1-0.2-0.5,0.1-0.4
					c6,0.9,4.7,11,1,13.7c-3.4,2.5-8.2,0.7-11.5-1.1c-6.1-3.5-11.5-8.9-16.6-13.6c-6.1-5.6-11.9-11.5-17.5-17.6
					c-5.1-5.5-10.5-11.2-14.6-17.5c-7.5-11.7-4-23.8,6.9-31.7c13.4-9.8,32.7-13.1,49-13.8C-82.6-49.4-82.6-48.6-83.1-48.6
					L-83.1-48.6z"/>
			</g>
		</g>
		<g>
			<g>
				<path class="st6" d="M-24.3-5.5c-2.8,8.8-8.1,17.1-14.7,23.5c-6.9,6.7-17.9,13-27.8,13.6c-0.2,0-0.2-0.2,0-0.3
					c5.3-1.8,10.6-3,15.6-5.8c4.3-2.4,8.2-5.5,11.9-8.8c6.8-6.1,11.9-13.6,14.9-22.3C-24.4-5.6-24.2-5.6-24.3-5.5L-24.3-5.5z"/>
			</g>
		</g>
		<g>
			<g>
				<path class="st6" d="M-30-10.2c-2.8,12.8-13.3,21.5-24.8,26.5c-13.6,6-29.3,8.5-43.9,10.7c-0.4,0.1-0.5-0.4-0.1-0.5
					c12.5-4.4,26-5.1,38.6-9.6C-47.2,12-35.9,3-30.7-10.4C-30.5-10.8-29.9-10.7-30-10.2L-30-10.2z"/>
			</g>
		</g>
		<path class="st6" d="M-82.1,36.5c-2.5,0.4-4.2,0.6-6.7,0.9l-0.9,0.1c-0.2,0,0.7,0.3,0.9,0.3c2.6-0.2,4.3-0.4,6.9-0.6L-82.1,36.5z"
			/>
		<path class="st6" d="M-76.3,35.6c15.8-2.6,31.6-6.9,44.7-16.3C-25.8,15.1-19.9,7-12.1,6.9C-7,6.8-2.3,10.8-2.4,16
			c0,0.4-0.6,0.5-0.7,0.1c-1.1-5.8-7.8-7.8-12.7-6.3c-4.6,1.5-7.9,5.1-11.5,8.1c-5.3,4.3-11.3,7.7-17.6,10.4
			c-10.1,4.3-20.6,6.6-31.3,8L-76.3,35.6z"/>
		<g>
			<g>
				<path class="st6" d="M6.5,29.3c6.3,9.8,7.3,22.4,9.4,33.6c2.5,13.3,7,25.4,16.4,35.5c4.2,4.6,9.1,8.6,14,12.4
					c3.5,2.8,8,5.4,10.4,9.2c1.4,2.3,1.7,4.7,0.1,7c-0.9,1.2-2.6,1.9-3.3,3.2c-1,1.7-0.5,2.5,1.8,2.7c2.4,0.3,4.4-2,5.6-3.8
					c0.3-0.5,1,0,0.7,0.4c-1.6,2.6-4,4.6-7.2,4.1c-1.4-0.2-2.8-0.7-2.7-2.3c0.1-1.3,2.2-2.6,2.9-3.4c3.8-3.8,1.7-8-1.8-11.1
					c-5.1-4.5-11-8-16.2-12.5c-10.4-9.2-17.3-19.4-20.6-33c-1.7-7.1-2.5-14.3-3.9-21.4c-1.3-7.2-3.4-13.8-5.9-20.6
					C6.1,29.3,6.4,29.2,6.5,29.3L6.5,29.3z"/>
			</g>
		</g>
		<g>
			<g>
				<path class="st6" d="M24.9,30.9c3.1,22.5,7.1,45,18.7,64.9c2.8,4.7,6.1,9.2,9.8,13.2c3.1,3.4,6.7,6.4,8.4,10.8
					c1.8,4.5,0.8,12-4.8,13.2c-0.4,0.1-0.5-0.5-0.1-0.5c3.6-0.7,5.2-5,5.2-8.1c0-3.8-2.2-6.8-4.5-9.5c-3-3.4-6.3-6.6-9.1-10.2
					C43.4,98.3,39,91.4,35.8,84c-7.2-16.5-10.5-35.1-11.5-53C24.2,30.6,24.8,30.5,24.9,30.9L24.9,30.9z"/>
			</g>
		</g>
		<g>
			<g>
				<path class="st6" d="M-13.8-38.5c2,2.6,4.9,3.4,8.1,3.9c1.8,0.3,3.5,0.7,4.8,2.1c1.1,1.2,1.7,2.7,1.6,4.3
					c-0.2,2.8-2.5,4.5-2.2,7.5c0.1,0.6-0.8,0.8-1,0.3c-0.7-1.5-0.5-2.6-0.2-4.2c0.1-0.4,0.5-2.3,0.5-3c0.1-2.7-0.6-3.3-2.5-4.8
					c-2.9-2.2-7.5-2.3-9.3-5.9C-14-38.5-13.9-38.7-13.8-38.5L-13.8-38.5z"/>
			</g>
		</g>
		<g>
			<g>
				<path class="st6" d="M-7.7-50.8C0-70.2-9.2-91.3-7-111.2c1.4-12.8,10.2-27.7,25.1-21c7.8,3.5,14.6,10.2,21.2,15.6
					C44.9-112,50.9-106,48.3-98c-1.6,5-7,8.4-12.1,6.3c-4.6-1.9-7.5-7.5-4.7-11.9c1.8-2.9,5.8-4.3,9.1-3.9c5.1,0.7,6,5.6,5.7,10
					c0,0.7-1.1,0.7-1,0c0.3-5.9-2.7-10.5-9-8.3c-4,1.4-6.1,5.7-3.5,9.7c4,6,12.3,4.3,14.4-2.2c3.4-10.1-7.9-16.9-14.6-22
					c-6.2-4.8-13.8-12.6-22.3-12.2c-8.4,0.4-13.3,8.8-15,16.1c-2,8.9-0.8,18.3,0.5,27.2c2,13.5,3.6,26.2-3.1,38.7
					C-7.4-50.4-7.8-50.6-7.7-50.8L-7.7-50.8z"/>
			</g>
		</g>
		<g>
			<g>
				<path class="st6" d="M50.3,16c0.9,8.8,2.1,17.5,4.8,26c2.3,7.3,5.7,14.3,8,21.6c0.9,2.8,2.6,8.9-1.4,10.5
					c-1.8,0.7-3.7-0.3-4.4-1.9c-0.4-1,0.7-7.3-1.3-7c-2.7,0.4-2.6,7.5-2,8.9c0.8,2,2.6,3.9,4.5,4.9c8.1,4.2,10.9-5.5,10.6-11.5
					c-0.3-4.5-1.9-8.9-3.1-13.2c-3.8-14.4-8.6-31.2-5.6-46.1c0.2-1.1,2-0.7,1.8,0.5c-1.9,8.5-0.6,17.1,0.7,25.6
					c1.2,7.9,2.9,15.6,5.1,23.3c1.8,6.4,6.1,25.5-7,23.4c-7.5-1.2-11.8-11.1-5.8-16.7c1.5-1.4,2.8-1.4,3.6,0.7
					c0.8,2.4-1.4,5.3,0.4,7.2c1.5,1.6,3.2,0.3,3.8-1.6c0.7-2.2-0.2-4.6-0.9-6.7c-5.4-16-12.9-30.6-12.9-47.9
					C49.1,15.2,50.2,15.3,50.3,16L50.3,16z"/>
			</g>
		</g>
		<g>
			<g>
				<path class="st6" d="M45.8-97.5c0.5,1.9-2.6,2.7-3.8,1.8c-1.1-0.8-1.5-2.1-1.8-3.3c-0.3-1.2-1.6-3.9-3.4-2.4
					c-2.4,2.1,1.6,5.6,3.4,3.2c0.2-0.3,0.7,0,0.5,0.3c-2.2,3.5-7.8-0.7-5.1-3.9c1.1-1.3,3.3-1.3,4.5-0.1c0.9,0.9,0.9,2.1,1.2,3.2
					c0.4,1.3,1,3.2,3,2.4C44.9-96.6,45.2-97.2,45.8-97.5C45.8-97.5,45.8-97.5,45.8-97.5L45.8-97.5z"/>
			</g>
		</g>
		<g>
			<g>
				<path class="st6" d="M-4.5-3.9C-5.2-4.2-5.7-5.2-6-5.8c-0.3-0.5-0.5-1-0.4-1.6c0.2-1.2,1.5-2.1,2.8-2c1.3,0.1,2.4,1.2,2.9,2.4
					c0.4,0.9,1.1,2.8,0.3,3.7c-0.1,0.1-0.3,0-0.3-0.1c-0.2-0.8,0-1.6-0.3-2.4c-0.3-0.9-1.1-1.9-2-2.4c-0.9-0.4-2.4,0-2.5,1.1
					C-5.6-6.1-4.6-5-4.4-4C-4.4-3.9-4.5-3.9-4.5-3.9L-4.5-3.9z"/>
			</g>
		</g>
		<g>
			<g>
				<path class="st6" d="M-96.9,39.7c-5.3,1.8-12,4.1-10.1,11.6c0.9,3.5,3.4,6.2,5.9,8.6c3.8,3.7,9.1,8.7,14.6,9.4
					c1.9,0.3,5.7-1.5,3.2-3.7c-0.5-0.5-1.7-0.4-2.4-0.6c-0.7-0.2-2-0.3-2.3-1.1c-0.8-2.2,3.2-3.2,4.5-3.3c8.5-1,8.8,10.9,2.3,14.1
					c-8.5,4.1-21.1-5.8-27-10.8c-9.5-8.2-12-27.3,0.6-33.9c0.4-0.2,0.8,0.4,0.4,0.6c-10.3,5.6-9.5,22.3-2.2,30.1
					c5.2,5.5,13,10.4,20.2,12.8c4.1,1.3,8.8,1.3,11-3.1c1.2-2.3,1-5.5-0.9-7.4c-1.7-1.4-3.5-1.8-5.5-1.2c-1.9,0-2.5,0.9-1.9,2.6
					c1.4,1.4,5.1-0.1,5.1,2.9c0,3.1-3.9,3.5-6.1,3c-5-1-9.7-4.9-13.5-8c-4-3.3-8.1-8-7.9-13.5c0.2-6,6.9-8.1,11.7-9.4
					C-96.8,39.2-96.7,39.6-96.9,39.7L-96.9,39.7z"/>
			</g>
		</g>
		<g>
			<g>
				<path class="st6" d="M-2.4,18.1c0-4.2,4.6-3.8,6.2-0.7c1.1,2.1,2.2,10.8-2.4,9.2c-0.2-0.1-0.2-0.4,0.1-0.4
					c3.1,0.1,2.4-5.5,1.8-7.4c-0.4-1.4-1.2-2.6-2.7-3c-1.9-0.5-2.7,0.8-2.9,2.4C-2.3,18.2-2.4,18.1-2.4,18.1L-2.4,18.1z"/>
			</g>
		</g>
		<g>
			<path class="st6" d="M1.9,20.2C1.9,20.2,1.9,20.2,1.9,20.2c-0.5-1.1-2.2-1.3-3-0.4C-3.7,22.8,3.5,23.8,1.9,20.2z"/>
		</g>
	</g>
</symbol>
<use xlink:href="#Octopus"  width="295" height="279.5" x="-147.5" y="-139.8" transform="matrix(5.0089 0 0 -5.0089 743.4649 700)" style="overflow:visible;"/>
</svg>
