<svg version="1.1" id="Layer_1" xmlns="http://www.w3.org/2000/svg" xmlns:xlink="http://www.w3.org/1999/xlink" x="0" y="0" viewBox="0 0 1478.4 1396.7" xml:space="preserve"><style>.st0{clip-path:url(#SVGID_5_)}.st1{fill:#e2b97c}.st2{fill:#cca065}</style><symbol id="Afghan_Hound" viewBox="-72.7 -64 145.4 128.1"><g id="Colours_2_5_"><defs><path id="SVGID_2_" d="M-59.9 43.7c.3-1.4 2.3 1.1 2.8 1.1-.6-.6-.2-1.5.5-2.2.7-.6 2-.4 2.8-.2 1.2.3 2.2.2 3.5.2 1 0 2-.2 3-.2.5 0 1.1-.2 1.5-.5l.1-.3c-.1-.7.2-1.4.1-2-.1-1-.2-1.6.2-2.5.3-.8.5-1.6.3-2.5-.1-.8-.6-1.5-.5-2.3h.4c0-.9.8-2.4.5-3.3-1.2-3.6 0-5.6-.2-9.2-.1-2.5 1-4.4 2.1-6.5 1.1-2.2 1.4-4.2 1.6-6.6.2.3.4.6.5 1-.1-1.6-.2-2.3-.6-3.9-.5-1.8-.1-3 .2-4.8.3-1.9-.2-3.6 1-5.3 1.1-1.6 1.5-3.6 2.6-5.1.7-.9.9-1.2 1.1-2.4.2-1.1.6-2.2 1.2-3.1 0 .6 0 1.3.1 1.9.2-.9.8-1.8 1.1-2.7.3-1 .2-2.1.5-3.1.3-1.2 1.4-2 1.9-3 .4-.7.2-1.4.4-2.1.3-1.3 1-1.7 1.7-2.7.8-1.1.8-2.2 1.4-3.4.5-1.1.7-2.2 1-3.4.1-.5.9-2.4 1.4-4.2-.3-2.6-.8-4.3-2.7-5.7-1-.8-3.3-1.8-4.2-2.8-.8-.9-1.3-1.8-.2-3s3.9-1.8 5-1.4c-.1-.7.1-1.5.4-1.8 1.2-1.1 3.5-2.3 5.7-2.5 1.6-.1 3.3.8 4.9.8 2.3 0 4.8-1 6.6-.6.7.9 3.8.8 4.7 1.7 1.3.9-.5 3.6-.5 4.8 0 .9-.4 1.7-.4 2.6 0 .9-.2 1.6.1 2.4.7 2.1 1.2 3.4 1.2 5.6 0 1.9-.5 3.3-.6 5.1-.1 1.4-2.2 3.6-1.6 4.8.2-.3.4-.6.5-1 .1 2-.1 3.6-.7 5.4-.3 1.7 1.8 2.9 3 3.8 1.4 1 2 2.6 2.1 4.4.9-.9.8-2.5 1-3.4.8 1 1.9 1.1 2.7.9.9-.3 2.1-.6 3-.3 1.2.3 2.1.5 3.3.7 1.4.2 3.8 1.7 4.4 3 .4-.5 1.2-.7 1.8-1.2.2-1.4-.8-4.3-.8-5.7-.1-1.6-.2-3.4.4-4.9.6-1.9.9-2.2 1.7-4 .7-1.5 1.6-2.9 1.8-4.8.1 1.1.5 1.2.8 1.4.8.5 1.1-1.5 1.7-2 .6-.4 0-1 .9-1 .4 0 1 .6 1.4.8.3-.4.5-.7.7-1.1-.4-.8-1.3-2.3-1.9-2.8-.9-.7-2.2-.5-3.3-1.1-1.4-.9-6-3-3.5-5.3 1.7-1.6 4.5-.6 6.5-1 1.2-.3 2.1-.5 3.3 0 1.3.5 2.2 1.3 3.7 1.4 2.6.2 4.6-.7 7-1.4.1 2.3 2.2.5 2.8 2.2.4 1.1-1.2 3.1-1.3 4.4l1-.6c.6-.4.1-1 .6-1.4 1.4-1.1 3.5-2.4 4.2-4.4-1.1-.4-1.7-1.9-1.9-3.1-.4-2.8 2-3.3 4.3-3.5 2.4-.2 4.8-.9 7-1.8 3-1.2 4.7 1.7 7.5 1.7 2.2 0 5.7.1 4.7 3.7-.3 2.3-.6 1.2-1 3.2-.5 2.3-.6 3.7-.4 6.1.2 4.2-.7 8-3.6 11.1-1.4 1.5-3.3 2.5-4.3 4.5-1 1.8-.9 3.3-1.2 5.2-.3 1.9-1.4 3.4-1.7 5.3-.3 2.3-.8 4.4-.8 6.8 0 2.1.3 4.2.3 6.3 0 1-.3 2-.3 2.9 0 0 .6.7 1.2.5-.6 2.3-.8 4.7-1.4 7-.6 1.8-2 3.9-2.3 5.7 2 .1 5.7-.8 7.3-.5l2.4.3c.6.1 1.7 0 2 .6-.3 0-.3.1-.4.3 1.8.4 3.2.5 4.8 1.8 1.3 1 2.6 2.5 3.4 3.9-.3-.2-.6-.4-1-.3.7 1.2 1.5 2.3 1.7 3.7.3 2.1.7 4-.1 6-.4 1-1.6 3.7-4.1 5.1-.1-.2.1-.4.4-.5-2 1-5.1 1-6.7-.6 1.7 1.1 3.6.2 4.9-.8 3.2-2.6 3.7-6.3 1.8-10.3-.8-1.8-2.9-3.3-4.4-4.5-.9-.7-1.9-1-3-1.4-1-.4-1.3-.2-2.5-.3-1.8 0-3-.2-4.9.6-2.2 1-4.7 1.9-6.6 3.4-3.3 2.5-6.2 3.8-11.9 4.4-3.4.3-8.8-.2-10.9-.3-3.8-.2-7.7.5-11.4 0-3.3-.5-6.3-.1-9.4 1-.8.3-4.5 1.2-5.4 1.4-1.6.3-4.3 2.4-5.2 2.6-1.8.4-2.3-.3-3.1 1.5-1 2-2.2 1.7-3.6 2.9-2.9 2.4-3.6 5.8-4.9 9.2-.6 1.5-1.9 1.8-1.8 3.6-.7 1.6-1.7 4.5-2.1 6.2-.4 1.6-1.1 3.2-2 4.6-.8 1.3-2.4 2.2-3.7 3.1-1.2.8-2.8 1.4-4.2 2-1.4.6-2.8.3-4.4 0-1.3-.2-2.7 0-3.9-.5-1.3-.5-2.4-1.3-3.7-1.7-2.4-.6-5.1-.2-7.5-.8-1.3-.3-2.7-.7-4.1-.9-1.5-.3-2.2-.7-1.4-2.4.9-2 4.9-4.5 6.9-4.6 1.4-.1 2.6.3 4 .1 1.5-.2 3.3-.6 4.7-1.2-.5 0-1.2-.1-1.6-.1-.6 0-1.1-.3-1.7-.5-1.1-.4-2-1.2-3-1.7-.9-.4-1.8-.3-2.8-.2-.4 0-.9 0-1.3-.2-.6-.3-1-.7-1.4-1.2-.3-.4-2-1.5-1.5-2.2"/></defs><clipPath id="SVGID_5_"><use xlink:href="#SVGID_2_" overflow="visible"/></clipPath><g id="Base_10_" class="st0"><path class="st1" d="M-72.7-61.1H69.7V64H-72.7z"/><path class="st2" d="M-32.7 55.2c-.5-1 .7-4.1.9-5.4.5-2.9.8-5.8 1.2-8.7.5-3.9 1.2-7.5 1.3-11.5 0-3.6-2.1-6.2-2.3-9.7-.2-2.8 1.8-5.6 1.4-8.2 1.1 1.2 1.1 3.6 2.5 4.5 1.4.9 3 .4 3.5 2.5s0 2.4 1.7 4.1c1.3 1.4 2.6 2.8 2.9 4.7-.1-1.6 1-3.5 1.2-5.5.2.6.4 2.3.9 2.8 1.2 1 1.2-.1 2-1 1.4-1.6 4.1-2.1 6.1-2.8 2.8-1 2.6.5 4.6-1.4 1.6-1.5 3.9-3.2 4.5-5.4-.1.9 0 3 .4 4 1-.3 1.6-1.4 2.5-1.9.9-.5 1.6-.7 2.6-1-.5 2.3.1 1.5.2 3.9 3.9-1 6.9-1 10.9-.6 2.3.2 4.8-1.2 6.9-.8 2.1.4.2 2.1.1 3.8 1.4-.4 2.9-1.7 4.6-1.5 2 .1 3.5 1.5 5.6.4.8-.5 1.4-1.3 2.2-1.8.8-.5 1.7-.7 2.4-1.3.7-.7.6-1.8 1.5-2.5.8-.6 1.6-.5 2.4-1 1.5-.9 1.7-2.1 3.6-2.1 1.9.1 1.9.6 3.8-.4 5.3-2.6 12.4-1.3 17.2 1.7 6.1 3.7 6.7 9.3 5.1 15.7-.9 3.6-3.3 8-6.1 10.5-2.9 2.6-7 2-10.7 1.7-11.8-.8-23.8-.9-35.6 1.1-5.6.9-11.8 1.3-17 3.6-2.8 1.2-6 3.6-9.2 3.7-2.4.1-4.7-2-7.1-1.6-2 .3-2.9 2.6-5.1 3.2-4 1.6-7.6 1.7-13.6 4.2z"/><path d="M33.7 2.2C32 1 28.6-2.7 27.5-21.7c-1.6 12.9 4.1 24 2.1 23.5-2.3-.6-1 .3-2.7-1-1.2-.9-2.6.6-3.6 0-.7-.4-.5-2-.6-2.6-.3-1.2-1-2.1-1.9-2.8C19-6.2 16.9-7.2 16-9.5c-.5-1.1-1-2.4-2.3-2.7-.9-.2-1.5.3-2.4.1-1.4-.3-2.2-1.7-3.5-2.2-1-.4-1.8.1-2.7-.1-1.2-.3-1.4-1.7-2.4-2.1-1-.5-.9 0-1.6.6-1.8 1.6-2.2 2.8-2.8 5.1-.2-1.4-.8-2.8-1.7-3.9-.9-1.1-2.2-2-2.7-3.4-.4-.9 0-2.6-.9-3.2-2.2-1.5-2.4 2.9-2.2 3.9.7 2.8.7 6.3-.1 9.1C-9.8-6.6-11-.1-12.9.8c-.9.5-.6.4-1-.4-.7-1.3 1.2-18.8-.6-22-.3 4.5-1 15.9-3.2 21.8-.7 2-1.5 3.9-3 5.4-.6.6-1.3-1.6-1.5-12.6-1.9 6.1-2.3 16.8-3 18-.7 1.2-.8 3.1-1.7 4.1-.9-.9-1.1-2.4-1.9-3.4-1.5-1.8-1.3.6-2.3 1.6-.8.8-.9.4-1.2-.9-.3-1-.3-2.1-.6-3.1-.9.3-1.2 1.8-1.7 2.5-.4-1-1.3-1.7-1.7-2.7-.5-1.2-1.8-1.3-2.1-2.6 0 0 0 1.3-1.5 2.9-2.6-3.6-3.3-11.3-3.8-12.9-.9-2.7 2.7-8.5 3-11.3.3-2.7.5-4.7 1.5-7.2.6-1.4.7-2.9.6-4.5-.2-2.6-1.3-5.1-1.8-7.6-.6-2.9-1.6-6.1-.7-9 1.1-3.5.6-6.6.7-10.2 0-2.3.3-4.7 2.6-5.8 2-1 4.9-.6 7.1-.8 4.9-.3 9.8-.6 14.7-.8 4.2-.2 7.1.9 10 4.1 2.1 2.3 3.3 4.7 4.2 7.7.7 2.5 1 5.7 3.8 6.8 1.7.7 2.7 0 3.5-1.5C7-46.8 8.2-50 9.7-53c1.3-2.6 3.3-5.1 5.7-6.8 2.9-2.1 6.9-2.6 10.3-3.1 6.9-1.1 13.8-.2 20.7-.9 5.8-.6 11.2-.4 16.2 2.8 2.9 1.9 6.3 4.8 7.2 8.3.6 2.2.2 4.6-.2 6.8-.8 4.1-1.8 8.1-3 12.1-1.4 4.6-3.8 8.4-6.5 12.3-1.7 2.5-3.3 5.3-5.4 7.4-1.8 1.9-3.6 3.2-4.5 5.8-.3.7-.4 1.5-.6 2.2-.9 2.6-3 3.9-3 6.9-1.1-.5-1.1-2.3-1.9-3.1-1 1.8-1.5 5.5-2.4 7 0-.2 1-12.6-.8-15.7.3 7.1-.9 19-1.2 18.6C34.8 1 35.4-4.2 35.4-18c-1.8 12.4-.9 20.7-1.7 20.2z" fill="#edcda4"/><path class="st1" d="M-42.2 61.7c.2-1.1 1.4-1.7 1.7-2.9.2-1.1-.1-2-.5-3s-.9-2-.9-3.1c0-1 .4-2 .4-3 .1-1.9-.5-3.8-.4-5.7 0-1.1.5-1.9.5-3 .1-1-.2-1.8-.4-2.7-.2-1-.1-1.9-.2-2.9-.2-1.1-.8-2.2-1.1-3.3-.7-2.1-1-4.1-1.3-6.4-.3-2.5-1.1-5.1-1-7.6.1-3.4 2.5-18.5 5.6-9 .7-2.2 0 0 1-4.1.7 1.2 1.7 2.2 2.7 3.4.6.8.9 2.8 1.7 3.2.6-.6.7-1.6.7-2.5.6 1.8 1.9 3.4 2.4 5.3.5 1.8.6 3.6 1 5.4.4 2 1.2 3.5 1.3 5.6.1 2 0 3.9.4 5.9.6 3.7 2 7.9 1 11.6-.6 2.4-1 4.2-.9 6.7 0 2.3-.5 4-.9 6.1-.2 1.1-1.2 2-2.1 2.7-1.1.8-2.2.3-3.2 1.2-1.3 1.3-1.7 2.2-3.7 2.8-1.2.4-2.5.6-3.8 1-.5-.5-.5-1.9 0-1.7z"/><path class="st2" d="M-26.1-25c-.8 1.9-1.8 4.2-2.4 6.3-.7 2.5-.9 5.1-1.5 7.6-.5 2.4-.5 5.1-.7 7.5-.1 1.3-.1 6.5-.4 7.7-.4 1.5-1.5 2.2-2.1 3.6-.3.9-.8 2.9-1.5 3.4-.5-1-.7-3.3-1-7.1-.1-1 1.7-2.4 1.9-3.4.3-1.3-1.7-3.1-.9-4.1.6-.8 1.2-2.7 1.5-3.7.3-.9.1-3.1.3-4 .3-1.1.4-2.3.8-3.3.8-1.7 1-3.6 1.3-5.5.3-2 1.6-3.5 2-5.4.2-1 .2-2 .8-3 .6-.9 1.6-1.5 2.1-2.5.6-1 .5-2.3.9-3.4s.3-3.5.6-4.6c.2-.6.1-1 .4-1.6.3-.6.8-.9 1.1-1.5.5-.9.9-2.1.9-3.1 0 1.8-.4 3.4-.7 5.1-.3 1.8.1 3.7-.2 5.5-.3 1.7-1.1 3.3-1.6 4.9-.2.8-.2 1.6-.5 2.3.1.9-.7 1.5-1.1 2.3zm40.3 7.3c-.6-1-.5-2.3-.6-3.4-.2-1.3-.7-2.5-.9-3.7-.2-1.4 0-2.5.6-3.7.7-1.2 1-2.9 1.7-3.9.3 1.8 1.1 3.3 1.3 5.1.1.9-.2 1.9 0 2.8.2.9 1.2 1.8 1.8 2.6 2.4-6.6 4 3.7 5 2 .6-1-1.1-6.1-.8-7.1.2-.9 1-1.4 1.7-1.9.8-.5 1.5-1 2.2-1.7.7-.8 1-1.9 1.8-2.6 1.4-1.1 2.9-4.1 3.3-6.1.6 1.8-.3 3.3-1.1 4.9-.7 1.3-1.1 3.5-1.4 5-.4 2-1.4 3.6-1.2 5.6.2 1.7.1 3.5.2 5.2.1 1.8.2 3.6.2 5.4-.6.3-1.6.9-1.2 1.7-1.3-1-1.7 0-3.2-.1-1.5-.1-1.7-.9-2.6-1.8-.1.4-.3.8-.4 1.2-1.2-1.2-1.7-3.3-2.8-4.7-.5-.6-.5-1.3-1.6-1.3-.9-.2-1.2.6-2 .5zM-11.1-7.3c-.5-1.2.3-3.4.1-4.8-.1-1.6 0-3 0-4.6 0-1.7-.9-3.3-.8-5 .1-1.6-.1-2.8-.3-4.4-.2-1.9 1.2-2.6 1.7-4.4.4-1.5 0-2.6-.1-4.1-.1-1.8 1.4-2.9 1.3-4.8 0-.8-.4-1.6-.4-2.4 0-1.1.3-.7.9-1.5 1.1-1.5-.4-3.3-.1-5.1.4-2 2.8-3.1 3.1-5 .3.8-.1 1.7-.2 2.6-.1 1.3.1 2.5.5 3.7.6 1.7 1.5 3 2.3 4.6 1.8 3.2 1.2 8.3.4 11.7-.8 3.1-2.9 5.2-4.9 7.6-1.7 2.1-1.8 4.7-2 7.4 0 3.1.4 6-1.5 8.5z"/><path d="M-37.9 51.1c-.4-1.3-.7-2.9-1-4.3-.2-.7-.2-1.3-.5-2s-1-1.2-1-2c0-.3.5-.4.5-.9s-.4-.9-.7-1.2c-.4-.7-.7-1.3-.9-2.1-.4-1.4-.8-2.9-1-4.3-.6-3.2-3-5.9-3.1-9.2-.1-3.2 0-6.6.8-9.7.5-1.7 1.1-3.4 1.5-5.1.4-1.6.1-3.5 1.2-4.9.4 1.2 1.3 3.1 2.3 3.8.8-1 1-1.9 1.2-3.1.7.9 1.6 1.8 2.4 2.8.8 1 1 1.8 1.5 2.9.3-.9.7-1.9 1-2.8.6 2.9 2 4.2 2.6 7.2.7 3.3 1.9 9.3 1.7 10.9-.1.9-1.4 2.3-1.4 3.2 0 .8-.3 1.4-.3 2.2-.5-.8-.3-1.8-.6-2.6s-1-1.4-1.1-2.2c-.2.8-.1 1.5-.4 2.3-.3.7-.8 1.2-.9 2-.3 1.7-.1 3.4-.5 5.1-.5-.8-.6-1.6-1-2.4-.5-1-1.3-1.6-2-2.4-.5-.7-.7-1.5-1.3-2.2-.6-.7-2.9-6.7-3.1-7.7-.5 1.3.5 4.2.9 5.5.8 2.2 1.4 3.6 1.8 5.9.3 1.9 1.4 3.4 1.4 5.4 0 2-.1 4-.1 6 .1 1.5-.2 3.5.1 5.9z" fill="#e6d3ba"/><path class="st2" d="M49.8 6.7c-.1-1.1.3-2 .1-3.1-.2-1-.9-2.1-1.4-3-1.2-2.5-.9-4.3-.9-6.9 0-2.3-.6-4.6-.7-6.9-.1-1.4-.1-2.8.2-4.1.3-1.1 1-2.2 1-3.3.3.7.6 1.3 1 2 .1-1.9-.1-3.7.6-5.5.4-1 1.1-1.8 1.5-2.8.3-.8.2-1.7.5-2.5.5-1.3 1.7-1.8 2.6-2.8 1-1 1.7-2.3 2.6-3.3.7-.8 1.5-1.5 1.8-2.6.2-1-.1-2 .2-3 .2.7.3 1.4.5 2.1 1.5-1.5-.2-4.6-.5-6.2-.1-.6-.5-2.4-.2-3 .3-.7 1.5-.9 1.9-1.8.4-.8.6-5.2 1.2-5.5 1.8-.9 3.4 6.8 3.6 7.8.7 3.5 1.6 6.6 1.4 10.3-.2 4.6-1.5 8.7-2.7 13.1-1.2 4.2-2.7 8.3-3.7 12.6-.7 3.3-1.1 6.7-1.9 10-.5 2.2-4.8 13.1-8.7 8.4z"/><path class="st2" d="M49.6 7.3c-.1-1.1.3-2 .1-3.1-.2-1-.9-2.1-1.4-3-1.2-2.5-.9-4.3-.9-6.9 0-2.3-.6-4.6-.7-6.9-.1-1.4-.1-2.8.2-4.1.3-1.1 1-2.2 1-3.3.3.7.6 1.3 1 2 .1-1.9-.1-3.7.6-5.5.4-1 1.1-1.8 1.5-2.8.3-.8.2-1.7.5-2.5.5-1.3 1.7-1.8 2.6-2.8 1-1 1.7-2.3 2.6-3.3.7-.8 1.5-1.5 1.8-2.6.2-1-.1-2 .2-3 .2.7.3 1.4.5 2.1 1.5-1.5-.2-4.6-.5-6.2-.1-.6-.5-2.4-.2-3 .3-.7 1.5-.9 1.9-1.8.4-.8.6-5.2 1.2-5.5 1.8-.9 3.4 6.8 3.6 7.8.7 3.5 1.6 6.6 1.4 10.3-.2 4.6-1.5 8.7-2.7 13.1-1.2 4.2-2.7 8.3-3.7 12.6-.7 3.3-1.1 6.7-1.9 10-.4 2.2-4.7 13.1-8.7 8.4zm-82.2 32.4c-.6-.7-.4-1.9-.4-2.7-.1-2.4-.5-4.8-.6-7.2-.2-2.4-.8-4.3-1.3-6.5-.4-2-1.7-4.2-.9-6.2.1-.1.3-.1.3 0-.1 2.9 2 4.5 2.8 7 .5 1.5.5 3.2.4 4.7-.1 3.4-.6 7.4-.2 10.7.1.2 0 .3-.1.2zm-3.7-25.1s0 .1 0 0c-.1.1-.1 0 0 0zm-8.8 46.2c-1 .1-2.2-1.4-2.1-2.4.1-.5.4-.4.5-.7.1-.3-.1-.6.1-1 .2-.6 1-.9 1.6-1 .9-.2 2.7.3 3.3 1.1.8 1 .6 2.3-.2 3.3-.7 1-2.5.9-3.2.7zm16.9-113.9c.3-.4 2-2.5 1.9-2.4 0-.5.5-.9 1-.7.4.3.6.3.8 0 .1-.3.6-.5.9-.4 1 .2 1 .3 1.8 1l-1.5.6c.1-.8.1-.9.4-1.7.2-.5.7-.8 1.2-.5-2.4-1.3 3.1 1.3 2.8 1.2.9.1 1.7-.6 2.8-.9 1.2-.3 4.5-.7 5.5-.4 2.4.7 5.2 2.2 7.8 3.2.3.1.3.6-.1.6-3.4-.2-6.6-2.4-9.9-2.1-5.1.4-4.9 2.4-9.8-.2.4-.2.8-.3 1.2-.5l-.3 1.2c-.1.7-.9 1.1-1.5.6-.1-.1-.3-.1-.4-.2-.2.4-.7.5-1.1.3-.7-.3-2.8 1.4-3.3 1.7-.1.2-.4-.1-.2-.4zm-5.3 3.8c1-1.9 3.5-3.5 5.6-3.2.5.1.9.8.3 1.1-.8.4-1.8.5-2.8.8-1.1.3-2 .8-2.7 1.7-.1.3-.5-.1-.4-.4zM12-47c2.9-1.5 10.9-4.4 11.4.8h-1.2c-.3-2-.6-1.7.5-3 .2-.2.6-.2.8 0 3.6 3 7.4-1.1 10.6.6 2.1 1.1.6 1.4 3.7 1.5.7 0 .7 1.1 0 1-1-.2-2-.1-3 .4-.3.1-.7-.2-.7-.5.1-2-5.5-.5-7-.6-1.7-.1-4.2-2-3.8.4.1.7-.9 1-1.1.3-.9-2.6-8.3-.7-9.9-.4-.4.2-.6-.3-.3-.5zm27.4-5.6c1.2-1.6 3.5-1.9 5.3-2.6 2-.8 3-1.2 4.9-.6.3.1.3.9.4.9-.9 0 .8-1.8 1.2-2 1.1-.4 1.4.1 2.4.3 1.6.3 3.1.7 4.7.9 3.3.4-.3-.5 3 .3.2.1.2.4 0 .5-2.6.4-4.8.4-7.3-.1-5.5-.9-1.2.2-4.2.9-.2.1-.3.1-.6 0-.2-.1-.4-.3-.4-.6 0-1-8.2 1.8-8.8 2.3-.3.5-.9.2-.6-.2z"/></g><g id="Details_11_" class="st0"><path d="M-55.7 60c-.2-.5 1.9-2.3 2.4-2.6.8-.5 1.8-.6 2.7-.8 2.3-.5 3.5-3.1 5.7-3.3.8-.1 2.3.3 2.8-.4.7-1-.3-1.6-.8-2.4-.5-.8-.2-1.8-.2-2.7 0-1-.4-1.9-.9-2.8-1.1-1.8.2-3.3-.4-5.2-.1-.3-.7-2.2-1.1-2.3-.5-.1-.3 1.9-.5 2.3-.8 1.3-1.1.7-2.5 1.1-1.5.4-3 .3-4.5.3-1.2 0-2.3.2-3.5.1-1.4-.1-2.5-.2-3.8.6-2.1 1.2-3 3.5-3.8 5.7-.4 1.2-1.1 2.2-1.5 3.4-.4 1.3-.5 2.5-.5 3.9 0 2.5.6 4.6 2.6 6.1 2.3 1.7 5.7 1.9 7.5-.4.5-.3.8-.6.3-.6z" fill="#3a3228"/><path d="M-46.8 49.6c-.2 0-.4-.1-.5-.1h-.7c-.7-.1-1.3-.1-2-.2-1-.1-2.1-.2-3.1-.3-1.7-.2-3.3-.6-4.9-1.1-.8-.3-1.7-.6-2.3-1.2-.6-.6-1-1.3-1.4-2-.3-.8-.3-1.9.5-2.5 1.1-.9 2.5.6 3.1 1.4.2.2.2.5.4.7.1.2.3.3.5.5s.2.3.4.3.3.1.5.1c.4.1.7 0 1.1 0 .2 0 .4.1.7.1.2 0 .4 0 .7.1.5.1 1 .2 1.5.2.5.1 1.1 0 1.7-.1 1.1-.1 2.2.2 3.2.5.5.1 1 .4 1.4.6.4.3 1 .7 1.2 1.1.2.4.4 1 0 1.3-.2.2-.5.3-.8.4-.2.1-.5.2-.7.3-.3.1-.5.1-.5-.1z" fill="#cf9b95"/><ellipse cx="-43.9" cy="58.5" rx="1" ry="1.2" fill="#26150c"/><path d="M-56.4 44.8c-.1.4 0 .8.2 1.1.1.3.2.9.5.3.2-.3.4-.9.4-1.1m6.4.8c0 .4.2 1.8.6 1.8.3 0 .5-1.1.8-1.6m.5.2c0 .5 0 1.3.3 1.7.2.3.3-.1.5-.3.2-.2.4-.4.6-.7" fill="#fff"/></g></g><path d="M-56.8 44.5c3.2 1.5 8.6-.1 11.4 2 .7.5 1.3 1.1 1.1 2.1-.2 1-1.8 1.5-2.5 1.8-3.9 1.5-8-.2-11.6 1.9-.9.6-3.7 3.5-2.2 5.1.3.3 2.2.5 2.7.6 2.6.5 4.6.3 7.1.6 1.7.2 3 .8 4.5 1.5 3.3 1.5 7 2 10.6.8 5.9-1.8 7.6-7.7 9.2-12.9 1.1-3.4 2.8-6.3 4.1-9.6.8-2.2 1.9-4.5 3.8-6 1.7-1.3 3.2-3.2 5.1-4.1 1.6-.8 3-1 4.6-1.9 1-.6 3.5-1 4.3-1.3C-2 24 .8 23.7 3.8 23.3c4.1-.5 8.4-1.1 12.5-.6 4.1.5 9.1.7 13.3.6 9-.2 12.4-6 20.5-8.2 6.3-1.7 13.7 2.1 15.3 8.7 1.2 4.8-2.4 11.4-8 9.3-.2-.1-.1-.5.1-.4 2.1.8 5.4-1.4 6.3-3.1.8-1.5 1-3.3.8-4.9-.6-3.8-4.3-7.5-8-8.4-4.8-1.1-10.1 1.3-14 4-5 3.4-9.3 4.4-15.5 4.3-8-.1-16.8-1.8-24.6-.3-5 .9-9 2.6-13.7 4.6-1.8.8-3.1 1.8-4.6 3.2-2.1 2-4 3.1-5.2 5.8-.7 1.6-1.2 3.2-2 4.8-2.2 4.7-2.9 11.5-6.7 15.3-3.8 3.7-9.2 4.8-14.2 3.9-1.4-.2-2.5-.8-3.9-1.3-2.2-.8-4.4-.9-6.8-1.3-1.5-.2-6.7-.4-7.7-1.8-2.1-2.8 3.9-6 5.7-6.6 1.3-.4 2.3-.2 3.6-.3 1.1-.1 2.2-.1 3.3-.3 1.7-.4 3.8-.7 4.5-1.5.5-.6.3-1.2-1-2-2-1.3-4.6-.7-7.4-1.2-1.3-.3-2.2-.5-3.2-1.1-.1.1-.1 0 0 0z"/><path d="M66.8 19.5c1.9 1.4 2 6.7 1.3 8.8-.8 2.3-2.5 4.3-4.5 5.6-.1.1-.3 0-.3-.1-.7.3-1.2.5-1.9.6-1.6.1-3.2-.4-4.3-1.5-.1-.1 0-.4.2-.3 1.8 1.3 4.5 1.4 6.6.5 0 0 .3 0 .1.1 1.3-.6 2.9-3.3 3.4-5 .9-3.2-.1-6.4-1.6-9.1-.1-.3.1-.5.4-.5h.1c-1.8-2.6-4.4-4.2-7.5-4.8-.3-.1-.3-.4-.1-.6.6-.7-1.2-.2-1.8-.2-1-.1-2-.3-3-.2-2.1.1-4.1.4-6.2.4-.5 0-.5-.8 0-.8 2.4 0 4.7-.9 7-.7 1.5.1 3.8.2 4.9 1.3.1.1.1.2.1.4 1.5.3 2.9.5 4.2 1.6 1.4 1.1 2.5 2.6 3.4 4.2 0 .2-.2.5-.5.3z"/><path d="M47.4 12.7c.3-1.6 1.1-3 1.7-4.6.6-1.6.9-3.3 1.2-5 .1-.7.7-2 .4-2.7-.1-.1-.5-.2-.6-.4-.3-.6-.2-1-.1-1.8.3-3.4-.5-6.9-.1-10.3.1-1.4.3-2.9.6-4.3.3-1.7 1.2-3.2 1.6-4.9.7-2.8.5-5.2 2.7-7.4 2.4-2.5 4.8-4.3 5.9-7.8 1-3.2.3-6.4.8-9.6.4-2.6 1.4-5 1.8-7.5 0-.1.1-.1.1 0 0 1.8-.5 3.2-.9 5-.6 2.5-.4 4.9-.3 7.5 0 4.2-1.4 8.1-4.5 11-2.1 2-3.9 3.3-4.4 6.4-.2 1-.2 2.1-.5 3.1-.3 1.3-1 2.4-1.3 3.7-.7 2.7-.9 5.6-.9 8.3 0 1.5.1 3 .1 4.5 0 .9-.7 3.9.6 3.9.3 0 .4.2.3.4-.4 2.3-.6 4.8-1.4 7-.7 1.9-1.8 3.6-2.4 5.5-.1.4-.5.3-.4 0zM29.6-.7c-2.8-6.6-2.8-14.7-3-21.7-.1-3.3.3-5.1 1.9-7.8 1.7-2.9 2.9-7.3 3.2-10.6 0-.4.5-.5.7-.2.3.5.8.6 1.1 1.1h-.6c.5-.8.5-1.8 1.4-2.3.7-.5 1.6-.4 2.2-1 .4-.4.5-.9.9-1.3 1.5-1.5 2.9-2.1 3.8-4.1.2-.4.8-.1.6.3-1 2.3-3.1 3.4-4.5 5.3-.3.4-.3.5-.7.8-.8.5-1.1.3-1.9 1-.7.6-.8 1-1.2 1.8-.1.2-.5.2-.6 0-.3-.4-.9-.6-1.2-1 .2-.1.5-.1.7-.2-.2 2.9-1.2 5.8-2 8.6-.3 1.1-.8 2.1-1.4 3.1-1.1 1.8-1.5 3.2-1.5 5.4.2 7.8.8 15.3 2.1 23 .2-.2 0-.1 0-.2z"/><path d="M44.1-46.5c-1.3-1.9-3.5-1.8-4.5-3.9-.5-1-.7-2.4-.2-3.5.6-1.2 1.9-1.6 3.1-1.8 2.7-.4 5.1-.8 7.7-1.7 1.5-.5 2.6-.5 4.1.1 1 .4 1.8 1 2.8 1.3 1 .3 2 .1 3.1.3 2.4.3 3.9 1.7 2.9 4.1 0 .1-.2 0-.2-.1 0-3.6-2.9-2.9-5.4-3.3-1.1-.2-1.9-.7-2.9-1.1-1.8-.9-3.1-.6-5 0-1.6.6-3.2 1-4.8 1.3-1.1.2-2.4.1-3.5.6-2.8 1.3-1 4.4.8 5.6.9.6 1.5 1 2.1 2 .2.2 0 .3-.1.1zM-7.2-25.2c.2 2.5 2.9 2.9 4.1 4.5.9 1.1 1.1 2.4 1.3 3.7-.3-.1-.6-.2-.9-.4.7-.9.8-1.9.9-3 0-.4.4-.6.7-.3 1.5 1.5 3.8.2 5.5.5 1.6.2 3.5.6 4.9 1.3.5.2 1 .5 1.5.9.2.2 1.2 1.3 1.4 1.3.8.1 3.1-1.8 3.4-2.5.1-.2.4-.2.6-.1 1.4 1.2 2.2 2.8 2.9 4.5.2.4.8 2.3 1.1 2.4-.2-.1.7-1.9.5-1.4.1-.2.4-.3.5-.1.7 1.5 3.1 3.4 4.4 1.2 0-.1.2 0 .1.1-.3 1.1-1.4 1.5-2.4 1.3-.9-.1-1.2-.7-1.9-1.2s-.5-.9-.9.7c-.1.2-.4.3-.5.1-1-1.8-1.6-3.8-2.8-5.4-.3-.4-.7-1.1-1.2-1.1-.1 0-.3.5-.5.5-1 .5-2.3 1.2-3.2 1.9-.2.2-.5.2-.6-.1-1.4-2.6-6.1-3.8-8.8-3.5-1.9.2-3 .8-4.6-.6.2-.1.5-.2.7-.3 0 1.3 0 2.5-.9 3.6-.3.4-.9.3-.9-.3-.2-2.8-1.8-3.8-3.5-5.6-.7-.8-1.2-1.5-1.1-2.6-.1-.2.2-.2.2 0z"/><path d="M13.8-17.3c0-1.7-.8-3.4-1.1-5.1-.2-1.4-.3-3 0-4.4.6-3.5 3.3-6.4 3.9-9.9.1-.3.7-.4.7 0 .4 3 2.1-1.3 2.5-1.6.6-.3.6 0 1.1 0 .8 0 .6.5 1.2-.6.5-.7.8-1.8 1.1-2.6.1-.3.6-.2.5.1-.4 1.6-.8 2.7-1.7 4-.1.1-.3.2-.4.1-2.5-1.6-1.7 1.8-3.3 2.3-1 .3-1.5-.9-1.7-1.7h.7c-.5 3.3-2.8 6-3.6 9.2-.9 3.5.5 6.7.3 10.1 0 .3-.2.3-.2.1z"/><path d="M22.3-38.4c-.7-1.1-1.3-2.1-2.4-2.7-.8-.4-1.7-.5-2.5-.9-1.2-.5-2.5-1.3-3.4-2.1-1.6-1.4-1.9-3.3.1-4.5 2.1-1.2 5.5-1.2 7.8-1 1.3.1 2 .5 3.2 1 3 1.3 5.9.2 8.9-.7.2-.1.4.1.5.3.2 1.5 2.3.8 2.8 2.1.5 1.4-1.1 3.4-1.4 4.6-.1.2-.3.2-.3 0 0-.7.2-1.2.4-1.8.2-.4.7-1.2.7-1.7-.1-.8-1-1.1-1.4-1.4-.2-.1-.5-.1-.8-.2-.4-.2-.4-.7-.8-.8-.8-.2-2.8.8-3.6.9-1 .2-2 .3-2.9.2-1.8-.2-3.2-1.4-5-1.6-1.6-.2-3.3-.1-4.9.1-.7.1-2 .2-2.7.7-1.7 1.3-.3 3 1 3.9 1.5 1 3 1.3 4.5 2.1 1.3.6 2 2.1 2.5 3.4.1.1-.2.2-.3.1zm-63.7 98.9c1.7-2.5-.8-4.5-1.1-6.9-.1-.8.1-1.5.2-2.3.3-1.7.3-2.9 0-4.6-.3-2.2.3-3.8.3-5.9 0-2.2-1.2-4.3-1.5-6.5-.3-2.3-1.6-4.2-1.9-6.5-.4-2.3.2-4.6.2-6.9 0-2 .1-3.6.9-5.5 1.3-3.1 2.5-5.5 2.8-8.9 0-.3.4-.4.5-.1.2.4.5 1.4.8 1.7.8.8 1-1.8 1.1-2.4 0-.3.4-.4.5-.1 1 1.7 2.9 2.7 3.6 4.5.1.2.5 1.4.3 1.3-.2 0 .7-2.4.9-2.8.1-.2.3-.1.3.1.1 2.4 1.3 4.3 2.1 6.4.9 2.2 1 4.5 1.9 6.7.8 1.8.5 3.2.5 5.1 0 2.4 1.2 4.3 1.7 6.5.5 2-.1 3.9 0 5.9.1 1.8.2 2.9-.6 4.5-1.5 3-.6 5.4-1.1 8.5-.3 1.6-1.1 2.8-2 4.1-.2.2-.6 0-.4-.3 1.4-2.1 2.1-3.9 2-6.5-.1-2 0-3.6.7-5.4.6-1.6.7-2.6.5-4.3-.1-1-.3-2-.2-3 .1-2.3-.4-4.1-1.1-6.3-.5-1.6-.5-3-.3-4.6.3-2.7-.9-4.3-1.3-6.7-.2-1.2-.1-2.5-.5-3.7-.3-1.2-.9-2.2-1.3-3.3-.3-.7-.4-1.8-.7-2.4-.3-.5.2-.5-.1-.1-.3.4-.4 2.1-.4 2.4 0 .3-.3.3-.4.1-.7-1.6-1.3-2.9-2.5-4.1-.7-.7-1.3-1.4-1.8-2.3.2 0 .3-.1.5-.1-.1 1.4-.6 2.4-1.2 3.6-.1.2-.4.1-.5-.1-.4-.9-.7-1.8-1.2-2.6.2 0 .4-.1.5-.1-.2 2.2-.5 4.3-1.4 6.3-.6 1.3-1.3 2.5-1.8 3.8-.5 1.6-.4 3-.4 4.6-.1 3.3-.2 6.1 1.1 9.2.8 2 .7 3.8 1.2 5.8.4 1.9 1.2 3.3 1 5.3-.2 1.7-.5 3.1-.2 4.8.1.9.3 1.7.3 2.6 0 1.2-.4 2.2-.6 3.4-.2 1.6.5 2.7 1 4.1.5 1.5.5 2.7-.5 4-.3.2-.5.1-.4 0z"/><path d="M-45.8 41.6c-.1-1.3-.3-2.7-.1-3.9.2-1.4.7-2.1.4-3.6-.1-.7-.3-1.1-.3-1.8 0-.1.1-.2.2-.2.5-.6.7-1.4.4-2.3-.1-.4.5-.5.5-.1 0 .9-.3 1.7-.4 2.6 0 .1-.1.2-.1.2.1 0 .4 3.5.3 3.9-.4 1.7-.7 3.4-.8 5.2.1.1-.1.1-.1 0zm4.9-33.8c-.3-2.5-1-4.8-.7-7.3.2-2 0-4.4.8-6.3.7-1.8 1.7-3.9 2.8-5.6 1.2-1.9 1.4-3.9 2.5-5.8.2-.3.8-.2.8.2 0 .6 0 1.3-.1 1.9-.2 0-.4-.1-.6-.1.5-1.6 1.2-2.9 1.4-4.6.1-1 .3-1.8.8-2.6.9-1.4 1.1-2.7 1.6-4.2.3-1 1.1-1.6 1.6-2.5 1.4-2.2 1.8-5.1 2.7-7.5.7-1.9 1.7-4 1.6-6.1 0-.2.3-.2.3 0 .6 1.7-.2 3.8-.7 5.5-.7 2.3-1.4 4.6-2.2 6.9-.3.9-.8 1.6-1.3 2.4-.6.9-1 1.6-1.3 2.7-.1.5-.2 1-.4 1.5s-.6.8-.9 1.2c-.9 1.4-1 2.4-1.3 4-.3 1.3-.9 2.3-1.3 3.6-.1.3-.5.2-.6-.1-.1-.6-.1-1.3-.2-1.9.3.1.5.1.8.2-.9 1.6-1 3.4-1.9 5-1.1 1.8-2.1 3.7-3.1 5.6-1 2-1 4.6-1.3 6.8-.3 2.3.3 4.9.4 7.2 0 .1-.2 0-.2-.1zM-30.8 3c-.1-3 .2-6 .2-9.1 0-2.6.2-4.6.7-7.1.5-2.5.5-4.9 1.3-7.4.3-1 .8-1.8 1.4-2.7.9-1.5 1-2.8 1.5-4.4.1-.4.9-.4.9.1-.1.5-.1 1.1 0 1.6-.2 0-.4 0-.6-.1.3-.8.7-1.5 1-2.2.7-1.6.4-3 .8-4.6.1-.5.4-.9.6-1.4.7-1.6.6-2.8.5-4.4-.1-2.2.9-4.2.7-6.4-.1-1.4-.4-2.8.3-4.1h.1c-.6 1.9.5 4.2.3 6.2-.1.8-.4 1.6-.5 2.4-.2 1.3 0 2.4 0 3.7 0 2-1.1 3.7-1.4 5.6-.3 1.9-1.1 3.4-1.7 5.3-.1.2-.5.3-.5 0-.2-.9-.2-.8-.3-1.7.3 0 .6.1.9.1-.3 1.2-.4 2.4-.9 3.5-.4.8-1 1.5-1.4 2.3-1.3 2.5-1.5 5.1-2 7.8-.2 1.2-.7 2.3-.9 3.5-.2 1.4-.1 2.8-.1 4.2-.3 3.3-.6 6.3-.9 9.3.1 0 0 .1 0 0z"/><path d="M-22-47.1c-2.1-2.3-6.3-2.2-6.1-6.2.1-2.9 4.9-4.2 7.3-4 .9.1 1.7.4 2.6.6 1.9.3 3.5-.1 5.3-.4 1.6-.3 2.5-.2 3.8.6 1.3.7 5 1 4.1 3.3-.1.2-.3.1-.3-.1.4-1.5-3.7-2.4-4.8-2.8-2.3-.8-5.1.6-7.5.3-1.9-.3-3.6-1-5.6-.4-2 .6-4.8 2.2-4 4.6.8 2.3 3.9 2.7 5.3 4.5.1 0 0 .1-.1 0z"/><path d="M-12.3-2.3c0-2.3 1.2-4.7 1.7-6.9.6-2.6.2-5.1.7-7.7.4-1.9-.4-3.6.7-5.4.4-.6.9-1.1 1.2-1.8.3-.6.4-1.4.5-2 .3-1.5.5-3 .5-4.5.2 0 .4.1.5.1-.1.3-.3.7-.6.9-.1.2-.4.1-.4-.1-.4-1.3.6-2.4 1.1-3.6 1.1-2.4 1.1-6.4.6-8.8-.5-2.3-1.2-3.9-.9-6.4.1-.9.2-1.8.5-2.6.3-1.1 1.5-2.8.6-3.9-.2-.2.1-.5.3-.3 1.1 1 .4 2.5 0 3.7-.9 2.9-.7 5.5.1 8.3.7 2.3.5 4.4 0 6.7-.2 1-.2 2.1-.6 3-.4 1-.9 1.8-1.3 2.8.1-.3.5-.2.6.1.2 2.1-.1 4.8-.8 6.8-.3.6-.8 1-1 1.6-.7 1.5-.3 3-.5 4.5s-.6 2.8-.6 4.4c0 1-.1 2-.4 3-.6 2.7-2 5.4-2.5 8.1zm-13.6-37c-.5-3-1.6-5.2-4.2-6.8-1.2-.7-3.2-1.7-3.5-3.3-.6-2.7 4.1-4.6 6.1-3.6.3.1.1.5-.1.5-.9 0-1.8 0-2.7.2-1.9.5-2.8 3-1 4.3 1.1.8 2.3 1.3 3.3 2.1 2.1 1.7 2.2 4 2.5 6.5-.1.2-.4.3-.4.1zm-31.4 84.1c-.7-1.3.3-2.7 1.7-2.9 1.5-.2 3 .4 4.5.4 1.4 0 5.1 0 5.4-1.7 0-.1.2-.1.2 0 .3 1.4-.6 1.9-1.9 2.1-1.3.2-2.8.2-4.1.2-1 0-7-1-5.7 1.8.1.1 0 .2-.1.1z"/><path d="M-59.8 43.6c-.1.7 1.1 1.8 1.7 2.3 1.9 1.4 2.6.7 4.4 1.1.7.1 1.3.6 2 .9 1.6.9 3 1.4 4.8 1.6.1 0 .1.2 0 .2-1.6 0-3-.4-4.4-1.2-1.2-.7-2.3-1.3-3.8-1.4-.6 0-1.1.1-1.7-.1-1.1-.3-3.5-2.3-3.2-3.6.1.1.2.1.2.2z"/><path d="M-56.4 44.8c0 .3.1.6.2.9 0 .1.2.6.2.6.2 0 .5-1 .6-1.2h.1c.1.3-.2 1.6-.7 1.5-.2-.1-.3-.4-.3-.6-.2-.4-.3-.8-.1-1.2 0-.1 0 0 0 0zm7.5 1.1c0 .3 0 .5.1.7 0 .2.1.7.3.8.3.1.7-1.2.8-1.4.1-.1.3 0 .2.1-.2.3-.5 1.8-1 1.6-.2-.1-.3-.5-.4-.7-.1-.4-.1-.8-.1-1.1 0-.1.1-.1.1 0zm1.9.4c0 .5 0 1 .2 1.4.1.4.3.2.5 0l.7-.7c.1-.1.2 0 .1.1l-.6.6c-.1.1-.2.3-.4.4-.2.1-.3.1-.4-.1-.3-.3-.2-1.2-.1-1.7-.1 0 0 0 0 0z"/><path d="M-59.9 43.7c-.1-.8.7-.5 1.1-.3.8.4 1.3 1.4 2.2 1.7.1 0 .1.2 0 .2-.6 0-1.1-.7-1.6-1-.2-.3-1.6-1.4-1.7-.6.1.1 0 .1 0 0zM-61.3 55c.4-.3 1-.3 1.4 0 .3.3.5 1 .3 1.5 0 .1-.1.1-.2 0-.2-.3-.2-.6-.5-.8-.2-.1-.5-.3-.8-.3-.3 0-.4-.3-.2-.4zm16.4 4.3c.6.3 1.3.6 1.8-.1.3-.5.2-1 .1-1.5 0 0 0-.1.1 0 .5.6.5 1.5-.1 2-.7.4-1.5.2-1.9-.4z"/></symbol><use xlink:href="#Afghan_Hound" width="145.4" height="128.1" x="-72.7" y="-64" transform="matrix(10.6676 0 0 -10.6676 703.155 733.877)" overflow="visible"/></svg>