<svg xmlns="http://www.w3.org/2000/svg" viewBox="0 0 948.1 768"><style>.st0{fill:#d02c17}.st1{fill:#e75f0d}.st3{fill:#fff}</style><g id="Record"><circle transform="rotate(-45.001 477.655 381.171)" class="st0" cx="477.7" cy="381.2" r="379.3"/><circle transform="rotate(-45.001 477.655 381.171)" class="st1" cx="477.7" cy="381.2" r="368.8"/><circle cx="477.7" cy="381.2" r="358.2"/><path d="M352.2 704.6C176.3 627.2 96.5 421.9 173.9 246.1 248.1 77.4 445 .8 613.7 75 775.5 146.3 849 335.2 777.8 497c-68.3 155.2-249.5 225.7-404.7 157.3-148.9-65.5-216.5-239.3-151-388.2C285 123.3 451.7 58.5 594.5 121.4c137 60.3 199.1 220.2 138.9 357.2-57.8 131.4-211.2 191-342.6 133.2-126-55.5-183.2-202.6-127.8-328.6 53.2-120.9 194.3-175.7 315.2-122.5 115.9 51 168.6 186.4 117.5 302.3-48.9 111.2-178.8 161.7-290 112.8C299 528.9 250.6 404.3 297.5 297.6c45-102.3 164.5-148.8 266.8-103.7 98.2 43.2 142.7 157.8 99.5 255.9-41.4 94.1-151.3 136.9-245.5 95.4C328 505.5 287 400 326.7 309.7c38.3-86.7 139.4-126 226-87.9 83.1 36.6 120.8 133.6 84.2 216.7-35.1 79.7-128.1 115.9-207.8 80.8C352.7 485.7 318 396.4 351.6 320" fill="none" stroke="#706f6f" stroke-width=".5" stroke-miterlimit="10"/><path class="st0" d="M477.7 523.3c-78.5 0-142.2-63.6-142.2-142.2S399.1 239 477.7 239s142.2 63.6 142.2 142.2-63.7 142.1-142.2 142.1zm10.5-142.1c0-5.8-4.7-10.6-10.6-10.6-5.8 0-10.6 4.7-10.6 10.6s4.7 10.6 10.6 10.6c5.9 0 10.6-4.8 10.6-10.6z"/></g><g id="Text"><path class="st0" d="M556 437.3h59.6v117.9H556z"/><path class="st0" d="M485.1 650.3c-14.1 0-26.2-4.7-35.9-13.9-9.9-9.4-15.1-21.9-15.1-36.1v-14.6c-.1 0-.1-.1-.2-.1-1 1.2-2 2.3-3.2 3.4-9.5 9.3-21.8 14.2-35.4 14.2-13.9 0-26.1-5-35.6-14.4-4.1-4.1-7.4-8.8-9.8-14-2.4 5.2-5.8 9.9-10 14.1-9.5 9.3-21.8 14.3-35.6 14.3-13.9 0-26.1-5-35.6-14.4-1.1-1.1-2.1-2.2-3.1-3.4-14.4 11.8-31.7 17.8-51.3 17.8-19.8 0-37.1-6-51.5-17.7-1.1 1.4-2.4 2.7-3.7 4-9.5 9.3-21.7 14.2-35.4 14.2-31.2 0-58-11-79.7-32.6-21.6-21.6-32.6-48.4-32.6-79.7V470c0-31.2 11-58 32.6-79.7 21.6-21.6 48.4-32.6 79.7-32.6 13.8 0 26.1 4.9 35.6 14.3 8.3 8.2 13.3 18.7 14.4 30.5 2.8-.5 5.7-.7 8.7-.7 12 0 22.8 3.7 31.6 10.8 8.9-7.2 19.9-11.1 32-11.1 13.9 0 26.2 5 35.6 14.4 1.1 1.1 2.1 2.2 3.1 3.4 14.5-11.8 31.8-17.8 51.5-17.8 3.2 0 6.3.3 9.4.8 1.2-11.5 6-21.8 14.1-29.9 9.4-9.4 21.7-14.4 35.6-14.4 14.6 0 26.7 4.7 36 13.8 8.1 8 12.8 18.1 13.9 30.2 2.6-.4 5.3-.6 8.1-.6 12.7 0 23.5 3.5 32.3 10.5 8.8-6.9 19.5-10.5 31.3-10.5 13.9 0 26.2 5 35.6 14.4 9.4 9.4 14.4 21.7 14.4 35.6v116.9c0 22.7-8 42.2-23.8 58-15.7 16-35.2 24-58 24zM117.8 480.7c1.4.7 3.4 1.4 6.7 1.4 2.9 0 5.7.2 8.4.7v-4.2c-2.7.4-5.5.7-8.4.7-3.3 0-5.4.7-6.7 1.4zm605.7 169.6c-23 0-42.8-7.8-58.6-23.3-8.9-8.7-15.3-18.6-19.3-29.8-7.3 3.9-15.5 6-24.4 6-13.9 0-26.2-5-35.6-14.4-9.4-9.4-14.4-21.7-14.4-35.6v-145c0-13.8 4.9-26.1 14.3-35.6s21.8-14.6 35.7-14.6c13.8 0 26.2 5 35.7 14.5 4.4 4.4 7.8 9.3 10.2 14.7 3.1-.6 6.3-.9 9.6-.9 8 0 15.5 1.7 22.3 4.9 2.6-7.3 6.8-13.9 12.6-19.7 10.2-10.2 23.3-15.7 37.7-15.7 14.4 0 27.5 5.4 37.7 15.7 10.2 10.2 15.7 23.3 15.7 37.7 0 .9 0 2.1-.1 3.6 10.8-6.2 22.8-9.9 35.9-11.1 1.3-11.3 6.1-21.3 14.1-29.4 9.5-9.5 21.7-14.5 35.4-14.5 13.8 0 26.1 4.9 35.6 14.3s14.6 21.8 14.6 35.7V513c0 25-8.9 46.5-26.4 64-17.5 17.4-39 26.2-64 26.2-22.9 0-42.3-6.8-57.8-20.2-1.6 2.1-3.3 4.1-5.3 6-3.4 3.3-7.1 6-11.1 8.2v3.1c0 13.9-5 26.1-14.4 35.6-9.6 9.4-21.9 14.4-35.7 14.4z"/><path class="st1" d="M517 412.5c-11.1 0-20.5 3.8-27.9 11.1-1.3 1.3-2.4 2.6-3.5 3.9-1.1-1.5-2.4-3-3.8-4.4-7.2-7.1-16.8-10.7-28.4-10.7-6.9 0-13.2 1.5-18.7 4.4v-8.7c0-11.7-3.7-21.2-10.9-28.4-7.2-7.1-16.8-10.7-28.4-10.7-11.1 0-20.5 3.8-27.9 11.2-7.4 7.4-11.2 16.8-11.2 27.9v9.6c-5.9-3.4-12.5-5.2-19.9-5.2-19.7 0-36.7 6.9-50.3 20.5-1.2 1.2-2.3 2.4-3.4 3.6-1.9-4.8-4.7-9.1-8.5-12.9-7.4-7.4-16.8-11.2-27.9-11.2-11.1 0-20.5 3.8-27.9 11.1-1.5 1.4-2.8 3-4 4.6-1.1-1.5-2.3-2.9-3.7-4.2-7.5-7.5-16.9-11.3-28-11.3-7.2 0-13.7 1.6-19.3 4.8v-9.8c0-11.1-3.8-20.5-11.4-27.9-7.5-7.4-16.9-11.1-27.9-11.1-28.3 0-52.5 9.9-72 29.4s-29.4 43.7-29.4 72v21.4c0 28.3 9.9 52.5 29.4 72s43.7 29.4 72 29.4c10.9 0 20.2-3.7 27.8-11.1 4-3.9 7-8.4 8.9-13.5 1.1 1.2 2.2 2.4 3.4 3.6 13.6 13.6 30.6 20.5 50.5 20.5 19.8 0 36.7-6.9 50.3-20.6 1.1-1.1 2.2-2.3 3.2-3.5 1.9 4.8 4.7 9.1 8.5 12.9 7.4 7.4 16.8 11.2 27.9 11.2 11 0 20.4-3.8 27.9-11.2 7.5-7.4 11.4-16.8 11.4-27.9v-41.8c4.6-.9 8.7-2.4 12.5-4.5v46.3c0 11.1 3.8 20.5 11.2 27.9 7.4 7.4 16.8 11.2 27.9 11.2 10.9 0 20.2-3.7 27.8-11.1 3.8-3.7 6.7-7.9 8.6-12.5 3.9 4.4 8.2 8.3 13.1 11.6v20.1c0 11.3 3.9 20.8 11.7 28.2 7.6 7.2 17.2 10.9 28.4 10.9 19.7 0 36.7-6.9 50.4-20.6 13.7-13.7 20.6-30.6 20.6-50.4v-117c0-11.1-3.8-20.5-11.2-27.9-7.4-7.4-16.8-11.2-27.9-11.2zm-406.7 76.3c-3-2.2-5.2-4.8-6.8-8 1.6-3.2 3.8-5.9 6.8-8 3.9-2.9 8.6-4.2 14.2-4.2 7.1 0 13.5-1.7 19.2-4.9V498c-5.7-3.2-12.1-4.9-19.2-4.9-5.7-.1-10.3-1.5-14.2-4.3zm805.5-109c-7.5-7.4-16.9-11.1-27.9-11.1-10.9 0-20.3 3.8-27.8 11.3-7.5 7.5-11.3 16.9-11.3 27.8v4.4h-1.1c-22.3 0-41.3 7.7-56.5 23-1.2 1.2-2.4 2.5-3.5 3.8-.5-3.2-1.4-6-2.6-8.3 6-8.2 6.7-17.8 6.7-21.4 0-11.6-4.2-21.7-12.5-30s-18.4-12.5-30-12.5c-11.6 0-21.7 4.2-30 12.5s-12.5 18.4-12.5 30v1.5c-.7-.8-1.4-1.6-2.1-2.3-7.5-7.5-16.9-11.3-28-11.3-6 0-11.6 1.2-16.7 3.6-1.4-7.9-4.9-14.8-10.7-20.6-7.5-7.5-16.9-11.3-28-11.3-11.1 0-20.5 3.8-27.9 11.4-7.4 7.5-11.1 16.9-11.1 27.9v145.1c0 11.1 3.8 20.5 11.2 27.9 7.4 7.4 16.8 11.2 27.9 11.2 11 0 20.4-3.8 27.9-11.2 1.1-1.1 2.1-2.2 3.1-3.4 1.9 16.2 8.7 30.1 20.3 41.4 13.7 13.4 30.9 20.2 51 20.2 11.1 0 20.5-3.8 27.9-11.2 7.4-7.4 11.2-16.8 11.2-27.9v-10.2c5.3-1.8 10.1-4.8 14.4-8.9 4.9-4.8 8.2-10.4 10-16.7 1.3 1.5 2.6 3 4 4.6 14.3 15.4 33.4 23.3 56.6 23.3 22 0 41-7.8 56.3-23.1 15.4-15.3 23.2-34.3 23.2-56.3V407.7c-.1-11.1-3.9-20.5-11.5-27.9z"/><path d="M152.6 553.7c0 8.1-2.7 14.9-8.2 20.2-5.5 5.4-12.2 8-20.2 8-25.4 0-46.8-8.7-64.3-26.2s-26.2-38.9-26.2-64.3V470c0-25.4 8.7-46.8 26.2-64.3s38.9-26.2 64.3-26.2c8.1 0 14.9 2.7 20.3 8 5.4 5.4 8.1 12.1 8.1 20.2v21.4c0 8.1-2.7 14.9-8.1 20.3-5.4 5.4-12.1 8.1-20 8.1s-14.8 2.1-20.5 6.3c-5.8 4.2-9.8 9.8-12.1 16.8 2.3 7 6.3 12.6 12.1 16.8 5.8 4.2 12.6 6.3 20.5 6.3s14.6 2.7 20 8.1c5.4 5.4 8.1 12.2 8.1 20.3v21.6z"/><path class="st3" d="M138.7 532.3c0-4.3-1.4-7.8-4.1-10.5-2.7-2.7-6.2-4.1-10.5-4.1-13.6 0-24.9-4.6-34-13.7-9.1-9.1-13.7-20.5-13.7-34 0-13.6 4.6-24.9 13.7-34 9.1-9.1 20.5-13.7 34-13.7 4.3 0 7.8-1.4 10.5-4.1 2.7-2.7 4.1-6.2 4.1-10.5s-1.4-7.7-4.1-10.4c-2.7-2.6-6.2-4-10.5-4-21.5 0-39.7 7.4-54.5 22.2s-22.1 33-22.1 54.5 7.4 39.7 22.2 54.5c14.8 14.8 32.9 22.2 54.5 22.2 4.3 0 7.8-1.3 10.5-4 2.6-2.6 4-6.1 4-10.4z"/><path d="M274.6 521.4c0 16.8-5.8 31.1-17.3 42.7-11.6 11.6-25.8 17.4-42.6 17.4-17 0-31.3-5.8-42.8-17.3-11.6-11.6-17.3-25.8-17.3-42.8V452c0-8.1 2.7-14.9 8-20.3 5.4-5.4 12.1-8.1 20.2-8.1s14.9 2.7 20.3 8.1c5.4 5.4 8.1 12.2 8.1 20.3v48c0 2.3 1.1 3.4 3.4 3.4 2.1 0 3.2-1.1 3.2-3.4v-48.4c0-8.1 2.7-14.9 8.1-20.2 5.4-5.4 12.2-8 20.3-8 8.1 0 14.9 2.7 20.2 8s8 12.1 8 20.2v69.8z"/><path class="st3" d="M260.7 500v-48.4c0-4.3-1.3-7.7-4-10.4-2.6-2.6-6.1-4-10.4-4s-7.8 1.3-10.5 4c-2.7 2.6-4.1 6.1-4.1 10.4V500c0 4.9-1.6 9-4.9 12.3-3.3 3.4-7.4 5-12.2 5-4.9 0-9-1.7-12.3-5-3.4-3.4-5-7.5-5-12.3v-48c0-4.3-1.4-7.8-4.1-10.5-2.7-2.7-6.2-4.1-10.5-4.1s-7.7 1.4-10.4 4.1c-2.6 2.7-4 6.2-4 10.5v48c0 13.3 4.4 24.3 13.2 33.1 8.8 8.8 19.8 13.2 33.1 13.2 13.1 0 24.1-4.4 32.9-13.3 8.8-8.9 13.2-19.9 13.2-33z"/><path d="M364.7 473c0 8.4-2.5 15.1-7.6 20s-11.7 7.7-19.8 8.5c-2.9.1-4.3 1.2-4.3 3.2v48.6c0 8.1-2.7 14.9-8.1 20.2-5.4 5.4-12.2 8-20.3 8-8.1 0-14.9-2.7-20.2-8-5.4-5.4-8-12.1-8-20.2v-70c0-16.8 5.8-31 17.4-42.6 11.6-11.6 25.9-17.3 42.7-17.3 8 0 14.7 2.7 20.1 8.1 5.4 5.4 8.1 12.1 8.1 20.1V473z"/><path class="st3" d="M350.8 451.6c0-4.1-1.4-7.6-4.1-10.3-2.7-2.7-6.1-4.1-10.3-4.1-13.1 0-24.1 4.4-33 13.2-8.9 8.8-13.3 19.7-13.3 32.9v48.6c0 4.3 1.3 7.7 4 10.4 2.6 2.6 6.1 4 10.4 4 4.3 0 7.8-1.3 10.5-4 2.7-2.6 4.1-6.1 4.1-10.4v-48.6c0-4.8 1.6-8.8 4.8-11.9 3.2-3.1 7.2-4.8 12.1-5.2 9.9-.9 14.8-5.7 14.8-14.6z"/><path d="M423.9 553.3c0 8.1-2.7 14.9-8.2 20.2-5.5 5.4-12.2 8-20.2 8-8.1 0-14.9-2.7-20.2-8-5.4-5.4-8-12.1-8-20.2V408.2c0-8.1 2.7-14.9 8-20.2 5.4-5.4 12.1-8 20.2-8 8.7 0 15.6 2.5 20.8 7.6 5.1 5.1 7.7 12 7.7 20.7v145z"/><path class="st3" d="M410 531.9V408.2c0-9.6-4.9-14.3-14.6-14.3-4.3 0-7.7 1.3-10.4 4-2.6 2.6-4 6.1-4 10.4V532c0 4.3 1.3 7.7 4 10.4 2.6 2.6 6.1 4 10.4 4 4.3 0 7.8-1.3 10.5-4 2.7-2.8 4.1-6.2 4.1-10.5z"/><path d="M546.6 568.5c0 16.8-5.8 31.1-17.4 42.7-11.6 11.6-25.9 17.4-42.7 17.4-8.4 0-15.4-2.6-21-7.9-5.6-5.3-8.3-12.1-8.3-20.3V579c0-1.6.1-3.1.4-4.5-9.6-5.1-17.1-12.4-22.7-21.7-5.6-9.3-8.3-19.8-8.3-31.4v-69.8c0-8.1 2.7-14.9 8-20.2s12.1-8 20.2-8c8.7 0 15.6 2.5 20.8 7.6 5.1 5.1 7.7 12 7.7 20.7V500c0 2.3 1.1 3.4 3.4 3.4 2.1 0 3.2-1.1 3.2-3.4v-48.4c0-8.1 2.7-14.9 8.1-20.2 5.4-5.4 12.2-8 20.3-8s14.9 2.7 20.2 8c5.4 5.4 8 12.1 8 20.2v116.9z"/><path class="st3" d="M532.7 547.1v-95.5c0-4.3-1.3-7.7-4-10.4-2.6-2.6-6.1-4-10.4-4s-7.8 1.3-10.5 4c-2.7 2.6-4.1 6.1-4.1 10.4V500c0 4.9-1.6 9-4.9 12.3-3.3 3.4-7.4 5-12.2 5-4.9 0-9-1.7-12.3-5-3.4-3.4-5-7.5-5-12.3v-48.4c0-9.6-4.9-14.3-14.6-14.3-4.3 0-7.7 1.3-10.4 4-2.6 2.6-4 6.1-4 10.4V500c0 13.3 4.4 24.3 13.2 33.1 8.8 8.8 19.8 13.2 33.1 13.2 6 0 11.7-1.1 17.1-3.2v4.1c0 4.7-1.7 8.8-5.1 12.2-3.4 3.4-7.5 5.1-12.2 5.1h-.9c-4.3 0-7.8 1.4-10.5 4.1-2.7 2.7-4.1 6.2-4.1 10.5s1.4 7.7 4.1 10.4c2.7 2.6 6.2 4 10.5 4h.9c13.1 0 24.1-4.4 33-13.3 8.9-9 13.3-20 13.3-33.1z"/><path d="M777 445.6c-.7-4.7-2.9-9-6.2-12.5 6.2-5.9 10.1-14.3 10.1-23.6 0-17.8-14.1-32.2-31.5-32.2s-31.5 14.4-31.5 32.2c0 9.3 3.9 17.7 10.1 23.6-3.4 3.5-5.6 7.9-6.3 12.7 0 0-.8 3.8-.8 5.8v101.7c0 8.1 2.7 14.9 8 20.2 5.4 5.4 12.1 8 20.2 8 8 0 14.7-2.7 20.2-8 5.5-5.4 8.2-12.1 8.2-20.2V451.6c0-2.1-.1-4.1-.4-6h-.1z"/><path class="st3" d="M763.7 531.9v-80.3c0-9.6-4.9-14.3-14.6-14.3-4.3 0-7.7 1.3-10.4 4-2.6 2.6-4 6.1-4 10.4V532c0 4.3 1.3 7.7 4 10.4 2.6 2.6 6.1 4 10.4 4 4.3 0 7.8-1.3 10.5-4 2.8-2.8 4.1-6.2 4.1-10.5z"/><circle class="st3" cx="749.4" cy="408.7" r="16.9"/><path d="M751.7 600.4c0 8.1-2.7 14.9-8 20.2-5.4 5.4-12.1 8-20.2 8-17.3 0-31.8-5.7-43.5-17.1-11.7-11.4-17.6-25.8-17.6-43v-47.3c0-2.1-1.1-3.2-3.4-3.2h-9.4v35.3c0 8.1-2.7 14.9-8.1 20.2-5.4 5.4-12.2 8-20.3 8-8.1 0-14.9-2.7-20.2-8-5.4-5.4-8-12.1-8-20.2V408.2c0-8.1 2.7-14.9 8-20.3 5.4-5.4 12.1-8.1 20.2-8.1s14.9 2.7 20.3 8.1c5.4 5.4 8.1 12.2 8.1 20.3v19.3c1.9-5.9 5.2-10.6 10.2-14.1 4.9-3.6 10.5-5.4 16.8-5.4 8.1 0 14.9 2.7 20.3 8.1 5.4 5.4 8 14.9 8 23.1 0 4.3-1.9 14.2-5.5 19.4 9.6 4.3 19.8 25.8 19.8 41.2v47.3c0 2.3 1.1 3.4 3.4 3.4 8.7 0 15.7 2.6 21.1 7.8 5.4 5.2 8 12.1 8 20.7v21.4z"/><path class="st3" d="M737.8 579c0-9.7-4.8-14.6-14.3-14.6h-.9c-4.9 0-9-1.7-12.3-5-3.4-3.4-5-7.5-5-12.3v-47.3c0-16.7-7.1-29.6-21.2-38.7 4.7-7.6 7.1-15.8 7.1-24.6 0-4.3-1.4-7.8-4.1-10.5-2.7-2.7-6.2-4.1-10.5-4.1-4.1 0-7.6 1.4-10.3 4.1-2.7 2.7-4.1 6.1-4.1 10.3 0 4.6-1.5 8.5-4.4 11.9-2.9 3.4-6.7 5.2-11.2 5.7l-10.9-.2v-45.4c0-4.3-1.4-7.8-4.1-10.5-2.7-2.7-6.2-4.1-10.5-4.1s-7.7 1.4-10.4 4.1c-2.6 2.7-4 6.2-4 10.5V532c0 4.3 1.3 7.7 4 10.4 2.6 2.6 6.1 4 10.4 4 4.3 0 7.8-1.3 10.5-4 2.7-2.6 4.1-6.1 4.1-10.4v-49.2H659c4.7 0 8.8 1.7 12.2 5 3.4 3.4 5.1 7.4 5.1 12.1v47.3c0 13.3 4.4 24.3 13.2 33.1 8.8 8.8 19.8 13.2 33.1 13.2h.9c4.3 0 7.7-1.3 10.4-4 2.6-2.8 3.9-6.2 3.9-10.5z"/><path d="M916.3 513c0 19.1-6.7 35.3-20 48.6-13.3 13.3-29.6 19.9-48.7 19.9-19.3 0-35.5-6.6-48.7-19.8-13.2-13.2-19.8-29.4-19.8-48.7v-21.4c0-19.4 6.6-35.7 19.7-48.9 13.1-13.2 29.4-19.8 48.8-19.8 4.3 0 8.3.8 12 2.4v-17.6c0-8 2.7-14.7 8.1-20.1 5.4-5.4 12.1-8.1 20.1-8.1 8.1 0 14.9 2.7 20.3 8 5.4 5.4 8.1 12.1 8.1 20.2V513z"/><path class="st3" d="M902.4 491.6v-83.9c0-4.3-1.4-7.7-4.1-10.4-2.7-2.6-6.2-4-10.5-4-4.1 0-7.6 1.4-10.3 4.1-2.7 2.7-4.1 6.1-4.1 10.3v83.9c0 7.1-2.5 13.2-7.6 18.2s-11.2 7.5-18.3 7.5c-7.1 0-13.2-2.5-18.2-7.5s-7.5-11.1-7.5-18.2 2.5-13.2 7.5-18.3c5-5.1 11.1-7.6 18.2-7.6 4.3 0 7.8-1.3 10.5-4 2.7-2.6 4.1-6.1 4.1-10.4 0-4.3-1.4-7.8-4.1-10.5-2.7-2.7-6.2-4.1-10.5-4.1-15.6 0-28.5 5.2-39 15.7-10.4 10.5-15.6 23.5-15.6 39.1 0 15.4 5.2 28.4 15.7 38.9s23.4 15.7 38.9 15.7c15.4 0 28.4-5.2 39-15.7 10.6-10.4 15.9-23.3 15.9-38.8z"/><path d="M856.2 499.8c-3.3.1-7.8 1-13.7 2.6 1.6.7 3.3 1.1 5.1 1.1 3.4-.1 6.3-1.3 8.6-3.7z" fill="#ec6415"/><path class="st0" d="M483.8 768.2c-10.4 0-19.8-2.4-28.1-7.2-6.2 4.6-13.6 7-21.6 7-11.5 0-21.8-3-30.8-8.8-6.6 5.9-14.9 9-24.1 9h-9.6c-11.4 0-21.6-2.9-30.5-8.7-6.5 5.6-14.6 8.5-23.5 8.5-7.1 0-13.9-1.3-20.1-3.8-5 2.5-10.5 3.8-16.4 3.8-9.8 0-18.7-3.6-25.5-10.5-6.8-6.8-10.5-15.7-10.5-25.5v-53.3c0-15.7 5.5-29.2 16.3-40s24.3-16.3 40-16.3 29.2 5.5 40.1 16.3c3.1 3.1 5.8 6.5 8.1 10.2 6.8-2.8 14.1-4.2 22-4.2 10.3 0 20.3 2.8 29.7 8.3l2.4 1.5c9.3-6.6 20.2-9.9 32.4-9.9 8.2 0 15.7 2.5 21.9 7.2 8.3-4.7 17.6-7 27.8-7 12.7 0 24 3.6 33.6 10.7 9.1-7 20-10.7 31.9-10.7 7.9 0 15.1 2.3 21.2 6.8 4.4-2.5 9.2-4.3 14.2-5.5 1.8-4.9 4.6-9.3 8.3-13 6.9-6.8 15.7-10.5 25.5-10.5 9.9 0 18.7 3.6 25.5 10.3 4.8 4.8 8.1 10.6 9.6 17 6.8-3.4 14.4-5.1 22.4-5.1 9.9 0 18.7 3.6 25.5 10.3 6.9 6.8 10.6 15.7 10.6 25.7v10.8c0 9.5-3.4 18.1-9.9 24.9-1.4 1.4-2.8 2.7-4.4 3.9-.3 4.6-.9 8.5-1.8 11.8-2.1 7.8-6.3 15-12.5 21.2-9.8 9.8-21.7 14.7-35.5 14.7-8.2 0-15.7-2.5-21.9-7.2-8.4 4.8-17.8 7.3-28.1 7.3-14.1 0-26.5-4.5-36.7-13.4-.9 1.1-1.8 2.1-2.8 3-6.8 6.7-15.7 10.3-25.5 10.3-8 0-15.4-2.4-21.5-6.9-8.1 4.6-17.4 7-27.7 7z"/><path class="st1" d="M694 662.5c-4.8-4.7-11-7.2-17.9-7.2-10.9 0-20.2 3.8-27.8 11.4-1.7 1.7-3.2 3.5-4.5 5.4v-13.8c0-7-2.5-13.2-7.3-18-4.8-4.7-11-7.2-17.9-7.2-6.9 0-13.1 2.5-17.9 7.3-4.1 4.1-6.5 9.2-7.1 14.9-9.2.8-17.3 4.1-24.2 9.8-.7-.9-1.4-1.7-2.2-2.5-4.8-4.8-10.9-7.3-17.9-7.3-11.5 0-21.3 4-29.3 11.9-.9.9-1.7 1.8-2.4 2.7-.5-.5-.9-1-1.3-1.5-8.8-8.7-19.7-13.1-32.4-13.1-11.2 0-21 3.4-29.2 10.2-.8-1.1-1.7-2.2-2.6-3.1-4.8-4.8-11-7.3-18-7.3-12.7 0-23.5 4.4-32.2 13.1-2.1-2.1-4.7-4.2-8-6.1-7.7-4.5-15.9-6.8-24.2-6.8-10.2 0-19.2 2.9-26.8 8.4-2.1-6.5-5.8-12.4-10.9-17.5-8.8-8.7-19.7-13.1-32.4-13.1-12.8 0-23.7 4.4-32.4 13.1s-13.1 19.6-13.1 32.4V732c0 6.9 2.5 13.1 7.3 17.9 4.8 4.8 10.9 7.3 17.9 7.3 5.6 0 10.6-1.6 15-4.8.2-.2.5-.4.7-.5 6.1 3.5 13.1 5.3 20.7 5.3 6.9 0 13.1-2.5 17.9-7.2 1.7-1.7 3.1-3.5 4.2-5.5 8.7 8.5 19.5 12.9 32 12.9h9.6c7 0 13.2-2.5 18-7.3 1.8-1.9 3.3-3.9 4.5-6.2l.1.1c8.8 8.8 19.6 13.2 32.3 13.2 6.9 0 13-2.5 17.8-7.1 1-1 1.8-2 2.6-3 8.2 6.9 18 10.4 29.3 10.4 11.1 0 20.9-3.4 29.1-10.2.7 1 1.5 1.9 2.4 2.8 4.7 4.7 10.9 7.2 17.9 7.2 7 0 13.1-2.5 17.9-7.2 4.3-4.3 6.8-9.8 7.3-15.9 2 3.6 4.5 6.9 7.5 9.9 8.8 8.8 19.6 13.2 32.3 13.2 11.2 0 21.1-3.6 29.4-10.6.8 1.1 1.7 2.2 2.7 3.2 4.7 4.7 10.9 7.2 17.9 7.2 10.8 0 20.1-3.8 27.8-11.5 4.8-4.9 8.1-10.5 9.8-16.5 1.1-3.8 1.6-8.8 1.6-15.1 2.7-1.3 5.2-3.1 7.2-5.2 4.5-4.7 6.9-10.7 6.9-17.4v-10.8c-.3-7.1-2.9-13.3-7.7-18.1z"/><path d="M334.3 689.5c0 8.3-2.6 15.6-7.8 22 2.3 2.7 3.5 5.9 3.5 9.6v10.8c0 4.1-1.4 7.5-4.1 10.2-2.7 2.7-6.2 4.1-10.3 4.1-9.3 0-16.8-3.3-22.7-9.9-.9 3-2.7 5.3-5.1 7.2-2.5 1.8-5.4 2.7-8.6 2.7-4 0-7.4-1.4-10.2-4.1-2.7-2.7-4.1-6.1-4.1-10.2v-53.3c0-9.8 3.3-18.1 10-24.7 6.6-6.6 14.9-10 24.7-10s18.1 3.3 24.8 10c6.7 6.6 10 14.9 10 24.7-.1 1.9-.1 9-.1 10.9z"/><path class="st3" d="M327.2 678.6c0-7.9-2.7-14.5-8-19.7-5.3-5.3-11.9-7.9-19.8-7.9s-14.5 2.6-19.7 7.9c-5.3 5.3-7.9 11.9-7.9 19.7v42.5c0 2.1.7 3.8 2.1 5.2 1.4 1.4 3.1 2.1 5.2 2.1 2.2 0 3.9-.7 5.3-2s2.1-3.1 2.1-5.3v-42.5c0-3.6 1.3-6.7 3.8-9.2 2.5-2.5 5.6-3.8 9.2-3.8 3.6 0 6.7 1.3 9.3 3.8 2.6 2.5 3.8 5.6 3.8 9.2 0 3.6-1.3 6.7-3.8 9.3-2.6 2.6-5.7 3.8-9.3 3.8-2 0-3.6.7-5.1 2.2-1.4 1.4-2.2 3.1-2.2 5.1v6c0 6.7 2.2 12.3 6.7 16.7 4.4 4.4 10 6.7 16.6 6.7 2.2 0 3.9-.7 5.3-2s2.1-3.1 2.1-5.3c0-2.2-.7-4-2.1-5.4-1.4-1.3-3.2-2-5.5-2s-4.2-.8-5.9-2.4c-1.7-1.6-2.5-3.6-2.6-5.9 6.1-1.7 11-5.1 14.7-10 3.8-4.9 5.7-10.5 5.7-16.8z"/><path d="M302.2 684.1c-.9-.4-1.8-.5-2.7-.5-1.8 0-3.3.7-4.4 2 1.7-.3 4.1-.7 7.1-1.5zm96.7 13.4c0 4.6-1.8 8.3-5.5 11.3-.6.6-1.6 1.6-3 3.1 2.2 2.6 3.3 5.7 3.3 9.3V732c0 4.1-1.4 7.5-4.1 10.3s-6.1 4.1-10.2 4.1h-9.6c-9.8 0-18-3.3-24.7-10-6.7-6.7-10-14.9-10-24.8v-10.8c0-9.8 3.3-18.1 10-24.7 6.6-6.6 14.9-10 24.7-10 6.4 0 12.7 1.8 18.8 5.3 7 4 10.5 9.1 10.5 15.2-.2 2-.2 9-.2 10.9z"/><path class="st3" d="M391.8 686.7c0-1.8-.7-3.5-2.2-5-5.5-5.6-12.2-8.5-20.1-8.5-7.9 0-14.5 2.6-19.7 7.9-5.3 5.3-7.9 11.8-7.9 19.7 0 7.9 2.6 14.5 7.9 19.8 5.3 5.3 11.8 8 19.7 8h9.6c2.2 0 3.9-.7 5.3-2.1 1.3-1.4 2-3.1 2-5.3 0-2.2-.7-3.9-2-5.3-1.3-1.3-3.1-2-5.3-2h-9.6c-3.6 0-6.7-1.3-9.2-3.8-2.5-2.6-3.8-5.7-3.8-9.3 0-3.6 1.3-6.7 3.8-9.2 2.5-2.5 5.6-3.8 9.2-3.8.9 0 1.9.1 2.8.2l-7.8 7.7c-1.6 1.6-2.4 3.3-2.4 5.1 0 2 .7 3.8 2.2 5.3 1.5 1.5 3.2 2.3 5.3 2.3 1.8 0 3.5-.8 5.1-2.3l13.9-13.5c2.2-1.6 3.2-3.5 3.2-5.9z"/><path d="M448.5 732c0 4.1-1.4 7.5-4.2 10.2-2.8 2.7-6.2 4.1-10.2 4.1-9.8 0-18-3.3-24.7-10-6.7-6.7-10-14.9-10-24.7v-10.8c0-9.8 3.3-18.1 10-24.8 6.6-6.7 14.9-10 24.7-10 4.1 0 7.6 1.4 10.3 4.1 2.7 2.7 4.1 6.2 4.1 10.3v10.8c0 4.1-1.4 7.5-4.1 10.2-2.7 2.7-6.2 4.1-10.3 4.1-.9 0-1.8.2-2.6.7.8.4 1.7.5 2.6.5 4.1 0 7.6 1.4 10.3 4.1 2.7 2.7 4.1 6.2 4.1 10.3V732z"/><path class="st3" d="M441.5 721.1c0-2.2-.7-3.9-2.1-5.3-1.4-1.4-3.1-2.1-5.3-2.1-3.6 0-6.7-1.3-9.2-3.8-2.5-2.5-3.8-5.6-3.8-9.2 0-3.6 1.3-6.7 3.8-9.3 2.5-2.6 5.6-3.9 9.2-3.9 2.2 0 3.9-.7 5.3-2s2.1-3.1 2.1-5.3c0-2.2-.7-3.9-2.1-5.3-1.4-1.4-3.1-2.1-5.3-2.1-7.9 0-14.5 2.7-19.7 8-5.3 5.3-7.9 11.9-7.9 19.8 0 7.8 2.7 14.4 8 19.7 5.3 5.3 11.9 8 19.7 8 2.2 0 3.9-.7 5.3-2 1.3-1.2 2-3 2-5.2z"/><path d="M518.6 711.7c0 9.8-3.4 18-10.1 24.7-6.7 6.7-15 10.1-24.7 10.1-9.8 0-18.1-3.3-24.7-10-6.6-6.7-10-14.9-10-24.8v-10.8c0-9.8 3.3-18.1 10-24.7 6.6-6.6 14.9-10 24.7-10s18.1 3.3 24.8 10c6.7 6.6 10 14.9 10 24.7v10.8z"/><path class="st3" d="M511.6 700.9c0-7.9-2.7-14.5-8-19.7-5.3-5.3-11.9-7.9-19.8-7.9s-14.5 2.6-19.7 7.9c-5.3 5.3-7.9 11.8-7.9 19.7 0 7.9 2.6 14.5 7.9 19.8 5.3 5.3 11.8 8 19.7 8 7.9 0 14.5-2.7 19.8-8 5.3-5.4 8-12 8-19.8zm-14.7 0c0 3.6-1.3 6.7-3.8 9.3-2.6 2.6-5.7 3.8-9.3 3.8-3.6 0-6.7-1.3-9.2-3.8-2.5-2.6-3.8-5.7-3.8-9.3 0-3.6 1.3-6.7 3.8-9.2 2.5-2.5 5.6-3.8 9.2-3.8 3.6 0 6.7 1.3 9.3 3.8 2.6 2.5 3.8 5.6 3.8 9.2z"/><path d="M563.6 691.3c0 4.3-1.3 7.6-3.8 10.1-2.6 2.5-5.9 3.9-10 4.3-1.4.1-2.2.6-2.2 1.6V732c0 4.1-1.4 7.5-4.1 10.2-2.7 2.7-6.2 4.1-10.3 4.1s-7.5-1.4-10.2-4.1-4.1-6.1-4.1-10.2v-35.4c0-8.5 2.9-15.7 8.8-21.6 5.9-5.9 13.1-8.8 21.6-8.8 4 0 7.4 1.4 10.2 4.1 2.7 2.7 4.1 6.1 4.1 10.2v10.8z"/><path class="st3" d="M556.6 680.5c0-2.1-.7-3.8-2.1-5.2-1.4-1.4-3.1-2.1-5.2-2.1-6.6 0-12.2 2.2-16.7 6.7-4.5 4.4-6.7 10-6.7 16.6v24.6c0 2.2.7 3.9 2 5.3 1.3 1.3 3.1 2 5.3 2 2.2 0 3.9-.7 5.3-2s2.1-3.1 2.1-5.3v-24.6c0-2.5.8-4.5 2.4-6 1.6-1.6 3.7-2.4 6.1-2.7 5-.4 7.5-2.8 7.5-7.3z"/><path d="M633 711.6c0 9.7-3.4 17.9-10.1 24.6-6.8 6.7-15 10.1-24.7 10.1-9.8 0-18-3.3-24.7-10-6.7-6.7-10-14.9-10-24.7v-10.8c0-9.8 3.3-18.1 10-24.8 6.6-6.7 14.9-10 24.7-10 2.2 0 4.2.4 6.1 1.2v-8.9c0-4 1.4-7.4 4.1-10.2 2.7-2.7 6.1-4.1 10.2-4.1s7.6 1.4 10.3 4.1c2.7 2.7 4.1 6.1 4.1 10.2v53.3z"/><path class="st3" d="M625.9 700.8v-42.5c0-2.2-.7-3.9-2.1-5.3-1.4-1.3-3.1-2-5.3-2-2.1 0-3.8.7-5.2 2.1-1.4 1.4-2.1 3.1-2.1 5.2v42.5c0 3.6-1.3 6.7-3.8 9.2-2.6 2.5-5.7 3.8-9.3 3.8-3.6 0-6.7-1.3-9.2-3.8-2.5-2.5-3.8-5.6-3.8-9.2 0-3.6 1.3-6.7 3.8-9.3 2.5-2.6 5.6-3.9 9.2-3.9 2.2 0 3.9-.7 5.3-2s2.1-3.1 2.1-5.3c0-2.2-.7-3.9-2.1-5.3-1.4-1.4-3.1-2.1-5.3-2.1-7.9 0-14.5 2.7-19.7 8-5.3 5.3-7.9 11.9-7.9 19.8 0 7.8 2.7 14.4 8 19.7 5.3 5.3 11.9 8 19.7 8 7.8 0 14.4-2.7 19.7-8 5.4-5.3 8-11.8 8-19.6z"/><path d="M602.5 704.9c-1.7.1-4 .5-6.9 1.3.8.4 1.7.5 2.6.5 1.7 0 3.2-.6 4.3-1.8zm88-13.6c0 3.9-1.3 7.2-3.8 9.9-2.6 2.7-6.2 4.2-10.1 4.5 0-.1-.1 3.1-.1 5.9v2.1c0 5.4-.4 9.6-1.2 12.5-1.2 4.3-3.5 8.2-7 11.8-5.5 5.5-12.2 8.2-20.1 8.2-4.1 0-7.5-1.4-10.2-4.1s-4.1-6.1-4.1-10.2v-10.8c0-4 1.3-7.4 4-10.2 2.6-2.7 6-4.2 10-4.2v-1.3c0-.8 0-1.6.1-2.5-.1-.9-.1-1.7-.1-2.4v-6c0-7.9 2.7-14.7 8.2-20.1 5.5-5.5 12.2-8.2 20.1-8.2 4.1 0 7.5 1.4 10.3 4.1 2.7 2.7 4.1 6.1 4.1 10.2-.1 1.9-.1 8.9-.1 10.8z"/><path class="st3" d="M683.5 680.5c0-2.2-.7-3.9-2.1-5.3-1.4-1.3-3.1-2-5.3-2-6 0-11 2-15.1 6.1s-6.1 9.1-6.1 15.1v6c0 .5 0 2-.1 4.4v2.2c0 1.9-.6 3.5-1.9 4.7-1.3 1.3-2.8 1.9-4.7 1.9-2.2 0-3.9.7-5.3 2.1-1.3 1.4-2 3.1-2 5.3 0 2.2.7 3.9 2 5.3 1.3 1.3 3.1 2 5.3 2 5.9 0 10.9-2.1 15-6.2s6.2-9.1 6.2-15.1l.1-12.6c0-1.1.1-1.9.3-2.4.2-.5.7-1.3 1.7-2.2.9-.9 2.6-1.6 4.9-2 2.3-.4 4.1-1.2 5.3-2.4 1.2-1.2 1.8-2.8 1.8-4.9z"/></g></svg>