<svg version="1.1" id="Layer_1" xmlns="http://www.w3.org/2000/svg" xmlns:xlink="http://www.w3.org/1999/xlink" x="0" y="0" viewBox="0 0 1478.4 963" xml:space="preserve"><style>.st0{clip-path:url(#SVGID_5_)}.st2{fill:#c69658}.st3{fill:#fff}.st4{fill:#d0d0d0}.st7{fill:#1d1d1b}</style><symbol id="Jaguar" viewBox="-76.2 -47.9 152.5 95.8"><g id="Colours_5_"><defs><path id="SVGID_2_" d="M63.6-13.8c-4.7-.8-7.2 4.3-8.6 8.5-1.4 4.2-1.1 9.4-1.3 13.8-.1 3.7-1.2 15.5-6.7 21.8-6.9 7.8-26.2 12.2-37.9 11.4-4.8-.3-9.8-1-14.1-3.2-3.5-1.8-6.6-4.7-10.5-5.3-2.9-.5-5.7.4-8.6.8-4.4.7-8.8.4-13.2.1-4.3-.2-8.6-.5-12.9-.7-4.4-.3-9.3-.8-12.9-3.2-.6-.2-1.4.3-1.9.7-.5.5-1 1-1.6 1.1-.7.1-1.4-.4-1.7-1.1-.3-.7-.3-1.4-.3-2.1.1-1.4.5-2.9 1.6-3.8-1-2-1.4-3.4-1.3-5.7 0-.6.1-1.1 0-1.7-.1-1-.6-2-.6-3 0-1.5 1.2-2.7 1.3-4.2 0-.6-.1-1.2-.2-1.9-.1-1.1-.1-2.5.4-3.9.3-1.3.5-1.2.8-2 .2-.4 1.3-2.3 1.7-2.5.6-.4.9-.3 1.2-.1 1.7-.7 3.1-.4 4.9-.2.6.1 1.2.1 1.8.3 1.2.3 1.9 1.2 2.8 2.1.8.9 1.1 1.6 1.6 2.7.4.8.9 1.8 1.6 2.1.4.2.8.3 1.2.5 1.1.3 2.8 1 3.5 1.9 2.4-1.7 3.6-3.8 4.8-6.2.6-1.2 1.9-2.4 2.9-3.3 2.9-2.4 4.9-6.2 6.2-9.7 1.9-5.2 2.7-10.7 4.3-16 .6-1.8 1.2-3.5 1.4-5.4.2-1.8-.1-3.8-1.3-5.3-2.2.1-4.4-1.1-5.7-3.6-.2-.3-.4-.7-.2-1.1.1-.4.4-.6.7-.8.6-.3 1.3-.5 2-.7 1.7-.4 3.5-.6 5.2-.4 1.7.2 4.6 1.1 5.4 2.4.7 1.2 2.3 1.4 3.7 1.6 1.4.2 2.9.5 3.6 1.7.8 1.5-.2 3.4.3 5 .4 1.1 1.4 2 1.3 3.2-.1.5-.3 1-.5 1.4-.5 1.3-.3 2.8 0 4.2.7 3.8 1.5 7.6 2.2 11.4.1.8.3 1.7-.3 2.2v-.1c2.1.2 4.3.1 6.2 1 .8.4 1.6.9 2.4 1.1 1.3.4 2.6.1 3.9.2 1.9.2 3.5 1.2 5.2 2 4.4 2 10.1 2.4 15 2.7C23.8-5 24-6.7 24.8-9c1.1-2.9 2.5-5.7 4.4-8.2.9-1.3 2-2.5 2.8-3.9.3-.6.6-1.3.9-1.9.8-1.7 1.6-3.7.6-6.7-.6-.3-1.4-.3-2-.4-1.8-.3-3.2-1.9-3.4-3.7 0 0-1.9-.8-2.9-2.2-.1-.2-.3-.4-.3-.6v-.6c.1-.5.2-1.1.6-1.3 0-1.1.6-1.6 1.5-2.2 1.1-.8 2.7-.5 4.1-.3 1.5.2 3 .5 4.4.8.9.2 1.9.5 2.5 1.2.6.7.5 1.8.8 2.7.8 2.7 2.5 4.4 3 7.1.2 1.1 1.9 8.1 1.6 9.9-.2 1.7-.7 2.3-1.6 3.8 0 0-.4.5-1 3.6S42.6 0 45 5.3c0 0 .9-7 1.5-9.9 1.5-6.7 6-12.7 10.8-14.7 2.2-.9 4.5-1.3 6.9-1.4 1.4-.1 2.8-.1 4.1.3s2.2 1.5 2.8 2.7c.9 1.8.6 3.7-.3 5.4-.6 1-3.2 3.8-5.6 3.3-1.2-.2-2.1-2-2-3.1 0-.1.4-1 .4-1.7z"/></defs><clipPath id="SVGID_5_"><use xlink:href="#SVGID_2_" overflow="visible"/></clipPath><g id="Base_11_" class="st0"><path fill="#f1c172" d="M-73.6-47.9H76.2v95.8H-73.6z"/><g id="Dark_8_"><path class="st2" d="M-54.6 17.9c-.4.1-.8.2-1.2 0-.4-.3-4.3-4.6-2.8-7.7.1-.3.2-.6.4-.8.5-.8.2-1.7-.4-2.4-.6-.8-2.2-3.6-2.1-4.4 0-.8.4-1.1 1.3-.8.9.3 2.3 2.8 2.7 3 1.8 1.1 3.7 2.2 5.2 3.7.8.8 1.5 1.8 2.4 2.5.7.5 1.4 1.2 2.1 1.6 1 .5 5.3-2.7 6.2-1.9.7.7-1.3 3.1-1.5 3.8-.6 2-1.2 3.9-3 5.2-.4.3-.9.5-1.3.9-.9.7-1.4 1.9-1.2 3.1 0 .2.1.4.2.5.1.1.3.2.4.3 1.4.8 1 3.6-.7 2.5s-.7-4.2-.2-5.7c.1-.3.2-.6.3-1 0-.3 0-.6-.1-.9-.1-.7-.4-1.5-.9-2-1.4-1.7-4.3.1-5.8.5zm-12.3 5c.8 1.4 2.1 2.4 3.3 3.4 1.3 1 2.5 2 3.8 3 .7.6 1.5 1.2 2.3 1.6 1.4.8 2.9 1.2 4.4 1.7 1.9.5 3.8 1.1 5.7 1.6-7 1.2-14.2 1.4-21.3.7-1.9-.2-3.9-.5-5.3-1.7-1.3-1.1-2-2.9-2.1-4.6-.1-1.7.5-3.5 1.3-5 .4-.7.8-1.4 1.3-1.9.6-.6 1.4-1 2.2-1.4.8-.4 2.6-1.6 3.4-.9.5.6.5 2.7 1 3.5zm34.1-19c.7-1.6.8-3.5 1.4-5.1.7-1.6 1.9-3 2.7-4.6.9-1.7 1.2-3.6 1.1-5.5-.2-1.7-.7-3.4-.4-5.1.1-.8.5-1.6.8-2.3 1.2-3.6.8-7.5 0-11.2-1.9 5.2-5.6 9.5-7.8 14.5-3.2 7-3.5 14.9-6.2 22.1-.3.9-1.1 2.8.1 3.3.8.3 2.6-.9 3.3-1.3 2-1 4-2.5 5-4.8zm53.6 10.8c.1 1 .3 1.9.1 2.9-.1 1-.6 1.9-1.5 2.3-1.5.8-3.3-.4-4.5-1.7-1.5-1.5-2.8-3.1-4-4.7-.7-1-1.4-2.1-2.3-3C7.3 9 5.5 8 3.7 7.1c-2.5-1.2-5-2.3-7.6-3.3-1.4-.5-2.8-1-4-1.9C-9 1.1-10 0-11.1-.8c-1.4-1.2-3.1-2-4.3-3.4-.3-.3-.6-.7-.7-1.2-.3-1.2.6-2.4 1.7-2.9s2.4-.4 3.6-.3c4.4.4 8.7.8 13.1.5 4.4-.3 8.8-1.5 12.2-4.1 1.2-.9 2.4-2 3.8-2.1 1-.1 1.9.3 2.6 1 .8.9 1 2 1.2 3.2.4 2.2 1 4.4 1.3 6.6.3 1.8-.6 3.3-1.2 5-1.3 4.1-1.9 8.8-1.4 13.2z"/><path class="st2" d="M31.3-9.5c1.3 0 2.6-.2 3.9-.5.3-.1.6-.1.9-.3.5-.4.7-1.1.8-1.7.1-2.2-1.2-4.1-1.7-6.2-.7-2.6-.4-5.4-1.3-7.9l-.3-.6c-.6-.5-1.4.1-1.9.7-1.5 1.7-3 3.4-4.6 5.2-.7.8-1.5 1.6-2 2.6-.5.9-.8 2-1 3-.4 1.4-2.8 7.6-.8 7.7 1 0 2.4-1.2 3.4-1.5 1.4-.6 3.1-.4 4.6-.5zm-1.5-30.1c-.4-.2-.9-.4-1-.8-.1-.6.6-.9 1.2-1.1 1.7-.4 3.4-.9 5.2-.9 1.8 0 3.6.3 5 1.3 2.1 1.5 3.2 4.2 2.8 6.8-.5 3.1-4.5 7.7-6.2 2.9-1.2-3.6-3.3-6.7-7-8.2zm19.6 58.2c.4-4.2.1-8.4.8-12.5.7-4.1 2.7-8.3 6.4-10.3.4-.2.9-.4 1.4-.4.9 0 1.6.7 2.1 1.4 1.9 2.7 1.5 6.3 1.5 9.6 0 2.1.2 4.2 0 6.2-.8 6.1-5.4 10.9-9.2 15.8-.9 1.1-1.8 2.3-2.9 3.2-.8.6-2.4 1.5-3 .4-.6-1 .6-2.9.9-3.7 1-3.2 1.7-6.5 2-9.7zm-102.5 8.3c-.2-.5-.4-1-.3-1.5.1-.5.7-1 .5-1.5-.1-.1-.2-.3-.1-.4 0-.2.4-.3.6-.3.5 0 1 .1 1.5.1.2 0 .4 0 .6.2.1.1.2.3.2.5.4 1.6.7 3.1 1 4.7.2 1-1.4 1.1-2.1.8-.9-.4-1.5-1.8-1.9-2.6zm-14.3-9.5c.4-1.5 1.1-3 1.1-4.6 0-1 0-1.7-.2-2.6-.4-1.9-1.1-4-1.5-5.9-1.7 2.2-2.1 5.1-2.5 7.8-.2 1.7-.4 3.3-.2 5 .2 1.3.7 2.6 1.1 3.9.2.5.4 1.1 1 1.4.3.1.8.1 1-.2.4-.5-.1-.5-.1-.9-.2-1.2.1-2.7.3-3.9z"/></g><g id="Light_8_"><g id="Layer_23_1_"><path class="st3" d="M-19.9.2c-.3-.7-.3-1.5-.7-2.3-.5-.9-1.4-1.5-1.9-2.4-1.4-2.1-.7-5 .3-7.4s2.2-5 1.5-7.5c-.3-1.1-1-2.1-1.1-3.2-.1-.8.2-1.6.1-2.3-.1-.6-.3-1.2-.5-1.9-.6-2.9 1.7-5.8 1.2-8.8-.2-1-.6-2-1.3-2.7-.8-.9-2.1-.8-3.3-1h-.5c-.2.1-.3.4-.4.6-.4.8-1.4 1.2-2.3 1.4-.7.2-1.5.4-2.2.5-.9.2-1.8.3-2.6-.1-1.1-.5-1.7-1.9-1.4-3.1.3-1.2 1.2-2.2 2.4-2.7.7-.3 1.4-.4 2.1-.6 4.9-.9 10.5-1.7 15.1.6 1.3.5 2.6 1.2 3.6 2.2 1 1 1.7 2.4 2.4 3.7.9 1.8 1.7 3.7 2 5.6.2 1 .2 1.9.6 2.8.3.7.7 1.3 1.3 1.8 3.2 3.3 8.1 3.8 12.5 4.9 5.7 1.4 11.3 4.2 15.2 8.6.6.7 1.2 1.4 1.4 2.3.3.8.2 1.6.2 2.4 0 1.8 0 3.6-.8 5.2-.3.6-.6 1.1-.9 1.7-.3.6-.5 1.2-.7 1.8-1.1 2.2-3.3 3.8-5.7 4.1-2.4.4-4.9-.4-6.9-1.8-.7-.5-1.3-1.1-2-1.6C3.7-1.2-.7-.7-4.6-1.6c-3.6-.8-7-3-10.7-3-.9 0-2 .3-2.2 1.2-.1.3 0 .6.1.9.2 1.6-1.4 6-2.5 2.7zm59.2-29.4c-.4 1-.9 2.1-1.1 3.2-.2 1.7.5 3.5 1.5 4.9 1 1.5 2.2 2.8 3 4.3.2.4.4.9.4 1.3-.1 1.1-1.5 1.8-1.7 2.9-.1.5.2 1.1.4 1.5 2.2 4.4 3 9.3 2.4 14.1-.2 1.2-.4 2.6.2 3.6.2.4.6.8 1 .7.2-.1.3-.2.4-.4 1.2-1.6 1.9-3.5 2.8-5.3 1.4-2.7 3.4-5 5.3-7.2 1-1.2 2.1-2.4 3.5-2.9 1.3-.5 2.5-.5 3.7-.4 2.2.1 4.3.4 6.4.8 2.5.3 5.3.8 7.1-.9 1.2-1.1 1.5-3 1.2-4.6s-1.3-3-2.4-4.3c-2-2.4-4.6-4.4-7.5-5.7-2.9-1.2-6.2-1.6-9.3-.9-.6.1-1.3.3-1.9.2-.5-.1-.9-.3-1.3-.6-1.9-1.4-2.8-3.8-4-5.9-1.6-2.9-3.8-5.4-6-7.8-.6-.7-1.3-1.5-2.2-2-.8-.5-2.6-1-3.4 0-.7.8.2 1.7.6 2.5 1.7 2.6 2 5.9.9 8.9zm-7.4-3.9l-2-.3c-.5-.2-1.1-.3-1.6-.7-.5-.3-.8-1-.5-1.5.3-.4 1-.5 1.1-1v-.6c.1-.3.4-.5.7-.7.8-.7.4-2.1-.5-2.7-.9-.6-2-.7-3-.7-.3 0-.7 0-1 .1-.4.1-.7.4-.9.6-1.3 1.3-1.8 3.4-1.4 5.2.4 1.6 1.5 2.9 2.6 4 1.2 1.3 2.6 2.5 4.1 3.4 1.2.7 3.9 1.4 3.7-.8-.1-1.6-1-3.1-1.3-4.3zm-66.3 25c-.4 2.8-.9 5.6-1.3 8.5-.3 1.6-.5 3.3-1.2 4.8-.6 1.4-1.4 2.7-2.3 3.9-.5.7-1 1.5-1.5 2.2-.3.5-.7 1-1.1 1.3-.9.6-2 .7-3.1.6.8 1.8-.2 3.8-.9 5.5l-1.2 3c-.2.5-.6 2.2-.6 2.3-.1.3-.3.6-.4.9-.1.7.4 1.1.6 1.7.3.8.2 1.9-.1 2.7-.1.3-.3.6-.5.7-.2.1-.8.2-1 .2-.5-.1-1.3-.2-1.7-.5-.4-.4-.9-1.2-.9-1.8-.1-.8.8-1.6.6-2.4-.2-.7-.5-1.1-.9-1.7-.4-.6-.3-.7.3-.9.6-.2 2-1.1 2.8-2.3.8-1.2.7-3.1-.4-4.1-.4-.3-.8-.6-.9-1-.1-.6.3-1.2.1-1.7-1.6-.3-3.4-.8-4.3-2.2-.6-.8-.8-1.9-1.6-2.5-.2-.2-.5-.3-.7-.5s-.2-.6 0-.8c.1-.1.3-.1.4-.2.3-.2 0-.7-.2-1-.8-.7-1.6-1.6-2.4-2.5-.4-.5-.9-1-1.6-1-.2.7 0 1.5.1 2.2s-.4 1.7-1.2 1.6c-.3 0-.5-.2-.7-.3-.5-.3-1.1-.2-1.8-.3-.6-.2-1.3-.6-1.8-.6s-1.5.3-1.8-.3c-1-2.3 1-3.6 1-5.5 0-.6-2.3-1.9-2.1-2.5.2-.7.7-1.2 1.3-1.7 2.4-2.2 5.6-3.4 8.9-3.9 3.2-.5 6.5-.5 9.8-.7 4.5-.3 9.2-1 13.6 0 .3.1.6.2.7.5v.3z"/><path class="st3" d="M-19.9.2c-.3-.7-.3-1.5-.7-2.3-.5-.9-1.4-1.5-1.9-2.4-1.4-2.1-.7-5 .3-7.4s2.2-5 1.5-7.5c-.3-1.1-1-2.1-1.1-3.2-.1-.8.2-1.6.1-2.3-.1-.6-.3-1.2-.5-1.9-.6-2.9 1.7-5.8 1.2-8.8-.2-1-.6-2-1.3-2.7-.8-.9-2.1-.8-3.3-1h-.5c-.2.1-.3.4-.4.6-.4.8-1.4 1.2-2.3 1.4-.7.2-1.5.4-2.2.5-.9.2-1.8.3-2.6-.1-1.1-.5-1.7-1.9-1.4-3.1.3-1.2 1.2-2.2 2.4-2.7.7-.3 1.4-.4 2.1-.6 4.9-.9 10.5-1.7 15.1.6 1.3.5 2.6 1.2 3.6 2.2 1 1 1.7 2.4 2.4 3.7.9 1.8 1.7 3.7 2 5.6.2 1 .2 1.9.6 2.8.3.7.7 1.3 1.3 1.8 3.2 3.3 8.1 3.8 12.5 4.9 5.7 1.4 11.3 4.2 15.2 8.6.6.7 1.2 1.4 1.4 2.3.3.8.2 1.6.2 2.4 0 1.8 0 3.6-.8 5.2-.3.6-.6 1.1-.9 1.7-.3.6-.5 1.2-.7 1.8-1.1 2.2-3.3 3.8-5.7 4.1-2.4.4-4.9-.4-6.9-1.8-.7-.5-1.3-1.1-2-1.6C3.7-1.2-.7-.7-4.6-1.6c-3.6-.8-7-3-10.7-3-.9 0-2 .3-2.2 1.2-.1.3 0 .6.1.9.2 1.6-1.4 6-2.5 2.7zm59.2-29.4c-.4 1-.9 2.1-1.1 3.2-.2 1.7.5 3.5 1.5 4.9 1 1.5 2.2 2.8 3 4.3.2.4.4.9.4 1.3-.1 1.1-1.5 1.8-1.7 2.9-.1.5.2 1.1.4 1.5 2.2 4.4 3 9.3 2.4 14.1-.2 1.2-.4 2.6.2 3.6.2.4.6.8 1 .7.2-.1.3-.2.4-.4 1.2-1.6 1.9-3.5 2.8-5.3 1.4-2.7 3.4-5 5.3-7.2 1-1.2 2.1-2.4 3.5-2.9 1.3-.5 2.5-.5 3.7-.4 2.2.1 4.3.4 6.4.8 2.5.3 5.3.8 7.1-.9 1.2-1.1 1.5-3 1.2-4.6s-1.3-3-2.4-4.3c-2-2.4-4.6-4.4-7.5-5.7-2.9-1.2-6.2-1.6-9.3-.9-.6.1-1.3.3-1.9.2-.5-.1-.9-.3-1.3-.6-1.9-1.4-2.8-3.8-4-5.9-1.6-2.9-3.8-5.4-6-7.8-.6-.7-1.3-1.5-2.2-2-.8-.5-2.6-1-3.4 0-.7.8.2 1.7.6 2.5 1.7 2.6 2 5.9.9 8.9zm-7.4-3.9l-2-.3c-.5-.2-1.1-.3-1.6-.7-.5-.3-.8-1-.5-1.5.3-.4 1-.5 1.1-1v-.6c.1-.3.4-.5.7-.7.8-.7.4-2.1-.5-2.7-.9-.6-2-.7-3-.7-.3 0-.7 0-1 .1-.4.1-.7.4-.9.6-1.3 1.3-1.8 3.4-1.4 5.2.4 1.6 1.5 2.9 2.6 4 1.2 1.3 2.6 2.5 4.1 3.4 1.2.7 3.9 1.4 3.7-.8-.1-1.6-1-3.1-1.3-4.3z"/></g><g id="Layer_22_1_"><path class="st4" d="M17.8.8c-2.8.2-5-2.3-7.5-3.5C4.7-5.5-2.7-2.1-8-5.5c-.8-.5-1.6-1.2-2.5-1.6-1.5-.6-3.2-.5-4.6-1.4-1.4-.9-2-2.5-2.5-4.1-.3-1.1-.7-2.1-1-3.2-.2-.5-.3-.9-.4-1.4-.2-1.8 1-3.5.9-5.3-.1-2.4-2.3-4.2-2.7-6.6-.7-3.5 1.7-7.3-1.4-10.3-1.2-1.1-2.8-1.7-4.4-2-.9-.2-1.7-.2-2.6-.1-1.3.2-2.9 1-3.9.1-.1-1.1.6-2.1 1.3-2.9.3-.4.6-.8 1-1 .4-.3.9-.4 1.4-.4 2.8-.5 5.6-.6 8.3.2 2.2.7 4 2 5.5 3.7 1.4 1.7 3.5 2.4 5.1 3.9 1.8 1.8 3.3 3.9 4.7 5.9.5.7 1 1.4 1.3 2.2.4 1 .6 2 .8 3.1.4 2.2 1.1 4.4 1.8 6.6C-1-18 0-16 1.5-14.3c2.2 2.3 5.2 3.4 8.2 4.4 3.7 1.3 7.5 2.5 11.4 2 1.1-.1 2.6-.3 3.1.8C26-3.4 21 .6 17.8.8zm-74.2.9l-.7-.3c2.7 1.3 3.8 5.4 6.2 7.2 1.2.8 2.6 1.1 3.9 1.8.9.4 1.8 1.1 2.7 1.2 1 .2 2-.2 2.9-.7 2-1.2 3.3-3.2 4-5.4.2-.5.3-1.1.6-1.5.3-.5.7-1 .9-1.6.1-.4.1-.8.1-1.2.1-.8.5-1.5.8-2.3.5-1.5.3-3.2 0-4.8 0-.2-.1-.3-.2-.4-.1-.1-.2-.1-.4-.2-6.4-2-13.3-1.3-20-.4-3.2.4-5.9 1.5-7.7 3.6-.7.8-1.8 1.6-1.2 2.8.6 1 2 1.5 3.1 1.6 1.7.3 3.4-.1 5 .6zm-3.4 17.7c0 .1-.1-.8-.1-1.2 0-.6.3-1.2.3-1.8 0-.8-.7-2.4-.4-3.2.5-1.1 2.2 1 2.8 1.4 1.1.8 1.2 2.1-.4 2.4-.7.1-1.2-.2-1.5.7-.2.6-.2 1.2-.7 1.7zm-7.3-2.1c.1-.6.3-1.2.4-1.8.2-1 .5-2.1-.1-2.9-.2.5-.5.9-.8 1.2-.4.3-.8.5-1 1-.2.5 0 1.1.3 1.6.3.6.6 1.4 1 1.9.1-.3.2-.6.2-1zM41.2-22.9c-1.6-2.6-2.1-5.8-1.4-8.8.2-.8.7-1.7 1.5-1.6.3 0 .5.2.8.4 1.3 1.1 2.2 2.7 3.1 4.2 1.8 3 3.6 6.2 3.7 9.6 0 .7 0 1.4-.4 1.9-3.5 4.6-6.1-3.9-7.3-5.7z"/><path class="st4" d="M47.2-2c1.3-3.1 2.5-6.2 4.5-8.8 2-2.6 4.9-4.8 8.2-5.2 1.3-.2 2.8 0 3.9.8s1.6 2.4 1 3.6c-.2.4-.5.7-.6 1.1-.2 1.1 1.1 1.7 2.2 2 1.1.2 2.2.5 3.2.1 1.8-.6 2.6-2.6 3.1-4.4.3-1.1.5-2.2.4-3.4-.4-3.1-3.6-5-6.6-5.8-2.6-.7-5.2-1.1-7.9-1-2.8.1-5.7.7-7.9 2.4-2.1 1.6-3.5 4.1-4.2 6.7s-.8 5.3-1 8C45.3-2.6 45.3.7 45 4c.6-2.2 1.4-4.1 2.2-6zm-94.7 25.8c.1.3-.1.4-.2.7-.2.4-.4.8-.2 1.2.1.4.4.7.6 1.1.3.8.2 1.9-.1 2.7-.1.3-.3.6-.5.7-.2.1-.8.2-1 .2-.5-.1-1.3-.2-1.7-.5-.4-.4-.9-1.2-.9-1.8 0-.4.2-.8.3-1.2.2-.3.2-1.1.2-1.6.1-.8 1-.7 1.7-1v.5c.2-.3.6-.2.9-.3.2-.2.7-.5.9-.7z"/></g></g><path class="st2" d="M.4 17.7c-.5.1-.9 0-1.3-.3-.5-.1-.8-.5-1-.9-.4-.9-.2-1.7.4-2.4.3-.3.8-.4 1.1-.3 1 .3 1.9 1.6 1.8 2.7 0 .5-.4 1-1 1.2zm8.3.3c-.1.2-.2.4-.4.5 0 .1-.1.2-.2.2-.8.6-2 .7-2.8 0-.7-.7-.8-1.8-.2-2.7.6-.8 1.8-1 2.7-.5.8.6 1.1 1.6.9 2.5zm5.3 5.5c-.1-.1-.3-.1-.4-.1-.4-.1-.9-.2-1.3-.4-1.2-.5-1.8-1.8-1.2-3 .6-1.1 2-1.4 3.1-.7 1 .7 1.2 2.2 1.5 3.3.3 1-1.2 1.6-1.7.9zm-20.8-2.6c-.4.8-.4 1.4-.2 2.2.1.3-.2.7-.6.6-.8-.2-1.3-1.3-1.4-2-.1-1.2.3-2.4.8-3.5.4-1.2 2.5-1.1 2.4.3-.1.9-.6 1.6-1 2.4zm-10.8-4.2c-.1-.1-.1-.1 0 0h-.9c-.7 0-1-1-.4-1.4.4-.2.8-.2 1.2-.1.4.1.6.4.7.8.1.4-.2.7-.6.7zm-6.1 4c.4.5-.3 1.3-.8.8-.7-.7-1-2.3 0-2.9.5-.3.9.2.8.6 0 .6-.4 1 0 1.5zM-44.1 30c-.3.4-.8.3-1.3.3-.5.1-1 .2-1.5.4-.3.1-.6-.2-.4-.5.4-.4.9-.7 1.5-1 .5-.2 1.3-.4 1.7 0 .1.3.1.6 0 .8zm20.2-27.4c-.9-.4-1.7-1.6-1.1-2.5.4-.5 1.3-.7 1.6 0 .4.6.1 1.2.4 1.9.2.5-.5.8-.9.6zm16.5 1c-.1.1-.1.1 0 0-.3.3-.6.4-.9.3-.9-.3-2-1.7-1-2.6.4-.3.9-.1 1.1.4 0 .1 0 .4.2.5 0 .1.1.1.2.1.2.1.3.2.4.4.2.4.2.7 0 .9zm7.3 3.6c-.6-.2-1-.8-1.6-1.1-.5-.3-1.3-.2-1.8-.6-.3-.2-.5-.7-.1-1 1.2-1.1 4.4.4 4.5 2 0 .5-.5.9-1 .7zm-3.1 3.7c-.4.1-.4.1-.3.6.1.5-.4 1-.9.7-1.4-.8-.5-3 1-3 .9 0 1.1 1.4.2 1.7zm23.4 28.8c-.9.1-1.6-.1-2.4-.5-.8-.5 0-1.8.7-1.3.6.4 1.2.8 1.8 1.1.5.1.3.7-.1.7zm-2-11c-.6 0-1-.4-1.5-.8s-1-.8-1-1.5c0-.4.4-.8.8-.8.7 0 1.1.5 1.5 1.1.3.4.8.9.7 1.5 0 .3-.2.5-.5.5zM-1.7 27c-.1 0-.1.1 0 0-.1.1-.1.1 0 0-.2.2-.4.3-.5.2-.9-.3-1.6-1.6-1.3-2.6.2-.7 1.3-.6 1.3.2 0 .3-.1.6 0 .9.1.3.3.5.5.8.1.2 0 .4 0 .5zm.3-4.7c-.1.2-.3.4-.6.3h-.1c-.2 0-.4-.1-.5-.3-.1-.1-.1-.3-.1-.4 0-.2.1-.3.1-.5 0-.3-.2-.5-.2-.8 0-.5.6-.9 1.1-.6.8.5.7 1.6.3 2.3zM41.9 24c-.7.1-1.6-.2-2.1-.6-.4-.3-.4-1.1.2-1.2.6-.1 1.6-.1 2.2.3.4.4.4 1.3-.3 1.5zm.4 4.4c-.6.5-1.5 0-2-.4-.5-.5-.8-1.2-.4-1.9.2-.4.7-.4 1-.1.2.2.4.5.6.7.3.2.6.2.9.5.5.4.3.9-.1 1.2zm3-3.5c.3.4.1 1.1-.4 1.2-.6.2-1.2-.1-1.5-.7-.3-.7 0-1.3.5-1.8.2-.3.6-.3 1-.3h.1c.3.1.5.3.6.6 0 .4 0 .7-.3 1zm-16.7-9.6c-.4.6-1.2.8-1.8.5-1.3-.8-1.8-2.8-.6-4 .6-.7 1.6 0 1.5.8 0 .2 0 .4.1.6.1.1.3.2.4.2.6.4.7 1.3.4 1.9zm11.2-11c-.2.6-.9 1-1.5.9-.7-.2-1-.9-.9-1.5.1-.7.3-1.2.2-1.9 0-.7.8-1 1.3-.5.8.7 1.2 2 .9 3zm-13.5.4c-.5-.2-1-.7-1.2-1.2-.2-.6.1-1.2.7-1.3.4 0 .6.3.9.5.2.2.4.4.6.7.4.6-.3 1.6-1 1.3zm5.2.5c.4 1-1.1 1.8-1.8 1-.8-.9-.5-2.4.7-2.8.6-.2 1.4.3 1.3 1 0 .2 0 .6-.2.8zm17.7 10.5c-.1.7-1.2.9-1.6.4-.4-.4-.5-.9-.7-1.3-.2-.4-.5-.8-.6-1.2-.3-.8.7-1.5 1.4-1.1.5.3.9.9 1.2 1.3.3.6.5 1.3.3 1.9zm.3-7.3c-.3.2-.7.3-1 .1-1-.6-1.4-1.9-.7-2.8.4-.5 1.4-.2 1.5.4.1.3 0 .7.1 1 .3.5.6 1 .1 1.3zM36.8-7.2c-.4.3-.9.4-1.3.7-.4.3-.8.7-1.3.3l-.1-.1c-.2-.2-.3-.6-.2-.8.1-.6.4-1.1.7-1.5l.6-.6v-.1c-.1-.6.1-1.2.6-1.5.5-.3 1.2-.2 1.6.2 1 1.1.5 2.6-.6 3.4zM29 36.7c-.2.8-.9 1-1.6.9-.4-.1-.7-.3-1-.5-.5-.5-.5-1.4 0-1.9s1.4-.5 1.9 0c.6.3.9.9.7 1.5zm9.2-6.2l-.6-.3c-.8-.4-.2-1.8.6-1.4.2.1.4.2.6.2 1.2.4.4 2.1-.6 1.5zM-12 19c0 .1 0 .1 0 0 0 .2.1.4.1.6 0 .5 0 .9-.1 1.4-.2.9-.3 1.1-.3 2.1-.1 1.8-2.7 1.8-2.8 0 0-.3 0-.8-.1-1.1 0 0-.2-.5-.3-.6-.2-.7-.4-1.5-.2-2.3.3-1.3 1.4-2.2 2.7-2.2 1-.1 1.7 1.4 1 2.1zm-18.1 10.2v.3c0-.1 0-.1 0 0 .3.8-.7 1.4-1.3 1-.9-.5-1-1.6-.6-2.5.6-1.2 2.7 0 1.9 1.2zm2.9-10c-.2.9-1.5 1-1.9.3-.5-.8-.6-1.8-.4-2.7.1-.4.4-.7.8-.8-.4.1-.1-1.3 0-1.6.1-.5.8-.4.9.1 0 .5-.1 1.1 0 1.5-.3 0-.3 0 .1.1.2.1.3.2.4.4.3.6.2 1.9.1 2.7zm4.8-7.5c-.1.6-.1 1.2-.4 1.8-.6 1.1-1.9.6-2.3-.3-.2-.5-.1-1.1-.1-1.6s0-1.1.2-1.6c.2-.6.6-1 1.3-1 .6 0 1.1.4 1.3 1 .2.6.1 1.1 0 1.7zm13.8-.8c-.3.5-.5.9-.6 1.4 0 .3 0 .7-.3.9-.9.5-1.8-.5-2-1.3-.2-.6 0-1.3.2-1.8.1-.3.6-1 .4-1.3-.7-1.8 1.6-3.2 2.6-1.5.7 1.2.3 2.4-.3 3.6zM-34 25.3c-.1.4-.2.7-.5 1-.4.4-1 .2-1.2-.3-.1-.4 0-.7 0-1 0-.3.1-.7.2-1 .2-.4.5-.7 1-.6.4.1.8.4.8.9-.1.3-.2.7-.3 1zm-5.5 2.8c-.1.3-.3.4-.4.6l-.1.1c.2 1.1-1.3 1.5-1.7.5-.3-1 .3-2.6 1.6-2.3.4.2.7.7.6 1.1zm5.7 2.7c-.1.4-.1.7-.2 1.1-.1.3-.6.5-.9.2-.4-.5-.4-1.2-.1-1.8.3-.7 1.5-.2 1.2.5zM-35 20.5c-.9.2-1.5-1.5-1.6-2.2-.2-1 .1-2.4.9-3.1.2-.2.5-.1.6.2.1.5-.1.9 0 1.4.1.5 0 1.1 0 1.7.2.4.7 1.9.1 2zm66 14.2c-.7-.2-1.1-.6-1.3-1.2-.3-.7.9-1.2 1.3-.5.1.1.1.2.3.2 1.1.1.8 1.8-.3 1.5zm-36.2-1.1c-.7-1.1-1.1-2.5-1.5-3.7-.5-1.4 1.8-2 2.2-.6.3 1.3.8 2.6.8 3.9 0 .8-1.1 1-1.5.4zm10.4-7.2c0 .1-.1.1-.1.1 0 .1.1.2.1.3.2.5-.3 1.3-.9 1.2-.9-.1-1.4-.8-1.5-1.6 0-.3.1-.6.2-1 .1-.2.1-.6.2-.7v-.1s0 .1.1.2c0-.1-.1-.1-.1-.2s0-.1 0 0c-.2-.7 0-1.5.8-1.8.8-.3 1.7.1 1.9.9.3 1 0 2.1-.7 2.7zm-1.9-1.7s0-.1 0 0c0-.1 0-.1 0 0zm7.2 4.8c-.2 0-.4.1-.5 0-.6-.1-1-.5-.9-1.1.1-.6-.3-.9-.5-1.3s-.2-.8.2-1.2c.3-.3.8-.4 1.2-.2.9.5 1.1 1.7 1 2.7.2.4.1 1-.5 1.1zm1.2 5.8c-1.5.1-1.5-2.3-.1-2.2.5 0 .8.5.5 1 .6.3.2 1.1-.4 1.2zm-7.3 4.1c0 .1 0 .1-.1.2-.2.3-.6.5-.9.4-.5-.2-.9-.4-1.4-.5-.5-.2-1-.1-1.2-.5-.1-.1-.1-.2-.1-.3v-.1c.1-.2.2-.4.4-.4.9-.3 1.9-.2 2.7.1.4.2.7.6.6 1.1zm-16.1-4.9c-.9-.3-1.6-1.1-2.2-1.9-.4-.6-1-1.7-.9-2.4 0-.3.4-.5.6-.2.5.5.7 1.2 1.4 1.7.6.5 1.3.6 2 1 1 .4.2 2.2-.9 1.8zm-7.4-2.9c-.2.2-.3.2-.4.3-.7.5-1.5-.3-1.3-1 .1-.5.6-.9 1.1-1 1.2-.3 1.6 1.2.6 1.7zm6.6-32.5C-13 0-14.1.2-14.6 1c-.4.4-1.2.5-1.4-.2-.2-.8.3-1.5 1-2 .3-.2 1.1-.4.8-.9-.3-.7.2-1.3.9-1.2 1.1.2 1.3 1.7.8 2.4zM-30.7 10c-.5.4-1.3-.3-1.1-.8.1-.3.3-.6.3-1s-.3-.6-.4-.9c-.3-.8.4-1.6 1.2-1.2 1.2.7 1.1 3.1 0 3.9zm-2.7 1.8c-.1.5-.8.6-1.1.1-.3-.5-.5-1.2-.7-1.8-.2-.6-.5-1.1-.6-1.7 0-.4.5-.6.8-.4 1.2.5 1.9 2.6 1.6 3.8zM-50.5 31c-.5.8-1.9.3-2.7.1-.4-.1-.4-.7 0-.8.8-.2 2.1-.7 2.7.1.1.2 0 .5 0 .6zm75.3-8.8c-.3.7-1.1 1-1.8.6-1-.5-1.5-1.6-1.3-2.7.2-1 1.2-2 2.2-1.6.2.1.4.4.4.7 0 .3-.1.5-.3.7-.1.1-.1.2-.1.3 0 0 0 .1.1.2 0 0 .2.1 0 0 .7.4 1.1 1.1.8 1.8zm10.1-.2c.1.9-.4 1.7-1.1 2.2 0 .2 0 .4-.1.6-.8 1-2 .4-2.6-.5-.4-.7 0-1.5.7-1.8.1 0 .1-.1.2-.2v-.1c0-.2 0-.3.1-.5s.2-.4.3-.5c0-.1.1-.1.1-.2.2-.4.7-.6 1.2-.5.2.1.4.2.6.4.4.1.6.5.6 1.1zm1.9-11.3c-.3.2-.5.2-.9.1h-.1c-.4-.1-.7-.5-.8-.8-.1-.3-.3-.6-.5-.8-.6-.4-.8-1.1-.4-1.7.3-.6 1.1-.8 1.7-.4.8.5 1.4 1.3 1.6 2.3 0 .4-.1 1-.6 1.3zm2.3 7.4c-1 .2-1.9.3-2.9 0-.4-.1-.7-.5-.7-.9 0-.5.3-.8.7-.9.8-.3 1.7-.4 2.6-.4 1.2 0 1.6 1.9.3 2.2z" id="Spot_Darks_1_"/><g id="Spots_1_"><path d="M-51.3 12c-.3.1-.6.1-.9.1-.2.1-.5.1-.7 0-.3-.2-.4-.5-.6-.7-.2-.2-.4-.5-.5-.8 0-.1.1-.2.2-.1s.2.3.3.5c.2.4.2.8.7.7.5-.1.6-.6 1.2-.7.7-.2 1 .9.3 1z"/><path d="M-49.6 12.6c-.3.2-.6-.1-.8-.3-.2-.3-.6-.8-.4-1.2 0-.1.1-.2.2-.2.4 0 .6.4.8.7.3.3.6.7.2 1zm.3-1.1c-.1-.4-.3-.6-.6-.8-.1-.1 0-.2 0-.2.5-.1 1 .3 1.2.7.3.5-.5.8-.6.3zm-3.7 7.7c-.4.4-1 .2-1.4-.2-.5-.4-.5-.9-.5-1.5 0-.1.1-.1.1 0 .1.3.5.7.8.8.3.1.5 0 .8 0 .4.3.5.7.2.9zm2.3-1.9c-.4.4-.9.6-1.5.5-.5-.1-.8-.3-1-.7-.1.1-.3.2-.4.1h-.1c-.2-.1-.3-.4-.2-.6.3-.4.6-.7 1-.7 0-.1-.1-.1-.1-.2 0-.2.1-.4.3-.5.5-.1.8 0 1.3.2.1 0 .1.2 0 .2-.4.1-.6.3-1 .4h-.1c-.2.1-.4.4-.5.6.7.1 1.4.3 2 .1.3.1.4.4.3.6zm.9-.9c-.3.1-.5-.2-.3-.5.1-.1.2-.2.2-.4-.2 0-.3 0-.5-.1s-.3-.3-.3-.5c.1-.3.3-.6.6-.7.2-.1.3.1.3.3.4-.2.7.1.6.5.3.6-.1 1.3-.6 1.4zm-5.5-7.5c-.3.1-.6.3-.9.2l-.1-.1c0-.4.5-.6.8-.7.4-.2.6.5.2.6zm.8.7c-.1.2-.4.1-.3-.1.1-.2.1-.4.3-.5.1 0 .1 0 .2.1 0 .1-.1.2-.2.5zm-.6 5.7c-.4.3-.9.3-1.2-.1l-.3-.6c-.2-.3-.5-.5-.7-.8.3 0 .6.3.9.4.2.1.3.3.4.4.3.2.4.1.6 0 .4-.1.6.5.3.7zm.9.2c-.3.2-.2.3-.4.6l-.1.1v.8c-.1.2-.3.3-.5.3s-.3-.1-.3-.3c.1-.4.4-.5.7-.7-.1 0-.2-.2-.2-.3 0-.5.2-.9.7-1 .2-.2.4.3.1.5zm-1.1 6.7c-.2.1-.5.1-.7.2-.3.2-.6-.2-.3-.4.2-.2.4-.4.7-.5.5-.3.9.5.3.7zm-.1 1.2c-.3.2-.6.5-1 .5-.1 0-.1-.1-.1-.1-.1-.4.4-.7.7-1 .1-.1.2-.1.4-.1h.1c.1 0 .2.1.2.2v.1c-.1.2-.1.3-.3.4zm1.8-1.2c-.2 0-.4.2-.7.3-.1 0-.2 0-.2-.1-.2-.5.3-.8.7-.9.4-.2.6.6.2.7zm1.5-.7c-.4.1-.6 0-.9-.3-.1-.1 0-.4.2-.3.1 0 .3 0 .5-.1.5-.1.7.5.2.7zm1.8-1.7c-.1.2 0 .5 0 .7.1.8-1.5.6-1-.3.2-.4.5-.4 1-.5 0 0 .1.1 0 .1zm3.9-4.8c-.1.1-.1.2-.2.3-.1.5-1 .2-.7-.3.2-.3.6-.5.9-.2.1 0 .1.1 0 .2zm-.7 2.5c-.1.1-.2.2-.3.1l-.1.1c-.6.1-.7-.8-.2-1 .4-.3.9.3.6.8zm-1.4 1c-.2.1-.2.1-.3.4-.1.2-.1.3-.2.4-.2.3-.5.3-.8.2-.6-.1-.3-.9.2-.9 0 0 .3-.4.4-.4.1-.1.3-.1.5-.1.1 0 .2.1.2.2v.1c.1 0 0 0 0 .1zm-.5-.7c-.5.1-1.3.7-1.5 1.2-.1.1-.3.1-.3 0-.1-.4.2-.7.4-1.1.3-.4.6-.7 1.1-.9.5-.2.8.7.3.8zm2-4.3c-.2-.3-.5-.5-.7-.9-.1-.2-.3-.3-.4-.5-.1-.2-.1-.4-.3-.5 0 0 0-.1.1-.1.2.1.5.1.7.2.2.1.4.3.6.5.3.4.3.8.3 1.2-.1.2-.2.2-.3.1zm1.8-.8c-.4-.4-.7-.7-.9-1.2-.1-.4-.3-.9-.2-1.4.3.3.6.7.8 1.1.3.5.3.9.4 1.4.1.1 0 .2-.1.1zm-.3 1.7c-.1.1-.1.1-.2.1h-.2v.6c-.2-.2-.2-.5-.3-.8 0-.1 0-.1.1-.2h.1c0-.2-.1-.4-.2-.6 0-.2.2-.4.4-.3.6.2.6.8.3 1.2zm-1.4 5.3c-.4 0-.5-.4-.4-.6-.3 0-.3-.6.1-.5h.1c.1 0 .1.1.2.2h.1c.5 0 .5.9-.1.9zm-1.8 1.4c-.3 0-.3-.5 0-.5s.3.5 0 .5zm.2-.5c-.6 0-.6-.9 0-.9.6-.1.6.9 0 .9zm-8.9-11c-.3.4-.8.5-1.1.8h-.1c0-.5.5-1.2 1.1-1 .1 0 .2.1.1.2zm.6 2.4c-.1.2-.2.3-.4.4-.2.2-.5-.1-.3-.3.2-.2.3-.3.5-.3.1 0 .3.1.2.2zm.3 6.8c-.3.2-.6.1-.9 0-.2-.1-.4-.2-.6-.2-.2 0-.3-.1-.4-.2-.1-.1-.1-.2-.1-.4 0-.1.3-.2-.1-.4-.1 0-.3.1-.4.2-.1.2 0 .5-.3.5h-.1c-.1 0-.2-.1-.2-.2-.1-.8.7-1.4 1.3-.7.1.1.2.4.3.5.1.1.4.1.6.1.1.1.3.2.4.2h.3c.1 0 .2.1.2.2.2.1.2.3 0 .4zm-2 .5c-.1.1-.3.2-.4.3-.3.2-.6-.2-.4-.5.2-.2.4-.3.7-.2.1.1.2.3.1.4zm.4 1.1c-.2.3-.3.6-.5.8-.2.2-.5 0-.4-.3.2-.4.4-.5.8-.7 0 0 .1.1.1.2zm3 .1c-.3.5-1 .1-.9-.4V20s-.1 0-.1.1c-.3.1-.5.2-.8.3h-.1c-.1.2-.3.4-.5.5-.1 0-.1 0-.2-.1-.2-.4.1-.8.4-1 .1-.1.3-.1.4 0 .3-.2.6-.3.9-.5.2-.1.5-.2.7-.1.6.2.4.8.2 1.3zm-4.7 2.5c-.4.3-1.2.4-1.6.1-.1-.1-.1-.2-.1-.3.4-.5 1.4-.5 1.7 0 .1.1.1.1 0 .2zm.3 1.4h-.4c-.2 0-.4 0-.6.1-.3.1-.5-.4-.2-.6.3-.2.8-.3 1.1-.2.1.1.2.2.2.3.1.2 0 .3-.1.4zm1.3.5c-.2.4-.6.6-.9.8-.2.1-.3 0-.4.2l-.1.4c.2.3-.3.6-.5.3-.3-.3-.2-.8.2-1 .2-.1.2 0 .4-.3.1-.1.1-.2.2-.3.2-.2.5-.5.8-.5.2-.1.4.2.3.4zm.9.7c-.1.2-.4.4-.6.5v.1h.1c.4 0 .4.6 0 .6-.3 0-.6-.1-.9 0-.1 0-.2-.2-.1-.3.3-.2.5-.3.9-.3 0-.1-.1-.1-.2-.1-.2 0-.2-.2-.2-.3.1-.3.5-.5.8-.6.1 0 .3.2.2.4zm-5.2-1.2c.1-.3.1-.6.1-.9.4.1.7.7.7 1-.1.6-1 .5-.8-.1zm-2.4-.7c0 .1.1.2.1.3.1.2.1.3.1.5s-.3.3-.4.2c-.3-.2-.6-.7-.4-1 .1-.2.4-.3.6-.2.1 0 .1.2 0 .2zm.5-1.7c-.4-.2-.7-1-.1-1.1.1 0 .2 0 .2.2 0 .3-.1.4.1.7.1.1 0 .3-.2.2zm-.5-2.4c-.5-.2-.9-.7-1-1.2 0-.1.1-.1.1-.1.1.2.6.4.8.6.2.1.3.2.4.4.1.2-.1.4-.3.3zm.9.3c-.2-.2-.3-.3-.3-.5 0-.1.1-.3.3-.2.2.1.3.2.4.4 0 .3-.2.5-.4.3zm.2-1.6c0 .1-.2.2-.3 0-.1-.3-.2-.6-.1-.9 0-.1.2-.1.2 0 .3.3.2.6.2.9zm1.1-1.8c-.2.3-.6 0-.5-.3 0 0-.3-.4-.2-.5 0-.2.1-.3.2-.3.1-.1.4.1.3.2-.1.2.2.3.2.4.1.2.1.3 0 .5zm.8 2c.1.4.2.8 0 1.1-.2.4-.7 0-.6-.3.1-.2.2-.3.1-.6s0-.2-.1-.3c-.1-.2-.2-.3-.2-.5 0-.4.2-.6.5-.9.1-.1.2 0 .2.1-.1.1-.1.2-.2.4-.1.3 0 .4.1.6 0 .1.1.3.2.4zm.3 2.3c-.2.1-.3.1-.4.1-.4 0-.4-.5-.2-.6l.1-.1c.2-.1.4 0 .5.2.1.2.1.3 0 .4zm-4-3.4l-.2.3c-.2.4-.8-.1-.5-.4l.1-.1c-.1-.1-.1-.2-.1-.4 0-.1.2-.2.3-.1.1.1.2.2.4.3.1.1.1.3 0 .4zm1.1-.7c-.1.2-.3.5-.4.7-.1.2-.3.1-.3-.1 0-.4.1-.7.4-1 .1-.1.5.2.3.4zm-1.1-.5c0 .1-.1.3-.3.2h-.1c-.1-.1-.2-.2-.2-.3V16c0-.1.1-.1.2-.1h.1c.1 0 .3.1.3.3 0-.1 0-.1 0 0zm1.6-.3c-.1.1-.3.1-.3 0 0-.2-.1-.3.1-.5 0-.1.1 0 .2 0 .1.2.1.3 0 .5zm-2.1 8.1c-.1.1-.2-.1-.2-.2-.1.1-.6-.4-.6-.5-.1-.2 0-.4.1-.6-.1-.2-.2-.3-.3-.5-.1-.1.1-.3.2-.2.1.1.2.3.3.4.1.1.2.1.3.2.1.1.1.2.1.3l.2.4c.3.2.2.6-.1.7zm-.5-2.3c-.6-.2-1-.9-1-1.5 0-.4.6-.4.6 0 0 .5.2.9.5 1.3.1.1 0 .2-.1.2zm1-1.5c-.2-.1-.4-.3-.5-.5-.3.2-.8.1-.9-.3 0-.1 0-.2.1-.3-.1-.1-.2-.3-.2-.5 0-.1.1-.1.1 0 0 .2.1.3.1.5h.3c.1.1.2.2.4.1.1 0 .2 0 .3.1.1.3.3.6.3.9zm2.8 1.4c-.1.1-.1.3-.1.4 0 .1-.1.1-.2 0-.3-.1-.2-.3-.2-.6 0-.2.6-.1.5.2zm4.8.5c-.1.2-.3.2-.5.4-.2.1-.2.2-.4.2h-.1c-.3-.4.5-1 .9-.8.1 0 .1.1.1.2zm1.9 3.3l-.5.4c.1.2-.2.6-.4.3-.4-.5.2-.8.5-1.1.2-.3.7.1.4.4zm1.6-.8c-.1.1-.3.2-.4.2-.2.1-.4.2-.6.4-.1.1-.3-.1-.2-.2.2-.4.7-.8 1.1-.7.2 0 .2.2.1.3zm1.4-.9c-.3 0-.5.1-.7.3-.2.1-.5 0-.3-.2.2-.3.5-.5.9-.5.3-.2.4.3.1.4zm.7-1.1c-.4.3-1.1.5-1.6.5-.2 0-.2-.2-.1-.3.4-.3 1-.6 1.5-.6.3 0 .4.3.2.4zm1.1-.5c-.2 0-.3.2-.5.2h-.2c-.1 0-.1-.1-.1-.2.1-.3.4-.5.7-.5.3 0 .4.4.1.5zm-11.9 1.8c0 .3-.4.3-.5.1 0 0-.1-.6.1-.4-.3-.3.2-.8.5-.5.1.1.2.3.2.4-.1.1-.3.3-.3.4zm-.5 4.3c-.5-.2-.9-.2-1.2-.6-.3-.4.2-.9.5-.5.2.3.4.7.8.9 0 .1 0 .2-.1.2zm6.3-.3h-1.4c-.5 0-.7-.2-1.1-.5-.1-.1 0-.2.1-.1.2.1.5 0 .8 0 .3 0 .5-.1.8-.1.4 0 .8.1 1 .5 0 0-.1.2-.2.2zm.2.9c-.4.2-.8.5-1.3.5-.4-.1-.9-.3-1.1-.6-.1-.2 0-.4.2-.3.2.1.5.2.7.2.2 0 .4-.1.6-.1.4 0 .7 0 .9.3.1-.1.1 0 0 0zm3.1-.5c-.2-.1-.3-.2-.4-.1-.2.1-.4 0-.5-.1-.1-.1-.2-.2-.2-.4-.2-.1-.7-.1-.9-.2-.3-.1-.4-.2-.6-.4 0-.1 0-.2.1-.2.4.1.7-.1 1.1-.1.3 0 .6.1.8.2.3.2.4.4.5.7.1.2.3.4.1.6zm-8.6-1.1c-.2.3-.6.2-.7-.1-.1-.3 0-.5-.3-.5-.4-.1-.2-.7.2-.6h.1c.1 0 .2.1.2.2l.2.4c.2-.1.4.3.3.6zm-3.2-1.9c-.3-.2-.5-.5-.7-.8-.1-.1.1-.3.2-.2.2.2.5.5.8.6.2.2 0 .6-.3.4zm1 .9c-.4-.2-.5-.7-.4-1.1.1-.1.2-.1.3 0 .2.2.3.5.4.7.2.3-.1.6-.3.4zm3 2.8s0 .1 0 0c-.1.1-.1.1-.2.1-.4-.1-.7-.5-.8-.9-.1-.3.4-.5.5-.2.1.3.3.5.5.8 0 .1.1.2 0 .2zm1.7 2.1c0 .2-.3.3-.4.1-.1-.2-.1-.4-.1-.6-.1-.4.7-.4.6.1 0 .2-.1.3-.1.4z"/><path d="M-60.6 30.4c-.3.1-.4 0-.6-.1-.2-.1-.4-.1-.6-.3-.1-.1 0-.2 0-.2.4-.2 1.2 0 1.3.4 0 .1-.1.2-.1.2zm2.2.4c-.5 0-.8 0-1.2-.2-.2-.1-.4-.3-.5-.6 0-.1.1-.2.2-.1.2.3.5.2.8.3.3.1.5.2.8.4.1 0 .1.3-.1.2zm-1.8-1.4c-.4-.2-.8-.6-.8-1 0-.1.1-.1.2-.1.3.2.5.5.9.6.4.2.1.6-.3.5zm6.1.2c-.2.6-.9.8-1.5.9-.5 0-1.2 0-1.5-.4-.2 0-.3-.2-.1-.4.5-.5.9-.8 1.7-.8.4 0 1 .1 1.3.4 0 .1.2.2.1.3zm-2.7 2.2c-.2 0-.4.1-.6.1-.3 0-.5 0-.8-.1-.3 0-.3-.4-.1-.5.3-.1.6-.2.9-.1.3 0 .4.2.7.3.1.1.1.3-.1.3zm6.2-.8c-1.1.7-2.4.8-3.6.3-.1 0-.2-.2-.1-.4.2-.5.6-.8 1.1-1 .2-.1.5-.1.7-.1.4 0 .9.4 1.3.2-.3.3-.5.4-.9.4-.6 0-1 .1-1.3.4.9.3 1.9.3 2.7-.1.1.1.2.2.1.3zm-2 1.5c-.4.1-.9 0-1.3 0-.5 0-1.4-.2-1.8.2-.2.3-.8 0-.5-.3.3-.5.8-.6 1.3-.5.7.1 1.7.2 2.3.6.1-.1.1-.1 0 0zm4.9 0c-.4.3-1.1.5-1.6.5-.6 0-1.2-.3-1.8-.5l-.1-.1c-.2-.9 1.5-.9 2-.8.1 0 .2.2.1.2-.4.2-.7.3-1.1.5-.1 0-.2.1-.2.1.5.1 1 .1 1.5.1.2 0 .5.1.7 0 .4 0 .3-.1.7-.1-.2 0-.2.1-.2.1zm4.3-2.6l-.3.6c-.4.5-.9.6-1.5.8-.1.1-.2-.2-.1-.2.3-.2.6-.3.8-.6.2-.1.3-.2.4-.4.1-.2.1-.4.1-.6l.1-.4s-.5.1-.4.1h-.6c-.6.4-1.2.7-1.9 1-.2.1-1.1.5-.8.9.1.2.8 0 1.1 0 .1 0 .1.1.1.2-.3.4-1 .6-1.5.4-.5-.2-.6-.7-.2-1 .3-.2.6-.4.8-.7.2-.3.5-.5.9-.7.4-.3 1.1-.6 1.5-.2.1-.3.5-.5.9-.5s1 .1.9.7c0 .1-.2.3-.3.6zm-1.5 3c-.5.2-1.1-.4-1.5-.1-.1.1-.3 0-.2-.1.3-.7 1.3-.6 1.8-.2.2.1.1.4-.1.4zm3.7-.6c-.4 0-.7-.3-1.2-.2-.4.1-.7.4-1 .6-.2.1-.4-.1-.3-.3.3-.5.7-.9 1.3-1 .5-.1 1.2.3 1.3.8 0 0 0 .1-.1.1z"/><path d="M-42.1 33.7c-.6.1-1.1-.1-1.6-.4-.3-.2 0-.6.3-.5.4.2 1 .2 1.4.2.4 0 .8-.2 1.2-.3.1 0 .1.1.1.2-.3.6-.9.8-1.4.8zm.9-5.9c-.6.6-.1 1.1 0 1.8 0 .3-.4.5-.6.3-.4-.4-.8-1.4-.4-1.9.2-.3.6-.6.9-1 .3-.3.4-.6.9-.6.1 0 .2.1.2.2-.1.7-.7.9-1 1.2z"/><path d="M-39.6 26.9c-.1.2-.1.5 0 .8 0 .1-.2.2-.3.2-.4-.3-.5-.8-.3-1.2.2-.5.9-.2.6.2zm.1 2.8c-.1.3-.3.5-.5.7-.2.2-.6 0-.5-.3.1-.2.1-.5.2-.8.1-.2.3-.2.4-.5 0-.2.4-.2.3 0 0 .3.2.6.1.9zm-6.9-3.2c-.1.2 0 .5-.1.7 0 .2-.2.3-.3.5-.1.2-.2.3-.2.5h-.1c-.1-.3-.3-.9-.1-1.2.1-.2.2-.2.3-.3.2-.2.4-.5.5-.7h.1c0 .1-.1.3-.1.5zm1.6.3c-.2.1-.3-.1-.5-.1 0 0 0 .1-.1.1-.1.2-.1.2-.3.3h-.1c-.2-.2-.1-.6.1-.8.1-.1.2-.2.3-.1l.3.2s.1-.3.1-.4c.1-.2.4-.2.5 0 .1.2-.1.7-.3.8zm-.4-1.6c-.1.1-.3 0-.3-.1s.1-.5.1-.7c-.1 0-.2-.1-.3-.2-.3-.5.2-.8.2-1.3 0-.1.2-.2.3-.1.1.2.1.4.2.7v.4c.4.2.1.9-.2 1.3zm.9-2.4c0 .1 0 .1-.1.2h-.1c-.1 0-.2-.1-.2-.1-.1-.3-.1-.5-.2-.8 0-.3-.1-.5-.2-.8 0-.1 0-.1.1-.2h.2c.2.2.5.4.5.7.2.2 0 .6 0 1zm1.1.7c-.1.4 0 .8 0 1.2.1.5 0 .9 0 1.4 0 0 0 .1-.1 0-.3-.6-.5-1-.4-1.7.1-.4.2-.7.2-1.1 0-.4-.1-.7-.1-1 0-.1.2-.2.3-.1.3.4.2.8.1 1.3zm1 2.5c.1.2-.2.3-.3.2-.3-.3-.4-.7-.3-1.1 0-.1.1-.2.3-.2.5.1.1.7.3 1.1zm1.4-1.9c0 .1-.1.2-.2.2h-.2c.1.2.1.5.1.5 0 .1-.1.2-.2.2h-.1c-.2-.1-.2-.3-.3-.5-.1-.3-.4-.6-.3-.9.2-.5.5-.3.8 0v-.3c0-.3 0-.5-.1-.8 0-.2.2-.2.2-.1.1.3.2.5.3.8.1.4.1.7 0 .9zm-2-2.1c0 .1-.1.1-.2 0-.2-.3-.2-.7-.1-1 .1-.4.2-.9.3-1.4.1-.3.5-.3.6 0 .4.8-.4 1.7-.6 2.4zm-.3-4.8c-.1.1-.3.1-.3 0-.1-.5-.1-1.1.3-1.5.1-.1.3-.1.3 0 .2.5 0 1.1-.3 1.5zm1.5.1c-.1.5-.3 1-.2 1.5 0 .1-.1.2-.2.1-.4-.5-.3-1.1-.2-1.6 0-.4-.1-1.1.5-1.2 0 0 .1 0 .1.1-.1.4 0 .7 0 1.1zm.6 2c-.2-.2-.4-.5-.3-.8.1-.1.2-.2.3 0 .2.2.1.5.2.7 0 .1-.2.1-.2.1zm1.4 4.6c0 .1-.2.1-.2 0-.2-.5-.1-1-.3-1.5-.1-.3.1-.6.4-.4.6.4.4 1.4.1 1.9zm-4.3-5.6c0 .2-.1.4-.2.5-.1.1-.2.1-.3 0 0-.2-.1-.4 0-.6 0-.3.6-.3.5.1zm-.7 1c0 .1-.2.2-.3.1-.2-.2-.2-.3-.2-.6 0-.1.2-.3.3-.1.3.2.3.3.2.6zm1-5.2l-.6.1c-.1.2-.4.2-.4 0-.1-.2 0-.3.1-.5s.4-.2.4-.3c0-.7 1.1-.6 1 .1-.1.3-.2.5-.5.6zm1.5-3.4c-.3.2-.6.3-.8.6-.4.6-.8 1-1.6.9-.2 0-.3-.3-.2-.4.2-.2.4-.3.5-.4.2-.2.3-.4.4-.7.1-.2.3-.3.4-.3h.1-.7c-.3 0-.4.2-.6.3-.2.2-.6.3-.7-.1-.1-.5.6-.9 1-1 .7-.2 1.5 0 2.2.1.2 0 .3.2.3.4.1.2 0 .4-.3.6zm1.4-2.9c-.3.3-.9 1.2-1.4 1-.3-.1-.2-.4-.4-.6-.1-.1-1.2.2-1.3.3-.1 0-.2-.1-.1-.2.5-.4 1-1.1 1.8-.9.3.1.3.3.5.5V8s0-.1.1-.1c.2-.1.4-.2.7-.3 0-.1.2.1.1.2zm1.2.9c0 .1-.2.2-.3.1-.4-.2-.4-.6-.4-1 0-.3.1-.6 0-.9-.1-.2-.2-.4-.2-.6 0-.1.1-.2.2-.2.4.1.5.6.6.9.2.6 0 1.1.1 1.7zm-1-2.5h-.6c-.2 0-.5.1-.7.1-.2.1-.2-.1-.2-.2.1-.2.3-.3.5-.4.1-.1.8-.1.8-.2.2-.3.6-.2.6.2.1.2-.1.4-.4.5z"/><path d="M-37.5 5.1c0 .5-.4 1.1-.5 1.6-.3.8-.4 1.6-.6 2.4 0 .2-.4.1-.3-.1.2-1.1.5-2.2.4-3.3.1-.3.1-.5-.1-.7-.1 0-.2 0-.3-.1-.1-.1-.3-.2-.3-.3-.1-.2 0-.3 0-.5v-.2h-.1c-.7.1-1 .2-1.7-.2-.2-.1-.1-.4.1-.4.7 0 1.7-.7 2.4-.2.2.2.3.3.3.6 0 .1 0 .2-.1.3 0 .1-.1.1-.1.2.5.2.9.1.9.9zm-.9 9.6c-.5 1.1-.7 2.1-.9 3.3 0 .2-.3.2-.3 0-.6-1.8.6-2.6.6-4.4 0-.7-.4-1.3-.4-2 0-.6.3-1.2.5-1.8 0-.1.1 0 .1 0 .1.6.2 1.2.3 1.7 0 .4.1.9.1 1.3.1.1.2.2.2.3 0 .2.1.4.1.6.1.4-.1.7-.3 1zm2 17.1c0 .1-.1.2-.2.2-.3 0-.5-.2-.5-.4s.1-.3-.2-.2c-.1.1-.3.2-.4.2-.2.1-.4.1-.6.3-.2.1-.3.4-.4.5-.2.2-.5.3-.8.3-.1 0-.1-.1-.1-.2.4-.4.4-1 .9-1.3.2-.1.4-.1.6-.2.3 0 .4-.1.7-.3.3-.2.7-.3 1 0 .4.3.2.7 0 1.1zm-.4 1.9c-.2.3-.5.3-.8.3-.4 0-.8.1-1.2 0-.4-.1-.8-.4-.9-.7-.1-.2.1-.5.3-.4.3.1.6.2.9.4.3.1.7.4 1 .3 0-.1-.1-.3 0-.5 0-.2.2-.2.4-.2.3.2.5.5.3.8zm3.9-1c-.2.6-.8.5-1.3.6-.5 0-1.2.1-1.4-.5-.1-.6.4-1 .9-.8.2.1.3.3.2.5h.4c.1 0 .4.1.5 0 .2-.1 0-.4-.1-.6-.1-.2.1-.4.3-.3.3.2.6.6.5 1.1zm-.6-1.7c-.2.1-.4 0-.4-.2 0-.3 0-.5-.2-.8-.1-.1-.1-.3-.2-.3-.1-.1 0-.1-.1.1s0 .3-.1.5-.2.3-.2.5c0 .1-.1.2-.2.2h-.1c-.2 0-.3 0-.4-.2-.3-.4.1-.8.2-1.2.1-.4.4-.7.8-.6.4.1.8.5 1.1.9.1.4.2.9-.2 1.1zm2.7.4c-.5 0-1.1-.4-1.4-.8-.3-.4-.3-.8 0-1.2-.1-.2-.3-.3-.4-.5-.1-.3-.1-.6 0-.8.2-.3.6-.5.8-.2.1.1.1.4.1.6 0 .3.1.5.2.8.1.1.1.2.2.3v.4c.1.3.5.4.7.6.3.3.2.8-.2.8zm.7-1.3c0-.4-.1-.8-.2-1.1-.1-.4-.3-.7-.5-1-.2-.2.2-.6.4-.4.8.6 1.3 1.6 1.2 2.6 0 .5-.9.5-.9-.1zm3 4.3c-.7.2-1.6.1-2.2-.2-.2-.1-.4-.3-.6-.3-.2-.1-.4 0-.6-.1-.3-.1-.7-.5-.9-.7-.4-.4-.1-1.1.5-1.1h.2c.4 0 .7.4.6.8.1.1.1.2.2.4 0 .1 0 .2.1.3.1.2.4.3.7.3.7.2 1.4.1 2.1.4.1-.1.1.1-.1.2zm1.8-.1c-.3-.1-.6-.1-.9-.2-.2-.1-.5-.3-.5-.6 0-.4-.6-1-1.1-1.1 0 0 0 .1-.1.1-.4.4-1.1.2-1.5-.2-.4-.5.3-1.2.7-.7l.2.2v-.1c.1-.1.2-.2.4-.2.4.1.7.2 1 .5.3.3.4.6.6 1 .2-.1.4-.1.5 0 .2.1.4.2.7.3 1.1.1.7 1.1 0 1zm3.1-3.1c.1.4.1.7-.1 1-.1.1-.3.2-.4.3-.1.1-.3.2-.5.3-.9.3-1.6-1.1-2.3-1.4-.3-.1-.5-.3-.6-.7-.1-.2.2-1.4.1-1.4-.4-.1-.2-.7.2-.6.4.1.6.5.6.9 0 .5-.1.7.1 1.2.2.4.3.5.7.7.3.2.8.6 1.1.5.1 0 .1 0 .1-.2v-.5c-.1-.8-.2-1.7-.5-2.5-.2-.5.6-.8.9-.4.2.5.6.9.7 1.4 0 .3-.1.5-.1.7-.1.5-.1.5 0 .7zm-4.8-2.5c-.1.2-.4.9-.7.8h-.1c-.1 0-.2-.2-.2-.3V29c-.1 0-.1-.1-.2-.1-.3-.6-.6-1.2-.8-1.9-.1-.4-.1-.7.3-1 .1-.1.2 0 .3 0h.1l.1.1v.2c-.1.1-.1.3 0 .5 0 .1.1.3.1.4.2-.2.5-.3.7-.1.2.5.6 1 .4 1.6zm-3.4-3c0 .4 0 .7-.2.9-.1.1-.3.1-.4 0 0 0 0-.1-.1-.1v-.1c0-.1-.1-.2-.1-.3-.1-.1-.1-.3-.1-.4v-.2h-.3v.2c0 .2-.1.3-.2.5s-.1.4-.1.7c0 .2-.3.4-.4.2-.3-.4-.5-.7-.3-1.2.1-.3.1-.4 0-.7-.1-.2-.1-.4.1-.6.1-.1.2-.2.4-.2.1 0 .2.1.3.2.1.1.1.4.4.3.1 0 .2-.2.4-.2s.3 0 .5.1c.1.3.1.6.1.9zm-4.7 1.9c0 .6-.9.6-1 0 0-.2.1-.3.1-.5s-.2-.4-.1-.7c0-.3 0-.6.3-.7.1 0 .2 0 .2.1 0 .2 0 .2.1.3.2.2.3.2.4.4.1.2.1.4.1.6 0 .1-.1.3-.1.5zm.1-3.7c-.1.2-.3.5-.2.8.1.3-.3.6-.6.3-.4-.5-.2-.9 0-1.4.2-.6 1.1-.3.8.3zm1.7 2.4c0 .1-.6.8-.7.7.1.1 0 .3-.2.2-.6-.3-.3-.7 0-1.1l.3-.6c.1-.4-.1-.5-.2-.8-.1-.4-.3-.8-.3-1.2 0-.2.2-.3.3-.2.7.4.8 1.1.8 1.9-.1.3.2.7 0 1.1zm-3.6 1.4c0 .1 0 0 0 0-.1.1 0 .2 0 .2 0 .2 0 .5-.1.7-.2.4-.8.5-1 .9-.3.5-1 .2-.9-.4l.3-.9c.1-.3.5-.3.6 0 0 .1.1.2.1.3h.1c.2-.2.1-.4.2-.7.1-.2.4-.4.6-.4.1.1.2.2.1.3zm-1.3-1.5c-.1.3-.1.8-.5.8-.1 0-.1 0-.2-.1-.2-.2-.1-.3-.1-.6v-1c0-.4 0-.8.4-1 .2-.1.3.1.3.3-.1.3.1.5.1.8.1.3 0 .6 0 .8zm1.2-.9c-.1.1-.2 0-.3 0-.2-.2-.2-.5-.4-.7-.2-.2-.3-.4-.4-.6-.2-.5 0-1 .4-1.3.1-.1.2 0 .2.1.1.5.3 1 .6 1.4.3.3.3.8-.1 1.1zm-1.6-2.9c-.1.1-.2.1-.3 0-.4-.3-.3-.9-.2-1.4 0-.1.2-.1.2 0 .3.5.6.9.3 1.4zm-1.4-1.6c-.1.1-.3 0-.3-.1-.1-.4 0-1.1.3-1.4.1-.1.2-.1.2 0 .5.3.2 1.2-.2 1.5zM-19.2 32c-.4.7-1.3 1-1.9.4-.3-.3-.3-.7-.1-1.1.2-.5.5-1.1.9-1.5.2-.2.5 0 .5.2 0 .5-.2 1-.4 1.5-.1.2-.3.4 0 .4.2 0 .4-.2.6-.3.3-.1.6.1.4.4zm1.3-.5c-.3.2-.6-.3-.4-.5-.1.1-.2-.4-.2-.4s0-.3.1-.3c-.1 0-.4-.1-.5-.1-.2-.1-.4-.2-.6-.4-.6-.4 0-1.3.5-.9.3.2.7.4.9.8.1.2.3.3.4.4.2.4.3 1.1-.2 1.4zm1.7-1.1c-.5.2-1 0-1.3-.5-.1-.2.1-.4.2-.3.5.1.8.2.8-.5 0-.4-.1-.9-.2-1.3-.1-.3-.1-.7-.3-1-.2-.3-.4-.4-.7-.7-.3-.3 0-.6.3-.6.5.1.9.5 1 1 .2.8.4 1.7.5 2.5.2.6.2 1.2-.3 1.4z"/><path d="M-18 28.3c-.5-.1-.7-.7-.4-1 0 0-.1 0-.1.1-.1-.4.4-.6.7-.4.2.1.3.3.4.5.2.3-.1.8-.6.8zm-3.3.3c-.1.1-.3.1-.5-.1-.5-.6-.7-1.3-.3-2.1.1-.1.2-.1.2.1 0 .3.3 2 1 .8.1-.2.1-.8 0-1-.1-.9-.3-1.8-.4-2.7 0-.2.2-.2.3-.1.2 1.1.5 2.2.5 3.3.1.8-.1 1.4-.8 1.8zm-.9-3.4c0 .1-.2.1-.2 0-.1-.7-.5-1.2-.5-1.9s.1-1.4.2-2.1c0-.1.3-.1.3 0 0 .8 0 1.6.1 2.4.2.6.3 1 .1 1.6zm.8-2.4c0 .2-.3.1-.3 0L-22 21c-.1-.5-.4-.9-.3-1.4 0-.2.3-.3.4-.1.2.6.5 1.1.7 1.7 0 .6-.1 1.1-.2 1.6zm-2 4.8c-.1.1-.3.2-.4.1-.4-.1-.3-.5-.3-.8 0-.6-.3-1-.1-1.6 0 .1-.1.1-.1.2l-.3.9c-.2.6-.3.9-.8 1.3-.1.1-.2.1-.3 0 0 0 0-.1-.1-.1-.1-.1 0-.2 0-.3.2-.3.2-.7.2-1 .1-.4.2-.8.4-1.2.2-.5.6-1.3 1.3-1.1.6.2.5.8.4 1.3-.2.8.7 1.5.1 2.3zm-2.9-2.9c-.1.7-.3 1.4-.8 1.8-.1.1-.3.1-.4-.1-.1-.6 0-1 .1-1.6.1-.3 0-.4-.2-.6-.1-.2-.2-.3-.3-.5-.2-.6.7-.8.9-.3.1.2.3.3.4.5.3.3.4.5.3.8zm-2.5-.7c-.2 0-.3 0-.4-.1 0 .1-.1.3-.1.4 0 .3 0 .5-.1.8 0 .2-.3.3-.4.1-.2-.3-.3-.7-.3-1.1 0-.2.1-.4.1-.6 0-.3-.1-.5-.2-.7-.1-.2.1-.4.3-.4.4 0 .6.2.8.5.3.3.5.8.3 1.1zm-1.7-1.8c0 .2-.2.4-.3.5h-.2c-.3-.2-.4-.4-.3-.7.1-.4.3-.6.6-.9.1-.2.5-.1.4.2-.2.3-.1.6-.2.9zm-1.5.5c-.1.1-.2.1-.2 0-.1-.5-.4-.3-.8-.6-.3-.2-.2-.7.1-.9 0 0-.1-.7-.1-.8 0-.2 0-.5.2-.7.2-.3.6-.1.6.2 0 .1-.3 1.2-.2 1.2.3.1.4.4.4.7.1.2.2.6 0 .9zm-4.6-2.4c-.1.3-.4.1-.4-.1.1-.4-.6-.5-.8-.7-.2-.1-.3-.3-.4-.5-.2-.7.5-1.4.2-2.1-.1-.1.1-.3.2-.1.4.6-.1 1.7.4 2.2.5.4.9.6.8 1.3zm1.7 1.6c-.1-.4-.8-.4-1-.7-.3-.4.1-.8-.1-1.1-.2-.2.2-.4.3-.3.4.3.2.9.5 1.2.3.3.6.5.5.9 0 .1-.2.1-.2 0zm-1.1-2.3c-.1.1-.2.1-.2-.1 0-.3 0-.6.2-.8.1-.1.2 0 .2.1 0 .3-.1.5-.2.8z"/><path d="M-34.4 21.8c-.2.1-.3-.2-.2-.4.2-.2 0-.6-.1-.8 0-.2 0-.4.1-.6.1-.2.5-.1.5.1.1.7.4 1.4-.3 1.7zm.3-2.8c-.1.1-.2.1-.3.1h-.1c-.1-.4.1-.8 0-1.2-.1-.4-.3-.7-.4-1.1-.1-.3-.1-.6-.2-.9-.1-.2-.1-.3-.1-.5 0-.3.1-.5.3-.7.1-.1.2-.1.4 0 0 0 .1 0 .1.1l.1.1c-.1.8-.2 1.9.2 2.6.2.4.4.8 0 1.5zm1.8 0c-.5-.2-.8-.8-.8-1.4v-.4c.1-.4.2-.2.1-.7-.1-.6-.6-.8-.9-1.3-.1-.3.2-.5.4-.3.4.4.9 1.1 1 1.7.1.4 0 .7 0 1.1 0 .5.2.8.4 1.2 0 .1-.1.1-.2.1zm3.5 1.9c.1.2-.1.3-.3.3-.6-.1-.8-.9-.7-1.4 0-.1.1-.3.1-.4 0-.2-.1-.4-.1-.6 0-.3 0-.5.2-.7.2-.3.7.1.4.4-.2.2.2.8.2 1.1 0 .3-.1.5 0 .8 0 .3.1.4.2.5zm-.8-6.8c-.1.7-.4 1.4-1 1.5.1.5 0 1.1.1 1.6.1.9.2 1.7-.2 2.5-.1.1-.3.1-.3 0-.1-.7 0-1.3 0-2 0-.6.1-1.9-.4-2.2-.3-.2 0-.7.4-.6.4.1 1.2-1.8.2-1.7-.5 0-.4.3-.7.7-.2.2-.7.2-.6-.2v-.3c0-.2.2-.4.4-.4.2-.1.4-.2.5-.4.1-.1.3-.1.4-.1.9.4 1.4.4 1.2 1.6zm10.8 10.7c-.1.1-.3.3-.4.5v.3c.1.2-.2.4-.4.2s-.2-.4-.3-.6v-.5c0-.3-.2-.4-.3-.7-.3-.4-.2-.9.2-1.3.2-.1.4 0 .3.2-.3.5.2.8.4 1.2-.1-.2-.1-.4 0-.7 0-.1.2-.1.2-.1.3.1.4.5.4.8 0 .4 0 .6-.1.7zm.9-.3c-.1.1-.4 0-.3-.2.6-1.4.1-2.8.2-4.2 0-.2.3-.3.4-.1.1.5.2.9.3 1.4.1.5.2.9.3 1.4 0 .7-.2 1.3-.9 1.7zm-.9-3.3c0 .1-.1.1-.1.2-.1.1-.3.1-.4-.1-.1-.4 0-.8 0-1.2-.1-.3.2-.5.4-.4.4.1.7.3.7.8-.1.1-.3.5-.6.7zm-.8-1.1c-.1.2-.4.2-.5.4-.1.2 0 .8-.1 1.1 0 .3 0 .6-.2.9 0 .1-.2.1-.3 0-.1-.3-.1-.5-.1-.8 0-.4-.1-.8-.1-1.2 0-.2 0-.4.1-.5.1-.1.3-.2.4-.3 0-.4.6-.5.7-.1.2.2.2.3.1.5zm-.3-3.9c-.1.5-.3 1-.4 1.5 0 .1-.3.1-.3 0 .1-.5.1-1.1.1-1.6 0-.4.1-.8.3-1.2.1-.1.3 0 .4.1.1.4 0 .8-.1 1.2z"/><path d="M-18.9 17.2c-.4.2-.8.7-1.2.7-.1 0-.2 0-.2-.1 0-.5.5-.9.9-1.2.2-.1.4-.2.6 0 .1.1.1.1.1.2s-.1.3-.2.4zm2.1.4c0 .4-.6.5-.7.1 0 0-.4-.1-.5-.2-.1-.1-.1-.1-.1-.2-.1.2-.3.5-.3.5-.1.1-.3 0-.3-.1 0-.4.4-1.6 1-1.2.2.1.2.4.3.5.2-.5.7-.9.6-1.5-.1-.6-.6-.4-.9-.7-.3-.2-.3-.4-.3-.8.1-.5.9-.4.9.1 0 .4.6.6.8.9.2.2.3.5.3.7 0 .8-.8 1.2-.8 1.9zm-1.5-4.1c0 .2-.2.4-.4.2-.1-.1-.2-.3-.2-.5l-.3.3c-.2.3-.6 0-.6-.3 0-.6.2-1.6.9-1.7.1 0 .2.1.2.2 0 .2 0 .3-.1.5h.3c.2.1.3.2.3.4.1.4-.1.6-.1.9z"/><path d="M-19.1 11.1c-.2.3-.3.6-.5.9-.3.7-.2.9-.4 1.6-.3 1.3-1.1 2.4-2 3.3-.1.1-.3 0-.2-.1.5-.7.7-1.6 1-2.4.3-.8.7-1.7 1-2.5.3-1.1.6-2 1.6-2.7.1-.1.2 0 .2.1-.2.6-.5 1.2-.7 1.8zm-4.9 7.2c-.4.3-.9.5-1 1.2-.1.3-.1.7-.1 1 .7.4.8 1.5.5 2.1-.1.2-.3.1-.3 0-.1-.4-.2-.8-.4-1.1-.2-.3-.3-.4-.4-.7 0-.2.1-.4.3-.4 0 0-.2-.8-.2-.9 0-.3 0-.5.2-.8.2-.5.7-.9 1.3-.9.1 0 .3.3.1.5z"/><path d="M-22.7 17.9c-.2.6-.4 1.1-.5 1.8-.1.5-.1 1.1-.2 1.6 0 .1-.2.1-.2.1-1.1-1-.6-2.8.2-3.8.2-.5.9-.1.7.3zm-2.9-2.2c-.8-.9-.7-2.1-.4-3.1.2-.6-.1-.8-.1-1.4 0-.6.5-1.1.9-1.5.1-.1.2 0 .2.1-.4.9-.3 1.9-.4 2.9-.1 1 .1 1.7.4 2.6.2.4-.4.7-.6.4zm4.1-3.2c-.1.2-.2.5-.3.7-.2.3-.7.6-.6 1.1.1.5-.4.8-.8.6-.4-.2-.4.5-.7.4h-.1c-.1 0-.2-.1-.3-.3-.2-.7.3-1.3 1-1.3h.3c.1.1.2.1.2-.1.2-.2.2-.8.3-1.1.2-.7.3-1.3.2-2-.1-.5.8-.6.9-.1.2.8.1 1.4-.1 2.1zm-5.9 2c0 .2 0 .4-.1.6.1 0 .1 0 .1.1.4.7.4 1.3.4 2.1h.1c.8 1.3.7 2.8-.3 4-.1.1-.4 0-.4-.2V21l-.2.2c-.1.2-.5 0-.4-.2 0-.5.1-1.4.7-1.5h.2c.2-.7.3-1.3.1-2-.1 0-.1 0-.2-.1-.4-.6-.7-1.3-.4-2-.4-.2-.3-.8-.3-1.1.1-.5.3-1 .6-1.3.1-.1.2-.1.4-.1.1 0 .2.1.2.2.1.1.1.3 0 .4-.2.2-.4.6-.5 1zm-1.4 1.8c-.1.4-.2.9-.4 1.2-.1.2-.3.1-.4 0-.1-.4-.1-.9-.1-1.3 0-.7 1.1-.6.9.1zm.5-3.1c-.2.5-.2 1.1-.4 1.6 0 .1-.2.1-.2 0-.4-.8-.2-2.7.8-3.1.1 0 .2 0 .2.1 0 .5-.2 1-.4 1.4zm11.9-3.2c-.1.4-.2.8-.4 1.1-.1.2-.4.2-.6 0-.4-.6.1-2.4 1.1-2.1.1 0 .1.1.1.1.1.3-.1.6-.2.9zm3.4-.8c.1.2.1.3 0 .5-.2.4-.4.9-.6 1.3-.1.2-.2.4-.2.6 0 .1.1.2.1.3 0 .7-.6 1.2-1.1 1.7-.2.2-.5.1-.6-.1-.1.1-.2.1-.4 0-.9-.4-.5-1.5.1-2 .2-.2.6.2.4.4-.2.3-.1.7-.1 1 .2-.3.3-.6.5-.9.1-.3.3-.5.4-.8 0-.3-.1-.5 0-.8.1-.4.3-.8.5-1.2.1-.1 0-.1 0-.2-.1-.2 0-.4 0-.6v-.8c-.1-.5.6-.9.9-.4.2.5.3 1.3-.1 1.8.1 0 .2 0 .2.2z"/><path d="M-14.9 8.6c-.1 0-.2-.1-.2-.2 0-.5.2-.9.6-1 .2-.1.4.1.4.3 0 .4-.4.8-.8.9zm1.3-2.7c-.3.3-.8.3-.9.8 0 .2.1.4-.2.5-.1 0-.3 0-.3-.1-.2-.4-.2-.8 0-1.2.1-.2.3-.3.4-.4l.3-.1c0-.1-.3-.3-.3-.3-.6-.4 0-1.4.6-1 .6.4 1 1.1.4 1.8zm2.4 13.1c-.1.1-.1.2-.2.2.2.4.3.9.3 1.3s-.2.9-.2 1.3c.1 0 .1.1.2.1.1.2.1.5 0 .7-.1.3-.5.4-.7.7-.1.3.2.6.3.9.1.3.1.6 0 .9-.2.8-1.5.4-1.2-.3.1-.3-.1-.5-.1-.8-.1-.3-.1-.6 0-.9.1-.3.3-.5.6-.7.1-.1.3-.2.5-.3-.3-.2-.4-.5-.4-.9l.3-1.2c.1-.3.1-.6.1-.9-.3-.1-.4-.4-.3-.8.2-.5.1-1.1-.4-1.4-.2-.2-.5-.3-.6-.4-.2.2-.5.3-.8.2-.3.7-.8 1.4-1.2 2.1-.5.7-.6 1.5-.3 2.3.1.1.3.4.4.6.2.7-.2 1-.3 1.6 0 .3-.3.4-.5.1-.4-.6-.1-.9-.1-1.6 0-.8-.3-1.7-.3-2.5 0-.7.1-1.2.6-1.8.3-.5.9-.6.8-1.3-.1-.7.8-.9 1-.3.1-.1.2-.2.3-.4.1-.3.6-.3.7 0 .2.4.5.5.9.7.3.2.5.4.7.7.2.8.2 1.5-.1 2.1z"/><path d="M-14 26.1c-.1-.1-.2-.3-.2-.4.1.4-.3.9-.7.6-.7-.5-.8-1.2-.7-2 .1-.4.6-.2.6.1.1.4.4.8.7 1.1-.4-.7.7-1.2 1-.4l.3.6c.2.6-.8 1-1 .4zm.3-4.4c-.5-.2-.8-.6-.8-1-.1-.5.7-.6.7-.1 0 .3.2.4.4.6.3.1 0 .6-.3.5zm3.6-11.3V10c.1-.3.4-.3.6-.2.1.1.2.2.2.3.4.7-.7 1.1-.8.3zm-1.3 1.7c.2 0 .3.1.4.3.4.6.5 1.5.2 2.2-.2.3-.7.2-.8-.1-.1-.5-.2-1-.5-1.4-.1-.1-.1-.3-.1-.4-.2-.1-.3-.4-.4-.7-.1-.7.3-1.1.8-1.6.6-.6 1.5.3.9.9-.2.2-.4.5-.5.8zm2.2-4.5c-.3-.3-.5-.8-.9-1-.3-.1-.5-.1-.5.3 0 .2.2.4.3.6.2 1-.5 1.8-1.5 1.8-.3 0-.5-.4-.2-.6.3-.2.4-.3.5-.7 0-.3 0-.6.1-.9.1-.2.1-.2.1-.4s-.1-.3 0-.5c0-.3.2-.5.4-.6.5-.2 1.1-.1 1.5.2.2.2.3.4.4.6.1.3 0 .7.2.9 0 .3-.2.5-.4.3zm2.9-.1c0 .2 0 .5-.2.7-.1.2-.4.3-.4.6-.1.4-.6.5-.8.1-.2-.3-.2-.6 0-.9.2-.3.3-.3.2-.6-.2-.6-.4-1.3.2-1.6.3-.2.8 0 .8.4v.6c.1.3.2.5.2.7zm-1.1 3.8c-.5.5-1.4-.2-1-.8l.1-.1c-.4-.8.8-1.5 1.2-.7.2.6.1 1.2-.3 1.6zm-.7 2.7c-.5.4-1.2.7-1.5 1.4-.1.2-.3.3-.5.1-.4-.4-.3-1.1 0-1.5.3-.4 1.4-.8 1.3-1.4-.1-.8 1.1-1.2 1.3-.4.2.8-.1 1.4-.6 1.8zm-.6 10.6c-.3-.1-.4-.4-.5-.7-.1-.4-.3-.8-.4-1.3-.2-.7 0-1.3.5-1.9.1-.1.2 0 .2.1v.7c.1.6.3.5.6.8.1.3.3.7.3 1.1 0 .3-.2 1.4-.7 1.2zm.8-6.7c-.6.7-.5 1.7-1.2 2.2 0 0-.1.1-.2 0-.5-.6-.5-1.3-.1-2.1.2-.6.8-1.3 1.4-1.7V16c0-.3.4-.3.5-.1.3 1 .2 1.3-.4 2z"/><path d="M-5.1 20.4c-.4.8-.8 1.3-.5 2.3.1.4.3.5.3.9-.1 1.2-1.1 1.2-1.8 1.8-.1.1-.2.1-.3 0l-.2-.2c-.1-.2-.2-.4-.1-.6.7-1 1.2-1.6 1.3-2.8.2-1.7 1.2-4.4-.4-5.4-.6-.4-.2-1.3.5-1.1 2.2.7 1.9 3.4 1.2 5.1z"/><path d="M-7.4 19.9c-.1.3-.1.6-.3.8 0 .1-.1.1-.1 0-.5-.4-.2-1.1 0-1.5.1-.1.2-.2.3-.2h.1c.1 0 .2.1.2.2.1.4 0 .5-.2.7zm-3.2 9.3c-.2 0-.3-.1-.4-.2-.2-.3-.4-.5-.8-.7-.2-.1-.4-.1-.5 0-.3.2 0 .6.1.8.2.3.4.4.4.8 0 .1-.2.3-.3.2-.7-.5-1.6-1.8-.5-2.4.4-.2 1-.2 1.4.1.2.1.3.3.4.6.1.3 0 .6.3.8 0-.2 0 0-.1 0z"/><path d="M-8.3 32.1c.1.4-.4.8-.8.4-.2-.2-2-1.6-1.4-1.9 0 0 .1 0 .1-.1.1-.1.3-.1.4 0 .3.2.5.4.7.6.1-.5.3-1 .4-1.6.2-.8-.2-1.2-.4-1.9-.1-.2-.1-.5-.2-.7-.2-.2-.3-.5-.5-.4-.3.2-.2.9-.3 1.2 0 .1-.2.2-.3.1-.7-.6-.6-1.8.3-2.2.8-.4 1.7.4 1.6 1.2v.1c.4.5.8 1 .9 1.6.3 1.3-.8 2.4-.5 3.6zm-5.9-3.8c-.3.3-.2.5-.1.9 0 0 0 .1-.1.1-.3.1-.6-.1-.8-.4-.2-.4 0-.8.3-1.1.5-.5 1.1.1.7.5z"/><path d="M-13.1 31.6s-.1 0 0 0c-.2.1-.4.1-.5 0-.4-.4-.3-.8-.3-1.3 0-.6-.3-1.2-.4-1.8 0-.2.1-.3.3-.2.4.4.7.9.8 1.4.1.3.1.5.1.8 0 .3.2.5.2.8-.1.2-.1.3-.2.3zm-.6 2c-.6.3-1-.2-1.2-.7-.1-.1-.1-.3-.1-.4-.1-.3-.3-.2-.6-.2-.5.1-.6.3-.7.8-.1.3-.4.3-.6.2-.3-.3-.3-.8-.1-1.2.3-.5.9-.7 1.4-.8.5-.1 1 0 1.3.5.3.5.2 1 .7 1.4.1 0 .1.3-.1.4zm4.6.9c.1.2.2.4.2.6.1.6-.9.9-1 .3-.1-.5-.7-.8-.8-1.3v-.5c.2-.4.4-.2 0-.5-.2-.1-.5-.2-.7-.3-.2-.1-.4-.3-.5-.5-.2-.3-.4-.6-.3-1 0-.1.1-.1.2-.1.5.4.7.9 1.3 1.1.4.1.8.2 1.1.6.1.2.1.3.1.5s-.3.4-.3.5c.1.2.6.5.7.6zm4.1-.1c-.4.2-.7.4-1.1.2-.4-.1-.7-.4-.9-.7-.2-.3-.3-.7-.2-1 .1-.2.2-.3.3-.5.2-.4.3-.7.2-1.1 0-.2.2-.2.3-.1.4.5.3 1.1.2 1.7-.1.6.1.6.6.8.2.1.4.4.6.6.1 0 .1 0 0 .1z"/><path d="M-2.9 31.9c0 .1-.1.2-.2.3.1.1.1.3.1.5 0 .3-.2.6-.2.9-.1.4 0 .9.2 1.3.2.5-.5.8-.8.5-.2-.2-.4-.4-.7-.6-.2-.2 0-.6.2-.6v-.9c0-.2.1-.4.2-.5v-.2c-.1 0-.3-.1-.3-.1-.1-.1-.2-.1-.3-.2-.4-.4-.1-.9.3-1h.1V31c0-.5-.2-.8-.5-1.2-.3-.4-.5-.8-.6-1.2h-.9c0 .3-.1.5 0 .8 0 .3.1.7-.1 1 0 .1-.1.1-.2.1-.8-.3-.7-1.9-.6-2.5.1-.4.6-.4.9-.1.3 0 .6.1.9.1-.1-.2-.2-.4-.2-.6-.1-.2.1-.2.2-.1.9.7 2 1.7 2.3 2.9v1.1c.2.1.2.4.2.6zm5 2c0 .6.3 1.1 0 1.7-.3.5-.8.5-1.3.6-.6.1-1.3.2-1.8-.3-.4-.4-.5-.9-.3-1.3.1-.2.4-.3.5-.1.3.6.9 1.4 1.6.9.6-.4.2-1.1.2-1.7 0-.4.1-.7.1-1.1 0-.1-.1-.2-.1-.2-.2-.2-.4-.4-.7-.5-.2-.1-.4-.3-.7-.2-.1 0-.1 0-.2.1 0 .1 0 .2-.1.2l-.2.1c-.1.1 0 .1 0 .2 0 .2.1.4.1.6.1.4-.3.7-.7.5-.4-.2-.7-.8-.5-1.2.1-.2.2-.3.4-.4v-.1c.3-.6 0-1.2.7-1.5.6-.3 1.2.1 1.7.5.5.3 1 .7 1.2 1.3.5.5.1 1.2.1 1.9zm-3.8 4.8c-1.2-.4-2.4-.5-3.5-1-.8-.3-1.7-.7-2.2-1.5-.2-.4-.3-.9.1-1.2.6-.3 1.7.5 2.1.9.2.1 0 .4-.2.3-.3 0-.5-.1-.7-.2-.1 0-.3 0-.5-.1s-.2-.1-.1 0c.2.4.9.9 1.3 1.2.7.5 1.7.8 2.6 1-.2-.1-.3-.3-.5-.4-.5-.5-.9-1.1-1.5-1.5-.2-.1-.1-.4.1-.3.7.1 1.3.2 1.7.5.6.5 1 1.3 1.5 1.8.2.2 0 .6-.2.5zm8.9 1.6c-1.3-.1-2.5.5-3.7.4-1-.1-2.5-.6-3.4-1.1-.2-.1-.1-.3.1-.3.5.1 1 .3 1.5.4.8.1 1.1 0 1.9-.1.6-.1 1.2 0 1.8.1-.7-.4-1.4-.7-2.1-1-.6-.3-1.3-.6-1.9-.7-.3-.1-.6-.1-1-.1.1.2.2.4.3.5.1.2 0 .4-.2.3-.8-.1-1.1-.5-1.3-1.3-.1-.4.2-.6.6-.6 1.2.2 2.5.6 3.8 1 1.3.3 2.5.9 3.7 1.3.6.3.6 1.2-.1 1.2zM15 42c-2.5-.9-4.8-.5-7.4-.3-.1 0-.2-.2-.1-.3 2.3-1.4 5.3-.9 7.6.3.1.1 0 .3-.1.3zm6.2-.3c-1.1 0-2.2-.3-3.3-.4-1.1-.1-2.2-.1-3.3-.2-.1 0-.2-.2 0-.3 1.1-.2 2.2-.3 3.3-.2 1.1.1 2.3 0 3.4.4.3.1.3.7-.1.7zm-4.6-1.4c-.6 0-1.1-.2-1.5-.4 0 .1 0 .2-.1.2h-.6c-.4.1-.8.2-1.2.1-.3 0-.6-.1-.9-.2h-.7c-.5.1-1.2.2-1.7-.1-.7-.4-.7-1.4 0-1.8-.2-1.1 1.3-1.4 2.1-1.1 1.7.6 3.7 1.3 4.9 2.7.1.2 0 .6-.3.6zm-3.1-.6h.3c1-.6-.5-1.1-.8-1.3-.8-.5-1-.7-2.2 0 0 0-.1 0-.1.1.3.6 1 .9 1.7 1.1-.1 0 .6.1 1.1.1zm8.9.3c-2.3.4-4.1.1-5.5-1.8-.2-.2-.1-.7.3-.6.5 0 .7.1 1.1.4.2.2 0 .4-.2.4H18c.3.4.7.8 1.2 1 .7.4 1.4.3 2 .2-.2-.1-.3-.1-.5-.2-.6-.4-1-.8-1.7-1-.2-.1-.1-.5.1-.4.6.2 1.2.3 1.8.4.6.1 1.1.6 1.6 1 .3.1.3.6-.1.6zM8.5 36.4c-.1.2-.4.4-.4.6 0 .1 0 .2-.1.3 0 .1-.1.2-.2.3-.1 0-.1 0-.1.1.1.3-.1.8-.6.7 0 0-.1 0-.1-.1-.5-.2-1-.5-1.5-.7-.5-.4-1.2-.6-1.6-.9-.4-.3-.7-.9-.4-1.4.2-.2.4-.2.5-.3.1-.1 0-.4 0-.6 0-.5.1-.8.6-.8.4 0 .5.6.1.7.1 0 .2.6.2.7-.1.3-.3.3-.4.6-.3.8 1.2 1.4 2.2 1.6.2-.1.3-.2.5-.2 0-.4.1-.9.2-1.3.2-1.2.4-1.6-.5-2.4-.5-.5-.7-.9-1.4-1-1-.2-.6 0-.9.7h-.1c-.6-.5-1.2-.6-1-1.5.1-.3.3-.5.6-.5 1-.1 1.8.4 2.7.8.4.2.6.3.8.8.3.5.5.9.8 1.4.5.6.6 1.7.1 2.4zm2.7-1.5c.2 0 .4.2.5.3.1.1.2.3.1.5 0 .1-.1.2-.2.2-.2.2-.4.2-.7.1-.4-.2-.4-.6-.7-1-.3-.4-.6-.7-.8-1.2-.3-1 1-1.7 1.8-1.5.3.1.5.5.3.7-.2.2-.3.3-.5.4-.2.1-.4.1-.6.2 0 .4.2.8.4 1.1 0 .1 0 .1.1.1.2.1.3.1.3.1zm3.6 1.8c-1 .1-1.6-.4-1.7-1.4-.1-.5.1-1.1-.1-1.6-.1-.4-.4-.7-.5-1-.2-.5-.2-.9-.1-1.4 0-.2.3-.4.5-.5.2-.1.3-.2.5-.4.3-.3.7.1.4.4-.2.2-.2.7-.2 1 0 .6.3 1 .5 1.6.3.7.2 2.5.9 2.8.2.2 0 .5-.2.5zm4.8-.6c-.1.3-.3.5-.6.6-.4.1-.7-.1-1.1-.1-.4 0-.6.2-1 0-.7-.3-.9-.9-1.1-1.5-.1-.2.2-.3.4-.2.4.6 1.4 1.5 2.2 1 0-.1-.1-.2-.1-.3 0-.3.1-.5 0-.8-.1-.5-.3-.9-.5-1.3-.2-.5.4-1 .8-.6.6.6.8 1.3 1.1 2.1 0 .5.1.7-.1 1.1zm-2.5-3.5c0 .4-.4.9-.9.6-.1 0-.2-.1-.2-.2v.1c.1.4.1.8.2 1.1 0 .2-.2.3-.4.2-.3-.6-1.5-2.5-.4-2.9.5-.1 1.1-.3 1.5.1.4.2.4.6.2 1zM-3 24.9c-.1.4-.3.5-.2.9.1.3.1.5 0 .8-.1.3-.5.3-.6 0-.2-.6-.8-.8-.5-1.5.1-.3.3-.5.4-.7.1-.3.1-.7.1-1 0-.4.5-.4.7-.2.2.5.3 1.2.1 1.7zm-.6-2.7c-.4 0-.4-.7 0-.7.4.1.4.7 0 .7zm1 .6c-.5 0-.5-.7 0-.7s.5.7 0 .7zm2.7 5c-.2.4-.6.5-1 .7-.2.2-.4.3-.7.3h-.2c-1.2-.1-1.2-1.9 0-1.9h.2c0-.2.1-.4.1-.6.1-.5-.2-1.1-.4-1.6-.1-.3.2-.6.4-.4.5.3 1 .5 1.2 1.1.3.3.3.5.4.8v.6c.1.1.1.2.1.2.1.3 0 .6-.1.8zM-1 23.9c-.3 0-.5-.2-.5-.5 0-.2 0-.4.1-.7-.1-.1-.1-.3-.1-.5s.1-.4.2-.5v-1.1c.1-.3.4-.6.8-.6h.1c.3 0 .6.2.6.5.1.2.1.4 0 .6.1.1.3.2.3.3.7 1.1-.5 2.5-1.5 2.5zm-.9-4c-.1.3-.2.7-.4 1-.2.3-.5.3-.8.5-.3.1-.6-.1-.4-.4.1-.1 0-.4.1-.6.1-.2.1-.4.1-.6-.1-1.3 1.7-1.1 1.4.1zm9.1 5.4c-.4.7-.5.7-.6 1.6 0 .4 0 .7-.2 1.1-.2.7-.6 1.1-1.3 1.3-.1.1-.3-.1-.4-.3-.3.1-.5.1-.8.1-.6 0-1.1-.2-1.5-.6-.5-.5-.9-1.6-.5-2.2-.4-.6-.3-1.1-.2-1.8 0-.2.2-.4.4-.5l.1-.1c-.3-.3-.4-.7-.3-1.1.2-.6.7-.9 1.2-1.1.4-.2.7-.7 1.2-.7s.6.4.6.7H5v-.2c.2-.6 1.1-.5 1.1.1 0 .3 1.3 1 1.5 1.4.3.9 0 1.7-.4 2.3zM5 22.5c-.2 0-.4.1-.6.2l-.1.1c-.2.2-.5.4-.8.5-.3.2-.5.5-.7.8v.4c.2.1.2.2.2.4-.1.3-.2.7-.3 1 .1.1.2.2.2.3.2.6-.1 1 .6 1.3.5.2 1 .2 1.6.2.1-.3.2-.7.3-1 .2-.7.5-1.5.6-2.2-.1-.9-.7-1.3-1-2zm3.7 8.8c-.4-.3-.6-.6-.8-1-.1-.4-.5-.7-.6-1.1-.2-.7.5-1.8 1.3-1.5.2.1.3.2.2.4 0 .2-.2.4-.3.6-.1.2-.2.6-.2.8 0 .3.1.4.4.5.3.1.5.3.8.5.7.3-.1 1.4-.8.8zm4.1-2.8c-.2.4-.6.9-1 1.1-.4.3-.8.5-1.1.8-.3.4-.8.2-.8-.2-.1-1.2 2-1.5 1-2.8-.5-.6-.1-1.7.8-1.4 1 .3 1.5 1.6 1.1 2.5zM10 26h-.1s-.1 0-.1.1c-.2.2-.4.3-.6.5-.3.2-.8-.1-.7-.5.2-.8.7-1.7 1.7-1.4.2.1.5.3.5.5v.1c0 .3-.2.7-.7.7zm5.8 3.7c-.4-.1-.8-.2-1-.5-.3-.4-.3-.9-.1-1.3.4-.8.1-1.6 1.1-2 .2-.1.4.2.3.4-.1.2 0 .4 0 .6v.8c0 .2-.1.4-.2.6h.1c1 0 .8 1.6-.2 1.4zm4.2-1.9c-.1.4-.3.7-.5 1l-.3.6c-.1.3-.4.3-.4.7 0 .6-.6.7-1 .4-.6-.5-.8-1.2-.5-1.9.1-.3.6-.3.6.1 0 .1.1.2.1.4.2-.2.4-.3.6-.5.5-.6-.1-1.7-.1-2.3 0-.4.5-.7.9-.5.6.4.8 1.2.6 2zm-2.2-1.6c-.1.1-.3.1-.4 0-.2-.2-.3-.5-.4-.7 0-.1-.1-.1-.1-.1-.2.3-.4.4-.8.3-.1-.1-.3-.2-.3-.4 0-.4.4-.6.5-1 .1-.3.6-.5.8-.2.5.5 1 1.4.7 2.1zm3.7 8.7c-.7-.5-1.4-1.1-1.7-2-.3-.9 0-1.8.2-2.6.1-.4.8-.5.9 0 .1.7-.2 1.2-.2 1.8 0 .8.9 1.4 1.5 1.9.4.5-.2 1.3-.7.9zm3.2-1.9c-.4.8-.5 1.5-1.2 1.9-.2.1-.4 0-.5-.2-.4-1.2.7-2.1.5-3.1-.2-1.2-.5-2.5-.8-3.8h-.1c-.1-.1-.3-.1-.4-.2-.1.2-.2.3-.3.5-.2.3-.3.5-.5.8-.1.1-.2.3-.3.3-.5 0-.5-.6-.5-1 .1-.6.6-1.1.5-1.7 0-.8 1.1-.9 1.3-.2 0 .2.1.3.2.3.2-.5.9-.7 1.2-.1.3.5.1 1.2.2 1.8.2 1 .9 1.8 1.1 2.8.2.9-.1 1.3-.4 1.9zm5.5-4.7c0 .7.5 1.2-.1 1.8-.5.6-1.1.1-1.7.3h-.1c0 .1-.1.3-.2.3-.6.2-1.2.4-1.8 0-.7-.4-.8-1.1-.8-1.8-.1-1.2-1.2-3.4.6-4.1.1-.1.4.1.4.2.2 1.1-.3 2.3.1 3.3.2.6 1.1 1.3 1.6 1.8.1-.2.1-.4.3-.6.1-.1.4-.3.5-.2 0-.2-.2-.7-.2-.8 0-.3.3-.7.3-1.1.2 0 .2-.1-.1-.3-.2-.1-.3-.2-.4-.4-.3-.3-.5-.5-.9-.7-.7-.5-.6-1.2-.7-1.9-.1-.7.9-.7 1.2-.2.1.3.4.5.6.7.1.2.2.4.2.6.6.2 1.2.2 1.5 1 .2.8-.3 1.4-.3 2.1zm-34-13.9c-.4.3-.8.1-.9-.4v-.3c-.1.1-.3.1-.5.1-.3 0-.7-.1-.9-.3-.2-.3-.2-.8-.1-1.1.1-.4.3-.9.6-1.2.2-.1.4-.1.5.1.1.3.2.8.2 1.2h.6c1.1.2 1.2 1.4.5 1.9zm2.8 3c-.1.3-.4.4-.7.4-.7-.1-1.1-1.2-1.1-1.9 0-.6.3-1.2.9-1.4.2-.1.5.1.4.3-.2.4-.1.8.1 1.2.1.5.6.9.4 1.4zm3.1 1c-.2.6-.8 1-1.5.7-.6-.3-.8-.9-.5-1.5.2-.3.3-.6.3-1s-.2-.7.1-1.1c.2-.3.7-.4 1 0 .6.8 1.1 1.9.6 2.9zm-2-4c-1.1 0-1.7-1.6-.7-2.2.4-.2.8 0 1 .4v.3c-.1-.2.2.1.2.2.6.5.2 1.4-.5 1.3zm3.7.7c-.2 0-.5 0-.7-.1-.1 0-.1-.1-.2-.2l-.1-.1c-.3-.3-.4-.5-.4-.9-.1-.4.5-.6.8-.3l.1.1c.1 0 .2-.1.3-.1.5-.2 1 .2 1 .7 0 .5-.3.8-.8.9zm-7.1-6.2s-.1.1-.2.1c-.2.1-.3.2-.5.3l-.2.2-.1.1v.1c-.2.3-.5.4-.7.2-.2-.2-.5-.5-.5-.8 0-.4.2-.8.4-1 .3-.2.6-.4 1-.4s.6.2.9.3c.2.3.2.7-.1.9zm2.1 2c-.1 0-.1-.1-.2-.1v.4c-.1.6-.3 1.2-.9 1.4-.4.1-.8-.2-.8-.6 0-.7 1-1.4.5-2.2-.3-.5.2-1 .7-.9.8.2 1.3.8 1.4 1.7-.1.3-.4.5-.7.3zm4.9 0c-.1.2-.3.2-.5.3-.1.1-.2.2-.3.2-.1 0-.2.1-.2.1-.1.1-.2.1-.2 0v.6c-.1.2-.2.3-.4.4h-.2l-.3-.3c-.1-.1-.2-.3-.2-.5-.1-.4-.1-.8.2-1.1.3-.3.8-.4 1.2-.3.2 0 .3.2.5.2s.2 0 .4.2c.1.1.1.2 0 .2zm2.7.5l-.1.1c0 .1-.1.1-.1.1.1.1.2.2.2.4.1.5-.2.8-.5 1.1-.2.4-.9.6-1.2.2-.5-.7-.6-1.5.1-2.1.1-.1.2-.1.4-.2.1-.1.3-.2.5-.3.2-.1.4 0 .6 0 .3.1.4.5.1.7zm.9 9c-.5-.3-1-.7-1.6-.9-.1.1-.2.1-.3.1-.7.1-1.2-.6-1.3-1.2-.1-.7 0-1.7.6-2.2.3-.2.8-.2.9.2.1.7-.2 1.3.1 2 .1.1.1.2.1.4.7-.1 1.5-.1 2.1.3.8.6.2 1.7-.6 1.3zm2.7-3.7s0 .1 0 0c-.1.4-.2.6-.3.9-.1.4-.1.8-.4 1.2-.2.3-.8.5-1 0-.3-.6-.3-1.3 0-1.9v-.1c-.5-.1-.9-.6-.4-1.1 0-.7 1-1.2 1.4-.4.1.2.3.4.4.6.4.1.6.6.3.8zm-4.1-1.2c-.2-.1-.3-.4-.2-.6.1-.4.6-.9 1-1 .3 0 .5.1.6.4.3.8-.7 1.6-1.4 1.2zm4.3-.9c0-.1-.1-.3-.2-.4-.1-.2.1 0-.1-.1-.2-.2-.1-.6.2-.6.6-.2 1.1 0 1.4.6.5.9-1.1 1.5-1.3.5zm.1-3.4c-.3.4-.5.7-1 .8.1.2.1.4.1.5.1.5-.4.7-.8.5-.6-.3-1.1-1.1-.8-1.8.3-.6 1-.7 1.5-.9.6-.2 1.4.3 1 .9zm-25.9-4.5c-.1.2-.3.4-.3.6 0 .2-.2.2-.3 0-.1-.4-.2-.6-.1-1 .3-.6 1.2-.1.7.4zm-1-2.2c-.3.5-.4.9-.6 1.5-.2.8-.5 1.7-.9 2.5 0-.6.1-1.1.2-1.7.1-.6.3-1.1.5-1.7.2-.8.1-1.6.8-2.2.3-.2.6 0 .6.3-.2.6-.4.9-.6 1.3zm.8-.2c-.2.2-.5 0-.4-.3.2-.3.3-.7.5-1.1.2-.3.7-.2.6.2 0 .5-.3.9-.7 1.2zm3.6-2.6v.2c-.2.2-.4.3-.6.5-.2.2-.3.5-.5.7-.1.1-.2.1-.3 0-.9-.4-.1-1.8.7-1.9V.6c.1-.1 0-.1-.1-.1-.1-.2.1-.4.3-.3.5.1.8.3.9.8.3.4-.1.6-.4.7zm-2.3-.2c-.2.2-.3.3-.5.4-.8.5-1.4-1.1-.3-1.2.2 0 .4.1.6.1.4.1.4.5.2.7z"/><path d="M-13.3-2.3c-.2.1-.5.2-.7.3-.2.1-.3.3-.5.5-.3.3-.6.6-1 .5v.1c0 .1-.2.2-.2.3 0 .1.1.3.1.4 0 .3 0 .6-.1.8-.3.5-.8.8-1.4.8-.4 0-.6-.5-.3-.7.2-.2.5-.3.6-.6.1-.3-.1-.6 0-.9.1-.5.6-.9 1.1-.7v-.1c.3-.1.1-.5.1-.8.1-.3.2-.5.4-.7.4-.4 1-.6 1.5-.5.6.3.9 1 .4 1.3zm2.6.8c0 .1-.1.1 0 0-.3.2-.4.3-.7.3-.4.2-.7-.4-.4-.7l.3-.3c-.1-.2-.3-.3-.4-.5-.2-.3 0-.6.4-.5.4.2.8.4 1.3.5.8.3.2 1.6-.5 1.2zm2.1 2c-.1 0-.2 0-.3.1-.5.2-1.1-.4-.8-.9.3-.4.6-.6 1.1-.6.9 0 .9 1.3 0 1.4zm-1.8 1c0-.1.1-.2.1-.3.2-.5.9-.6 1 0 0 .2.1.3.1.5.1.8-1.4.7-1.2-.2z"/><path d="M-9.2 4.6c-.5.1-1-.3-1.2-.8-.1-.5 0-1 .4-1.4.2-.3.7-.1.7.3 0 .1-.1.5.1.6.8 0 .8 1.2 0 1.3zm1.6.1c-.4 0-.6-.7-.2-.9 0 0 .1 0 .1-.1-.5-.3-.2-1.1.4-1.1.7 0 1.3.5 1.3 1.2 0 1-.9.9-1.6.9zm1.5-2.3c-.9 0-1.6-1-1.5-1.8.1-.5.7-1 1.1-.5.4.4.8 1.1.9 1.7 0 .3-.2.6-.5.6zm-7.1 1.3c-.1-.2 0-.4.2-.5.4-.1 1.3.1 1.1-.6 0-.2.2-.3.4-.2 1 1-.9 2.5-1.7 1.3zM-15.4-4c-.2.3-.4.6-.8.7-.4.1-.8 0-1-.3-.3-.3-.4-.8-.2-1.1.1-.3.4-.6.7-.7.2 0 .3.1.4.2v.3c-.1-.1-.1-.1 0 0h.6c.3.3.5.7.3.9zm4-.1c-.1-.5-1.4.1-1.6.1-.5.1-1 .1-1.4-.3-.2-.2-.2-.5 0-.7.6-.5 1.8-.9 2.5-.9.8 0 1.7.4 1.9 1.3.2 1-1.1 1.4-1.4.5zM-5.8-1c0 .2-.3.2-.4.1-.4-.4-1.1-.2-1.6-.3-.5-.1-.9-.3-1.1-.8-.1-.4.4-.6.6-.4.3.2.7-.1 1-.1.4-.1.7-.1 1 .1.5.3.6.9.5 1.4zm-7.7-5.2c-.5.1-.8.4-1.3.1l-.3-.3s-.1-.1-.1-.2c-.2.1-.4.3-.6.5-.2.2-.5-.2-.4-.4.1-.2.2-.3.2-.5v-.3c.1-.2.3-.4.5-.5.2-.2.4-.3.6-.3.4 0 .8.2 1 .5.1.1.1.3.1.4h.3c.4.1.5.9 0 1zm.8-2.7c-.3 0-.5 0-.8.1-.3.1-.6.1-1 .1-.5-.1-1-.3-1.3-.7-.1-.1 0-.4.2-.4h.6c.4 0 .7-.1 1-.2.5-.1 1.1-.3 1.5.1.5.3.4 1-.2 1zm6.5 3c0 .2 0 .4-.2.5-.3.4-.8.6-1.3.4-.3-.1-.5-.2-.7-.4-.2-.2-.2-.5-.3-.6h-.5c-.3 0-.5-.1-.8-.1-.5-.2-1-.5-1.3-.9-.2-.2.1-.5.3-.4.5.1 1 .3 1.5.3.4 0 .8-.2 1.2-.1.3.1.5.3.7.5.3.3.5.2 1 .4.2.1.3.2.4.4zM-5-7.3c-.5-.8-1.2-.5-1.9-.6-.6-.1-1-.4-1.2-.9-.1-.1-.1-.3 0-.4.1-.1.1-.2.2-.2.3.1.5.4.9.4.5-.1.9-.3 1.3-.3.8 0 1.5.5 2 1.2.7.8-.7 1.7-1.3.8zm3.6 3.8c-.1 0-.1-.1 0-.2 0-.1.2-.4.4-.6 0 0-.1 0-.1-.1-.2-.1-.3-.1-.5-.1h-.8c-.6 0-1.8-.5-1.3-1.3.1-.1.2-.2.3-.2.2 0 .5.2.7.2.4 0 .8-.1 1.1-.1.7 0 1.6.2 2.1.8.9 1.2-.9 2.4-1.9 1.6z"/><path d="M-3.7-1.7c-.5.2-1 0-1.3-.3-.2-.2-.3-.4-.4-.6l-.4-.4c-.1 0-.1-.1-.1-.2-.4.3-1.1.3-1.6.2-.5 0-.9-.1-1.2-.5-.5-.5.2-1.3.7-1 .3.1.6 0 .9 0 .4-.1.8-.2 1.2.1.1.1.2.2.3.4.5-.4 1.2-.3 1.6.2 0 .1.1.2.1.4.1.2 0 .3 0 .6 0 .1.1.2.3.3.4.1.2.7-.1.8zm1.1 2c-.1 0-.1-.1-.2-.1s-.2 0-.3.1c-.3.1-.6.3-.9.3h-.1V1c.5 0 .9.3 1.1.8.2.2 0 .4-.2.5-.3.1-.8 0-1.1-.2-.1-.1-.3-.4-.3-.6v-.1h-.1C-5.5 1.1-5.8 0-5-.5c.3-.2.6-.1.8 0 .7-.5 2-1.2 2.6-.1.3.5-.4 1.4-1 .9z"/><path d="M-.8 2.2c-.5.4-1.3-.1-1.1-.7-.6-.6.2-1.7.9-1.2.8.4.9 1.3.2 1.9zm-.8 4.2c-.2.5-.8.6-1.2.4-.3-.1-.5-.2-.8-.3-.3 0-.5.1-.7 0-.5-.1-.8-.6-.6-1 .2-.5.8-.6 1.2-.2.1 0 .3 0 .4.1.2.1.8.4 1 .4.5-.3 1 .2.7.6zm-.8-2.3c-.1.4-.6.6-1 .6h-.8c-.2.1-.5.1-.6-.2-.6-1.1 1-1.4 1.8-1.5.6-.1.8.6.6 1.1zm2.5.5c-.2-.3-.8-.2-1.2-.4-.3-.2-.5-.4-.5-.8 0-.2.2-.2.4-.2.4.1.8-.1 1.2-.1.5 0 .9.3 1.2.6.7.7-.5 1.7-1.1.9zM2.5 6c-.2.8-1.5 1.1-2.2.7-.5-.3-.4-1.1.2-1.3.3-.1.6 0 .9 0 .3 0 .5-.1.8 0 .2 0 .3.3.3.6zM1 9c-.7-.4-1.8-.4-2-1.3-.1-.2 0-.4.2-.5.7-.5 2.1.2 2.6.7.6.6-.1 1.5-.8 1.1zm3.5-1.8c-.2.2-.1.4-.3.7.2.2.3.5.3.8 0 .2-.1.6-.5.7-.4.1-.8 0-1-.3-.1-.3-.1-.5-.1-.8.1-.2.2-.3.3-.4-.1-.1-.1-.2-.1-.3-.2-.6.1-1.2.8-1.4.6-.2.9.5.6 1zm2.8-.5c-.3.1-.6.3-.9.3-.4 0-.8-.1-1.2-.2-.5-.1-.4-.8 0-.9.4-.2.9-.3 1.4-.2.4.1.6.4.8.8-.1.1-.1.2-.1.2zM5.4 9.6c-.6.1-.7-.7-.3-1 .3-.2.6-.6.8-.9.3-.4 1.1-.3 1.1.3 0 1-.8 1.5-1.6 1.6zM4.2 5.3c-.8.3-1.4-.3-1.9-.8-.3-.4-.1-1.2.5-1.1.3 0 .6.1.8.3.2.2.3.4.6.5.6.1.6 1 0 1.1zM6 2c-.4.1-.5.4-.9.5-.1.1-.5.3-.5.2 0 .1-.1.2-.1.2-.2.2-.5.3-.8.3-.3 0-.5-.1-.9-.1-.2 0-.4.2-.7.2-.5 0-.8-.3-1-.7 0-.2.2-.3.3-.4.4-.1.7-.5 1.2-.7.2 0 .4-.1.6-.1h.3c.2-.2.4-.3.8-.3.8 0 1 .5 1.7.6.1.1.1.3 0 .3zm1.8 2.3c.1 0 0 .1 0 .1-.1.4-.5.6-1 .5-.5-.1-.9-.4-1.2-.7-.1 0-.2-.1-.2-.2.1.1.1.2-.1.1-.2 0-.3 0-.4-.1-.2 0-.2-.1-.2-.3.1-.4.6-.6 1-.8.5-.3 1.4 0 1.8.3.4.3.4.7.3 1.1zM3.5-.1C2.8.3 1.6.4.8.2-.1 0-.9-.7-1.3-1.6c-.1-.3.1-.7.4-.7.4-.8 1.8-.9 2.5-.7.9.2 2 1 1.9 2.1 0 .1 0 .1-.1.2.3.1.4.5.1.6zm1.3-4.3c-.4.3-1 .4-1.5.4h-.1c.1.3.2.7 0 1-.2.2-.4.2-.6 0-.3-.2-.4-.6-.7-.8-.3-.2-.5-.3-.6-.5-.4-.1-.4-.6 0-.7h.2c.1-.1.3-.1.4-.1.5-.1 1-.3 1.5-.3.5.1 1.2.3 1.5.8 0 .1 0 .2-.1.2zM3.2-5.9c-.7.1-1.4.3-2.1.1C.7-6 .5-6.6 1-6.9c.7-.4 1.4-.2 2.1-.2.6 0 .8 1 .1 1.2zm4.6 2.5c-.6 1.2-2.7 1.5-3.9.8-.2-.1-.3-.5-.1-.7.5-.4.8-.5 1.4-.6.4 0 .7 0 1.1-.1.4 0 .7.2.4-.3-.4-.6.5-1.3 1-.8 1.1 1.4 2.5.1 3.7 1 .1 0 .1.1.1.2-.6 1.4-2.4 1.2-3.7.5zm4.5 6.3c-.6.1-1.1-.1-1.7 0-.2.1-.4.3-.6.4-.3.1-.7.1-1 .1-.8 0-1-1.2-.2-1.4.3 0 .7-.1 1 0 .3.1.5.2.8.3.6.1 1.2 0 1.7.3.2 0 .2.3 0 .3zM10.2.8c-.9.5-2.2 1.1-3.2.7-.6-.2-.9-.8-1.4-1.2-.2-.1-.5-.4-.4-.7v-.1c.1-.2.4-.3.6-.2.4.1.6.3 1 .6.7.4 1.1.2 1.8.1.6-.1 1.5 0 1.7.7 0 0 0 .1-.1.1z"/><path d="M9.7-.5C9.1-.6 8.6-.8 8-.8c-.7 0-1.6.1-2.3-.1-.2-.1-.3-.5 0-.6 1.1-.5 4.1-1.3 4.4.6.1.3-.1.5-.4.4zm.2 7.1c-.4.1-.7.2-1 .2-1.2.2-1.4-1.5-.2-1.6.5-.1 1 .1 1.4.4.4.3.1.9-.2 1zm.3 2.9c-.4.4-1 .4-1.6.1-.5-.3-.6-.9-.6-1.4 0-.4.7-.7.9-.2.1.3.7.5 1 .6.4.1.6.6.3.9zm1.9-1.7c-.1.2-.1.3-.1.5.1.2.1.2.1.4 0 .1-.1.2-.2.2-.4.2-.9-.2-1.1-.5-.1-.2-.1-.5-.1-.7 0-.2.2-.4.1-.6-.4-.9 1.3-1.4 1.4-.4.3.4.2.7-.1 1.1zm-1-2.5c-.5.2-1-.1-1.5-.3-.2-.2-.4-.5-.3-.8 0-.1.1-.2.2-.2.2-.2.5-.2.8-.1.4.2.9.4 1.1.8 0 .2-.1.5-.3.6zM13.6 4c-.1.5-.6 1.1-1.1 1.1-.3.1-.5-.1-.5-.4 0-.4.3-.8.5-1.2.3-.5 1.2-.1 1.1.5zm1.8 2.4c0 .2-.2.5-.3.6-.1.1-.2.1-.4.2.2.2.3.4.3.6.1.4-.4.8-.3 1.2 0 .1 0 .3-.2.3-.4.1-.6-.1-.7-.5-.1-.3-.1-.5-.1-.8-.1-.3-.2-.5-.2-.8 0-.2 0-.3.2-.5.1-.1.6-.2.6-.3 0-.1-.3-.4-.4-.5-.3-.3-.3-.5-.4-.8 0-.4.5-.7.9-.5.5.4 1.1 1.2 1 1.8zm2.2 1.9l-.8.8c-.2.2-.5.1-.6-.1-.4-.8.2-1.6 1-1.7.5 0 .7.7.4 1zm-.1-3.2c-.1.4-.2.7-.2 1.1.1.5-.7 1-1 .4-.2-.5-.3-.9-.2-1.4l.3-.9c.1-.4 0-.3-.3-.4-1-.4.1-2.1.9-1.2.4.4.4.9.4 1.5.1.3.1.6.1.9zm.1-3.7c-.1.1-.3.2-.4.3-.7 1-2.4.3-3.2-.1-.5-.2-.2-1 .3-1 .8 0 2.1-.4 2.8.1.1 0 .2 0 .4.1.2 0 .3.4.1.6zM20.2.3c-.8.3-1.7.1-2.3-.5-.5-.5.1-1.3.7-.9.4.1.9.2 1.3.1.8-.3 1.2 1 .3 1.3zm-.9-2.2c-.4.1-.9.1-1.3 0-.3-.1-.7-.4-.9-.7-.3-.2-.1-.7.3-.7.3 0 .5-.1.7-.1.2-.1.5-.1.8-.1 1-.3 1.5 1.4.4 1.6zm-5 13.9c.2.2.3.5.1.7l-.3.3v.1c-.1.2-.2.3-.3.4-.4.3-.7.3-1.2.4-.5.1-.9-.5-.5-.9.3-.3.4-.6.8-.8.2-.1.4-.1.6-.1-.9 0-2-.4-1.8-1.5.1-.3.5-.4.6-.2.3.3 1.2.1 1.6.2.8.1 1 1.1.4 1.4zm2.7.8c-.1.1-.3.2-.4.1-.9-.4-.7-1.5-1-2.3-.3-.7.6-1.2 1-.6.4.8 1 2.1.4 2.8zm-1 1.8l-.6.6-.1.1c.2.1.3.2.4.4.4.9-.7 1.6-1.3.7.1.2-.3 0-.3 0-.1-.1-.2-.1-.3-.2-.2-.3-.3-.6-.1-.9.1-.3.4-.5.7-.7.4-.3.7-.5 1.1-.8.4-.2.9.4.5.8zm-3.1 4.5c-.3-.1-.6-.3-.8-.5-.2-.3-.2-.6-.3-.9-.2-.6.6-1.3 1.1-.9.4.3.5.5.5.9.1.1.2.1.3.1.2 0 .4.2.4.4 0 .7-.6 1.1-1.2.9zm-.8.9c-.1.3-.3.4-.5.6-.1.2-.1.3-.1.5-.1.2-.2.4-.3.5v.1s0 .1.1.1c.2.1.3.2.5.3.5.2.5.8 0 1-.9.3-1.9-.1-2.1-1-.1-.4 0-.9.3-1.2.1-.2.3-.4.5-.6.1-.1.2-.1.4-.1 0-.1 0-.1.1-.1.1-.2.2-.4.4-.6.3-.6 1-.1.7.5zm2.9 4.8c-.9.9-2.8.1-2.4-1.3.1-.4.6-.4.8-.1.1.2.3.4.5.4.1 0 .2-.1.3-.2.1 0 .2-.1.4 0 0 0 0-.1.1-.1.1-.2.4-.2.5.1v.4c0 .2 0 .6-.2.8z"/><path d="M15.8 23.1c-.3.5-1 .3-1-.3 0-.3 0-.7.1-1 .1-.2.1-.5.1-.7l-.9-.3c-.7-.5-.3-1.6.6-1.4.6.1 1 .5 1.2 1 .7.7.3 1.9-.1 2.7zm2.1-2.8c-.1.7.5 1.6 0 2.2-.1.1-.2 0-.2 0-.4-.5-.6-1.4-.6-2.1 0-.8.6-1.3.6-2.1 0-.6.9-.8 1.1-.1.1.9-.8 1.2-.9 2.1zm.8 2.9c-.1.2-.3.3-.5.1-.2-.3-.2-.7 0-.9.1-.1.2-.1.3-.1.2.2.3.5.2.9z"/><path d="M20.5 24.1c.2.4-.5.8-.8.4-.7-.7-.2-1.3.1-2 .5-1.3-1.5-2-.9-3.5.1-.2.4-.4.6-.2.6.8.8 1.6 1.1 2.6.1.4.2.7.2 1.1.1.3-.4 1.4-.3 1.6zm-3-8.8c-.1.2 0 .4.1.6.1.4.1.8 0 1.2-.2.5-.8 1.2-1.2 1.6-.1.1-.2.1-.3 0-.2-.3-.2-.6-.1-.9.2-.5.2-.8.2-1.4 0-.7.3-1.8 1.1-2 .2-.1.4.2.4.4 0 .1-.1.2-.2.5zm1.4-2.4c-.2.6-.3 1.1-.3 1.8 0 .5-.2 1.2-.1 1.7 0 .1-.1.1-.1 0-.2-.9-.6-1.4-.4-2.3.1-.5.3-.8.4-1.2.2-.4.2-.9.2-1.3 0-.1.2-.1.3-.1.4.4.2.9 0 1.4zm-1.2-.2c0 .1-.1 0-.1 0-.2-.5.2-1.1.3-1.6.1-.4.1-.9 0-1.3s-.2-.7-.3-1c0-.3.3-.4.5-.2 1.1 1 .2 2.9-.4 4.1zm2.4-3.6c0 .7-.6 1.6-.5 2.3.1.3-.3.4-.4.2-.5-.9.2-1.7.1-2.7-.1-.9-.1-1.7.5-2.5.2-.3.6-.1.5.2-.3.9-.2 1.6-.2 2.5zm-1-2.9c-.1.3-.1.6-.2.9 0 0-.1.1-.1 0-.6-.4-.6-1.9.2-2 .2 0 .5.1.5.4 0 .3-.2.5-.4.7zm0-2c-.2.4-.8.1-.6-.4.3-.6.5-1.3.5-2 0-.1.1-.3.2-.3h.1c.2 0 .3.2.3.3.1.8 0 1.7-.5 2.4zm1.8 11.9c-.5-.4-.9-1.2-.7-1.8 0-.1.2-.1.2 0 .1.3.2.5.3.8.1.3.3.6.4.9.1.1-.1.2-.2.1zm-1.3 1.1c-.1.2-.4.1-.4-.1.1-.6-.1-1.3-.2-1.9 0-.5-.2-1 .2-1.4.1-.1.1 0 .1.1 0 .4-.1.7 0 1.1.1.3.3.6.3.9.3.4.3.9 0 1.3zm.6-4.9c-.2-.3-.3-.7-.2-1.1 0-.2.1-.2.2-.4s.1-.4.2-.7c.1-.2.3-.1.3 0 0 .2 0 .4.1.6 0 .1.1.2.2.3.1.3.1.6.1.9-.2.6-.7.7-.9.4zm4 11.8c-1.4.7-2.1 0-2.4-1.3-.2-.8-.1-1.5-.3-2.3-.2-1-.6-1.6-.3-2.6.1-.2.4-.2.4 0 .4 1.1 0 2.2.4 3.2.1.4.3.6.5 1 .2.5.4 1.5 1.1 1 .7-.4 1.3.6.6 1z"/><path d="M25.6 22.3h-.2c0 .1 0 .2-.1.3 0 .2-.1.4-.1.5 0 .3-.4.3-.5.1-.4-.2-.7-.5-.7-1 0-.2 0-.4.1-.6.1-.2.2-.3.3-.5.1-.2.5-.5.8-.4h.1c1 0 1.2 1.3.3 1.6zm-3.2 9.1c0 .2-.1.3-.3.4H22c-.2 0-.3-.1-.4-.3v-.1c-.2-.6.8-.7.8-.1v.1zm5.7-3.3c0 .1-.2.2-.3.1-.2-.1-.4-.3-.3-.6 0-.2.2-.2.3-.1.3.1.4.3.3.6zM7 17.2v.2c0 .3-.5.5-.6.2-.1-.3-.1-.4 0-.7.3-.4.8-.1.6.3zm-3 8.7c-.2 0-.3-.1-.2-.3.1-.1.2-.3.2-.5v-.3c.1-.1.2-.1.3-.1.1 0 .2.1.2.2.1.4-.1.9-.5 1z"/><path d="M4.2 24.6c.1 0 .1 0 0 0" fill="none" stroke="#000" stroke-width="0" stroke-linecap="round" stroke-linejoin="round"/><path d="M13.4 21.4c0 .1 0 .1 0 0-.2.2-.4.1-.5 0-.2-.2-.2-.4-.1-.6 0-.2.3-.2.4 0 0 .1.1.2.2.3.1.1.1.2 0 .3zM6.5 35c-.1.2-.5.2-.5-.1 0-.2 0-.4.1-.6.1-.3.5-.2.5.1 0 .2 0 .4-.1.6zM21.8 6.5c-.1.3-.2.5-.3.7-.2.6-.2 1.2-.1 1.7 0 .3-.4.6-.5.2-.3-.6-.4-1.3-.3-1.9 0-.3.1-.6.3-.9.1-.3.2-.4.6-.6.2-.1.4.1.4.3-.1.2 0 .4-.1.5zm2.8.4c-.2.2-.6.2-.8 0-.1-.2-.2-.3-.2-.4-.5-.3-.9-.9-.4-1.4.2-.2.4-.1.5.1.1.1.2.4.3.3.4-.1.8.2.8.6.1.3.1.5-.2.8zm.5 2.3c-.2.9-1.5.6-1.4-.3 0-.2-.2-.5-.1-.7 0-.3.2-.5.4-.7.4-.3.9.2.8.6 0-.2 0-.1.1 0s.1.2.2.3c.1.4.1.6 0 .8zm-1.2 2.1c-.3.5-.9.3-1.1-.1h-.1c-.1 0-.2-.1-.3-.1-.2-.1-.3-.2-.4-.4-.3-.3-.4-.8-.1-1.2.2-.3.5-.4.8-.2.8.3 1.7 1 1.2 2zm-1.3 4c-.1.2-.4.3-.4.5-.1.2-.3.2-.4.1-.1-.2-.2-.4-.2-.7 0-.4.1-.4-.2-.8-.4-.6-.3-1.2.3-1.7.2-.2.5-.1.6.2.1.5.6 1 .6 1.6 0 .3-.1.6-.3.8zm1.8 3.9c-.2-.1-.4-.3-.6-.5 0 0 0-.1-.1-.1h-.4c-.2 0-.4-.2-.6-.4-.6-.8.2-1.8 1-2.1.4-.1.5.4.2.6-.2.2-.2.3-.2.4h.2c.3 0 .5.1.7.2.1.1.2.2.2.3 0 .1.2.2 0 .2 1.2.4.6 1.9-.4 1.4zm3.7 2.4c-.4 0-.7-.3-.8-.7-.1-.4.1-.8.2-1.2.1-.5.8-.4.8.1.1-.1.3-.2.4-.2.1 0 .3 0 .4.2.5.7-.1 1.9-1 1.8zm.7-5.2c.1.1.2.1.3.2.5.5 0 1.1-.6 1-.6-.1-1.1.1-1.7-.4-.5-.4-.5-.9-.8-1.4-.4-.5-1-.7-1.3-1.3-.3-.5-.4-1.1-.2-1.7.1-.6 1-.5 1 .1s.2.9.5 1.4c.2.3.3.6.5.9.1 0 .1.1.2.1.3.1.3.1.6.1.2 0 .5 0 .6-.2 0-.2.1-.4.2-.5.3-.4 1-.3 1 .3 0 .3-.1.5-.2.7-.1.2-.1.4-.1.7 0-.1 0-.1 0 0zm1.9 1.3c-.4-.2-.5-.6-.6-1.1-.1-.3-.2-.6-.2-.9-.1-.3 0-.7-.1-1 0-.2.2-.3.3-.1.1.2.3.4.5.6.1.2.2.3.3.5.2-.4.8-.3 1 0 .4.9-.1 2.5-1.2 2zm-2.4-7.2c.1.2.1.4.1.6.3.3.4.7.3 1.1 0 .2-.3.4-.5.2-.3-.2-.5-.5-.8-.6-.4-.1-.8 0-1.2-.1-1-.3-1-1.5-.4-2.2.5-.6 1.6-1.1 2.4-.6.4.2.6.7.5 1.1-.1.2-.2.4-.4.5zm1.3 2.4c-.3-.7-.3-1.3.2-1.9.1-.2.4-.1.4.1 0 .4.1.9.4 1.3.4.6-.7 1.1-1 .5zm3.2-.2c0 .1 0 .3-.1.4-.1.1-.1.3-.2.4-.1.2-.1.5-.1.7.1.4-.4.6-.6.3-.2-.3-.3-.6-.3-1 0-.2 0-.4.1-.5.1-.3.2-.3.3-.6.4-.4 1.1-.2.9.3zm-.4-1.8c-.1.2-.2.3-.4.5s-.3.4-.4.6c-.1.2-.4.2-.5.1-.3-.3-.4-.8-.3-1.3.1-.2.2-.5.4-.6.2-.2.5-.2.7-.3.7-.2 1 .7.5 1zm3 3.8c-.1.1-.2.2-.4.2h-.5c-.1.2-.2.2-.4.2-.2.3-.5.5-.7.7-.2.2-.4.1-.5-.1-.1-.3 0-.5.1-.8.1-.2.3-.5.4-.7 0-.3-.1-.6.1-.9.2-.3.4-.5.7-.5.6-.1 1.4.3 1.5.9.1.5 0 .8-.3 1zm.7 2.7c-.1 0-.1.1 0 0v.1c.6.7-.4 1.6-1 1 0 0-.1 0-.1-.1h-.1c-.1-.1-.3-.2-.3-.3-.2-.2-.2-.6-.1-.8.1-.3.3-.5.6-.6.1 0 .2-.1.3-.1h.3c0-.2.3-.3.4-.1.2.2.2.6 0 .9zm-1.5 3.4c-.8.3-1.7.2-2.1-.6-.4-.6-.2-1.5.5-1.8.2-.1.4.1.4.3v.2c.1 0 .1.1.1.1.1.1.2.3.4.4.8-.3 1.5 1.1.7 1.4zM21.5 4c-.2.6-.6.8-1 1.1-.1 0-.2 0-.2-.1v-.2c0-.1-.1-.1-.1-.2-.1-.2 0-.6 0-.8 0-.2.1-.5.2-.7.1-.3.1-.5.2-.8.1-.3.4-.3.5-.1.2.3.2.6.3.9.2.2.2.6.1.9zm1.6-.8c-.5.3-.9-.3-.7-.7.4-.9-.1-2.3.6-3 .1-.1.2 0 .3.1.1.4 0 .7.1 1.1.1.4.3.7.3 1.1 0 .5-.1 1.1-.6 1.4zm2.6 1.1c-.1.3-.6.4-.8.1-.3-.4-.6-.9-.7-1.3 0-.5.2-.8.6-1.1.2-.1.4.1.3.3-.1.8 1.1 1.2.6 2zm2.1.9c-.2.2-.2.6-.3.9-.1.4-.5.8-.9.5-.6-.4-1.2-1.2-.8-1.9.1-.1.2-.2.4-.2.3-.2.5-.3.9-.4.7-.2 1.2.6.7 1.1zM27.6 3c-.1.1-.2.1-.3.1-.5.1-1.2-.4-1.4-.8-.3-.6-.4-1.6.2-2.1.7-.7 1.3.2 1.7.8.2.6.3 1.4-.2 2zm-2.5-3c-.1.3-.5.4-.7.2-.2-.3-.4-.6-.5-.9-.1-.4-.1-.6 0-1 0-.3-.2-1.3.3-1.3.4 0 .5.7.6 1 .1.3.3.6.3.9V0zm1.2-2c-.6.2-1-.6-1.3-1-.4-.7-.3-1.5-.2-2.3.1-.7 1-.7 1.1 0 0 .4.2.7.3 1.1.1.3.1.7.2 1.1.1.3.4 1-.1 1.1zM29.7.5C28.6.4 28-1 28.5-1.9c.3-.6 1.2-.4 1.3.2.2.3.1.6.2.9.1.3.1.6.2.9 0 .2-.2.4-.5.4zm1.4-2.4c-.1.5-.8.4-1 0-.2-.6-.3-1.1-.6-1.6-.2-.3-.4-.6-.5-.9 0 .2.1.3.1.4.3.4-.3.9-.7.7-.4-.2-.8-.5-1-.8-.3-.5-.3-1-.2-1.5.1-.5.7-.8 1.1-.6.3.1.5.3.6.6.2-.2.6-.2.8 0 1.2.5 1.7 2.4 1.4 3.7zM32.6.6c-.5-.2-.5-1-.5-1.5v-.9c0-.3-.1-.5-.1-.8 0-.3.2-.6.5-.5.8.2.8 1.4.8 2.1.1.2.1 1.9-.7 1.6zm-1.8 7.3c-.2.5-1.1.7-1.2 0v-.5c-.1 0-.1.1-.2.1-.6-.1-.9-.5-1-1 0-.3-.1-.5 0-.8.1-.3.2-.5.4-.7.2-.4.9-.2.9.2 0 .3.1.6.2.9.2-.2.5-.2.7 0 .2.3.4 1.2.2 1.8zm2-1.7c-.1.4-.3.7-.5 1-.2.3-.7.2-.8-.1-.1-.4-.2-.7-.2-1.1 0-.5.2-.7.4-1.2.2-.6 1.1-.5 1.1.2 0 .4.1.7 0 1.2zm-1.3-2.6c-.1.3-.4.7-.8.5-.1 0-.2-.1-.2-.1-.1.2-.2.3-.4.3-1 .1-1.6-1.7-.9-2.3.2-.2.6-.2.8-.1.2-.7 1.6-.6 1.6.3-.1.4 0 1-.1 1.4zm3.2 4.8c.1.3 0 .5 0 .7-.1.4-.1.8-.2 1.1-.1.3-.4.4-.7.2-.4-.4-.6-.8-.6-1.3 0-.6.2-.9.6-1.3.1-.1.3-.1.5-.1.1-.1.1-.2.1-.4s-.1-.5-.1-.7c-.4-1 1.4-1.6 1.7-.5.3.9-.4 1.9-1.3 2.3zm2.8 2.8h-.1c0 .3-.2.6-.7.6-.2 0-.5 0-.7-.1-.7-.1-.5-1 0-1.2.2-.1.3-.1.5-.1h.2c.1-.3.2-.5.3-.7 0-.1.1-.2.1-.3-.5-1 1-1.9 1.5-.9.5 1 0 2.5-1.1 2.7zm4.5 1.2c0 .2.1.4.1.6 0 .3.1 2-.6 1.7-.6-.3-.4-1.1-.8-1.5-.2-.3-.5-.4-.5-.8-.1-.5.1-.7-.1-1.1-.5-.9.8-2 1.5-1.1.4.4.7.9.6 1.5 0 .3-.2.5-.2.7zm-2.5 3.2c-.3.3-.9.3-1.3.2v.1c0 .1 0 .2-.1.3-.6.3-1.2-.3-1.2-.9 0-.7.6-1.2 1.2-1.2.2-.6 1.1-1 1.6-.2.4.5.3 1.2-.2 1.7zm.1 3.8c-.9.3-2.3-.1-2.2-1.3 0-.4.6-.7.9-.4h.6c.2 0 .4-.1.5-.2-.5-1 1.2-1.8 1.7-.6.4 1.1-.4 2.2-1.5 2.5zm-7.7 3.9c-.1.2-.4.3-.6.3.4.6.6 1.5.6 2.1 0 .2-.2.2-.3.2-.9-.4-.7-1.6-1.6-2-.5-.2-.5-.9.1-1h.1c0-.1-.1-.2-.1-.3v-.7c.1-.4.3-.8.7-1 .4-.2 1-.1 1.1.5.2.7.4 1.2 0 1.9zm3 2.8c-.1.1-.1.3-.3.4l-.3.2c0 .4-.5.8-.9.5-.2-.2-.5-.2-.7-.5-.2-.3-.3-.7-.2-1 .1-.4.5-.6.9-.6-.1-.2-.2-.5-.3-.7v-.2h.1c.2 0 .4.3.6.5.3.3.6.4.9.7.3.1.4.4.2.7zm1.1-2.9c-.1.1-.1.2-.2.2.1.2.2.4.2.6 0 .2-.2.4-.5.3-.2 0-.3-.1-.5-.2-.1-.1-.5-.2-.2-.2h-.2c-.7 0-1.1-1-.4-1.4.2-.1.3-.2.4-.4.1-.2.3-.3.5-.4.1 0 .3-.2.2 0 .1-.1.2-.1.3 0 .2.2.4.2.6.6.1.3 0 .6-.2.9zm4.8 1.5c-.5.1-1 .1-1.5-.1-.4-.2-.7-.4-1.1-.6-.2 0-.3-.1-.5-.2-.3-.2-.4-.6-.4-.9.1-.5.6-.8 1-1 .6-.3 1.1.2.9.8.1.1.2.3.3.5 0 0 .1.2.1.3.1 0 .2.1.2.2.3.2.6.2.9.2.5-.2.6.7.1.8zm2.5 4.4c-1 .5-2 .3-2.8-.4l-.6-.6c-.2-.1-.4-.1-.6-.2-.5-.3-.7-.8-1.2-1.1-.6-.4-.2-1.3.5-1.2.5.1.9.2 1.3.4.3.1.2.5-.1.6.2.2.3.5.3.7.3.3.7.4 1.1.5.2 0 .4.2.6.2.4.1.5-.1.8-.2.5-.2.9 0 1 .5.1.2-.1.6-.3.8z"/><path d="M42.4 27.3c-.4.2-1-.1-1-.6 0-.3 0-.4-.2-.6-.6-.8.7-1.7 1.4-1 .6.6.6 1.8-.2 2.2zm2.9-.5c-.8.5-1.6 0-1.7-.9 0-.3.3-.4.5-.2.1.1.3-.1.4-.2.8-.5 1.6.8.8 1.3zM43 22.3c-.1.4-.5 1.5-1.1 1.2-.3-.2-.4-.5-.4-.9-.6 0-1.1-.4-1.2-1-.1-.4.1-.9.5-1.1.2-.3.6-.3.8-.1.1 0 .3.1.4.2.1.1.1.2.2.2.3 0 .5.1.7.4.2.4.2.8.1 1.1zm3.6-5.2c-.1.5-.4.9-.8 1.1 0 0-.1 0-.1.1 0 0 0 .1.1.1.2.8.1 1.8-.3 2.6-.2.4-.7.3-.9 0-.4-.7-.5-1.5-.5-2.3v-.4c0-.4 0 0-.1-.3s-.1-.4 0-.6c.1-.2.4-.2.5-.1 0 0 .2.3.1.2.1.1.4 0 .5 0 .1 0 .1.1.2.1v-.1c.1-.5.2-.6-.2-1-.3-.3-.6-.5-.7-.9-.2-.5.1-.8.3-1.2.2-.3.5-.2.7.1.7.6 1.4 1.6 1.2 2.6zm-3.9 2.7c-.1.1-.3 0-.3-.2 0-.4 0-.8.3-1.1.2-.2.5-.2.6.1.1.4-.2 1-.6 1.2zm5.8 3.1c-.3.6-1.4.5-1.5-.2-.1-.5-.2-1.1-.2-1.6 0-.2.1-.4.1-.6 0-.3-.1-.5-.2-.8-.3-.8.9-1.1 1.2-.3.3.6.7 1.1.8 1.8.1.5.1 1.1-.2 1.7zM45.9 25c-.3 0-.6-.1-.8-.3-.2-.1-.4-.3-.5-.4-.7-.2-1-1-.5-1.6.4-.6 1.3-.5 1.7.1.3.5 1 .9.9 1.6-.1.3-.4.6-.8.6zm4.4 1.4c-.7.4-1.2.8-1.3 1.7 0 .3-.4.4-.6.4-.9-.3-1.1-1.4-.8-2.2.3-.9 1.3-2 2.3-2 .5 0 1 .3 1.2.8.1.5-.3 1-.8 1.3zm-2.5 3.8c-.4.1-.8 0-1.2.2-.1.1-.2.2-.3.2 0 .1 0 .2-.1.3-.3.5-.9.5-1.3.1-.5-.4-.4-1.1 0-1.6.6-.8 2.2-1.6 3.2-.9.5.6.4 1.4-.3 1.7zM44 33.9c-.3-.1-.6-.3-.8-.2-.3.1-.6.4-1 .4-.6.1-1.1-.2-1.5-.6-.1-.1-.2-.3-.1-.5 0-.2.1-.3.3-.3.2-.1.4 0 .6 0 .4-.5.9-.9 1.5-1 .8-.1 1.7.2 2.1.9.3.7-.4 1.5-1.1 1.3zm-3.6 2.2c-.2 0-.4-.1-.6-.1-.1.1-.2.2-.3.2-.4 0-.8-.1-1.3-.1-.3 0-.6-.1-.9-.3-.4 0-.8 0-1.2-.2v-.1c.1-.6 1.2-1 1.8-1.2 1-.2 2-.3 3-.1 1.3.2.7 2.2-.5 1.9zM37 32.5c-.4 1.2-1.3 1-2.3 1-.3 0-.5-.3-.4-.6 0-.3.2-.5.4-.7.1-.1.2-.1.4-.1.1 0 .2 0 .3-.1 0-.1 0-.2.1-.3-.3-.7-1.5-1.6-2-1.9-.5-.2-.4.1-.6.4l-.4.4c0 .1.2.6.4.7.3.1.3.5-.1.6-1 .1-1.1-.5-1.4-1.3-.2-.5-.3-.8-.1-1.4.2-.4.4-.8.8-1 .9-.5 1.9.1 2.6.7.3.3.6.6.9 1 .3.4.5.9.8 1.3.4.3.8.8.6 1.3zm-3.7 2.6c-.2.3-.5.5-.9.5h-.3c-.8.3-1.6-.8-1.1-1.4.2-.2.4-.4.6-.5l-.4-.4c-.2-.2-.5-.4-.8-.5h-.2c-.2.2-.5.2-.8.3 0 .1.1.2.1.3 0 .3-.3.6-.6.6s-.6-.2-.7-.5c-.1-.2-.3-.2-.5-.3-.7-.5-.5-1.6.4-1.6.3 0 .8.1 1 .3 0-.5.5-1.1 1.1-.7.5.3.8.7 1.2 1 .4.2.8.5 1.1.7 1 .7 1.4 1.4.8 2.2zm-4.9.3c-.5.1-1.1.1-1.6 0-.3.1-.5.3-.7.5-.2.1-.3.4-.6.2-.1-.1-.2-.2-.2-.3.1-.7.1-1.6.9-2 .4-.2.8-.2 1.2 0 .2.1.3.2.5.3.2.1.4.2.7.4.3.2.3.8-.2.9zm2.5 1.6c-.4.8-1.7.7-2.5.6-.5-.1-.4-.7-.1-.9.1-.1.1-.2.3-.3.1 0 .4-.2.4-.3v-.2c0-.3.3-.6.6-.6.7 0 1.8.8 1.3 1.7zm-3.8 2.2c-.8.5-2.1.4-3 .2-.2-.1-.3-.5-.1-.6.4-.2.8-.3 1.2-.5 0 0 .2-.1.3-.1-.1 0-.2-.1-.2-.1-.2-.1-.3-.2-.4-.3-.3-.2-.4-.1-.7-.1-.5.1-1 .1-1.5-.1.1.2.2.5 0 .6-.7.6-1.4-.5-1.6-1.1-.2-.6.4-.9.9-.8.5-.2 1-.2 1.5-.1.2 0 .5.1.7.2.1.1.2.3.3.3.4.3 1.1.2 1.6.3.4.1.9.2 1.2.5.5.7.4 1.4-.2 1.7zm9.8-1.7c-.6 0-1.2-.2-1.8-.1-.9.1-1.7.5-2.5.8-1.3.5-2.7.9-4 1.1-.1 0-.1-.1 0-.1 1.7-1.2 6.6-4.2 8.6-2.1.1.1 0 .4-.3.4zm15.2-18c0 .6 0 .9-.3 1.4-.2.3-.6.6-.8 1-.2.4-.2.9-.4 1.3 0 .1-.1.1-.2.1-.8-.6-.6-1.7-.3-2.6.2-.7.1-1.5.3-2.1.3-1 .9-1.3.9-2.5 0-.2.2-.2.3-.1 1 .7.4 2.4.5 3.5zm2.1-16.2c-.3.7-.7 1.5-.9 2.2-.4 1.2-.1 2.1.1 3.3.3 1.6-.9 2.9-.7 4.4 0 .2-.3.3-.4.2-1.6-1.5-.7-3.7-.5-5.6.1-1.8.4-3.8 2.1-4.7.1-.1.3 0 .3.2zM49 17.7c-.4 0-1-.3-1.3-.6-.4-.4-.6-1-.5-1.5.1-.5.8-.5 1.1-.1.2.3.3.6.4.9.1.1.1.3.1.4.1.2.3.3.4.4.1.2 0 .6-.2.5zm-2-3.5c-.1-.1-.1-.2-.2-.3-.4-.3.1-.9.5-.6.3.2.5.4.5.7-.1.4-.6.5-.8.2zm3.1 1.9c0 .3-.4.5-.6.3-.6-.5-.7-1.3-.7-2 0-.9-.6-1.6-1.2-2.2-.7-.7.3-1.6 1-1 .7.6 1.5 1.2 1.8 2.1.4 1-.2 1.8-.3 2.8zm-4.4-3c-.1.1-.3.1-.4-.1-.1-.4-.1-.8-.2-1.2-.2-.4-.6-.8-.7-1.3-.1-.4 0-.9.1-1.3 0-.4 0-.6.3-.9.1-.1.3 0 .4.1.1.3.1.5.3.7.2.2.4.3.6.4.3.3.5.9.5 1.3.1.8-.3 1.8-.9 2.3zm2.2-5.9c.3.6.9 1.6.2 2.1s-1.4-.5-1.6-1c-.1-.3-.2-.7-.3-1-.1-.5-.2-.9-.1-1.3s.6-.7 1-.7c.5.1.7.4.8.9.1.3 0 .6 0 1zm3.4-1.6c-.1.3-.2.5-.3.7-.1.1-.1.2-.2.3v.1c.1.3.1.6-.3.7-.4.1-.7-.1-1-.4-.3-.4-.4-.8-.3-1.3v-.1H49c-.5-.1-1.1-.3-1.4-.8-.1-.3-.2-.8.1-1 .5-.4 1-.4 1.6-.3.5.1 1 .2 1.3.6.6.4.8.9.7 1.5zm-3.8-2.4c-.3.2-.7.3-.8.6-.1.3-.1.8-.2 1.1-.3.6-1.3.5-1.5-.2-.1-.6-.3-1.3 0-1.9 0-.1.2-.3.3-.4-.1-.1-.2-.3-.3-.4-.3-1 .4-1.8.3-2.8-.1-.4-.2-.8.3-1 .2-.2.7-.2.9.1.7.8.3 1.4.2 2.1.5-.3 1.3-.1 1.5.6.2.8 0 1.6-.7 2.2zM54.8 0c-.4.6-1.1.8-1.8.5l-.3.6c-.3.6-.5 1.3-1 1.7-.9.7-1.9.2-2.5-.6-.2-.3-.2-.7-.1-1.1-.2-.3-.4-.5-.4-.8-.1-.5.4-.9.8-.6.3.2.5.4.7.7.3 0 .5 0 .8.1.2-.2.4-.5.5-.8v-.1c-.3-.3-.6-.6-.8-1-.2-.1-.4-.5-.3-.8-.1-.1-.1-.3-.2-.4l-.2-.2c-.3-.1-.6-.2-.8-.5l-.1-.1c-.1 0-.1.1-.2.1-.4.2-.6.3-.9.6-.4.5-1.1.2-1-.4.2-.9.8-1.9 1.7-2.2.5-.2 1-.2 1.4.1.2.1.3.2.4.4l.1.1c.7-.2 1.4.5 1.2 1.2 0 .1 0 .1-.1.2.2 0 .3-.1.5-.1.8 0 1.1.7.8 1.3.3 0 .6.1.9.2.5.2 1 .7 1 1.3 0 .2 0 .4-.1.6zm2.6-6.3c-.4.4-.8.4-1.3.5-.5.1-.8.4-1.2.6-.1.1-.4.2-.5.3.1 0 .1.4.2.5.1.3.2.7 0 1-.1.1-.2.1-.3.1-.5-.3-1.2-.6-1.5-1.2-.4-.8-.1-1.6.6-2.1.3-.2.7-.4 1-.6.3-.1.7-.1.9-.1.7 0 1.5-.3 2 .3.3.2.3.5.1.7zm-7-.5c-.6 0-1.2-.1-1.9-.1-.6 0-1.2 0-1.7-.3-.2-.1-.2-.4 0-.5.2-.2.4-.2.5-.3-.5-.5-.3-1.6.7-1.6l.3-.6c.3-.3.9-.5 1.3-.4.9.2 1.7 1.4 2 2.2.4 1.1-.2 1.6-1.2 1.6zM56-8.1c-.9 0-1.9-.3-2.8-.7-.1 0-.1-.1-.2-.2 0 0-.1 0-.1-.1-.1 0-.1-.1-.2-.1-.5-.6-.6-1.5-.5-2.4-.2 0-.3 0-.5-.1-.5-.2-1-.7-1-1.4 0-.6.3-1.1.8-1.4h.1c.1-.3.3-.6.6-.7.9-.4 2 .5 2.1 1.4.1.5-.1.9-.4 1.3 0 0 0 .1-.1.1.3.5.7.8 1.2 1 .7-.1 1.5.2 2 .8l.1.1c.2.1.3.3.2.4.6 1-.2 2-1.3 2zm2.4-3.4c-.5-.1-.8-.4-1.1-.7-.4-.3-.8-.5-1.1-.9-.4-.5.3-.9.7-.7.4.2.6.4 1 .4h1.2c.6 0 1.5.1 1.6.9.1 1.1-1.6 1.2-2.3 1zm.4-8c-.5.6-.4 1.3-.5 2.1-.2.7-.3 1.2.3 1.7.7.7 0 1.7-.9 1.5-1.4-.3-2.4-1.5-2.4-2.9 0-.8.3-1.5.9-2 .6-.5 1.4-.3 2-.8.3-.4.9 0 .6.4zm8.6-2.4c-.6.8-1.5 1.1-2.3 1.7-.9.8-1.9 1.8-2.1 3.1-.2 1 .1 1.9-.1 2.9 0 .2.1.7-.2.8-.7.3-1.8-.3-2.2-1-.7-1.2-.5-3.1 0-4.3.8-2.1 4.3-4.9 6.7-3.7.3.1.4.4.2.5z"/><path d="M71.9-15.3c0 .1-.1.2-.2.2-.4-.1-2.6-1.3-2.1-1.7-.4.3-1.2.4-1.5-.2-.2-.5-.3-.8 0-1.3.1-.2.3-.3.5-.4.1-.1.3-.1.4-.1h.1s-.4-.5-.5-.6c-.1-.2-.1-.4-.1-.6v-.1l-.1.1c-.4.2-1.3.4-1 1 .2.4.1.7-.1 1-.4.4-.9.4-1.4.6-.6.2-1 .8-1.4 1.2-.2.2-.5.1-.5-.2 0-.7.1-1.3.6-1.9.2-.3.4-.5.7-.6.3-.2.6-.2.8-.3 0 0 .1-.1.2-.1 0 0 0-.2.1-.3.1-.3.2-.5.4-.7.4-.4 1-.7 1.5-.5.2 0 .3.2.3.4.1-.2.2-.3.5-.4.1-.1.2 0 .3.1.1.4.3.9.5 1.3.2.3.5.6.5 1v.4c.8.6 1.3 1.9 1.5 2.7zm-1.1 5.1c-.4.5-1 1.4-1.6 1.8 0 .5-.2 1-.8 1.3-.2.1-.5 0-.5-.3 0-.6 0-1.3-.7-1.5-.5-.2-1 0-1.5 0-.3 0-.7-.1-1-.3-.6-.4-.7-1.1-1.6-1-.2 0-.2-.3-.1-.4.7-.5 1.2-.2 2 0 .9.3 1.9-.1 2.8.2.3.1.7.4.9.7.2-.2.3-.3.3-.5 0-.3-.2-.7-.2-1 0-.6.2-1-.2-1.5-1.2-1.4-3.7.7-5 .9-.2 0-.3-.1-.3-.3 0-1.4 1.6-2.4 2.8-2.7 1.2-.3 3.1-.2 4.1.5 1.1.9 1.5 3 .6 4.1zM35.4 2.5c-.2.3-.5.5-.7.7-.1.1-.2.2-.4.3-.2.1-.2.1-.1 0 0 .1-.1.1-.1.2-.1.1-.3.2-.4.1-.6-.3-.5-1.1-.1-1.6.2-.2.4-.4.6-.7.1-.1.2-.3.3-.5 0-.3.4-.5.7-.3.5.4.6 1.2.2 1.8zm.8-8.1c-.1.3-.3.6-.6.8-.1.1-.8.5-.9.4.2.6-.6 1-1 .6-.7-.6-.2-1.6.5-2 .3-.2.6-.3.7-.7.2-.4 0-.7.4-1 .1-.1.3-.1.4 0 .6.2.6 1.3.5 1.9zm1.4 11.2c-.2-.4-.5-.8-.5-1.3-.1-.3.2-.6.6-.5.4.2.7.5 1.1.9.7.8-.7 1.9-1.2.9zm2.4 0c-.8-.8-.8-2.1-1-3.1-.1-.6-1-2-.2-2.4.3-.1.7-.2.9.1.6.6.7 1.4.8 2.2.1.9.1 1.8.3 2.7.2.5-.4.9-.8.5z"/><path d="M38.2.8c-.1.1-.2.1-.3.2v.2c-.1.5-.4 1.1-1 1.1-.3 0-.5-.3-.4-.6.1-.3 0-.4 0-.7 0-.3 0-.7.2-1 .3-.6 1.4-.8 1.7 0 .1.3 0 .6-.2.8zm5.9 4.9c-.9-.3-1.8-1.1-2.2-1.9-.2-.4-.3-.9-.2-1.4.1-.5.4-.9.5-1.4 0-.4.3-.7.7-.9-.6-.3-1.1-.9-1.4-1.3-.5-.7-.9-1.4-1-2.2 0-.5.6-.6.9-.2.4.6.9 1.1 1.5 1.5.6.4 1.4.8 1.6 1.5.1.5-.2.8-.6.9.1.1.1.2.2.3.5.9 0 1.3-.3 2.1-.4 1 .5 1.6 1 2.3.2.3-.3.9-.7.7zM40.3-4.4c-.1 1.1-.8 1.8-1.4 2.6-.4.5-1.1.3-1.1-.3-.1-.8.5-1.8.9-2.4.4-.5.7-.8.9-1.5.1-.5.1-.6.5-.9h.2c.6.7 0 1.8 0 2.5zm1.6-9c-.4 1-1.4 1.3-1.9 2.1-.6.9-.3 2.1-.8 3-.2.3-.6.3-.8 0-.1.1-.2.2-.3.4-.1.4 0 .9 0 1.3 0 .9-.2 2.8-1.2 3.2-.1 0-.1 0-.1-.1-.4-.5-.1-1-.1-1.7 0-.8-.1-1.6-.1-2.4 0-1.1.3-2.1 1.4-2.5.2-1.7 1.9-3.1 3.2-4 .3 0 .8.3.7.7zm-1.7-2.1c-.6 1.6-1.4 3.1-2.7 4.2-.2.1-.5.1-.5-.2 0-1.1.3-1.8.7-2.8.2-.5.6-1 .8-1.5.2-.5.1-.6 0-1.1-.1-.4.2-.7.6-.8 1.3-.2 1.4 1.3 1.1 2.2zm-3.8 4.3c-.4.5-.9.8-1.3 1.4-.3.5-.5 1.1-.6 1.8-.1.3-.6.3-.7 0-.2-.9-.5-1.9-.1-2.8.2-.4.5-.8.9-1.1.2-.2 1.1-.9 1-1.2-.1-.4.4-.6.7-.4.5.6.7 1.5.1 2.3zm-4.2 3.1c-.1.2-.3.4-.5.4-.9-.1-1.9-.2-2.4-1.1-.2-.4-.3-.9-.3-1.4 0-.4-.3-.7-.2-1v-.1c0-.1.1-.2.2-.3h.1c.1-.1.2-.1.4-.1.3-.1.6-.2 1 0 .5.1 1 .4 1.3.8.7.7.7 1.8.4 2.8zM28-9.9l-.2.2c0 .3-.2.5-.3.9-.1.2-.1.3 0 .4.6 1.2-1 2.1-1.8 1-.4-.6-.5-1.5-.3-2.2.3-.8 1.1-1.4 1.9-1 .2 0 .5 0 .6.2.2.2.2.4.1.5zm2.8-3.6s-.1 0 0 0h-.1c-.7-.1-1.3.4-2 .3-.6-.1-1.1-.7-1-1.3 0-.6.6-1.1 1.2-1.1.2 0 .3.1.5.1v-.1c-.3-.1-.6-.1-1-.2-.6-.2-.9-1.2-.2-1.6.9-.5 2 .1 2.4 1 .1.2.2.4.2.6v.3c0 .5-.1 1 0 1.5.2.1.2.4 0 .5zm3.6-1.3c0 .1-.2.2-.3.1-.1.1-.2.2-.4.3-.4.2-.9 0-1.1-.3-.4-.4-.4-1-.4-1.5s-.3-1.2.2-1.5c.4-.2.9-.2 1.3 0 .4.3.7.8.8 1.2 0 .5.1 1.2-.1 1.7zm.8-6.1v.1c-.3.8-1.3.9-2 .8-.2 0-.4-.3-.4-.5.1-1 .7-1.8 1.7-2 0-.1.1-.2.3-.3.1 0 .1 0 .1.1v.2c.1.1.2.2.2.3 0 .3.1.6.1.9.1.2 0 .3 0 .4zm2.9 3c-.1.1-.2.2-.4.3.1.2 0 .5-.2.5h-.4c-.1.1-.3.2-.4.3-.1.1-.1.1-.2.1 0 .3-.3.4-.5.2-.1-.1-.1-.2-.2-.3 0-.1-.1-.1-.1-.2-.4-.8-.6-1.8-.1-2.4.3-.4.8-.4 1.3-.3.5.2.8.7 1.3 1 .3.1.2.6-.1.8zm-1.3-7.5c0 .2.1.4.1.6.1.7-1.1.7-1-.1 0-.2.1-.4.1-.6.1-.4.7-.4.8 0v.1zm-.6-1.1c-.1.1-.1.2-.2.3-.2.1-.4.1-.6-.1-.1-.1-.2-.1-.2-.2-.5-.4.2-1 .7-.7.1.1.2.1.3.2v.5z"/><path d="M39.2-22.5c-.9.2-1.7.1-2.5-.4s0-1.8.7-1.3c.5.4 1.1.8 1.8 1 .3.1.3.6 0 .7zm.2 3.8c-.8-.4-1.2-1.8-.7-2.5.1-.2.6-.3.7 0l.3.9c.1.3.4.5.5.8.4.5-.2 1.1-.8.8zM35.6-29s-.1 0-.1.1c-.7.2-.9-.8-.3-1.1 0 0 .1 0 .1-.1.6-.3 1 .9.3 1.1zm2.4 1.1c0 .1-.1.1 0 0-.3.5-1 .6-1 .1v-.1c0-.2 0-.4.2-.6.1-.1.3-.2.4-.1h.2c.3.1.5.4.2.7zm.3 1.8c-.2-.1-.4-.1-.6 0-.4.1-.7-.5-.3-.7.4-.2.8-.2 1.2-.1.6.1.3 1.1-.3.8zm-4.6-7c-.1.1-.1.3-.2.4-.2.6-1.2.3-.9-.4l.2-.4c.3-.5 1.1-.1.9.4zm.3 2.8c-.4.1-1 0-1.1-.5-.1-.3.2-.6.5-.5.2.1.4.2.5 0 .1-.1.3-.2.5-.2.1 0 .3.1.4.3-.1.4-.5.8-.8.9zm4.1.2c-.1.3-.5.4-.7.6-.4.3-.9-.3-.6-.7.3-.3.7-.4 1-.3.1 0 .2.1.3.3v.1zm-1.1-1c-.1 0-.1 0 0 0-.4.6-1.3.2-1.1-.4.1-.4.5-.8.9-.7.6 0 .9 1 .2 1.1zm-4.3.8c0 .2-.1.3-.3.3h-.3c-.5-.2-.3-.9.2-.8h.1c.1 0 .3.2.3.5 0-.1 0-.1 0 0zm-1.8-1.3c0 .1-.2.2-.3.2-.2 0-.2-.1-.4-.2-.3-.4.3-.8.5-.4.2.1.2.2.2.4zM-8.9-16.8c-.8-.2-1.4-.7-2.1-1.2-.8-.6-1.5-1.6-2.4-2-1.5-.6-2.9.4-4.3-.6-.2-.1-.2-.3-.2-.4.1-.7.6-1.2 1.3-1.3 1-.1 1.7.6 2.4 1.1.4.3.9.7 1.3.9.7.3 1.5.4 2.1.7.9.5 1.8 1.3 2.2 2.3.2.2.1.6-.3.5zm-4.2 1.8c-1.2.1-2.6 0-3.5-.8-.3-.3-.1-.9.3-1 1-.3 2-.2 3-.3h1.3c.5 0 .8-.1 1.3.2.1.1.2.2.1.3-.2.9-1.6 1.5-2.5 1.6zm4.5.3c-.6 1.3-2.7 1.8-3.8.9-.1-.1 0-.2 0-.3.4-.3.9-.5 1.3-.8.5-.2.9-.6 1.4-.9.7-.1 1.4.4 1.1 1.1zm-2.5 4.7c-.4.1-.7-.1-1.1-.2-.5-.2-1-.2-1.5-.3-.8-.2-1.5-.7-2.3-.8-.2 0-.2-.3 0-.4.8-.4 1.7-.6 2.6-.2.5.3.9.7 1.4 1 .5.3.8.4 1.1.8-.1 0-.1.1-.2.1zM-16-28.9c-.1.2-.4.3-.5.4-.2.2-.5.2-.8.3-.7.1-.9-.8-.3-1 .3-.1.5-.2.9-.2.2 0 .5 0 .7.1.1.1.1.3 0 .4zm-1.4-1.3c-.1.4-.3.4-.7.5-.6.1-.8-.7-.2-.9.4-.1.6-.2.9.1 0 0 .1.2 0 .3zm-4.9 4.4c-.1 0-.2.1-.3.2.2.5.3 1.1.1 1.7-.2.4-.5.8-1 .8h-.7c-.2 0-.3-.3-.3-.5v-.1c-.1-.2-.2-.5-.1-.8 0-.2.1-.3.1-.5 0-.5.1-.8.4-1.2.4-.6 1.2-1 1.9-.6.5.3.4.8-.1 1zm9.7.5c-1-.8-2.1-.9-3.3-.4-.8.4-1.4.8-2.3.5-.1 0-.2-.1-.2-.1 0 .2 0 .4.1.5.3.3.3.8.1 1.1-.1.3-.3.5-.5.7l-.1.1v.1c0 .4-.3.7-.7.7h-.2c-.2.3-.7.5-1.1.3-.5-.3-.9-.9-1-1.4-.1-.3-.1-.5-.1-.8 0-.4.2-.5.5-.8.3-.3.8-.2.9.2 0 .2.2.3.2.5 0 .1 0 .1.1.2.1-.2.3-.4.4-.7.1-.3.3-.5.5-.6 0-.3 0-.6.2-.9.1-.1.2-.2.4-.1l.3.3c0-.2.1-.4.4-.5.6-.2 1.1-.8 1.8-1 .6-.3 1.2-.3 1.8-.1 1 .3 1.8.9 2.2 1.9-.2.2-.3.4-.4.3zm-8.4-2.4c-.7.3-1.1-.8-.5-1.2.3-.2.7-.5.9-.8.2-.4.9-.2.9.2-.1.9-.5 1.5-1.3 1.8zm-2.2-1.8c-.4-.4-.7-.9-.7-1.5 0-.3.3-.5.6-.4.6.3.8.8 1 1.4.2.4-.5.9-.9.5zm4.1-1.3c-.4.7-1.4.5-2 .9-.5.3-1.1-.4-.6-.8.3-.2.6-.5.9-.5.4 0 .9.4 1.2 0 .2-.3.7 0 .5.4zM-21-34c-.3.5-1 .8-1.5.6-.3-.1-.5-.5-.2-.7.4-.3.9-.5 1.4-.4.3-.1.4.2.3.5zm1.5 1c-.1 0-.2 0-.3.1-.1.7-.7 1.2-1.5.9-.3-.1-.5-.8 0-.8.3 0 .5-.2.4-.4-.1-.3.1-.7.4-.7.2-.1.5-.1.7-.2.7-.2 1 .8.3 1.1zm-3.8-2.3c-.4-.3-.6-.7-.5-1.2 0-.7 1.1-.7 1.1 0 0 .3.1.5.1.7 0 .3-.4.8-.7.5zm-1.6 13.2c-.3.3-.7.3-.9.7-.2.3-.2.7-.4 1-.2.1-.3.1-.5.1-.6-.3-.5-1.3-.3-1.8.3-.6.9-1.3 1.6-1.2.6 0 .9.7.5 1.2zm2.5 2.3c-.2.3-.3.5-.6.6-.2.1-.5.1-.6.3-.1.1-.2.1-.2.1-.2.3-.5.6-.9.5-.9-.2-.7-1.6-.4-2.1.3-.4.6-.7 1.1-.8.6-.2 1 0 1.5.4.2.1.3.7.1 1zm3.2 2.2c-.2.1-.5.2-.7.3l-.6.3c-.4.2-.9 0-1-.4 0-.1-.1-.3 0-.4-.5.4-1 .7-1.5.8-.2 0-.5-.2-.4-.5.4-.6 1-1 1.5-1.6.2-.2.5-.2.7-.1.1 0 .2.1.2.2s.1.1.1.2c.1 0 .1-.1.2-.1.2-.2.9-.3 1-.5.4-.9 1.7-.8 1.8.2-.2.8-.7 1.3-1.3 1.6zm-1.3 2.2c-.1.5-.4.8-.7 1.2-.1.2-.4.4-.7.5h-.3c0 .1-.1.2-.1.2-.1.2-.4.4-.6.5-.3.2-.8.4-1.1 0-.1-.1-.1-.2 0-.3 0-.1.2-.3.3-.3 0 0 0-.1-.1-.1-.3-.5-.2-1.1.2-1.5.3-.4.8-.5 1.3-.5.2 0 .4.1.6.1.1-.1.1-.2.1-.3.4-.5 1.3-.1 1.1.5zm-5.5-2.9c-.2.3-.6.5-.9.7-.3.3-.7-.1-.4-.4.3-.3.7-.7 1.1-.7.2 0 .4.2.2.4zm1.9 2.3c-.2.1-.5.2-.7.3-.1 0-.2.1-.2.2 0 .2.1.4.1.6.1.5-.6.9-.9.4-.1-.2-.1-.4-.2-.5 0 .1-.1.2-.1.3-.1.3-.6.2-.7 0-.4-.6-.1-1.4.3-2 .4-.5 1-.3 1.1.2.3-.2.7-.4 1-.4.5-.1.8.6.3.9zm-3.1 1.4c-.2.4-.3.8-.3 1.2 0 .6-.8.7-1 .3-.2.2-.2.5-.3.8-.1.3-.5.3-.6.1-.3-.5-.2-1.1.1-1.6.2-.2.4-.3.7-.2 0-.3.1-.6.2-1 .3-.7 1.5-.3 1.2.4zm-1.7-.4l-.1.1c-.1.1-.2.2-.3.2-.1.1-.2.1-.3.2-.5.3-.8-.3-.5-.7l.2-.2c0-.1 0-.2-.1-.3-.1-.6.9-.6 1-.1.2.2.3.5.1.8zm5 9.6c-.2.1-.3.3-.3.6 0 .1-.1.1-.1.1.4.5.7 1.3.3 1.8-.1.2-.4.2-.6 0-.2-.4-.2-.8-.5-1.2-.2-.2-.1-.5.1-.6-.3-.6 0-1.2.5-1.6.6-.4 1.2.5.6.9zm1.1.3c-.2-.2-.4-.4-.6-.5-.2-.1-.2-.4.1-.5.4-.1.8.1 1.2.3.6.4-.3 1.3-.7.7zm1.4 1.4c-.1.3-.3.6-.6.7-.3.1-.7 0-1 .1-.2.1-.6 0-.6-.3s.1-.5.3-.6c.1 0 .8-.3.8-.2.2-.8 1.4-.4 1.1.3zm2.7-3.2c-.1.1-.2.2-.3.4 0 0-.1.1-.2.1 0 .1 0 .1-.1.2.4.2.4.8.1 1.1-.2.2-.4.4-.7.4-.2.1-.6.2-.9.2-.2 0-.3-.1-.3-.3 0-.7.7-.6 1.1-1 .2-.2.2-.4.4-.5 0 0 0-.1-.1-.1-.3.1-.6.2-.9.4-.2.1-.7.6-.8.2-.1-.5.4-.9.7-1.2.4-.4.9-.6 1.5-.7.3 0 .8.4.5.8zm1.9-1.2c.2.2.2.4.3.5.1.3-.1.6-.3.9-.1.1-.3.2-.5.3-.2.1-.2.2-.2.4 0 .1-.2.2-.3.2h-.1c-.1 0-.2-.1-.2-.2-.1-.3 0-.6.2-.8l.3-.3c0-.1.1-.1.1 0l-.2-.2c-.4-.7-.3-1.5.3-1.8.2-.1.5-.1.7.1.2.2.3.6 0 .8l-.1.1zm.3-2.5c-.3.5-.8.6-1.3.6-.3 0-.4.3-.6.5-.1.1-.3.2-.5.3.1.3.1.6-.1.8 0 .1-.2 0-.2 0-.1-.3-.1-.6-.2-.9 0-.1.1-.2.2-.3.5-.2.5-.8 1-1 .2-.1.4-.1.6-.1.3-.1.5-.2.7-.4.3-.1.6.2.4.5zm-3.4.1c-.1.7-.1 1.6-.7 2.1s-1.6.6-2.4.5c-.4 0-.6-.4-.4-.7.1-.3.2-.6.5-.7.1 0 .2 0 .3.1.1.1.1.2.1.3.4 0 .7 0 1.1-.2.6-.2 1-.8 1-1.4-.3.1-.6.3-1 .3-.5-.1-1.1-.3-1.3.3-.1.3-.6.1-.6-.1.1-.5.3-.8.8-1 .3-.1.6-.1.9-.1.2 0 .4 0 .6.1.3.1.5.5.8.3.1-.1.2 0 .2.1.1-.1.2 0 .1.1zm2.7-3.1c.1.6-.4 1.2-.8 1.6-.2.2-.4.3-.7.4-.3.1-.4.2-.7.4-.2.1-.4 0-.4-.2 0-.6.6-.7 1-.9.5-.4.7-.9 1.2-1.2h-.6c-.5-.1-.9-.1-1.3.2-.3.2-.5.5-.8.7-.2.1-.6 0-.6-.3 0-.7.6-1.4 1.3-1.6.4-.1.7 0 1 .2l.6.3c.4.1.6 0 .9 0 .1 0 .1.1.1.1.1.1 0 .2-.2.3zm-10.3 5.7c-.2.5-.9.7-1.3.4 0 .2 0 .5-.2.6-.1.1-.2.1-.3 0-.2-.1-.2-.2-.2-.5-.1-.2-.2-.4-.3-.7-.1-.4.4-.6.6-.4.1.1.2.2.2.4 0 0 .1-.1.2 0 .8.2.2-.5 0-.8-.2-.3-.5-.7-.2-1.1.1-.2.4-.1.5.1.1.3.2.4.5.6.2.1.3.2.4.4.2.2.2.6.1 1zm-2.2-2.2c-.1.4-.1.8-.2 1.1 0 .1-.2.2-.3 0-.2-.5-.4-1.7.1-2.1.1-.1.3-.1.4.1.1.4 0 .6 0 .9zm-1.2 6c0 .2.1.3.1.5 0 .4-.4.8-.2 1.1.1.3-.4.6-.6.2-.2-.5 0-1 .1-1.5s-.1-1.2.4-1.4c.1-.1.3 0 .2.2-.1.3-.1.5 0 .9zm1.2-.5c0 .2 0 .2.2.4s.4.4.4.7c0 .4-.2.7-.3 1-.1.1-.1.4-.3.4h-.1c-.1 0-.3-.1-.3-.2-.1-.4 0-.6.1-1 0-.3-.1-.6-.1-.8-.1-.3-.3-.4-.3-.7-.1-.3.1-.6.2-1 .3-.7 1.4 0 .9.7-.2.1-.3.4-.4.5z"/><path d="M-27.5-4.6c-.1.1-.2.3-.2.4-.1.1-.2.2-.3.2 0 .3-.1.5-.1.8 0 .1-.1.1-.2 0-.2-.2-.4-.4-.6-.7-.2-.3-.2-.6-.3-.9-.1-.6.7-.8.9-.3.3-.4 1.1-.1.8.5zm1.8-1.3c-.2.3-.5.6-.7.9-.4.4-1-.1-.7-.6.2-.3.4-.6.5-.9.4-.5 1.4.1.9.6zm-.3-2.7c-.1.6-1.1.6-1.2 0-.1-.6-.1-1.1.4-1.5.3-.2.7 0 .8.3.2.4 0 .8 0 1.2zm-.2-2.4c-.2.2-.5.2-.6.5-.1.2 0 .3-.3.4-.6.2-.8-.6-.6-1 .1-.3.4-.5.7-.7.1-.1.3-.1.4-.1l.3-.3c.1-.1.3-.1.4 0 .4.4.1.9-.3 1.2zm2.1 1.3c-.4.5-.6.7-.6 1.4 0 .2-.3.3-.4.1-.3-.6-.6-1.1-.3-1.7.1-.3.3-.5.4-.7.1-.4-.1-.8-.4-1.1-.3-.4.2-.9.6-.6.5.4 1.2 1 1.1 1.7 0 .4-.1.7-.4.9zM-31.4-7c-.5-.3-.3-1.4 0-1.8.2-.2.5-.1.6.2.1.2 0 .4 0 .5.2 0 .4.1.4.3 0 .5-.4 1.2-1 .8zm.3-3.3c-.1.2-.3.1-.4 0-.1-.2-.2-.4-.2-.7-.1-.6.8-.7.8-.1 0 .3 0 .5-.2.8zm-1.1 5.8c.1.1.2.2.2.4-.1.5-.6 1.1-.6 1.6.1.4-.5.5-.6.2-.2-.6 0-1 .2-1.5 0-.1.1-.1.1-.2-.1-.3-.1-.5-.2-.8-.1-.3-.3-.7-.3-1.1 0-.7.4-1.5.9-2 .1-.1.2 0 .2.1-.2.5-.3.9-.1 1.4.1.3.3.7.3 1.1 0 .1 0 .5-.1.8zm0 4.6c0 .5.1.9.2 1.4.1.2-.3.4-.4.2-.2-.6-.5-1.1-.4-1.8.1-.4.3-1.1.7-1.1.1 0 .3.1.2.2 0 .4-.3.6-.3 1.1zm1.8 0c-.1.4-.1.8-.1 1.2 0 .2-.2.3-.4.2-.5-.3-.6-.9-.4-1.4.1-.4.4-1.2.9-1.2.1 0 .1 0 .2.1.1.4-.1.7-.2 1.1zm.2 3.2c-.1.3-.5.3-.6 0-.1-.4-.2-.9 0-1.3.1-.2.5-.2.6 0 .2.4.2.9 0 1.3zm1.1-.4c-.3-.4-.5-.9-.4-1.4 0-.1.2-.3.3-.2h.1c.1 0 .2.1.2.2.1.4.1.8.2 1.2.1.2-.3.5-.4.2zm0-2.8c-.1.4-.1.7-.3 1.1 0 .1-.1.1-.2 0-.3-.6-.3-1.6.1-2.1.1-.2.5-.1.5.1.1.3 0 .6-.1.9zm2.4 1.3l-.6.6c-.1.2-.2.4-.4.6-.1.1-.4.1-.5-.1-.2-.4-.1-.9.2-1.4-.2-.1-.3-.3-.5-.5-.3-.4-.2-.9-.1-1.4 0-.1.2-.2.3-.2h.2c.1 0 .1.2.2.3 0 .3.2.6.3.9.1.2.1.3.2.4 0 0 .1 0 .1-.1.5-.3 1 .4.6.9zm1-2.3c0 .2 0 .3-.1.5s-.4.2-.6.1c-.2-.2-.5-.4-.7-.6-.2-.2-.4-.4-.5-.7 0-.2 0-1 .3-.8.2.1.2.3.3.4.2.2.4.3.7.5.1.1.2.1.3.2.1-.4.2-.7-.1-1.1-.3-.5-.8-.9-.4-1.4.2-.3.6-.3.7 0 .3.6.7 1.2.7 1.8 0 .3-.2.9-.6 1.1zm3 .4c-.2.7-1 .7-1.5.3l-.5.5c.2.5.6 2.4-.2 2.2-.5-.1-.6-.7-.6-1.1 0-.5.2-1 .5-1.3 0 0 .1-.1.2 0 0-.5.2-.9.5-1.3.2-.3.8-.3.9.1 0 .2.2.1.3.1.2-.2.5.1.4.5zm1.2 2c-.5.4-1.2-.3-.7-.7.4-.3.2-.5.1-.8-.1-.3 0-.5.1-.7.2-.3.6-.1.6.2 0 .2.3.5.4.7.1.1.1.3.1.5-.1.3-.3.5-.6.8z"/><path d="M-22.6 3.1c-.2.2-.5.2-.8.4-.3.2-.4.3-.8.2-.2 0-.3-.2-.4-.4-.1-.3 0-.6.1-.8.1-.2.4-.3.5 0v.1l.1-.1c.2-.2.5-.1.8-.1.1 0 .4-.5.6-.4.3.2.1.9-.1 1.1zm-19.1 11.5c-.1.2-.3.1-.3-.1 0-.4 0-.9.1-1.3.1-.3.6-.3.6.1s-.2.9-.4 1.3zm2.2-4.3c-.4.3-.8.6-.5 1.1.1.3.3.5.3.8 0 .7-.6 1-1 1.4-.2.1-.6 0-.4-.3.1-.3.4-.5.5-.8.3-.6-.1-.7-.2-1.2-.1-.7.5-1.2 1-1.4.2-.2.6.2.3.4zm2.1 5.5c-.1.1-.2 0-.3 0-.2-.3-.2-.9-.2-1.2 0-.5.8-.5.8 0 0 .3 0 .9-.3 1.2zm1.7-1.7c-.1.2 0 .4-.1.6h-.1.2l.1.1c.1.1.1.2.1.3-.1.3-.2.5-.3.8 0 .1-.2.1-.2 0-.2-.3-.2-.6-.2-.9 0-.1.1-.2.2-.3h-.1c-.6-.4-.3-1.4.2-1.8.3-.2.6.1.5.4-.1.4-.3.6-.3.8zm-1.4-1.6c-.1.1-.3.1-.4 0-.2-.2-.2-.4-.2-.7 0-.5.8-.5.7 0 0 .3 0 .5-.1.7zm0-1.7c-.1.2-.3.2-.4.1-.2-.3-.2-.6-.1-1 .1-.2.3-.1.4 0 .2.3.2.6.1.9zm1.4.2c0 .3 0 .6-.2.9 0 .1-.1.1-.2 0-.4-.3-.4-.9-.4-1.4 0-.1.1-.3.2-.3 0 0 .1 0 .1-.1h.3c.3.4.2.6.2.9zm1.2 1.7c-.1.1-.2.2-.3 0-.3-.5-.4-1.3-.3-1.9 0-.3.5-.2.5 0 .2.5.3 1.4.1 1.9zm1.6 2c-.3-.3-.5-.8-.2-1.3.1-.3.6-.2.6.1.1.3.1.6.1.8.2.4-.2.7-.5.4zm-1-1.2h-.3c-.2-.2-.2-.4-.1-.7.1-.2.2-.3.4-.3h.1c.1 0 .3.1.3.2.1.2-.1.6-.4.8zm1.8-1.8c-.2.1-.3.3-.5.4-.4.2-.7-.2-.6-.6.1-.1.2-.3.3-.4-.1-.1-.2-.2-.3-.4-.2-.4-.1-.4-.4-.6-.4-.1-.5-.4-.4-.8-.1-.1-.3-.2-.4-.4-.2-.4.2-1-.1-1.3-.1-.2 0-.5.3-.5s.5.1.7.4c.1.4-.3 1 .2 1.1.3.1.4.4.3.7-.1.3 0 .1.1.3.1.1.2.2.2.3.1.3-.2.7.1 1 .2-.1.3-.1.5 0 .1.1.2.2.2.3 0 .1-.1.4-.2.5zm.8-.8c-.1-.3-.4-.5-.4-.7-.1-.4.3-.7.7-.5.4.2.5.5.5.9 0 .5-.6.8-.8.3z"/><path d="M-31.9 9.6c-.2-.4-.3-.9-.2-1.3.1-.3.6-.3.7 0 .1.3.1.8.2 1.1-.1.3-.5.4-.7.2z"/><path d="M-31.4 6.7c-.1.2-.2.3-.2.5v.6c0 .2-.2.3-.3.1-.2-.2-.2-.5-.4-.8-.1-.3-.3-.6-.2-1 0-.2.1-.5.3-.5h.1c.3-.1.5-.1.7.2.2.3.1.5 0 .9zm1.6.3c0 .1-.1.1-.2.1-.4-.1-.5-.5-.6-.8-.2-.4-.3-.8-.1-1.3.1-.3.6-.3.7 0 .2.3.1.7.2 1.1 0 .4.1.6 0 .9zm1.4-.1c-.6-.2-.7-.9-.8-1.5-.1-.4-.1-.9.3-1.1.2-.1.4 0 .6.2.2.3.1.6 0 1 .2.3.4.6.5.9.3.3-.2.7-.6.5zm2.9-2.3c-.3.2-.6.5-.9.7-.1.1-.1.2-.2.3-.1.1-.3.1-.3 0-.2-.2-.2-.5-.4-.8-.1-.3-.3-.5-.3-.8 0-.2.2-.4.4-.4.2-.1.4-.2.6-.4.1-.2.2-.3.5-.3.4-.1.8.4.8.7V4c.1.1.1.5-.2.6zm1.9 1.8h-.3c-.1.2-.3.2-.4.1-.2-.5 0-1.1.3-1.5.1-.1.3-.2.4-.1.1-.6 1-.4.9.2 0 .6-.3 1.1-.9 1.3zm2.6-3.1c-.2.4 0 .8-.1 1.2 0 .1-.2.2-.3.2-.7-.2-.7-1.1-.5-1.6.1-.2.2-.4.5-.3.1 0 .2 0 .3.1 0 .1.1.3.1.4zm1.9.6c-.1.2-.2.4-.4.5-.3.2-.7.4-.8.7 0 .1-.3.2-.3 0-.2-.3-.2-.7.1-1 .1-.2.3-.3.5-.5.1-.1.3-.2.4-.3.1-.1.1-.3.1-.4 0-.1.2-.2.3-.1.4.4.3.8.1 1.1z"/><path d="M-19.1 2.5c-.1 0-.6.3-.6.3.2.3-.1.7-.4.5-.9-.6.2-1.4.8-1.7.3-.2.7.1.6.5-.1.2-.2.3-.4.4zm.8-2.4c-.2.5-.9.4-.9-.1 0-.4 0-.8.2-1.2.1-.3.2-.7.5-.9.1-.1.2-.1.2 0 .2.3.2.7.2 1 0 .4-.1.8-.2 1.2zm-1-2.6c-.1.1-.3.1-.4.1 0 0 0 .1-.1.1-.1.2-.3.3-.6.3-.1 0-.2-.1-.2-.2 0-.4-.1-.9.3-1.2.1-.1.2-.1.3-.2h.5c.2-.1.3-.5.4-.7.1-.3.5-.2.6.1.1.6-.1 1.4-.8 1.7zm-14.3 4.8c-.8-.1-1.1-1.5-1.1-2.2 0-1-.5-2 .4-2.7.2-.2.6.1.5.4-.2.5-.5 1-.5 1.6 0 .5.5 1 .7 1.6.1 0 .5 1.4 0 1.3zm.8 2.9c0 .2-.1.4-.2.5-.2.2-.5.2-.7.3-.1.1-.2.1-.3 0-.7-.6-.3-2.1.5-2.4.1-.1.3.1.3.2v.1c.1.6.4.9.4 1.3zm-1.7-1.3c-.1.3-.2.5-.3.7 0 .1-.2.1-.2 0-.4-.3-.3-.7-.2-1.1.2-.4 1-.1.7.4zm-.9 2.4c-.1.4-.7.3-.7-.1s.1-.9.6-1c.2 0 .3 0 .4.2 0 .4-.1.6-.3.9zm.3 2.2c-.1.1-.3.1-.4 0-.2-.3-.2-.6 0-.9.1-.1.3-.1.4 0 .2.3.2.6 0 .9zm.1 1.9c-.2-.1-.3-.2-.4-.4-.2-.4.5-.7.6-.3 0 .1.1.2.1.3.2.2 0 .5-.3.4zm-1.4-2.5c0 .1.1.1 0 .2-.4.5.5 1.1 0 1.5-.1.1-.2 0-.2 0-.1-.5-.6-1.2-.1-1.7-.1-.3-.2-.7-.1-1.1.1-.3.5-.3.6 0 .1.4.1.8-.2 1.1zm11.8-1c-.2.5-.5.9-.6 1.4-.1.4-.2.7-.5.9-.2.1-.3 0-.4-.2-.1-.5.2-.7.4-1.1.1-.2.2-.5.3-.8-.2.2-.6.2-.7 0V7c-.1-.1-.1-.3 0-.5s.3-.3.4-.5c.1-.2.1-.4.2-.5.1-.1.3-.1.4-.1.3.2.3.5.3.8 0 .1 0 .1-.1.1.2.1.4.3.3.6zm.1 3.2c-.1-.3 0-.5-.1-.8l-.3-.6c-.2-.5.6-.7.9-.4.3.5.1 1.5-.5 1.8zm1.9 0c-.1.3-.4.6-.8.6-.1 0-.1-.1-.1-.2.1-.4.3-.8.4-1.2.1-.1.1-.3.3-.1.3.1.3.7.2.9zm.6-2.4c0 .1-.3.9-.6.7-.4-.3-.2-1 0-1.4.2-.5.6-.9 1.1-1.2.1 0 .2.1.2.2-.3.7-.5 1.2-.7 1.7zm2.1-1.2c-.1.1-.2.1-.3.2-.2.3-.1.5-.1.8 0 .7-.4 1.4-.8 2-.1.1-.2 0-.2-.1.2-.5.1-1 .1-1.5 0-.4-.1-.7.1-1 .2-.5.6-.9 1.2-1 .1 0 .1 0 .1.1 0 .2 0 .3-.1.5zM-27 8c-.1.2-.3.3-.4.5-.1.2 0 .5 0 .8 0 .4-.1.9-.5 1-.1 0-.1 0-.1-.1-.2-.2-.1-.5-.1-.8 0-.3-.1-.6-.1-.9.1-.5.4-.9.9-1.1.2 0 .4.4.3.6zm.4 2.7c-.2.3-.7.1-.6-.3.1-.2.3-.5.2-.7-.1-.3.3-.5.5-.4.7.4.1 1-.1 1.4zm2.7.9c-.4 0-.4-.6 0-.6s.4.6 0 .6zm-5.2-1.9c.1.3.2.5.1.8-.1.4-.1.8-.3 1.1-.1.2-.4.2-.5 0-.4-.5-.4-1.6.1-2 .1-.2-.2-.5-.2-.7-.1-.3-.1-.5-.2-.8 0-.5.7-.7.9-.2.3.4.5 1.4.1 1.8zm.9 8.8c-.1.1-.3.2-.4.1-.2-.3-.2-.6-.1-1 0-.1.1-.2.3-.3h.1c.1 0 .2 0 .3.1.1.3 0 .8-.2 1.1zM39 29.2c-.1.1-.3.2-.4.1-.4-.2-.7-.3-1.1-.4-.1 0-.5-.2-.5-.2s.2.3.2.4c.3.5-.4 1.1-.8.6-.3-.4-.6-.9-.5-1.4.1-.6.6-.9 1.2-.8.6.1 1.1.5 1.6.8.2.2.6.5.3.9zm2.2.8c-.2.7-1 1.3-1.7 1.5-.7.2-1.7.2-2.1-.5-.1-.2 0-.4.2-.5.5-.2 1-.1 1.5-.2s.8-.5 1.1-.8c.4-.5 1.2-.1 1 .5zm1.5-19.6c-.2 0-.3-.1-.4-.3-.1-.4 0-.6-.2-1-.2-.3-.4-.7-.5-1-.2-.5-.4-1.4.1-1.8h.2c.3.3.3.8.5 1.2.3.4.7.7 1 1.1.3.7.2 1.8-.7 1.8zM-60.5 3.8c-.2 0-.2-.4 0-.4s.2.4 0 .4zm1.3.3h-.4c-.3 0-.3-.5 0-.5.2.1.4.2.4.5.1 0 0 0 0 0zm1.1.4c-.2.1-.3.1-.5 0-.4-.2.1-.7.4-.4 0 .1.1.2.1.2v.2zm.6.4c-.3 0-.3-.5 0-.5s.3.5 0 .5zm1 .5s0 .1 0 0c-.4.2-.7-.1-.6-.4.1-.3.6-.3.7 0v.1c.1.2 0 .3-.1.3zm.7.6c0-.1-.1-.1-.1-.2-.2-.2.1-.5.3-.2 0 .1.1.1.1.2.1.1-.2.4-.3.2zm1.1 1c-.2-.1-.3-.3-.4-.5 0-.1 0-.2.1-.1.3 0 .6.3.5.6h-.2zm-1.9.9c-.2 0-.4 0-.6.1-.1.1-.3-.1-.3-.2.1-.5.8-.7 1-.2.1.1 0 .2-.1.3zm1.6 5.6c-.2.5-1.3-.2-1.5-.4-.1-.1 0-.2.1-.2.3-.1 1.7 0 1.4.6zm-10 .6h-.2c-.2-.1-.1-.4.1-.4s.3.3.1.4zm2.7.4c-.1.3-.5.2-.5-.1 0-.2.1-.3.3-.5h.2c.1.3 0 .4 0 .6zm-3.1.8c-.2 0-.3 0-.5-.2s.1-.4.3-.3c.1.1.1.2.2.3.1.1.1.2 0 .2zm5.7-9.8c-.1-.1-.2-.1-.2-.3v-.1c.2 0 .2 0 .3.1.3.2 0 .5-.1.3zm1.2.6c-.2 0-.2 0-.4-.1-.3-.1 0-.6.2-.4.1.1.2.1.2.3.2.1.1.2 0 .2zm.9.4c-.3-.2 0-.6.2-.4 0 0 0 .1.1.1.2.2-.1.5-.3.3zm1.2.5c-.1-.1-.4-.2-.5-.2-.3-.2.1-.6.3-.3.1 0 .3.5.2.5.1 0 .1 0 0 0zm-4.1 1.7c0 .1-.1.1-.1.1-.2 0-.2-.1-.3-.2-.1-.2.2-.4.3-.2.1.1.1.2.1.3z"/></g></g><g id="Details_12_" class="st0"><g id="Face_1_"><path d="M-61.3 5.4c.3.3.3.6.3 1 0 .2-.3.3-.4.2-.3-.3-.2-1-1-1.1-.3-.1-1.1 0-1.5-.1-1-.4-1.4-.6-1.6-.6-.4 0-.8.5-1.2.7-.3 0-.6-.5-.1-.7.8-.4.6-.4 1.1-.8.3-.2 1.3-.9 2-1 .4-.1.9-1.2 1-1.9 0-.2.3-.2.3 0 .2.4.2.3.1.6-.3.7-.8 1-.3 1.7.6.6.5 1.1 1.3 2zm3.4 9.7c-.2.1-.4.1-.7 0-.1 0-.3.1-.3.3 0 .1 0 .2-.1.4-.1.3-.5.5-.5.2v-.8c-.1-.3-.2-.5-.4-.7-.2-.4.5-.6.7-.1.1.3 1.2.4 1.7.5.1-.1-.3.1-.4.2z"/><path d="M-58.5 15c.3-.2.7-.2 1-.2.3.1.7.2.8.5.2.3.2.6.2.9v.5c0 .1 0 .1-.1.2h-.2c-.8-.1-1.6-.3-2.3-.6-.7-.3.1-1 .6-1.3zm-7.9-1.6c-.3 0-.7.2-.9.5s-.4.6-.5 1v.2c0 .1.1.1.2.1.3.1.6.1.9 0-.1 0 .3-1.4.3-1.8z" fill="#603e44"/><circle class="st3" cx="-57.5" cy="16.4" r=".3"/><circle class="st3" cx="-66.9" cy="14.9" r=".3"/><circle class="st7" cx="-57.8" cy="15.8" r=".4"/><path class="st7" d="M-66.6 14.8h-.2c-.2 0-.4-.2-.4-.4s.2-.4.4-.4c.1 0 .2 0 .2.1v.7z"/><path d="M-63.9 29.2c-1.2-1-2.2-2.4-2.9-3.8-.2-.4-.7-.9-1.2-.8-.3 0-.5.3-.7.6-.3.6-.4 1.3-.5 1.9-.1.7-.2 1.4 0 2.1.1.3.2.7.4 1 .4.9.8 1.8 1.5 2.5.4.4.9.7 1.5.8 1.5.2 1.9-1.4 1-2.4-.3-.4-.7-.7-.8-1.2-.2-1 1.7-.7 1.7-.7zm12.1-2.1c.2.5.2.9.5 1.4 1.4 2.1 3.1 2.1 3.7 1.1.2.5-.1 1-.6 1.2-1.2.5-2.3-.3-3.3-1-.8-.6-.9-2-1.1-2.5-.1-.5-.5-1.5-.8-2 .9.7 1.5 1.4 1.6 1.8z"/><path d="M-50.4 28.7c-.5-.5-.5-1.2-.4-1.9.2.3.5.5.9.5-.3-.4-.5-.8-.2-1.3.1-.3.4-.5.6-.7.3-.4-.3-1.6.3-1.4s.7 1.1.7 1.5c0 .7.6.8.7 1.3s-.5.4-.6 1c-.1.5.1.8 0 1.1-.3.8-1.7.2-2-.1z" fill="#adacac"/><path d="M-50 27.4c-.2-.4-.5-.9-.3-1.3.1-.2.4-.4.5-.6.3-.4.3-.8.3-1.3.1.4.2.8.1 1.1-.1.2-.2.3-.3.4-.5.6-.5 1-.3 1.7.1 0 0 0 0 0zm-.8-.3c0 .6.1 1.2.6 1.6.5.3 1.6.7 1.7-.1.1-.3-.1-.6 0-.9.1-.2.3-.4.5-.5-.2.4-.4.7-.3 1.1 0 .2.1.4 0 .6-.2.3-.5.5-.9.4-.5 0-1-.3-1.3-.6-.4-.5-.4-1.1-.3-1.6z" fill="#838383"/></g></g></g><g id="Outlines_5_"><path d="M-65.3 27.7c4.1 5 11.4 5.1 17.3 5.4 3.5.2 6.9.3 10.4.6 3.6.3 7.3.7 10.9.3 3.5-.4 6.9-1.8 10.4-1.6 2.7.2 5.1 1.4 7.4 2.9 2.7 1.7 5.1 3.5 8.1 4.5 3.4 1.1 7.1 1.5 10.6 1.7 10.1.6 21.4-1.8 30.4-6.5 4.3-2.3 7.6-5.3 9.7-9.8 2-4.4 2.9-9.2 3.2-14 .4-5.6-.5-11.5 1.5-16.9 1.6-4.2 3.9-8.8 9-8.3.4 0 .4.6 0 .6-7.1-.6-8.9 9.4-9.1 14.6-.2 4.5 0 8.9-.8 13.4-.9 4.8-2 9.7-4.7 13.8-2.3 3.5-5.8 5.9-9.6 7.7-8.8 4.2-19.3 6.1-29 5.9-5.8-.1-11.7-1-16.9-3.8-2.7-1.4-5.2-3.5-8.3-4.2-3.9-.9-8.1.4-12 .6-8.2.3-16.5-.3-24.7-.9-5.3-.4-10.8-1.4-14.1-5.9.1-.1.2-.2.3-.1zm19.1-18.4c1.5-1.4 2.8-2.8 3.8-4.6.8-1.5 1.4-2.8 2.7-4 3.1-3 5.5-5.6 7.1-9.7 1.5-4 2.2-8.2 3.2-12.3 1.1-4.5 4.7-10.6 1.7-14.9-.1-.2.2-.3.3-.2 2.5 3.6 1 7.9-.1 11.7-1.5 5.1-2.3 10.5-4.4 15.4-1.5 3.6-3.3 7.2-6.3 9.8-3 2.7-4.2 6.8-7.6 9.1-.4.2-.6-.1-.4-.3z"/><path d="M-37.6 6c1.2-2.5 1.3-5.1 2.1-7.8.7-2.2 1.9-4.3 2.9-6.3h.1c-1 2.5-2.2 5-2.8 7.6-.5 2.3-1.1 4.4-2.2 6.5 0 .1-.2.1-.1 0zm17.4.2c.5-1.9 1.7-3.7 2.1-5.6.4-1.9.1-3.5.7-5.4.4-1.1 1-2.3 1-3.5 0-1.3-.6-2-1-3.1-.4-1.4.1-2.2.3-3.5.3-1.9-.9-3.2-1-4.9-.2-2.8-.2-5.2-.9-7.9-.4-1.7-.7-3.4-.6-5.2 0-2.3.8-6.4-1.9-7.6-.1 0-.1-.3 0-.2 3.2.2 2.5 5.8 2.5 7.8.1 2.9 1.2 5.6 1.6 8.5.1 1.2.1 2.3.1 3.5 0 .6-.1 1.2 0 1.8.1.9.7 1.4.9 2.2.6 1.9-.8 3.6 0 5.6.6 1.6 1.1 2.6.7 4.4-.3.9-.8 1.9-1.1 3-.4 1.2-.4 2.5-.7 3.8-.5 2.3-2 4.1-2.7 6.3.1.1 0 0 0 0z"/><path d="M-26.2-36.3c-2.3.3-4.7.1-6.4-1.6-1.1-1.1-1.7-3.1-.3-4.2 2.9-2.4 12.5-1.9 13.1 2.7 0 .1-.2.2-.2.1-2.2-3.7-7.3-3.9-11-2.9-3 .8-1.7 3.8.3 4.8 1.4.7 3.1 1 4.6 1 0 0 0 .1-.1.1z"/><path d="M-20.1-40.7c2 1.8 5.9.8 7.3 3.4.6 1.2.1 2.4.2 3.7.1 1.8 1.4 2.7 1.5 4.3 0 .5-.1.7-.2 1.2-.4 1.7-.6 2.9-.3 4.7.4 2.1.8 4.1 1.2 6.2.4 2 2 5.7.4 7.6-.1.1-.1 0-.1-.1.8-1.6-.4-4.2-.7-5.9l-.9-4.8c-.3-1.5-.7-3.1-.8-4.6-.1-1.5.3-2.7.3-4.2s-.7-2.3-.9-3.6c-.3-2 1-4-1.6-5.2-2-.9-4.4-.2-5.7-2.4-.1-.2.1-.4.3-.3z"/><path d="M-16.1-11.6c3.3 1.3 6.6 1.2 10 1.8 1.2.2 2.2.6 3.2 1.1 1.9.9 3.3.6 5.3.8 3 .4 5.5 2.4 8.4 3.1 3.5.9 7.2 1.3 10.9 1.2.8 0 .7 1.3-.2 1.2-3.4-.5-6.8-.5-10.1-1.4-3.5-.9-6.5-3.4-10.2-3.4-1.2 0-2.3.1-3.5-.4-1.8-.7-3-1.4-5-1.6-3.2-.3-5.9-.8-8.8-2.2-.1-.1 0-.2 0-.2z"/><path d="M9.6 3.2c4.1-.7 8.9-1.7 11.7-5 2.6-3 3.1-7.5 4.9-11 1.9-3.6 5-6.2 6.4-10 1-2.5 1.5-4.5.1-7.1-.6-1.2-.7-3.1-1.6-4.1-.1-.2 0-.4.2-.3 1.3.8 1.1 2.8 1.9 4.1.9 1.5 1.6 2.6 1.3 4.5-.7 4.5-4.8 8.3-6.9 12.2-2.2 3.9-2.8 9.2-6 12.5-3.1 3.4-7.7 3.8-12 4.2z"/><path d="M31.9-33c-1.3-.6-2.7 0-4-.3-.9-.2-1.6-.8-2.2-1.5-.7-.8-1.7-2.8-.3-3.4.1-.1.3.1.2.2-1.1 1.6 1 3.6 2.4 4.1 1.2.4 2.7 0 3.9.9.1-.1 0 0 0 0z"/><path d="M26.7-35.8c-1.5-1.3-2.1-3.2-.3-4.5 2.1-1.6 6.1-.7 8.5-.2 1.2.2 2.7.6 3.5 1.6.8 1 .7 2.4 1.1 3.6 1 2.8 2.5 5.1 3.2 8.1.5 2.3 1.1 4.6 1.4 7 .3 2.7-1.3 4.1-2.1 6.5-2.1 4.9-1.6 11.1-1 16.3 0 .2-.4.3-.4.1-.7-3.7-.7-7.7-.5-11.5.1-1.8.2-3.6.7-5.3.6-2 2.2-3.4 2.2-5.6.1-3.2-.8-7.3-1.8-10.4-.5-1.6-1.4-2.9-2.1-4.4-.4-1-.4-2.1-.8-3-.9-2.1-3.6-2.4-5.5-2.8-2.4-.5-10.1-.8-6 4.3.2.2 0 .3-.1.2z"/><path d="M45 5.9C42.4.4 40.5-5.5 40.9-11.6c0-.1.1 0 .1 0 .8 6 1.9 11.9 4.2 17.5 0 0-.2.1-.2 0zM28.3-33.5c.3 1.2 1.1 2.3 2.1 3 .9.6 2.1.5 3 1 .1.1 0 .3-.1.3-1.3-.3-2.6-.2-3.8-1.1-1-.8-1.5-1.8-1.5-3.1.1-.2.3-.2.3-.1zm-81.6 58.9c.6.7.9 1.5 1.2 2.4.3.9.5 1.7 1.4 2.2.9.5 2.3 1.1 2.9-.2.3-.7.3-1.5.4-2.2 0-.6-.2-1-.4-1.6-.3-.6-.3-.9.1-1.5-.5 1 .4 1.3.6 2.1.1.6.1 1.4.1 2.1 0 .9-.3 2.5-1.5 2.7-1.1.1-2.7-.7-3.4-1.4-.4-.5-.5-1-.7-1.6-.1-1.2-.2-2-.7-3-.1 0-.1-.1 0 0zm-9.6 4.9c-1.5 0-2 1.9-3.4 2-.8.1-1.6-.6-1.9-1.3-.7-1.7-.5-4.8 1.2-5.9.1-.1.2.1.1.1-.5.8-.9 1.5-1.2 2.4-.2 1.1-.7 3.9 1.1 4 1.6.2 2.4-1.8 4.1-1.5.1.1.1.2 0 .2z"/><path d="M-66.7 26c-.8-1.6-1.3-3.2-1.5-5-.1-.9 0-1.7 0-2.6 0-1.2-.5-2-.6-3.1-.2-1.7.7-2.8 1-4.3.4-2.2-.2-4.2.6-6.4-.6 2.1.2 3.7.1 5.7-.1 1.5-1.3 2.7-1.3 4.2s.6 3.1.6 4.7c0 2.3.4 4.4 1.4 6.6 0 .2-.2.4-.3.2z"/><path d="M-67.5 5.7c.2-1.7 1.7-6.7 4.1-5.8.4.1.6.6 1 .8.7.3 1.3.2 2.1.2.8-.1 1.6-.3 2.4-.1 2.2.5 3.5 3 4.6 4.7 0 0 0 .1-.1 0-1.7-2.6-3.6-4.7-6.9-4.2-.6.1-1.4.4-2.1.2-1.4-.4-1.4-2.2-3-.4-1 1.3-1.6 3.2-2.1 4.6z"/><path d="M-64.1.1c2.7-1 6.9-1.1 9.2.9 1.2 1 2 2.4 2.6 3.8.8 1.7.8 3.8 1.8 5.3 0 .1-.1.1-.1.1-1.5-2-1.5-4.8-2.9-6.9-2.2-3.5-6.8-4-10.6-3-.1.1-.1-.1 0-.2z"/><path d="M-52.2 5.4c.8 1 1.5 1.4 2.7 1.9l2.1.9c1.6.8 2.1 2.1 2.8 3.7 0 .1-.1.1-.1.1-.6-.9-1-1.9-1.9-2.6-.8-.7-1.8-1.1-2.8-1.4-1.5-.5-2.2-1-2.8-2.6-.1 0 0-.1 0 0zm95.8 10.4c2.1-12.8.8-33.9 18-36.4 3-.4 7-1 9.1 1.8 1.7 2.3 1.6 5.3-.1 7.6-1.2 1.6-3.9 3.7-6 2.6-.8-.4-1.3-1.3-1.6-2.1-.4-1.2.7-2.9.1-3.9-.1-.1.1-.3.2-.1.3.4.3.8.3 1.3 0 2-.2 4.8 3 4.1 3.7-.7 5.8-5.6 3.9-8.7-2-3.3-7.4-2.4-10.5-1.6-3 .7-5.4 2.3-7.5 4.6-7.6 8.4-6.5 20.5-8.7 30.8 0 .1-.2.1-.2 0zm-102.1-.9c.7-.4 1.7-.3 2 .5.2.4.2.9.2 1.3 0 .3-.1.3-.4.3-.5 0-1.1-.1-1.6-.3-.4-.1-.9-.2-1.2-.6-.3-.5.4-1.2 1-1.2 0 .1.1.1 0 0-.1.4-.7.8-.4 1.1.3.3 1.2.5 1.7.6.3.1.7.2.7-.1.1-.2 0-.6-.1-.8-.2-.8-1.1-1.1-1.8-.8-.1.2-.2.1-.1 0zm-9 4.6c.1-3.2 1.7-5.9 1.1-9.3.3 1.6.4 3.5-.1 5.1-.5 1.4-.8 2.6-1 4.2z"/><path d="M-66.7 15.3c-.5.3-1.4.2-1.3-.5.1-.4.3-.8.5-1.1.1-.2.3-.3.5-.4.2-.1.3 0 .5-.1.1 0 .1.2 0 .2-.2.1-.4.3-.6.4-.3.2-.4.5-.6.8 0 0-.1.2-.1.3 0 .1 0 0 .1.1.2.2.6.1.9.1.2 0 .2.2.1.2zm37-54c-1.2 0-2.1-1.7-2.2-2.7-.1-1.2 1.3-2.2 2.5-1.9.2.1.2.3.1.4-.9.6-2.1.4-1.7 1.9.2 1 .6 1.7 1.3 2.3.1 0 .1 0 0 0z"/></g></symbol><use xlink:href="#Jaguar" width="152.5" height="95.8" x="-76.2" y="-47.9" transform="matrix(10.0471 0 0 -10.0471 727.475 477.425)" overflow="visible"/></svg>