<svg version="1.1" id="Layer_1" xmlns="http://www.w3.org/2000/svg" xmlns:xlink="http://www.w3.org/1999/xlink" x="0" y="0" viewBox="0 0 1478.4 1400" xml:space="preserve"><style>.st1{clip-path:url(#SVGID_5_)}.st2{fill:#952715}.st3{fill:#f4a08b}.st5{fill:#f9b233}.st6{fill:#1d1d1b}</style><symbol id="Octopus" viewBox="-147.5 -139.8 295 279.5"><g id="Colours_7_"><defs><path id="SVGID_2_" d="M142.3-55.7c-2 3.9-7.2 4.7-11.6 4.2-7.7-.8-15.1-4-20.9-9-3.9-3.4-7.1-7.5-10.7-11.3-3.6-3.7-7.8-7.2-12.8-8.6l-.5.1c-1.2 0-2.5.1-3.7.4-10 1.8-18.6 9.7-21 19.6l-.3 2c5.4 1.4 12.2-.3 19.7 6 4.8 4 5 11.4 4.5 17.7-1 13.5-6.8 26.5-16.1 36.3-2.4 2.6-4.9 4.8-7.4 6.8h-.3c-1.6 6.4-1 13.2-.1 19.7 1.3 9.7 3.3 19.3 6 28.7 1.5 5.4 3.3 10.6 2.3 16.1-.4 2.3-1.4 5-3.2 6.4-1.9 1.4-4.4 1.7-6.6.9-2.2-.8-7.7-4.8-6.9-9.5.6-3.5 3.4-7.7 4.6-6.8 1 .8 1 2.7.7 3.9-1.7 5.6 1.8 6.1 3.4 5.8 1.6-.3 2.1-2.9 2.4-4.5.3-1.6-.7-3.8-1.2-5.3-1.7-5.7-4.3-11-6.4-16.5-3.8-10-6-20.6-6.5-31.3v-.7c-3.8 1.6-8 2.7-12.6 3.5v.3c.5 2.6-.1 5.4-1.6 7.5-1.5 2.2-3.9 3.7-6.5 4.2-1.5.3-3 .2-4.5-.1v.2c1.4 14.4 3.6 28.7 8.2 42.4s11.5 26.7 21.4 37.2c2.1 2.2 4.3 4.2 5.9 6.7 1.6 2.5 2.7 5.5 2.2 8.5-.1.8-.4 1.7-.7 2.5-.1.2-.1.5-.2.6l-.2.4c-3.1 5.9-9.7 4-9.2 2.3.7-2.7 7-4.5 5.2-9.7-1.1-3.1-4.6-5.9-7.3-7.8-10.9-8-21.9-16.8-28-28.9C13 68 15.3 46.6 6.4 29.4V29c-4-.7-7.2-4.2-8.4-8.1-.5-1.7-.9-6-.9-6 .2-3.2-3.7-6-6.9-6.8s-6.5.3-9.2 2-5.1 4-7.5 6.1c-8.6 7.3-19 12.3-29.9 15.5-6.1 1.8-12.8 3-19.9 4.1 1.1 7.7-4.3 10.6-6.3 10.6-3.7.1-7.2-2-9.5-3.8-1.4-1.1-3.9-3.7-3.9-3.7-2.7.8-5.3 1.9-7.8 3.3-1.6.9-3.1 2-3.9 3.6-.6 1.3-.5 2.8-.3 4.2.4 2.4 1.4 4.7 2.9 6.6 4.2 5.6 9 8.2 14.9 12 .2.1 6.4 2.7 7.9.1.9-1.5.5-3.3-.9-3.5-2.4-.3-4.5-1.1-4.3-2.1.4-1.7 4.6-3.2 7-2.1 8.2 3.8 1.3 13.5-2 13.4-3.6-.1-7.9-.1-9.5-1-6.5-3.6-12.7-7-17.7-12.4-2.5-2.7-3.9-6.1-4.7-9.7-.9-4-1.2-8.1-.1-12.1 1.1-3.9 3.7-7.5 7.4-9.2l.3-.3c-9.5-8.8-18.3-18.4-26.4-28.4-4.2-5.1-8.3-10.8-8.7-17.4-.4-6.2 2.8-12.1 7.2-16.4s10.1-7 15.9-9.2c11.1-4.2 22.8-6.7 34.6-7.4l1.3-.2c-5.5-7.3-4.4-16.7.9-20.7 2.8-2 6.4-2.6 9.9-2.7 12.9-.5 25.9 3.5 36.2 11.2 4 3 7.6 6.5 11.9 9.1 4.3 2.6 9.4 4.3 14.3 3.1 1.2-.6 1.7-.9 2.5-1.8 5-9.9 4.4-21.7 3.1-32.7-1.4-11-3.4-22.3-1-33.2 1.7-7.5 6.5-15.3 14.2-16.5 6.8-1 13 3.5 18.4 7.7 3.4 2.7 6.9 5.4 10.3 8.1 3.2 2.5 6.4 5 8.6 8.3s2.8 7 1.6 10.8c-1.1 3.5-3.9 6-7.5 6.5s-7.1-2-8.7-5.3c-1.3-2.9-.8-5.1 1.3-7.5 1-1.2 4.4-2.7 7.5-2.4-3.5-2.5-11.6-7.2-15.9-7.9-4.3-.7-9.3 1.2-10.7 5.3-.9 2.6-.1 5.6.7 8.2 1.5 5 3.3 9.9 5.3 14.7 2.3 5.5 5.5 11.5 11.2 13.3 1.7.5 3.4.6 5.1.4 0 0 3.8-6.6 6-10.1.4-.3 18.5-32.1 42.1-33.2 21-1 37.5 6.3 42.8 12.8 3.3 4.1 4.1 9.9 2.7 14.9-1.1 3.9-3.6 7.5-7.3 9-3.7 1.5-8.6-.1-10.8-3.5-1.9-2.9-1.3-6.5 1.3-8.8s8.7-3.2 11.1.6l.3.1c.4-2.3 0-4.5-.9-5.9-1.9-2.6-5.8-3.1-9-3.5-10.1-1.4-22.4.1-31.8 5.9 5.7-.4 12.6 2.3 17.7 7.1 5.1 4.7 8.9 10.8 13.2 16.3 4.3 5.5 9.5 10.7 16.2 12.8l.6.1c-2.4-2-1.2-7.3 1.6-8.7s6.4-.2 8.6 2.1c2.1 2.7 3.2 6.6 1.6 9.6zM-82 37.4l.2-.8c-3.5.5-7 1.1-7 1.1 3.5 3.2 5.9 2.7 6.8-.3zm26.9-90.2c-2.7-.2-6.7.5-7.9 3.8l16 2.3c-1-.6-8.1-6.1-8.1-6.1zm-5.2 21.7c-14.7.7-28.9 1.6-43.2 5.3-4.2 1.1-8.4 2.4-11.9 4.8-3.6 2.4-6.5 6.1-7 10.4-.7 5.6 2.6 10.9 5.9 15.5 6 8.5 10.9 13.8 17.6 21.9 9.1-2.3 15.8-3.2 25-5.3 9.2-2.1 18.4-4.9 26.3-10C-39.7 6.4-33-1.2-30.5-10.3l.3-.7c-9.7-6.5-30.1-20.1-30.1-20.1zm100.2-70.3c-.9-1.1-2.7-1.3-3.7-.3s-.9 2.8.2 3.7c1.6 1.3 3.5 1.1 4.1-.2l.4-.4c-.3-1-.4-2-1-2.8zM118-90.1c-1.4.5-2.2 2.2-1.8 3.7.3 1.2.8 1.8 2 2.1 2.3-.5 3.9-1.9 4.9-3.7-.5-1.9-3.6-2.6-5.1-2.1zm16.1 26c-.4 1.1-.9 4 1.4 5.3l.3-.1c.9-.7 1.5-1.6 1.5-2.7.1-1.6-1.7-3.2-3.2-2.5z"/></defs><clipPath id="SVGID_5_"><use xlink:href="#SVGID_2_" overflow="visible"/></clipPath><path id="Base_12_" clip-path="url(#SVGID_5_)" fill="#e94e1b" d="M-147.5-139.8h295v279.5h-295z"/><g id="Oranges_1_" class="st1"><g id="Darks_1_"><path class="st2" d="M1.9 13.7c1 1 2.4 1.5 3 2.7.9 1.8 1.5 5.3 1.2 6.6-.4 1.4 1.3 1.3 2.6.4 1.1-.8 1.8-2.2 2.6-2.4 1-.2 2.1.3 3.1.3 2 0 3.8-1.7 4.2-3.6s-.3-4-1.5-5.6c-1.6-2.1-3.9-3.4-6-4.9C9 5.5 7 3.6 6.5 1.1c.1.8-3.9 2.3-4.5 2.5-1.2.3-4.6-.3-5.4.2-2 1.6 4.1 8.6 5.3 9.9zM30.2 21c-.3.2-.6.6-.6 1 0 .8.9 1.1 1.6 1.4 1.4.6 2.4 1.9 2.8 3.3.1.3.3.8.6.7.2 0 .3-.3.4-.4.5-1.1.9-2.1 1.3-3.2.3-.8.6-1.6.6-2.4 0-.8-.3-1.7-1-2.1-1.1-.8-4.8.9-5.7 1.7zm-16 7.4c4.4 9.1 7.8 18.7 10 28.6.7-2.8.3-5.8-.2-8.7-.6-4-1.3-8-1.9-12-.3-1.9-.8-4.7-1.6-6.4-3.6-1.7-3.8-4-6.3-1.5zm-16-119.9C-.3-78.3 4.5-76.3 5-68 4-61 .6-53.5-7-50c2.4-11 0-22.3-2.1-33.3s-3.9-22.6-.6-33.3c.6-1.8 8.9-18.9 17.2-13.4-7.5 1-10.8 25.2-9.3 38.5zm-50.3 32.4c-2.3-.8-4.7-1.6-7.2-1.7-2.5-.1-5.1.5-6.8 2.2-1.9 1.9-2.6 5-1.8 7.6s2.8 4.8 5.2 6c-5.3-3.2-10.8-6.6-14.1-12-3.2-5.3-3.3-13.1 1.5-17.1 2.7-2.2 6.2-2.8 9.7-3.2 7.4-.8 15.3-.6 21.7 3.1 5.8 3.3 9.7 9.1 14.3 14 2 2.1 13.6 7.4 14.6 9.9 1.7 4.1-9.5.6-11.5-.1-8.5-2.8-17-5.8-25.6-8.7z"/><path class="st2" d="M133-83.4c-2.7 3.4-7 6.1-11.2 5.1 3.1-3.4 5.4-7.8 5.9-12.4.5-4.6-1-9.6-4.4-12.8-3-2.9-7.1-4.2-11-5.5-8.5-2.7-17.5-5.4-26.1-3.2-16.7 4.1-27.1 18.2-31.6 28.4-3.8 8.5-3.9 17-2.3 18.3 2.8 2.3 15.6-10.6 19.7-13.6 6.9-5 15-9.8 23.4-8.3 6.4 1.1 11.6 5.7 16.1 10.3 5.2 5.3 10 11 14.4 17.1-11.1-2.2-18.3-13.3-28.7-17.8-6.9-3-15.2-2.7-21.9.7-5 2.5-9.1 6.8-11.6 11.9-1 2-2.4 4.4-3.6 6.3-4.3-1.2-13.3-4.8-25.3-.5C22.3-55 15.1-40.9 11.3-31.3 9-25.5 8-19.4 6.3-13.5 4.1-6-1.4-17.4-2-20.8c-.7-3.6.9-5.5 1.1-9.2.1-1.8.2-3.6 1.2-5.1 1.4-2.1 4-3 6.1-4.5C9.5-42 11.1-46 11.9-50c4.2-19.6-16.4-66 3.4-69.1-7 8.1-1.9 19.6-1.3 26.3.7 8.2-.6 18.9 1.2 26.9.3 1.5.9 3.1 2.3 3.9 1.6.9 3.7.3 4.9-1 1.3-1.3 1.9-3.1 2.3-4.8.6-2.6 1.6-6.1 4.3-6.2.9-.1 1.7.3 2.6.6 1.6.5 3.4.6 5.1.5-.6-1.5-.3-3.9 1.1-6.4 2.2-4.2 4.5-8.3 7-12.3 4.9-7.9 10.6-15.4 18.2-20.9 14.1-10.1 32.8-11.8 49.9-8.6 6.3 1.2 12.8 3.2 17.6 7.4 4.2 3.7 6.8 9 7.3 14.5s-1.4 11.4-4.8 15.8z"/><path class="st3" d="M-119.6.8c-5.4-4.5-6.8-12-4-18.3 2.5-5.5 7.3-8.8 13-10.4 6.5-1.9 14.1-3 20.9-3.8 8.6-1 17.6-1.8 26.2-1.6.8 0 1 1.3.2 1.5-16.5 3.2-70.1 1.3-55.9 32.4.2.1-.1.4-.4.2zM2.2 26.2c3 .8 5.8 1.2 9 .5 2.4-.5 4.8-1.3 7.2-1.6.6-.1.6.6.3.9-4.4 3.2-12.6 5.3-16.5.3-.1 0 0-.1 0-.1zM19 27.8c7.6 3.3 16.2 0 17.5-8.7.1-.4.7-.3.7.1 0 9.4-11.1 15.8-18.5 8.8 0 0 .2-.2.3-.2z"/><path class="st2" d="M7.5 29.3c7.9 14.7 8.2 32.6 13.8 48.2 3.1 8.7 7.6 16.6 14.1 23.3 6.4 6.6 13.8 12.4 20.7 18.6.2.2-.1.6-.3.4C41.9 109.3 27.1 99.6 20.2 83c-3.4-8.2-5-17.1-6.5-25.8-1.7-9.4-3.9-18.6-6.5-27.8-.1-.2.2-.3.3-.1zM-28.4-9.2c-1.5 6.4-4.8 11.9-8.9 17-3.9 4.8-9.4 7.7-14.9 10.3-7 3.3-15.1 4.5-22.6 6.2-7.8 1.7-16.1 4-24.1 4.1-.9 0-1.1-1.3-.2-1.5 6.8-1.9 14.1-2.6 21-4.1 6.9-1.5 13.9-3.2 20.6-5.5 12.9-4.5 22.3-14 27.1-26.9.4-1.5 2.3-1 2 .4zM60 10.2c1 4.7.9 9.6 1.2 14.4.4 5.9 1.1 11.7 2.3 17.5 1.8 9 4.1 18.3 4.6 27.5.2 3.9-1.1 11.8-6.4 11.7-3.4-.1-9.2-5-7.3-8.7.3-.6 1.1-.3 1.2.3.3 3 4.5 7.7 7.8 5.5 2.2-1.5 2.6-6.5 2.4-8.9-.4-6.6-3.4-13-4.7-19.5-2.5-12.1-6.2-28-1.6-40 .1 0 .4 0 .5.2z"/><path class="st2" d="M-81-38.9c-9.5 1.9-18.5 4.6-27.5 8.2-7.6 3-14.4 6.9-16.5 15.4-3.1 12.1 7.7 21.4 14.6 29.8 3.7 4.5 7.6 9 11.4 13.5 2 2.4 3.9 4.8 6 7.1.6.7 1.3 1.5 2 2.1 1.1 1.2 2.4 1.9 4 2.2 3.1 1.6 5-.1 5.8-5.2-.4-.8.9-1.6 1.3-.7 1.5 3.3 0 6.8-3.6 7.8-5.6 1.6-9.9-3.7-13.3-7.2-6.2-6.7-12.5-13.4-18.7-20-4.8-5.1-10-10.5-12.6-17.1-4.1-10.5.9-22.5 10.6-27.9 10.9-6.1 24.2-7.3 36.4-8.4.3-.1.3.3.1.4z"/><path class="st2" d="M-131.5 5.5c-4.5-5.5-9.9-11.1-10.9-18.4-1-7.6 2.6-15.1 8.1-20.3 6-5.8 14.1-8.7 21.9-11.2 8.8-2.9 18.5-5.1 27.7-5.9.8-.1.9 1.2.2 1.3-14.6 2.9-29.7 6.1-42.2 14.7-6.4 4.4-11.9 11-12 19.1-.1 7.4 3.9 14.3 8 20.2.2.4-.5.9-.8.5zm26 26.3c-7.7 8.3-6.8 22 .2 30.5 3 3.6 7 6.6 11.2 8.6 3.3 1.6 7.5 2.8 11.1 1.6 4.7-1.5 6.7-6.5 3.9-10.7-.4-.6.5-1.3 1-.8 4.1 4 1.7 10.3-3 12.6-6.8 3.4-15.6-.9-21-5.1-11.5-8.7-16.7-27.3-4-37.3.5-.2.9.2.6.6zM-47-33.1c2.2-1 3.9-1.7 3.8-4.6-.1-2.8-2.3-5.5-3.5-7.9 0-.1 0-.1.1-.1 1.7.8 3.3 2.3 4.4 3.8 1.3 1.8 3.1 3.8 3 6.2-.3 4.3-4.7 4.9-7.7 2.8-.2 0-.2-.1-.1-.2z"/><path class="st2" d="M-63-48.7c3.9-.7 8.8.6 12.6 1.5 3.1.7 5.7 2.3 6.2 5.7 0 .2-.2.3-.3.1-3.9-5.8-13.2-3.6-18.6-7 0-.1 0-.3.1-.3zm98.3-69.9c7.6 5.3 17.3 14.1 9.9 23.8-5 6.6-16 2.6-14.9-5.9.1-.4.8-.7.9-.1 1.8 11.1 16.4 8.5 14.6-2.4-1-6.2-6.2-11.1-10.8-15-.2-.2.1-.6.3-.4zM26.9 58c.8 9.8 3.8 19.8 8.4 28.4 4.5 8.6 10.6 15.4 17.1 22.5.3.4-.1 1-.6.7C34.6 99.1 26.2 77.4 26.6 58c0-.2.2-.2.3 0zm-58.8-45.5c4-5.3 7.5-11 11.6-16.3.7-.9 2-.2 1.5.9-2.8 6.2-7.5 11.3-12.6 15.7-.3.3-.7 0-.5-.3z"/><path class="st2" d="M-6-24.5c-.4 4.3-7.3 7.4-8.7 11.4-.4 1.1-1 2.5-1.3 3.3-.4-.3-1.2-.6-1.3-.7-2.2-4.2-3.6-6.4-7.7-9.3-4-2.8-6.6-4.2-11.6-4.6l-1-.9c9.7-.7 17.2 1.1 20.8 7 .7 1.2 1.8 1.4 2.8.5 5-4.2.9-8.8-2.1-10.4-2.2-1.2-4.2-2.6-6.4-3.8-9.9-5.4-15.9-16.3-26.9-20-.2-.1-.1-.3.1-.3 5.6 1.6 10.3 5.3 14.9 8.8 3 2.4 5.9 5 9.1 7 3.4 2.1 6.6 3 10.4 3.9 4.2 1.2 9.3 2.6 8.9 8.1z"/><path class="st2" d="M-70.1-51.5c12.9 12.8 27.5 24.4 42.5 34.6 6.9 4.6 13.9 9.8 21.3 13.5C-3.6-2 3.9 1.3 3.9-5.8c0-2.3-3.1-5-4.9-5.9-3.1-1.6-8.9-1.7-9.3 2.9-.1.7-1 .8-1.2.2-2.5-6.9 9.2-6.5 12.7-4.4C4.5-11.1 8-7.6 7-3.5 5.9.8 1.4 2-2.4 1-8.6-.6-14.2-5.1-19.5-8.5c-6.4-4-12.6-8.2-18.7-12.5-5.7-4-11.9-7.9-16.8-12.8-5.5-5.5-10.8-10.9-15.6-17.1-.5-.4.1-1 .5-.6z"/><path class="st2" d="M86.5-25.7c0 1.3-6 16.3-15.4 26.8.3.4-27.7 18-31.1 15.6 9.4-3.2 22.2-14 21.8-14.7-1.3-2-7.8 4.5-12.6 6.3-2.6 1-6 1.6-8.7 1.9-3.4.4-13.4-2.1-13.6 4 0 .2-.4.3-.4.1-2-8.5 11.4-6.7 16-7.9 5.1-1.3 11.4-7.9 16.3-9.6 3.2-1.1 4.1.1 6.7-1.1 3.8-1.7 6.6-6.1 8.9-9.9.9-1.5 2.3-3.9-1.7-1.5-3.4 2.1-16.3 18.9-15.4-3.9 0 0-.6 1.1-1 1.8-.9 1.7-1.3 4.8-2.6 6.2-2.5 2.7-6.1 3.7-10 3-5.2-1-7.3-4.6-7.4-10.5 0-.4.9-.5.9 0 .1 3.4 4.3 9.4 8.8 7.4 3.2-1.4 5.7-4.3 6.3-7.3 1.2-5.3 4.5-9.7 7.6-7.1 2.4 2.1 2.8 6.8 3.2 9 1.3 7.4 26.1-14 16.2-33.1-.5-.9-2.4-2.3-3-1.3-.3.5 2.6 5.1 2.7 9.8.1 5.1-2.6 10.2-5.2 12.4-3.2 2.7-6.7 1.5-8.3-2.1-2.7-6.2-4.8-18.7-7.4-21.9-1.1-1.3-5.9-3.2-6.1-1.9-.2 1 1.7 2.5 1.5 3.9-.4 2.9-2.6 4.4-5.4 4.8-3.3.5-4.7-.1-9.8 2.9s-10.3 9.3-11.1 11c-1.6 3.2-.1 2.8 1.9 1.3 2.7-1.9 5-4 7.8-5.8 3.4-2.1 8.9-4.7 12.1-.9 4.3 5-3.4 10.2-3.6 15.1 0 .4-.6.7-.8.2-.8-1.7-.8-2.7 0-4.6.3-.8.8-1.4 1.2-2.2.7-.9 3-5.5-.1-6.4s-8.6 4.6-10.4 6.2c-1.8 1.5-3.2 3.5-5.1 4.9-2.7 1.9-6.9 2.3-8.9-.8-2.5-3.7.7-8.5 2.9-11.4 3-4 7.2-7.6 11.7-9.8 2.2-1 11.2-3.3 11.9-5.2.4-1.1-.5-3.8-5.4-3s-12.5 5.6-17.6 10c-4.5 4.9-8.5 11-11.1 18-2.5 6.8 4.8 17.5 6 16.2 1.2-1.2.4-3.5 2.2-4.9 1.3-1 3-1.3 4.4-.5 1.6.8 2 2.5 2.3 4.1.3 1.4.2 2.8.5 4.2 1.3 5.4 4.7 6.6 9.7 7 .7 0 .9 1.1.2 1.2-4.4.8-8.2-.9-11.3-4C26.4-5.1 25-6 24.2-7.6c0 .1-.1.1-.1.2-1.4 3-4.9 3.7-7.5 1.8-1.6-1.2-1.2-1-2.6-4.4s-4.4-3.2-5.5-.1c-1 1.4-.4 4.4-2 4.1 0 0-1 2.2-2-4s7.9-25.7 11.7-32.7c4-7 10-11.8 17-15.7 10.9-6 23.9-1 36.2 1.1 16.2 2.6 17.3 11.8 17.1 31.6zM64.1-53.6c-2-.8-.2 7.7 1 10.9.8 2.2 2.6 13.1 7.6 9.1 2.7-2.2 2.7-8.2 2.1-11.3-.5-2.8-2.2-7.6-3.8-7.8-1.7 0-4.6 0-6.9-.9z"/></g><g id="Highlights_1_"><path class="st3" d="M-47.8-52c7.2.6 13.6 4 20.6 5.4 7 1.3 16.1.4 22.3-3.4 7.8-4.8 11-15.1 11.3-23.7.4-9.6-.8-19.4-.2-29 0-.2.3-.3.3 0 2.5 10.2 2.6 22 2.6 32.5 0 8.8-1.7 18.5-9.9 23.4-7.1 4.2-15 3.5-22.8 2.5-8.3-1-16.8-3.7-24.3-7.2-.2-.1-.1-.5.1-.5zm-59.9 105.8c-2.9-6.6 2-16.5 10.1-15.4.4.1.5.7.1.9-2.5 1.1-5.2 1.3-7.4 3.1-3.4 2.8-3.6 7.3-2.7 11.3 0 .2-.1.2-.1.1zM25.7-75c-5.4-5.6-8.9-12-11.9-19.1-2.5-5.8-6-13-3.1-19.4 5.8-12.3 22.4-2.4 27.9 4.6.1.2 0 .5-.2.3-3.9-2.8-7.9-6-12.6-6.9-2.3-.5-6-.6-8.3.2-3.9 1.3-4.9 5.5-4.5 9.1.5 5 2.9 10.1 4.7 14.7 2.2 5.5 4.8 11.2 8.5 15.9.2.5-.2 1-.5.6zm64.6-4.4c10.2-.1 13.6 9.5 19.6 15.7 4 4.1 9 7.1 14.4 8.8 2.6.8 5.4 1.6 8.1 1.6 5.2-.1 10.8-3.8 8-9.5-.1-.3.2-.6.5-.4 3 2.7 1.8 7.1-1.1 9.4-4 3.2-10.5 2.1-15.1.8-6.3-1.7-12.1-5.3-16.7-10-5.5-5.7-10.3-12.8-17.8-16.1-.4.2-.2-.3.1-.3zM24.1 31.2c.5 9.3 1.1 18 3.2 27.2 2.1 8.8 5 17.6 8.9 25.8 4 8.4 8.2 16.4 13.9 23.7 4.5 5.7 10.8 10.8 12.3 18.2.1.4-.5.5-.6.2-2.3-9.2-11-15.5-16.6-22.8-5.4-7-10.1-14.1-13.7-22.2-3.3-7.6-5.8-15.5-7.1-23.7-1.4-8.4-2.3-17.8-1.2-26.3.2-.6.9-.6.9-.1zm33 34.2c-7.7 5.2 6.1 20.3 9.8 9.2 1.8-5.5-.1-12.1-1.3-17.6-2.1-9.6-4.9-19.1-4.9-28.9 0-.7 1-.7 1 0 .4 10 3.1 19.7 5.3 29.5 1.5 6.7 4.2 14.9-.3 21.1-7 9.7-20.8-8.4-10.1-14.2.6-.3 1.1.5.5.9zm-111.3-118C-47-50-37.7-45.3-35.8-37c1.3 5.5-4.6 11.2-9 6-.2-.2.1-.5.3-.3 1.4 1.3 3.9.7 4.9-.8 1.1-1.6.9-3.9.4-5.6-.7-2.3-2.5-4.3-4.2-6-3.3-3.3-7.1-6-10.9-8.6-.2-.1-.1-.4.1-.3zm-36 88.7c1.3 0 6.8-.6 8.3-.9.3-.1-.1 1.3-.4 1.4-1.1.5-6.2.9-6.1.8l-1.8-1.3zm86.8-23.5c-8.2-11.6-19.8.1-26.5 6.1-10.4 9.3-38.9 16.5-46.4 17.2l-.4-1.3c12.8-1.3 25.7-6.2 35.6-14.5 4.1-3.5 8.2-7.8 10.9-12.4 2.4-4.1 5.3-11 6.2-14.6 1.5 1.1 4 2.8 4 2.8-1.7 4.8-4.9 9.1-7.4 13-3.4 5.1-8.3 8.9-7.5 9.9.9 1.2 9-6.6 14-11.3 2.9-2.7 7.1-5.3 11.3-4.1 3.5 1 7.2 6.5 7.3 10.1-.1.2-.9-.6-1.1-.9zm-26-31.6c-2.4-1.6-5.1-3.8-7.5-5.4-.2-.1-.1-.4.1-.3 3.6.8 6 1.1 9.4 2.6 3 1.4 5.9 3 8.1 5.6 2.1 2.5 2.1 3.4 1.6 5.8.1-.1-9.7-7-11.7-8.3zm62.8 37.6C63.7 12 88.9-17.1 83.4-49c0-.2.3-.3.3-.1 2.5 16.2-.8 32.9-10.9 46.2-9.5 12.5-24 19.7-39.2 21.8-.3.1-.4-.3-.2-.3zM69.9-78c-2.6 2.3-5.4 4.5-7.5 7.3-.8 1.1-2.4.7-2.5-.7-.6-5.8 4.1-11.6 7.9-15.7 4.6-5.1 10-9.6 16.4-12.4 6.5-2.9 13.9-4 21-3.8 5.9.2 13.2.4 17.6 4.9.2.2-.1.6-.3.4-11.3-6.5-26.3-3.6-37.3 1.8-9.7 4.7-21.2 13.5-22.5 25-.7-.4-1.4-.8-2-1.2 3.3-1.4 6.1-3.7 9.1-5.8.1-.3.3 0 .1.2zM28.1-15.1c1 1.4 1.1 2.9 1.3 4.5.8 5.6 2.6 9.7 9 9.4.3 0 .3.4.1.5-4.2 1-8.6-1.7-9.8-5.9-.7-2.6-1-8.6-4.1-8.3-.7.1-2.3 1.2-3.7 3.2-.8 1.1-1.7 1.5-2.9 1.3-3.9-.8-4.9-8.2-5-11.4-.1-6.9 5-16.3 11.6-23-7.1 8.8-10.5 17-10.2 23 .1 1.8.4 3.6.9 5.2.3.8 1.3 2.7 3 2.7s3.4-2.4 4.6-3c1.8-1 4 .1 5.2 1.8z"/><path class="st3" d="M70.8-27.1c-5.5.4-7.3-4.7-8.5-9.1-2-7.1-1.3-17.7-10.3-19.3-.2 0-.2-.5.1-.4 8.3.9 8.9 8.1 10.5 15 .5 2.3 1.1 4.6 1.9 6.8 2.5 6.4 9.2 6.8 12.5.8 2.7-5.1 1.3-12.6-.9-17.7 0-.1.1-.1.1-.1 3.5 6.8 6.3 23.2-5.4 24zM53.6-51.3c-.2 2.2-1.1 3.3-3.1 4.3-3.8 1.8-8 2.3-11.8 4.3-2 1.1-4.1 2.5-5.8 4.1-1.3 1.2-4.5 3.8-4.6 5.5-.2 2.9 3.4-.8 4.4-1.6 1.6-1.3 3.4-2.4 5.2-3.4.3-.1.5.2.2.4-3 2-5.2 4.6-7.9 7.1-.8.7-1.5 1.8-2.7 1.9-3.5.1-2.2-3.9-1.3-5.3 2.4-4 5.8-7.4 9.9-9.6 1.8-1 4.5-1.9 6.4-2.3 3.3-.7 9.8-.2 10.4-5.3.2-.4.7-.5.7-.1zm6.5 44c-3.7-.9-2.9-4.9-3.8-5.2s-4.9 5.8-12.1 4.8c-5.9-.8-8.2-6.1-8.1-11.6 0-.2.3-.2.3 0 .2 5.6 2.9 10.6 8.9 10.7 6.1.1 9.8-4.7 11.1-10.2.2-.9 1.5-.7 1.5.2.1 3.4-.7 11.8 5.5 10 2-.6 4.3-3.1 6.6-4.9 1.8-1.4 3.8-3.3 5.5-3.8.3-.1.5.3.3.4-1.1.7-3.3 2.1-5 3.6-4 3.4-7.8 6.8-10.7 6zM45.2 9.2c6.7-.9 8.4-5 13.3-7 1.9-.8 5.2-1.7 5.4 1.1 0 .2-1 2.3-1.2 2.4-1.2 1-1.3 1.3-2.5 2.3-.2.2-1.2-1-1-1.3 1-1.2 2.1-3 0-3.1-1-.1-9.3 6.5-14.3 6.9-7.8.6-17-1.1-18 3.8 0 .1-.2.1-.2 0C27.3 7.2 39 10 45.2 9.2z"/></g></g><path id="Eye_1_" d="M4.1 21c0 3-1.3 5.8-3.8 5.8s-4.5-2.5-4.5-5.5 2-5.5 4.5-5.5S4.1 18 4.1 21z" clip-path="url(#SVGID_5_)" fill="#ffed00"/><g id="Suckers_1_" class="st1"><path class="st5" d="M-80.2-68.9c-6.8 9 2.9 18.8 9.5 24.2 8.1 6.6 16.6 12.9 25 19 7.9 5.8 16.1 11.3 24.5 16.4C-16-6.1 1.2 7 5.7-2.8c.3-.5 1.2-.3 1.1.3C5.8 6.2-6.1 2.8-11 .1-23.2-6.6-35.1-14.3-46.8-22-57.7-29.1-69.9-36.4-79-45.8c-6.6-6.8-9.7-16.7-2.4-24 .6-.6 1.7.2 1.2.9zm3.1 105.2c1.6 4-.1 7.9-4.3 9.2-4.9 1.6-9.8-1.3-13.3-4.3-12.6-10.8-24.2-22.8-34.8-35.6-7.9-9.6-17.2-22.3-8.2-34.3 7.6-10.2 22.8-16.8 35.2-17.9.5 0 .6.8.1.9-10.6 2.7-21.3 6.6-29.4 14.5-10.4 10.2-4.8 22.4 3.2 32 6.8 8.2 14.2 16.1 21.7 23.7 3.9 3.9 7.7 7.9 11.4 12 1.7 2 3.7 4 6 5.4 1.1.7 2.5 1.5 3.8 1.7 3.8.8 9.3-2.6 7.8-7.1-.3-.6.6-.8.8-.2zM-3.7-72c-3.6-12.9-5.6-27-3.8-40.5 1.3-9.8 5.8-18.8 16.4-20.6 11.1-1.8 19.3 6.5 26.5 13.6 4.1 4.1 9.2 7.2 11.7 12.7 2 4.5 1.7 10.6-2.7 13.6-.4.3-.7-.3-.5-.6 9.5-11.6-6.2-20.1-13.6-27-6.5-6-17.6-13.4-26.6-7.6-7.1 4.5-8 17.4-8.4 24.8-.4 10.5.6 21.2 1.4 31.6 0 .2-.3.2-.4 0zm49.5-18.4c8.6-10.3 17.1-20.9 30.5-25.2 12.2-3.9 28-1.9 39.3 3.9 8.9 4.6 18.4 12 15.2 23.4-2.2 7.7-13.4 13.8-19.6 6.4-.5-.6.1-1.5.8-1.1 5 3.3 11.4 3.4 14.9-2.2 2.9-4.7 2.1-10.7-.5-15.3-5.5-9.5-16.5-11.2-26.5-12.7-11.5-1.7-21.3-.4-31.5 5.3-8.1 4.6-15.6 11.4-22 18.1-.4.4-.9-.2-.6-.6z"/><path class="st5" d="M78.1-91.6c7.2-6.2 18.3.4 23.8 5.8 4.3 4.2 7.6 9.4 11.5 14 3.8 4.5 8.3 7.1 12.8 10.7.4.3-.1.8-.4.8-8.2-1.3-14.6-11-19.6-16.8-3.5-4-7.1-8.1-11.8-10.8-5.3-3.1-10.2-3-16.1-3.1-.2-.1-.3-.4-.2-.6zM6.8 29.4c6.7 16.5 8.6 34.2 16 50.5 6.6 14.4 15.8 25.6 27.6 35.9.4.4-.1 1-.6.8-12.9-7.5-24-20.4-30.3-33.8-7.6-16.6-7.9-35.9-12.7-53.4-.1 0-.1 0 0 0zm-104.6-2.7c12.8-4.1 26.4-5.8 39-10.5 5.9-2.2 12.1-4.9 16.9-9 5.7-4.8 8-10.6 9-17.8.1-.7 1.1-.5 1.1.1.6 12.9-8.4 23.4-19.9 27.9-14.4 5.6-30.8 8-46 9.9-.4.1-.5-.5-.1-.6zm-9 4.3c-6.4 7.2-7.7 17.7-3 26.3 4.3 7.9 11.9 12.5 18.9 17.5.3.2.1.8-.3.7-8.6-2.3-19.3-11.3-22.5-19.7-3.2-8.5-2.9-21.1 6.3-25.7.5-.2 1 .4.6.9z"/></g></g><g id="Outlines_7_"><path class="st6" d="M-64.5-46.9c1.8-11.5 17.3-6.2 24.3-4.2 7.6 2.1 14.6 4 22.5 2.7C-11-49.5-5.2-52.2-1-57.7c8.5-11.1 6.4-26 6.7-39.1.1-6.9-.3-21.9 9.6-22.6.5 0 .5.8 0 .8-8.4.7-8.9 14.1-9.1 20-.3 6.4.9 13 .7 19.6-.2 8.5-1.6 18.6-7.1 25.4-5.9 7.3-14.7 8.8-23.5 7.5-5.7-.8-11.3-2.2-16.8-3.5-6.5-1.6-20.8-6.5-23.4 2.9-.2.3-.6.1-.6-.2z"/><path class="st6" d="M40.6-106.3c-5.6-3.8-14-9.5-21.1-7.3-10.9 3.5-1.3 22.7 1.9 29.2 2.1 4.3 5 8.9 9.8 10.4 4.9 1.5 10.2-1.2 14.3-3.6C51.9-81.4 57-88 65-88.4c.2 0 .3.3.1.4-7.1 1.8-11.7 6.1-17.4 10.5-4.1 3.1-8.2 5.6-13.5 5.4-9.7-.5-13.5-10.8-16.4-18.4-2.7-7.1-10-19.8.1-24.3 7.9-3.6 17.1 3.8 23 8.2.2.1 0 .5-.3.3zM6.4.4c1.3 3.2 3.4 6.1 6.8 8.3.3.2 0 .7-.3.5-3.5-2-5.9-4.8-7.4-8l.9-.8zM5-8.6c.1-4.3 1.1-8.7 2.5-12.6 3.4-9.5 7.4-18.4 14.1-25.9 5.9-6.6 13.7-11.5 22.4-13.3 8-1.7 14.3 2.7 22.1 3.5 4.6.5 8.8 1.3 12.6 4.1 4.8 3.4 5.8 8.5 5.7 14-.2 9.2-2.4 18.8-6.6 26.9-8.7 16.8-26 27.8-44.3 30.9-.6.1-.4 1 .1 1C52.7 18 68.9 6.9 78.3-9.7c3.9-6.9 6.8-14.7 7.6-22.6.6-6 .8-13.6-3-18.7-4.1-5.6-11-6.9-17.4-7.7-7.7-1-14-5.5-22-4.8C26.9-62.1 15-47.8 9-33.3 6.4-27 3.7-18.5 3.5-10.5L5-8.6zM-1.4 9c-1.2 6.8-1.2 17.7 7.7 19.4 4.7.9 9.3-2.1 13.8-3 .1 0 .1.1.1.1-4.6 3.3-12.3 6-17.5 2.8C-4 24.2-4.1 15.5-1.8 8.9c.1-.3.4-.2.4.1z"/><path class="st6" d="M16.2 27.3c4 1.6 8.1 3.9 12.6 3 5.4-1 8.4-5.7 7.8-11.1-.1-.7 1-.7 1.1 0 .6 4.8-1.6 9.6-6.2 11.6-5.2 2.3-11-.3-15.4-3.2-.1-.1-.1-.4.1-.3zm43.7-88c2.6-10.2 12.5-18.7 22.8-20.1 9.9-1.4 20.7 3.7 26.1 12 .1.2-.2.4-.3.3-6.3-8-15.8-12.4-26.1-10.5-10.3 1.9-17 9.4-20 19.1-.5 1.5-2.9.8-2.5-.8z"/><path class="st6" d="M69.8-78.6c-2.2 1.6-4.2 3.3-6.3 5.1-.9.7-2.1-.2-1.6-1.2 8.4-16.3 27.2-26.9 45.4-26.8 4.9 0 14.6-.1 16.8 5.5 1.8 4.4-.7 10.9-5.4 12.2-.2.1-.3-.2-.1-.3 3.1-1.6 4.8-5 5-8.4.2-4.5-3.3-6.3-7.2-7-7.1-1.4-14.7-1-21.7.7-14 3.5-24.1 12.9-31.2 25.2L62.1-75c2.5-1.2 4.9-2.5 7.3-3.9.5-.2.6.1.4.3z"/><path class="st6" d="M36.1-73c3.3-6 5.9-12.4 10.2-17.9 4.1-5.4 8.4-10.6 13.5-15.1 11.6-9.9 25-12.8 39.8-10.3 6.7 1.1 13.3 3.2 19.5 6.2 3.4 1.6 7 3.3 9 6.6 3.2 5.3 3.9 12.3 1 17.9-2.7 5-7.8 8.6-13.4 6.1-13.2-5.7 1.3-21.2 8.2-12.2.1.1-.1.2-.2.1-5-6.1-17.1 1.3-10.9 8.8 4.1 5 11.1 3.4 14.5-1.4 4.2-5.9 3.7-15.7-1.7-20.9-3.2-3.1-8.2-5-12.3-6.6-6.3-2.4-12.9-4.1-19.7-4.6-14.8-1-27.4 4.8-37.6 15.4-3.9 4.1-7.6 8.5-10.9 13.2-3.3 4.7-5.7 10-8.9 14.8 0 .2-.2 0-.1-.1z"/><path class="st6" d="M81.1-94.6c10-2.7 18.5 4.6 24.2 12 4.1 5.2 7.6 10.9 12.3 15.7 2.1 2.1 4.3 4.1 6.9 5.6 1.3.7 3.8 2.5 5.3 2.4 1.3-.5 2.7-1 4-1.5.2.8.5 1.5 1 2.1.3.4-.4.7-.6.4-1.4-2-1.7-9 2.4-6.1 1.6 1.2 1.6 3.4.4 4.9-1.6 2-4.4 1.9-6.6 1.4-8.2-1.9-14-8.9-18.8-15.4-7.8-10.5-16.2-21.1-30.5-20.9-.3 0-.4-.5 0-.6z"/><path class="st6" d="M86.4-80.5c12.5 2.9 18.2 16.3 28.5 22.7 5.7 3.5 13.1 6.3 19.9 5.7 7.7-.6 11.1-9.7 3.4-13.9-2.6-1.4-4.3-1.4-6.7.4-2.5 2-3 4.1-1 7 .2.3-.2.6-.5.4-4.6-3.9-.7-10.8 4.9-10.1 6.7.7 11.6 9.7 6.1 14.8-6.6 6.1-19.7 1.3-26.2-2.5-11-6.5-16.5-19.2-28.5-24.3-.1 0 0-.2.1-.2zm39.4-8.3c-.2 2.4-2 4.8-4.3 5.5-2.2.7-4.9-.2-5.8-2.5-.8-2 .3-4.7 2.5-5.2 1.7-.4 4.5.7 4.8 2.6.1.4-.5.7-.7.3-.6-1.1-2.2-1.7-3.4-1.5-2.1.4-2.6 2.9-1.2 4.4 1.3 1.3 3.2 1.4 4.8.6 1.8-.9 2.5-2.5 3.2-4.3 0 0 .1 0 .1.1zm-135.7 40c-12.9 3.3-22.3-9.5-32.3-15.1-6.7-3.8-14.8-6.7-22.5-7.3-7.3-.6-17.8-.2-20.1 8.3-4.3 16 16.7 25.7 27.4 32.9 12.8 8.6 25.6 17.2 38.6 25.6C-13.4-.9-2.6 5.9 3.9 1.8c5-3.2 2-9.5-1.4-12.9-2-2-4.5-3-7.3-3-4 0-9.6 2.5-4.4 7.8.3.3-.2.7-.5.5-3.9-3.3-3.3-8.3 2.1-9.1 6.7-1.1 11.8 3.1 14.4 9 2.3 5-.2 9-5.6 9.9C-7 5.4-15.4-.5-21.7-4.7c-9.5-6.4-19.1-12.7-28.6-19.1-8.9-6-18.3-11.7-26.8-18.3-5.6-4.4-11.4-11-11.1-18.6.2-7.5 5.8-12 12.9-12.8 10.3-1.1 22 1.4 31.2 6.1 11.3 5.7 20.3 19.9 34.1 18.3.2 0 .2.3.1.3z"/><path class="st6" d="M-49-57.8c-5.6-2.3-16.7-5.8-18.6 3.1-1.1 5 7 10.5 10.2 13.3C-50.1-35-42.5-29-34.6-23.2c7.4 5.4 14.9 10.7 22.7 15.4 2.1 1.3 13.8 7.6 12 2-.2-.4.4-.6.5-.2C1.9 0-6-3.7-8.7-5c-11.2-5.7-21.7-13.6-31.6-21.2-5.6-4.3-11.1-8.7-16.5-13.3C-60.4-42.7-67.6-47-69-52c-1.1-3.7 1.5-7.1 4.7-8.6 5.2-2.4 10.7.1 15.4 2.4.3.1.1.5-.1.4z"/><path class="st6" d="M-54.7-52.5c6 3.3 12.7 8.5 15.8 14.7.9 1.8 1.6 4.3.2 6.1-1.9 2.3-5.1 1-7.4.5-.6-.1-.4-1.1.3-1 3.4.6 7.2-.3 5.8-4.3-.8-2.3-2.5-4.4-4.1-6.3-3.1-3.6-6.7-6.9-10.8-9.3-.3-.2-.1-.6.2-.4zm-6.1 21.9c-6.5 1.1-13.2.9-19.7 1.5-7.6.8-15.2 2.1-22.7 4-6.9 1.8-14.8 4.9-17.4 12.2-2.7 7.7 3.8 15.8 8 21.8 4 5.6 8.5 10.8 12.9 16.1 3.6 4.3 7.2 9 11.7 12.6 1.7 1.4 3.9 2.9 5.3.3 1.4-2.5-.9-5 2.7-5.6.5-.1.6.6.2.7-2.5.8-.7 5.4-3.2 7-1.6 1-3 .4-4.5-.6-5.1-3.3-9.1-8.9-13-13.5-5.5-6.4-10.9-12.8-16.1-19.5-3.8-4.9-7.8-10.7-6.9-17.3 1-6.6 6.2-10.7 12-13.1 7.7-3.2 16.2-4.7 24.4-5.8 8.5-1.2 17.6-2.7 26.1-2 .7 0 .9 1 .2 1.2z"/><path class="st6" d="M-63-49.3c3.2 0 6.3 0 9.4.4 2.2.3 6 .5 7.4 2.6.2.3-.1.7-.5.6-2.8-.5-5.4-1.5-8.3-1.9-2.7-.4-5.4-.8-8.1-1-.3-.1-.3-.7.1-.7zm-20.1.7c-14.6 1.1-30.2 4.2-43.2 11.2-6.8 3.6-12.9 9.4-14.4 17.3-1.7 9 4.6 16.3 9.8 22.8 8.8 11.1 18.6 21.4 29.2 30.9C-97 37.8-88.9 47-81.8 45.7c4.8-.9 7.9-11.6 1.9-12.9-.3-.1-.2-.5.1-.4 6 .9 4.7 11 1 13.7-3.4 2.5-8.2.7-11.5-1.1-6.1-3.5-11.5-8.9-16.6-13.6-6.1-5.6-11.9-11.5-17.5-17.6-5.1-5.5-10.5-11.2-14.6-17.5-7.5-11.7-4-23.8 6.9-31.7 13.4-9.8 32.7-13.1 49-13.8.5-.2.5.6 0 .6zm58.8 43.1C-27.1 3.3-32.4 11.6-39 18c-6.9 6.7-17.9 13-27.8 13.6-.2 0-.2-.2 0-.3 5.3-1.8 10.6-3 15.6-5.8 4.3-2.4 8.2-5.5 11.9-8.8 6.8-6.1 11.9-13.6 14.9-22.3 0 0 .2 0 .1.1z"/><path class="st6" d="M-30-10.2c-2.8 12.8-13.3 21.5-24.8 26.5-13.6 6-29.3 8.5-43.9 10.7-.4.1-.5-.4-.1-.5 12.5-4.4 26-5.1 38.6-9.6C-47.2 12-35.9 3-30.7-10.4c.2-.4.8-.3.7.2zm-52.1 46.7c-2.5.4-4.2.6-6.7.9l-.9.1c-.2 0 .7.3.9.3 2.6-.2 4.3-.4 6.9-.6l-.2-.7zm5.8-.9c15.8-2.6 31.6-6.9 44.7-16.3C-25.8 15.1-19.9 7-12.1 6.9c5.1-.1 9.8 3.9 9.7 9.1 0 .4-.6.5-.7.1-1.1-5.8-7.8-7.8-12.7-6.3-4.6 1.5-7.9 5.1-11.5 8.1-5.3 4.3-11.3 7.7-17.6 10.4-10.1 4.3-20.6 6.6-31.3 8l-.1-.7zm82.8-6.3c6.3 9.8 7.3 22.4 9.4 33.6 2.5 13.3 7 25.4 16.4 35.5 4.2 4.6 9.1 8.6 14 12.4 3.5 2.8 8 5.4 10.4 9.2 1.4 2.3 1.7 4.7.1 7-.9 1.2-2.6 1.9-3.3 3.2-1 1.7-.5 2.5 1.8 2.7 2.4.3 4.4-2 5.6-3.8.3-.5 1 0 .7.4-1.6 2.6-4 4.6-7.2 4.1-1.4-.2-2.8-.7-2.7-2.3.1-1.3 2.2-2.6 2.9-3.4 3.8-3.8 1.7-8-1.8-11.1-5.1-4.5-11-8-16.2-12.5-10.4-9.2-17.3-19.4-20.6-33-1.7-7.1-2.5-14.3-3.9-21.4-1.3-7.2-3.4-13.8-5.9-20.6-.1 0 .2-.1.3 0z"/><path class="st6" d="M24.9 30.9c3.1 22.5 7.1 45 18.7 64.9 2.8 4.7 6.1 9.2 9.8 13.2 3.1 3.4 6.7 6.4 8.4 10.8 1.8 4.5.8 12-4.8 13.2-.4.1-.5-.5-.1-.5 3.6-.7 5.2-5 5.2-8.1 0-3.8-2.2-6.8-4.5-9.5-3-3.4-6.3-6.6-9.1-10.2C43.4 98.3 39 91.4 35.8 84c-7.2-16.5-10.5-35.1-11.5-53-.1-.4.5-.5.6-.1zm-38.7-69.4c2 2.6 4.9 3.4 8.1 3.9 1.8.3 3.5.7 4.8 2.1C.2-31.3.8-29.8.7-28.2c-.2 2.8-2.5 4.5-2.2 7.5.1.6-.8.8-1 .3-.7-1.5-.5-2.6-.2-4.2.1-.4.5-2.3.5-3 .1-2.7-.6-3.3-2.5-4.8-2.9-2.2-7.5-2.3-9.3-5.9 0-.2.1-.4.2-.2zm6.1-12.3C0-70.2-9.2-91.3-7-111.2c1.4-12.8 10.2-27.7 25.1-21 7.8 3.5 14.6 10.2 21.2 15.6 5.6 4.6 11.6 10.6 9 18.6-1.6 5-7 8.4-12.1 6.3-4.6-1.9-7.5-7.5-4.7-11.9 1.8-2.9 5.8-4.3 9.1-3.9 5.1.7 6 5.6 5.7 10 0 .7-1.1.7-1 0 .3-5.9-2.7-10.5-9-8.3-4 1.4-6.1 5.7-3.5 9.7 4 6 12.3 4.3 14.4-2.2 3.4-10.1-7.9-16.9-14.6-22-6.2-4.8-13.8-12.6-22.3-12.2-8.4.4-13.3 8.8-15 16.1-2 8.9-.8 18.3.5 27.2 2 13.5 3.6 26.2-3.1 38.7-.1.1-.5-.1-.4-.3zm58 66.8c.9 8.8 2.1 17.5 4.8 26 2.3 7.3 5.7 14.3 8 21.6.9 2.8 2.6 8.9-1.4 10.5-1.8.7-3.7-.3-4.4-1.9-.4-1 .7-7.3-1.3-7-2.7.4-2.6 7.5-2 8.9.8 2 2.6 3.9 4.5 4.9 8.1 4.2 10.9-5.5 10.6-11.5-.3-4.5-1.9-8.9-3.1-13.2-3.8-14.4-8.6-31.2-5.6-46.1.2-1.1 2-.7 1.8.5-1.9 8.5-.6 17.1.7 25.6 1.2 7.9 2.9 15.6 5.1 23.3 1.8 6.4 6.1 25.5-7 23.4-7.5-1.2-11.8-11.1-5.8-16.7 1.5-1.4 2.8-1.4 3.6.7.8 2.4-1.4 5.3.4 7.2 1.5 1.6 3.2.3 3.8-1.6.7-2.2-.2-4.6-.9-6.7-5.4-16-12.9-30.6-12.9-47.9-.1-.8 1-.7 1.1 0z"/><path class="st6" d="M45.8-97.5c.5 1.9-2.6 2.7-3.8 1.8-1.1-.8-1.5-2.1-1.8-3.3-.3-1.2-1.6-3.9-3.4-2.4-2.4 2.1 1.6 5.6 3.4 3.2.2-.3.7 0 .5.3-2.2 3.5-7.8-.7-5.1-3.9 1.1-1.3 3.3-1.3 4.5-.1.9.9.9 2.1 1.2 3.2.4 1.3 1 3.2 3 2.4.6-.3.9-.9 1.5-1.2zM-4.5-3.9c-.7-.3-1.2-1.3-1.5-1.9-.3-.5-.5-1-.4-1.6.2-1.2 1.5-2.1 2.8-2 1.3.1 2.4 1.2 2.9 2.4.4.9 1.1 2.8.3 3.7-.1.1-.3 0-.3-.1-.2-.8 0-1.6-.3-2.4-.3-.9-1.1-1.9-2-2.4-.9-.4-2.4 0-2.5 1.1-.1 1 .9 2.1 1.1 3.1 0 .1-.1.1-.1.1zm-92.4 43.6c-5.3 1.8-12 4.1-10.1 11.6.9 3.5 3.4 6.2 5.9 8.6 3.8 3.7 9.1 8.7 14.6 9.4 1.9.3 5.7-1.5 3.2-3.7-.5-.5-1.7-.4-2.4-.6-.7-.2-2-.3-2.3-1.1-.8-2.2 3.2-3.2 4.5-3.3 8.5-1 8.8 10.9 2.3 14.1-8.5 4.1-21.1-5.8-27-10.8-9.5-8.2-12-27.3.6-33.9.4-.2.8.4.4.6-10.3 5.6-9.5 22.3-2.2 30.1 5.2 5.5 13 10.4 20.2 12.8 4.1 1.3 8.8 1.3 11-3.1 1.2-2.3 1-5.5-.9-7.4-1.7-1.4-3.5-1.8-5.5-1.2-1.9 0-2.5.9-1.9 2.6 1.4 1.4 5.1-.1 5.1 2.9 0 3.1-3.9 3.5-6.1 3-5-1-9.7-4.9-13.5-8-4-3.3-8.1-8-7.9-13.5.2-6 6.9-8.1 11.7-9.4.4-.2.5.2.3.3zm94.5-21.6c0-4.2 4.6-3.8 6.2-.7 1.1 2.1 2.2 10.8-2.4 9.2-.2-.1-.2-.4.1-.4 3.1.1 2.4-5.5 1.8-7.4-.4-1.4-1.2-2.6-2.7-3-1.9-.5-2.7.8-2.9 2.4l-.1-.1z"/><path class="st6" d="M1.9 20.2c-.5-1.1-2.2-1.3-3-.4-2.6 3 4.6 4 3 .4z"/></g></symbol><use xlink:href="#Octopus" width="295" height="279.5" x="-147.5" y="-139.8" transform="matrix(5.0089 0 0 -5.0089 743.465 700)" overflow="visible"/></svg>