<svg id="Layer_1" data-name="Layer 1" xmlns="http://www.w3.org/2000/svg" viewBox="0 0 167.03 102.98"><defs><style>.cls-1{fill:#012d5b;}.cls-2{fill:#283533;}</style></defs><path class="cls-1" d="M19.36,102.38H11.72l-1.62,4.45H6L13.1,87.94H18l7.07,18.89H21ZM18,98.71l-2.49-6.86L13,98.71Z" transform="translate(-6.02 -10.6)"/><path class="cls-1" d="M46.33,87.94v18.89H42.47V93.28l-5.26,8h-.35l-5.24-8v13.55H27.76V87.94h4.43l4.86,7.26,4.83-7.26Z" transform="translate(-6.02 -10.6)"/><path class="cls-1" d="M64.73,94.28c0,4-2.67,6.45-6.72,6.45H53.94v6.1H50.08V87.94H58C62.06,87.94,64.73,90.31,64.73,94.28Zm-3.91,0c0-1.67-1-2.72-3-2.72H53.94v5.45h3.91C59.85,97.06,60.82,96,60.82,94.33Z" transform="translate(-6.02 -10.6)"/><path class="cls-1" d="M81.93,99.41a7.65,7.65,0,1,1-7.66-7.72A7.54,7.54,0,0,1,81.93,99.41Zm-13,0a5.39,5.39,0,1,0,5.37-5.59A5.36,5.36,0,0,0,68.9,99.41Z" transform="translate(-6.02 -10.6)"/><path class="cls-1" d="M84.71,86.05H87v20.78H84.71Z" transform="translate(-6.02 -10.6)"/><path class="cls-1" d="M104.14,92l-10,21.59h-2.4L95.66,105l-6-13H92l4.81,10.63L101.73,92Z" transform="translate(-6.02 -10.6)"/><path class="cls-1" d="M128.35,97.19v9.64h-2.24V97.6c0-2.51-1.14-3.78-3.35-3.78-2.81,0-4.18,2.4-4.18,5.4l0,7.61h-2.26V97.6c0-2.51-1.11-3.78-3.35-3.78-2.78,0-4.16,2.4-4.16,5.4v7.61h-2.24V92h2.24v2.8a5.09,5.09,0,0,1,4.83-3.1,4.42,4.42,0,0,1,4.65,3.4,5.31,5.31,0,0,1,5.1-3.4C126.54,91.69,128.35,93.69,128.35,97.19Z" transform="translate(-6.02 -10.6)"/><path class="cls-1" d="M146.54,100.08H133.83a5.08,5.08,0,0,0,5.4,4.94,4.92,4.92,0,0,0,4.64-2.59h2.32a7.21,7.21,0,0,1-7,4.7,7.72,7.72,0,0,1,0-15.44C143.74,91.69,146.73,95.2,146.54,100.08ZM133.94,98h10.18a4.91,4.91,0,0,0-5-4.19A5.13,5.13,0,0,0,133.94,98Z" transform="translate(-6.02 -10.6)"/><path class="cls-1" d="M158.09,91.74V94a7.71,7.71,0,0,0-1-.06c-3.1,0-5.26,2-5.26,5.83v7h-2.24V92h2.24v3.32a5.4,5.4,0,0,1,5.29-3.62C157.52,91.69,157.87,91.72,158.09,91.74Z" transform="translate(-6.02 -10.6)"/><path class="cls-1" d="M159.74,102.19H162c.59,2.08,2.13,2.81,4.89,2.81,2.21,0,3.83-.79,3.83-2.22s-1.65-1.75-4.37-2.43c-4.11-1-5.89-1.75-5.89-4.18,0-2.86,2.51-4.48,6-4.48s5.72,1.59,6.32,4.26h-2.27c-.57-1.51-2-2.13-4-2.13-2.4,0-3.8.92-3.8,2.19S164,97.52,167,98.27c3.81,1,6.1,1.54,6.1,4.32,0,3-2.78,4.54-6.12,4.54C163,107.13,160.34,105.32,159.74,102.19Z" transform="translate(-6.02 -10.6)"/><path class="cls-2" d="M120.43,29.1c0-2.39.2-3.93,1-4.54a2.32,2.32,0,0,1,2.14-.12c1.16.64,13.14,7.26,14.32,8,2.91,1.74,4.22,1.27,4.08,8.63,0,1.26-.24,22.86-.24,23.9s.05,2.92-1.11,3.54a2.06,2.06,0,0,1-2.55-.31c-.91-.64-14-10.65-14.44-11.12a10.1,10.1,0,0,1-2.91-7C120.76,48.29,120.43,29.1,120.43,29.1Z" transform="translate(-6.02 -10.6)"/><path class="cls-1" d="M148.32,72.43s5.76-2.24,7.12-2.81,1.45-1.52,1.5-2.92,1-32.93,1.05-34c.11-3.12-.67-6.13-3.6-7.66C152,23.77,133,15.28,132.67,15.13a3.26,3.26,0,0,0-1.62-.16c-.52.1-7.51,1.68-7.51,1.68a3.5,3.5,0,0,1,1.54.23c.8.38,18.16,8.8,21.33,10.79,2.86,1.79,3.39,4.06,3.5,7.65,0,.74-.39,34.44-.49,35.28S149.31,71.64,148.32,72.43Z" transform="translate(-6.02 -10.6)"/><path class="cls-1" d="M162.76,66.65s5.64-2.22,7-2.8,1.66-1.45,1.72-2.86,1.41-31.89,1.46-33a7.86,7.86,0,0,0-3.65-7.41c-2-1.25-21.24-8.52-21.93-8.76a3.61,3.61,0,0,0-1.61-.16l-7.22,1.61a4.66,4.66,0,0,1,1.61.23c1.29.51,18.67,7.8,22,9.47,2.11,1.06,3.69,3.13,3.81,6.72,0,.74-1.52,33.78-1.62,34.61A3.53,3.53,0,0,1,162.76,66.65Z" transform="translate(-6.02 -10.6)"/><path class="cls-2" d="M53.39,54.65c0,12.14-9.19,18.9-23.07,18.9-13,0-23.5-6.85-24.19-20.72H21c.7,4.94,3.82,6.76,9.11,6.76,6.33,0,8.32-2.51,8.32-6.42,0-3.38-1.73-5-7.54-5H23V35.31h6.59c4,0,7.2-.78,7.2-4.68,0-3.21-1.65-6.07-7.63-6.07-4.16,0-6.85,1.56-7.63,6.15H6.56c.87-13,10.67-20.11,23-20.11,13.18,0,22.12,7.71,22.12,18a13.77,13.77,0,0,1-6.51,12.06c5.21,2.34,8.24,7.37,8.24,14" transform="translate(-6.02 -10.6)"/><polygon class="cls-2" points="96.01 15.18 79.45 15.18 79.45 61.83 64.71 61.83 64.71 15.18 48.23 15.18 48.23 1.13 96.01 1.13 96.01 15.18"/></svg>