<?xml version="1.0" encoding="utf-8"?>
<!-- Generator: Adobe Illustrator 22.1.0, SVG Export Plug-In . SVG Version: 6.00 Build 0)  -->
<svg version="1.1" xmlns="http://www.w3.org/2000/svg" xmlns:xlink="http://www.w3.org/1999/xlink" x="0px" y="0px"
	 viewBox="0 0 948.1 768" style="enable-background:new 0 0 948.1 768;" xml:space="preserve">
<style type="text/css">
	.st0{fill:#D02C17;}
	.st1{fill:#E75F0D;}
	.st2{fill:none;stroke:#706F6F;stroke-width:0.5;stroke-miterlimit:10;}
	.st3{fill:#FFFFFF;}
	.st4{fill:#EC6415;}
</style>
<g id="Record">
	<g>
		<g>
			
				<ellipse transform="matrix(0.7071 -0.7071 0.7071 0.7071 -129.6212 449.3948)" class="st0" cx="477.7" cy="381.2" rx="379.3" ry="379.3"/>
		</g>
		<g>
			
				<ellipse transform="matrix(0.7071 -0.7071 0.7071 0.7071 -129.6212 449.3948)" class="st1" cx="477.7" cy="381.2" rx="368.8" ry="368.8"/>
		</g>
		<g>
			<circle cx="477.7" cy="381.2" r="358.2"/>
		</g>
		<path class="st2" d="M352.2,704.6C176.3,627.2,96.5,421.9,173.9,246.1C248.1,77.4,445,0.8,613.7,75
			C775.5,146.3,849,335.2,777.8,497c-68.3,155.2-249.5,225.7-404.7,157.3C224.2,588.8,156.6,415,222.1,266.1
			C285,123.3,451.7,58.5,594.5,121.4c137,60.3,199.1,220.2,138.9,357.2c-57.8,131.4-211.2,191-342.6,133.2
			c-126-55.5-183.2-202.6-127.8-328.6c53.2-120.9,194.3-175.7,315.2-122.5c115.9,51,168.6,186.4,117.5,302.3
			c-48.9,111.2-178.8,161.7-290,112.8c-106.7-46.9-155.1-171.5-108.2-278.2c45-102.3,164.5-148.8,266.8-103.7
			c98.2,43.2,142.7,157.8,99.5,255.9c-41.4,94.1-151.3,136.9-245.5,95.4c-90.3-39.7-131.3-145.2-91.6-235.5
			C365,223,466.1,183.7,552.7,221.8c83.1,36.6,120.8,133.6,84.2,216.7c-35.1,79.7-128.1,115.9-207.8,80.8
			c-76.4-33.6-111.1-122.9-77.5-199.3"/>
		<path class="st0" d="M477.7,523.3c-78.5,0-142.2-63.6-142.2-142.2S399.1,239,477.7,239s142.2,63.6,142.2,142.2
			S556.2,523.3,477.7,523.3z M488.2,381.2c0-5.8-4.7-10.6-10.6-10.6c-5.8,0-10.6,4.7-10.6,10.6s4.7,10.6,10.6,10.6
			C483.5,391.8,488.2,387,488.2,381.2z"/>
	</g>
</g>
<g id="Text">
	<g>
		<g>
			<rect x="556" y="437.3" class="st0" width="59.6" height="117.9"/>
			<path class="st0" d="M485.1,650.3c-14.1,0-26.2-4.7-35.9-13.9c-9.9-9.4-15.1-21.9-15.1-36.1v-14.6c-0.1,0-0.1-0.1-0.2-0.1
				c-1,1.2-2,2.3-3.2,3.4c-9.5,9.3-21.8,14.2-35.4,14.2c-13.9,0-26.1-5-35.6-14.4c-4.1-4.1-7.4-8.8-9.8-14c-2.4,5.2-5.8,9.9-10,14.1
				c-9.5,9.3-21.8,14.3-35.6,14.3c-13.9,0-26.1-5-35.6-14.4c-1.1-1.1-2.1-2.2-3.1-3.4c-14.4,11.8-31.7,17.8-51.3,17.8
				c-19.8,0-37.1-6-51.5-17.7c-1.1,1.4-2.4,2.7-3.7,4c-9.5,9.3-21.7,14.2-35.4,14.2c-31.2,0-58-11-79.7-32.6
				c-21.6-21.6-32.6-48.4-32.6-79.7V470c0-31.2,11-58,32.6-79.7c21.6-21.6,48.4-32.6,79.7-32.6c13.8,0,26.1,4.9,35.6,14.3
				c8.3,8.2,13.3,18.7,14.4,30.5c2.8-0.5,5.7-0.7,8.7-0.7c12,0,22.8,3.7,31.6,10.8c8.9-7.2,19.9-11.1,32-11.1
				c13.9,0,26.2,5,35.6,14.4c1.1,1.1,2.1,2.2,3.1,3.4c14.5-11.8,31.8-17.8,51.5-17.8c3.2,0,6.3,0.3,9.4,0.8
				c1.2-11.5,6-21.8,14.1-29.9c9.4-9.4,21.7-14.4,35.6-14.4c14.6,0,26.7,4.7,36,13.8c8.1,8,12.8,18.1,13.9,30.2
				c2.6-0.4,5.3-0.6,8.1-0.6c12.7,0,23.5,3.5,32.3,10.5c8.8-6.9,19.5-10.5,31.3-10.5c13.9,0,26.2,5,35.6,14.4
				c9.4,9.4,14.4,21.7,14.4,35.6v116.9c0,22.7-8,42.2-23.8,58C527.4,642.3,507.9,650.3,485.1,650.3z M117.8,480.7
				c1.4,0.7,3.4,1.4,6.7,1.4c2.9,0,5.7,0.2,8.4,0.7v-4.2c-2.7,0.4-5.5,0.7-8.4,0.7C121.2,479.3,119.1,480,117.8,480.7z"/>
			<path class="st0" d="M723.5,650.3c-23,0-42.8-7.8-58.6-23.3c-8.9-8.7-15.3-18.6-19.3-29.8c-7.3,3.9-15.5,6-24.4,6
				c-13.9,0-26.2-5-35.6-14.4c-9.4-9.4-14.4-21.7-14.4-35.6V408.2c0-13.8,4.9-26.1,14.3-35.6c9.4-9.5,21.8-14.6,35.7-14.6
				c13.8,0,26.2,5,35.7,14.5c4.4,4.4,7.8,9.3,10.2,14.7c3.1-0.6,6.3-0.9,9.6-0.9c8,0,15.5,1.7,22.3,4.9c2.6-7.3,6.8-13.9,12.6-19.7
				c10.2-10.2,23.3-15.7,37.7-15.7c14.4,0,27.5,5.4,37.7,15.7c10.2,10.2,15.7,23.3,15.7,37.7c0,0.9,0,2.1-0.1,3.6
				c10.8-6.2,22.8-9.9,35.9-11.1c1.3-11.3,6.1-21.3,14.1-29.4c9.5-9.5,21.7-14.5,35.4-14.5c13.8,0,26.1,4.9,35.6,14.3
				c9.5,9.4,14.6,21.8,14.6,35.7V513c0,25-8.9,46.5-26.4,64c-17.5,17.4-39,26.2-64,26.2c-22.9,0-42.3-6.8-57.8-20.2
				c-1.6,2.1-3.3,4.1-5.3,6c-3.4,3.3-7.1,6-11.1,8.2v3.1c0,13.9-5,26.1-14.4,35.6C749.6,645.3,737.3,650.3,723.5,650.3z"/>
		</g>
		<g>
			<path class="st1" d="M517,412.5c-11.1,0-20.5,3.8-27.9,11.1c-1.3,1.3-2.4,2.6-3.5,3.9c-1.1-1.5-2.4-3-3.8-4.4
				c-7.2-7.1-16.8-10.7-28.4-10.7c-6.9,0-13.2,1.5-18.7,4.4v-8.7c0-11.7-3.7-21.2-10.9-28.4c-7.2-7.1-16.8-10.7-28.4-10.7
				c-11.1,0-20.5,3.8-27.9,11.2c-7.4,7.4-11.2,16.8-11.2,27.9v9.6c-5.9-3.4-12.5-5.2-19.9-5.2c-19.7,0-36.7,6.9-50.3,20.5
				c-1.2,1.2-2.3,2.4-3.4,3.6c-1.9-4.8-4.7-9.1-8.5-12.9c-7.4-7.4-16.8-11.2-27.9-11.2c-11.1,0-20.5,3.8-27.9,11.1
				c-1.5,1.4-2.8,3-4,4.6c-1.1-1.5-2.3-2.9-3.7-4.2c-7.5-7.5-16.9-11.3-28-11.3c-7.2,0-13.7,1.6-19.3,4.8v-9.8
				c0-11.1-3.8-20.5-11.4-27.9c-7.5-7.4-16.9-11.1-27.9-11.1c-28.3,0-52.5,9.9-72,29.4c-19.5,19.5-29.4,43.7-29.4,72v21.4
				c0,28.3,9.9,52.5,29.4,72c19.5,19.5,43.7,29.4,72,29.4c10.9,0,20.2-3.7,27.8-11.1c4-3.9,7-8.4,8.9-13.5c1.1,1.2,2.2,2.4,3.4,3.6
				c13.6,13.6,30.6,20.5,50.5,20.5c19.8,0,36.7-6.9,50.3-20.6c1.1-1.1,2.2-2.3,3.2-3.5c1.9,4.8,4.7,9.1,8.5,12.9
				c7.4,7.4,16.8,11.2,27.9,11.2c11,0,20.4-3.8,27.9-11.2c7.5-7.4,11.4-16.8,11.4-27.9v-41.8c4.6-0.9,8.7-2.4,12.5-4.5v46.3
				c0,11.1,3.8,20.5,11.2,27.9c7.4,7.4,16.8,11.2,27.9,11.2c10.9,0,20.2-3.7,27.8-11.1c3.8-3.7,6.7-7.9,8.6-12.5
				c3.9,4.4,8.2,8.3,13.1,11.6v20.1c0,11.3,3.9,20.8,11.7,28.2c7.6,7.2,17.2,10.9,28.4,10.9c19.7,0,36.7-6.9,50.4-20.6
				c13.7-13.7,20.6-30.6,20.6-50.4V451.6c0-11.1-3.8-20.5-11.2-27.9C537.5,416.3,528.1,412.5,517,412.5z M110.3,488.8
				c-3-2.2-5.2-4.8-6.8-8c1.6-3.2,3.8-5.9,6.8-8c3.9-2.9,8.6-4.2,14.2-4.2c7.1,0,13.5-1.7,19.2-4.9v34.3c-5.7-3.2-12.1-4.9-19.2-4.9
				C118.8,493,114.2,491.6,110.3,488.8z"/>
			<path class="st1" d="M915.8,379.8c-7.5-7.4-16.9-11.1-27.9-11.1c-10.9,0-20.3,3.8-27.8,11.3c-7.5,7.5-11.3,16.9-11.3,27.8v4.4
				c-0.4,0-0.8,0-1.1,0c-22.3,0-41.3,7.7-56.5,23c-1.2,1.2-2.4,2.5-3.5,3.8c-0.5-3.2-1.4-6-2.6-8.3c6-8.2,6.7-17.8,6.7-21.4
				c0-11.6-4.2-21.7-12.5-30c-8.3-8.3-18.4-12.5-30-12.5c-11.6,0-21.7,4.2-30,12.5c-8.3,8.3-12.5,18.4-12.5,30c0,0.1,0,0.7,0,1.5
				c-0.7-0.8-1.4-1.6-2.1-2.3c-7.5-7.5-16.9-11.3-28-11.3c-6,0-11.6,1.2-16.7,3.6c-1.4-7.9-4.9-14.8-10.7-20.6
				c-7.5-7.5-16.9-11.3-28-11.3c-11.1,0-20.5,3.8-27.9,11.4c-7.4,7.5-11.1,16.9-11.1,27.9v145.1c0,11.1,3.8,20.5,11.2,27.9
				c7.4,7.4,16.8,11.2,27.9,11.2c11,0,20.4-3.8,27.9-11.2c1.1-1.1,2.1-2.2,3.1-3.4c1.9,16.2,8.7,30.1,20.3,41.4
				c13.7,13.4,30.9,20.2,51,20.2c11.1,0,20.5-3.8,27.9-11.2c7.4-7.4,11.2-16.8,11.2-27.9v-10.2c5.3-1.8,10.1-4.8,14.4-8.9
				c4.9-4.8,8.2-10.4,10-16.7c1.3,1.5,2.6,3,4,4.6c14.3,15.4,33.4,23.3,56.6,23.3c22,0,41-7.8,56.3-23.1
				c15.4-15.3,23.2-34.3,23.2-56.3V407.7C927.2,396.6,923.4,387.2,915.8,379.8z"/>
		</g>
		<g>
			<g>
				<path d="M152.6,553.7c0,8.1-2.7,14.9-8.2,20.2c-5.5,5.4-12.2,8-20.2,8c-25.4,0-46.8-8.7-64.3-26.2
					c-17.5-17.5-26.2-38.9-26.2-64.3c0-3.6,0-17.8,0-21.4c0-25.4,8.7-46.8,26.2-64.3c17.5-17.5,38.9-26.2,64.3-26.2
					c8.1,0,14.9,2.7,20.3,8c5.4,5.4,8.1,12.1,8.1,20.2c0,3.7,0,17.7,0,21.4c0,8.1-2.7,14.9-8.1,20.3c-5.4,5.4-12.1,8.1-20,8.1
					c-7.9,0-14.8,2.1-20.5,6.3c-5.8,4.2-9.8,9.8-12.1,16.8c2.3,7,6.3,12.6,12.1,16.8c5.8,4.2,12.6,6.3,20.5,6.3
					c7.9,0,14.6,2.7,20,8.1c5.4,5.4,8.1,12.2,8.1,20.3C152.6,536.2,152.6,550,152.6,553.7z"/>
				<path class="st3" d="M138.7,532.3c0-4.3-1.4-7.8-4.1-10.5c-2.7-2.7-6.2-4.1-10.5-4.1c-13.6,0-24.9-4.6-34-13.7
					c-9.1-9.1-13.7-20.5-13.7-34c0-13.6,4.6-24.9,13.7-34c9.1-9.1,20.5-13.7,34-13.7c4.3,0,7.8-1.4,10.5-4.1
					c2.7-2.7,4.1-6.2,4.1-10.5s-1.4-7.7-4.1-10.4c-2.7-2.6-6.2-4-10.5-4c-21.5,0-39.7,7.4-54.5,22.2S47.5,448.5,47.5,470
					c0,21.5,7.4,39.7,22.2,54.5c14.8,14.8,32.9,22.2,54.5,22.2c4.3,0,7.8-1.3,10.5-4C137.3,540.1,138.7,536.6,138.7,532.3z"/>
			</g>
			<g>
				<path d="M274.6,521.4c0,16.8-5.8,31.1-17.3,42.7c-11.6,11.6-25.8,17.4-42.6,17.4c-17,0-31.3-5.8-42.8-17.3
					c-11.6-11.6-17.3-25.8-17.3-42.8V452c0-8.1,2.7-14.9,8-20.3c5.4-5.4,12.1-8.1,20.2-8.1c8.1,0,14.9,2.7,20.3,8.1
					c5.4,5.4,8.1,12.2,8.1,20.3V500c0,2.3,1.1,3.4,3.4,3.4c2.1,0,3.2-1.1,3.2-3.4v-48.4c0-8.1,2.7-14.9,8.1-20.2
					c5.4-5.4,12.2-8,20.3-8c8.1,0,14.9,2.7,20.2,8s8,12.1,8,20.2V521.4z"/>
				<path class="st3" d="M260.7,500v-48.4c0-4.3-1.3-7.7-4-10.4c-2.6-2.6-6.1-4-10.4-4s-7.8,1.3-10.5,4c-2.7,2.6-4.1,6.1-4.1,10.4
					V500c0,4.9-1.6,9-4.9,12.3c-3.3,3.4-7.4,5-12.2,5c-4.9,0-9-1.7-12.3-5c-3.4-3.4-5-7.5-5-12.3V452c0-4.3-1.4-7.8-4.1-10.5
					c-2.7-2.7-6.2-4.1-10.5-4.1c-4.3,0-7.7,1.4-10.4,4.1c-2.6,2.7-4,6.2-4,10.5V500c0,13.3,4.4,24.3,13.2,33.1
					c8.8,8.8,19.8,13.2,33.1,13.2c13.1,0,24.1-4.4,32.9-13.3C256.3,524.1,260.7,513.1,260.7,500z"/>
			</g>
			<g>
				<path d="M364.7,473c0,8.4-2.5,15.1-7.6,20c-5.1,4.9-11.7,7.7-19.8,8.5c-2.9,0.1-4.3,1.2-4.3,3.2v48.6c0,8.1-2.7,14.9-8.1,20.2
					c-5.4,5.4-12.2,8-20.3,8c-8.1,0-14.9-2.7-20.2-8c-5.4-5.4-8-12.1-8-20.2v-70c0-16.8,5.8-31,17.4-42.6
					c11.6-11.6,25.9-17.3,42.7-17.3c8,0,14.7,2.7,20.1,8.1c5.4,5.4,8.1,12.1,8.1,20.1C364.7,455.6,364.7,469.3,364.7,473z"/>
				<path class="st3" d="M350.8,451.6c0-4.1-1.4-7.6-4.1-10.3c-2.7-2.7-6.1-4.1-10.3-4.1c-13.1,0-24.1,4.4-33,13.2
					c-8.9,8.8-13.3,19.7-13.3,32.9v48.6c0,4.3,1.3,7.7,4,10.4c2.6,2.6,6.1,4,10.4,4c4.3,0,7.8-1.3,10.5-4c2.7-2.6,4.1-6.1,4.1-10.4
					v-48.6c0-4.8,1.6-8.8,4.8-11.9c3.2-3.1,7.2-4.8,12.1-5.2C345.9,465.3,350.8,460.5,350.8,451.6z"/>
			</g>
			<g>
				<path d="M423.9,553.3c0,8.1-2.7,14.9-8.2,20.2c-5.5,5.4-12.2,8-20.2,8c-8.1,0-14.9-2.7-20.2-8c-5.4-5.4-8-12.1-8-20.2V408.2
					c0-8.1,2.7-14.9,8-20.2c5.4-5.4,12.1-8,20.2-8c8.7,0,15.6,2.5,20.8,7.6c5.1,5.1,7.7,12,7.7,20.7V553.3z"/>
				<path class="st3" d="M410,531.9V408.2c0-9.6-4.9-14.3-14.6-14.3c-4.3,0-7.7,1.3-10.4,4c-2.6,2.6-4,6.1-4,10.4v123.7
					c0,4.3,1.3,7.7,4,10.4c2.6,2.6,6.1,4,10.4,4c4.3,0,7.8-1.3,10.5-4C408.6,539.6,410,536.2,410,531.9z"/>
			</g>
			<g>
				<path d="M546.6,568.5c0,16.8-5.8,31.1-17.4,42.7c-11.6,11.6-25.9,17.4-42.7,17.4c-8.4,0-15.4-2.6-21-7.9
					c-5.6-5.3-8.3-12.1-8.3-20.3c0-3.7,0-17.6,0-21.4c0-1.6,0.1-3.1,0.4-4.5c-9.6-5.1-17.1-12.4-22.7-21.7
					c-5.6-9.3-8.3-19.8-8.3-31.4v-69.8c0-8.1,2.7-14.9,8-20.2s12.1-8,20.2-8c8.7,0,15.6,2.5,20.8,7.6c5.1,5.1,7.7,12,7.7,20.7V500
					c0,2.3,1.1,3.4,3.4,3.4c2.1,0,3.2-1.1,3.2-3.4v-48.4c0-8.1,2.7-14.9,8.1-20.2c5.4-5.4,12.2-8,20.3-8s14.9,2.7,20.2,8
					c5.4,5.4,8,12.1,8,20.2V568.5z"/>
				<path class="st3" d="M532.7,547.1v-95.5c0-4.3-1.3-7.7-4-10.4c-2.6-2.6-6.1-4-10.4-4s-7.8,1.3-10.5,4c-2.7,2.6-4.1,6.1-4.1,10.4
					V500c0,4.9-1.6,9-4.9,12.3c-3.3,3.4-7.4,5-12.2,5c-4.9,0-9-1.7-12.3-5c-3.4-3.4-5-7.5-5-12.3v-48.4c0-9.6-4.9-14.3-14.6-14.3
					c-4.3,0-7.7,1.3-10.4,4c-2.6,2.6-4,6.1-4,10.4V500c0,13.3,4.4,24.3,13.2,33.1c8.8,8.8,19.8,13.2,33.1,13.2
					c6,0,11.7-1.1,17.1-3.2v4.1c0,4.7-1.7,8.8-5.1,12.2c-3.4,3.4-7.5,5.1-12.2,5.1h-0.9c-4.3,0-7.8,1.4-10.5,4.1
					c-2.7,2.7-4.1,6.2-4.1,10.5s1.4,7.7,4.1,10.4c2.7,2.6,6.2,4,10.5,4h0.9c13.1,0,24.1-4.4,33-13.3
					C528.3,571.2,532.7,560.2,532.7,547.1z"/>
			</g>
			<g>
				<path d="M777,445.6c-0.7-4.7-2.9-9-6.2-12.5c6.2-5.9,10.1-14.3,10.1-23.6c0-17.8-14.1-32.2-31.5-32.2s-31.5,14.4-31.5,32.2
					c0,9.3,3.9,17.7,10.1,23.6c-3.4,3.5-5.6,7.9-6.3,12.7c0,0-0.8,3.8-0.8,5.8v101.7c0,8.1,2.7,14.9,8,20.2c5.4,5.4,12.1,8,20.2,8
					c8,0,14.7-2.7,20.2-8c5.5-5.4,8.2-12.1,8.2-20.2V451.6c0-2.1-0.1-4.1-0.4-6L777,445.6z"/>
				<path class="st3" d="M763.7,531.9v-80.3c0-9.6-4.9-14.3-14.6-14.3c-4.3,0-7.7,1.3-10.4,4c-2.6,2.6-4,6.1-4,10.4v80.3
					c0,4.3,1.3,7.7,4,10.4c2.6,2.6,6.1,4,10.4,4c4.3,0,7.8-1.3,10.5-4C762.4,539.6,763.7,536.2,763.7,531.9z"/>
				<ellipse class="st3" cx="749.4" cy="408.7" rx="16.9" ry="16.9"/>
			</g>
			<g>
				<path d="M751.7,600.4c0,8.1-2.7,14.9-8,20.2c-5.4,5.4-12.1,8-20.2,8c-17.3,0-31.8-5.7-43.5-17.1c-11.7-11.4-17.6-25.8-17.6-43
					v-47.3c0-2.1-1.1-3.2-3.4-3.2h-9.4v35.3c0,8.1-2.7,14.9-8.1,20.2c-5.4,5.4-12.2,8-20.3,8c-8.1,0-14.9-2.7-20.2-8
					c-5.4-5.4-8-12.1-8-20.2V408.2c0-8.1,2.7-14.9,8-20.3c5.4-5.4,12.1-8.1,20.2-8.1c8.1,0,14.9,2.7,20.3,8.1
					c5.4,5.4,8.1,12.2,8.1,20.3v19.3c1.9-5.9,5.2-10.6,10.2-14.1c4.9-3.6,10.5-5.4,16.8-5.4c8.1,0,14.9,2.7,20.3,8.1
					c5.4,5.4,8,14.9,8,23.1c0,4.3-1.9,14.2-5.5,19.4c9.6,4.3,19.8,25.8,19.8,41.2v47.3c0,2.3,1.1,3.4,3.4,3.4
					c8.7,0,15.7,2.6,21.1,7.8c5.4,5.2,8,12.1,8,20.7C751.7,582.7,751.7,596.4,751.7,600.4z"/>
				<path class="st3" d="M737.8,579c0-9.7-4.8-14.6-14.3-14.6h-0.9c-4.9,0-9-1.7-12.3-5c-3.4-3.4-5-7.5-5-12.3v-47.3
					c0-16.7-7.1-29.6-21.2-38.7c4.7-7.6,7.1-15.8,7.1-24.6c0-4.3-1.4-7.8-4.1-10.5c-2.7-2.7-6.2-4.1-10.5-4.1
					c-4.1,0-7.6,1.4-10.3,4.1c-2.7,2.7-4.1,6.1-4.1,10.3c0,4.6-1.5,8.5-4.4,11.9c-2.9,3.4-6.7,5.2-11.2,5.7l-10.9-0.2v-45.4
					c0-4.3-1.4-7.8-4.1-10.5c-2.7-2.7-6.2-4.1-10.5-4.1c-4.3,0-7.7,1.4-10.4,4.1c-2.6,2.7-4,6.2-4,10.5v123.7c0,4.3,1.3,7.7,4,10.4
					c2.6,2.6,6.1,4,10.4,4c4.3,0,7.8-1.3,10.5-4c2.7-2.6,4.1-6.1,4.1-10.4v-49.2H659c4.7,0,8.8,1.7,12.2,5c3.4,3.4,5.1,7.4,5.1,12.1
					v47.3c0,13.3,4.4,24.3,13.2,33.1c8.8,8.8,19.8,13.2,33.1,13.2h0.9c4.3,0,7.7-1.3,10.4-4C736.5,586.7,737.8,583.3,737.8,579z"/>
			</g>
			<g>
				<path d="M916.3,513c0,19.1-6.7,35.3-20,48.6c-13.3,13.3-29.6,19.9-48.7,19.9c-19.3,0-35.5-6.6-48.7-19.8
					c-13.2-13.2-19.8-29.4-19.8-48.7c0-3.6,0-17.8,0-21.4c0-19.4,6.6-35.7,19.7-48.9c13.1-13.2,29.4-19.8,48.8-19.8
					c4.3,0,8.3,0.8,12,2.4v-17.6c0-8,2.7-14.7,8.1-20.1c5.4-5.4,12.1-8.1,20.1-8.1c8.1,0,14.9,2.7,20.3,8c5.4,5.4,8.1,12.1,8.1,20.2
					V513z"/>
				<path class="st3" d="M902.4,491.6v-83.9c0-4.3-1.4-7.7-4.1-10.4c-2.7-2.6-6.2-4-10.5-4c-4.1,0-7.6,1.4-10.3,4.1
					c-2.7,2.7-4.1,6.1-4.1,10.3v83.9c0,7.1-2.5,13.2-7.6,18.2c-5.1,5-11.2,7.5-18.3,7.5c-7.1,0-13.2-2.5-18.2-7.5
					c-5-5-7.5-11.1-7.5-18.2c0-7.1,2.5-13.2,7.5-18.3c5-5.1,11.1-7.6,18.2-7.6c4.3,0,7.8-1.3,10.5-4c2.7-2.6,4.1-6.1,4.1-10.4
					c0-4.3-1.4-7.8-4.1-10.5c-2.7-2.7-6.2-4.1-10.5-4.1c-15.6,0-28.5,5.2-39,15.7c-10.4,10.5-15.6,23.5-15.6,39.1
					c0,15.4,5.2,28.4,15.7,38.9c10.5,10.5,23.4,15.7,38.9,15.7c15.4,0,28.4-5.2,39-15.7C897.1,520,902.4,507.1,902.4,491.6z"/>
				<path class="st4" d="M856.2,499.8c-3.3,0.1-7.8,1-13.7,2.6c1.6,0.7,3.3,1.1,5.1,1.1C851,503.4,853.9,502.2,856.2,499.8z"/>
			</g>
		</g>
	</g>
	<g>
		<path class="st0" d="M483.8,768.2c-10.4,0-19.8-2.4-28.1-7.2c-6.2,4.6-13.6,7-21.6,7c-11.5,0-21.8-3-30.8-8.8
			c-6.6,5.9-14.9,9-24.1,9h-9.6c-11.4,0-21.6-2.9-30.5-8.7c-6.5,5.6-14.6,8.5-23.5,8.5c-7.1,0-13.9-1.3-20.1-3.8
			c-5,2.5-10.5,3.8-16.4,3.8c-9.8,0-18.7-3.6-25.5-10.5c-6.8-6.8-10.5-15.7-10.5-25.5v-53.3c0-15.7,5.5-29.2,16.3-40
			c10.8-10.8,24.3-16.3,40-16.3c15.7,0,29.2,5.5,40.1,16.3c3.1,3.1,5.8,6.5,8.1,10.2c6.8-2.8,14.1-4.2,22-4.2
			c10.3,0,20.3,2.8,29.7,8.3c0.8,0.5,1.6,1,2.4,1.5c9.3-6.6,20.2-9.9,32.4-9.9c8.2,0,15.7,2.5,21.9,7.2c8.3-4.7,17.6-7,27.8-7
			c12.7,0,24,3.6,33.6,10.7c9.1-7,20-10.7,31.9-10.7c7.9,0,15.1,2.3,21.2,6.8c4.4-2.5,9.2-4.3,14.2-5.5c1.8-4.9,4.6-9.3,8.3-13
			c6.9-6.8,15.7-10.5,25.5-10.5c9.9,0,18.7,3.6,25.5,10.3c4.8,4.8,8.1,10.6,9.6,17c6.8-3.4,14.4-5.1,22.4-5.1
			c9.9,0,18.7,3.6,25.5,10.3c6.9,6.8,10.6,15.7,10.6,25.7v10.8c0,9.5-3.4,18.1-9.9,24.9c-1.4,1.4-2.8,2.7-4.4,3.9
			c-0.3,4.6-0.9,8.5-1.8,11.8c-2.1,7.8-6.3,15-12.5,21.2c-9.8,9.8-21.7,14.7-35.5,14.7c-8.2,0-15.7-2.5-21.9-7.2
			c-8.4,4.8-17.8,7.3-28.1,7.3c-14.1,0-26.5-4.5-36.7-13.4c-0.9,1.1-1.8,2.1-2.8,3c-6.8,6.7-15.7,10.3-25.5,10.3
			c-8,0-15.4-2.4-21.5-6.9C503.4,765.8,494.1,768.2,483.8,768.2z"/>
		<path class="st1" d="M694,662.5c-4.8-4.7-11-7.2-17.9-7.2c-10.9,0-20.2,3.8-27.8,11.4c-1.7,1.7-3.2,3.5-4.5,5.4v-13.8
			c0-7-2.5-13.2-7.3-18c-4.8-4.7-11-7.2-17.9-7.2c-6.9,0-13.1,2.5-17.9,7.3c-4.1,4.1-6.5,9.2-7.1,14.9c-9.2,0.8-17.3,4.1-24.2,9.8
			c-0.7-0.9-1.4-1.7-2.2-2.5c-4.8-4.8-10.9-7.3-17.9-7.3c-11.5,0-21.3,4-29.3,11.9c-0.9,0.9-1.7,1.8-2.4,2.7c-0.5-0.5-0.9-1-1.3-1.5
			c-8.8-8.7-19.7-13.1-32.4-13.1c-11.2,0-21,3.4-29.2,10.2c-0.8-1.1-1.7-2.2-2.6-3.1c-4.8-4.8-11-7.3-18-7.3
			c-12.7,0-23.5,4.4-32.2,13.1c-2.1-2.1-4.7-4.2-8-6.1c-7.7-4.5-15.9-6.8-24.2-6.8c-10.2,0-19.2,2.9-26.8,8.4
			c-2.1-6.5-5.8-12.4-10.9-17.5c-8.8-8.7-19.7-13.1-32.4-13.1c-12.8,0-23.7,4.4-32.4,13.1c-8.7,8.7-13.1,19.6-13.1,32.4V732
			c0,6.9,2.5,13.1,7.3,17.9c4.8,4.8,10.9,7.3,17.9,7.3c5.6,0,10.6-1.6,15-4.8c0.2-0.2,0.5-0.4,0.7-0.5c6.1,3.5,13.1,5.3,20.7,5.3
			c6.9,0,13.1-2.5,17.9-7.2c1.7-1.7,3.1-3.5,4.2-5.5c8.7,8.5,19.5,12.9,32,12.9h9.6c7,0,13.2-2.5,18-7.3c1.8-1.9,3.3-3.9,4.5-6.2
			c0,0,0.1,0.1,0.1,0.1c8.8,8.8,19.6,13.2,32.3,13.2c6.9,0,13-2.5,17.8-7.1c1-1,1.8-2,2.6-3c8.2,6.9,18,10.4,29.3,10.4
			c11.1,0,20.9-3.4,29.1-10.2c0.7,1,1.5,1.9,2.4,2.8c4.7,4.7,10.9,7.2,17.9,7.2c7,0,13.1-2.5,17.9-7.2c4.3-4.3,6.8-9.8,7.3-15.9
			c2,3.6,4.5,6.9,7.5,9.9c8.8,8.8,19.6,13.2,32.3,13.2c11.2,0,21.1-3.6,29.4-10.6c0.8,1.1,1.7,2.2,2.7,3.2
			c4.7,4.7,10.9,7.2,17.9,7.2c10.8,0,20.1-3.8,27.8-11.5c4.8-4.9,8.1-10.5,9.8-16.5c1.1-3.8,1.6-8.8,1.6-15.1
			c2.7-1.3,5.2-3.1,7.2-5.2c4.5-4.7,6.9-10.7,6.9-17.4v-10.8C701.4,673.5,698.8,667.3,694,662.5z"/>
		<g>
			<g>
				<path d="M334.3,689.5c0,8.3-2.6,15.6-7.8,22c2.3,2.7,3.5,5.9,3.5,9.6c0,1.9,0,8.9,0,10.8c0,4.1-1.4,7.5-4.1,10.2
					c-2.7,2.7-6.2,4.1-10.3,4.1c-9.3,0-16.8-3.3-22.7-9.9c-0.9,3-2.7,5.3-5.1,7.2c-2.5,1.8-5.4,2.7-8.6,2.7c-4,0-7.4-1.4-10.2-4.1
					c-2.7-2.7-4.1-6.1-4.1-10.2v-53.3c0-9.8,3.3-18.1,10-24.7c6.6-6.6,14.9-10,24.7-10s18.1,3.3,24.8,10c6.7,6.6,10,14.9,10,24.7
					C334.3,680.5,334.3,687.6,334.3,689.5z"/>
				<path class="st3" d="M327.2,678.6c0-7.9-2.7-14.5-8-19.7c-5.3-5.3-11.9-7.9-19.8-7.9c-7.9,0-14.5,2.6-19.7,7.9
					c-5.3,5.3-7.9,11.9-7.9,19.7v42.5c0,2.1,0.7,3.8,2.1,5.2c1.4,1.4,3.1,2.1,5.2,2.1c2.2,0,3.9-0.7,5.3-2c1.4-1.3,2.1-3.1,2.1-5.3
					v-42.5c0-3.6,1.3-6.7,3.8-9.2c2.5-2.5,5.6-3.8,9.2-3.8c3.6,0,6.7,1.3,9.3,3.8c2.6,2.5,3.8,5.6,3.8,9.2c0,3.6-1.3,6.7-3.8,9.3
					c-2.6,2.6-5.7,3.8-9.3,3.8c-2,0-3.6,0.7-5.1,2.2c-1.4,1.4-2.2,3.1-2.2,5.1v6c0,6.7,2.2,12.3,6.7,16.7c4.4,4.4,10,6.7,16.6,6.7
					c2.2,0,3.9-0.7,5.3-2c1.4-1.3,2.1-3.1,2.1-5.3c0-2.2-0.7-4-2.1-5.4c-1.4-1.3-3.2-2-5.5-2c-2.3,0-4.2-0.8-5.9-2.4
					c-1.7-1.6-2.5-3.6-2.6-5.9c6.1-1.7,11-5.1,14.7-10C325.3,690.5,327.2,684.9,327.2,678.6z"/>
				<path d="M302.2,684.1c-0.9-0.4-1.8-0.5-2.7-0.5c-1.8,0-3.3,0.7-4.4,2C296.8,685.3,299.2,684.9,302.2,684.1z"/>
			</g>
			<g>
				<path d="M398.9,697.5c0,4.6-1.8,8.3-5.5,11.3c-0.6,0.6-1.6,1.6-3,3.1c2.2,2.6,3.3,5.7,3.3,9.3c0,1.9,0,9,0,10.8
					c0,4.1-1.4,7.5-4.1,10.3s-6.1,4.1-10.2,4.1h-9.6c-9.8,0-18-3.3-24.7-10c-6.7-6.7-10-14.9-10-24.8c0-1.6,0-9,0-10.8
					c0-9.8,3.3-18.1,10-24.7c6.6-6.6,14.9-10,24.7-10c6.4,0,12.7,1.8,18.8,5.3c7,4,10.5,9.1,10.5,15.2
					C398.9,688.6,398.9,695.6,398.9,697.5z"/>
				<path class="st3" d="M391.8,686.7c0-1.8-0.7-3.5-2.2-5c-5.5-5.6-12.2-8.5-20.1-8.5c-7.9,0-14.5,2.6-19.7,7.9
					c-5.3,5.3-7.9,11.8-7.9,19.7c0,7.9,2.6,14.5,7.9,19.8c5.3,5.3,11.8,8,19.7,8h9.6c2.2,0,3.9-0.7,5.3-2.1c1.3-1.4,2-3.1,2-5.3
					c0-2.2-0.7-3.9-2-5.3c-1.3-1.3-3.1-2-5.3-2h-9.6c-3.6,0-6.7-1.3-9.2-3.8c-2.5-2.6-3.8-5.7-3.8-9.3c0-3.6,1.3-6.7,3.8-9.2
					c2.5-2.5,5.6-3.8,9.2-3.8c0.9,0,1.9,0.1,2.8,0.2l-7.8,7.7c-1.6,1.6-2.4,3.3-2.4,5.1c0,2,0.7,3.8,2.2,5.3
					c1.5,1.5,3.2,2.3,5.3,2.3c1.8,0,3.5-0.8,5.1-2.3l13.9-13.5C390.8,691,391.8,689.1,391.8,686.7z"/>
			</g>
			<g>
				<path d="M448.5,732c0,4.1-1.4,7.5-4.2,10.2c-2.8,2.7-6.2,4.1-10.2,4.1c-9.8,0-18-3.3-24.7-10c-6.7-6.7-10-14.9-10-24.7
					c0-1.8,0-9,0-10.8c0-9.8,3.3-18.1,10-24.8c6.6-6.7,14.9-10,24.7-10c4.1,0,7.6,1.4,10.3,4.1c2.7,2.7,4.1,6.2,4.1,10.3
					c0,1.9,0,9,0,10.8c0,4.1-1.4,7.5-4.1,10.2c-2.7,2.7-6.2,4.1-10.3,4.1c-0.9,0-1.8,0.2-2.6,0.7c0.8,0.4,1.7,0.5,2.6,0.5
					c4.1,0,7.6,1.4,10.3,4.1c2.7,2.7,4.1,6.2,4.1,10.3C448.5,723.1,448.5,730.1,448.5,732z"/>
				<path class="st3" d="M441.5,721.1c0-2.2-0.7-3.9-2.1-5.3c-1.4-1.4-3.1-2.1-5.3-2.1c-3.6,0-6.7-1.3-9.2-3.8
					c-2.5-2.5-3.8-5.6-3.8-9.2c0-3.6,1.3-6.7,3.8-9.3c2.5-2.6,5.6-3.9,9.2-3.9c2.2,0,3.9-0.7,5.3-2c1.4-1.3,2.1-3.1,2.1-5.3
					c0-2.2-0.7-3.9-2.1-5.3c-1.4-1.4-3.1-2.1-5.3-2.1c-7.9,0-14.5,2.7-19.7,8c-5.3,5.3-7.9,11.9-7.9,19.8c0,7.8,2.7,14.4,8,19.7
					c5.3,5.3,11.9,8,19.7,8c2.2,0,3.9-0.7,5.3-2C440.8,725.1,441.5,723.3,441.5,721.1z"/>
			</g>
			<g>
				<path d="M518.6,711.7c0,9.8-3.4,18-10.1,24.7c-6.7,6.7-15,10.1-24.7,10.1c-9.8,0-18.1-3.3-24.7-10c-6.6-6.7-10-14.9-10-24.8
					c0-1.8,0-9,0-10.8c0-9.8,3.3-18.1,10-24.7c6.6-6.6,14.9-10,24.7-10s18.1,3.3,24.8,10c6.7,6.6,10,14.9,10,24.7
					C518.6,702.7,518.6,709.9,518.6,711.7z"/>
				<path class="st3" d="M511.6,700.9c0-7.9-2.7-14.5-8-19.7c-5.3-5.3-11.9-7.9-19.8-7.9c-7.9,0-14.5,2.6-19.7,7.9
					c-5.3,5.3-7.9,11.8-7.9,19.7c0,7.9,2.6,14.5,7.9,19.8c5.3,5.3,11.8,8,19.7,8c7.9,0,14.5-2.7,19.8-8
					C508.9,715.3,511.6,708.7,511.6,700.9z M496.9,700.9c0,3.6-1.3,6.7-3.8,9.3c-2.6,2.6-5.7,3.8-9.3,3.8c-3.6,0-6.7-1.3-9.2-3.8
					c-2.5-2.6-3.8-5.7-3.8-9.3c0-3.6,1.3-6.7,3.8-9.2c2.5-2.5,5.6-3.8,9.2-3.8c3.6,0,6.7,1.3,9.3,3.8
					C495.7,694.2,496.9,697.3,496.9,700.9z"/>
			</g>
			<g>
				<path d="M563.6,691.3c0,4.3-1.3,7.6-3.8,10.1c-2.6,2.5-5.9,3.9-10,4.3c-1.4,0.1-2.2,0.6-2.2,1.6V732c0,4.1-1.4,7.5-4.1,10.2
					c-2.7,2.7-6.2,4.1-10.3,4.1s-7.5-1.4-10.2-4.1s-4.1-6.1-4.1-10.2v-35.4c0-8.5,2.9-15.7,8.8-21.6c5.9-5.9,13.1-8.8,21.6-8.8
					c4,0,7.4,1.4,10.2,4.1c2.7,2.7,4.1,6.1,4.1,10.2C563.6,682.5,563.6,689.4,563.6,691.3z"/>
				<path class="st3" d="M556.6,680.5c0-2.1-0.7-3.8-2.1-5.2c-1.4-1.4-3.1-2.1-5.2-2.1c-6.6,0-12.2,2.2-16.7,6.7
					c-4.5,4.4-6.7,10-6.7,16.6v24.6c0,2.2,0.7,3.9,2,5.3c1.3,1.3,3.1,2,5.3,2c2.2,0,3.9-0.7,5.3-2c1.4-1.3,2.1-3.1,2.1-5.3v-24.6
					c0-2.5,0.8-4.5,2.4-6c1.6-1.6,3.7-2.4,6.1-2.7C554.1,687.4,556.6,685,556.6,680.5z"/>
			</g>
			<g>
				<path d="M633,711.6c0,9.7-3.4,17.9-10.1,24.6c-6.8,6.7-15,10.1-24.7,10.1c-9.8,0-18-3.3-24.7-10c-6.7-6.7-10-14.9-10-24.7
					c0-1.8,0-9,0-10.8c0-9.8,3.3-18.1,10-24.8c6.6-6.7,14.9-10,24.7-10c2.2,0,4.2,0.4,6.1,1.2v-8.9c0-4,1.4-7.4,4.1-10.2
					c2.7-2.7,6.1-4.1,10.2-4.1c4.1,0,7.6,1.4,10.3,4.1c2.7,2.7,4.1,6.1,4.1,10.2V711.6z"/>
				<path class="st3" d="M625.9,700.8v-42.5c0-2.2-0.7-3.9-2.1-5.3c-1.4-1.3-3.1-2-5.3-2c-2.1,0-3.8,0.7-5.2,2.1
					c-1.4,1.4-2.1,3.1-2.1,5.2v42.5c0,3.6-1.3,6.7-3.8,9.2c-2.6,2.5-5.7,3.8-9.3,3.8c-3.6,0-6.7-1.3-9.2-3.8
					c-2.5-2.5-3.8-5.6-3.8-9.2c0-3.6,1.3-6.7,3.8-9.3c2.5-2.6,5.6-3.9,9.2-3.9c2.2,0,3.9-0.7,5.3-2c1.4-1.3,2.1-3.1,2.1-5.3
					c0-2.2-0.7-3.9-2.1-5.3c-1.4-1.4-3.1-2.1-5.3-2.1c-7.9,0-14.5,2.7-19.7,8c-5.3,5.3-7.9,11.9-7.9,19.8c0,7.8,2.7,14.4,8,19.7
					c5.3,5.3,11.9,8,19.7,8c7.8,0,14.4-2.7,19.7-8C623.3,715.1,625.9,708.6,625.9,700.8z"/>
				<path d="M602.5,704.9c-1.7,0.1-4,0.5-6.9,1.3c0.8,0.4,1.7,0.5,2.6,0.5C599.9,706.7,601.4,706.1,602.5,704.9z"/>
			</g>
			<g>
				<path d="M690.5,691.3c0,3.9-1.3,7.2-3.8,9.9c-2.6,2.7-6.2,4.2-10.1,4.5c0-0.1-0.1,3.1-0.1,5.9v2.1c0,5.4-0.4,9.6-1.2,12.5
					c-1.2,4.3-3.5,8.2-7,11.8c-5.5,5.5-12.2,8.2-20.1,8.2c-4.1,0-7.5-1.4-10.2-4.1s-4.1-6.1-4.1-10.2c0-1.9,0-9,0-10.8
					c0-4,1.3-7.4,4-10.2c2.6-2.7,6-4.2,10-4.2v-1.3c0-0.8,0-1.6,0.1-2.5c-0.1-0.9-0.1-1.7-0.1-2.4v-6c0-7.9,2.7-14.7,8.2-20.1
					c5.5-5.5,12.2-8.2,20.1-8.2c4.1,0,7.5,1.4,10.3,4.1c2.7,2.7,4.1,6.1,4.1,10.2C690.5,682.4,690.5,689.4,690.5,691.3z"/>
				<path class="st3" d="M683.5,680.5c0-2.2-0.7-3.9-2.1-5.3c-1.4-1.3-3.1-2-5.3-2c-6,0-11,2-15.1,6.1c-4.1,4.1-6.1,9.1-6.1,15.1v6
					c0,0.5,0,2-0.1,4.4v2.2c0,1.9-0.6,3.5-1.9,4.7c-1.3,1.3-2.8,1.9-4.7,1.9c-2.2,0-3.9,0.7-5.3,2.1c-1.3,1.4-2,3.1-2,5.3
					c0,2.2,0.7,3.9,2,5.3c1.3,1.3,3.1,2,5.3,2c5.9,0,10.9-2.1,15-6.2c4.1-4.1,6.2-9.1,6.2-15.1l0.1-12.6c0-1.1,0.1-1.9,0.3-2.4
					c0.2-0.5,0.7-1.3,1.7-2.2c0.9-0.9,2.6-1.6,4.9-2c2.3-0.4,4.1-1.2,5.3-2.4C682.9,684.2,683.5,682.6,683.5,680.5z"/>
			</g>
		</g>
	</g>
</g>
</svg>
