<svg xmlns="http://www.w3.org/2000/svg" viewBox="0 0 998.25 902.07">
  <defs>
    <style>
      .cls-1, .cls-3 {
        fill: #fff;
      }

      .cls-2, .cls-4, .cls-5 {
        fill: #0e244b;
      }

      .cls-3, .cls-4 {
        font-size: 149px;
        font-family: ConthraxSb-Regular, Conthrax;
        font-weight: 700;
      }

      .cls-5 {
        stroke: #fff;
        stroke-miterlimit: 10;
        stroke-width: 2px;
      }
    </style>
  </defs>
  <title>MosaicLogo</title>
  <g id="Layer_2" data-name="Layer 2">
    <rect class="cls-1" width="998.25" height="902.07"/>
    <path class="cls-2" d="M75,211.81c-10,0-16-4.48-19.29-8.23a22.8,22.8,0,0,1-5.18-20.11L72.72,67.13A29.13,29.13,0,0,1,83.78,49.61a31.07,31.07,0,0,1,19.62-7h88.81c10,0,16,4.48,19.28,8.23A22.81,22.81,0,0,1,216.67,71L194.46,187.32a29.07,29.07,0,0,1-11.06,17.52,31.07,31.07,0,0,1-19.62,7Z"/>
    <g>
      <path class="cls-2" d="M678.18,137.27c-1.71,1.36-2,2-2,2a36.61,36.61,0,0,0-1.34,3.61,27.33,27.33,0,0,0-.17,3.85s0,.4,1.21,1.76A4.26,4.26,0,0,0,678,150a40.85,40.85,0,0,0,5.95.52h39.36a3.81,3.81,0,0,0,3.58-2.94l1.88-9.41a2.37,2.37,0,0,0-2.42-2.94H686.94a44.08,44.08,0,0,0-6,.49A7.07,7.07,0,0,0,678.18,137.27Z"/>
      <path class="cls-2" d="M936.62,114.79a3.81,3.81,0,0,0,3.58-2.94l8.27-41.63a2.37,2.37,0,0,0-2.42-2.94H302.43a44,44,0,0,0-6,.49s-10.13,1.68-15.7,6-9.6,13.89-9.6,13.89a36.79,36.79,0,0,0-1.72,5.71l-17.92,89.92a2.38,2.38,0,0,0,2.42,2.94H922.44a3.82,3.82,0,0,0,3.58-2.94l8.27-41.63a2.38,2.38,0,0,0-2.42-3H858.46a2.37,2.37,0,0,1-2.41-2.94l3.6-18a3.83,3.83,0,0,1,3.59-2.94ZM452.83,82.08a3.82,3.82,0,0,1,3.58-3h24a2.33,2.33,0,0,1,2.37,2.94L479,100a3.87,3.87,0,0,1-3.62,2.93H451.72A2.38,2.38,0,0,1,449.3,100ZM412.26,95.67A37.15,37.15,0,0,1,414,90a18.66,18.66,0,0,1,5.19-6.83,22,22,0,0,1,8.48-3.5,44.09,44.09,0,0,1,6-.5h4.93a2.38,2.38,0,0,1,2.42,3L437.45,100a3.81,3.81,0,0,1-3.58,2.94H413.81A2.36,2.36,0,0,1,411.4,100Zm-4.41,22.06a3.81,3.81,0,0,1,3.58-2.94h20.1a2.37,2.37,0,0,1,2.42,2.94l-3.54,18a3.81,3.81,0,0,1-3.58,2.94H406.66a2.37,2.37,0,0,1-2.42-2.94Zm-12.79-28a36,36,0,0,1-.56,6l-15.08,75.7a3.83,3.83,0,0,1-3.59,2.94H355.32a2.37,2.37,0,0,1-2.41-2.94l11.7-58.71a34.82,34.82,0,0,0,.55-5.94s0-.4-1.2-1.76a4.18,4.18,0,0,0-2-1.51,35.71,35.71,0,0,0-3.9-.53c-.52,0-2.28.22-3.91.48a7,7,0,0,0-2.8,1.48,6.25,6.25,0,0,0-2,2,38.42,38.42,0,0,0-1.7,5.73l-11.69,58.71a3.81,3.81,0,0,1-3.58,2.94h-20.5a2.37,2.37,0,0,1-2.42-2.94l11.69-58.71a34.91,34.91,0,0,0,.55-5.94s0-.4-1.19-1.76a4.24,4.24,0,0,0-2-1.51,35.71,35.71,0,0,0-3.9-.53c-.51,0-2.27.22-3.9.48a7,7,0,0,0-2.78,1.48,6.31,6.31,0,0,0-2,2.06,39.24,39.24,0,0,0-1.69,5.73l-11.7,58.7a3.81,3.81,0,0,1-3.58,2.94H268.4a2.36,2.36,0,0,1-2.41-2.94l15.08-75.7A36.94,36.94,0,0,1,282.8,90,18.66,18.66,0,0,1,288,83.13a22,22,0,0,1,8.48-3.5,44,44,0,0,1,6-.5h77.18a42.29,42.29,0,0,1,5.95.52s4.67.82,7.07,3.48A11.21,11.21,0,0,1,395.06,89.73Zm28.32,81.65a3.81,3.81,0,0,1-3.58,2.94h-5.08a41.1,41.1,0,0,1-6-.52s-4.67-.81-7.06-3.47a11.25,11.25,0,0,1-2.43-6.61,34.83,34.83,0,0,1,.56-5.94l.86-4.31a3.84,3.84,0,0,1,3.59-2.95h20.21a2.38,2.38,0,0,1,2.42,2.95Zm40.37,0a3.88,3.88,0,0,1-3.63,2.93H437.66a2.37,2.37,0,0,1-2.42-2.94l3.53-17.91a3.82,3.82,0,0,1,3.58-2.95H465.2a2.34,2.34,0,0,1,2.38,2.94Zm41.95-13.61a37.63,37.63,0,0,1-1.74,5.71,18.78,18.78,0,0,1-5.18,6.84,22,22,0,0,1-8.48,3.5,44.08,44.08,0,0,1-6,.49H478a2.33,2.33,0,0,1-2.37-2.93l3.82-17.93a3.89,3.89,0,0,1,3.63-2.94h21.09a2.37,2.37,0,0,1,2.41,2.95Zm4.41-22.06a3.82,3.82,0,0,1-3.59,2.94H486a2.37,2.37,0,0,1-2.41-2.94l3.6-18a3.83,3.83,0,0,1,3.59-2.94H511.3a2.36,2.36,0,0,1,2.41,2.94Zm8.58-46a35.77,35.77,0,0,1-.56,5.94l-.87,4.32a3.82,3.82,0,0,1-3.59,2.94H493.22a2.34,2.34,0,0,1-2.38-2.93l3.83-17.93a3.87,3.87,0,0,1,3.62-2.94h4.95a42.29,42.29,0,0,1,5.95.52s4.67.82,7.07,3.48A11.21,11.21,0,0,1,518.69,89.73Zm40.79,20.51a14.66,14.66,0,0,0,2.81,3.48c.78.61,5,1.11,6.69,1.11h50.71a40.86,40.86,0,0,1,5.95.53s4.49.8,6.88,3.46a11.25,11.25,0,0,1,2.43,6.61,31.49,31.49,0,0,1-.25,4.53,5,5,0,0,0-.19,1.27c0-.14-.18,1.07-.51,2.69l-4.85,23.86a37.63,37.63,0,0,1-1.74,5.71,18.87,18.87,0,0,1-5.19,6.84,22,22,0,0,1-8.48,3.5,44.08,44.08,0,0,1-6,.49H523a2.37,2.37,0,0,1-2.42-2.94l3.56-17.91a3.83,3.83,0,0,1,3.59-2.95h66.4a34.89,34.89,0,0,0,5.94-.61,8.87,8.87,0,0,0,4.24-2.62l.76-.79a16.86,16.86,0,0,0,.41-4.62l-1.07-1.3a3.82,3.82,0,0,0-2.05-1.46,44.08,44.08,0,0,0-6-.49H545.16a41.12,41.12,0,0,1-6-.53s-4.48-.8-6.87-3.47a11.13,11.13,0,0,1-2.43-6.6,33.76,33.76,0,0,1,.56-5.94l5.25-26.41A36.94,36.94,0,0,1,537.44,90a18.66,18.66,0,0,1,5.19-6.83,22,22,0,0,1,8.48-3.5,44.09,44.09,0,0,1,6-.5h84.74a2.37,2.37,0,0,1,2.41,3L640.67,100a3.82,3.82,0,0,1-3.59,2.94H571.25a45.61,45.61,0,0,0-6,.48,6.64,6.64,0,0,0-2.72,1.48,7,7,0,0,0-2.83,4ZM764.26,89.73a36,36,0,0,1-.56,6l-15.08,75.7a3.83,3.83,0,0,1-3.59,2.94H660.28a41,41,0,0,1-5.95-.52s-4.67-.81-7.06-3.47a11.17,11.17,0,0,1-2.43-6.61,34.83,34.83,0,0,1,.56-5.94l6-29.81a38.1,38.1,0,0,1,1.74-5.72,18.79,18.79,0,0,1,5.18-6.83,22.06,22.06,0,0,1,8.49-3.5,44,44,0,0,1,6-.49h58.28c1.65,0,3.08-.38,3.17-.85a28.83,28.83,0,0,0,.14-3.85s0-.4-1.2-1.76a4.22,4.22,0,0,0-2-1.51,41,41,0,0,0-6-.53H659.34a2.37,2.37,0,0,1-2.42-2.94l3.56-17.91a3.83,3.83,0,0,1,3.59-3h84.74a42.29,42.29,0,0,1,6,.52s4.67.82,7.07,3.48A11.21,11.21,0,0,1,764.26,89.73Zm28.58,81.65a3.81,3.81,0,0,1-3.58,2.94h-20.5a2.37,2.37,0,0,1-2.41-2.94L778,112.67a3.81,3.81,0,0,1,3.58-2.94h20.5a2.36,2.36,0,0,1,2.41,2.94ZM807,100a3.81,3.81,0,0,1-3.58,2.94h-20.5a2.36,2.36,0,0,1-2.41-2.94l3.55-17.91a3.83,3.83,0,0,1,3.59-3h20.49a2.38,2.38,0,0,1,2.42,3Zm45.26,5c-1.7,1.36-2,2-2,2a36.56,36.56,0,0,0-1.75,5.71l-5.63,28.11a35.87,35.87,0,0,0-.56,5.94s0,.4,1.2,1.76a4.3,4.3,0,0,0,2.06,1.52,40.85,40.85,0,0,0,6,.52h65.84a2.38,2.38,0,0,1,2.42,2.95l-3.56,17.91a3.82,3.82,0,0,1-3.59,2.94H828a40.85,40.85,0,0,1-6-.52s-4.67-.81-7.07-3.47a11.25,11.25,0,0,1-2.43-6.61,34.84,34.84,0,0,1,.57-5.94l12.43-62.11A37.15,37.15,0,0,1,827.24,90a18.66,18.66,0,0,1,5.19-6.83,22,22,0,0,1,8.48-3.5,44.09,44.09,0,0,1,6-.5h84.74a2.37,2.37,0,0,1,2.41,3L930.47,100a3.83,3.83,0,0,1-3.59,2.94H861.05a42.41,42.41,0,0,0-6,.5A6.93,6.93,0,0,0,852.28,105Z"/>
    </g>
    <g>
      <polygon class="cls-1" points="130.75 51.15 166.35 51.15 160.33 79.36 125.2 79.36 130.75 51.15"/>
      <path class="cls-1" d="M82.66,67.27a19,19,0,0,1,7.51-11.39,21.8,21.8,0,0,1,13.56-4.73h13l-5.56,28.21H80.24Z"/>
      <polygon class="cls-1" points="77.43 93.42 108.37 93.42 102.79 121.72 71.77 121.72 77.43 93.42"/>
      <path class="cls-1" d="M94.46,164H81.32q-7.62,0-11.87-4.73a12.43,12.43,0,0,1-2.92-11.39L69,135.78H100Z"/>
      <polygon class="cls-1" points="142.27 163.99 108.52 163.99 114.08 135.78 148.29 135.78 142.27 163.99"/>
      <path class="cls-1" d="M192,147.87a18.94,18.94,0,0,1-7.51,11.39A21.74,21.74,0,0,1,171,164H156.33l6-28.21h32.11Z"/>
      <polygon class="cls-1" points="197.27 121.72 165.85 121.72 171.51 93.42 202.94 93.42 197.27 121.72"/>
      <path class="cls-1" d="M208.17,67.27l-2.42,12.09H174.39l6-28.21h13q7.62,0,11.88,4.73A12.43,12.43,0,0,1,208.17,67.27Z"/>
      <g>
        <path class="cls-1" d="M85.36,179.29l-3,16.64H77.52l2.36-13.17a1.15,1.15,0,0,0-.23-1,1.09,1.09,0,0,0-.91-.42h-.35a1.59,1.59,0,0,0-1.06.4,1.67,1.67,0,0,0-.57,1l-2.35,13.17H69.55l2.35-13.17a1.15,1.15,0,0,0-.22-1,1.09,1.09,0,0,0-.91-.42h-.35a1.55,1.55,0,0,0-1,.4,1.67,1.67,0,0,0-.57,1l-2.36,13.17H61.58l3-16.64a3.37,3.37,0,0,1,1.16-2,3.19,3.19,0,0,1,2.1-.81H83.07a2.24,2.24,0,0,1,1.84.81A2.31,2.31,0,0,1,85.36,179.29Z"/>
        <path class="cls-1" d="M105.53,193.16a3.27,3.27,0,0,1-1.16,2,3.15,3.15,0,0,1-2.1.81H88.41a2.24,2.24,0,0,1-1.84-.81,2.31,2.31,0,0,1-.45-2l2.5-13.87a3.32,3.32,0,0,1,1.16-2,3.14,3.14,0,0,1,2.09-.81h13.87a2.24,2.24,0,0,1,1.84.81,2.31,2.31,0,0,1,.45,2Zm-4.23-3.47,1.24-6.93a1.15,1.15,0,0,0-.22-1,1.11,1.11,0,0,0-.92-.42H94.48a1.57,1.57,0,0,0-1.06.42,1.72,1.72,0,0,0-.57,1l-1.24,6.93a1.15,1.15,0,0,0,.22,1,1.1,1.1,0,0,0,.92.42h6.92a1.57,1.57,0,0,0,1.06-.42A1.72,1.72,0,0,0,101.3,189.69Z"/>
        <path class="cls-1" d="M129.28,187.09l-1.11,6.07a3.37,3.37,0,0,1-1.16,2,3.19,3.19,0,0,1-2.1.81H108.27l.87-4.85h13.27a1.68,1.68,0,0,0,1.32-.66,1,1,0,0,0,.24-.56,1.06,1.06,0,0,0-1.14-1.21h-10.5a2.2,2.2,0,0,1-1.81-.81,2.38,2.38,0,0,1-.45-2l1.18-6.59a3.37,3.37,0,0,1,1.16-2,3.19,3.19,0,0,1,2.1-.81h16.64l-.87,4.85H117.11a1.51,1.51,0,0,0-1,.4,1.49,1.49,0,0,0-.52.81.91.91,0,0,0,.21.77,1.06,1.06,0,0,0,.93.45h10.4a2.2,2.2,0,0,1,1.81.81,2.31,2.31,0,0,1,.45,2l-.11.63Z"/>
        <path class="cls-1" d="M133.44,195.93a2.24,2.24,0,0,1-1.84-.81,2.31,2.31,0,0,1-.45-2l1.32-7.28a3.24,3.24,0,0,1,1.16-2,3.15,3.15,0,0,1,2.1-.81h11.78l.07-.35a1.15,1.15,0,0,0-.23-1,1.11,1.11,0,0,0-.92-.42H133.26l.87-4.85h16.64a2.25,2.25,0,0,1,1.84.81,2.31,2.31,0,0,1,.45,2l-3,16.64Zm4.88-8a1.56,1.56,0,0,0-1,.41,1.75,1.75,0,0,0-.57,1l-.07.35a1.15,1.15,0,0,0,.22,1,1.11,1.11,0,0,0,.92.42h8.32l.56-3.12Z"/>
        <path class="cls-1" d="M158.19,195.93h-4.86l2.35-13.17h4.86Zm2.6-14.56h-4.86l.86-4.85h4.86Z"/>
        <path class="cls-1" d="M184.29,176.52l-.87,4.85H170.25a1.55,1.55,0,0,0-1.06.42,1.72,1.72,0,0,0-.57,1l-1.25,6.93a1.15,1.15,0,0,0,.23,1,1.1,1.1,0,0,0,.92.42h13.17l-.87,4.85H164.18a2.23,2.23,0,0,1-1.83-.81,2.31,2.31,0,0,1-.45-2l2.49-13.87a3.37,3.37,0,0,1,1.16-2,3.19,3.19,0,0,1,2.1-.81Z"/>
      </g>
      <polygon class="cls-1" points="124.29 93.42 155.23 93.42 149.65 121.72 118.63 121.72 124.29 93.42"/>
    </g>
    <path class="cls-2" d="M683.94,352.23h45.37l-3,15.29H680.91a6.33,6.33,0,0,1-5-2,5.23,5.23,0,0,1-1.23-4.76l.38-1.69a8.2,8.2,0,0,1,3.12-4.76A9,9,0,0,1,683.94,352.23Zm-235.22-32.3h29.63l5.08-23.8h-30Zm-37.92,0h26.06l4.69-23.8H430.61a18.36,18.36,0,0,0-11.43,4,16,16,0,0,0-6.34,9.6Zm-7.15,35.73h26.17l4.71-23.87h-26.1Zm-11-55.53q-3.58-4-10-4H299.42a18.39,18.39,0,0,0-11.44,4,16,16,0,0,0-6.33,9.6L265.4,391.32h26.5l12.87-64.58a7.9,7.9,0,0,1,3.1-4.85,9.13,9.13,0,0,1,5.74-2h1.88a6.27,6.27,0,0,1,5,2,5.22,5.22,0,0,1,1.23,4.75l-12.86,64.6h26.5l12.86-64.59a7.87,7.87,0,0,1,3.11-4.84,9.19,9.19,0,0,1,5.76-2H359a6.31,6.31,0,0,1,5,2,5.21,5.21,0,0,1,1.23,4.76l-12.87,64.59h26.51l16.25-81.59A10.45,10.45,0,0,0,392.62,300.13Zm34.87,67.39H401.28l-2,10.2a10.5,10.5,0,0,0,2.45,9.61q3.6,4,10,4H422.8Zm40.71,0H439.34l-4.68,23.8h28.46Zm38.94,0H480.06L475,391.32h12.35a18.38,18.38,0,0,0,11.44-4,16,16,0,0,0,6.33-9.61Zm7.16-35.73H487.79L483,355.66h26.51Zm2-31.66q-3.6-4-10-4H495.29l-5.08,23.8h26.46l2-10.2A10.48,10.48,0,0,0,516.26,300.13Zm43.48,25.75a7,7,0,0,1,2.83-4,8.82,8.82,0,0,1,5.67-2h71.84l4.72-23.8H554.06a18.34,18.34,0,0,0-11.43,4,16,16,0,0,0-6.34,9.6L529.87,342a10.48,10.48,0,0,0,2.45,9.6q3.6,4,9.83,4h57.28a6.12,6.12,0,0,1,5,1.95,4.77,4.77,0,0,1,1.23,4,4.63,4.63,0,0,1-1.32,2.72,9.5,9.5,0,0,1-7.18,3.23H524.76L520,391.32h90.74a18.33,18.33,0,0,0,11.43-4,16,16,0,0,0,6.34-9.61L634.6,348l-.19.51.56-3.06a10.5,10.5,0,0,0-2.45-9.61q-3.6-4-9.83-4H566a6,6,0,0,1-5.1-2.21A4.21,4.21,0,0,1,559.74,325.88Zm202.08-25.75q-3.59-4-10-4H661.06l-4.72,23.8h71.81a6.33,6.33,0,0,1,5,2,5.24,5.24,0,0,1,1.23,4.76l-.34,1.7H669.76a18.38,18.38,0,0,0-11.44,4A16,16,0,0,0,652,342l-7.19,35.69a10.53,10.53,0,0,0,2.46,9.61q3.6,4,10,4H748l16.25-81.59A10.48,10.48,0,0,0,761.82,300.13Zm43.26,26.6H778.59l-12.83,64.59h26.5Zm6.08-30.6h-26.5l-4.72,23.8h26.49ZM858,319.93h71.84l4.72-23.8H843.86a18.34,18.34,0,0,0-11.43,4,16,16,0,0,0-6.34,9.6l-13.61,68a10.53,10.53,0,0,0,2.46,9.61c2.4,2.66,5.73,4,10,4H915.7l4.73-23.8H848.59a6.32,6.32,0,0,1-5-2,5.21,5.21,0,0,1-1.23-4.76l6.81-34a8.14,8.14,0,0,1,3.12-4.76A9,9,0,0,1,858,319.93Z"/>
    <g>
      <polygon class="cls-2" points="126.35 267.43 161.94 267.43 155.92 295.64 120.79 295.64 126.35 267.43"/>
      <path class="cls-2" d="M78.26,283.55a19,19,0,0,1,7.51-11.39,21.77,21.77,0,0,1,13.56-4.73h13l-5.56,28.21H75.84Z"/>
      <polygon class="cls-2" points="73.03 309.7 103.96 309.7 98.39 338 67.36 338 73.03 309.7"/>
      <path class="cls-2" d="M90.06,380.27H76.92q-7.62,0-11.88-4.73a12.43,12.43,0,0,1-2.91-11.39l2.42-12.09H95.62Z"/>
      <polygon class="cls-2" points="137.86 380.27 104.12 380.27 109.68 352.06 143.88 352.06 137.86 380.27"/>
      <path class="cls-2" d="M187.64,364.15a18.94,18.94,0,0,1-7.51,11.39,21.74,21.74,0,0,1-13.56,4.73H151.92l6-28.21h32.12Z"/>
      <polygon class="cls-2" points="192.87 338 161.44 338 167.11 309.7 198.53 309.7 192.87 338"/>
      <path class="cls-2" d="M203.77,283.55l-2.42,12.09H170l6-28.21h13c5.07,0,9,1.58,11.88,4.73A12.46,12.46,0,0,1,203.77,283.55Z"/>
      <g>
        <path class="cls-2" d="M77.45,399.09l-3.17,17.74H69.09l2.52-14.05a1.24,1.24,0,0,0-.24-1,1.17,1.17,0,0,0-1-.44H70a1.68,1.68,0,0,0-1.12.42,1.7,1.7,0,0,0-.61,1l-2.52,14.05H60.59l2.51-14.05a1.21,1.21,0,0,0-.23-1,1.17,1.17,0,0,0-1-.44h-.37a1.7,1.7,0,0,0-1.12.42,1.82,1.82,0,0,0-.61,1.06l-2.51,14H52.09l3.18-17.74A3.51,3.51,0,0,1,56.51,397a3.38,3.38,0,0,1,2.24-.87H75a2.38,2.38,0,0,1,2,.87A2.45,2.45,0,0,1,77.45,399.09Z"/>
        <path class="cls-2" d="M99,413.88A3.52,3.52,0,0,1,97.73,416a3.36,3.36,0,0,1-2.24.87H80.71a2.38,2.38,0,0,1-2-.87,2.44,2.44,0,0,1-.48-2.08l2.66-14.79A3.51,3.51,0,0,1,82.17,397a3.34,3.34,0,0,1,2.23-.87H99.19a2.38,2.38,0,0,1,2,.87,2.45,2.45,0,0,1,.48,2.09Zm-4.52-3.7,1.33-7.4a1.21,1.21,0,0,0-.24-1,1.16,1.16,0,0,0-1-.44H87.18a1.6,1.6,0,0,0-1.12.44,1.76,1.76,0,0,0-.61,1l-1.33,7.39a1.18,1.18,0,0,0,.24,1,1.16,1.16,0,0,0,1,.45h7.39a1.63,1.63,0,0,0,1.12-.45A1.79,1.79,0,0,0,94.45,410.18Z"/>
        <path class="cls-2" d="M124.29,407.41l-1.18,6.47a3.52,3.52,0,0,1-1.24,2.08,3.36,3.36,0,0,1-2.24.87H101.89l.92-5.17H117a1.81,1.81,0,0,0,1.41-.71,1.08,1.08,0,0,0,.25-.59,1.14,1.14,0,0,0-1.21-1.29H106.21a2.34,2.34,0,0,1-1.92-.87,2.46,2.46,0,0,1-.48-2.09l1.26-7a3.51,3.51,0,0,1,1.24-2.09,3.34,3.34,0,0,1,2.23-.87h17.75l-.93,5.18h-14a1.64,1.64,0,0,0-1.11.42,1.53,1.53,0,0,0-.56.87,1,1,0,0,0,.22.81,1.15,1.15,0,0,0,1,.48H122a2.31,2.31,0,0,1,1.92.87,2.5,2.5,0,0,1,.49,2.09l-.12.67Z"/>
        <path class="cls-2" d="M128.73,416.83a2.38,2.38,0,0,1-2-.87,2.44,2.44,0,0,1-.48-2.08l1.4-7.77a3.54,3.54,0,0,1,1.24-2.09,3.36,3.36,0,0,1,2.24-.87h12.57l.06-.37a1.18,1.18,0,0,0-.24-1,1.15,1.15,0,0,0-1-.44H128.54l.93-5.18h17.74a2.38,2.38,0,0,1,2,.87,2.45,2.45,0,0,1,.48,2.09l-3.18,17.74Zm5.21-8.5a1.67,1.67,0,0,0-1.13.44,1.87,1.87,0,0,0-.61,1l-.07.37a1.21,1.21,0,0,0,1.22,1.48h8.87l.59-3.33Z"/>
        <path class="cls-2" d="M155.12,416.83h-5.18l2.51-14.05h5.18Zm2.77-15.52h-5.18l.93-5.18h5.18Z"/>
        <path class="cls-2" d="M183,396.13l-.93,5.18H168a1.63,1.63,0,0,0-1.13.44,1.79,1.79,0,0,0-.61,1l-1.33,7.4a1.21,1.21,0,0,0,1.22,1.48h14l-.92,5.17H161.52a2.38,2.38,0,0,1-2-.87,2.44,2.44,0,0,1-.48-2.08l2.66-14.79A3.51,3.51,0,0,1,163,397a3.34,3.34,0,0,1,2.23-.87Z"/>
      </g>
      <polygon class="cls-2" points="119.89 309.7 150.82 309.7 145.25 338 114.22 338 119.89 309.7"/>
    </g>
    <rect class="cls-2" x="36.11" y="461.59" width="937.45" height="211.21" rx="105.61" ry="105.61"/>
    <text class="cls-3" transform="translate(239.65 604.55)">mosaic</text>
    <text class="cls-3" transform="translate(235.15 604.55)">mosaic</text>
    <g>
      <path class="cls-1" d="M210.48,552.87h0l-13.71,3.41a65.84,65.84,0,0,0-8.65-22.84l11.57-10.22h0A88.47,88.47,0,0,1,210.48,552.87Z"/>
      <path class="cls-1" d="M210.47,584.3h0a87.47,87.47,0,0,1-10.79,29.52h0l-11.57-10.37a65,65,0,0,0,8.65-22.72Z"/>
      <path class="cls-1" d="M148.8,650.44V629.88A52.34,52.34,0,0,0,171.53,621l7.05,16.38v0A71.6,71.6,0,0,1,148.8,650.44Z"/>
      <path class="cls-1" d="M164.22,532.55l-7.57,17.51a16.9,16.9,0,0,0-7.85-2.42V527.08A34.54,34.54,0,0,1,164.22,532.55Z"/>
      <path class="cls-1" d="M62.74,545.75l24.54,6.4a69.48,69.48,0,0,0,0,31.34l-24.54,6.09h0a92.45,92.45,0,0,1,0-43.83Z"/>
      <path class="cls-1" d="M175.82,592.42l12.29,11A58.7,58.7,0,0,1,171.53,621l-7.31-17A38.64,38.64,0,0,0,175.82,592.42Z"/>
      <path class="cls-1" d="M188.11,533.45l-12.29,10.87a39.35,39.35,0,0,0-11.6-11.77l7.32-16.9A60,60,0,0,1,188.11,533.45Z"/>
      <path class="cls-1" d="M100.81,525.2l17.13,15.35A42.34,42.34,0,0,0,109.63,558l-22.35-5.83A63.39,63.39,0,0,1,100.81,525.2Z"/>
      <path class="cls-1" d="M132.19,529.63l8.46,19.64a18.63,18.63,0,0,0-6.75,5.57l-16-14.29A37,37,0,0,1,132.19,529.63Z"/>
      <path class="cls-1" d="M123.4,626.88,114.28,648v0A75.45,75.45,0,0,1,82.38,626.9h0l18.42-16.28A56.55,56.55,0,0,0,123.4,626.88Z"/>
      <path class="cls-1" d="M196.76,556.29a69,69,0,0,1,0,24.43L182,576.86A46.22,46.22,0,0,0,182,560Z"/>
      <path class="cls-1" d="M166.05,572.7,182,576.86a43.15,43.15,0,0,1-6.17,15.56L162.74,580.7A21.4,21.4,0,0,0,166.05,572.7Z"/>
      <path class="cls-1" d="M178.59,499.33v0l-7,16.29a53,53,0,0,0-22.74-9.13V486A72.44,72.44,0,0,1,178.59,499.33Z"/>
      <path class="cls-1" d="M156.65,586.45l7.57,17.6a34.31,34.31,0,0,1-15.42,5.27V588.76A16.9,16.9,0,0,0,156.65,586.45Z"/>
      <path class="cls-1" d="M140.65,587l-8.45,19.53a37.58,37.58,0,0,1-14.26-11.09l16-14.1A18.9,18.9,0,0,0,140.65,587Z"/>
      <path class="cls-1" d="M117.94,595.47l-17.13,15.14a64.34,64.34,0,0,1-13.53-27.12l22.35-5.56A43,43,0,0,0,117.94,595.47Z"/>
      <path class="cls-1" d="M148.8,609.32v20.56a51,51,0,0,1-25.4-3l8.8-20.32A33.51,33.51,0,0,0,148.8,609.32Z"/>
      <path class="cls-1" d="M130.06,572.85l-20.43,5.08a46.19,46.19,0,0,1,0-19.95l20.43,5.33a23,23,0,0,0,0,9.54Z"/>
      <path class="cls-1" d="M114.28,488l9.12,21.18a55.53,55.53,0,0,0-22.59,16L82.39,508.69h0A74,74,0,0,1,114.27,488Z"/>
      <path class="cls-1" d="M182,560l-15.94,4a21.65,21.65,0,0,0-3.31-8l13.08-11.56A43.64,43.64,0,0,1,182,560Z"/>
      <path class="cls-1" d="M148.8,506.52v20.56a33.45,33.45,0,0,0-16.61,2.55L123.4,509.2A50.81,50.81,0,0,1,148.8,506.52Z"/>
    </g>
    <text class="cls-3" transform="translate(239.65 825.14)">mosaic</text>
    <text class="cls-4" transform="translate(235.15 825.14)">mosaic</text>
    <g>
      <path class="cls-5" d="M210.48,773.47h0l-13.71,3.4a65.87,65.87,0,0,0-8.65-22.83l11.57-10.22h0A88.39,88.39,0,0,1,210.48,773.47Z"/>
      <path class="cls-5" d="M210.47,804.89h0a87.31,87.31,0,0,1-10.79,29.52h0L188.11,824a65.06,65.06,0,0,0,8.65-22.73Z"/>
      <path class="cls-5" d="M148.8,871V850.47a52.34,52.34,0,0,0,22.73-8.84L178.58,858v0A71.47,71.47,0,0,1,148.8,871Z"/>
      <path class="cls-5" d="M164.22,753.15l-7.57,17.5a17,17,0,0,0-7.85-2.42V747.67A34.43,34.43,0,0,1,164.22,753.15Z"/>
      <path class="cls-5" d="M62.74,766.35l24.54,6.4a69.44,69.44,0,0,0,0,31.33l-24.54,6.1h0a92.45,92.45,0,0,1,0-43.83Z"/>
      <path class="cls-5" d="M175.82,813l12.29,11a58.78,58.78,0,0,1-16.58,17.59l-7.31-17A38.61,38.61,0,0,0,175.82,813Z"/>
      <path class="cls-5" d="M188.11,754.05l-12.29,10.86a39.2,39.2,0,0,0-11.6-11.76l7.32-16.91A59.9,59.9,0,0,1,188.11,754.05Z"/>
      <path class="cls-5" d="M100.81,745.79l17.13,15.36a42.24,42.24,0,0,0-8.31,17.42l-22.35-5.82A63.37,63.37,0,0,1,100.81,745.79Z"/>
      <path class="cls-5" d="M132.19,750.22l8.46,19.64a18.66,18.66,0,0,0-6.75,5.58l-16-14.29A36.93,36.93,0,0,1,132.19,750.22Z"/>
      <path class="cls-5" d="M123.4,847.48l-9.12,21.07v0A75.45,75.45,0,0,1,82.38,847.5v0l18.42-16.28A56.67,56.67,0,0,0,123.4,847.48Z"/>
      <path class="cls-5" d="M196.76,776.88a69,69,0,0,1,0,24.43L182,797.45a46.16,46.16,0,0,0,0-16.9Z"/>
      <path class="cls-5" d="M166.05,793.29,182,797.45A43.13,43.13,0,0,1,175.82,813l-13.08-11.73A21.33,21.33,0,0,0,166.05,793.29Z"/>
      <path class="cls-5" d="M178.59,719.93v0l-7,16.29a53,53,0,0,0-22.74-9.13V706.55A72.45,72.45,0,0,1,178.59,719.93Z"/>
      <path class="cls-5" d="M156.65,807l7.57,17.6a34.07,34.07,0,0,1-15.42,5.27V809.35A16.79,16.79,0,0,0,156.65,807Z"/>
      <path class="cls-5" d="M140.65,807.62l-8.45,19.54a37.58,37.58,0,0,1-14.26-11.09l16-14.11A18.8,18.8,0,0,0,140.65,807.62Z"/>
      <path class="cls-5" d="M117.94,816.07,100.81,831.2a64.28,64.28,0,0,1-13.53-27.12l22.35-5.56A43.07,43.07,0,0,0,117.94,816.07Z"/>
      <path class="cls-5" d="M148.8,829.91v20.56a51.13,51.13,0,0,1-25.4-3l8.8-20.32A33.51,33.51,0,0,0,148.8,829.91Z"/>
      <path class="cls-5" d="M130.06,793.44l-20.43,5.08a46.19,46.19,0,0,1,0-19.95l20.43,5.34a23,23,0,0,0,0,9.53Z"/>
      <path class="cls-5" d="M114.28,708.61l9.12,21.18a55.72,55.72,0,0,0-22.59,16L82.39,729.28h0a74.08,74.08,0,0,1,31.89-20.68Z"/>
      <path class="cls-5" d="M182,780.55l-15.94,4a21.61,21.61,0,0,0-3.31-8l13.08-11.57A43.61,43.61,0,0,1,182,780.55Z"/>
      <path class="cls-5" d="M148.8,727.11v20.56a33.57,33.57,0,0,0-16.61,2.55l-8.79-20.43A50.92,50.92,0,0,1,148.8,727.11Z"/>
    </g>
  </g>
</svg>
