<?xml version="1.0" encoding="utf-8"?>
<!-- Generator: Adobe Illustrator 22.1.0, SVG Export Plug-In . SVG Version: 6.00 Build 0)  -->
<svg version="1.1" id="Layer_4" xmlns="http://www.w3.org/2000/svg" xmlns:xlink="http://www.w3.org/1999/xlink" x="0px" y="0px"
	 viewBox="0 0 500 500" style="enable-background:new 0 0 500 500;" xml:space="preserve">
<style type="text/css">
	.st0{fill:#FFFFFF;}
	.st1{display:none;fill:none;stroke:#010202;stroke-width:1.253;stroke-miterlimit:10;}
</style>
<path d="M246.9,216c-10,0-18.8-1.8-25.5-5.1c-4-2-7-4.7-9.1-8.2c-30.9-6.6-57.4-40.1-58.8-64.1c-0.3-4.4,0.6-8.4,2.5-12
	c-9.7-30.1,6-69.7,26.1-83c3.7-2.4,7.6-3.7,11.6-3.8c15.9-17.7,41-24,59.4-24c10,0,18.8,1.8,25.5,5.1c4,2,7,4.7,9.1,8.2
	c31,6.6,57.4,40.1,58.8,64.1c0.3,4.4-0.6,8.4-2.5,12c9.7,30.1-6,69.7-26.1,83c-3.7,2.4-7.6,3.7-11.6,3.8
	C290.4,209.7,265.3,216,246.9,216z"/>
<g>
	<circle cx="250" cy="115.9" r="89.9"/>
	<g>
		<path class="st0" d="M335,94.4c-1,1.6,1,3.9,1,3.9c14.2,34.6-22.9,50.9-24.9,40.4c-5.3-27.7-15,13.4-43.1-6.7
			C327.6,190.2,355.9,132.1,335,94.4z"/>
		<path class="st0" d="M311.2,178.8c-1.9,0-2.9,2.8-2.9,2.8c-22.9,29.6-55.5,5.7-47.4-1.4c21.3-18.5-19.1-6.3-15.7-40.7
			C224.5,220.2,289,215.7,311.2,178.8z"/>
		<path class="st0" d="M226.2,200.3c-0.9-1.6-3.9-1.1-3.9-1.1c-37.1-5-32.7-45.3-22.5-41.8c26.7,9.2-4.1-19.7,27.4-34
			C146.9,146,183.1,199.6,226.2,200.3z"/>
		<path class="st0" d="M165,137.5c1-1.6-1-3.9-1-3.9c-14.2-34.6,22.9-50.9,24.9-40.4c5.3,27.7,15-13.4,43.1,6.7
			C172.4,41.7,144.1,99.8,165,137.5z"/>
		<path class="st0" d="M188.8,53.1c1.9,0,2.9-2.8,2.9-2.8c22.9-29.6,55.5-5.7,47.4,1.4c-21.3,18.5,19.1,6.3,15.7,40.7
			C275.5,11.7,211,16.2,188.8,53.1z"/>
		<path class="st0" d="M273.8,31.5c0.9,1.6,3.9,1.1,3.9,1.1c37.1,5,32.7,45.3,22.5,41.8c-26.7-9.2,4.1,19.7-27.4,34
			C353.1,85.9,316.9,32.3,273.8,31.5z"/>
	</g>
	<path d="M340.7,104.9c2.1-3.2,3.1-7,2.8-11.4c-1.4-22.6-26.8-55.8-57.8-61.6c-1.7-3.4-4.5-6.2-8.5-8.2
		c-20.2-10.1-61.7-4.7-82.2,19.2c-3.8-0.2-7.6,0.8-11.3,3.3c-18.9,12.5-34.9,51.1-24.4,80.8c-2.1,3.2-3.1,7-2.8,11.4
		c1.4,22.6,26.8,55.8,57.8,61.6c1.7,3.4,4.5,6.2,8.5,8.2c20.2,10.1,61.7,4.7,82.2-19.2c3.8,0.2,7.6-0.8,11.3-3.3
		C335.1,173.2,351.2,134.6,340.7,104.9z M268,132c-0.3-0.3-0.5-0.5-0.8-0.7c7.4,34.6,21.6,55.4,36.2,57.5
		c-26.4,27-76.9,23.4-58.3-49.2c0.1-0.3,0.1-0.7,0.2-1c-26.3,23.7-37.2,46.4-31.7,60.1c-36.6-9.4-58.7-54.9,13.5-75.1
		c0.3-0.1,0.7-0.2,1-0.3c-33.6-10.9-58.8-9-67.9,2.6c-10.1-36.4,18.1-78.3,71.8-25.9c0.3,0.3,0.5,0.5,0.8,0.7
		c-7.4-34.6-21.6-55.4-36.2-57.5c26.4-27,76.9-23.4,58.3,49.2c-0.1,0.3-0.1,0.7-0.2,1C281,69.7,291.8,47,286.4,33.3
		c36.6,9.4,58.7,54.9-13.5,75.1c-0.3,0.1-0.7,0.2-1,0.3c33.6,10.9,58.8,9,67.9-2.6C349.9,142.5,321.6,184.4,268,132z"/>
	<path class="st1" d="M250,97.4"/>
</g>
<g>
	<path d="M77.5,415.9c-5,8.6-18.6,33.2-28.8,52.6h-2.8c-9.5-18.4-20.9-40.7-27.5-53.6c-4.7-8.9-6.4-10-15.2-11.1v-1.4h37v1.4
		c-9.8,1.6-10.1,2.8-8.1,7.1c2.8,6.2,14.6,29.4,20.9,41.5c5-8.7,15.2-28,20.6-38.8c3.5-6.9,2.3-8.2-9.9-9.8v-1.4l93.7,0
		c0.1,3.7,1.2,10.1,1.8,13.9l-2.1,0.3c-1.1-2.5-2.9-6.1-5.3-8.4c-2.5-2.4-5.1-2.9-13.2-2.9h-12c-3.2,0-3.6,0.4-3.6,2.6v23.5h14.7
		c10.4,0,11.3-2.5,12.9-8.4h2.1v19.8h-2.1c-2.1-6.1-2.7-8.4-12.8-8.4h-14.8V456c0,7.1,2.6,8.1,10.9,8.1h10.1
		c14.3,0,14.7-9,16.7-12.5l2,0.3l-1.4,15.1H95.5v-1.5c12-1.4,12.9-1.8,12.9-10.4v-40.8c0-8.8-9.6-10.6-13.9-10.6
		C90.1,403.8,83.1,406.4,77.5,415.9z"/>
	<path d="M264.1,403.8c-9.3,1.5-11,2.6-11.2,9.4c-0.1,2.9-0.4,5.1-0.4,14.9v40.2h-3l-61.8-54.1v26.5c0,10,0.2,12.3,0.4,15.6
		c0.5,6.4,1.9,8,13.8,9.3v1.5h-31.6v-1.5c9.9-1.4,11.9-2.6,12.3-9.2c0.2-3.2,0.5-7,0.5-15.7v-27.2c0-2-0.7-3.6-2.1-4.9
		c-3.8-3.3-7.8-4.3-12.3-4.7v-1.5h23.9l55.4,47.5v-21.8c0-9.8-0.3-11.9-0.5-14.9c-0.5-6.8-3-8.3-14.8-9.3v-1.5h31.5V403.8z"/>
	<path d="M341.9,416.9c-1.4-3.5-0.6-6.4-2.6-8.2c-2.5-2.6-3.9-3.5-12.1-3.5h-12.5v50.1c0,8.2,1.2,9,12.5,10.3v1.5h-39v-1.5
		c10.8-1.6,12-2.1,12-10.3v-50.1h-14.2c-6.6,0-8,1.3-10,3.4c-2.1,1.9-1.9,5-3.4,8.4h-2.3l-0.3-14.6h75.6c0.1,3.6-2.1,9.9-1.5,14.2
		L341.9,416.9z"/>
	<path d="M442.4,403.8c-9.9,1.5-10.6,3.6-11.1,7.7c-0.3,2.8-0.6,6.4-0.6,14.4V438c0,10-1.5,18-9.2,24c-5.9,4.6-14.5,6.4-24.8,6.4
		c-8.3,0-16.9-1.4-23.1-5c-7.8-4.6-10.7-11.2-10.7-21.8v-25.9c0-9.7-1.2-10.5-11.1-11.9v-1.5h36.7v1.5c-10.3,1.5-11.1,2.2-11.1,11.9
		v25.6c0,14.4,8.3,22,25.1,22c18.3,0,23.7-8.6,23.7-25.9v-11.6c0-7.9-0.2-11.5-0.6-14.6c-0.5-4.9-2.6-6.3-13.8-7.5v-1.5h30.6V403.8z
		"/>
	<path d="M488.5,416.2c-2.9-6.5-5.5-12.9-16.8-12.9c-9.1,0-13.9,4.4-13.9,10.7c0,6.7,5.3,9.7,16.5,14.6c11.4,5,22.5,10,22.5,20.7
		c0,11.3-13.2,19.2-30.5,19.2c-7.9,0-13.9-1.2-20.4-2.5c0,0-0.2-12.7-0.4-14.7l2.2-0.3c2.8,6.6,6.9,15,20.4,15
		c10.1,0,15-5.1,15-12.1c0-6.8-5.7-10.8-15.6-15.2c-10.4-4.7-22.2-9.5-22.2-20.1c0-10.2,10.3-17.8,28.3-17.8
		c8.4,0,14.3,1.2,17.2,1.4l-0.4,13.5L488.5,416.2z"/>
</g>
<path d="M231.8,352.3v-1.5c10.3-1.3,11.4-2.1,11.4-10.8v-40.2c0-8.9-4.5-10.8-11.6-10.8s-11.1,2.6-16.7,12.1
	c-5,8.6-18.6,33.2-28.8,52.6h-2.8c-9.5-18.4-20.9-40.7-27.5-53.6c-4.7-8.9-6.4-10-15.2-11.1v-1.4h37v1.4c-9.8,1.6-10.1,2.8-8.1,7.1
	c2.8,6.2,14.6,29.4,20.9,41.5c5-8.7,15.2-28,20.6-38.8c3.5-6.9,2.3-8.2-9.9-9.8v-1.4h68v1.5c-10.3,1.4-11.5,1.8-11.5,10.8V340
	c0,8.8,10.3,10.8,13.7,10.8s10.1-2.1,15-11.2l28.6-52.9l3.1-0.3c8.6,17.8,17.6,35.4,26.7,53.2c4.6,9.2,6.6,9.8,14.6,11.2v1.5h-35.7
	v-1.5c8.8-1.3,9.7-2.3,7.5-6.9c-1.7-3.6-20.4-42.4-20.4-42.4c-4.3,8.3-18.4,36.2-20.2,40.2c-3.1,6.7-1.6,7.3,9.8,9.1v1.5H231.8z"/>
</svg>
